<svg width="96" height="30" viewBox="0 0 96 30" fill="none" xmlns="http://www.w3.org/2000/svg">
<g filter="url(#filter0_d)">
<rect x="91" y="3" width="22" height="88" rx="4.64052" transform="rotate(90 91 3)" fill="#3497DB"/>
</g>
<path d="M35.5879 11.9722H38.083V12.9053H36.5347V13.8179H38.083V14.7373H36.5347V17H35.5879V11.9722ZM38.9409 11.9722H41.6855V12.9087H39.8911V13.8179H41.6855V14.7373H39.8911V16.0601H41.6855V17H38.9409V11.9722ZM47.2021 12.8574L46.5322 13.4966C46.0765 13.0158 45.5638 12.7754 44.9941 12.7754C44.5133 12.7754 44.1077 12.9395 43.7773 13.2676C43.4492 13.5957 43.2852 14.0002 43.2852 14.481C43.2852 14.8159 43.3581 15.1133 43.5039 15.373C43.6497 15.6328 43.856 15.8368 44.1226 15.9849C44.3892 16.133 44.6854 16.207 45.0112 16.207C45.2892 16.207 45.5433 16.1558 45.7734 16.0532C46.0036 15.9484 46.2565 15.7593 46.5322 15.4858L47.1816 16.1626C46.8102 16.5249 46.4593 16.7767 46.1289 16.918C45.7985 17.057 45.4214 17.1265 44.9976 17.1265C44.216 17.1265 43.5757 16.8792 43.0767 16.3848C42.5799 15.888 42.3315 15.2523 42.3315 14.4775C42.3315 13.9762 42.4443 13.5308 42.6699 13.1411C42.8978 12.7515 43.2225 12.4382 43.644 12.2012C44.0679 11.9642 44.5236 11.8457 45.0112 11.8457C45.4259 11.8457 45.8247 11.9334 46.2075 12.1089C46.5926 12.2843 46.9242 12.5339 47.2021 12.8574ZM48.0396 11.9722H49.0103V13.8691H50.6919V11.9722H51.6592V17H50.6919V14.7954H49.0103V17H48.0396V11.9722ZM54.3389 11.9722H55.3096L57.2441 17H56.2495L55.8564 15.9644H53.8057L53.3955 17H52.4009L54.3389 11.9722ZM54.8311 13.3052L54.1611 15.0312H55.4976L54.8311 13.3052ZM61.4824 11.9722H62.4531L64.3877 17H63.3931L63 15.9644H60.9492L60.5391 17H59.5444L61.4824 11.9722ZM61.9746 13.3052L61.3047 15.0312H62.6411L61.9746 13.3052ZM65.1328 17V11.9722H65.9224C66.3804 11.9722 66.7153 12.0018 66.9272 12.061C67.228 12.1408 67.4673 12.2889 67.645 12.5054C67.8228 12.7218 67.9116 12.9771 67.9116 13.271C67.9116 13.4624 67.8706 13.6367 67.7886 13.7939C67.7088 13.9489 67.5778 14.0947 67.3955 14.2314C67.7008 14.375 67.9242 14.555 68.0654 14.7715C68.2067 14.9857 68.2773 15.2397 68.2773 15.5337C68.2773 15.8162 68.2044 16.0737 68.0586 16.3062C67.9128 16.5386 67.7248 16.7129 67.4946 16.8291C67.2645 16.943 66.9466 17 66.541 17H65.1328ZM66.0898 12.8848V13.9443H66.2983C66.5308 13.9443 66.7028 13.8953 66.8145 13.7974C66.9284 13.6994 66.9854 13.5661 66.9854 13.3975C66.9854 13.2402 66.9318 13.116 66.8247 13.0249C66.7176 12.9315 66.5547 12.8848 66.3359 12.8848H66.0898ZM66.0898 14.7988V16.0874H66.3291C66.7256 16.0874 66.9922 16.0373 67.1289 15.937C67.2679 15.8368 67.3374 15.6909 67.3374 15.4995C67.3374 15.283 67.2565 15.1121 67.0947 14.9868C66.9329 14.8615 66.6641 14.7988 66.2881 14.7988H66.0898ZM69.125 11.9722H70.0752V17H69.125V11.9722ZM71.1587 11.9722H73.9033V12.9087H72.1089V13.8179H73.9033V14.7373H72.1089V16.0601H73.9033V17H71.1587V11.9722ZM74.8638 11.9722H75.8789C76.4349 11.9722 76.8302 12.0223 77.0649 12.1226C77.3019 12.2205 77.4922 12.3846 77.6357 12.6147C77.7793 12.8449 77.8511 13.1172 77.8511 13.4316C77.8511 13.762 77.7713 14.0389 77.6118 14.2622C77.4546 14.4832 77.2165 14.6507 76.8975 14.7646L78.0869 17H77.041L75.9097 14.8706H75.8208V17H74.8638V11.9722ZM75.8208 13.9375H76.1216C76.4269 13.9375 76.6366 13.8976 76.7505 13.8179C76.8667 13.7381 76.9248 13.606 76.9248 13.4214C76.9248 13.312 76.8963 13.2174 76.8394 13.1377C76.7824 13.0557 76.7061 12.9976 76.6104 12.9634C76.5146 12.9269 76.3392 12.9087 76.084 12.9087H75.8208V13.9375ZM78.3638 11.9722H81.1426V12.9155H80.2266V17H79.2559V12.9155H78.3638V11.9722ZM83.3301 11.9722H84.3008L86.2354 17H85.2407L84.8477 15.9644H82.7969L82.3867 17H81.3921L83.3301 11.9722ZM83.8223 13.3052L83.1523 15.0312H84.4888L83.8223 13.3052Z" fill="#F5F8FA"/>
<path d="M35.5879 11.9722H38.083V12.9053H36.5347V13.8179H38.083V14.7373H36.5347V17H35.5879V11.9722ZM38.9409 11.9722H41.6855V12.9087H39.8911V13.8179H41.6855V14.7373H39.8911V16.0601H41.6855V17H38.9409V11.9722ZM47.2021 12.8574L46.5322 13.4966C46.0765 13.0158 45.5638 12.7754 44.9941 12.7754C44.5133 12.7754 44.1077 12.9395 43.7773 13.2676C43.4492 13.5957 43.2852 14.0002 43.2852 14.481C43.2852 14.8159 43.3581 15.1133 43.5039 15.373C43.6497 15.6328 43.856 15.8368 44.1226 15.9849C44.3892 16.133 44.6854 16.207 45.0112 16.207C45.2892 16.207 45.5433 16.1558 45.7734 16.0532C46.0036 15.9484 46.2565 15.7593 46.5322 15.4858L47.1816 16.1626C46.8102 16.5249 46.4593 16.7767 46.1289 16.918C45.7985 17.057 45.4214 17.1265 44.9976 17.1265C44.216 17.1265 43.5757 16.8792 43.0767 16.3848C42.5799 15.888 42.3315 15.2523 42.3315 14.4775C42.3315 13.9762 42.4443 13.5308 42.6699 13.1411C42.8978 12.7515 43.2225 12.4382 43.644 12.2012C44.0679 11.9642 44.5236 11.8457 45.0112 11.8457C45.4259 11.8457 45.8247 11.9334 46.2075 12.1089C46.5926 12.2843 46.9242 12.5339 47.2021 12.8574ZM48.0396 11.9722H49.0103V13.8691H50.6919V11.9722H51.6592V17H50.6919V14.7954H49.0103V17H48.0396V11.9722ZM54.3389 11.9722H55.3096L57.2441 17H56.2495L55.8564 15.9644H53.8057L53.3955 17H52.4009L54.3389 11.9722ZM54.8311 13.3052L54.1611 15.0312H55.4976L54.8311 13.3052ZM61.4824 11.9722H62.4531L64.3877 17H63.3931L63 15.9644H60.9492L60.5391 17H59.5444L61.4824 11.9722ZM61.9746 13.3052L61.3047 15.0312H62.6411L61.9746 13.3052ZM65.1328 17V11.9722H65.9224C66.3804 11.9722 66.7153 12.0018 66.9272 12.061C67.228 12.1408 67.4673 12.2889 67.645 12.5054C67.8228 12.7218 67.9116 12.9771 67.9116 13.271C67.9116 13.4624 67.8706 13.6367 67.7886 13.7939C67.7088 13.9489 67.5778 14.0947 67.3955 14.2314C67.7008 14.375 67.9242 14.555 68.0654 14.7715C68.2067 14.9857 68.2773 15.2397 68.2773 15.5337C68.2773 15.8162 68.2044 16.0737 68.0586 16.3062C67.9128 16.5386 67.7248 16.7129 67.4946 16.8291C67.2645 16.943 66.9466 17 66.541 17H65.1328ZM66.0898 12.8848V13.9443H66.2983C66.5308 13.9443 66.7028 13.8953 66.8145 13.7974C66.9284 13.6994 66.9854 13.5661 66.9854 13.3975C66.9854 13.2402 66.9318 13.116 66.8247 13.0249C66.7176 12.9315 66.5547 12.8848 66.3359 12.8848H66.0898ZM66.0898 14.7988V16.0874H66.3291C66.7256 16.0874 66.9922 16.0373 67.1289 15.937C67.2679 15.8368 67.3374 15.6909 67.3374 15.4995C67.3374 15.283 67.2565 15.1121 67.0947 14.9868C66.9329 14.8615 66.6641 14.7988 66.2881 14.7988H66.0898ZM69.125 11.9722H70.0752V17H69.125V11.9722ZM71.1587 11.9722H73.9033V12.9087H72.1089V13.8179H73.9033V14.7373H72.1089V16.0601H73.9033V17H71.1587V11.9722ZM74.8638 11.9722H75.8789C76.4349 11.9722 76.8302 12.0223 77.0649 12.1226C77.3019 12.2205 77.4922 12.3846 77.6357 12.6147C77.7793 12.8449 77.8511 13.1172 77.8511 13.4316C77.8511 13.762 77.7713 14.0389 77.6118 14.2622C77.4546 14.4832 77.2165 14.6507 76.8975 14.7646L78.0869 17H77.041L75.9097 14.8706H75.8208V17H74.8638V11.9722ZM75.8208 13.9375H76.1216C76.4269 13.9375 76.6366 13.8976 76.7505 13.8179C76.8667 13.7381 76.9248 13.606 76.9248 13.4214C76.9248 13.312 76.8963 13.2174 76.8394 13.1377C76.7824 13.0557 76.7061 12.9976 76.6104 12.9634C76.5146 12.9269 76.3392 12.9087 76.084 12.9087H75.8208V13.9375ZM78.3638 11.9722H81.1426V12.9155H80.2266V17H79.2559V12.9155H78.3638V11.9722ZM83.3301 11.9722H84.3008L86.2354 17H85.2407L84.8477 15.9644H82.7969L82.3867 17H81.3921L83.3301 11.9722ZM83.8223 13.3052L83.1523 15.0312H84.4888L83.8223 13.3052Z" fill="url(#paint0_linear)"/>
<path d="M19.6728 7.76958V10.3134M14.5852 7.76958V10.3134M11.4055 12.8571H22.8525M12.6774 9.04147H21.5806C22.2831 9.04147 22.8525 9.61092 22.8525 10.3134V19.2166C22.8525 19.919 22.2831 20.4885 21.5806 20.4885H12.6774C11.975 20.4885 11.4055 19.919 11.4055 19.2166V10.3134C11.4055 9.61092 11.975 9.04147 12.6774 9.04147Z" stroke="#F5F8FA" stroke-width="1.1129" stroke-linecap="round" stroke-linejoin="round"/>
<path d="M19.6728 7.76958V10.3134M14.5852 7.76958V10.3134M11.4055 12.8571H22.8525M12.6774 9.04147H21.5806C22.2831 9.04147 22.8525 9.61092 22.8525 10.3134V19.2166C22.8525 19.919 22.2831 20.4885 21.5806 20.4885H12.6774C11.975 20.4885 11.4055 19.919 11.4055 19.2166V10.3134C11.4055 9.61092 11.975 9.04147 12.6774 9.04147Z" stroke="url(#paint1_linear)" stroke-width="1.1129" stroke-linecap="round" stroke-linejoin="round"/>
<defs>
<filter id="filter0_d" x="0" y="0" width="96" height="30" filterUnits="userSpaceOnUse" color-interpolation-filters="sRGB">
<feFlood flood-opacity="0" result="BackgroundImageFix"/>
<feColorMatrix in="SourceAlpha" type="matrix" values="0 0 0 0 0 0 0 0 0 0 0 0 0 0 0 0 0 0 127 0"/>
<feOffset dx="1" dy="1"/>
<feGaussianBlur stdDeviation="2"/>
<feColorMatrix type="matrix" values="0 0 0 0 0 0 0 0 0 0 0 0 0 0 0 0 0 0 0.15 0"/>
<feBlend mode="normal" in2="BackgroundImageFix" result="effect1_dropShadow"/>
<feBlend mode="normal" in="SourceGraphic" in2="effect1_dropShadow" result="shape"/>
</filter>
<linearGradient id="paint0_linear" x1="61" y1="10" x2="61" y2="19" gradientUnits="userSpaceOnUse">
<stop stop-color="white"/>
<stop offset="1" stop-color="white" stop-opacity="0"/>
</linearGradient>
<linearGradient id="paint1_linear" x1="17.129" y1="7.76958" x2="17.129" y2="20.4885" gradientUnits="userSpaceOnUse">
<stop stop-color="white"/>
<stop offset="1" stop-color="white" stop-opacity="0"/>
</linearGradient>
</defs>
</svg>
