<svg width="308" height="230" viewBox="0 0 308 230" fill="none" xmlns="http://www.w3.org/2000/svg">
<g filter="url(#filter0_d)">
<rect x="5" y="5" width="278" height="200" rx="15" fill="#F5F8FA"/>
<rect x="5" y="5" width="278" height="200" rx="15" fill="url(#paint0_linear)"/>
</g>
<rect x="57" y="52" width="171" height="31" fill="#FAFCFD" fill-opacity="0.5"/>
<path d="M111.259 37.7617H114.587L121.22 55H117.809L116.462 51.4492H109.43L108.024 55H104.614L111.259 37.7617ZM112.946 42.332L110.649 48.25H115.231L112.946 42.332ZM124.143 42.25H127.33V43.5508C128.057 42.9414 128.713 42.5195 129.299 42.2852C129.893 42.043 130.498 41.9219 131.115 41.9219C132.381 41.9219 133.455 42.3633 134.338 43.2461C135.08 43.9961 135.451 45.1055 135.451 46.5742V55H132.287V49.4102C132.287 47.8867 132.217 46.875 132.076 46.375C131.943 45.875 131.705 45.4961 131.361 45.2383C131.025 44.9727 130.607 44.8398 130.107 44.8398C129.459 44.8398 128.9 45.0586 128.432 45.4961C127.971 45.9258 127.65 46.5234 127.471 47.2891C127.377 47.6875 127.33 48.5508 127.33 49.8789V55H124.143V42.25ZM126.135 39.8711L124.846 37.9375C125.846 37.1641 126.857 36.7773 127.881 36.7773C128.264 36.7773 128.92 36.9102 129.85 37.1758C130.482 37.3477 130.986 37.4336 131.361 37.4336C132.018 37.4336 132.697 37.2305 133.4 36.8242L134.619 38.6523C133.635 39.4961 132.682 39.918 131.76 39.918C131.268 39.918 130.678 39.8125 129.99 39.6016C129.428 39.4375 129.072 39.3398 128.924 39.3086C128.721 39.2773 128.479 39.2617 128.197 39.2617C127.51 39.2617 126.822 39.4648 126.135 39.8711ZM148.699 42.25H151.886V55H148.699V53.6523C148.074 54.2461 147.445 54.6758 146.812 54.9414C146.187 55.1992 145.507 55.3281 144.773 55.3281C143.124 55.3281 141.699 54.6914 140.495 53.418C139.292 52.1367 138.691 50.5469 138.691 48.6484C138.691 46.6797 139.273 45.0664 140.437 43.8086C141.601 42.5508 143.015 41.9219 144.679 41.9219C145.445 41.9219 146.163 42.0664 146.835 42.3555C147.507 42.6445 148.128 43.0781 148.699 43.6562V42.25ZM145.335 44.875C144.343 44.875 143.519 45.2266 142.863 45.9297C142.206 46.625 141.878 47.5195 141.878 48.6133C141.878 49.7148 142.21 50.6211 142.874 51.332C143.546 52.043 144.37 52.3984 145.347 52.3984C146.355 52.3984 147.191 52.0508 147.855 51.3555C148.519 50.6523 148.851 49.7344 148.851 48.6016C148.851 47.4922 148.519 46.5938 147.855 45.9062C147.191 45.2188 146.351 44.875 145.335 44.875ZM165.262 37.3281H168.45V55H165.262V53.6523C164.637 54.2461 164.008 54.6758 163.376 54.9414C162.751 55.1992 162.071 55.3281 161.337 55.3281C159.688 55.3281 158.262 54.6914 157.059 53.418C155.856 52.1367 155.255 50.5469 155.255 48.6484C155.255 46.6797 155.837 45.0664 157.001 43.8086C158.165 42.5508 159.579 41.9219 161.243 41.9219C162.008 41.9219 162.727 42.0664 163.399 42.3555C164.071 42.6445 164.692 43.0781 165.262 43.6562V37.3281ZM161.899 44.875C160.907 44.875 160.083 45.2266 159.426 45.9297C158.77 46.625 158.442 47.5195 158.442 48.6133C158.442 49.7148 158.774 50.6211 159.438 51.332C160.11 52.043 160.934 52.3984 161.911 52.3984C162.919 52.3984 163.755 52.0508 164.419 51.3555C165.083 50.6523 165.415 49.7344 165.415 48.6016C165.415 47.4922 165.083 46.5938 164.419 45.9062C163.755 45.2188 162.915 44.875 161.899 44.875ZM173.658 37C174.221 37 174.701 37.2031 175.1 37.6094C175.506 38.0156 175.709 38.5078 175.709 39.0859C175.709 39.6562 175.51 40.1445 175.111 40.5508C174.713 40.9492 174.236 41.1484 173.682 41.1484C173.111 41.1484 172.623 40.9453 172.217 40.5391C171.818 40.125 171.619 39.625 171.619 39.0391C171.619 38.4766 171.818 37.9961 172.217 37.5977C172.615 37.1992 173.096 37 173.658 37ZM172.053 42.25H175.264V55H172.053V42.25ZM178.14 42.25H180.882V43.8555C181.179 43.2227 181.573 42.7422 182.066 42.4141C182.558 42.0859 183.097 41.9219 183.683 41.9219C184.097 41.9219 184.53 42.0312 184.984 42.25L183.987 45.0039C183.612 44.8164 183.304 44.7227 183.062 44.7227C182.57 44.7227 182.152 45.0273 181.808 45.6367C181.472 46.2461 181.304 47.4414 181.304 49.2227L181.316 49.8438V55H178.14V42.25ZM37.7764 62.353H40.5318C42.0223 62.353 43.0954 62.4922 43.751 62.7705C44.4128 63.0426 44.9323 63.488 45.3096 64.1064C45.6931 64.7188 45.8848 65.4548 45.8848 66.3145C45.8848 67.2669 45.6343 68.0586 45.1333 68.6895C44.6385 69.3203 43.9644 69.7594 43.1109 70.0068C42.6099 70.1491 41.6976 70.2202 40.3741 70.2202V76H37.7764V62.353ZM40.3741 67.6875H41.1997C41.8492 67.6875 42.3007 67.6411 42.5542 67.5483C42.8078 67.4556 43.0057 67.304 43.148 67.0938C43.2964 66.8773 43.3706 66.6175 43.3706 66.3145C43.3706 65.7887 43.1665 65.4053 42.7583 65.1641C42.4615 64.9847 41.911 64.895 41.107 64.895H40.3741V67.6875ZM48.134 65.9062H50.3049V67.1772C50.5399 66.6763 50.8523 66.2959 51.2419 66.0361C51.6316 65.7764 52.0583 65.6465 52.5222 65.6465C52.85 65.6465 53.1932 65.7331 53.552 65.9062L52.7634 68.0864C52.4665 67.938 52.2222 67.8638 52.0305 67.8638C51.6408 67.8638 51.3099 68.105 51.0378 68.5874C50.7719 69.0698 50.6389 70.0161 50.6389 71.4263L50.6482 71.918V76H48.134V65.9062ZM60.1244 65.6465C61.0769 65.6465 61.9706 65.8846 62.8056 66.3608C63.6467 66.8371 64.3023 67.4834 64.7724 68.2998C65.2424 69.1162 65.4774 69.9976 65.4774 70.9438C65.4774 71.8963 65.2393 72.7869 64.7631 73.6157C64.293 74.4445 63.6498 75.0939 62.8334 75.564C62.017 76.0278 61.1171 76.2598 60.1337 76.2598C58.6864 76.2598 57.4494 75.7464 56.4228 74.7197C55.4022 73.6868 54.892 72.4344 54.892 70.9624C54.892 69.3853 55.4703 68.071 56.6269 67.0195C57.6412 66.1042 58.807 65.6465 60.1244 65.6465ZM60.1615 68.0308C59.376 68.0308 58.7204 68.306 58.1947 68.8564C57.6752 69.4007 57.4154 70.0996 57.4154 70.9531C57.4154 71.8314 57.6721 72.5426 58.1854 73.0869C58.705 73.6312 59.3606 73.9033 60.1522 73.9033C60.9439 73.9033 61.6026 73.6281 62.1283 73.0776C62.654 72.5272 62.9169 71.819 62.9169 70.9531C62.9169 70.0872 62.6571 69.3853 62.1376 68.8472C61.6242 68.3029 60.9656 68.0308 60.1615 68.0308ZM75.5845 62.0098H78.108V76H75.5845V74.9331C75.0898 75.4032 74.5919 75.7433 74.0909 75.9536C73.5961 76.1577 73.058 76.2598 72.4766 76.2598C71.1716 76.2598 70.0429 75.7557 69.0904 74.7476C68.1379 73.7332 67.6617 72.4746 67.6617 70.9717C67.6617 69.4131 68.1225 68.1359 69.044 67.1401C69.9656 66.1444 71.085 65.6465 72.4024 65.6465C73.0085 65.6465 73.5776 65.7609 74.1095 65.9897C74.6414 66.2186 75.1331 66.5618 75.5845 67.0195V62.0098ZM72.922 67.9844C72.1365 67.9844 71.484 68.2627 70.9644 68.8193C70.4449 69.3698 70.1851 70.078 70.1851 70.9438C70.1851 71.8159 70.448 72.5334 70.9737 73.0962C71.5056 73.659 72.1581 73.9404 72.9312 73.9404C73.7291 73.9404 74.3909 73.6652 74.9166 73.1147C75.4423 72.5581 75.7052 71.8314 75.7052 70.9346C75.7052 70.0563 75.4423 69.3451 74.9166 68.8008C74.3909 68.2565 73.726 67.9844 72.922 67.9844ZM81.2293 65.9062H83.7898V70.7676C83.7898 71.7139 83.8547 72.3726 83.9846 72.7437C84.1145 73.1086 84.3217 73.3931 84.6062 73.5972C84.8969 73.8013 85.2525 73.9033 85.6731 73.9033C86.0937 73.9033 86.4493 73.8044 86.74 73.6064C87.0369 73.4023 87.2564 73.1055 87.3987 72.7158C87.5038 72.4251 87.5564 71.8035 87.5564 70.8511V65.9062H90.0984V70.1831C90.0984 71.9458 89.9592 73.1519 89.6809 73.8013C89.3407 74.5929 88.8398 75.2021 88.178 75.6289C87.5162 76.0495 86.6751 76.2598 85.6545 76.2598C84.5475 76.2598 83.6506 76.0124 82.9641 75.5176C82.2838 75.0228 81.8045 74.3332 81.5261 73.4487C81.3282 72.8364 81.2293 71.7231 81.2293 70.1089V65.9062ZM103.1 67.9473L100.994 69.1069C100.598 68.6925 100.206 68.4049 99.8159 68.2441C99.4324 68.0833 98.9809 68.0029 98.4614 68.0029C97.5151 68.0029 96.7481 68.2874 96.1606 68.8564C95.5792 69.4193 95.2885 70.1429 95.2885 71.0273C95.2885 71.887 95.5699 72.589 96.1328 73.1333C96.6956 73.6776 97.4347 73.9497 98.35 73.9497C99.4819 73.9497 100.363 73.5632 100.994 72.79L102.989 74.1538C101.906 75.5578 100.379 76.2598 98.4057 76.2598C96.6306 76.2598 95.239 75.734 94.2309 74.6826C93.2289 73.6312 92.728 72.4004 92.728 70.9902C92.728 70.013 92.9723 69.1131 93.4609 68.2905C93.9495 67.4679 94.6298 66.8216 95.5019 66.3516C96.3801 65.8815 97.3605 65.6465 98.4428 65.6465C99.4448 65.6465 100.345 65.8475 101.143 66.2495C101.94 66.6453 102.593 67.2113 103.1 67.9473ZM106.268 62.186H108.791V65.9062H110.294V68.0864H108.791V76H106.268V68.0864H104.969V65.9062H106.268V62.186ZM116.969 65.6465C117.921 65.6465 118.815 65.8846 119.65 66.3608C120.491 66.8371 121.146 67.4834 121.617 68.2998C122.087 69.1162 122.322 69.9976 122.322 70.9438C122.322 71.8963 122.083 72.7869 121.607 73.6157C121.137 74.4445 120.494 75.0939 119.678 75.564C118.861 76.0278 117.961 76.2598 116.978 76.2598C115.531 76.2598 114.294 75.7464 113.267 74.7197C112.246 73.6868 111.736 72.4344 111.736 70.9624C111.736 69.3853 112.314 68.071 113.471 67.0195C114.485 66.1042 115.651 65.6465 116.969 65.6465ZM117.006 68.0308C116.22 68.0308 115.565 68.306 115.039 68.8564C114.519 69.4007 114.26 70.0996 114.26 70.9531C114.26 71.8314 114.516 72.5426 115.03 73.0869C115.549 73.6312 116.205 73.9033 116.996 73.9033C117.788 73.9033 118.447 73.6281 118.972 73.0776C119.498 72.5272 119.761 71.819 119.761 70.9531C119.761 70.0872 119.501 69.3853 118.982 68.8472C118.468 68.3029 117.81 68.0308 117.006 68.0308ZM131.143 62.353H133.741V73.5229H137.526V76H131.143V62.353ZM147.262 65.9062H149.785V76H147.262V74.9331C146.767 75.4032 146.269 75.7433 145.768 75.9536C145.274 76.1577 144.736 76.2598 144.154 76.2598C142.849 76.2598 141.72 75.7557 140.768 74.7476C139.815 73.7332 139.339 72.4746 139.339 70.9717C139.339 69.4131 139.8 68.1359 140.722 67.1401C141.643 66.1444 142.763 65.6465 144.08 65.6465C144.686 65.6465 145.255 65.7609 145.787 65.9897C146.319 66.2186 146.811 66.5618 147.262 67.0195V65.9062ZM144.599 67.9844C143.814 67.9844 143.161 68.2627 142.642 68.8193C142.122 69.3698 141.863 70.078 141.863 70.9438C141.863 71.8159 142.125 72.5334 142.651 73.0962C143.183 73.659 143.836 73.9404 144.609 73.9404C145.407 73.9404 146.068 73.6652 146.594 73.1147C147.12 72.5581 147.383 71.8314 147.383 70.9346C147.383 70.0563 147.12 69.3451 146.594 68.8008C146.068 68.2565 145.403 67.9844 144.599 67.9844ZM152.916 65.9062H155.439V66.936C156.015 66.4536 156.534 66.1196 156.998 65.9341C157.468 65.7424 157.947 65.6465 158.436 65.6465C159.438 65.6465 160.288 65.9959 160.987 66.6948C161.575 67.2886 161.869 68.1668 161.869 69.3296V76H159.364V71.5747C159.364 70.3687 159.308 69.5677 159.197 69.1719C159.092 68.776 158.903 68.4761 158.631 68.272C158.365 68.0617 158.034 67.9565 157.638 67.9565C157.125 67.9565 156.683 68.1297 156.312 68.4761C155.947 68.8162 155.693 69.2894 155.551 69.8955C155.477 70.2109 155.439 70.8944 155.439 71.9458V76H152.916V65.9062ZM164.461 65.9062H172.208L167.662 73.8569H171.948V76H163.765L168.33 68.0493H164.461V65.9062ZM181.665 65.9062H184.189V76H181.665V74.9331C181.171 75.4032 180.673 75.7433 180.172 75.9536C179.677 76.1577 179.139 76.2598 178.557 76.2598C177.252 76.2598 176.124 75.7557 175.171 74.7476C174.219 73.7332 173.743 72.4746 173.743 70.9717C173.743 69.4131 174.203 68.1359 175.125 67.1401C176.046 66.1444 177.166 65.6465 178.483 65.6465C179.089 65.6465 179.658 65.7609 180.19 65.9897C180.722 66.2186 181.214 66.5618 181.665 67.0195V65.9062ZM179.003 67.9844C178.217 67.9844 177.565 68.2627 177.045 68.8193C176.526 69.3698 176.266 70.078 176.266 70.9438C176.266 71.8159 176.529 72.5334 177.055 73.0962C177.586 73.659 178.239 73.9404 179.012 73.9404C179.81 73.9404 180.472 73.6652 180.997 73.1147C181.523 72.5581 181.786 71.8314 181.786 70.9346C181.786 70.0563 181.523 69.3451 180.997 68.8008C180.472 68.2565 179.807 67.9844 179.003 67.9844ZM187.301 65.9062H189.843V67.0659C190.276 66.5897 190.755 66.234 191.281 65.999C191.813 65.764 192.391 65.6465 193.016 65.6465C193.647 65.6465 194.216 65.8011 194.723 66.1104C195.23 66.4196 195.638 66.8711 195.947 67.4648C196.349 66.8711 196.841 66.4196 197.422 66.1104C198.01 65.8011 198.65 65.6465 199.343 65.6465C200.06 65.6465 200.691 65.8135 201.235 66.1475C201.78 66.4814 202.169 66.9175 202.404 67.4556C202.646 67.9937 202.766 68.8688 202.766 70.0811V76H200.215V70.8789C200.215 69.7347 200.073 68.9616 199.788 68.5596C199.504 68.1514 199.077 67.9473 198.508 67.9473C198.075 67.9473 197.685 68.071 197.339 68.3184C196.999 68.5658 196.745 68.909 196.578 69.3481C196.411 69.7811 196.328 70.48 196.328 71.4448V76H193.776V71.1108C193.776 70.2078 193.708 69.5553 193.572 69.1533C193.442 68.7451 193.245 68.4421 192.979 68.2441C192.713 68.0462 192.391 67.9473 192.014 67.9473C191.593 67.9473 191.21 68.0741 190.863 68.3276C190.523 68.575 190.266 68.9245 190.093 69.376C189.926 69.8275 189.843 70.5387 189.843 71.5098V76H187.301V65.9062ZM206.75 61.75C207.196 61.75 207.576 61.9108 207.891 62.2324C208.213 62.554 208.374 62.9437 208.374 63.4014C208.374 63.8529 208.216 64.2394 207.901 64.561C207.585 64.8765 207.208 65.0342 206.769 65.0342C206.317 65.0342 205.931 64.8734 205.609 64.5518C205.294 64.224 205.136 63.8281 205.136 63.3643C205.136 62.9189 205.294 62.5386 205.609 62.2231C205.925 61.9077 206.305 61.75 206.75 61.75ZM205.479 65.9062H208.021V76H205.479V65.9062ZM221.004 71.686H212.868C212.986 72.4035 213.298 72.9756 213.805 73.4023C214.318 73.8229 214.971 74.0332 215.763 74.0332C216.709 74.0332 217.522 73.7023 218.203 73.0405L220.336 74.0425C219.804 74.797 219.167 75.3568 218.425 75.7217C217.683 76.0804 216.802 76.2598 215.781 76.2598C214.198 76.2598 212.908 75.7619 211.913 74.7661C210.917 73.7642 210.419 72.5117 210.419 71.0088C210.419 69.4688 210.914 68.1916 211.903 67.1772C212.899 66.1567 214.145 65.6465 215.642 65.6465C217.232 65.6465 218.524 66.1567 219.52 67.1772C220.516 68.1916 221.014 69.5337 221.014 71.2036L221.004 71.686ZM218.462 69.6914C218.295 69.1286 217.964 68.6709 217.47 68.3184C216.981 67.9658 216.412 67.7896 215.763 67.7896C215.058 67.7896 214.439 67.9875 213.907 68.3833C213.573 68.6307 213.264 69.0667 212.979 69.6914H218.462ZM223.634 65.9062H226.157V66.936C226.733 66.4536 227.252 66.1196 227.716 65.9341C228.186 65.7424 228.665 65.6465 229.154 65.6465C230.156 65.6465 231.006 65.9959 231.705 66.6948C232.293 67.2886 232.587 68.1668 232.587 69.3296V76H230.082V71.5747C230.082 70.3687 230.026 69.5677 229.915 69.1719C229.809 68.776 229.621 68.4761 229.349 68.272C229.083 68.0617 228.752 67.9565 228.356 67.9565C227.843 67.9565 227.4 68.1297 227.029 68.4761C226.664 68.8162 226.411 69.2894 226.269 69.8955C226.194 70.2109 226.157 70.8944 226.157 71.9458V76H223.634V65.9062ZM235.921 62.186H238.445V65.9062H239.948V68.0864H238.445V76H235.921V68.0864H234.622V65.9062H235.921V62.186ZM246.622 65.6465C247.575 65.6465 248.468 65.8846 249.303 66.3608C250.144 66.8371 250.8 67.4834 251.27 68.2998C251.74 69.1162 251.975 69.9976 251.975 70.9438C251.975 71.8963 251.737 72.7869 251.261 73.6157C250.791 74.4445 250.147 75.0939 249.331 75.564C248.515 76.0278 247.615 76.2598 246.631 76.2598C245.184 76.2598 243.947 75.7464 242.92 74.7197C241.9 73.6868 241.39 72.4344 241.39 70.9624C241.39 69.3853 241.968 68.071 243.124 67.0195C244.139 66.1042 245.305 65.6465 246.622 65.6465ZM246.659 68.0308C245.874 68.0308 245.218 68.306 244.692 68.8564C244.173 69.4007 243.913 70.0996 243.913 70.9531C243.913 71.8314 244.17 72.5426 244.683 73.0869C245.203 73.6312 245.858 73.9033 246.65 73.9033C247.442 73.9033 248.1 73.6281 248.626 73.0776C249.152 72.5272 249.415 71.819 249.415 70.9531C249.415 70.0872 249.155 69.3853 248.635 68.8472C248.122 68.3029 247.463 68.0308 246.659 68.0308Z" fill="#444242"/>
<path d="M134.675 138.529C135.08 139.019 135.664 139.329 136.297 139.386L141.569 139.879L143.773 144.674C144.328 145.88 145.751 146.407 146.956 145.853L151.752 143.648L156.074 146.707C156.593 147.073 157.238 147.217 157.867 147.113C158.074 147.076 158.274 147.016 158.463 146.929C158.843 146.755 159.174 146.481 159.42 146.132L162.476 141.815L167.747 142.307C168.38 142.368 169.012 142.17 169.503 141.765C169.993 141.36 170.303 140.776 170.36 140.142L170.851 134.872L175.646 132.667C176.852 132.113 177.379 130.69 176.824 129.484L174.62 124.689L177.678 120.367C178.443 119.284 178.187 117.785 177.104 117.02L172.785 113.963L173.28 108.696C173.402 107.375 172.432 106.207 171.115 106.083L165.843 105.59L163.638 100.793C163.084 99.5866 161.661 99.0599 160.455 99.6142L155.66 101.818L151.341 98.7613C150.821 98.3952 150.176 98.2484 149.55 98.3535C148.922 98.4575 148.364 98.8118 147.995 99.3324L144.934 103.653L139.664 103.159C138.342 103.035 137.175 104.008 137.051 105.325L136.559 110.596L131.763 112.8C130.557 113.355 130.031 114.778 130.585 115.983L132.789 120.779L129.731 125.101C129.364 125.623 129.219 126.268 129.327 126.895C129.437 127.523 129.788 128.08 130.306 128.45L134.626 131.504L134.131 136.771C134.075 137.407 134.269 138.036 134.675 138.529ZM154.707 124.915C147.118 128.403 144.101 124.827 142.977 122.382C141.687 119.576 142.632 115.718 146.597 113.018L145.522 110.679L149.883 108.674L150.995 111.092C155.187 110.248 158.086 112.727 159.114 114.964L156.933 115.967L154.771 117.008C154.359 116.194 153.282 115.004 150.698 116.192C147.865 117.494 146.852 119.32 147.339 120.377C147.714 121.193 148.341 122.558 152.702 120.553C160.291 117.065 163.308 120.641 164.432 123.086C165.722 125.892 164.777 129.75 160.812 132.449L161.9 134.815L157.538 136.82L156.456 134.465C150.987 136.009 147.906 133.104 146.987 131.105L151.348 129.1C151.515 129.401 152.697 131.121 156.712 129.276C159.721 127.893 160.487 125.995 160.071 125.09C159.745 124.382 159.068 122.91 154.707 124.915Z" fill="#3497DB"/>
<path d="M106 109H119.714L128.903 154.909C129.216 156.487 130.075 157.905 131.329 158.914C132.582 159.923 134.151 160.459 135.76 160.429H169.086C170.695 160.459 172.263 159.923 173.517 158.914C174.771 157.905 175.629 156.487 175.943 154.909L181.429 126.143H123.143M136.857 177.571C136.857 179.465 135.322 181 133.429 181C131.535 181 130 179.465 130 177.571C130 175.678 131.535 174.143 133.429 174.143C135.322 174.143 136.857 175.678 136.857 177.571ZM174.571 177.571C174.571 179.465 173.036 181 171.143 181C169.249 181 167.714 179.465 167.714 177.571C167.714 175.678 169.249 174.143 171.143 174.143C173.036 174.143 174.571 175.678 174.571 177.571Z" stroke="#3497DB" stroke-width="4" stroke-linecap="round" stroke-linejoin="round"/>
<defs>
<filter id="filter0_d" x="0" y="0" width="308" height="230" filterUnits="userSpaceOnUse" color-interpolation-filters="sRGB">
<feFlood flood-opacity="0" result="BackgroundImageFix"/>
<feColorMatrix in="SourceAlpha" type="matrix" values="0 0 0 0 0 0 0 0 0 0 0 0 0 0 0 0 0 0 127 0"/>
<feOffset dx="10" dy="10"/>
<feGaussianBlur stdDeviation="7.5"/>
<feColorMatrix type="matrix" values="0 0 0 0 0 0 0 0 0 0 0 0 0 0 0 0 0 0 0.2 0"/>
<feBlend mode="multiply" in2="BackgroundImageFix" result="effect1_dropShadow"/>
<feBlend mode="normal" in="SourceGraphic" in2="effect1_dropShadow" result="shape"/>
</filter>
<linearGradient id="paint0_linear" x1="144" y1="5" x2="144" y2="205" gradientUnits="userSpaceOnUse">
<stop stop-color="white"/>
<stop offset="1" stop-color="white" stop-opacity="0"/>
</linearGradient>
</defs>
</svg>
