<svg width="308" height="230" viewBox="0 0 308 230" fill="none" xmlns="http://www.w3.org/2000/svg">
<g filter="url(#filter0_d)">
<rect x="5" y="5" width="278" height="200" rx="15" fill="#F5F8FA"/>
<rect x="5" y="5" width="278" height="200" rx="15" fill="url(#paint0_linear)"/>
</g>
<rect x="57" y="52" width="171" height="31" fill="#FAFCFD" fill-opacity="0.5"/>
<path d="M111.259 37.7617H114.587L121.22 55H117.809L116.462 51.4492H109.43L108.024 55H104.614L111.259 37.7617ZM112.946 42.332L110.649 48.25H115.231L112.946 42.332ZM124.143 42.25H127.33V43.5508C128.057 42.9414 128.713 42.5195 129.299 42.2852C129.893 42.043 130.498 41.9219 131.115 41.9219C132.381 41.9219 133.455 42.3633 134.338 43.2461C135.08 43.9961 135.451 45.1055 135.451 46.5742V55H132.287V49.4102C132.287 47.8867 132.217 46.875 132.076 46.375C131.943 45.875 131.705 45.4961 131.361 45.2383C131.025 44.9727 130.607 44.8398 130.107 44.8398C129.459 44.8398 128.9 45.0586 128.432 45.4961C127.971 45.9258 127.65 46.5234 127.471 47.2891C127.377 47.6875 127.33 48.5508 127.33 49.8789V55H124.143V42.25ZM126.135 39.8711L124.846 37.9375C125.846 37.1641 126.857 36.7773 127.881 36.7773C128.264 36.7773 128.92 36.9102 129.85 37.1758C130.482 37.3477 130.986 37.4336 131.361 37.4336C132.018 37.4336 132.697 37.2305 133.4 36.8242L134.619 38.6523C133.635 39.4961 132.682 39.918 131.76 39.918C131.268 39.918 130.678 39.8125 129.99 39.6016C129.428 39.4375 129.072 39.3398 128.924 39.3086C128.721 39.2773 128.479 39.2617 128.197 39.2617C127.51 39.2617 126.822 39.4648 126.135 39.8711ZM148.699 42.25H151.886V55H148.699V53.6523C148.074 54.2461 147.445 54.6758 146.812 54.9414C146.187 55.1992 145.507 55.3281 144.773 55.3281C143.124 55.3281 141.699 54.6914 140.495 53.418C139.292 52.1367 138.691 50.5469 138.691 48.6484C138.691 46.6797 139.273 45.0664 140.437 43.8086C141.601 42.5508 143.015 41.9219 144.679 41.9219C145.445 41.9219 146.163 42.0664 146.835 42.3555C147.507 42.6445 148.128 43.0781 148.699 43.6562V42.25ZM145.335 44.875C144.343 44.875 143.519 45.2266 142.863 45.9297C142.206 46.625 141.878 47.5195 141.878 48.6133C141.878 49.7148 142.21 50.6211 142.874 51.332C143.546 52.043 144.37 52.3984 145.347 52.3984C146.355 52.3984 147.191 52.0508 147.855 51.3555C148.519 50.6523 148.851 49.7344 148.851 48.6016C148.851 47.4922 148.519 46.5938 147.855 45.9062C147.191 45.2188 146.351 44.875 145.335 44.875ZM165.262 37.3281H168.45V55H165.262V53.6523C164.637 54.2461 164.008 54.6758 163.376 54.9414C162.751 55.1992 162.071 55.3281 161.337 55.3281C159.688 55.3281 158.262 54.6914 157.059 53.418C155.856 52.1367 155.255 50.5469 155.255 48.6484C155.255 46.6797 155.837 45.0664 157.001 43.8086C158.165 42.5508 159.579 41.9219 161.243 41.9219C162.008 41.9219 162.727 42.0664 163.399 42.3555C164.071 42.6445 164.692 43.0781 165.262 43.6562V37.3281ZM161.899 44.875C160.907 44.875 160.083 45.2266 159.426 45.9297C158.77 46.625 158.442 47.5195 158.442 48.6133C158.442 49.7148 158.774 50.6211 159.438 51.332C160.11 52.043 160.934 52.3984 161.911 52.3984C162.919 52.3984 163.755 52.0508 164.419 51.3555C165.083 50.6523 165.415 49.7344 165.415 48.6016C165.415 47.4922 165.083 46.5938 164.419 45.9062C163.755 45.2188 162.915 44.875 161.899 44.875ZM173.658 37C174.221 37 174.701 37.2031 175.1 37.6094C175.506 38.0156 175.709 38.5078 175.709 39.0859C175.709 39.6562 175.51 40.1445 175.111 40.5508C174.713 40.9492 174.236 41.1484 173.682 41.1484C173.111 41.1484 172.623 40.9453 172.217 40.5391C171.818 40.125 171.619 39.625 171.619 39.0391C171.619 38.4766 171.818 37.9961 172.217 37.5977C172.615 37.1992 173.096 37 173.658 37ZM172.053 42.25H175.264V55H172.053V42.25ZM178.14 42.25H180.882V43.8555C181.179 43.2227 181.573 42.7422 182.066 42.4141C182.558 42.0859 183.097 41.9219 183.683 41.9219C184.097 41.9219 184.53 42.0312 184.984 42.25L183.988 45.0039C183.613 44.8164 183.304 44.7227 183.062 44.7227C182.57 44.7227 182.152 45.0273 181.808 45.6367C181.472 46.2461 181.304 47.4414 181.304 49.2227L181.316 49.8438V55H178.14V42.25ZM72.7777 62.6348H75.6781C77.2471 62.6348 78.3767 62.7812 79.0668 63.0742C79.7634 63.3607 80.3103 63.8294 80.7074 64.4805C81.1111 65.125 81.3129 65.8997 81.3129 66.8047C81.3129 67.8073 81.0492 68.6406 80.5219 69.3047C80.001 69.9688 79.2914 70.431 78.393 70.6914C77.8656 70.8411 76.9053 70.916 75.5121 70.916V77H72.7777V62.6348ZM75.5121 68.25H76.3812C77.0648 68.25 77.5401 68.2012 77.807 68.1035C78.074 68.0059 78.2823 67.8464 78.432 67.625C78.5883 67.3971 78.6664 67.1237 78.6664 66.8047C78.6664 66.2513 78.4516 65.8477 78.0219 65.5938C77.7094 65.4049 77.1299 65.3105 76.2836 65.3105H75.5121V68.25ZM83.6805 66.375H85.9656V67.7129C86.213 67.1855 86.5418 66.7852 86.952 66.5117C87.3621 66.2383 87.8113 66.1016 88.2996 66.1016C88.6447 66.1016 89.006 66.1927 89.3836 66.375L88.5535 68.6699C88.241 68.5137 87.9839 68.4355 87.782 68.4355C87.3719 68.4355 87.0236 68.6895 86.7371 69.1973C86.4572 69.7051 86.3172 70.7012 86.3172 72.1855L86.327 72.7031V77H83.6805V66.375ZM96.302 66.1016C97.3046 66.1016 98.2453 66.3522 99.1242 66.8535C100.01 67.3548 100.7 68.0352 101.195 68.8945C101.689 69.7539 101.937 70.6816 101.937 71.6777C101.937 72.6803 101.686 73.6178 101.185 74.4902C100.69 75.3626 100.013 76.0462 99.1535 76.541C98.2941 77.0293 97.3469 77.2734 96.3117 77.2734C94.7883 77.2734 93.4862 76.7331 92.4055 75.6523C91.3312 74.5651 90.7941 73.2467 90.7941 71.6973C90.7941 70.0371 91.4029 68.6536 92.6203 67.5469C93.688 66.5833 94.9152 66.1016 96.302 66.1016ZM96.341 68.6113C95.5142 68.6113 94.8241 68.901 94.2707 69.4805C93.7238 70.0534 93.4504 70.7891 93.4504 71.6875C93.4504 72.612 93.7206 73.3607 94.2609 73.9336C94.8078 74.5065 95.4979 74.793 96.3312 74.793C97.1646 74.793 97.8579 74.5033 98.4113 73.9238C98.9647 73.3444 99.2414 72.599 99.2414 71.6875C99.2414 70.776 98.968 70.0371 98.4211 69.4707C97.8807 68.8978 97.1874 68.6113 96.341 68.6113ZM112.576 62.2734H115.232V77H112.576V75.877C112.055 76.3717 111.531 76.7298 111.004 76.9512C110.483 77.166 109.916 77.2734 109.304 77.2734C107.931 77.2734 106.742 76.7428 105.74 75.6816C104.737 74.6139 104.236 73.2891 104.236 71.707C104.236 70.0664 104.721 68.722 105.691 67.6738C106.661 66.6257 107.839 66.1016 109.226 66.1016C109.864 66.1016 110.463 66.222 111.023 66.4629C111.583 66.7038 112.101 67.0651 112.576 67.5469V62.2734ZM109.773 68.5625C108.946 68.5625 108.259 68.8555 107.712 69.4414C107.166 70.0208 106.892 70.7663 106.892 71.6777C106.892 72.5957 107.169 73.3509 107.722 73.9434C108.282 74.5358 108.969 74.832 109.783 74.832C110.623 74.832 111.319 74.5423 111.873 73.9629C112.426 73.377 112.703 72.612 112.703 71.668C112.703 70.7435 112.426 69.9948 111.873 69.4219C111.319 68.849 110.619 68.5625 109.773 68.5625ZM118.518 66.375H121.213V71.4922C121.213 72.4883 121.281 73.1816 121.418 73.5723C121.555 73.9564 121.773 74.2559 122.072 74.4707C122.378 74.6855 122.753 74.793 123.195 74.793C123.638 74.793 124.012 74.6888 124.318 74.4805C124.631 74.2656 124.862 73.9531 125.012 73.543C125.122 73.237 125.178 72.5827 125.178 71.5801V66.375H127.854V70.877C127.854 72.7324 127.707 74.002 127.414 74.6855C127.056 75.5189 126.529 76.1602 125.832 76.6094C125.135 77.0521 124.25 77.2734 123.176 77.2734C122.01 77.2734 121.066 77.013 120.344 76.4922C119.628 75.9714 119.123 75.2454 118.83 74.3145C118.622 73.6699 118.518 72.498 118.518 70.7988V66.375ZM141.539 68.5234L139.323 69.7441C138.906 69.3079 138.493 69.0052 138.082 68.8359C137.679 68.6667 137.204 68.582 136.657 68.582C135.661 68.582 134.853 68.8815 134.235 69.4805C133.623 70.0729 133.317 70.8346 133.317 71.7656C133.317 72.6706 133.613 73.4095 134.205 73.9824C134.798 74.5553 135.576 74.8418 136.539 74.8418C137.731 74.8418 138.659 74.4349 139.323 73.6211L141.422 75.0566C140.283 76.5345 138.675 77.2734 136.598 77.2734C134.73 77.2734 133.265 76.7201 132.204 75.6133C131.149 74.5065 130.621 73.2109 130.621 71.7266C130.621 70.6979 130.879 69.7507 131.393 68.8848C131.907 68.0189 132.623 67.3385 133.541 66.8438C134.466 66.349 135.498 66.1016 136.637 66.1016C137.692 66.1016 138.639 66.3132 139.479 66.7363C140.319 67.153 141.006 67.7487 141.539 68.5234ZM144.874 62.459H147.53V66.375H149.112V68.6699H147.53V77H144.874V68.6699H143.507V66.375H144.874V62.459ZM156.138 66.1016C157.14 66.1016 158.081 66.3522 158.96 66.8535C159.846 67.3548 160.536 68.0352 161.03 68.8945C161.525 69.7539 161.773 70.6816 161.773 71.6777C161.773 72.6803 161.522 73.6178 161.021 74.4902C160.526 75.3626 159.849 76.0462 158.989 76.541C158.13 77.0293 157.183 77.2734 156.148 77.2734C154.624 77.2734 153.322 76.7331 152.241 75.6523C151.167 74.5651 150.63 73.2467 150.63 71.6973C150.63 70.0371 151.239 68.6536 152.456 67.5469C153.524 66.5833 154.751 66.1016 156.138 66.1016ZM156.177 68.6113C155.35 68.6113 154.66 68.901 154.107 69.4805C153.56 70.0534 153.286 70.7891 153.286 71.6875C153.286 72.612 153.557 73.3607 154.097 73.9336C154.644 74.5065 155.334 74.793 156.167 74.793C157.001 74.793 157.694 74.5033 158.247 73.9238C158.801 73.3444 159.077 72.599 159.077 71.6875C159.077 70.776 158.804 70.0371 158.257 69.4707C157.717 68.8978 157.023 68.6113 156.177 68.6113ZM171.059 62.6348H173.793V74.3926H177.777V77H171.059V62.6348ZM181.219 62C181.688 62 182.088 62.1693 182.42 62.5078C182.759 62.8464 182.928 63.2565 182.928 63.7383C182.928 64.2135 182.762 64.6204 182.43 64.959C182.098 65.291 181.701 65.457 181.239 65.457C180.763 65.457 180.357 65.2878 180.018 64.9492C179.686 64.6042 179.52 64.1875 179.52 63.6992C179.52 63.2305 179.686 62.8301 180.018 62.498C180.35 62.166 180.75 62 181.219 62ZM179.881 66.375H182.557V77H179.881V66.375ZM188.225 62.2734V67.5469C188.707 67.0651 189.228 66.7038 189.788 66.4629C190.348 66.222 190.947 66.1016 191.585 66.1016C192.971 66.1016 194.15 66.6257 195.12 67.6738C196.09 68.722 196.575 70.0664 196.575 71.707C196.575 73.2891 196.074 74.6139 195.071 75.6816C194.068 76.7428 192.88 77.2734 191.507 77.2734C190.895 77.2734 190.325 77.166 189.798 76.9512C189.27 76.7298 188.746 76.3717 188.225 75.877V77H185.579V62.2734H188.225ZM191.028 68.5625C190.188 68.5625 189.492 68.849 188.938 69.4219C188.385 69.9948 188.108 70.7435 188.108 71.668C188.108 72.612 188.385 73.377 188.938 73.9629C189.492 74.5423 190.188 74.832 191.028 74.832C191.842 74.832 192.526 74.5358 193.079 73.9434C193.639 73.3509 193.919 72.5957 193.919 71.6777C193.919 70.7663 193.645 70.0208 193.098 69.4414C192.552 68.8555 191.861 68.5625 191.028 68.5625ZM198.757 66.375H201.042V67.7129C201.29 67.1855 201.618 66.7852 202.029 66.5117C202.439 66.2383 202.888 66.1016 203.376 66.1016C203.721 66.1016 204.083 66.1927 204.46 66.375L203.63 68.6699C203.318 68.5137 203.06 68.4355 202.859 68.4355C202.448 68.4355 202.1 68.6895 201.814 69.1973C201.534 69.7051 201.394 70.7012 201.394 72.1855L201.404 72.7031V77H198.757V66.375ZM217.033 72.459H208.468C208.592 73.2142 208.921 73.8164 209.455 74.2656C209.995 74.7083 210.682 74.9297 211.515 74.9297C212.511 74.9297 213.367 74.5814 214.084 73.8848L216.33 74.9395C215.77 75.7337 215.099 76.3229 214.318 76.707C213.537 77.0846 212.609 77.2734 211.535 77.2734C209.868 77.2734 208.511 76.7493 207.462 75.7012C206.414 74.6465 205.89 73.3281 205.89 71.7461C205.89 70.125 206.411 68.7806 207.453 67.7129C208.501 66.6387 209.813 66.1016 211.388 66.1016C213.061 66.1016 214.422 66.6387 215.47 67.7129C216.518 68.7806 217.043 70.1934 217.043 71.9512L217.033 72.459ZM214.357 70.3594C214.181 69.7669 213.833 69.2852 213.312 68.9141C212.798 68.543 212.199 68.3574 211.515 68.3574C210.773 68.3574 210.122 68.5658 209.562 68.9824C209.211 69.2428 208.885 69.7018 208.586 70.3594H214.357Z" fill="#444242"/>
<path d="M109.846 169.165C113.349 176.183 120.568 180.613 128.455 180.586C131.686 180.582 134.869 179.835 137.76 178.406L141.5 176.548L145.244 178.406C148.133 179.835 151.317 180.582 154.545 180.586C162.435 180.613 169.651 176.183 173.156 169.165L174.764 165.96C180.163 155.201 182.982 143.348 183 131.327C182.984 118.072 172.17 107.333 158.823 107.317C154.325 107.331 149.918 108.598 146.111 110.98V107.317C146.111 97.2016 137.853 89 127.667 89V98.1586C132.76 98.1586 136.889 102.259 136.889 107.317V110.98C133.082 108.598 128.675 107.331 124.177 107.317C110.83 107.333 100.016 118.072 100 131.327C100.016 143.35 102.835 155.208 108.236 165.969L109.846 169.165ZM124.177 116.476C128.144 116.465 131.951 118.032 134.75 120.827L138.24 124.293C140.041 126.079 142.959 126.079 144.76 124.293L148.25 120.827C152.528 116.579 158.958 115.309 164.547 117.607C170.135 119.906 173.778 125.321 173.778 131.327C173.767 141.93 171.281 152.386 166.514 161.875L164.907 165.082C162.95 168.984 158.934 171.443 154.545 171.427C152.749 171.425 150.977 171.009 149.367 170.213L143.562 167.329C142.263 166.685 140.737 166.685 139.44 167.329L133.638 170.213C132.028 171.009 130.254 171.425 128.455 171.427C124.064 171.441 120.045 168.975 118.093 165.066L116.486 161.862C111.721 152.377 109.236 141.926 109.222 131.327C109.233 123.13 115.923 116.487 124.177 116.476V116.476Z" fill="#3497DB"/>
<g filter="url(#filter1_d)">
<rect x="159" y="129" width="30" height="35" rx="4.64052" transform="rotate(90 159 129)" fill="#3497DB"/>
</g>
<line x1="142.128" y1="137.182" x2="142.128" y2="152.182" stroke="#F5F8FA" stroke-width="2"/>
<line x1="142.128" y1="137.182" x2="142.128" y2="152.182" stroke="url(#paint1_linear)" stroke-width="2"/>
<line x1="147.858" y1="144.339" x2="136.115" y2="144.339" stroke="#F5F8FA" stroke-width="2"/>
<line x1="147.858" y1="144.339" x2="136.115" y2="144.339" stroke="url(#paint2_linear)" stroke-width="2"/>
<defs>
<filter id="filter0_d" x="0" y="0" width="308" height="230" filterUnits="userSpaceOnUse" color-interpolation-filters="sRGB">
<feFlood flood-opacity="0" result="BackgroundImageFix"/>
<feColorMatrix in="SourceAlpha" type="matrix" values="0 0 0 0 0 0 0 0 0 0 0 0 0 0 0 0 0 0 127 0"/>
<feOffset dx="10" dy="10"/>
<feGaussianBlur stdDeviation="7.5"/>
<feColorMatrix type="matrix" values="0 0 0 0 0 0 0 0 0 0 0 0 0 0 0 0 0 0 0.2 0"/>
<feBlend mode="multiply" in2="BackgroundImageFix" result="effect1_dropShadow"/>
<feBlend mode="normal" in="SourceGraphic" in2="effect1_dropShadow" result="shape"/>
</filter>
<filter id="filter1_d" x="121" y="126" width="43" height="38" filterUnits="userSpaceOnUse" color-interpolation-filters="sRGB">
<feFlood flood-opacity="0" result="BackgroundImageFix"/>
<feColorMatrix in="SourceAlpha" type="matrix" values="0 0 0 0 0 0 0 0 0 0 0 0 0 0 0 0 0 0 127 0"/>
<feOffset dx="1" dy="1"/>
<feGaussianBlur stdDeviation="2"/>
<feColorMatrix type="matrix" values="0 0 0 0 0 0 0 0 0 0 0 0 0 0 0 0 0 0 0.15 0"/>
<feBlend mode="normal" in2="BackgroundImageFix" result="effect1_dropShadow"/>
<feBlend mode="normal" in="SourceGraphic" in2="effect1_dropShadow" result="shape"/>
</filter>
<linearGradient id="paint0_linear" x1="144" y1="5" x2="144" y2="205" gradientUnits="userSpaceOnUse">
<stop stop-color="white"/>
<stop offset="1" stop-color="white" stop-opacity="0"/>
</linearGradient>
<linearGradient id="paint1_linear" x1="141.128" y1="144.682" x2="140.128" y2="144.682" gradientUnits="userSpaceOnUse">
<stop stop-color="white"/>
<stop offset="1" stop-color="white" stop-opacity="0"/>
</linearGradient>
<linearGradient id="paint2_linear" x1="141.987" y1="143.339" x2="141.987" y2="142.339" gradientUnits="userSpaceOnUse">
<stop stop-color="white"/>
<stop offset="1" stop-color="white" stop-opacity="0"/>
</linearGradient>
</defs>
</svg>
