<svg width="308" height="230" viewBox="0 0 308 230" fill="none" xmlns="http://www.w3.org/2000/svg">
<g filter="url(#filter0_d)">
<rect x="5" y="5" width="278" height="200" rx="15" fill="#F5F8FA"/>
<rect x="5" y="5" width="278" height="200" rx="15" fill="url(#paint0_linear)"/>
</g>
<path d="M183.796 75.2694L187.964 73.8206L192.245 87.8626L188.076 89.3103L183.796 75.2694Z" fill="#3497DB"/>
<path d="M176.755 92.0357L181.617 90.7185L186.612 103.482L181.75 104.8L176.755 92.0357Z" fill="#3497DB"/>
<path d="M101.813 97.8684C101.341 101.275 102.339 104.722 104.564 107.353L107.797 111.391V148.643H112.276V114.907L115.512 117.054C116.265 117.554 117.245 117.554 117.998 117.054L123.474 113.416L128.949 117.05C129.702 117.549 130.682 117.549 131.436 117.05L136.911 113.416L142.386 117.05C143.14 117.549 144.119 117.549 144.873 117.05L150.348 113.416L155.823 117.05C156.577 117.549 157.556 117.549 158.31 117.05L163.785 113.416L168.264 116.388V184.316H118.995V188.775H181.701C187.883 188.768 192.891 183.782 192.899 177.627V110.74C192.893 110.25 192.724 109.775 192.418 109.391L205.36 75.0892C207.102 70.4809 206.464 65.3163 203.654 61.2653C200.983 57.3353 196.524 54.9859 191.759 55.0001C185.686 55.0567 180.276 58.8343 178.156 64.5008L174.645 73.8068L170.504 69.684V61.6888C170.504 60.4575 169.501 59.4592 168.264 59.4592H143.629C142.393 59.4592 141.39 60.4575 141.39 61.6888V65.5144C138.858 63.2304 135.04 63.1008 132.357 65.2096V61.6888C132.357 58.0396 129.386 55.0806 125.72 55.0806C122.054 55.0806 119.082 58.0396 119.082 61.6888V65.2117C117.856 64.2004 116.313 63.6473 114.721 63.6506C112.873 63.6462 111.102 64.3887 109.812 65.7093C107.156 68.4342 107.14 72.7627 109.774 75.5083L111.859 77.6508C111.101 77.997 110.412 78.4782 109.827 79.0705L109.812 79.0792L109.791 79.102C109.269 79.6355 108.837 80.2495 108.513 80.9212L105.961 76.228L102.021 78.3508L107.812 88.9926C107.553 89.1395 107.293 89.2821 107.047 89.4498C106.955 89.5118 106.874 89.5837 106.784 89.6458L98.1184 81.6952L95.0817 84.9743L103.69 92.8758C102.701 94.3814 102.06 96.0863 101.813 97.8684ZM149.105 108.885L143.629 112.523L138.154 108.889C137.401 108.389 136.421 108.389 135.668 108.889L130.244 112.49C130.231 112.267 130.192 112.073 130.192 111.859C130.178 106.959 133.731 102.769 138.585 101.961C143.44 101.152 148.169 103.963 149.756 108.602C149.526 108.661 149.306 108.756 149.105 108.885ZM154.827 111.034L154.784 111.005C154.515 106.319 151.98 102.053 147.982 99.5635C143.985 97.0737 139.022 96.6687 134.671 98.477V83.9847H154.827V111.034ZM188.42 177.627C188.42 181.321 185.412 184.316 181.701 184.316H172.743V116.392L177.222 113.416L182.697 117.05C183.451 117.549 184.431 117.549 185.184 117.05L188.42 114.907V177.627ZM182.349 66.0674C183.809 62.1374 187.551 59.5104 191.759 59.4592C195.051 59.4527 198.129 61.0781 199.972 63.7932C201.949 66.6444 202.395 70.2795 201.167 73.5215L187.3 110.293L183.941 112.523L178.466 108.889C177.712 108.389 176.732 108.389 175.979 108.889L170.504 112.523L165.96 109.507L182.349 66.0674ZM172.916 78.3911L161.031 109.888L159.306 111.034V82.6783L168.264 73.7599L172.916 78.3911ZM145.869 63.9184H166.025V68.3776H145.869V63.9184ZM144.557 72.8368H162.858L156.139 79.5255H137.838L144.557 72.8368ZM113.009 68.837C113.458 68.3754 114.076 68.1141 114.721 68.1141C115.367 68.1152 115.985 68.3754 116.435 68.837L119.723 72.1814C120.362 72.8302 121.332 73.0273 122.175 72.6822C123.018 72.336 123.567 71.5151 123.561 70.6072V61.6888C123.525 60.8974 123.929 60.1505 124.611 59.7445C125.294 59.3373 126.146 59.3373 126.829 59.7445C127.512 60.1505 127.916 60.8974 127.878 61.6888V70.6072C127.88 71.5119 128.43 72.3262 129.272 72.668C130.112 73.0109 131.078 72.8128 131.716 72.1683L135.014 68.8239C135.958 67.8975 137.474 67.8975 138.418 68.8239C139.391 69.8157 139.391 71.3986 138.418 72.3904L131.821 79.0792L131.887 79.1467L130.848 80.1809C130.668 80.366 130.523 80.5815 130.416 80.8167C130.385 80.8853 130.367 80.9549 130.342 81.0257C130.275 81.2162 130.235 81.4144 130.222 81.6147C130.222 81.6637 130.194 81.7039 130.194 81.7529V101.42C129.685 101.905 129.211 102.427 128.779 102.981L124.549 94.0178C122.987 90.9249 120.165 88.6496 116.8 87.7754C116.017 87.574 115.214 87.4521 114.406 87.414L113.832 86.7445C113.385 86.2339 113.047 85.8354 112.992 85.7799C112.414 85.1768 112.163 84.332 112.321 83.5122C112.404 83.0463 112.619 82.6152 112.941 82.2679L112.981 82.2298L113.037 82.1699C113.849 81.3784 115.105 81.2619 116.05 81.889C117 82.5215 118.275 82.3397 119.01 81.4688C119.745 80.5968 119.702 79.3154 118.912 78.4935L112.992 72.4111C112.031 71.4095 112.039 69.8299 113.009 68.837ZM106.252 98.477C106.544 96.316 107.746 94.3804 109.558 93.1545C111.354 91.945 113.586 91.5618 115.687 92.1029C117.786 92.645 119.551 94.0592 120.531 95.9861L126.239 108.091C126.098 108.612 125.987 109.142 125.906 109.676L124.726 108.891C123.973 108.391 122.993 108.391 122.24 108.891L116.755 112.523L111.788 109.223L111.308 108.624L117.082 104.181L114.341 100.653L108.519 105.136L108.021 104.519C106.596 102.847 105.953 100.65 106.252 98.477Z" fill="#3497DB"/>
<path d="M85.8443 183.67C87.5679 187.124 91.1194 189.303 94.9999 189.29C96.5896 189.288 98.156 188.92 99.5783 188.217L101.418 187.303L103.261 188.217C104.682 188.92 106.248 189.288 107.837 189.29C111.718 189.303 115.269 187.124 116.994 183.67L117.784 182.094C120.441 176.8 121.828 170.968 121.837 165.054C121.829 158.533 116.508 153.249 109.941 153.241C107.728 153.248 105.56 153.871 103.687 155.043V153.241C103.687 148.264 99.6238 144.229 94.6122 144.229V148.735C97.118 148.735 99.1496 150.752 99.1496 153.241V155.043C97.2764 153.871 95.1085 153.248 92.8952 153.241C86.3284 153.249 81.0078 158.533 81 165.054C81.0078 170.969 82.3947 176.803 85.0522 182.098L85.8443 183.67ZM92.8952 157.747C94.8471 157.742 96.7203 158.513 98.0973 159.888L99.8143 161.593C100.7 162.472 102.136 162.472 103.022 161.593L104.739 159.888C106.844 157.798 110.008 157.173 112.757 158.304C115.507 159.435 117.299 162.099 117.299 165.054C117.294 170.271 116.071 175.415 113.726 180.084L112.935 181.662C111.972 183.581 109.996 184.791 107.837 184.784C106.953 184.783 106.081 184.578 105.289 184.186L102.433 182.767C101.794 182.45 101.043 182.45 100.405 182.767L97.55 184.186C96.758 184.578 95.885 184.783 94.9999 184.784C92.8398 184.79 90.8624 183.577 89.902 181.654L89.1111 180.077C86.767 175.411 85.5441 170.269 85.5374 165.054C85.5429 161.021 88.8341 157.753 92.8952 157.747V157.747Z" fill="#3497DB"/>
<rect x="57" y="52" width="171" height="31" fill="#FAFCFD" fill-opacity="0.5"/>
<path d="M110.759 37.7617H114.087L120.72 55H117.309L115.962 51.4492H108.93L107.524 55H104.114L110.759 37.7617ZM112.446 42.332L110.149 48.25H114.731L112.446 42.332ZM123.643 42.25H126.83V43.5508C127.557 42.9414 128.213 42.5195 128.799 42.2852C129.393 42.043 129.998 41.9219 130.615 41.9219C131.881 41.9219 132.955 42.3633 133.838 43.2461C134.58 43.9961 134.951 45.1055 134.951 46.5742V55H131.787V49.4102C131.787 47.8867 131.717 46.875 131.576 46.375C131.443 45.875 131.205 45.4961 130.861 45.2383C130.525 44.9727 130.107 44.8398 129.607 44.8398C128.959 44.8398 128.4 45.0586 127.932 45.4961C127.471 45.9258 127.15 46.5234 126.971 47.2891C126.877 47.6875 126.83 48.5508 126.83 49.8789V55H123.643V42.25ZM125.635 39.8711L124.346 37.9375C125.346 37.1641 126.357 36.7773 127.381 36.7773C127.764 36.7773 128.42 36.9102 129.35 37.1758C129.982 37.3477 130.486 37.4336 130.861 37.4336C131.518 37.4336 132.197 37.2305 132.9 36.8242L134.119 38.6523C133.135 39.4961 132.182 39.918 131.26 39.918C130.768 39.918 130.178 39.8125 129.49 39.6016C128.928 39.4375 128.572 39.3398 128.424 39.3086C128.221 39.2773 127.979 39.2617 127.697 39.2617C127.01 39.2617 126.322 39.4648 125.635 39.8711ZM148.199 42.25H151.386V55H148.199V53.6523C147.574 54.2461 146.945 54.6758 146.312 54.9414C145.687 55.1992 145.007 55.3281 144.273 55.3281C142.624 55.3281 141.199 54.6914 139.995 53.418C138.792 52.1367 138.191 50.5469 138.191 48.6484C138.191 46.6797 138.773 45.0664 139.937 43.8086C141.101 42.5508 142.515 41.9219 144.179 41.9219C144.945 41.9219 145.663 42.0664 146.335 42.3555C147.007 42.6445 147.628 43.0781 148.199 43.6562V42.25ZM144.835 44.875C143.843 44.875 143.019 45.2266 142.363 45.9297C141.706 46.625 141.378 47.5195 141.378 48.6133C141.378 49.7148 141.71 50.6211 142.374 51.332C143.046 52.043 143.87 52.3984 144.847 52.3984C145.855 52.3984 146.691 52.0508 147.355 51.3555C148.019 50.6523 148.351 49.7344 148.351 48.6016C148.351 47.4922 148.019 46.5938 147.355 45.9062C146.691 45.2188 145.851 44.875 144.835 44.875ZM164.762 37.3281H167.95V55H164.762V53.6523C164.137 54.2461 163.508 54.6758 162.876 54.9414C162.251 55.1992 161.571 55.3281 160.837 55.3281C159.188 55.3281 157.762 54.6914 156.559 53.418C155.356 52.1367 154.755 50.5469 154.755 48.6484C154.755 46.6797 155.337 45.0664 156.501 43.8086C157.665 42.5508 159.079 41.9219 160.743 41.9219C161.508 41.9219 162.227 42.0664 162.899 42.3555C163.571 42.6445 164.192 43.0781 164.762 43.6562V37.3281ZM161.399 44.875C160.407 44.875 159.583 45.2266 158.926 45.9297C158.27 46.625 157.942 47.5195 157.942 48.6133C157.942 49.7148 158.274 50.6211 158.938 51.332C159.61 52.043 160.434 52.3984 161.411 52.3984C162.419 52.3984 163.255 52.0508 163.919 51.3555C164.583 50.6523 164.915 49.7344 164.915 48.6016C164.915 47.4922 164.583 46.5938 163.919 45.9062C163.255 45.2188 162.415 44.875 161.399 44.875ZM173.158 37C173.721 37 174.201 37.2031 174.6 37.6094C175.006 38.0156 175.209 38.5078 175.209 39.0859C175.209 39.6562 175.01 40.1445 174.611 40.5508C174.213 40.9492 173.736 41.1484 173.182 41.1484C172.611 41.1484 172.123 40.9453 171.717 40.5391C171.318 40.125 171.119 39.625 171.119 39.0391C171.119 38.4766 171.318 37.9961 171.717 37.5977C172.115 37.1992 172.596 37 173.158 37ZM171.553 42.25H174.764V55H171.553V42.25ZM177.64 42.25H180.382V43.8555C180.679 43.2227 181.073 42.7422 181.566 42.4141C182.058 42.0859 182.597 41.9219 183.183 41.9219C183.597 41.9219 184.03 42.0312 184.484 42.25L183.488 45.0039C183.113 44.8164 182.804 44.7227 182.562 44.7227C182.07 44.7227 181.652 45.0273 181.308 45.6367C180.972 46.2461 180.804 47.4414 180.804 49.2227L180.816 49.8438V55H177.64V42.25ZM65.0051 65.1641L63.091 66.9902C61.7889 65.6165 60.3241 64.9297 58.6965 64.9297C57.3228 64.9297 56.1639 65.3984 55.2199 66.3359C54.2824 67.2734 53.8137 68.429 53.8137 69.8027C53.8137 70.7598 54.022 71.6094 54.4387 72.3516C54.8553 73.0938 55.4445 73.6764 56.2063 74.0996C56.968 74.5228 57.8143 74.7344 58.7453 74.7344C59.5396 74.7344 60.2655 74.5879 60.923 74.2949C61.5806 73.9954 62.3033 73.4551 63.091 72.6738L64.9465 74.6074C63.8853 75.6426 62.8827 76.362 61.9387 76.7656C60.9947 77.1628 59.9172 77.3613 58.7063 77.3613C56.4732 77.3613 54.6438 76.6549 53.218 75.2422C51.7987 73.8229 51.0891 72.0065 51.0891 69.793C51.0891 68.3607 51.4113 67.0879 52.0559 65.9746C52.7069 64.8613 53.6346 63.9661 54.8391 63.2891C56.05 62.612 57.3521 62.2734 58.7453 62.2734C59.9302 62.2734 61.0695 62.5241 62.1633 63.0254C63.2635 63.5267 64.2108 64.2396 65.0051 65.1641ZM75.566 66.375H78.2223V77H75.566V75.877C75.0452 76.3717 74.5211 76.7298 73.9938 76.9512C73.4729 77.166 72.9065 77.2734 72.2945 77.2734C70.9208 77.2734 69.7327 76.7428 68.7301 75.6816C67.7275 74.6139 67.2262 73.2891 67.2262 71.707C67.2262 70.0664 67.7112 68.722 68.6813 67.6738C69.6513 66.6257 70.8297 66.1016 72.2164 66.1016C72.8544 66.1016 73.4534 66.222 74.0133 66.4629C74.5732 66.7038 75.0908 67.0651 75.566 67.5469V66.375ZM72.7633 68.5625C71.9365 68.5625 71.2496 68.8555 70.7027 69.4414C70.1559 70.0208 69.8824 70.7663 69.8824 71.6777C69.8824 72.5957 70.1591 73.3509 70.7125 73.9434C71.2724 74.5358 71.9592 74.832 72.7731 74.832C73.6129 74.832 74.3095 74.5423 74.8629 73.9629C75.4163 73.377 75.693 72.612 75.693 71.668C75.693 70.7435 75.4163 69.9948 74.8629 69.4219C74.3095 68.849 73.6096 68.5625 72.7633 68.5625ZM81.5176 66.375H84.1738V67.459C84.7793 66.9512 85.3262 66.5996 85.8145 66.4043C86.3092 66.2025 86.8138 66.1016 87.3281 66.1016C88.3828 66.1016 89.278 66.4694 90.0137 67.2051C90.6322 67.8301 90.9414 68.7546 90.9414 69.9785V77H88.3047V72.3418C88.3047 71.0723 88.2461 70.2292 88.1289 69.8125C88.0182 69.3958 87.8197 69.0801 87.5332 68.8652C87.2533 68.6439 86.905 68.5332 86.4883 68.5332C85.9479 68.5332 85.4824 68.7155 85.0918 69.0801C84.7077 69.4382 84.4408 69.9362 84.291 70.5742C84.2129 70.9062 84.1738 71.6257 84.1738 72.7324V77H81.5176V66.375ZM94.1391 62.2734H96.7855V67.4492C97.3064 67 97.8305 66.6647 98.3578 66.4434C98.8852 66.2155 99.419 66.1016 99.9594 66.1016C101.014 66.1016 101.903 66.4661 102.625 67.1953C103.244 67.8268 103.553 68.7546 103.553 69.9785V77H100.926V72.3418C100.926 71.1113 100.868 70.278 100.75 69.8418C100.633 69.4056 100.431 69.0801 100.145 68.8652C99.865 68.6504 99.5167 68.543 99.1 68.543C98.5596 68.543 98.0941 68.722 97.7035 69.0801C97.3194 69.4382 97.0525 69.9264 96.9027 70.5449C96.8246 70.8639 96.7855 71.5931 96.7855 72.7324V77H94.1391V62.2734ZM114.593 66.375H117.249V77H114.593V75.877C114.072 76.3717 113.548 76.7298 113.02 76.9512C112.499 77.166 111.933 77.2734 111.321 77.2734C109.947 77.2734 108.759 76.7428 107.757 75.6816C106.754 74.6139 106.253 73.2891 106.253 71.707C106.253 70.0664 106.738 68.722 107.708 67.6738C108.678 66.6257 109.856 66.1016 111.243 66.1016C111.881 66.1016 112.48 66.222 113.04 66.4629C113.6 66.7038 114.117 67.0651 114.593 67.5469V66.375ZM111.79 68.5625C110.963 68.5625 110.276 68.8555 109.729 69.4414C109.182 70.0208 108.909 70.7663 108.909 71.6777C108.909 72.5957 109.186 73.3509 109.739 73.9434C110.299 74.5358 110.986 74.832 111.8 74.832C112.639 74.832 113.336 74.5423 113.889 73.9629C114.443 73.377 114.72 72.612 114.72 71.668C114.72 70.7435 114.443 69.9948 113.889 69.4219C113.336 68.849 112.636 68.5625 111.79 68.5625ZM127.048 67.8594L125.398 69.5098C124.727 68.8457 124.118 68.5137 123.571 68.5137C123.272 68.5137 123.038 68.5788 122.868 68.709C122.699 68.8327 122.614 68.9889 122.614 69.1777C122.614 69.321 122.667 69.4544 122.771 69.5781C122.881 69.6953 123.148 69.8581 123.571 70.0664L124.548 70.5547C125.577 71.0625 126.283 71.5801 126.667 72.1074C127.051 72.6348 127.243 73.2533 127.243 73.9629C127.243 74.9069 126.895 75.6947 126.198 76.3262C125.508 76.9577 124.581 77.2734 123.415 77.2734C121.866 77.2734 120.629 76.668 119.704 75.457L121.345 73.6699C121.657 74.0345 122.022 74.3307 122.439 74.5586C122.862 74.7799 123.236 74.8906 123.562 74.8906C123.913 74.8906 124.196 74.806 124.411 74.6367C124.626 74.4674 124.734 74.2721 124.734 74.0508C124.734 73.6406 124.346 73.2402 123.571 72.8496L122.673 72.4004C120.954 71.5345 120.095 70.4505 120.095 69.1484C120.095 68.3086 120.417 67.5924 121.062 67C121.713 66.401 122.543 66.1016 123.552 66.1016C124.242 66.1016 124.89 66.2546 125.495 66.5605C126.107 66.86 126.625 67.293 127.048 67.8594ZM130.275 62.459H132.931V66.375H134.513V68.6699H132.931V77H130.275V68.6699H128.908V66.375H130.275V62.459ZM144.4 66.375H147.057V77H144.4V75.877C143.88 76.3717 143.355 76.7298 142.828 76.9512C142.307 77.166 141.741 77.2734 141.129 77.2734C139.755 77.2734 138.567 76.7428 137.564 75.6816C136.562 74.6139 136.061 73.2891 136.061 71.707C136.061 70.0664 136.546 68.722 137.516 67.6738C138.486 66.6257 139.664 66.1016 141.051 66.1016C141.689 66.1016 142.288 66.222 142.848 66.4629C143.408 66.7038 143.925 67.0651 144.4 67.5469V66.375ZM141.598 68.5625C140.771 68.5625 140.084 68.8555 139.537 69.4414C138.99 70.0208 138.717 70.7663 138.717 71.6777C138.717 72.5957 138.993 73.3509 139.547 73.9434C140.107 74.5358 140.794 74.832 141.607 74.832C142.447 74.832 143.144 74.5423 143.697 73.9629C144.251 73.377 144.527 72.612 144.527 71.668C144.527 70.7435 144.251 69.9948 143.697 69.4219C143.144 68.849 142.444 68.5625 141.598 68.5625ZM161.225 62.6348H163.999L169.526 77H166.684L165.561 74.041H159.702L158.53 77H155.688L161.225 62.6348ZM162.632 66.4434L160.718 71.375H164.536L162.632 66.4434ZM171.337 66.375H173.622V67.7129C173.87 67.1855 174.198 66.7852 174.609 66.5117C175.019 66.2383 175.468 66.1016 175.956 66.1016C176.301 66.1016 176.663 66.1927 177.04 66.375L176.21 68.6699C175.898 68.5137 175.64 68.4355 175.439 68.4355C175.029 68.4355 174.68 68.6895 174.394 69.1973C174.114 69.7051 173.974 70.7012 173.974 72.1855L173.984 72.7031V77H171.337V66.375ZM178.949 66.375H181.625V67.5957C182.08 67.0944 182.585 66.7201 183.138 66.4727C183.698 66.2253 184.307 66.1016 184.964 66.1016C185.629 66.1016 186.227 66.2643 186.761 66.5898C187.295 66.9154 187.725 67.3906 188.05 68.0156C188.474 67.3906 188.991 66.9154 189.603 66.5898C190.222 66.2643 190.895 66.1016 191.625 66.1016C192.38 66.1016 193.044 66.2773 193.617 66.6289C194.19 66.9805 194.6 67.4395 194.847 68.0059C195.101 68.5723 195.228 69.4935 195.228 70.7695V77H192.543V71.6094C192.543 70.4049 192.393 69.5911 192.093 69.168C191.794 68.7383 191.345 68.5234 190.746 68.5234C190.29 68.5234 189.88 68.6536 189.515 68.9141C189.157 69.1745 188.89 69.5358 188.714 69.998C188.539 70.4538 188.451 71.1895 188.451 72.2051V77H185.765V71.8535C185.765 70.903 185.694 70.2161 185.55 69.793C185.414 69.3633 185.205 69.0443 184.925 68.8359C184.645 68.6276 184.307 68.5234 183.91 68.5234C183.467 68.5234 183.063 68.6569 182.699 68.9238C182.341 69.1842 182.071 69.5521 181.888 70.0273C181.713 70.5026 181.625 71.2513 181.625 72.2734V77H178.949V66.375ZM206.229 66.375H208.885V77H206.229V75.877C205.708 76.3717 205.184 76.7298 204.656 76.9512C204.135 77.166 203.569 77.2734 202.957 77.2734C201.583 77.2734 200.395 76.7428 199.393 75.6816C198.39 74.6139 197.889 73.2891 197.889 71.707C197.889 70.0664 198.374 68.722 199.344 67.6738C200.314 66.6257 201.492 66.1016 202.879 66.1016C203.517 66.1016 204.116 66.222 204.676 66.4629C205.236 66.7038 205.753 67.0651 206.229 67.5469V66.375ZM203.426 68.5625C202.599 68.5625 201.912 68.8555 201.365 69.4414C200.818 70.0208 200.545 70.7663 200.545 71.6777C200.545 72.5957 200.822 73.3509 201.375 73.9434C201.935 74.5358 202.622 74.832 203.436 74.832C204.275 74.832 204.972 74.5423 205.525 73.9629C206.079 73.377 206.355 72.612 206.355 71.668C206.355 70.7435 206.079 69.9948 205.525 69.4219C204.972 68.849 204.272 68.5625 203.426 68.5625ZM220.032 62.2734H222.688V77H220.032V75.877C219.511 76.3717 218.987 76.7298 218.459 76.9512C217.939 77.166 217.372 77.2734 216.76 77.2734C215.386 77.2734 214.198 76.7428 213.196 75.6816C212.193 74.6139 211.692 73.2891 211.692 71.707C211.692 70.0664 212.177 68.722 213.147 67.6738C214.117 66.6257 215.295 66.1016 216.682 66.1016C217.32 66.1016 217.919 66.222 218.479 66.4629C219.039 66.7038 219.556 67.0651 220.032 67.5469V62.2734ZM217.229 68.5625C216.402 68.5625 215.715 68.8555 215.168 69.4414C214.621 70.0208 214.348 70.7663 214.348 71.6777C214.348 72.5957 214.625 73.3509 215.178 73.9434C215.738 74.5358 216.425 74.832 217.239 74.832C218.079 74.832 218.775 74.5423 219.329 73.9629C219.882 73.377 220.159 72.612 220.159 71.668C220.159 70.7435 219.882 69.9948 219.329 69.4219C218.775 68.849 218.075 68.5625 217.229 68.5625ZM233.835 66.375H236.491V77H233.835V75.877C233.314 76.3717 232.79 76.7298 232.262 76.9512C231.742 77.166 231.175 77.2734 230.563 77.2734C229.19 77.2734 228.001 76.7428 226.999 75.6816C225.996 74.6139 225.495 73.2891 225.495 71.707C225.495 70.0664 225.98 68.722 226.95 67.6738C227.92 66.6257 229.098 66.1016 230.485 66.1016C231.123 66.1016 231.722 66.222 232.282 66.4629C232.842 66.7038 233.36 67.0651 233.835 67.5469V66.375ZM231.032 68.5625C230.205 68.5625 229.518 68.8555 228.971 69.4414C228.425 70.0208 228.151 70.7663 228.151 71.6777C228.151 72.5957 228.428 73.3509 228.981 73.9434C229.541 74.5358 230.228 74.832 231.042 74.832C231.882 74.832 232.578 74.5423 233.132 73.9629C233.685 73.377 233.962 72.612 233.962 71.668C233.962 70.7435 233.685 69.9948 233.132 69.4219C232.578 68.849 231.878 68.5625 231.032 68.5625Z" fill="#444242"/>
<g filter="url(#filter1_d)">
<rect x="160" y="129" width="30" height="35" rx="4.64052" transform="rotate(90 160 129)" fill="#3497DB"/>
</g>
<line x1="143.128" y1="137.182" x2="143.128" y2="152.182" stroke="#F5F8FA" stroke-width="2"/>
<line x1="143.128" y1="137.182" x2="143.128" y2="152.182" stroke="url(#paint1_linear)" stroke-width="2"/>
<line x1="148.858" y1="144.339" x2="137.115" y2="144.339" stroke="#F5F8FA" stroke-width="2"/>
<line x1="148.858" y1="144.339" x2="137.115" y2="144.339" stroke="url(#paint2_linear)" stroke-width="2"/>
<defs>
<filter id="filter0_d" x="0" y="0" width="308" height="230" filterUnits="userSpaceOnUse" color-interpolation-filters="sRGB">
<feFlood flood-opacity="0" result="BackgroundImageFix"/>
<feColorMatrix in="SourceAlpha" type="matrix" values="0 0 0 0 0 0 0 0 0 0 0 0 0 0 0 0 0 0 127 0"/>
<feOffset dx="10" dy="10"/>
<feGaussianBlur stdDeviation="7.5"/>
<feColorMatrix type="matrix" values="0 0 0 0 0 0 0 0 0 0 0 0 0 0 0 0 0 0 0.2 0"/>
<feBlend mode="multiply" in2="BackgroundImageFix" result="effect1_dropShadow"/>
<feBlend mode="normal" in="SourceGraphic" in2="effect1_dropShadow" result="shape"/>
</filter>
<filter id="filter1_d" x="122" y="126" width="43" height="38" filterUnits="userSpaceOnUse" color-interpolation-filters="sRGB">
<feFlood flood-opacity="0" result="BackgroundImageFix"/>
<feColorMatrix in="SourceAlpha" type="matrix" values="0 0 0 0 0 0 0 0 0 0 0 0 0 0 0 0 0 0 127 0"/>
<feOffset dx="1" dy="1"/>
<feGaussianBlur stdDeviation="2"/>
<feColorMatrix type="matrix" values="0 0 0 0 0 0 0 0 0 0 0 0 0 0 0 0 0 0 0.15 0"/>
<feBlend mode="normal" in2="BackgroundImageFix" result="effect1_dropShadow"/>
<feBlend mode="normal" in="SourceGraphic" in2="effect1_dropShadow" result="shape"/>
</filter>
<linearGradient id="paint0_linear" x1="144" y1="5" x2="144" y2="205" gradientUnits="userSpaceOnUse">
<stop stop-color="white"/>
<stop offset="1" stop-color="white" stop-opacity="0"/>
</linearGradient>
<linearGradient id="paint1_linear" x1="142.128" y1="144.682" x2="141.128" y2="144.682" gradientUnits="userSpaceOnUse">
<stop stop-color="white"/>
<stop offset="1" stop-color="white" stop-opacity="0"/>
</linearGradient>
<linearGradient id="paint2_linear" x1="142.987" y1="143.339" x2="142.987" y2="142.339" gradientUnits="userSpaceOnUse">
<stop stop-color="white"/>
<stop offset="1" stop-color="white" stop-opacity="0"/>
</linearGradient>
</defs>
</svg>
