<svg width="308" height="230" viewBox="0 0 308 230" fill="none" xmlns="http://www.w3.org/2000/svg">
<g filter="url(#filter0_d)">
<rect x="5" y="5" width="278" height="200" rx="15" fill="#F5F8FA"/>
<rect x="5" y="5" width="278" height="200" rx="15" fill="url(#paint0_linear)"/>
</g>
<path d="M183.796 75.2694L187.964 73.8206L192.245 87.8626L188.076 89.3103L183.796 75.2694Z" fill="#3497DB"/>
<path d="M176.755 92.0357L181.617 90.7185L186.612 103.482L181.75 104.8L176.755 92.0357Z" fill="#3497DB"/>
<path d="M101.813 97.8684C101.341 101.275 102.339 104.722 104.564 107.353L107.797 111.391V148.643H112.276V114.907L115.512 117.054C116.265 117.554 117.245 117.554 117.998 117.054L123.474 113.416L128.949 117.05C129.702 117.549 130.682 117.549 131.436 117.05L136.911 113.416L142.386 117.05C143.14 117.549 144.119 117.549 144.873 117.05L150.348 113.416L155.823 117.05C156.577 117.549 157.556 117.549 158.31 117.05L163.785 113.416L168.264 116.388V184.316H118.995V188.775H181.701C187.883 188.768 192.891 183.782 192.899 177.627V110.74C192.893 110.25 192.724 109.775 192.418 109.391L205.36 75.0892C207.102 70.4809 206.464 65.3163 203.654 61.2653C200.983 57.3353 196.524 54.9859 191.759 55.0001C185.686 55.0567 180.276 58.8343 178.156 64.5008L174.645 73.8068L170.504 69.684V61.6888C170.504 60.4575 169.501 59.4592 168.264 59.4592H143.629C142.393 59.4592 141.39 60.4575 141.39 61.6888V65.5144C138.858 63.2304 135.04 63.1008 132.357 65.2096V61.6888C132.357 58.0396 129.386 55.0806 125.72 55.0806C122.054 55.0806 119.082 58.0396 119.082 61.6888V65.2117C117.856 64.2004 116.313 63.6473 114.721 63.6506C112.873 63.6462 111.102 64.3887 109.812 65.7093C107.156 68.4342 107.14 72.7627 109.774 75.5083L111.859 77.6508C111.101 77.997 110.412 78.4782 109.827 79.0705L109.812 79.0792L109.791 79.102C109.269 79.6355 108.837 80.2495 108.513 80.9212L105.961 76.228L102.021 78.3508L107.812 88.9926C107.553 89.1395 107.293 89.2821 107.047 89.4498C106.955 89.5118 106.874 89.5837 106.784 89.6458L98.1184 81.6952L95.0817 84.9743L103.69 92.8758C102.701 94.3814 102.06 96.0863 101.813 97.8684ZM149.105 108.885L143.629 112.523L138.154 108.889C137.401 108.389 136.421 108.389 135.668 108.889L130.244 112.49C130.231 112.267 130.192 112.073 130.192 111.859C130.178 106.959 133.731 102.769 138.585 101.961C143.44 101.152 148.169 103.963 149.756 108.602C149.526 108.661 149.306 108.756 149.105 108.885ZM154.827 111.034L154.784 111.005C154.515 106.319 151.98 102.053 147.982 99.5635C143.985 97.0737 139.022 96.6687 134.671 98.477V83.9847H154.827V111.034ZM188.42 177.627C188.42 181.321 185.412 184.316 181.701 184.316H172.743V116.392L177.222 113.416L182.697 117.05C183.451 117.549 184.431 117.549 185.184 117.05L188.42 114.907V177.627ZM182.349 66.0674C183.809 62.1374 187.551 59.5104 191.759 59.4592C195.051 59.4527 198.129 61.0781 199.972 63.7932C201.949 66.6444 202.395 70.2795 201.167 73.5215L187.3 110.293L183.941 112.523L178.466 108.889C177.712 108.389 176.732 108.389 175.979 108.889L170.504 112.523L165.96 109.507L182.349 66.0674ZM172.916 78.3911L161.031 109.888L159.306 111.034V82.6783L168.264 73.7599L172.916 78.3911ZM145.869 63.9184H166.025V68.3776H145.869V63.9184ZM144.557 72.8368H162.858L156.139 79.5255H137.838L144.557 72.8368ZM113.009 68.837C113.458 68.3754 114.076 68.1141 114.721 68.1141C115.367 68.1152 115.985 68.3754 116.435 68.837L119.723 72.1814C120.362 72.8302 121.332 73.0273 122.175 72.6822C123.018 72.336 123.567 71.5151 123.561 70.6072V61.6888C123.525 60.8974 123.929 60.1505 124.611 59.7445C125.294 59.3373 126.146 59.3373 126.829 59.7445C127.512 60.1505 127.916 60.8974 127.878 61.6888V70.6072C127.88 71.5119 128.43 72.3262 129.272 72.668C130.112 73.0109 131.078 72.8128 131.716 72.1683L135.014 68.8239C135.958 67.8975 137.474 67.8975 138.418 68.8239C139.391 69.8157 139.391 71.3986 138.418 72.3904L131.821 79.0792L131.887 79.1467L130.848 80.1809C130.668 80.366 130.523 80.5815 130.416 80.8167C130.385 80.8853 130.367 80.9549 130.342 81.0257C130.275 81.2162 130.235 81.4144 130.222 81.6147C130.222 81.6637 130.194 81.7039 130.194 81.7529V101.42C129.685 101.905 129.211 102.427 128.779 102.981L124.549 94.0178C122.987 90.9249 120.165 88.6496 116.8 87.7754C116.017 87.574 115.214 87.4521 114.406 87.414L113.832 86.7445C113.385 86.2339 113.047 85.8354 112.992 85.7799C112.414 85.1768 112.163 84.332 112.321 83.5122C112.404 83.0463 112.619 82.6152 112.941 82.2679L112.981 82.2298L113.037 82.1699C113.849 81.3784 115.105 81.2619 116.05 81.889C117 82.5215 118.275 82.3397 119.01 81.4688C119.745 80.5968 119.702 79.3154 118.912 78.4935L112.992 72.4111C112.031 71.4095 112.039 69.8299 113.009 68.837ZM106.252 98.477C106.544 96.316 107.746 94.3804 109.558 93.1545C111.354 91.945 113.586 91.5618 115.687 92.1029C117.786 92.645 119.551 94.0592 120.531 95.9861L126.239 108.091C126.098 108.612 125.987 109.142 125.906 109.676L124.726 108.891C123.973 108.391 122.993 108.391 122.24 108.891L116.755 112.523L111.788 109.223L111.308 108.624L117.082 104.181L114.341 100.653L108.519 105.136L108.021 104.519C106.596 102.847 105.953 100.65 106.252 98.477Z" fill="#3497DB"/>
<path d="M85.8443 183.67C87.5679 187.124 91.1194 189.303 94.9999 189.29C96.5896 189.288 98.156 188.92 99.5783 188.217L101.418 187.303L103.261 188.217C104.682 188.92 106.248 189.288 107.837 189.29C111.718 189.303 115.269 187.124 116.994 183.67L117.784 182.094C120.441 176.8 121.828 170.968 121.837 165.054C121.829 158.533 116.508 153.249 109.941 153.241C107.728 153.248 105.56 153.871 103.687 155.043V153.241C103.687 148.264 99.6238 144.229 94.6122 144.229V148.735C97.118 148.735 99.1496 150.752 99.1496 153.241V155.043C97.2764 153.871 95.1085 153.248 92.8952 153.241C86.3284 153.249 81.0078 158.533 81 165.054C81.0078 170.969 82.3947 176.803 85.0522 182.098L85.8443 183.67ZM92.8952 157.747C94.8471 157.742 96.7203 158.513 98.0973 159.888L99.8143 161.593C100.7 162.472 102.136 162.472 103.022 161.593L104.739 159.888C106.844 157.798 110.008 157.173 112.757 158.304C115.507 159.435 117.299 162.099 117.299 165.054C117.294 170.271 116.071 175.415 113.726 180.084L112.935 181.662C111.972 183.581 109.996 184.791 107.837 184.784C106.953 184.783 106.081 184.578 105.289 184.186L102.433 182.767C101.794 182.45 101.043 182.45 100.405 182.767L97.55 184.186C96.758 184.578 95.885 184.783 94.9999 184.784C92.8398 184.79 90.8624 183.577 89.902 181.654L89.1111 180.077C86.767 175.411 85.5441 170.269 85.5374 165.054C85.5429 161.021 88.8341 157.753 92.8952 157.747V157.747Z" fill="#3497DB"/>
<rect x="57" y="52" width="171" height="31" fill="#FAFCFD" fill-opacity="0.5"/>
<path d="M110.759 37.7617H114.087L120.72 55H117.309L115.962 51.4492H108.93L107.524 55H104.114L110.759 37.7617ZM112.446 42.332L110.149 48.25H114.731L112.446 42.332ZM123.643 42.25H126.83V43.5508C127.557 42.9414 128.213 42.5195 128.799 42.2852C129.393 42.043 129.998 41.9219 130.615 41.9219C131.881 41.9219 132.955 42.3633 133.838 43.2461C134.58 43.9961 134.951 45.1055 134.951 46.5742V55H131.787V49.4102C131.787 47.8867 131.717 46.875 131.576 46.375C131.443 45.875 131.205 45.4961 130.861 45.2383C130.525 44.9727 130.107 44.8398 129.607 44.8398C128.959 44.8398 128.4 45.0586 127.932 45.4961C127.471 45.9258 127.15 46.5234 126.971 47.2891C126.877 47.6875 126.83 48.5508 126.83 49.8789V55H123.643V42.25ZM125.635 39.8711L124.346 37.9375C125.346 37.1641 126.357 36.7773 127.381 36.7773C127.764 36.7773 128.42 36.9102 129.35 37.1758C129.982 37.3477 130.486 37.4336 130.861 37.4336C131.518 37.4336 132.197 37.2305 132.9 36.8242L134.119 38.6523C133.135 39.4961 132.182 39.918 131.26 39.918C130.768 39.918 130.178 39.8125 129.49 39.6016C128.928 39.4375 128.572 39.3398 128.424 39.3086C128.221 39.2773 127.979 39.2617 127.697 39.2617C127.01 39.2617 126.322 39.4648 125.635 39.8711ZM148.199 42.25H151.386V55H148.199V53.6523C147.574 54.2461 146.945 54.6758 146.312 54.9414C145.687 55.1992 145.007 55.3281 144.273 55.3281C142.624 55.3281 141.199 54.6914 139.995 53.418C138.792 52.1367 138.191 50.5469 138.191 48.6484C138.191 46.6797 138.773 45.0664 139.937 43.8086C141.101 42.5508 142.515 41.9219 144.179 41.9219C144.945 41.9219 145.663 42.0664 146.335 42.3555C147.007 42.6445 147.628 43.0781 148.199 43.6562V42.25ZM144.835 44.875C143.843 44.875 143.019 45.2266 142.363 45.9297C141.706 46.625 141.378 47.5195 141.378 48.6133C141.378 49.7148 141.71 50.6211 142.374 51.332C143.046 52.043 143.87 52.3984 144.847 52.3984C145.855 52.3984 146.691 52.0508 147.355 51.3555C148.019 50.6523 148.351 49.7344 148.351 48.6016C148.351 47.4922 148.019 46.5938 147.355 45.9062C146.691 45.2188 145.851 44.875 144.835 44.875ZM164.762 37.3281H167.95V55H164.762V53.6523C164.137 54.2461 163.508 54.6758 162.876 54.9414C162.251 55.1992 161.571 55.3281 160.837 55.3281C159.188 55.3281 157.762 54.6914 156.559 53.418C155.356 52.1367 154.755 50.5469 154.755 48.6484C154.755 46.6797 155.337 45.0664 156.501 43.8086C157.665 42.5508 159.079 41.9219 160.743 41.9219C161.508 41.9219 162.227 42.0664 162.899 42.3555C163.571 42.6445 164.192 43.0781 164.762 43.6562V37.3281ZM161.399 44.875C160.407 44.875 159.583 45.2266 158.926 45.9297C158.27 46.625 157.942 47.5195 157.942 48.6133C157.942 49.7148 158.274 50.6211 158.938 51.332C159.61 52.043 160.434 52.3984 161.411 52.3984C162.419 52.3984 163.255 52.0508 163.919 51.3555C164.583 50.6523 164.915 49.7344 164.915 48.6016C164.915 47.4922 164.583 46.5938 163.919 45.9062C163.255 45.2188 162.415 44.875 161.399 44.875ZM173.158 37C173.721 37 174.201 37.2031 174.6 37.6094C175.006 38.0156 175.209 38.5078 175.209 39.0859C175.209 39.6562 175.01 40.1445 174.611 40.5508C174.213 40.9492 173.736 41.1484 173.182 41.1484C172.611 41.1484 172.123 40.9453 171.717 40.5391C171.318 40.125 171.119 39.625 171.119 39.0391C171.119 38.4766 171.318 37.9961 171.717 37.5977C172.115 37.1992 172.596 37 173.158 37ZM171.553 42.25H174.764V55H171.553V42.25ZM177.64 42.25H180.382V43.8555C180.679 43.2227 181.073 42.7422 181.566 42.4141C182.058 42.0859 182.597 41.9219 183.183 41.9219C183.597 41.9219 184.03 42.0312 184.484 42.25L183.488 45.0039C183.113 44.8164 182.804 44.7227 182.562 44.7227C182.07 44.7227 181.652 45.0273 181.308 45.6367C180.972 46.2461 180.804 47.4414 180.804 49.2227L180.816 49.8438V55H177.64V42.25ZM89.0133 65.1641L87.0992 66.9902C85.7971 65.6165 84.3323 64.9297 82.7047 64.9297C81.331 64.9297 80.1721 65.3984 79.2281 66.3359C78.2906 67.2734 77.8219 68.429 77.8219 69.8027C77.8219 70.7598 78.0302 71.6094 78.4469 72.3516C78.8635 73.0938 79.4527 73.6764 80.2145 74.0996C80.9762 74.5228 81.8225 74.7344 82.7535 74.7344C83.5478 74.7344 84.2737 74.5879 84.9313 74.2949C85.5888 73.9954 86.3115 73.4551 87.0992 72.6738L88.9547 74.6074C87.8935 75.6426 86.8909 76.362 85.9469 76.7656C85.0029 77.1628 83.9254 77.3613 82.7145 77.3613C80.4814 77.3613 78.652 76.6549 77.2262 75.2422C75.8069 73.8229 75.0973 72.0065 75.0973 69.793C75.0973 68.3607 75.4195 67.0879 76.0641 65.9746C76.7151 64.8613 77.6428 63.9661 78.8473 63.2891C80.0582 62.612 81.3603 62.2734 82.7535 62.2734C83.9384 62.2734 85.0777 62.5241 86.1715 63.0254C87.2717 63.5267 88.219 64.2396 89.0133 65.1641ZM99.5742 66.375H102.23V77H99.5742V75.877C99.0534 76.3717 98.5293 76.7298 98.002 76.9512C97.4811 77.166 96.9147 77.2734 96.3027 77.2734C94.929 77.2734 93.7409 76.7428 92.7383 75.6816C91.7357 74.6139 91.2344 73.2891 91.2344 71.707C91.2344 70.0664 91.7194 68.722 92.6895 67.6738C93.6595 66.6257 94.8379 66.1016 96.2246 66.1016C96.8626 66.1016 97.4616 66.222 98.0215 66.4629C98.5814 66.7038 99.099 67.0651 99.5742 67.5469V66.375ZM96.7715 68.5625C95.9447 68.5625 95.2578 68.8555 94.7109 69.4414C94.1641 70.0208 93.8906 70.7663 93.8906 71.6777C93.8906 72.5957 94.1673 73.3509 94.7207 73.9434C95.2806 74.5358 95.9674 74.832 96.7813 74.832C97.6211 74.832 98.3177 74.5423 98.8711 73.9629C99.4245 73.377 99.7012 72.612 99.7012 71.668C99.7012 70.7435 99.4245 69.9948 98.8711 69.4219C98.3177 68.849 97.6178 68.5625 96.7715 68.5625ZM105.526 66.375H108.182V67.459C108.788 66.9512 109.334 66.5996 109.823 66.4043C110.317 66.2025 110.822 66.1016 111.336 66.1016C112.391 66.1016 113.286 66.4694 114.022 67.2051C114.64 67.8301 114.95 68.7546 114.95 69.9785V77H112.313V72.3418C112.313 71.0723 112.254 70.2292 112.137 69.8125C112.026 69.3958 111.828 69.0801 111.541 68.8652C111.261 68.6439 110.913 68.5332 110.496 68.5332C109.956 68.5332 109.491 68.7155 109.1 69.0801C108.716 69.4382 108.449 69.9362 108.299 70.5742C108.221 70.9062 108.182 71.6257 108.182 72.7324V77H105.526V66.375ZM118.147 62.2734H120.794V67.4492C121.315 67 121.839 66.6647 122.366 66.4434C122.893 66.2155 123.427 66.1016 123.968 66.1016C125.022 66.1016 125.911 66.4661 126.634 67.1953C127.252 67.8268 127.561 68.7546 127.561 69.9785V77H124.934V72.3418C124.934 71.1113 124.876 70.278 124.759 69.8418C124.641 69.4056 124.44 69.0801 124.153 68.8652C123.873 68.6504 123.525 68.543 123.108 68.543C122.568 68.543 122.102 68.722 121.712 69.0801C121.328 69.4382 121.061 69.9264 120.911 70.5449C120.833 70.8639 120.794 71.5931 120.794 72.7324V77H118.147V62.2734ZM138.601 66.375H141.257V77H138.601V75.877C138.08 76.3717 137.556 76.7298 137.029 76.9512C136.508 77.166 135.941 77.2734 135.329 77.2734C133.956 77.2734 132.767 76.7428 131.765 75.6816C130.762 74.6139 130.261 73.2891 130.261 71.707C130.261 70.0664 130.746 68.722 131.716 67.6738C132.686 66.6257 133.864 66.1016 135.251 66.1016C135.889 66.1016 136.488 66.222 137.048 66.4629C137.608 66.7038 138.126 67.0651 138.601 67.5469V66.375ZM135.798 68.5625C134.971 68.5625 134.284 68.8555 133.738 69.4414C133.191 70.0208 132.917 70.7663 132.917 71.6777C132.917 72.5957 133.194 73.3509 133.747 73.9434C134.307 74.5358 134.994 74.832 135.808 74.832C136.648 74.832 137.344 74.5423 137.898 73.9629C138.451 73.377 138.728 72.612 138.728 71.668C138.728 70.7435 138.451 69.9948 137.898 69.4219C137.344 68.849 136.644 68.5625 135.798 68.5625ZM151.056 67.8594L149.406 69.5098C148.735 68.8457 148.127 68.5137 147.58 68.5137C147.28 68.5137 147.046 68.5788 146.877 68.709C146.707 68.8327 146.623 68.9889 146.623 69.1777C146.623 69.321 146.675 69.4544 146.779 69.5781C146.89 69.6953 147.157 69.8581 147.58 70.0664L148.556 70.5547C149.585 71.0625 150.291 71.5801 150.675 72.1074C151.06 72.6348 151.252 73.2533 151.252 73.9629C151.252 74.9069 150.903 75.6947 150.207 76.3262C149.517 76.9577 148.589 77.2734 147.423 77.2734C145.874 77.2734 144.637 76.668 143.713 75.457L145.353 73.6699C145.666 74.0345 146.03 74.3307 146.447 74.5586C146.87 74.7799 147.244 74.8906 147.57 74.8906C147.921 74.8906 148.205 74.806 148.42 74.6367C148.634 74.4674 148.742 74.2721 148.742 74.0508C148.742 73.6406 148.354 73.2402 147.58 72.8496L146.681 72.4004C144.963 71.5345 144.103 70.4505 144.103 69.1484C144.103 68.3086 144.425 67.5924 145.07 67C145.721 66.401 146.551 66.1016 147.56 66.1016C148.25 66.1016 148.898 66.2546 149.504 66.5605C150.115 66.86 150.633 67.293 151.056 67.8594ZM154.283 62.459H156.939V66.375H158.521V68.6699H156.939V77H154.283V68.6699H152.916V66.375H154.283V62.459ZM168.409 66.375H171.065V77H168.409V75.877C167.888 76.3717 167.364 76.7298 166.836 76.9512C166.315 77.166 165.749 77.2734 165.137 77.2734C163.763 77.2734 162.575 76.7428 161.573 75.6816C160.57 74.6139 160.069 73.2891 160.069 71.707C160.069 70.0664 160.554 68.722 161.524 67.6738C162.494 66.6257 163.672 66.1016 165.059 66.1016C165.697 66.1016 166.296 66.222 166.856 66.4629C167.416 66.7038 167.933 67.0651 168.409 67.5469V66.375ZM165.606 68.5625C164.779 68.5625 164.092 68.8555 163.545 69.4414C162.998 70.0208 162.725 70.7663 162.725 71.6777C162.725 72.5957 163.002 73.3509 163.555 73.9434C164.115 74.5358 164.802 74.832 165.616 74.832C166.455 74.832 167.152 74.5423 167.705 73.9629C168.259 73.377 168.536 72.612 168.536 71.668C168.536 70.7435 168.259 69.9948 167.705 69.4219C167.152 68.849 166.452 68.5625 165.606 68.5625ZM180.898 62.6348H188.027V65.3008H183.603V67.9082H188.027V70.5352H183.603V77H180.898V62.6348ZM191.82 62C192.289 62 192.689 62.1693 193.021 62.5078C193.36 62.8464 193.529 63.2565 193.529 63.7383C193.529 64.2135 193.363 64.6204 193.031 64.959C192.699 65.291 192.302 65.457 191.839 65.457C191.364 65.457 190.957 65.2878 190.619 64.9492C190.287 64.6042 190.121 64.1875 190.121 63.6992C190.121 63.2305 190.287 62.8301 190.619 62.498C190.951 62.166 191.351 62 191.82 62ZM190.482 66.375H193.158V77H190.482V66.375ZM197.43 62C197.905 62 198.309 62.1693 198.641 62.5078C198.979 62.8464 199.148 63.2565 199.148 63.7383C199.148 64.2135 198.982 64.6204 198.65 64.959C198.318 65.2975 197.921 65.4668 197.459 65.4668C196.984 65.4668 196.577 65.2943 196.238 64.9492C195.906 64.6042 195.74 64.1875 195.74 63.6992C195.74 63.2305 195.903 62.8301 196.229 62.498C196.561 62.166 196.961 62 197.43 62ZM196.102 66.375H198.768V77.3516C198.768 78.3607 198.667 79.1126 198.465 79.6074C198.27 80.1087 197.957 80.4928 197.527 80.7598C197.098 81.0267 196.58 81.1602 195.975 81.1602C195.441 81.1602 194.777 81.0267 193.982 80.7598V78.6602C194.399 78.862 194.767 78.9629 195.086 78.9629C195.424 78.9629 195.678 78.862 195.848 78.6602C196.017 78.4583 196.102 78.0872 196.102 77.5469V66.375ZM209.827 66.375H212.483V77H209.827V75.877C209.306 76.3717 208.782 76.7298 208.254 76.9512C207.733 77.166 207.167 77.2734 206.555 77.2734C205.181 77.2734 203.993 76.7428 202.991 75.6816C201.988 74.6139 201.487 73.2891 201.487 71.707C201.487 70.0664 201.972 68.722 202.942 67.6738C203.912 66.6257 205.09 66.1016 206.477 66.1016C207.115 66.1016 207.714 66.222 208.274 66.4629C208.834 66.7038 209.351 67.0651 209.827 67.5469V66.375ZM207.024 68.5625C206.197 68.5625 205.51 68.8555 204.963 69.4414C204.416 70.0208 204.143 70.7663 204.143 71.6777C204.143 72.5957 204.42 73.3509 204.973 73.9434C205.533 74.5358 206.22 74.832 207.034 74.832C207.873 74.832 208.57 74.5423 209.123 73.9629C209.677 73.377 209.954 72.612 209.954 71.668C209.954 70.7435 209.677 69.9948 209.123 69.4219C208.57 68.849 207.87 68.5625 207.024 68.5625Z" fill="#444242"/>
<g filter="url(#filter1_d)">
<rect x="160" y="129" width="30" height="35" rx="4.64052" transform="rotate(90 160 129)" fill="#3497DB"/>
</g>
<line x1="143.128" y1="137.182" x2="143.128" y2="152.182" stroke="#F5F8FA" stroke-width="2"/>
<line x1="143.128" y1="137.182" x2="143.128" y2="152.182" stroke="url(#paint1_linear)" stroke-width="2"/>
<line x1="148.858" y1="144.339" x2="137.115" y2="144.339" stroke="#F5F8FA" stroke-width="2"/>
<line x1="148.858" y1="144.339" x2="137.115" y2="144.339" stroke="url(#paint2_linear)" stroke-width="2"/>
<defs>
<filter id="filter0_d" x="0" y="0" width="308" height="230" filterUnits="userSpaceOnUse" color-interpolation-filters="sRGB">
<feFlood flood-opacity="0" result="BackgroundImageFix"/>
<feColorMatrix in="SourceAlpha" type="matrix" values="0 0 0 0 0 0 0 0 0 0 0 0 0 0 0 0 0 0 127 0"/>
<feOffset dx="10" dy="10"/>
<feGaussianBlur stdDeviation="7.5"/>
<feColorMatrix type="matrix" values="0 0 0 0 0 0 0 0 0 0 0 0 0 0 0 0 0 0 0.2 0"/>
<feBlend mode="multiply" in2="BackgroundImageFix" result="effect1_dropShadow"/>
<feBlend mode="normal" in="SourceGraphic" in2="effect1_dropShadow" result="shape"/>
</filter>
<filter id="filter1_d" x="122" y="126" width="43" height="38" filterUnits="userSpaceOnUse" color-interpolation-filters="sRGB">
<feFlood flood-opacity="0" result="BackgroundImageFix"/>
<feColorMatrix in="SourceAlpha" type="matrix" values="0 0 0 0 0 0 0 0 0 0 0 0 0 0 0 0 0 0 127 0"/>
<feOffset dx="1" dy="1"/>
<feGaussianBlur stdDeviation="2"/>
<feColorMatrix type="matrix" values="0 0 0 0 0 0 0 0 0 0 0 0 0 0 0 0 0 0 0.15 0"/>
<feBlend mode="normal" in2="BackgroundImageFix" result="effect1_dropShadow"/>
<feBlend mode="normal" in="SourceGraphic" in2="effect1_dropShadow" result="shape"/>
</filter>
<linearGradient id="paint0_linear" x1="144" y1="5" x2="144" y2="205" gradientUnits="userSpaceOnUse">
<stop stop-color="white"/>
<stop offset="1" stop-color="white" stop-opacity="0"/>
</linearGradient>
<linearGradient id="paint1_linear" x1="142.128" y1="144.682" x2="141.128" y2="144.682" gradientUnits="userSpaceOnUse">
<stop stop-color="white"/>
<stop offset="1" stop-color="white" stop-opacity="0"/>
</linearGradient>
<linearGradient id="paint2_linear" x1="142.987" y1="143.339" x2="142.987" y2="142.339" gradientUnits="userSpaceOnUse">
<stop stop-color="white"/>
<stop offset="1" stop-color="white" stop-opacity="0"/>
</linearGradient>
</defs>
</svg>
