<svg width="308" height="230" viewBox="0 0 308 230" fill="none" xmlns="http://www.w3.org/2000/svg">
<g filter="url(#filter0_d)">
<rect x="5" y="5" width="278" height="200" rx="15" fill="#F5F8FA"/>
<rect x="5" y="5" width="278" height="200" rx="15" fill="url(#paint0_linear)"/>
</g>
<path d="M110.934 36.7969L108.637 38.9883C107.074 37.3398 105.317 36.5156 103.363 36.5156C101.715 36.5156 100.324 37.0781 99.1916 38.2031C98.0666 39.3281 97.5041 40.7148 97.5041 42.3633C97.5041 43.5117 97.7541 44.5312 98.2541 45.4219C98.7541 46.3125 99.4611 47.0117 100.375 47.5195C101.289 48.0273 102.305 48.2812 103.422 48.2812C104.375 48.2812 105.246 48.1055 106.035 47.7539C106.824 47.3945 107.692 46.7461 108.637 45.8086L110.863 48.1289C109.59 49.3711 108.387 50.2344 107.254 50.7188C106.121 51.1953 104.828 51.4336 103.375 51.4336C100.695 51.4336 98.5002 50.5859 96.7892 48.8906C95.0861 47.1875 94.2345 45.0078 94.2345 42.3516C94.2345 40.6328 94.6213 39.1055 95.3947 37.7695C96.1759 36.4336 97.2892 35.3594 98.7345 34.5469C100.188 33.7344 101.75 33.3281 103.422 33.3281C104.844 33.3281 106.211 33.6289 107.524 34.2305C108.844 34.832 109.981 35.6875 110.934 36.7969ZM123.607 38.25H126.794V51H123.607V49.6523C122.982 50.2461 122.353 50.6758 121.72 50.9414C121.095 51.1992 120.415 51.3281 119.681 51.3281C118.033 51.3281 116.607 50.6914 115.404 49.418C114.201 48.1367 113.599 46.5469 113.599 44.6484C113.599 42.6797 114.181 41.0664 115.345 39.8086C116.509 38.5508 117.923 37.9219 119.587 37.9219C120.353 37.9219 121.072 38.0664 121.744 38.3555C122.415 38.6445 123.037 39.0781 123.607 39.6562V38.25ZM120.244 40.875C119.251 40.875 118.427 41.2266 117.771 41.9297C117.115 42.625 116.787 43.5195 116.787 44.6133C116.787 45.7148 117.119 46.6211 117.783 47.332C118.455 48.043 119.279 48.3984 120.255 48.3984C121.263 48.3984 122.099 48.0508 122.763 47.3555C123.427 46.6523 123.759 45.7344 123.759 44.6016C123.759 43.4922 123.427 42.5938 122.763 41.9062C122.099 41.2188 121.259 40.875 120.244 40.875ZM130.749 38.25H133.936V39.5508C134.663 38.9414 135.319 38.5195 135.905 38.2852C136.499 38.043 137.104 37.9219 137.721 37.9219C138.987 37.9219 140.061 38.3633 140.944 39.2461C141.686 39.9961 142.057 41.1055 142.057 42.5742V51H138.893V45.4102C138.893 43.8867 138.823 42.875 138.682 42.375C138.55 41.875 138.311 41.4961 137.967 41.2383C137.632 40.9727 137.214 40.8398 136.714 40.8398C136.065 40.8398 135.507 41.0586 135.038 41.4961C134.577 41.9258 134.257 42.5234 134.077 43.2891C133.983 43.6875 133.936 44.5508 133.936 45.8789V51H130.749V38.25ZM155.305 38.25H158.492V51H155.305V49.6523C154.68 50.2461 154.051 50.6758 153.418 50.9414C152.793 51.1992 152.113 51.3281 151.379 51.3281C149.73 51.3281 148.305 50.6914 147.102 49.418C145.898 48.1367 145.297 46.5469 145.297 44.6484C145.297 42.6797 145.879 41.0664 147.043 39.8086C148.207 38.5508 149.621 37.9219 151.285 37.9219C152.051 37.9219 152.77 38.0664 153.441 38.3555C154.113 38.6445 154.734 39.0781 155.305 39.6562V38.25ZM151.941 40.875C150.949 40.875 150.125 41.2266 149.469 41.9297C148.812 42.625 148.484 43.5195 148.484 44.6133C148.484 45.7148 148.816 46.6211 149.48 47.332C150.152 48.043 150.977 48.3984 151.953 48.3984C152.961 48.3984 153.797 48.0508 154.461 47.3555C155.125 46.6523 155.457 45.7344 155.457 44.6016C155.457 43.4922 155.125 42.5938 154.461 41.9062C153.797 41.2188 152.957 40.875 151.941 40.875ZM170.251 40.0312L168.271 42.0117C167.466 41.2148 166.736 40.8164 166.079 40.8164C165.72 40.8164 165.439 40.8945 165.236 41.0508C165.033 41.1992 164.931 41.3867 164.931 41.6133C164.931 41.7852 164.993 41.9453 165.118 42.0938C165.251 42.2344 165.572 42.4297 166.079 42.6797L167.251 43.2656C168.486 43.875 169.333 44.4961 169.794 45.1289C170.255 45.7617 170.486 46.5039 170.486 47.3555C170.486 48.4883 170.068 49.4336 169.232 50.1914C168.404 50.9492 167.29 51.3281 165.892 51.3281C164.033 51.3281 162.548 50.6016 161.439 49.1484L163.408 47.0039C163.783 47.4414 164.22 47.7969 164.72 48.0703C165.228 48.3359 165.677 48.4688 166.068 48.4688C166.49 48.4688 166.829 48.3672 167.087 48.1641C167.345 47.9609 167.474 47.7266 167.474 47.4609C167.474 46.9688 167.009 46.4883 166.079 46.0195L165.001 45.4805C162.939 44.4414 161.908 43.1406 161.908 41.5781C161.908 40.5703 162.294 39.7109 163.068 39C163.849 38.2812 164.845 37.9219 166.056 37.9219C166.884 37.9219 167.661 38.1055 168.388 38.4727C169.122 38.832 169.743 39.3516 170.251 40.0312ZM174.124 33.5508H177.311V38.25H179.21V41.0039H177.311V51H174.124V41.0039H172.483V38.25H174.124V33.5508ZM191.074 38.25H194.262V51H191.074V49.6523C190.449 50.2461 189.82 50.6758 189.187 50.9414C188.562 51.1992 187.883 51.3281 187.148 51.3281C185.5 51.3281 184.074 50.6914 182.871 49.418C181.668 48.1367 181.066 46.5469 181.066 44.6484C181.066 42.6797 181.648 41.0664 182.812 39.8086C183.976 38.5508 185.39 37.9219 187.055 37.9219C187.82 37.9219 188.539 38.0664 189.211 38.3555C189.883 38.6445 190.504 39.0781 191.074 39.6562V38.25ZM187.711 40.875C186.719 40.875 185.894 41.2266 185.238 41.9297C184.582 42.625 184.254 43.5195 184.254 44.6133C184.254 45.7148 184.586 46.6211 185.25 47.332C185.922 48.043 186.746 48.3984 187.723 48.3984C188.73 48.3984 189.566 48.0508 190.23 47.3555C190.894 46.6523 191.226 45.7344 191.226 44.6016C191.226 43.4922 190.894 42.5938 190.23 41.9062C189.566 41.2188 188.726 40.875 187.711 40.875ZM119.119 60.3281H122.318V78H119.119V60.3281ZM127.198 60C127.76 60 128.241 60.2031 128.639 60.6094C129.046 61.0156 129.249 61.5078 129.249 62.0859C129.249 62.6562 129.05 63.1445 128.651 63.5508C128.253 63.9492 127.776 64.1484 127.221 64.1484C126.651 64.1484 126.163 63.9453 125.757 63.5391C125.358 63.125 125.159 62.625 125.159 62.0391C125.159 61.4766 125.358 60.9961 125.757 60.5977C126.155 60.1992 126.635 60 127.198 60ZM125.592 65.25H128.803V78H125.592V65.25ZM135.605 60.3281V66.6562C136.184 66.0781 136.809 65.6445 137.48 65.3555C138.152 65.0664 138.871 64.9219 139.637 64.9219C141.301 64.9219 142.715 65.5508 143.879 66.8086C145.043 68.0664 145.625 69.6797 145.625 71.6484C145.625 73.5469 145.023 75.1367 143.82 76.418C142.617 77.6914 141.191 78.3281 139.543 78.3281C138.809 78.3281 138.125 78.1992 137.492 77.9414C136.859 77.6758 136.23 77.2461 135.605 76.6523V78H132.43V60.3281H135.605ZM138.969 67.875C137.961 67.875 137.125 68.2188 136.461 68.9062C135.797 69.5938 135.465 70.4922 135.465 71.6016C135.465 72.7344 135.797 73.6523 136.461 74.3555C137.125 75.0508 137.961 75.3984 138.969 75.3984C139.945 75.3984 140.766 75.043 141.43 74.332C142.102 73.6211 142.438 72.7148 142.438 71.6133C142.438 70.5195 142.109 69.625 141.453 68.9297C140.797 68.2266 139.969 67.875 138.969 67.875ZM148.243 65.25H150.986V66.8555C151.283 66.2227 151.677 65.7422 152.169 65.4141C152.661 65.0859 153.2 64.9219 153.786 64.9219C154.2 64.9219 154.634 65.0312 155.087 65.25L154.091 68.0039C153.716 67.8164 153.408 67.7227 153.165 67.7227C152.673 67.7227 152.255 68.0273 151.911 68.6367C151.575 69.2461 151.408 70.4414 151.408 72.2227L151.419 72.8438V78H148.243V65.25ZM170.174 72.5508H159.897C160.045 73.457 160.44 74.1797 161.081 74.7188C161.729 75.25 162.553 75.5156 163.553 75.5156C164.749 75.5156 165.776 75.0977 166.635 74.2617L169.331 75.5273C168.659 76.4805 167.854 77.1875 166.917 77.6484C165.979 78.1016 164.866 78.3281 163.577 78.3281C161.577 78.3281 159.948 77.6992 158.69 76.4414C157.432 75.1758 156.803 73.5938 156.803 71.6953C156.803 69.75 157.428 68.1367 158.678 66.8555C159.936 65.5664 161.51 64.9219 163.401 64.9219C165.409 64.9219 167.042 65.5664 168.299 66.8555C169.557 68.1367 170.186 69.832 170.186 71.9414L170.174 72.5508ZM166.963 70.0312C166.753 69.3203 166.335 68.7422 165.71 68.2969C165.092 67.8516 164.374 67.6289 163.553 67.6289C162.663 67.6289 161.881 67.8789 161.21 68.3789C160.788 68.6914 160.397 69.2422 160.038 70.0312H166.963Z" fill="#444242"/>
<path d="M106.286 110H120L129.189 155.909C129.502 157.487 130.361 158.905 131.614 159.914C132.868 160.923 134.437 161.459 136.046 161.429H169.371C170.98 161.459 172.549 160.923 173.803 159.914C175.056 158.905 175.915 157.487 176.229 155.909L181.714 127.143H123.429M137.143 178.571C137.143 180.465 135.608 182 133.714 182C131.821 182 130.286 180.465 130.286 178.571C130.286 176.678 131.821 175.143 133.714 175.143C135.608 175.143 137.143 176.678 137.143 178.571ZM174.857 178.571C174.857 180.465 173.322 182 171.429 182C169.535 182 168 180.465 168 178.571C168 176.678 169.535 175.143 171.429 175.143C173.322 175.143 174.857 176.678 174.857 178.571Z" stroke="#3497DB" stroke-width="3" stroke-linecap="round" stroke-linejoin="round"/>
<path d="M96 98V96H94V98H96ZM192 98H194V96H192V98ZM192 194V196H194V194H192ZM96 194H94V196H96V194ZM96 100H192V96H96V100ZM190 98V194H194V98H190ZM192 192H96V196H192V192ZM98 194V98H94V194H98Z" fill="white"/>
<defs>
<filter id="filter0_d" x="0" y="0" width="308" height="230" filterUnits="userSpaceOnUse" color-interpolation-filters="sRGB">
<feFlood flood-opacity="0" result="BackgroundImageFix"/>
<feColorMatrix in="SourceAlpha" type="matrix" values="0 0 0 0 0 0 0 0 0 0 0 0 0 0 0 0 0 0 127 0"/>
<feOffset dx="10" dy="10"/>
<feGaussianBlur stdDeviation="7.5"/>
<feColorMatrix type="matrix" values="0 0 0 0 0 0 0 0 0 0 0 0 0 0 0 0 0 0 0.2 0"/>
<feBlend mode="multiply" in2="BackgroundImageFix" result="effect1_dropShadow"/>
<feBlend mode="normal" in="SourceGraphic" in2="effect1_dropShadow" result="shape"/>
</filter>
<linearGradient id="paint0_linear" x1="144" y1="5" x2="144" y2="205" gradientUnits="userSpaceOnUse">
<stop stop-color="white"/>
<stop offset="1" stop-color="white" stop-opacity="0"/>
</linearGradient>
</defs>
</svg>
