<svg width="308" height="230" viewBox="0 0 308 230" fill="none" xmlns="http://www.w3.org/2000/svg">
<g filter="url(#filter0_d)">
<rect x="5" y="5" width="278" height="200" rx="15" fill="#F5F8FA"/>
<rect x="5" y="5" width="278" height="200" rx="15" fill="url(#paint0_linear)"/>
</g>
<path d="M110.934 36.7969L108.637 38.9883C107.074 37.3398 105.317 36.5156 103.363 36.5156C101.715 36.5156 100.324 37.0781 99.1916 38.2031C98.0666 39.3281 97.5041 40.7148 97.5041 42.3633C97.5041 43.5117 97.7541 44.5312 98.2541 45.4219C98.7541 46.3125 99.4611 47.0117 100.375 47.5195C101.289 48.0273 102.305 48.2812 103.422 48.2812C104.375 48.2812 105.246 48.1055 106.035 47.7539C106.824 47.3945 107.692 46.7461 108.637 45.8086L110.863 48.1289C109.59 49.3711 108.387 50.2344 107.254 50.7188C106.121 51.1953 104.828 51.4336 103.375 51.4336C100.695 51.4336 98.5002 50.5859 96.7892 48.8906C95.0861 47.1875 94.2345 45.0078 94.2345 42.3516C94.2345 40.6328 94.6213 39.1055 95.3947 37.7695C96.1759 36.4336 97.2892 35.3594 98.7345 34.5469C100.188 33.7344 101.75 33.3281 103.422 33.3281C104.844 33.3281 106.211 33.6289 107.524 34.2305C108.844 34.832 109.981 35.6875 110.934 36.7969ZM123.607 38.25H126.794V51H123.607V49.6523C122.982 50.2461 122.353 50.6758 121.72 50.9414C121.095 51.1992 120.415 51.3281 119.681 51.3281C118.033 51.3281 116.607 50.6914 115.404 49.418C114.201 48.1367 113.599 46.5469 113.599 44.6484C113.599 42.6797 114.181 41.0664 115.345 39.8086C116.509 38.5508 117.923 37.9219 119.587 37.9219C120.353 37.9219 121.072 38.0664 121.744 38.3555C122.415 38.6445 123.037 39.0781 123.607 39.6562V38.25ZM120.244 40.875C119.251 40.875 118.427 41.2266 117.771 41.9297C117.115 42.625 116.787 43.5195 116.787 44.6133C116.787 45.7148 117.119 46.6211 117.783 47.332C118.455 48.043 119.279 48.3984 120.255 48.3984C121.263 48.3984 122.099 48.0508 122.763 47.3555C123.427 46.6523 123.759 45.7344 123.759 44.6016C123.759 43.4922 123.427 42.5938 122.763 41.9062C122.099 41.2188 121.259 40.875 120.244 40.875ZM130.749 38.25H133.936V39.5508C134.663 38.9414 135.319 38.5195 135.905 38.2852C136.499 38.043 137.104 37.9219 137.721 37.9219C138.987 37.9219 140.061 38.3633 140.944 39.2461C141.686 39.9961 142.057 41.1055 142.057 42.5742V51H138.893V45.4102C138.893 43.8867 138.823 42.875 138.682 42.375C138.55 41.875 138.311 41.4961 137.967 41.2383C137.632 40.9727 137.214 40.8398 136.714 40.8398C136.065 40.8398 135.507 41.0586 135.038 41.4961C134.577 41.9258 134.257 42.5234 134.077 43.2891C133.983 43.6875 133.936 44.5508 133.936 45.8789V51H130.749V38.25ZM155.305 38.25H158.492V51H155.305V49.6523C154.68 50.2461 154.051 50.6758 153.418 50.9414C152.793 51.1992 152.113 51.3281 151.379 51.3281C149.73 51.3281 148.305 50.6914 147.102 49.418C145.898 48.1367 145.297 46.5469 145.297 44.6484C145.297 42.6797 145.879 41.0664 147.043 39.8086C148.207 38.5508 149.621 37.9219 151.285 37.9219C152.051 37.9219 152.77 38.0664 153.441 38.3555C154.113 38.6445 154.734 39.0781 155.305 39.6562V38.25ZM151.941 40.875C150.949 40.875 150.125 41.2266 149.469 41.9297C148.812 42.625 148.484 43.5195 148.484 44.6133C148.484 45.7148 148.816 46.6211 149.48 47.332C150.152 48.043 150.977 48.3984 151.953 48.3984C152.961 48.3984 153.797 48.0508 154.461 47.3555C155.125 46.6523 155.457 45.7344 155.457 44.6016C155.457 43.4922 155.125 42.5938 154.461 41.9062C153.797 41.2188 152.957 40.875 151.941 40.875ZM170.251 40.0312L168.271 42.0117C167.466 41.2148 166.736 40.8164 166.079 40.8164C165.72 40.8164 165.439 40.8945 165.236 41.0508C165.033 41.1992 164.931 41.3867 164.931 41.6133C164.931 41.7852 164.993 41.9453 165.118 42.0938C165.251 42.2344 165.572 42.4297 166.079 42.6797L167.251 43.2656C168.486 43.875 169.333 44.4961 169.794 45.1289C170.255 45.7617 170.486 46.5039 170.486 47.3555C170.486 48.4883 170.068 49.4336 169.232 50.1914C168.404 50.9492 167.29 51.3281 165.892 51.3281C164.033 51.3281 162.548 50.6016 161.439 49.1484L163.408 47.0039C163.783 47.4414 164.22 47.7969 164.72 48.0703C165.228 48.3359 165.677 48.4688 166.068 48.4688C166.49 48.4688 166.829 48.3672 167.087 48.1641C167.345 47.9609 167.474 47.7266 167.474 47.4609C167.474 46.9688 167.009 46.4883 166.079 46.0195L165.001 45.4805C162.939 44.4414 161.908 43.1406 161.908 41.5781C161.908 40.5703 162.294 39.7109 163.068 39C163.849 38.2812 164.845 37.9219 166.056 37.9219C166.884 37.9219 167.661 38.1055 168.388 38.4727C169.122 38.832 169.743 39.3516 170.251 40.0312ZM174.124 33.5508H177.311V38.25H179.21V41.0039H177.311V51H174.124V41.0039H172.483V38.25H174.124V33.5508ZM191.074 38.25H194.262V51H191.074V49.6523C190.449 50.2461 189.82 50.6758 189.187 50.9414C188.562 51.1992 187.883 51.3281 187.148 51.3281C185.5 51.3281 184.074 50.6914 182.871 49.418C181.668 48.1367 181.066 46.5469 181.066 44.6484C181.066 42.6797 181.648 41.0664 182.812 39.8086C183.976 38.5508 185.39 37.9219 187.055 37.9219C187.82 37.9219 188.539 38.0664 189.211 38.3555C189.883 38.6445 190.504 39.0781 191.074 39.6562V38.25ZM187.711 40.875C186.719 40.875 185.894 41.2266 185.238 41.9297C184.582 42.625 184.254 43.5195 184.254 44.6133C184.254 45.7148 184.586 46.6211 185.25 47.332C185.922 48.043 186.746 48.3984 187.723 48.3984C188.73 48.3984 189.566 48.0508 190.23 47.3555C190.894 46.6523 191.226 45.7344 191.226 44.6016C191.226 43.4922 190.894 42.5938 190.23 41.9062C189.566 41.2188 188.726 40.875 187.711 40.875ZM106.923 65.25H110.11V78H106.923V76.6523C106.298 77.2461 105.669 77.6758 105.036 77.9414C104.411 78.1992 103.731 78.3281 102.997 78.3281C101.348 78.3281 99.9227 77.6914 98.7195 76.418C97.5164 75.1367 96.9148 73.5469 96.9148 71.6484C96.9148 69.6797 97.4969 68.0664 98.6609 66.8086C99.825 65.5508 101.239 64.9219 102.903 64.9219C103.669 64.9219 104.388 65.0664 105.059 65.3555C105.731 65.6445 106.352 66.0781 106.923 66.6562V65.25ZM103.559 67.875C102.567 67.875 101.743 68.2266 101.087 68.9297C100.43 69.625 100.102 70.5195 100.102 71.6133C100.102 72.7148 100.434 73.6211 101.098 74.332C101.77 75.043 102.595 75.3984 103.571 75.3984C104.579 75.3984 105.415 75.0508 106.079 74.3555C106.743 73.6523 107.075 72.7344 107.075 71.6016C107.075 70.4922 106.743 69.5938 106.079 68.9062C105.415 68.2188 104.575 67.875 103.559 67.875ZM113.315 65.25H116.057V66.8555C116.354 66.2227 116.748 65.7422 117.24 65.4141C117.733 65.0859 118.272 64.9219 118.858 64.9219C119.272 64.9219 119.705 65.0312 120.158 65.25L119.162 68.0039C118.787 67.8164 118.479 67.7227 118.236 67.7227C117.744 67.7227 117.326 68.0273 116.983 68.6367C116.647 69.2461 116.479 70.4414 116.479 72.2227L116.49 72.8438V78H113.315V65.25ZM122.449 65.25H125.66V66.7148C126.206 66.1133 126.812 65.6641 127.476 65.3672C128.148 65.0703 128.878 64.9219 129.667 64.9219C130.464 64.9219 131.183 65.1172 131.824 65.5078C132.464 65.8984 132.98 66.4688 133.37 67.2188C133.878 66.4688 134.499 65.8984 135.234 65.5078C135.976 65.1172 136.785 64.9219 137.66 64.9219C138.566 64.9219 139.363 65.1328 140.05 65.5547C140.738 65.9766 141.23 66.5273 141.527 67.207C141.831 67.8867 141.984 68.9922 141.984 70.5234V78H138.761V71.5312C138.761 70.0859 138.581 69.1094 138.222 68.6016C137.863 68.0859 137.324 67.8281 136.605 67.8281C136.058 67.8281 135.566 67.9844 135.128 68.2969C134.699 68.6094 134.378 69.043 134.167 69.5977C133.956 70.1445 133.851 71.0273 133.851 72.2461V78H130.628V71.8242C130.628 70.6836 130.542 69.8594 130.37 69.3516C130.206 68.8359 129.956 68.4531 129.62 68.2031C129.285 67.9531 128.878 67.8281 128.402 67.8281C127.87 67.8281 127.386 67.9883 126.949 68.3086C126.519 68.6211 126.195 69.0625 125.976 69.6328C125.765 70.2031 125.66 71.1016 125.66 72.3281V78H122.449V65.25ZM155.184 65.25H158.372V78H155.184V76.6523C154.559 77.2461 153.93 77.6758 153.298 77.9414C152.673 78.1992 151.993 78.3281 151.258 78.3281C149.61 78.3281 148.184 77.6914 146.981 76.418C145.778 75.1367 145.176 73.5469 145.176 71.6484C145.176 69.6797 145.758 68.0664 146.923 66.8086C148.087 65.5508 149.501 64.9219 151.165 64.9219C151.93 64.9219 152.649 65.0664 153.321 65.3555C153.993 65.6445 154.614 66.0781 155.184 66.6562V65.25ZM151.821 67.875C150.829 67.875 150.005 68.2266 149.348 68.9297C148.692 69.625 148.364 70.5195 148.364 71.6133C148.364 72.7148 148.696 73.6211 149.36 74.332C150.032 75.043 150.856 75.3984 151.833 75.3984C152.84 75.3984 153.676 75.0508 154.34 74.3555C155.005 73.6523 155.337 72.7344 155.337 71.6016C155.337 70.4922 155.005 69.5938 154.34 68.9062C153.676 68.2188 152.837 67.875 151.821 67.875ZM171.748 60.3281H174.935V78H171.748V76.6523C171.123 77.2461 170.494 77.6758 169.861 77.9414C169.236 78.1992 168.557 78.3281 167.822 78.3281C166.174 78.3281 164.748 77.6914 163.545 76.418C162.342 75.1367 161.74 73.5469 161.74 71.6484C161.74 69.6797 162.322 68.0664 163.486 66.8086C164.65 65.5508 166.064 64.9219 167.728 64.9219C168.494 64.9219 169.213 65.0664 169.885 65.3555C170.557 65.6445 171.178 66.0781 171.748 66.6562V60.3281ZM168.385 67.875C167.393 67.875 166.568 68.2266 165.912 68.9297C165.256 69.625 164.928 70.5195 164.928 71.6133C164.928 72.7148 165.26 73.6211 165.924 74.332C166.596 75.043 167.42 75.3984 168.396 75.3984C169.404 75.3984 170.24 75.0508 170.904 74.3555C171.568 73.6523 171.9 72.7344 171.9 71.6016C171.9 70.4922 171.568 69.5938 170.904 68.9062C170.24 68.2188 169.4 67.875 168.385 67.875ZM188.312 65.25H191.499V78H188.312V76.6523C187.687 77.2461 187.058 77.6758 186.425 77.9414C185.8 78.1992 185.12 78.3281 184.386 78.3281C182.738 78.3281 181.312 77.6914 180.109 76.418C178.905 75.1367 178.304 73.5469 178.304 71.6484C178.304 69.6797 178.886 68.0664 180.05 66.8086C181.214 65.5508 182.628 64.9219 184.292 64.9219C185.058 64.9219 185.777 65.0664 186.448 65.3555C187.12 65.6445 187.741 66.0781 188.312 66.6562V65.25ZM184.948 67.875C183.956 67.875 183.132 68.2266 182.476 68.9297C181.82 69.625 181.491 70.5195 181.491 71.6133C181.491 72.7148 181.823 73.6211 182.488 74.332C183.159 75.043 183.984 75.3984 184.96 75.3984C185.968 75.3984 186.804 75.0508 187.468 74.3555C188.132 73.6523 188.464 72.7344 188.464 71.6016C188.464 70.4922 188.132 69.5938 187.468 68.9062C186.804 68.2188 185.964 67.875 184.948 67.875Z" fill="#444242"/>
<path d="M106.286 110H120L129.189 155.909C129.502 157.487 130.361 158.905 131.614 159.914C132.868 160.923 134.437 161.459 136.046 161.429H169.371C170.981 161.459 172.549 160.923 173.803 159.914C175.056 158.905 175.915 157.487 176.229 155.909L181.714 127.143H123.429M137.143 178.571C137.143 180.465 135.608 182 133.714 182C131.821 182 130.286 180.465 130.286 178.571C130.286 176.678 131.821 175.143 133.714 175.143C135.608 175.143 137.143 176.678 137.143 178.571ZM174.857 178.571C174.857 180.465 173.322 182 171.429 182C169.535 182 168 180.465 168 178.571C168 176.678 169.535 175.143 171.429 175.143C173.322 175.143 174.857 176.678 174.857 178.571Z" stroke="#3497DB" stroke-width="3" stroke-linecap="round" stroke-linejoin="round"/>
<path d="M96 98V96H94V98H96ZM192 98H194V96H192V98ZM192 194V196H194V194H192ZM96 194H94V196H96V194ZM96 100H192V96H96V100ZM190 98V194H194V98H190ZM192 192H96V196H192V192ZM98 194V98H94V194H98Z" fill="white"/>
<defs>
<filter id="filter0_d" x="0" y="0" width="308" height="230" filterUnits="userSpaceOnUse" color-interpolation-filters="sRGB">
<feFlood flood-opacity="0" result="BackgroundImageFix"/>
<feColorMatrix in="SourceAlpha" type="matrix" values="0 0 0 0 0 0 0 0 0 0 0 0 0 0 0 0 0 0 127 0"/>
<feOffset dx="10" dy="10"/>
<feGaussianBlur stdDeviation="7.5"/>
<feColorMatrix type="matrix" values="0 0 0 0 0 0 0 0 0 0 0 0 0 0 0 0 0 0 0.2 0"/>
<feBlend mode="multiply" in2="BackgroundImageFix" result="effect1_dropShadow"/>
<feBlend mode="normal" in="SourceGraphic" in2="effect1_dropShadow" result="shape"/>
</filter>
<linearGradient id="paint0_linear" x1="144" y1="5" x2="144" y2="205" gradientUnits="userSpaceOnUse">
<stop stop-color="white"/>
<stop offset="1" stop-color="white" stop-opacity="0"/>
</linearGradient>
</defs>
</svg>
