<svg width="308" height="230" viewBox="0 0 308 230" fill="none" xmlns="http://www.w3.org/2000/svg">
<g filter="url(#filter0_d)">
<rect x="5" y="5" width="278" height="200" rx="15" fill="#F5F8FA"/>
<rect x="5" y="5" width="278" height="200" rx="15" fill="url(#paint0_linear)"/>
</g>
<path d="M110.934 36.7969L108.637 38.9883C107.074 37.3398 105.317 36.5156 103.363 36.5156C101.715 36.5156 100.324 37.0781 99.1916 38.2031C98.0666 39.3281 97.5041 40.7148 97.5041 42.3633C97.5041 43.5117 97.7541 44.5312 98.2541 45.4219C98.7541 46.3125 99.4611 47.0117 100.375 47.5195C101.289 48.0273 102.305 48.2812 103.422 48.2812C104.375 48.2812 105.246 48.1055 106.035 47.7539C106.824 47.3945 107.692 46.7461 108.637 45.8086L110.863 48.1289C109.59 49.3711 108.387 50.2344 107.254 50.7188C106.121 51.1953 104.828 51.4336 103.375 51.4336C100.695 51.4336 98.5002 50.5859 96.7892 48.8906C95.0861 47.1875 94.2345 45.0078 94.2345 42.3516C94.2345 40.6328 94.6213 39.1055 95.3947 37.7695C96.1759 36.4336 97.2892 35.3594 98.7345 34.5469C100.188 33.7344 101.75 33.3281 103.422 33.3281C104.844 33.3281 106.211 33.6289 107.524 34.2305C108.844 34.832 109.981 35.6875 110.934 36.7969ZM123.607 38.25H126.794V51H123.607V49.6523C122.982 50.2461 122.353 50.6758 121.72 50.9414C121.095 51.1992 120.415 51.3281 119.681 51.3281C118.033 51.3281 116.607 50.6914 115.404 49.418C114.201 48.1367 113.599 46.5469 113.599 44.6484C113.599 42.6797 114.181 41.0664 115.345 39.8086C116.509 38.5508 117.923 37.9219 119.587 37.9219C120.353 37.9219 121.072 38.0664 121.744 38.3555C122.415 38.6445 123.037 39.0781 123.607 39.6562V38.25ZM120.244 40.875C119.251 40.875 118.427 41.2266 117.771 41.9297C117.115 42.625 116.787 43.5195 116.787 44.6133C116.787 45.7148 117.119 46.6211 117.783 47.332C118.455 48.043 119.279 48.3984 120.255 48.3984C121.263 48.3984 122.099 48.0508 122.763 47.3555C123.427 46.6523 123.759 45.7344 123.759 44.6016C123.759 43.4922 123.427 42.5938 122.763 41.9062C122.099 41.2188 121.259 40.875 120.244 40.875ZM130.749 38.25H133.936V39.5508C134.663 38.9414 135.319 38.5195 135.905 38.2852C136.499 38.043 137.104 37.9219 137.721 37.9219C138.987 37.9219 140.061 38.3633 140.944 39.2461C141.686 39.9961 142.057 41.1055 142.057 42.5742V51H138.893V45.4102C138.893 43.8867 138.823 42.875 138.682 42.375C138.55 41.875 138.311 41.4961 137.967 41.2383C137.632 40.9727 137.214 40.8398 136.714 40.8398C136.065 40.8398 135.507 41.0586 135.038 41.4961C134.577 41.9258 134.257 42.5234 134.077 43.2891C133.983 43.6875 133.936 44.5508 133.936 45.8789V51H130.749V38.25ZM155.305 38.25H158.492V51H155.305V49.6523C154.68 50.2461 154.051 50.6758 153.418 50.9414C152.793 51.1992 152.113 51.3281 151.379 51.3281C149.73 51.3281 148.305 50.6914 147.102 49.418C145.898 48.1367 145.297 46.5469 145.297 44.6484C145.297 42.6797 145.879 41.0664 147.043 39.8086C148.207 38.5508 149.621 37.9219 151.285 37.9219C152.051 37.9219 152.77 38.0664 153.441 38.3555C154.113 38.6445 154.734 39.0781 155.305 39.6562V38.25ZM151.941 40.875C150.949 40.875 150.125 41.2266 149.469 41.9297C148.812 42.625 148.484 43.5195 148.484 44.6133C148.484 45.7148 148.816 46.6211 149.48 47.332C150.152 48.043 150.977 48.3984 151.953 48.3984C152.961 48.3984 153.797 48.0508 154.461 47.3555C155.125 46.6523 155.457 45.7344 155.457 44.6016C155.457 43.4922 155.125 42.5938 154.461 41.9062C153.797 41.2188 152.957 40.875 151.941 40.875ZM170.251 40.0312L168.271 42.0117C167.466 41.2148 166.736 40.8164 166.079 40.8164C165.72 40.8164 165.439 40.8945 165.236 41.0508C165.033 41.1992 164.931 41.3867 164.931 41.6133C164.931 41.7852 164.993 41.9453 165.118 42.0938C165.251 42.2344 165.572 42.4297 166.079 42.6797L167.251 43.2656C168.486 43.875 169.333 44.4961 169.794 45.1289C170.255 45.7617 170.486 46.5039 170.486 47.3555C170.486 48.4883 170.068 49.4336 169.232 50.1914C168.404 50.9492 167.29 51.3281 165.892 51.3281C164.033 51.3281 162.548 50.6016 161.439 49.1484L163.408 47.0039C163.783 47.4414 164.22 47.7969 164.72 48.0703C165.228 48.3359 165.677 48.4688 166.068 48.4688C166.49 48.4688 166.829 48.3672 167.087 48.1641C167.345 47.9609 167.474 47.7266 167.474 47.4609C167.474 46.9688 167.009 46.4883 166.079 46.0195L165.001 45.4805C162.939 44.4414 161.908 43.1406 161.908 41.5781C161.908 40.5703 162.294 39.7109 163.068 39C163.849 38.2812 164.845 37.9219 166.056 37.9219C166.884 37.9219 167.661 38.1055 168.388 38.4727C169.122 38.832 169.743 39.3516 170.251 40.0312ZM174.124 33.5508H177.311V38.25H179.21V41.0039H177.311V51H174.124V41.0039H172.483V38.25H174.124V33.5508ZM191.074 38.25H194.262V51H191.074V49.6523C190.449 50.2461 189.82 50.6758 189.187 50.9414C188.562 51.1992 187.883 51.3281 187.148 51.3281C185.5 51.3281 184.074 50.6914 182.871 49.418C181.668 48.1367 181.066 46.5469 181.066 44.6484C181.066 42.6797 181.648 41.0664 182.812 39.8086C183.976 38.5508 185.39 37.9219 187.055 37.9219C187.82 37.9219 188.539 38.0664 189.211 38.3555C189.883 38.6445 190.504 39.0781 191.074 39.6562V38.25ZM187.711 40.875C186.719 40.875 185.894 41.2266 185.238 41.9297C184.582 42.625 184.254 43.5195 184.254 44.6133C184.254 45.7148 184.586 46.6211 185.25 47.332C185.922 48.043 186.746 48.3984 187.723 48.3984C188.73 48.3984 189.566 48.0508 190.23 47.3555C190.894 46.6523 191.226 45.7344 191.226 44.6016C191.226 43.4922 190.894 42.5938 190.23 41.9062C189.566 41.2188 188.726 40.875 187.711 40.875ZM126.229 65.25H127.365C127.373 63.5781 127.4 62.5898 127.447 62.2852C127.533 61.582 127.826 61.0273 128.326 60.6211C128.834 60.207 129.549 60 130.471 60C131.135 60 131.885 60.1523 132.721 60.457V62.8945C132.26 62.7617 131.881 62.6953 131.584 62.6953C131.209 62.6953 130.936 62.7734 130.764 62.9297C130.639 63.0469 130.576 63.2891 130.576 63.6562L130.565 65.25H132.592V67.9688H130.565V78H127.365V67.9688H126.229V65.25ZM136.452 60C137.015 60 137.495 60.2031 137.894 60.6094C138.3 61.0156 138.503 61.5078 138.503 62.0859C138.503 62.6562 138.304 63.1445 137.906 63.5508C137.507 63.9492 137.031 64.1484 136.476 64.1484C135.906 64.1484 135.417 63.9453 135.011 63.5391C134.613 63.125 134.413 62.625 134.413 62.0391C134.413 61.4766 134.613 60.9961 135.011 60.5977C135.41 60.1992 135.89 60 136.452 60ZM134.847 65.25H138.058V78H134.847V65.25ZM143.184 60C143.755 60 144.239 60.2031 144.637 60.6094C145.044 61.0156 145.247 61.5078 145.247 62.0859C145.247 62.6562 145.048 63.1445 144.649 63.5508C144.251 63.957 143.774 64.1602 143.219 64.1602C142.649 64.1602 142.161 63.9531 141.755 63.5391C141.356 63.125 141.157 62.625 141.157 62.0391C141.157 61.4766 141.352 60.9961 141.743 60.5977C142.141 60.1992 142.622 60 143.184 60ZM141.59 65.25H144.79V78.4219C144.79 79.6328 144.669 80.5352 144.426 81.1289C144.192 81.7305 143.817 82.1914 143.301 82.5117C142.786 82.832 142.165 82.9922 141.438 82.9922C140.798 82.9922 140.001 82.832 139.048 82.5117V79.9922C139.548 80.2344 139.989 80.3555 140.372 80.3555C140.778 80.3555 141.083 80.2344 141.286 79.9922C141.489 79.75 141.59 79.3047 141.59 78.6562V65.25ZM158.06 65.25H161.248V78H158.06V76.6523C157.435 77.2461 156.807 77.6758 156.174 77.9414C155.549 78.1992 154.869 78.3281 154.135 78.3281C152.486 78.3281 151.06 77.6914 149.857 76.418C148.654 75.1367 148.053 73.5469 148.053 71.6484C148.053 69.6797 148.635 68.0664 149.799 66.8086C150.963 65.5508 152.377 64.9219 154.041 64.9219C154.807 64.9219 155.525 65.0664 156.197 65.3555C156.869 65.6445 157.49 66.0781 158.06 66.6562V65.25ZM154.697 67.875C153.705 67.875 152.881 68.2266 152.225 68.9297C151.568 69.625 151.24 70.5195 151.24 71.6133C151.24 72.7148 151.572 73.6211 152.236 74.332C152.908 75.043 153.732 75.3984 154.709 75.3984C155.717 75.3984 156.553 75.0508 157.217 74.3555C157.881 73.6523 158.213 72.7344 158.213 71.6016C158.213 70.4922 157.881 69.5938 157.217 68.9062C156.553 68.2188 155.713 67.875 154.697 67.875Z" fill="#444242"/>
<path d="M106.286 110H120L129.189 155.909C129.502 157.487 130.361 158.905 131.614 159.914C132.868 160.923 134.437 161.459 136.046 161.429H169.371C170.98 161.459 172.549 160.923 173.803 159.914C175.056 158.905 175.915 157.487 176.229 155.909L181.714 127.143H123.429M137.143 178.571C137.143 180.465 135.608 182 133.714 182C131.821 182 130.286 180.465 130.286 178.571C130.286 176.678 131.821 175.143 133.714 175.143C135.608 175.143 137.143 176.678 137.143 178.571ZM174.857 178.571C174.857 180.465 173.322 182 171.429 182C169.535 182 168 180.465 168 178.571C168 176.678 169.535 175.143 171.429 175.143C173.322 175.143 174.857 176.678 174.857 178.571Z" stroke="#3497DB" stroke-width="3" stroke-linecap="round" stroke-linejoin="round"/>
<path d="M96 98V96H94V98H96ZM192 98H194V96H192V98ZM192 194V196H194V194H192ZM96 194H94V196H96V194ZM96 100H192V96H96V100ZM190 98V194H194V98H190ZM192 192H96V196H192V192ZM98 194V98H94V194H98Z" fill="white"/>
<defs>
<filter id="filter0_d" x="0" y="0" width="308" height="230" filterUnits="userSpaceOnUse" color-interpolation-filters="sRGB">
<feFlood flood-opacity="0" result="BackgroundImageFix"/>
<feColorMatrix in="SourceAlpha" type="matrix" values="0 0 0 0 0 0 0 0 0 0 0 0 0 0 0 0 0 0 127 0"/>
<feOffset dx="10" dy="10"/>
<feGaussianBlur stdDeviation="7.5"/>
<feColorMatrix type="matrix" values="0 0 0 0 0 0 0 0 0 0 0 0 0 0 0 0 0 0 0.2 0"/>
<feBlend mode="multiply" in2="BackgroundImageFix" result="effect1_dropShadow"/>
<feBlend mode="normal" in="SourceGraphic" in2="effect1_dropShadow" result="shape"/>
</filter>
<linearGradient id="paint0_linear" x1="144" y1="5" x2="144" y2="205" gradientUnits="userSpaceOnUse">
<stop stop-color="white"/>
<stop offset="1" stop-color="white" stop-opacity="0"/>
</linearGradient>
</defs>
</svg>
