<svg width="308" height="230" viewBox="0 0 308 230" fill="none" xmlns="http://www.w3.org/2000/svg">
<g filter="url(#filter0_d)">
<rect x="5" y="5" width="278" height="200" rx="15" fill="#F5F8FA"/>
<rect x="5" y="5" width="278" height="200" rx="15" fill="url(#paint0_linear)"/>
</g>
<path d="M100.945 40.7969L98.648 42.9883C97.0855 41.3398 95.3277 40.5156 93.3745 40.5156C91.7261 40.5156 90.3355 41.0781 89.2027 42.2031C88.0777 43.3281 87.5152 44.7148 87.5152 46.3633C87.5152 47.5117 87.7652 48.5312 88.2652 49.4219C88.7652 50.3125 89.4722 51.0117 90.3862 51.5195C91.3003 52.0273 92.3159 52.2812 93.4331 52.2812C94.3862 52.2812 95.2573 52.1055 96.0464 51.7539C96.8355 51.3945 97.7027 50.7461 98.648 49.8086L100.875 52.1289C99.6011 53.3711 98.398 54.2344 97.2652 54.7188C96.1323 55.1953 94.8394 55.4336 93.3862 55.4336C90.7066 55.4336 88.5112 54.5859 86.8003 52.8906C85.0972 51.1875 84.2456 49.0078 84.2456 46.3516C84.2456 44.6328 84.6323 43.1055 85.4058 41.7695C86.187 40.4336 87.3003 39.3594 88.7456 38.5469C90.1987 37.7344 91.7612 37.3281 93.4331 37.3281C94.855 37.3281 96.2222 37.6289 97.5347 38.2305C98.855 38.832 99.9917 39.6875 100.945 40.7969ZM110.184 41.9219C111.387 41.9219 112.516 42.2227 113.571 42.8242C114.634 43.4258 115.462 44.2422 116.055 45.2734C116.649 46.3047 116.946 47.418 116.946 48.6133C116.946 49.8164 116.645 50.9414 116.044 51.9883C115.45 53.0352 114.637 53.8555 113.606 54.4492C112.575 55.0352 111.438 55.3281 110.196 55.3281C108.368 55.3281 106.805 54.6797 105.509 53.3828C104.22 52.0781 103.575 50.4961 103.575 48.6367C103.575 46.6445 104.305 44.9844 105.766 43.6562C107.048 42.5 108.52 41.9219 110.184 41.9219ZM110.231 44.9336C109.239 44.9336 108.411 45.2812 107.747 45.9766C107.091 46.6641 106.762 47.5469 106.762 48.625C106.762 49.7344 107.087 50.6328 107.735 51.3203C108.391 52.0078 109.22 52.3516 110.22 52.3516C111.22 52.3516 112.052 52.0039 112.716 51.3086C113.38 50.6133 113.712 49.7188 113.712 48.625C113.712 47.5312 113.384 46.6445 112.727 45.9648C112.079 45.2773 111.247 44.9336 110.231 44.9336ZM120.268 42.25H123.479V43.7148C124.025 43.1133 124.631 42.6641 125.295 42.3672C125.967 42.0703 126.697 41.9219 127.486 41.9219C128.283 41.9219 129.002 42.1172 129.643 42.5078C130.283 42.8984 130.799 43.4688 131.19 44.2188C131.697 43.4688 132.318 42.8984 133.053 42.5078C133.795 42.1172 134.604 41.9219 135.479 41.9219C136.385 41.9219 137.182 42.1328 137.869 42.5547C138.557 42.9766 139.049 43.5273 139.346 44.207C139.65 44.8867 139.803 45.9922 139.803 47.5234V55H136.58V48.5312C136.58 47.0859 136.4 46.1094 136.041 45.6016C135.682 45.0859 135.143 44.8281 134.424 44.8281C133.877 44.8281 133.385 44.9844 132.947 45.2969C132.518 45.6094 132.197 46.043 131.986 46.5977C131.775 47.1445 131.67 48.0273 131.67 49.2461V55H128.447V48.8242C128.447 47.6836 128.361 46.8594 128.19 46.3516C128.025 45.8359 127.775 45.4531 127.44 45.2031C127.104 44.9531 126.697 44.8281 126.221 44.8281C125.69 44.8281 125.205 44.9883 124.768 45.3086C124.338 45.6211 124.014 46.0625 123.795 46.6328C123.584 47.2031 123.479 48.1016 123.479 49.3281V55H120.268V42.25ZM146.757 42.25V43.6562C147.335 43.0781 147.96 42.6445 148.632 42.3555C149.304 42.0664 150.023 41.9219 150.788 41.9219C152.452 41.9219 153.867 42.5508 155.031 43.8086C156.195 45.0664 156.777 46.6797 156.777 48.6484C156.777 50.5469 156.175 52.1367 154.972 53.418C153.769 54.6914 152.343 55.3281 150.695 55.3281C149.96 55.3281 149.277 55.1992 148.644 54.9414C148.011 54.6758 147.382 54.2461 146.757 53.6523V59.6641H143.581V42.25H146.757ZM150.12 44.875C149.113 44.875 148.277 45.2188 147.613 45.9062C146.949 46.5938 146.617 47.4922 146.617 48.6016C146.617 49.7344 146.949 50.6523 147.613 51.3555C148.277 52.0508 149.113 52.3984 150.12 52.3984C151.097 52.3984 151.917 52.043 152.581 51.332C153.253 50.6211 153.589 49.7148 153.589 48.6133C153.589 47.5195 153.261 46.625 152.605 45.9297C151.949 45.2266 151.12 44.875 150.12 44.875ZM159.805 37.3281H163.005V55H159.805V37.3281ZM179.404 49.5508H169.127C169.275 50.457 169.67 51.1797 170.31 51.7188C170.959 52.25 171.783 52.5156 172.783 52.5156C173.978 52.5156 175.006 52.0977 175.865 51.2617L178.56 52.5273C177.889 53.4805 177.084 54.1875 176.146 54.6484C175.209 55.1016 174.096 55.3281 172.807 55.3281C170.807 55.3281 169.178 54.6992 167.92 53.4414C166.662 52.1758 166.033 50.5938 166.033 48.6953C166.033 46.75 166.658 45.1367 167.908 43.8555C169.166 42.5664 170.74 41.9219 172.631 41.9219C174.639 41.9219 176.271 42.5664 177.529 43.8555C178.787 45.1367 179.416 46.832 179.416 48.9414L179.404 49.5508ZM176.193 47.0312C175.982 46.3203 175.564 45.7422 174.939 45.2969C174.322 44.8516 173.603 44.6289 172.783 44.6289C171.893 44.6289 171.111 44.8789 170.439 45.3789C170.018 45.6914 169.627 46.2422 169.268 47.0312H176.193ZM183.113 37.5508H186.3V42.25H188.198V45.0039H186.3V55H183.113V45.0039H181.472V42.25H183.113V37.5508ZM200.063 42.25H203.25V55H200.063V53.6523C199.438 54.2461 198.809 54.6758 198.176 54.9414C197.551 55.1992 196.872 55.3281 196.137 55.3281C194.489 55.3281 193.063 54.6914 191.86 53.418C190.657 52.1367 190.055 50.5469 190.055 48.6484C190.055 46.6797 190.637 45.0664 191.801 43.8086C192.965 42.5508 194.379 41.9219 196.043 41.9219C196.809 41.9219 197.528 42.0664 198.2 42.3555C198.872 42.6445 199.493 43.0781 200.063 43.6562V42.25ZM196.7 44.875C195.708 44.875 194.883 45.2266 194.227 45.9297C193.571 46.625 193.243 47.5195 193.243 48.6133C193.243 49.7148 193.575 50.6211 194.239 51.332C194.911 52.043 195.735 52.3984 196.711 52.3984C197.719 52.3984 198.555 52.0508 199.219 51.3555C199.883 50.6523 200.215 49.7344 200.215 48.6016C200.215 47.4922 199.883 46.5938 199.219 45.9062C198.555 45.2188 197.715 44.875 196.7 44.875ZM83.5146 65.9805L81.4091 67.9893C79.9768 66.4782 78.3655 65.7227 76.5752 65.7227C75.0641 65.7227 73.7893 66.2383 72.7509 67.2695C71.7197 68.3008 71.2041 69.5719 71.2041 71.083C71.2041 72.1357 71.4332 73.0703 71.8916 73.8867C72.3499 74.7031 72.998 75.3441 73.8359 75.8096C74.6738 76.2751 75.6048 76.5078 76.6289 76.5078C77.5026 76.5078 78.3011 76.3467 79.0244 76.0244C79.7477 75.695 80.5426 75.1006 81.4091 74.2412L83.4502 76.3682C82.2828 77.5068 81.18 78.2982 80.1416 78.7422C79.1032 79.179 77.9179 79.3975 76.5859 79.3975C74.1295 79.3975 72.1171 78.6204 70.5488 77.0664C68.9876 75.5052 68.207 73.5072 68.207 71.0723C68.207 69.4967 68.5615 68.0967 69.2705 66.8721C69.9866 65.6475 71.0071 64.6628 72.332 63.918C73.664 63.1732 75.0963 62.8008 76.6289 62.8008C77.9323 62.8008 79.1855 63.0765 80.3886 63.6279C81.5989 64.1794 82.6409 64.9635 83.5146 65.9805ZM95.1316 67.3125H98.0535V79H95.1316V77.7646C94.5587 78.3089 93.9822 78.7028 93.4021 78.9463C92.8292 79.1826 92.2062 79.3008 91.533 79.3008C90.0219 79.3008 88.715 78.7171 87.6121 77.5498C86.5092 76.3753 85.9578 74.918 85.9578 73.1777C85.9578 71.373 86.4913 69.8942 87.5584 68.7412C88.6255 67.5882 89.9217 67.0117 91.4471 67.0117C92.1489 67.0117 92.8077 67.1442 93.4236 67.4092C94.0395 67.6742 94.6089 68.0716 95.1316 68.6016V67.3125ZM92.0486 69.7188C91.1391 69.7188 90.3836 70.041 89.782 70.6855C89.1805 71.3229 88.8797 72.1429 88.8797 73.1455C88.8797 74.1553 89.1841 74.986 89.7928 75.6377C90.4087 76.2894 91.1642 76.6152 92.0594 76.6152C92.9832 76.6152 93.7495 76.2965 94.3582 75.6592C94.9669 75.0146 95.2713 74.1732 95.2713 73.1348C95.2713 72.1178 94.9669 71.2943 94.3582 70.6641C93.7495 70.0339 92.9796 69.7188 92.0486 69.7188ZM101.678 67.3125H104.6V68.5049C105.266 67.9463 105.868 67.5596 106.405 67.3447C106.949 67.1227 107.504 67.0117 108.07 67.0117C109.23 67.0117 110.215 67.4163 111.024 68.2256C111.704 68.9131 112.045 69.93 112.045 71.2764V79H109.144V73.876C109.144 72.4795 109.08 71.5521 108.951 71.0938C108.829 70.6354 108.611 70.2881 108.296 70.0518C107.988 69.8083 107.604 69.6865 107.146 69.6865C106.552 69.6865 106.04 69.887 105.61 70.2881C105.187 70.682 104.894 71.2298 104.729 71.9316C104.643 72.2969 104.6 73.0882 104.6 74.3057V79H101.678V67.3125ZM115.562 62.8008H118.473V68.4941C119.046 68 119.623 67.6312 120.203 67.3877C120.783 67.137 121.37 67.0117 121.964 67.0117C123.124 67.0117 124.102 67.4128 124.897 68.2148C125.577 68.9095 125.917 69.93 125.917 71.2764V79H123.028V73.876C123.028 72.5225 122.963 71.6058 122.834 71.126C122.706 70.6462 122.484 70.2881 122.168 70.0518C121.86 69.8154 121.477 69.6973 121.019 69.6973C120.425 69.6973 119.913 69.8942 119.483 70.2881C119.06 70.682 118.767 71.2191 118.602 71.8994C118.516 72.2503 118.473 73.0524 118.473 74.3057V79H115.562V62.8008ZM138.061 67.3125H140.983V79H138.061V77.7646C137.488 78.3089 136.911 78.7028 136.331 78.9463C135.758 79.1826 135.135 79.3008 134.462 79.3008C132.951 79.3008 131.644 78.7171 130.541 77.5498C129.438 76.3753 128.887 74.918 128.887 73.1777C128.887 71.373 129.421 69.8942 130.488 68.7412C131.555 67.5882 132.851 67.0117 134.376 67.0117C135.078 67.0117 135.737 67.1442 136.353 67.4092C136.969 67.6742 137.538 68.0716 138.061 68.6016V67.3125ZM134.978 69.7188C134.068 69.7188 133.313 70.041 132.711 70.6855C132.11 71.3229 131.809 72.1429 131.809 73.1455C131.809 74.1553 132.113 74.986 132.722 75.6377C133.338 76.2894 134.093 76.6152 134.989 76.6152C135.912 76.6152 136.679 76.2965 137.287 75.6592C137.896 75.0146 138.201 74.1732 138.201 73.1348C138.201 72.1178 137.896 71.2943 137.287 70.6641C136.679 70.0339 135.909 69.7188 134.978 69.7188ZM151.762 68.9453L149.946 70.7607C149.209 70.0303 148.539 69.665 147.938 69.665C147.608 69.665 147.35 69.7367 147.164 69.8799C146.978 70.016 146.885 70.1878 146.885 70.3955C146.885 70.5531 146.942 70.6999 147.057 70.8359C147.179 70.9648 147.472 71.1439 147.938 71.373L149.012 71.9102C150.143 72.4688 150.92 73.0381 151.343 73.6182C151.765 74.1982 151.977 74.8786 151.977 75.6592C151.977 76.6976 151.594 77.5641 150.827 78.2588C150.068 78.9535 149.048 79.3008 147.766 79.3008C146.061 79.3008 144.701 78.6348 143.684 77.3027L145.488 75.3369C145.832 75.738 146.233 76.0638 146.692 76.3145C147.157 76.5579 147.569 76.6797 147.927 76.6797C148.314 76.6797 148.625 76.5866 148.861 76.4004C149.098 76.2142 149.216 75.9993 149.216 75.7559C149.216 75.3047 148.79 74.8643 147.938 74.4346L146.949 73.9404C145.059 72.988 144.113 71.7956 144.113 70.3633C144.113 69.4395 144.468 68.6517 145.177 68C145.893 67.3411 146.806 67.0117 147.916 67.0117C148.675 67.0117 149.388 67.18 150.054 67.5166C150.727 67.846 151.296 68.3223 151.762 68.9453ZM155.312 63.0049H158.233V67.3125H159.974V69.8369H158.233V79H155.312V69.8369H153.808V67.3125H155.312V63.0049ZM170.849 67.3125H173.771V79H170.849V77.7646C170.277 78.3089 169.7 78.7028 169.12 78.9463C168.547 79.1826 167.924 79.3008 167.251 79.3008C165.74 79.3008 164.433 78.7171 163.33 77.5498C162.227 76.3753 161.676 74.918 161.676 73.1777C161.676 71.373 162.209 69.8942 163.276 68.7412C164.343 67.5882 165.639 67.0117 167.165 67.0117C167.867 67.0117 168.526 67.1442 169.141 67.4092C169.757 67.6742 170.327 68.0716 170.849 68.6016V67.3125ZM167.766 69.7188C166.857 69.7188 166.101 70.041 165.5 70.6855C164.898 71.3229 164.598 72.1429 164.598 73.1455C164.598 74.1553 164.902 74.986 165.511 75.6377C166.126 76.2894 166.882 76.6152 167.777 76.6152C168.701 76.6152 169.467 76.2965 170.076 75.6592C170.685 75.0146 170.989 74.1732 170.989 73.1348C170.989 72.1178 170.685 71.2943 170.076 70.6641C169.467 70.0339 168.697 69.7188 167.766 69.7188ZM184.587 63.1982H192.429V66.1309H187.563V68.999H192.429V71.8887H187.563V79H184.587V63.1982ZM196.602 62.5C197.118 62.5 197.558 62.6862 197.923 63.0586C198.296 63.431 198.482 63.8822 198.482 64.4121C198.482 64.9349 198.299 65.3825 197.934 65.7549C197.569 66.1201 197.132 66.3027 196.623 66.3027C196.101 66.3027 195.653 66.1165 195.281 65.7441C194.915 65.3646 194.733 64.9062 194.733 64.3691C194.733 63.8535 194.915 63.4131 195.281 63.0479C195.646 62.6826 196.086 62.5 196.602 62.5ZM195.13 67.3125H198.074V79H195.13V67.3125ZM202.773 62.5C203.295 62.5 203.739 62.6862 204.105 63.0586C204.477 63.431 204.663 63.8822 204.663 64.4121C204.663 64.9349 204.481 65.3825 204.115 65.7549C203.75 66.1273 203.313 66.3135 202.805 66.3135C202.282 66.3135 201.834 66.1237 201.462 65.7441C201.097 65.3646 200.914 64.9062 200.914 64.3691C200.914 63.8535 201.093 63.4131 201.451 63.0479C201.817 62.6826 202.257 62.5 202.773 62.5ZM201.312 67.3125H204.244V79.3867C204.244 80.4967 204.133 81.3239 203.911 81.8682C203.696 82.4196 203.353 82.8421 202.88 83.1357C202.407 83.4294 201.838 83.5762 201.172 83.5762C200.585 83.5762 199.854 83.4294 198.981 83.1357V80.8262C199.439 81.0482 199.844 81.1592 200.195 81.1592C200.567 81.1592 200.846 81.0482 201.032 80.8262C201.219 80.6042 201.312 80.196 201.312 79.6016V67.3125ZM216.409 67.3125H219.331V79H216.409V77.7646C215.836 78.3089 215.26 78.7028 214.68 78.9463C214.107 79.1826 213.484 79.3008 212.811 79.3008C211.3 79.3008 209.993 78.7171 208.89 77.5498C207.787 76.3753 207.235 74.918 207.235 73.1777C207.235 71.373 207.769 69.8942 208.836 68.7412C209.903 67.5882 211.199 67.0117 212.725 67.0117C213.426 67.0117 214.085 67.1442 214.701 67.4092C215.317 67.6742 215.886 68.0716 216.409 68.6016V67.3125ZM213.326 69.7188C212.417 69.7188 211.661 70.041 211.06 70.6855C210.458 71.3229 210.157 72.1429 210.157 73.1455C210.157 74.1553 210.462 74.986 211.07 75.6377C211.686 76.2894 212.442 76.6152 213.337 76.6152C214.261 76.6152 215.027 76.2965 215.636 75.6592C216.244 75.0146 216.549 74.1732 216.549 73.1348C216.549 72.1178 216.244 71.2943 215.636 70.6641C215.027 70.0339 214.257 69.7188 213.326 69.7188Z" fill="#444242"/>
<path d="M169.065 111.83L171.704 110.913L174.413 119.801L171.775 120.717L169.065 111.83Z" fill="#3497DB"/>
<path d="M164.609 122.442L167.687 121.608L170.848 129.687L167.77 130.521L164.609 122.442Z" fill="#3497DB"/>
<path d="M117.174 126.46C116.875 128.616 117.507 130.797 118.915 132.463L120.961 135.019V158.598H123.796V137.244L125.844 138.603C126.321 138.92 126.942 138.92 127.418 138.603L130.884 136.3L134.35 138.601C134.827 138.917 135.447 138.917 135.924 138.601L139.389 136.3L142.855 138.601C143.332 138.917 143.952 138.917 144.429 138.601L147.894 136.3L151.36 138.601C151.837 138.917 152.457 138.917 152.934 138.601L156.399 136.3L159.234 138.182V181.177H128.049V184H167.74C171.652 183.995 174.822 180.839 174.827 176.944V134.607C174.824 134.297 174.717 133.996 174.523 133.753L182.714 112.041C183.817 109.124 183.413 105.855 181.635 103.291C179.944 100.804 177.122 99.3168 174.106 99.3257C170.262 99.3616 166.838 101.753 165.496 105.339L163.273 111.23L160.652 108.62V103.559C160.652 102.78 160.017 102.148 159.234 102.148H143.642C142.859 102.148 142.224 102.78 142.224 103.559V105.981C140.622 104.535 138.205 104.453 136.507 105.788V103.559C136.507 101.25 134.626 99.3767 132.306 99.3767C129.986 99.3767 128.104 101.25 128.104 103.559V105.789C127.328 105.149 126.352 104.799 125.344 104.801C124.174 104.798 123.053 105.268 122.237 106.104C120.556 107.829 120.545 110.569 122.213 112.307L123.533 113.663C123.052 113.882 122.616 114.186 122.246 114.561L122.237 114.567L122.223 114.581C121.893 114.919 121.62 115.308 121.415 115.733L119.799 112.762L117.305 114.106L120.971 120.842C120.807 120.935 120.642 121.025 120.487 121.131C120.428 121.17 120.377 121.216 120.32 121.255L114.835 116.223L112.913 118.298L118.362 123.299C117.736 124.252 117.33 125.332 117.174 126.46ZM147.107 133.432L143.642 135.735L140.176 133.435C139.699 133.119 139.079 133.119 138.602 133.435L135.169 135.715C135.161 135.573 135.137 135.451 135.137 135.315C135.128 132.213 137.376 129.561 140.449 129.05C143.522 128.538 146.515 130.317 147.52 133.253C147.374 133.291 147.235 133.351 147.107 133.432ZM150.729 134.793L150.702 134.775C150.532 131.808 148.927 129.108 146.396 127.533C143.867 125.957 140.726 125.7 137.972 126.845V117.672H150.729V134.793ZM171.992 176.944C171.992 179.282 170.088 181.177 167.74 181.177H162.07V138.184L164.905 136.3L168.37 138.601C168.847 138.917 169.467 138.917 169.944 138.601L171.992 137.244V176.944ZM168.149 106.331C169.073 103.843 171.442 102.181 174.106 102.148C176.189 102.144 178.138 103.173 179.304 104.891C180.555 106.696 180.838 108.997 180.061 111.049L171.283 134.324L169.157 135.735L165.692 133.435C165.215 133.119 164.595 133.119 164.118 133.435L160.652 135.735L157.776 133.827L168.149 106.331ZM162.179 114.131L154.656 134.068L153.564 134.793V116.845L159.234 111.2L162.179 114.131ZM145.059 104.971H157.817V107.793H145.059V104.971ZM144.229 110.616H155.813L151.56 114.849H139.976L144.229 110.616ZM124.26 108.084C124.545 107.792 124.936 107.626 125.344 107.626C125.753 107.627 126.144 107.792 126.429 108.084L128.51 110.201C128.914 110.611 129.528 110.736 130.062 110.518C130.595 110.299 130.943 109.779 130.939 109.204V103.559C130.917 103.058 131.172 102.586 131.604 102.329C132.036 102.071 132.576 102.071 133.008 102.329C133.44 102.586 133.696 103.058 133.672 103.559V109.204C133.673 109.777 134.021 110.292 134.554 110.509C135.086 110.726 135.697 110.6 136.101 110.193L138.188 108.076C138.786 107.489 139.746 107.489 140.343 108.076C140.959 108.703 140.959 109.705 140.343 110.333L136.167 114.567L136.209 114.61L135.552 115.264C135.438 115.381 135.346 115.518 135.278 115.667C135.258 115.71 135.247 115.754 135.231 115.799C135.189 115.919 135.164 116.045 135.155 116.172C135.155 116.203 135.138 116.228 135.138 116.259V128.707C134.815 129.015 134.516 129.345 134.242 129.696L131.564 124.022C130.576 122.065 128.79 120.624 126.66 120.071C126.164 119.944 125.656 119.867 125.145 119.842L124.781 119.419C124.498 119.095 124.284 118.843 124.25 118.808C123.884 118.426 123.725 117.892 123.825 117.373C123.877 117.078 124.014 116.805 124.217 116.585L124.243 116.561L124.278 116.523C124.792 116.022 125.587 115.948 126.185 116.345C126.786 116.746 127.594 116.631 128.059 116.079C128.524 115.527 128.497 114.716 127.996 114.196L124.25 110.346C123.641 109.712 123.646 108.712 124.26 108.084ZM119.983 126.845C120.168 125.477 120.929 124.252 122.076 123.476C123.213 122.71 124.626 122.468 125.955 122.81C127.284 123.153 128.401 124.049 129.021 125.268L132.634 132.93C132.545 133.26 132.475 133.595 132.423 133.933L131.677 133.437C131.2 133.12 130.579 133.12 130.103 133.437L126.631 135.735L123.488 133.647L123.184 133.268L126.838 130.455L125.103 128.222L121.418 131.06L121.103 130.669C120.201 129.611 119.794 128.22 119.983 126.845Z" fill="#3497DB"/>
<path d="M107.066 180.443C108.157 182.629 110.405 184.008 112.861 184C113.868 183.998 114.859 183.766 115.759 183.321L116.924 182.742L118.09 183.321C118.99 183.766 119.981 183.998 120.987 184C123.443 184.008 125.691 182.629 126.782 180.443L127.283 179.445C128.964 176.094 129.842 172.403 129.848 168.66C129.843 164.532 126.475 161.187 122.319 161.182C120.918 161.187 119.546 161.581 118.36 162.323V161.182C118.36 158.032 115.788 155.478 112.616 155.478V158.33C114.202 158.33 115.488 159.607 115.488 161.182V162.323C114.302 161.581 112.93 161.187 111.529 161.182C107.373 161.187 104.005 164.532 104 168.66C104.005 172.404 104.883 176.096 106.565 179.448L107.066 180.443ZM111.529 164.035C112.765 164.031 113.95 164.519 114.822 165.39L115.909 166.469C116.47 167.025 117.378 167.025 117.939 166.469L119.026 165.39C120.358 164.067 122.361 163.671 124.101 164.387C125.841 165.103 126.976 166.789 126.976 168.66C126.972 171.962 126.198 175.218 124.714 178.173L124.213 179.171C123.604 180.387 122.353 181.153 120.987 181.148C120.427 181.147 119.875 181.017 119.374 180.77L117.566 179.871C117.162 179.671 116.686 179.671 116.282 179.871L114.475 180.77C113.974 181.017 113.422 181.147 112.861 181.148C111.494 181.152 110.243 180.384 109.635 179.167L109.134 178.169C107.65 175.215 106.876 171.96 106.872 168.66C106.875 166.107 108.959 164.038 111.529 164.035V164.035Z" fill="#3497DB"/>
<defs>
<filter id="filter0_d" x="0" y="0" width="308" height="230" filterUnits="userSpaceOnUse" color-interpolation-filters="sRGB">
<feFlood flood-opacity="0" result="BackgroundImageFix"/>
<feColorMatrix in="SourceAlpha" type="matrix" values="0 0 0 0 0 0 0 0 0 0 0 0 0 0 0 0 0 0 127 0"/>
<feOffset dx="10" dy="10"/>
<feGaussianBlur stdDeviation="7.5"/>
<feColorMatrix type="matrix" values="0 0 0 0 0 0 0 0 0 0 0 0 0 0 0 0 0 0 0.2 0"/>
<feBlend mode="multiply" in2="BackgroundImageFix" result="effect1_dropShadow"/>
<feBlend mode="normal" in="SourceGraphic" in2="effect1_dropShadow" result="shape"/>
</filter>
<linearGradient id="paint0_linear" x1="144" y1="5" x2="144" y2="205" gradientUnits="userSpaceOnUse">
<stop stop-color="white"/>
<stop offset="1" stop-color="white" stop-opacity="0"/>
</linearGradient>
</defs>
</svg>
