<svg width="308" height="230" viewBox="0 0 308 230" fill="none" xmlns="http://www.w3.org/2000/svg">
<g filter="url(#filter0_d)">
<rect x="5" y="5" width="278" height="200" rx="15" fill="#F5F8FA"/>
<rect x="5" y="5" width="278" height="200" rx="15" fill="url(#paint0_linear)"/>
</g>
<path d="M101.445 40.7969L99.148 42.9883C97.5855 41.3398 95.8277 40.5156 93.8745 40.5156C92.2261 40.5156 90.8355 41.0781 89.7027 42.2031C88.5777 43.3281 88.0152 44.7148 88.0152 46.3633C88.0152 47.5117 88.2652 48.5312 88.7652 49.4219C89.2652 50.3125 89.9722 51.0117 90.8862 51.5195C91.8003 52.0273 92.8159 52.2812 93.9331 52.2812C94.8862 52.2812 95.7573 52.1055 96.5464 51.7539C97.3355 51.3945 98.2027 50.7461 99.148 49.8086L101.375 52.1289C100.101 53.3711 98.898 54.2344 97.7652 54.7188C96.6323 55.1953 95.3394 55.4336 93.8862 55.4336C91.2066 55.4336 89.0112 54.5859 87.3003 52.8906C85.5972 51.1875 84.7456 49.0078 84.7456 46.3516C84.7456 44.6328 85.1323 43.1055 85.9058 41.7695C86.687 40.4336 87.8003 39.3594 89.2456 38.5469C90.6987 37.7344 92.2612 37.3281 93.9331 37.3281C95.355 37.3281 96.7222 37.6289 98.0347 38.2305C99.355 38.832 100.492 39.6875 101.445 40.7969ZM110.684 41.9219C111.887 41.9219 113.016 42.2227 114.071 42.8242C115.134 43.4258 115.962 44.2422 116.555 45.2734C117.149 46.3047 117.446 47.418 117.446 48.6133C117.446 49.8164 117.145 50.9414 116.544 51.9883C115.95 53.0352 115.137 53.8555 114.106 54.4492C113.075 55.0352 111.938 55.3281 110.696 55.3281C108.868 55.3281 107.305 54.6797 106.009 53.3828C104.72 52.0781 104.075 50.4961 104.075 48.6367C104.075 46.6445 104.805 44.9844 106.266 43.6562C107.548 42.5 109.02 41.9219 110.684 41.9219ZM110.731 44.9336C109.739 44.9336 108.911 45.2812 108.247 45.9766C107.591 46.6641 107.262 47.5469 107.262 48.625C107.262 49.7344 107.587 50.6328 108.235 51.3203C108.891 52.0078 109.72 52.3516 110.72 52.3516C111.72 52.3516 112.552 52.0039 113.216 51.3086C113.88 50.6133 114.212 49.7188 114.212 48.625C114.212 47.5312 113.884 46.6445 113.227 45.9648C112.579 45.2773 111.747 44.9336 110.731 44.9336ZM120.768 42.25H123.979V43.7148C124.525 43.1133 125.131 42.6641 125.795 42.3672C126.467 42.0703 127.197 41.9219 127.986 41.9219C128.783 41.9219 129.502 42.1172 130.143 42.5078C130.783 42.8984 131.299 43.4688 131.69 44.2188C132.197 43.4688 132.818 42.8984 133.553 42.5078C134.295 42.1172 135.104 41.9219 135.979 41.9219C136.885 41.9219 137.682 42.1328 138.369 42.5547C139.057 42.9766 139.549 43.5273 139.846 44.207C140.15 44.8867 140.303 45.9922 140.303 47.5234V55H137.08V48.5312C137.08 47.0859 136.9 46.1094 136.541 45.6016C136.182 45.0859 135.643 44.8281 134.924 44.8281C134.377 44.8281 133.885 44.9844 133.447 45.2969C133.018 45.6094 132.697 46.043 132.486 46.5977C132.275 47.1445 132.17 48.0273 132.17 49.2461V55H128.947V48.8242C128.947 47.6836 128.861 46.8594 128.69 46.3516C128.525 45.8359 128.275 45.4531 127.94 45.2031C127.604 44.9531 127.197 44.8281 126.721 44.8281C126.19 44.8281 125.705 44.9883 125.268 45.3086C124.838 45.6211 124.514 46.0625 124.295 46.6328C124.084 47.2031 123.979 48.1016 123.979 49.3281V55H120.768V42.25ZM147.257 42.25V43.6562C147.835 43.0781 148.46 42.6445 149.132 42.3555C149.804 42.0664 150.523 41.9219 151.288 41.9219C152.952 41.9219 154.367 42.5508 155.531 43.8086C156.695 45.0664 157.277 46.6797 157.277 48.6484C157.277 50.5469 156.675 52.1367 155.472 53.418C154.269 54.6914 152.843 55.3281 151.195 55.3281C150.46 55.3281 149.777 55.1992 149.144 54.9414C148.511 54.6758 147.882 54.2461 147.257 53.6523V59.6641H144.081V42.25H147.257ZM150.62 44.875C149.613 44.875 148.777 45.2188 148.113 45.9062C147.449 46.5938 147.117 47.4922 147.117 48.6016C147.117 49.7344 147.449 50.6523 148.113 51.3555C148.777 52.0508 149.613 52.3984 150.62 52.3984C151.597 52.3984 152.417 52.043 153.081 51.332C153.753 50.6211 154.089 49.7148 154.089 48.6133C154.089 47.5195 153.761 46.625 153.105 45.9297C152.449 45.2266 151.62 44.875 150.62 44.875ZM160.305 37.3281H163.505V55H160.305V37.3281ZM179.904 49.5508H169.627C169.775 50.457 170.17 51.1797 170.81 51.7188C171.459 52.25 172.283 52.5156 173.283 52.5156C174.478 52.5156 175.506 52.0977 176.365 51.2617L179.06 52.5273C178.389 53.4805 177.584 54.1875 176.646 54.6484C175.709 55.1016 174.596 55.3281 173.307 55.3281C171.307 55.3281 169.678 54.6992 168.42 53.4414C167.162 52.1758 166.533 50.5938 166.533 48.6953C166.533 46.75 167.158 45.1367 168.408 43.8555C169.666 42.5664 171.24 41.9219 173.131 41.9219C175.139 41.9219 176.771 42.5664 178.029 43.8555C179.287 45.1367 179.916 46.832 179.916 48.9414L179.904 49.5508ZM176.693 47.0312C176.482 46.3203 176.064 45.7422 175.439 45.2969C174.822 44.8516 174.103 44.6289 173.283 44.6289C172.393 44.6289 171.611 44.8789 170.939 45.3789C170.518 45.6914 170.127 46.2422 169.768 47.0312H176.693ZM183.613 37.5508H186.8V42.25H188.698V45.0039H186.8V55H183.613V45.0039H181.972V42.25H183.613V37.5508ZM200.563 42.25H203.75V55H200.563V53.6523C199.938 54.2461 199.309 54.6758 198.676 54.9414C198.051 55.1992 197.372 55.3281 196.637 55.3281C194.989 55.3281 193.563 54.6914 192.36 53.418C191.157 52.1367 190.555 50.5469 190.555 48.6484C190.555 46.6797 191.137 45.0664 192.301 43.8086C193.465 42.5508 194.879 41.9219 196.543 41.9219C197.309 41.9219 198.028 42.0664 198.7 42.3555C199.372 42.6445 199.993 43.0781 200.563 43.6562V42.25ZM197.2 44.875C196.208 44.875 195.383 45.2266 194.727 45.9297C194.071 46.625 193.743 47.5195 193.743 48.6133C193.743 49.7148 194.075 50.6211 194.739 51.332C195.411 52.043 196.235 52.3984 197.211 52.3984C198.219 52.3984 199.055 52.0508 199.719 51.3555C200.383 50.6523 200.715 49.7344 200.715 48.6016C200.715 47.4922 200.383 46.5938 199.719 45.9062C199.055 45.2188 198.215 44.875 197.2 44.875ZM57.6056 65.9805L55.5001 67.9893C54.0678 66.4782 52.4565 65.7227 50.6661 65.7227C49.1551 65.7227 47.8803 66.2383 46.8419 67.2695C45.8107 68.3008 45.295 69.5719 45.295 71.083C45.295 72.1357 45.5242 73.0703 45.9825 73.8867C46.4409 74.7031 47.089 75.3441 47.9269 75.8096C48.7648 76.2751 49.6958 76.5078 50.7198 76.5078C51.5935 76.5078 52.392 76.3467 53.1153 76.0244C53.8387 75.695 54.6336 75.1006 55.5001 74.2412L57.5411 76.3682C56.3738 77.5068 55.2709 78.2982 54.2325 78.7422C53.1941 79.179 52.0089 79.3975 50.6769 79.3975C48.2205 79.3975 46.2081 78.6204 44.6398 77.0664C43.0786 75.5052 42.298 73.5072 42.298 71.0723C42.298 69.4967 42.6525 68.0967 43.3614 66.8721C44.0776 65.6475 45.0981 64.6628 46.423 63.918C47.755 63.1732 49.1873 62.8008 50.7198 62.8008C52.0232 62.8008 53.2765 63.0765 54.4796 63.6279C55.6899 64.1794 56.7319 64.9635 57.6056 65.9805ZM69.2226 67.3125H72.1445V79H69.2226V77.7646C68.6497 78.3089 68.0732 78.7028 67.4931 78.9463C66.9202 79.1826 66.2972 79.3008 65.624 79.3008C64.1129 79.3008 62.8059 78.7171 61.7031 77.5498C60.6002 76.3753 60.0488 74.918 60.0488 73.1777C60.0488 71.373 60.5823 69.8942 61.6494 68.7412C62.7164 67.5882 64.0127 67.0117 65.538 67.0117C66.2399 67.0117 66.8987 67.1442 67.5146 67.4092C68.1305 67.6742 68.6998 68.0716 69.2226 68.6016V67.3125ZM66.1396 69.7188C65.2301 69.7188 64.4746 70.041 63.873 70.6855C63.2714 71.3229 62.9707 72.1429 62.9707 73.1455C62.9707 74.1553 63.275 74.986 63.8837 75.6377C64.4996 76.2894 65.2552 76.6152 66.1503 76.6152C67.0742 76.6152 67.8405 76.2965 68.4492 75.6592C69.0579 75.0146 69.3623 74.1732 69.3623 73.1348C69.3623 72.1178 69.0579 71.2943 68.4492 70.6641C67.8405 70.0339 67.0706 69.7188 66.1396 69.7188ZM75.7693 67.3125H78.6912V68.5049C79.3572 67.9463 79.9588 67.5596 80.4959 67.3447C81.0402 67.1227 81.5952 67.0117 82.1609 67.0117C83.3211 67.0117 84.3058 67.4163 85.115 68.2256C85.7954 68.9131 86.1355 69.93 86.1355 71.2764V79H83.2352V73.876C83.2352 72.4795 83.1707 71.5521 83.0418 71.0938C82.92 70.6354 82.7016 70.2881 82.3865 70.0518C82.0786 69.8083 81.6954 69.6865 81.2371 69.6865C80.6427 69.6865 80.1307 69.887 79.701 70.2881C79.2784 70.682 78.9848 71.2298 78.8201 71.9316C78.7342 72.2969 78.6912 73.0882 78.6912 74.3057V79H75.7693V67.3125ZM89.653 62.8008H92.5641V68.4941C93.137 68 93.7135 67.6312 94.2936 67.3877C94.8737 67.137 95.4609 67.0117 96.0553 67.0117C97.2155 67.0117 98.193 67.4128 98.9879 68.2148C99.6683 68.9095 100.008 69.93 100.008 71.2764V79H97.1188V73.876C97.1188 72.5225 97.0543 71.6058 96.9254 71.126C96.7965 70.6462 96.5745 70.2881 96.2594 70.0518C95.9515 69.8154 95.5683 69.6973 95.11 69.6973C94.5156 69.6973 94.0036 69.8942 93.5739 70.2881C93.1513 70.682 92.8577 71.2191 92.693 71.8994C92.6071 72.2503 92.5641 73.0524 92.5641 74.3057V79H89.653V62.8008ZM112.152 67.3125H115.074V79H112.152V77.7646C111.579 78.3089 111.002 78.7028 110.422 78.9463C109.849 79.1826 109.226 79.3008 108.553 79.3008C107.042 79.3008 105.735 78.7171 104.632 77.5498C103.529 76.3753 102.978 74.918 102.978 73.1777C102.978 71.373 103.512 69.8942 104.579 68.7412C105.646 67.5882 106.942 67.0117 108.467 67.0117C109.169 67.0117 109.828 67.1442 110.444 67.4092C111.06 67.6742 111.629 68.0716 112.152 68.6016V67.3125ZM109.069 69.7188C108.159 69.7188 107.404 70.041 106.802 70.6855C106.201 71.3229 105.9 72.1429 105.9 73.1455C105.9 74.1553 106.204 74.986 106.813 75.6377C107.429 76.2894 108.184 76.6152 109.08 76.6152C110.003 76.6152 110.77 76.2965 111.378 75.6592C111.987 75.0146 112.291 74.1732 112.291 73.1348C112.291 72.1178 111.987 71.2943 111.378 70.6641C110.77 70.0339 110 69.7188 109.069 69.7188ZM125.853 68.9453L124.037 70.7607C123.3 70.0303 122.63 69.665 122.029 69.665C121.699 69.665 121.441 69.7367 121.255 69.8799C121.069 70.016 120.976 70.1878 120.976 70.3955C120.976 70.5531 121.033 70.6999 121.148 70.8359C121.27 70.9648 121.563 71.1439 122.029 71.373L123.103 71.9102C124.234 72.4688 125.011 73.0381 125.434 73.6182C125.856 74.1982 126.068 74.8786 126.068 75.6592C126.068 76.6976 125.685 77.5641 124.918 78.2588C124.159 78.9535 123.139 79.3008 121.857 79.3008C120.152 79.3008 118.792 78.6348 117.775 77.3027L119.579 75.3369C119.923 75.738 120.324 76.0638 120.783 76.3145C121.248 76.5579 121.66 76.6797 122.018 76.6797C122.405 76.6797 122.716 76.5866 122.952 76.4004C123.189 76.2142 123.307 75.9993 123.307 75.7559C123.307 75.3047 122.881 74.8643 122.029 74.4346L121.04 73.9404C119.15 72.988 118.204 71.7956 118.204 70.3633C118.204 69.4395 118.559 68.6517 119.268 68C119.984 67.3411 120.897 67.0117 122.007 67.0117C122.766 67.0117 123.479 67.18 124.145 67.5166C124.818 67.846 125.387 68.3223 125.853 68.9453ZM129.402 63.0049H132.324V67.3125H134.065V69.8369H132.324V79H129.402V69.8369H127.899V67.3125H129.402V63.0049ZM144.94 67.3125H147.862V79H144.94V77.7646C144.368 78.3089 143.791 78.7028 143.211 78.9463C142.638 79.1826 142.015 79.3008 141.342 79.3008C139.831 79.3008 138.524 78.7171 137.421 77.5498C136.318 76.3753 135.767 74.918 135.767 73.1777C135.767 71.373 136.3 69.8942 137.367 68.7412C138.434 67.5882 139.73 67.0117 141.256 67.0117C141.958 67.0117 142.617 67.1442 143.232 67.4092C143.848 67.6742 144.418 68.0716 144.94 68.6016V67.3125ZM141.857 69.7188C140.948 69.7188 140.192 70.041 139.591 70.6855C138.989 71.3229 138.688 72.1429 138.688 73.1455C138.688 74.1553 138.993 74.986 139.602 75.6377C140.217 76.2894 140.973 76.6152 141.868 76.6152C142.792 76.6152 143.558 76.2965 144.167 75.6592C144.776 75.0146 145.08 74.1732 145.08 73.1348C145.08 72.1178 144.776 71.2943 144.167 70.6641C143.558 70.0339 142.788 69.7188 141.857 69.7188ZM163.448 63.1982H166.499L172.579 79H169.453L168.217 75.7451H161.772L160.483 79H157.357L163.448 63.1982ZM164.995 67.3877L162.889 72.8125H167.09L164.995 67.3877ZM174.571 67.3125H177.085V68.7842C177.357 68.2041 177.718 67.7637 178.169 67.4629C178.621 67.1621 179.115 67.0117 179.652 67.0117C180.031 67.0117 180.429 67.112 180.844 67.3125L179.931 69.8369C179.587 69.665 179.305 69.5791 179.083 69.5791C178.631 69.5791 178.248 69.8584 177.933 70.417C177.625 70.9756 177.471 72.0713 177.471 73.7041L177.482 74.2734V79H174.571V67.3125ZM182.944 67.3125H185.887V68.6553C186.388 68.1038 186.943 67.6921 187.552 67.4199C188.168 67.1478 188.838 67.0117 189.561 67.0117C190.291 67.0117 190.95 67.1908 191.537 67.5488C192.125 67.9069 192.597 68.4297 192.955 69.1172C193.421 68.4297 193.99 67.9069 194.663 67.5488C195.344 67.1908 196.085 67.0117 196.887 67.0117C197.718 67.0117 198.448 67.2051 199.078 67.5918C199.709 67.9785 200.16 68.4834 200.432 69.1064C200.711 69.7295 200.851 70.7428 200.851 72.1465V79H197.897V73.0703C197.897 71.7454 197.732 70.8503 197.403 70.3848C197.073 69.9121 196.579 69.6758 195.92 69.6758C195.419 69.6758 194.968 69.819 194.567 70.1055C194.173 70.3919 193.879 70.7894 193.686 71.2979C193.493 71.7992 193.396 72.6084 193.396 73.7256V79H190.442V73.3389C190.442 72.2933 190.363 71.5378 190.205 71.0723C190.055 70.5996 189.826 70.2487 189.518 70.0195C189.21 69.7904 188.838 69.6758 188.401 69.6758C187.914 69.6758 187.47 69.8226 187.069 70.1162C186.675 70.4027 186.378 70.8073 186.177 71.3301C185.984 71.8529 185.887 72.6764 185.887 73.8008V79H182.944V67.3125ZM212.951 67.3125H215.873V79H212.951V77.7646C212.378 78.3089 211.802 78.7028 211.222 78.9463C210.649 79.1826 210.026 79.3008 209.353 79.3008C207.842 79.3008 206.535 78.7171 205.432 77.5498C204.329 76.3753 203.778 74.918 203.778 73.1777C203.778 71.373 204.311 69.8942 205.378 68.7412C206.445 67.5882 207.741 67.0117 209.267 67.0117C209.969 67.0117 210.627 67.1442 211.243 67.4092C211.859 67.6742 212.429 68.0716 212.951 68.6016V67.3125ZM209.868 69.7188C208.959 69.7188 208.203 70.041 207.602 70.6855C207 71.3229 206.699 72.1429 206.699 73.1455C206.699 74.1553 207.004 74.986 207.612 75.6377C208.228 76.2894 208.984 76.6152 209.879 76.6152C210.803 76.6152 211.569 76.2965 212.178 75.6592C212.787 75.0146 213.091 74.1732 213.091 73.1348C213.091 72.1178 212.787 71.2943 212.178 70.6641C211.569 70.0339 210.799 69.7188 209.868 69.7188ZM228.135 62.8008H231.057V79H228.135V77.7646C227.562 78.3089 226.985 78.7028 226.405 78.9463C225.832 79.1826 225.209 79.3008 224.536 79.3008C223.025 79.3008 221.718 78.7171 220.615 77.5498C219.512 76.3753 218.961 74.918 218.961 73.1777C218.961 71.373 219.494 69.8942 220.562 68.7412C221.629 67.5882 222.925 67.0117 224.45 67.0117C225.152 67.0117 225.811 67.1442 226.427 67.4092C227.043 67.6742 227.612 68.0716 228.135 68.6016V62.8008ZM225.052 69.7188C224.142 69.7188 223.387 70.041 222.785 70.6855C222.184 71.3229 221.883 72.1429 221.883 73.1455C221.883 74.1553 222.187 74.986 222.796 75.6377C223.412 76.2894 224.167 76.6152 225.063 76.6152C225.986 76.6152 226.753 76.2965 227.361 75.6592C227.97 75.0146 228.274 74.1732 228.274 73.1348C228.274 72.1178 227.97 71.2943 227.361 70.6641C226.753 70.0339 225.983 69.7188 225.052 69.7188ZM243.318 67.3125H246.24V79H243.318V77.7646C242.745 78.3089 242.169 78.7028 241.589 78.9463C241.016 79.1826 240.393 79.3008 239.72 79.3008C238.209 79.3008 236.902 78.7171 235.799 77.5498C234.696 76.3753 234.144 74.918 234.144 73.1777C234.144 71.373 234.678 69.8942 235.745 68.7412C236.812 67.5882 238.108 67.0117 239.634 67.0117C240.335 67.0117 240.994 67.1442 241.61 67.4092C242.226 67.6742 242.795 68.0716 243.318 68.6016V67.3125ZM240.235 69.7188C239.326 69.7188 238.57 70.041 237.969 70.6855C237.367 71.3229 237.066 72.1429 237.066 73.1455C237.066 74.1553 237.371 74.986 237.979 75.6377C238.595 76.2894 239.351 76.6152 240.246 76.6152C241.17 76.6152 241.936 76.2965 242.545 75.6592C243.154 75.0146 243.458 74.1732 243.458 73.1348C243.458 72.1178 243.154 71.2943 242.545 70.6641C241.936 70.0339 241.166 69.7188 240.235 69.7188Z" fill="#444242"/>
<path d="M169.065 111.83L171.704 110.913L174.413 119.801L171.775 120.717L169.065 111.83Z" fill="#3497DB"/>
<path d="M164.609 122.442L167.687 121.608L170.848 129.687L167.77 130.521L164.609 122.442Z" fill="#3497DB"/>
<path d="M117.174 126.46C116.875 128.616 117.507 130.797 118.915 132.463L120.961 135.019V158.598H123.796V137.244L125.844 138.603C126.321 138.92 126.942 138.92 127.418 138.603L130.884 136.3L134.35 138.601C134.827 138.917 135.447 138.917 135.924 138.601L139.389 136.3L142.855 138.601C143.332 138.917 143.952 138.917 144.429 138.601L147.894 136.3L151.36 138.601C151.837 138.917 152.457 138.917 152.934 138.601L156.399 136.3L159.235 138.182V181.177H128.049V184H167.74C171.652 183.995 174.822 180.839 174.827 176.944V134.607C174.824 134.297 174.717 133.996 174.523 133.753L182.714 112.041C183.817 109.124 183.413 105.855 181.635 103.291C179.944 100.804 177.122 99.3168 174.106 99.3257C170.262 99.3616 166.838 101.753 165.496 105.339L163.273 111.23L160.652 108.62V103.559C160.652 102.78 160.017 102.148 159.235 102.148H143.642C142.859 102.148 142.224 102.78 142.224 103.559V105.981C140.622 104.535 138.205 104.453 136.507 105.788V103.559C136.507 101.25 134.627 99.3767 132.306 99.3767C129.986 99.3767 128.104 101.25 128.104 103.559V105.789C127.328 105.149 126.352 104.799 125.344 104.801C124.174 104.798 123.053 105.268 122.237 106.104C120.556 107.829 120.545 110.569 122.213 112.307L123.533 113.663C123.052 113.882 122.616 114.186 122.246 114.561L122.237 114.567L122.223 114.581C121.893 114.919 121.62 115.308 121.415 115.733L119.799 112.762L117.305 114.106L120.971 120.842C120.807 120.935 120.642 121.025 120.487 121.131C120.428 121.17 120.377 121.216 120.32 121.255L114.835 116.223L112.913 118.298L118.362 123.299C117.736 124.252 117.33 125.332 117.174 126.46ZM147.107 133.432L143.642 135.735L140.176 133.435C139.699 133.119 139.079 133.119 138.602 133.435L135.169 135.715C135.161 135.573 135.137 135.451 135.137 135.315C135.128 132.213 137.376 129.561 140.449 129.05C143.522 128.538 146.515 130.317 147.52 133.253C147.374 133.291 147.235 133.351 147.107 133.432ZM150.729 134.793L150.702 134.775C150.532 131.808 148.927 129.108 146.397 127.533C143.867 125.957 140.726 125.7 137.972 126.845V117.672H150.729V134.793ZM171.992 176.944C171.992 179.282 170.088 181.177 167.74 181.177H162.07V138.184L164.905 136.3L168.37 138.601C168.847 138.917 169.467 138.917 169.944 138.601L171.992 137.244V176.944ZM168.149 106.331C169.073 103.843 171.442 102.181 174.106 102.148C176.189 102.144 178.138 103.173 179.304 104.891C180.556 106.696 180.838 108.997 180.061 111.049L171.283 134.324L169.157 135.735L165.692 133.435C165.215 133.119 164.595 133.119 164.118 133.435L160.652 135.735L157.776 133.827L168.149 106.331ZM162.179 114.131L154.656 134.068L153.564 134.793V116.845L159.235 111.2L162.179 114.131ZM145.059 104.971H157.817V107.793H145.059V104.971ZM144.229 110.616H155.813L151.56 114.849H139.976L144.229 110.616ZM124.26 108.084C124.545 107.792 124.936 107.626 125.344 107.626C125.753 107.627 126.144 107.792 126.429 108.084L128.51 110.201C128.914 110.611 129.528 110.736 130.062 110.518C130.595 110.299 130.943 109.779 130.939 109.204V103.559C130.917 103.058 131.172 102.586 131.604 102.329C132.036 102.071 132.576 102.071 133.008 102.329C133.44 102.586 133.696 103.058 133.672 103.559V109.204C133.673 109.777 134.021 110.292 134.554 110.509C135.086 110.726 135.697 110.6 136.101 110.193L138.188 108.076C138.786 107.489 139.746 107.489 140.343 108.076C140.959 108.703 140.959 109.705 140.343 110.333L136.167 114.567L136.209 114.61L135.552 115.264C135.438 115.381 135.346 115.518 135.279 115.667C135.258 115.71 135.247 115.754 135.231 115.799C135.189 115.919 135.164 116.045 135.155 116.172C135.155 116.203 135.138 116.228 135.138 116.259V128.707C134.815 129.015 134.516 129.345 134.242 129.696L131.564 124.022C130.576 122.065 128.79 120.624 126.66 120.071C126.164 119.944 125.656 119.867 125.145 119.842L124.781 119.419C124.498 119.095 124.284 118.843 124.25 118.808C123.884 118.426 123.725 117.892 123.825 117.373C123.877 117.078 124.014 116.805 124.217 116.585L124.243 116.561L124.278 116.523C124.792 116.022 125.587 115.948 126.185 116.345C126.787 116.746 127.594 116.631 128.059 116.079C128.524 115.527 128.497 114.716 127.996 114.196L124.25 110.346C123.641 109.712 123.646 108.712 124.26 108.084ZM119.983 126.845C120.168 125.477 120.929 124.252 122.076 123.476C123.213 122.71 124.626 122.468 125.955 122.81C127.284 123.153 128.401 124.049 129.021 125.268L132.634 132.93C132.545 133.26 132.475 133.595 132.423 133.933L131.677 133.437C131.2 133.12 130.579 133.12 130.103 133.437L126.631 135.735L123.488 133.647L123.184 133.268L126.838 130.455L125.103 128.222L121.418 131.06L121.103 130.669C120.201 129.611 119.794 128.22 119.983 126.845Z" fill="#3497DB"/>
<path d="M107.066 180.443C108.157 182.629 110.405 184.008 112.861 184C113.868 183.998 114.859 183.766 115.759 183.321L116.924 182.742L118.09 183.321C118.99 183.766 119.981 183.998 120.987 184C123.443 184.008 125.691 182.629 126.782 180.443L127.283 179.445C128.964 176.094 129.842 172.403 129.848 168.66C129.843 164.532 126.475 161.187 122.319 161.182C120.918 161.187 119.546 161.581 118.36 162.323V161.182C118.36 158.032 115.788 155.478 112.616 155.478V158.33C114.202 158.33 115.488 159.607 115.488 161.182V162.323C114.302 161.581 112.93 161.187 111.529 161.182C107.373 161.187 104.005 164.532 104 168.66C104.005 172.404 104.883 176.096 106.565 179.448L107.066 180.443ZM111.529 164.035C112.765 164.031 113.95 164.519 114.822 165.39L115.909 166.469C116.47 167.025 117.378 167.025 117.939 166.469L119.026 165.39C120.358 164.067 122.361 163.671 124.101 164.387C125.841 165.103 126.976 166.789 126.976 168.66C126.972 171.962 126.198 175.218 124.714 178.173L124.213 179.171C123.604 180.387 122.353 181.153 120.987 181.148C120.427 181.147 119.875 181.017 119.374 180.77L117.566 179.871C117.162 179.671 116.686 179.671 116.282 179.871L114.475 180.77C113.974 181.017 113.422 181.147 112.861 181.148C111.494 181.152 110.243 180.384 109.635 179.167L109.134 178.169C107.65 175.215 106.876 171.96 106.872 168.66C106.875 166.107 108.959 164.038 111.529 164.035V164.035Z" fill="#3497DB"/>
<defs>
<filter id="filter0_d" x="0" y="0" width="308" height="230" filterUnits="userSpaceOnUse" color-interpolation-filters="sRGB">
<feFlood flood-opacity="0" result="BackgroundImageFix"/>
<feColorMatrix in="SourceAlpha" type="matrix" values="0 0 0 0 0 0 0 0 0 0 0 0 0 0 0 0 0 0 127 0"/>
<feOffset dx="10" dy="10"/>
<feGaussianBlur stdDeviation="7.5"/>
<feColorMatrix type="matrix" values="0 0 0 0 0 0 0 0 0 0 0 0 0 0 0 0 0 0 0.2 0"/>
<feBlend mode="multiply" in2="BackgroundImageFix" result="effect1_dropShadow"/>
<feBlend mode="normal" in="SourceGraphic" in2="effect1_dropShadow" result="shape"/>
</filter>
<linearGradient id="paint0_linear" x1="144" y1="5" x2="144" y2="205" gradientUnits="userSpaceOnUse">
<stop stop-color="white"/>
<stop offset="1" stop-color="white" stop-opacity="0"/>
</linearGradient>
</defs>
</svg>
