<svg width="308" height="230" viewBox="0 0 308 230" fill="none" xmlns="http://www.w3.org/2000/svg">
<g filter="url(#filter0_d)">
<rect x="5" y="5" width="278" height="200" rx="15" fill="#F5F8FA"/>
<rect x="5" y="5" width="278" height="200" rx="15" fill="url(#paint0_linear)"/>
</g>
<path d="M101.445 36.7969L99.148 38.9883C97.5855 37.3398 95.8277 36.5156 93.8745 36.5156C92.2261 36.5156 90.8355 37.0781 89.7027 38.2031C88.5777 39.3281 88.0152 40.7148 88.0152 42.3633C88.0152 43.5117 88.2652 44.5312 88.7652 45.4219C89.2652 46.3125 89.9722 47.0117 90.8862 47.5195C91.8003 48.0273 92.8159 48.2812 93.9331 48.2812C94.8862 48.2812 95.7573 48.1055 96.5464 47.7539C97.3355 47.3945 98.2027 46.7461 99.148 45.8086L101.375 48.1289C100.101 49.3711 98.898 50.2344 97.7652 50.7188C96.6323 51.1953 95.3394 51.4336 93.8862 51.4336C91.2066 51.4336 89.0112 50.5859 87.3003 48.8906C85.5972 47.1875 84.7456 45.0078 84.7456 42.3516C84.7456 40.6328 85.1323 39.1055 85.9058 37.7695C86.687 36.4336 87.8003 35.3594 89.2456 34.5469C90.6987 33.7344 92.2612 33.3281 93.9331 33.3281C95.355 33.3281 96.7222 33.6289 98.0347 34.2305C99.355 34.832 100.492 35.6875 101.445 36.7969ZM110.684 37.9219C111.887 37.9219 113.016 38.2227 114.071 38.8242C115.134 39.4258 115.962 40.2422 116.555 41.2734C117.149 42.3047 117.446 43.418 117.446 44.6133C117.446 45.8164 117.145 46.9414 116.544 47.9883C115.95 49.0352 115.137 49.8555 114.106 50.4492C113.075 51.0352 111.938 51.3281 110.696 51.3281C108.868 51.3281 107.305 50.6797 106.009 49.3828C104.72 48.0781 104.075 46.4961 104.075 44.6367C104.075 42.6445 104.805 40.9844 106.266 39.6562C107.548 38.5 109.02 37.9219 110.684 37.9219ZM110.731 40.9336C109.739 40.9336 108.911 41.2812 108.247 41.9766C107.591 42.6641 107.262 43.5469 107.262 44.625C107.262 45.7344 107.587 46.6328 108.235 47.3203C108.891 48.0078 109.72 48.3516 110.72 48.3516C111.72 48.3516 112.552 48.0039 113.216 47.3086C113.88 46.6133 114.212 45.7188 114.212 44.625C114.212 43.5312 113.884 42.6445 113.227 41.9648C112.579 41.2773 111.747 40.9336 110.731 40.9336ZM120.768 38.25H123.979V39.7148C124.525 39.1133 125.131 38.6641 125.795 38.3672C126.467 38.0703 127.197 37.9219 127.986 37.9219C128.783 37.9219 129.502 38.1172 130.143 38.5078C130.783 38.8984 131.299 39.4688 131.69 40.2188C132.197 39.4688 132.818 38.8984 133.553 38.5078C134.295 38.1172 135.104 37.9219 135.979 37.9219C136.885 37.9219 137.682 38.1328 138.369 38.5547C139.057 38.9766 139.549 39.5273 139.846 40.207C140.15 40.8867 140.303 41.9922 140.303 43.5234V51H137.08V44.5312C137.08 43.0859 136.9 42.1094 136.541 41.6016C136.182 41.0859 135.643 40.8281 134.924 40.8281C134.377 40.8281 133.885 40.9844 133.447 41.2969C133.018 41.6094 132.697 42.043 132.486 42.5977C132.275 43.1445 132.17 44.0273 132.17 45.2461V51H128.947V44.8242C128.947 43.6836 128.861 42.8594 128.69 42.3516C128.525 41.8359 128.275 41.4531 127.94 41.2031C127.604 40.9531 127.197 40.8281 126.721 40.8281C126.19 40.8281 125.705 40.9883 125.268 41.3086C124.838 41.6211 124.514 42.0625 124.295 42.6328C124.084 43.2031 123.979 44.1016 123.979 45.3281V51H120.768V38.25ZM147.257 38.25V39.6562C147.835 39.0781 148.46 38.6445 149.132 38.3555C149.804 38.0664 150.523 37.9219 151.288 37.9219C152.952 37.9219 154.367 38.5508 155.531 39.8086C156.695 41.0664 157.277 42.6797 157.277 44.6484C157.277 46.5469 156.675 48.1367 155.472 49.418C154.269 50.6914 152.843 51.3281 151.195 51.3281C150.46 51.3281 149.777 51.1992 149.144 50.9414C148.511 50.6758 147.882 50.2461 147.257 49.6523V55.6641H144.081V38.25H147.257ZM150.62 40.875C149.613 40.875 148.777 41.2188 148.113 41.9062C147.449 42.5938 147.117 43.4922 147.117 44.6016C147.117 45.7344 147.449 46.6523 148.113 47.3555C148.777 48.0508 149.613 48.3984 150.62 48.3984C151.597 48.3984 152.417 48.043 153.081 47.332C153.753 46.6211 154.089 45.7148 154.089 44.6133C154.089 43.5195 153.761 42.625 153.105 41.9297C152.449 41.2266 151.62 40.875 150.62 40.875ZM160.305 33.3281H163.505V51H160.305V33.3281ZM179.904 45.5508H169.627C169.775 46.457 170.17 47.1797 170.81 47.7188C171.459 48.25 172.283 48.5156 173.283 48.5156C174.478 48.5156 175.506 48.0977 176.365 47.2617L179.06 48.5273C178.389 49.4805 177.584 50.1875 176.646 50.6484C175.709 51.1016 174.596 51.3281 173.307 51.3281C171.307 51.3281 169.678 50.6992 168.42 49.4414C167.162 48.1758 166.533 46.5938 166.533 44.6953C166.533 42.75 167.158 41.1367 168.408 39.8555C169.666 38.5664 171.24 37.9219 173.131 37.9219C175.139 37.9219 176.771 38.5664 178.029 39.8555C179.287 41.1367 179.916 42.832 179.916 44.9414L179.904 45.5508ZM176.693 43.0312C176.482 42.3203 176.064 41.7422 175.439 41.2969C174.822 40.8516 174.103 40.6289 173.283 40.6289C172.393 40.6289 171.611 40.8789 170.939 41.3789C170.518 41.6914 170.127 42.2422 169.768 43.0312H176.693ZM183.613 33.5508H186.8V38.25H188.698V41.0039H186.8V51H183.613V41.0039H181.972V38.25H183.613V33.5508ZM200.563 38.25H203.75V51H200.563V49.6523C199.938 50.2461 199.309 50.6758 198.676 50.9414C198.051 51.1992 197.372 51.3281 196.637 51.3281C194.989 51.3281 193.563 50.6914 192.36 49.418C191.157 48.1367 190.555 46.5469 190.555 44.6484C190.555 42.6797 191.137 41.0664 192.301 39.8086C193.465 38.5508 194.879 37.9219 196.543 37.9219C197.309 37.9219 198.028 38.0664 198.7 38.3555C199.372 38.6445 199.993 39.0781 200.563 39.6562V38.25ZM197.2 40.875C196.208 40.875 195.383 41.2266 194.727 41.9297C194.071 42.625 193.743 43.5195 193.743 44.6133C193.743 45.7148 194.075 46.6211 194.739 47.332C195.411 48.043 196.235 48.3984 197.211 48.3984C198.219 48.3984 199.055 48.0508 199.719 47.3555C200.383 46.6523 200.715 45.7344 200.715 44.6016C200.715 43.4922 200.383 42.5938 199.719 41.9062C199.055 41.2188 198.215 40.875 197.2 40.875ZM61.0198 60.5508H64.2073V65.25H66.1058V68.0039H64.2073V78H61.0198V68.0039H59.3792V65.25H61.0198V60.5508ZM68.5367 65.25H71.7711V71.3906C71.7711 72.5859 71.8531 73.418 72.0172 73.8867C72.1813 74.3477 72.443 74.707 72.8023 74.9648C73.1695 75.2227 73.6188 75.3516 74.15 75.3516C74.6813 75.3516 75.1305 75.2266 75.4977 74.9766C75.8727 74.7188 76.15 74.3438 76.3297 73.8516C76.4625 73.4844 76.5289 72.6992 76.5289 71.4961V65.25H79.7398V70.6523C79.7398 72.8789 79.5641 74.4023 79.2125 75.2227C78.7828 76.2227 78.15 76.9922 77.3141 77.5312C76.4781 78.0625 75.4156 78.3281 74.1266 78.3281C72.7281 78.3281 71.5953 78.0156 70.7281 77.3906C69.8688 76.7656 69.2633 75.8945 68.9117 74.7773C68.6617 74.0039 68.5367 72.5977 68.5367 70.5586V65.25ZM91.4872 67.0312L89.5067 69.0117C88.702 68.2148 87.9716 67.8164 87.3153 67.8164C86.9559 67.8164 86.6747 67.8945 86.4716 68.0508C86.2684 68.1992 86.1669 68.3867 86.1669 68.6133C86.1669 68.7852 86.2294 68.9453 86.3544 69.0938C86.4872 69.2344 86.8075 69.4297 87.3153 69.6797L88.4872 70.2656C89.7216 70.875 90.5692 71.4961 91.0302 72.1289C91.4911 72.7617 91.7216 73.5039 91.7216 74.3555C91.7216 75.4883 91.3036 76.4336 90.4677 77.1914C89.6395 77.9492 88.5263 78.3281 87.1278 78.3281C85.2684 78.3281 83.7841 77.6016 82.6747 76.1484L84.6434 74.0039C85.0184 74.4414 85.4559 74.7969 85.9559 75.0703C86.4638 75.3359 86.913 75.4688 87.3036 75.4688C87.7255 75.4688 88.0653 75.3672 88.3231 75.1641C88.5809 74.9609 88.7098 74.7266 88.7098 74.4609C88.7098 73.9688 88.245 73.4883 87.3153 73.0195L86.2372 72.4805C84.1747 71.4414 83.1434 70.1406 83.1434 68.5781C83.1434 67.5703 83.5302 66.7109 84.3036 66C85.0848 65.2812 86.0809 64.9219 87.2919 64.9219C88.12 64.9219 88.8973 65.1055 89.6239 65.4727C90.3583 65.832 90.9794 66.3516 91.4872 67.0312ZM118.615 63.7969L116.318 65.9883C114.755 64.3398 112.998 63.5156 111.044 63.5156C109.396 63.5156 108.005 64.0781 106.873 65.2031C105.748 66.3281 105.185 67.7148 105.185 69.3633C105.185 70.5117 105.435 71.5312 105.935 72.4219C106.435 73.3125 107.142 74.0117 108.056 74.5195C108.97 75.0273 109.986 75.2812 111.103 75.2812C112.056 75.2812 112.927 75.1055 113.716 74.7539C114.505 74.3945 115.373 73.7461 116.318 72.8086L118.544 75.1289C117.271 76.3711 116.068 77.2344 114.935 77.7188C113.802 78.1953 112.509 78.4336 111.056 78.4336C108.376 78.4336 106.181 77.5859 104.47 75.8906C102.767 74.1875 101.915 72.0078 101.915 69.3516C101.915 67.6328 102.302 66.1055 103.076 64.7695C103.857 63.4336 104.97 62.3594 106.415 61.5469C107.869 60.7344 109.431 60.3281 111.103 60.3281C112.525 60.3281 113.892 60.6289 115.205 61.2305C116.525 61.832 117.662 62.6875 118.615 63.7969ZM131.288 65.25H134.475V78H131.288V76.6523C130.663 77.2461 130.034 77.6758 129.401 77.9414C128.776 78.1992 128.096 78.3281 127.362 78.3281C125.714 78.3281 124.288 77.6914 123.085 76.418C121.882 75.1367 121.28 73.5469 121.28 71.6484C121.28 69.6797 121.862 68.0664 123.026 66.8086C124.19 65.5508 125.604 64.9219 127.268 64.9219C128.034 64.9219 128.753 65.0664 129.425 65.3555C130.096 65.6445 130.717 66.0781 131.288 66.6562V65.25ZM127.925 67.875C126.932 67.875 126.108 68.2266 125.452 68.9297C124.796 69.625 124.467 70.5195 124.467 71.6133C124.467 72.7148 124.8 73.6211 125.464 74.332C126.135 75.043 126.96 75.3984 127.936 75.3984C128.944 75.3984 129.78 75.0508 130.444 74.3555C131.108 73.6523 131.44 72.7344 131.44 71.6016C131.44 70.4922 131.108 69.5938 130.444 68.9062C129.78 68.2188 128.94 67.875 127.925 67.875ZM138.43 65.25H141.617V66.5508C142.344 65.9414 143 65.5195 143.586 65.2852C144.18 65.043 144.785 64.9219 145.402 64.9219C146.668 64.9219 147.742 65.3633 148.625 66.2461C149.367 66.9961 149.738 68.1055 149.738 69.5742V78H146.574V72.4102C146.574 70.8867 146.504 69.875 146.363 69.375C146.23 68.875 145.992 68.4961 145.648 68.2383C145.312 67.9727 144.895 67.8398 144.395 67.8398C143.746 67.8398 143.188 68.0586 142.719 68.4961C142.258 68.9258 141.938 69.5234 141.758 70.2891C141.664 70.6875 141.617 71.5508 141.617 72.8789V78H138.43V65.25ZM153.575 60.3281H156.751V66.5391C157.376 66 158.005 65.5977 158.638 65.332C159.271 65.0586 159.911 64.9219 160.56 64.9219C161.825 64.9219 162.892 65.3594 163.759 66.2344C164.501 66.9922 164.872 68.1055 164.872 69.5742V78H161.72V72.4102C161.72 70.9336 161.65 69.9336 161.509 69.4102C161.368 68.8867 161.126 68.4961 160.783 68.2383C160.447 67.9805 160.029 67.8516 159.529 67.8516C158.88 67.8516 158.322 68.0664 157.853 68.4961C157.392 68.9258 157.072 69.5117 156.892 70.2539C156.798 70.6367 156.751 71.5117 156.751 72.8789V78H153.575V60.3281ZM178.12 65.25H181.307V78H178.12V76.6523C177.495 77.2461 176.866 77.6758 176.233 77.9414C175.608 78.1992 174.928 78.3281 174.194 78.3281C172.545 78.3281 171.12 77.6914 169.917 76.418C168.713 75.1367 168.112 73.5469 168.112 71.6484C168.112 69.6797 168.694 68.0664 169.858 66.8086C171.022 65.5508 172.436 64.9219 174.1 64.9219C174.866 64.9219 175.585 65.0664 176.256 65.3555C176.928 65.6445 177.549 66.0781 178.12 66.6562V65.25ZM174.756 67.875C173.764 67.875 172.94 68.2266 172.284 68.9297C171.628 69.625 171.299 70.5195 171.299 71.6133C171.299 72.7148 171.631 73.6211 172.295 74.332C172.967 75.043 173.792 75.3984 174.768 75.3984C175.776 75.3984 176.612 75.0508 177.276 74.3555C177.94 73.6523 178.272 72.7344 178.272 71.6016C178.272 70.4922 177.94 69.5938 177.276 68.9062C176.612 68.2188 175.772 67.875 174.756 67.875ZM193.066 67.0312L191.086 69.0117C190.281 68.2148 189.551 67.8164 188.894 67.8164C188.535 67.8164 188.254 67.8945 188.051 68.0508C187.848 68.1992 187.746 68.3867 187.746 68.6133C187.746 68.7852 187.808 68.9453 187.933 69.0938C188.066 69.2344 188.387 69.4297 188.894 69.6797L190.066 70.2656C191.301 70.875 192.148 71.4961 192.609 72.1289C193.07 72.7617 193.301 73.5039 193.301 74.3555C193.301 75.4883 192.883 76.4336 192.047 77.1914C191.219 77.9492 190.105 78.3281 188.707 78.3281C186.848 78.3281 185.363 77.6016 184.254 76.1484L186.223 74.0039C186.598 74.4414 187.035 74.7969 187.535 75.0703C188.043 75.3359 188.492 75.4688 188.883 75.4688C189.305 75.4688 189.644 75.3672 189.902 75.1641C190.16 74.9609 190.289 74.7266 190.289 74.4609C190.289 73.9688 189.824 73.4883 188.894 73.0195L187.816 72.4805C185.754 71.4414 184.723 70.1406 184.723 68.5781C184.723 67.5703 185.109 66.7109 185.883 66C186.664 65.2812 187.66 64.9219 188.871 64.9219C189.699 64.9219 190.476 65.1055 191.203 65.4727C191.937 65.832 192.558 66.3516 193.066 67.0312ZM196.939 60.5508H200.126V65.25H202.025V68.0039H200.126V78H196.939V68.0039H195.298V65.25H196.939V60.5508ZM213.889 65.25H217.077V78H213.889V76.6523C213.264 77.2461 212.635 77.6758 212.002 77.9414C211.377 78.1992 210.698 78.3281 209.963 78.3281C208.315 78.3281 206.889 77.6914 205.686 76.418C204.483 75.1367 203.881 73.5469 203.881 71.6484C203.881 69.6797 204.463 68.0664 205.627 66.8086C206.791 65.5508 208.205 64.9219 209.87 64.9219C210.635 64.9219 211.354 65.0664 212.026 65.3555C212.698 65.6445 213.319 66.0781 213.889 66.6562V65.25ZM210.526 67.875C209.534 67.875 208.709 68.2266 208.053 68.9297C207.397 69.625 207.069 70.5195 207.069 71.6133C207.069 72.7148 207.401 73.6211 208.065 74.332C208.737 75.043 209.561 75.3984 210.538 75.3984C211.545 75.3984 212.381 75.0508 213.045 74.3555C213.709 73.6523 214.041 72.7344 214.041 71.6016C214.041 70.4922 213.709 69.5938 213.045 68.9062C212.381 68.2188 211.541 67.875 210.526 67.875ZM228.836 67.0312L226.855 69.0117C226.05 68.2148 225.32 67.8164 224.664 67.8164C224.304 67.8164 224.023 67.8945 223.82 68.0508C223.617 68.1992 223.515 68.3867 223.515 68.6133C223.515 68.7852 223.578 68.9453 223.703 69.0938C223.836 69.2344 224.156 69.4297 224.664 69.6797L225.836 70.2656C227.07 70.875 227.918 71.4961 228.379 72.1289C228.84 72.7617 229.07 73.5039 229.07 74.3555C229.07 75.4883 228.652 76.4336 227.816 77.1914C226.988 77.9492 225.875 78.3281 224.476 78.3281C222.617 78.3281 221.133 77.6016 220.023 76.1484L221.992 74.0039C222.367 74.4414 222.804 74.7969 223.304 75.0703C223.812 75.3359 224.261 75.4688 224.652 75.4688C225.074 75.4688 225.414 75.3672 225.672 75.1641C225.929 74.9609 226.058 74.7266 226.058 74.4609C226.058 73.9688 225.593 73.4883 224.664 73.0195L223.586 72.4805C221.523 71.4414 220.492 70.1406 220.492 68.5781C220.492 67.5703 220.879 66.7109 221.652 66C222.433 65.2812 223.429 64.9219 224.64 64.9219C225.468 64.9219 226.246 65.1055 226.972 65.4727C227.707 65.832 228.328 66.3516 228.836 67.0312Z" fill="#444242"/>
<path d="M106.286 110H120L129.189 155.909C129.502 157.487 130.361 158.905 131.614 159.914C132.868 160.923 134.437 161.459 136.046 161.429H169.371C170.98 161.459 172.549 160.923 173.803 159.914C175.056 158.905 175.915 157.487 176.229 155.909L181.714 127.143H123.429M137.143 178.571C137.143 180.465 135.608 182 133.714 182C131.821 182 130.286 180.465 130.286 178.571C130.286 176.678 131.821 175.143 133.714 175.143C135.608 175.143 137.143 176.678 137.143 178.571ZM174.857 178.571C174.857 180.465 173.322 182 171.429 182C169.535 182 168 180.465 168 178.571C168 176.678 169.535 175.143 171.429 175.143C173.322 175.143 174.857 176.678 174.857 178.571Z" stroke="#3497DB" stroke-width="4" stroke-linecap="round" stroke-linejoin="round"/>
<defs>
<filter id="filter0_d" x="0" y="0" width="308" height="230" filterUnits="userSpaceOnUse" color-interpolation-filters="sRGB">
<feFlood flood-opacity="0" result="BackgroundImageFix"/>
<feColorMatrix in="SourceAlpha" type="matrix" values="0 0 0 0 0 0 0 0 0 0 0 0 0 0 0 0 0 0 127 0"/>
<feOffset dx="10" dy="10"/>
<feGaussianBlur stdDeviation="7.5"/>
<feColorMatrix type="matrix" values="0 0 0 0 0 0 0 0 0 0 0 0 0 0 0 0 0 0 0.2 0"/>
<feBlend mode="multiply" in2="BackgroundImageFix" result="effect1_dropShadow"/>
<feBlend mode="normal" in="SourceGraphic" in2="effect1_dropShadow" result="shape"/>
</filter>
<linearGradient id="paint0_linear" x1="144" y1="5" x2="144" y2="205" gradientUnits="userSpaceOnUse">
<stop stop-color="white"/>
<stop offset="1" stop-color="white" stop-opacity="0"/>
</linearGradient>
</defs>
</svg>
