<svg width="308" height="230" viewBox="0 0 308 230" fill="none" xmlns="http://www.w3.org/2000/svg">
<g filter="url(#filter0_d)">
<rect x="5" y="5" width="278" height="200" rx="15" fill="#F5F8FA"/>
<rect x="5" y="5" width="278" height="200" rx="15" fill="url(#paint0_linear)"/>
</g>
<path d="M101.445 36.7969L99.148 38.9883C97.5855 37.3398 95.8277 36.5156 93.8745 36.5156C92.2261 36.5156 90.8355 37.0781 89.7027 38.2031C88.5777 39.3281 88.0152 40.7148 88.0152 42.3633C88.0152 43.5117 88.2652 44.5312 88.7652 45.4219C89.2652 46.3125 89.9722 47.0117 90.8862 47.5195C91.8003 48.0273 92.8159 48.2812 93.9331 48.2812C94.8862 48.2812 95.7573 48.1055 96.5464 47.7539C97.3355 47.3945 98.2027 46.7461 99.148 45.8086L101.375 48.1289C100.101 49.3711 98.898 50.2344 97.7652 50.7188C96.6323 51.1953 95.3394 51.4336 93.8862 51.4336C91.2066 51.4336 89.0112 50.5859 87.3003 48.8906C85.5972 47.1875 84.7456 45.0078 84.7456 42.3516C84.7456 40.6328 85.1323 39.1055 85.9058 37.7695C86.687 36.4336 87.8003 35.3594 89.2456 34.5469C90.6987 33.7344 92.2612 33.3281 93.9331 33.3281C95.355 33.3281 96.7222 33.6289 98.0347 34.2305C99.355 34.832 100.492 35.6875 101.445 36.7969ZM110.684 37.9219C111.887 37.9219 113.016 38.2227 114.071 38.8242C115.134 39.4258 115.962 40.2422 116.555 41.2734C117.149 42.3047 117.446 43.418 117.446 44.6133C117.446 45.8164 117.145 46.9414 116.544 47.9883C115.95 49.0352 115.137 49.8555 114.106 50.4492C113.075 51.0352 111.938 51.3281 110.696 51.3281C108.868 51.3281 107.305 50.6797 106.009 49.3828C104.72 48.0781 104.075 46.4961 104.075 44.6367C104.075 42.6445 104.805 40.9844 106.266 39.6562C107.548 38.5 109.02 37.9219 110.684 37.9219ZM110.731 40.9336C109.739 40.9336 108.911 41.2812 108.247 41.9766C107.591 42.6641 107.262 43.5469 107.262 44.625C107.262 45.7344 107.587 46.6328 108.235 47.3203C108.891 48.0078 109.72 48.3516 110.72 48.3516C111.72 48.3516 112.552 48.0039 113.216 47.3086C113.88 46.6133 114.212 45.7188 114.212 44.625C114.212 43.5312 113.884 42.6445 113.227 41.9648C112.579 41.2773 111.747 40.9336 110.731 40.9336ZM120.768 38.25H123.979V39.7148C124.525 39.1133 125.131 38.6641 125.795 38.3672C126.467 38.0703 127.197 37.9219 127.986 37.9219C128.783 37.9219 129.502 38.1172 130.143 38.5078C130.783 38.8984 131.299 39.4688 131.69 40.2188C132.197 39.4688 132.818 38.8984 133.553 38.5078C134.295 38.1172 135.104 37.9219 135.979 37.9219C136.885 37.9219 137.682 38.1328 138.369 38.5547C139.057 38.9766 139.549 39.5273 139.846 40.207C140.15 40.8867 140.303 41.9922 140.303 43.5234V51H137.08V44.5312C137.08 43.0859 136.9 42.1094 136.541 41.6016C136.182 41.0859 135.643 40.8281 134.924 40.8281C134.377 40.8281 133.885 40.9844 133.447 41.2969C133.018 41.6094 132.697 42.043 132.486 42.5977C132.275 43.1445 132.17 44.0273 132.17 45.2461V51H128.947V44.8242C128.947 43.6836 128.861 42.8594 128.69 42.3516C128.525 41.8359 128.275 41.4531 127.94 41.2031C127.604 40.9531 127.197 40.8281 126.721 40.8281C126.19 40.8281 125.705 40.9883 125.268 41.3086C124.838 41.6211 124.514 42.0625 124.295 42.6328C124.084 43.2031 123.979 44.1016 123.979 45.3281V51H120.768V38.25ZM147.257 38.25V39.6562C147.835 39.0781 148.46 38.6445 149.132 38.3555C149.804 38.0664 150.523 37.9219 151.288 37.9219C152.952 37.9219 154.367 38.5508 155.531 39.8086C156.695 41.0664 157.277 42.6797 157.277 44.6484C157.277 46.5469 156.675 48.1367 155.472 49.418C154.269 50.6914 152.843 51.3281 151.195 51.3281C150.46 51.3281 149.777 51.1992 149.144 50.9414C148.511 50.6758 147.882 50.2461 147.257 49.6523V55.6641H144.081V38.25H147.257ZM150.62 40.875C149.613 40.875 148.777 41.2188 148.113 41.9062C147.449 42.5938 147.117 43.4922 147.117 44.6016C147.117 45.7344 147.449 46.6523 148.113 47.3555C148.777 48.0508 149.613 48.3984 150.62 48.3984C151.597 48.3984 152.417 48.043 153.081 47.332C153.753 46.6211 154.089 45.7148 154.089 44.6133C154.089 43.5195 153.761 42.625 153.105 41.9297C152.449 41.2266 151.62 40.875 150.62 40.875ZM160.305 33.3281H163.505V51H160.305V33.3281ZM179.904 45.5508H169.627C169.775 46.457 170.17 47.1797 170.81 47.7188C171.459 48.25 172.283 48.5156 173.283 48.5156C174.478 48.5156 175.506 48.0977 176.365 47.2617L179.06 48.5273C178.389 49.4805 177.584 50.1875 176.646 50.6484C175.709 51.1016 174.596 51.3281 173.307 51.3281C171.307 51.3281 169.678 50.6992 168.42 49.4414C167.162 48.1758 166.533 46.5938 166.533 44.6953C166.533 42.75 167.158 41.1367 168.408 39.8555C169.666 38.5664 171.24 37.9219 173.131 37.9219C175.139 37.9219 176.771 38.5664 178.029 39.8555C179.287 41.1367 179.916 42.832 179.916 44.9414L179.904 45.5508ZM176.693 43.0312C176.482 42.3203 176.064 41.7422 175.439 41.2969C174.822 40.8516 174.103 40.6289 173.283 40.6289C172.393 40.6289 171.611 40.8789 170.939 41.3789C170.518 41.6914 170.127 42.2422 169.768 43.0312H176.693ZM183.613 33.5508H186.8V38.25H188.698V41.0039H186.8V51H183.613V41.0039H181.972V38.25H183.613V33.5508ZM200.563 38.25H203.75V51H200.563V49.6523C199.938 50.2461 199.309 50.6758 198.676 50.9414C198.051 51.1992 197.372 51.3281 196.637 51.3281C194.989 51.3281 193.563 50.6914 192.36 49.418C191.157 48.1367 190.555 46.5469 190.555 44.6484C190.555 42.6797 191.137 41.0664 192.301 39.8086C193.465 38.5508 194.879 37.9219 196.543 37.9219C197.309 37.9219 198.028 38.0664 198.7 38.3555C199.372 38.6445 199.993 39.0781 200.563 39.6562V38.25ZM197.2 40.875C196.208 40.875 195.383 41.2266 194.727 41.9297C194.071 42.625 193.743 43.5195 193.743 44.6133C193.743 45.7148 194.075 46.6211 194.739 47.332C195.411 48.043 196.235 48.3984 197.211 48.3984C198.219 48.3984 199.055 48.0508 199.719 47.3555C200.383 46.6523 200.715 45.7344 200.715 44.6016C200.715 43.4922 200.383 42.5938 199.719 41.9062C199.055 41.2188 198.215 40.875 197.2 40.875ZM84.6266 64.9219C85.8297 64.9219 86.9586 65.2227 88.0133 65.8242C89.0758 66.4258 89.9039 67.2422 90.4977 68.2734C91.0914 69.3047 91.3883 70.418 91.3883 71.6133C91.3883 72.8164 91.0875 73.9414 90.4859 74.9883C89.8922 76.0352 89.0797 76.8555 88.0484 77.4492C87.0172 78.0352 85.8805 78.3281 84.6383 78.3281C82.8102 78.3281 81.2477 77.6797 79.9508 76.3828C78.6617 75.0781 78.0172 73.4961 78.0172 71.6367C78.0172 69.6445 78.7477 67.9844 80.2086 66.6562C81.4898 65.5 82.9625 64.9219 84.6266 64.9219ZM84.6734 67.9336C83.6813 67.9336 82.8531 68.2812 82.1891 68.9766C81.5328 69.6641 81.2047 70.5469 81.2047 71.625C81.2047 72.7344 81.5289 73.6328 82.1773 74.3203C82.8336 75.0078 83.6617 75.3516 84.6617 75.3516C85.6617 75.3516 86.4938 75.0039 87.1578 74.3086C87.8219 73.6133 88.1539 72.7188 88.1539 71.625C88.1539 70.5312 87.8258 69.6445 87.1695 68.9648C86.5211 68.2773 85.6891 67.9336 84.6734 67.9336ZM95.12 60.5508H98.3075V65.25H100.206V68.0039H98.3075V78H95.12V68.0039H93.4794V65.25H95.12V60.5508ZM101.899 65.25H104.641V66.8555C104.938 66.2227 105.332 65.7422 105.824 65.4141C106.317 65.0859 106.856 64.9219 107.442 64.9219C107.856 64.9219 108.289 65.0312 108.742 65.25L107.746 68.0039C107.371 67.8164 107.063 67.7227 106.82 67.7227C106.328 67.7227 105.91 68.0273 105.567 68.6367C105.231 69.2461 105.063 70.4414 105.063 72.2227L105.074 72.8438V78H101.899V65.25ZM117.044 64.9219C118.248 64.9219 119.376 65.2227 120.431 65.8242C121.494 66.4258 122.322 67.2422 122.915 68.2734C123.509 69.3047 123.806 70.418 123.806 71.6133C123.806 72.8164 123.505 73.9414 122.904 74.9883C122.31 76.0352 121.498 76.8555 120.466 77.4492C119.435 78.0352 118.298 78.3281 117.056 78.3281C115.228 78.3281 113.665 77.6797 112.369 76.3828C111.08 75.0781 110.435 73.4961 110.435 71.6367C110.435 69.6445 111.165 67.9844 112.626 66.6562C113.908 65.5 115.38 64.9219 117.044 64.9219ZM117.091 67.9336C116.099 67.9336 115.271 68.2812 114.607 68.9766C113.951 69.6641 113.623 70.5469 113.623 71.625C113.623 72.7344 113.947 73.6328 114.595 74.3203C115.251 75.0078 116.08 75.3516 117.08 75.3516C118.08 75.3516 118.912 75.0039 119.576 74.3086C120.24 73.6133 120.572 72.7188 120.572 71.625C120.572 70.5312 120.244 69.6445 119.587 68.9648C118.939 68.2773 118.107 67.9336 117.091 67.9336ZM134.956 67.0312L132.975 69.0117C132.171 68.2148 131.44 67.8164 130.784 67.8164C130.425 67.8164 130.143 67.8945 129.94 68.0508C129.737 68.1992 129.635 68.3867 129.635 68.6133C129.635 68.7852 129.698 68.9453 129.823 69.0938C129.956 69.2344 130.276 69.4297 130.784 69.6797L131.956 70.2656C133.19 70.875 134.038 71.4961 134.499 72.1289C134.96 72.7617 135.19 73.5039 135.19 74.3555C135.19 75.4883 134.772 76.4336 133.936 77.1914C133.108 77.9492 131.995 78.3281 130.596 78.3281C128.737 78.3281 127.253 77.6016 126.143 76.1484L128.112 74.0039C128.487 74.4414 128.925 74.7969 129.425 75.0703C129.932 75.3359 130.382 75.4688 130.772 75.4688C131.194 75.4688 131.534 75.3672 131.792 75.1641C132.05 74.9609 132.178 74.7266 132.178 74.4609C132.178 73.9688 131.714 73.4883 130.784 73.0195L129.706 72.4805C127.643 71.4414 126.612 70.1406 126.612 68.5781C126.612 67.5703 126.999 66.7109 127.772 66C128.553 65.2812 129.55 64.9219 130.76 64.9219C131.589 64.9219 132.366 65.1055 133.093 65.4727C133.827 65.832 134.448 66.3516 134.956 67.0312ZM155.31 60.3281H158.497V78H155.31V76.6523C154.685 77.2461 154.056 77.6758 153.423 77.9414C152.798 78.1992 152.118 78.3281 151.384 78.3281C149.736 78.3281 148.31 77.6914 147.107 76.418C145.904 75.1367 145.302 73.5469 145.302 71.6484C145.302 69.6797 145.884 68.0664 147.048 66.8086C148.212 65.5508 149.626 64.9219 151.29 64.9219C152.056 64.9219 152.775 65.0664 153.447 65.3555C154.118 65.6445 154.74 66.0781 155.31 66.6562V60.3281ZM151.947 67.875C150.954 67.875 150.13 68.2266 149.474 68.9297C148.818 69.625 148.49 70.5195 148.49 71.6133C148.49 72.7148 148.822 73.6211 149.486 74.332C150.158 75.043 150.982 75.3984 151.958 75.3984C152.966 75.3984 153.802 75.0508 154.466 74.3555C155.13 73.6523 155.462 72.7344 155.462 71.6016C155.462 70.4922 155.13 69.5938 154.466 68.9062C153.802 68.2188 152.962 67.875 151.947 67.875ZM171.874 65.25H175.061V78H171.874V76.6523C171.249 77.2461 170.62 77.6758 169.987 77.9414C169.362 78.1992 168.682 78.3281 167.948 78.3281C166.299 78.3281 164.874 77.6914 163.67 76.418C162.467 75.1367 161.866 73.5469 161.866 71.6484C161.866 69.6797 162.448 68.0664 163.612 66.8086C164.776 65.5508 166.19 64.9219 167.854 64.9219C168.62 64.9219 169.338 65.0664 170.01 65.3555C170.682 65.6445 171.303 66.0781 171.874 66.6562V65.25ZM168.51 67.875C167.518 67.875 166.694 68.2266 166.038 68.9297C165.381 69.625 165.053 70.5195 165.053 71.6133C165.053 72.7148 165.385 73.6211 166.049 74.332C166.721 75.043 167.545 75.3984 168.522 75.3984C169.53 75.3984 170.366 75.0508 171.03 74.3555C171.694 73.6523 172.026 72.7344 172.026 71.6016C172.026 70.4922 171.694 69.5938 171.03 68.9062C170.366 68.2188 169.526 67.875 168.51 67.875ZM179.402 60.5508H182.59V65.25H184.488V68.0039H182.59V78H179.402V68.0039H177.762V65.25H179.402V60.5508ZM192.919 64.9219C194.122 64.9219 195.251 65.2227 196.306 65.8242C197.368 66.4258 198.196 67.2422 198.79 68.2734C199.384 69.3047 199.681 70.418 199.681 71.6133C199.681 72.8164 199.38 73.9414 198.778 74.9883C198.185 76.0352 197.372 76.8555 196.341 77.4492C195.31 78.0352 194.173 78.3281 192.931 78.3281C191.103 78.3281 189.54 77.6797 188.243 76.3828C186.954 75.0781 186.31 73.4961 186.31 71.6367C186.31 69.6445 187.04 67.9844 188.501 66.6562C189.782 65.5 191.255 64.9219 192.919 64.9219ZM192.966 67.9336C191.974 67.9336 191.146 68.2812 190.482 68.9766C189.825 69.6641 189.497 70.5469 189.497 71.625C189.497 72.7344 189.821 73.6328 190.47 74.3203C191.126 75.0078 191.954 75.3516 192.954 75.3516C193.954 75.3516 194.786 75.0039 195.45 74.3086C196.114 73.6133 196.446 72.7188 196.446 71.625C196.446 70.5312 196.118 69.6445 195.462 68.9648C194.814 68.2773 193.982 67.9336 192.966 67.9336ZM210.83 67.0312L208.85 69.0117C208.045 68.2148 207.315 67.8164 206.659 67.8164C206.299 67.8164 206.018 67.8945 205.815 68.0508C205.612 68.1992 205.51 68.3867 205.51 68.6133C205.51 68.7852 205.573 68.9453 205.698 69.0938C205.83 69.2344 206.151 69.4297 206.659 69.6797L207.83 70.2656C209.065 70.875 209.912 71.4961 210.373 72.1289C210.834 72.7617 211.065 73.5039 211.065 74.3555C211.065 75.4883 210.647 76.4336 209.811 77.1914C208.983 77.9492 207.87 78.3281 206.471 78.3281C204.612 78.3281 203.127 77.6016 202.018 76.1484L203.987 74.0039C204.362 74.4414 204.799 74.7969 205.299 75.0703C205.807 75.3359 206.256 75.4688 206.647 75.4688C207.069 75.4688 207.409 75.3672 207.666 75.1641C207.924 74.9609 208.053 74.7266 208.053 74.4609C208.053 73.9688 207.588 73.4883 206.659 73.0195L205.58 72.4805C203.518 71.4414 202.487 70.1406 202.487 68.5781C202.487 67.5703 202.873 66.7109 203.647 66C204.428 65.2812 205.424 64.9219 206.635 64.9219C207.463 64.9219 208.241 65.1055 208.967 65.4727C209.702 65.832 210.323 66.3516 210.83 67.0312Z" fill="#444242"/>
<path d="M144.5 110.68C128.609 110.68 115.68 123.609 115.68 139.5C115.68 155.392 128.609 168.321 144.5 168.321C160.392 168.321 173.321 155.392 173.321 139.5C173.321 123.609 160.392 110.68 144.5 110.68ZM129.562 158.901C130.211 155.575 132.327 152.717 135.382 151.117L137.886 149.806C139.278 149.077 140.215 147.769 140.456 146.217C140.698 144.654 140.197 143.11 139.079 141.981C137.657 140.545 136.873 138.64 136.873 136.619V133.374C136.873 129.169 140.295 125.748 144.5 125.748C148.706 125.748 152.127 129.169 152.127 133.374V136.619C152.127 138.64 151.343 140.545 149.921 141.981C148.804 143.11 148.302 144.653 148.545 146.217C148.785 147.769 149.722 149.077 151.114 149.806L153.618 151.117C156.675 152.717 158.791 155.575 159.439 158.9C155.301 162.094 150.119 163.997 144.5 163.997C138.882 163.997 133.7 162.094 129.562 158.901ZM162.974 155.57C161.648 152.047 159.067 149.089 155.624 147.286L153.12 145.975C152.907 145.863 152.838 145.685 152.818 145.554C152.8 145.44 152.799 145.22 152.994 145.024C155.223 142.772 156.451 139.787 156.451 136.619V133.374C156.451 126.785 151.09 121.423 144.5 121.423C137.91 121.423 132.549 126.785 132.549 133.374V136.619C132.549 139.787 133.777 142.772 136.007 145.024C136.201 145.22 136.2 145.44 136.183 145.554C136.162 145.685 136.093 145.863 135.88 145.975L133.376 147.286C129.934 149.088 127.353 152.047 126.027 155.571C122.278 151.266 120.004 145.644 120.004 139.5C120.004 125.993 130.993 115.004 144.5 115.004C158.007 115.004 168.996 125.993 168.996 139.5C168.997 145.644 166.723 151.265 162.974 155.57Z" fill="#3497DB"/>
<path d="M170.592 113.408C163.623 106.438 154.356 102.6 144.5 102.6C134.644 102.6 125.377 106.438 118.408 113.408C111.438 120.377 107.6 129.644 107.6 139.5C107.6 149.357 111.438 158.623 118.408 165.592C125.377 172.562 134.644 176.4 144.5 176.4C154.356 176.4 163.623 172.562 170.592 165.592C177.562 158.623 181.4 149.357 181.4 139.5C181.4 129.644 177.562 120.377 170.592 113.408ZM167.535 162.535C161.382 168.688 153.201 172.076 144.5 172.076C135.799 172.076 127.618 168.688 121.465 162.535C115.313 156.382 111.924 148.201 111.924 139.5C111.924 130.799 115.313 122.618 121.465 116.466C127.618 110.313 135.799 106.924 144.5 106.924C153.201 106.924 161.382 110.313 167.535 116.465C173.688 122.618 177.076 130.799 177.076 139.5C177.076 148.201 173.687 156.382 167.535 162.535Z" fill="#3497DB"/>
<defs>
<filter id="filter0_d" x="0" y="0" width="308" height="230" filterUnits="userSpaceOnUse" color-interpolation-filters="sRGB">
<feFlood flood-opacity="0" result="BackgroundImageFix"/>
<feColorMatrix in="SourceAlpha" type="matrix" values="0 0 0 0 0 0 0 0 0 0 0 0 0 0 0 0 0 0 127 0"/>
<feOffset dx="10" dy="10"/>
<feGaussianBlur stdDeviation="7.5"/>
<feColorMatrix type="matrix" values="0 0 0 0 0 0 0 0 0 0 0 0 0 0 0 0 0 0 0.2 0"/>
<feBlend mode="multiply" in2="BackgroundImageFix" result="effect1_dropShadow"/>
<feBlend mode="normal" in="SourceGraphic" in2="effect1_dropShadow" result="shape"/>
</filter>
<linearGradient id="paint0_linear" x1="144" y1="5" x2="144" y2="205" gradientUnits="userSpaceOnUse">
<stop stop-color="white"/>
<stop offset="1" stop-color="white" stop-opacity="0"/>
</linearGradient>
</defs>
</svg>
