<svg width="308" height="230" viewBox="0 0 308 230" fill="none" xmlns="http://www.w3.org/2000/svg">
<g filter="url(#filter0_d)">
<rect x="5" y="5" width="278" height="200" rx="15" fill="#F5F8FA"/>
<rect x="5" y="5" width="278" height="200" rx="15" fill="url(#paint0_linear)"/>
</g>
<rect x="57" y="52" width="171" height="31" fill="#FAFCFD" fill-opacity="0.5"/>
<path d="M107.199 40.7969L104.902 42.9883C103.339 41.3398 101.582 40.5156 99.6284 40.5156C97.98 40.5156 96.5894 41.0781 95.4566 42.2031C94.3316 43.3281 93.7691 44.7148 93.7691 46.3633C93.7691 47.5117 94.0191 48.5312 94.5191 49.4219C95.0191 50.3125 95.7261 51.0117 96.6402 51.5195C97.5542 52.0273 98.5698 52.2812 99.687 52.2812C100.64 52.2812 101.511 52.1055 102.3 51.7539C103.089 51.3945 103.957 50.7461 104.902 49.8086L107.128 52.1289C105.855 53.3711 104.652 54.2344 103.519 54.7188C102.386 55.1953 101.093 55.4336 99.6402 55.4336C96.9605 55.4336 94.7652 54.5859 93.0542 52.8906C91.3511 51.1875 90.4995 49.0078 90.4995 46.3516C90.4995 44.6328 90.8862 43.1055 91.6597 41.7695C92.4409 40.4336 93.5542 39.3594 94.9995 38.5469C96.4527 37.7344 98.0152 37.3281 99.687 37.3281C101.109 37.3281 102.476 37.6289 103.789 38.2305C105.109 38.832 106.246 39.6875 107.199 40.7969ZM116.438 41.9219C117.641 41.9219 118.77 42.2227 119.825 42.8242C120.887 43.4258 121.716 44.2422 122.309 45.2734C122.903 46.3047 123.2 47.418 123.2 48.6133C123.2 49.8164 122.899 50.9414 122.298 51.9883C121.704 53.0352 120.891 53.8555 119.86 54.4492C118.829 55.0352 117.692 55.3281 116.45 55.3281C114.622 55.3281 113.059 54.6797 111.762 53.3828C110.473 52.0781 109.829 50.4961 109.829 48.6367C109.829 46.6445 110.559 44.9844 112.02 43.6562C113.302 42.5 114.774 41.9219 116.438 41.9219ZM116.485 44.9336C115.493 44.9336 114.665 45.2812 114.001 45.9766C113.345 46.6641 113.016 47.5469 113.016 48.625C113.016 49.7344 113.341 50.6328 113.989 51.3203C114.645 52.0078 115.473 52.3516 116.473 52.3516C117.473 52.3516 118.305 52.0039 118.97 51.3086C119.634 50.6133 119.966 49.7188 119.966 48.625C119.966 47.5312 119.637 46.6445 118.981 45.9648C118.333 45.2773 117.501 44.9336 116.485 44.9336ZM134.35 44.0312L132.369 46.0117C131.565 45.2148 130.834 44.8164 130.178 44.8164C129.818 44.8164 129.537 44.8945 129.334 45.0508C129.131 45.1992 129.029 45.3867 129.029 45.6133C129.029 45.7852 129.092 45.9453 129.217 46.0938C129.35 46.2344 129.67 46.4297 130.178 46.6797L131.35 47.2656C132.584 47.875 133.432 48.4961 133.893 49.1289C134.354 49.7617 134.584 50.5039 134.584 51.3555C134.584 52.4883 134.166 53.4336 133.33 54.1914C132.502 54.9492 131.389 55.3281 129.99 55.3281C128.131 55.3281 126.647 54.6016 125.537 53.1484L127.506 51.0039C127.881 51.4414 128.318 51.7969 128.818 52.0703C129.326 52.3359 129.775 52.4688 130.166 52.4688C130.588 52.4688 130.928 52.3672 131.186 52.1641C131.443 51.9609 131.572 51.7266 131.572 51.4609C131.572 50.9688 131.107 50.4883 130.178 50.0195L129.1 49.4805C127.037 48.4414 126.006 47.1406 126.006 45.5781C126.006 44.5703 126.393 43.7109 127.166 43C127.947 42.2812 128.943 41.9219 130.154 41.9219C130.982 41.9219 131.76 42.1055 132.486 42.4727C133.221 42.832 133.842 43.3516 134.35 44.0312ZM138.222 37.5508H141.41V42.25H143.308V45.0039H141.41V55H138.222V45.0039H136.581V42.25H138.222V37.5508ZM151.739 41.9219C152.942 41.9219 154.071 42.2227 155.126 42.8242C156.188 43.4258 157.016 44.2422 157.61 45.2734C158.204 46.3047 158.501 47.418 158.501 48.6133C158.501 49.8164 158.2 50.9414 157.598 51.9883C157.005 53.0352 156.192 53.8555 155.161 54.4492C154.13 55.0352 152.993 55.3281 151.751 55.3281C149.923 55.3281 148.36 54.6797 147.063 53.3828C145.774 52.0781 145.13 50.4961 145.13 48.6367C145.13 46.6445 145.86 44.9844 147.321 43.6562C148.602 42.5 150.075 41.9219 151.739 41.9219ZM151.786 44.9336C150.794 44.9336 149.965 45.2812 149.301 45.9766C148.645 46.6641 148.317 47.5469 148.317 48.625C148.317 49.7344 148.641 50.6328 149.29 51.3203C149.946 52.0078 150.774 52.3516 151.774 52.3516C152.774 52.3516 153.606 52.0039 154.27 51.3086C154.934 50.6133 155.266 49.7188 155.266 48.625C155.266 47.5312 154.938 46.6445 154.282 45.9648C153.633 45.2773 152.801 44.9336 151.786 44.9336ZM178.714 37.3281H181.902V55H178.714V53.6523C178.089 54.2461 177.46 54.6758 176.827 54.9414C176.202 55.1992 175.523 55.3281 174.788 55.3281C173.14 55.3281 171.714 54.6914 170.511 53.418C169.308 52.1367 168.706 50.5469 168.706 48.6484C168.706 46.6797 169.288 45.0664 170.452 43.8086C171.616 42.5508 173.03 41.9219 174.695 41.9219C175.46 41.9219 176.179 42.0664 176.851 42.3555C177.523 42.6445 178.144 43.0781 178.714 43.6562V37.3281ZM175.351 44.875C174.359 44.875 173.534 45.2266 172.878 45.9297C172.222 46.625 171.894 47.5195 171.894 48.6133C171.894 49.7148 172.226 50.6211 172.89 51.332C173.562 52.043 174.386 52.3984 175.363 52.3984C176.37 52.3984 177.206 52.0508 177.87 51.3555C178.534 50.6523 178.866 49.7344 178.866 48.6016C178.866 47.4922 178.534 46.5938 177.87 45.9062C177.206 45.2188 176.366 44.875 175.351 44.875ZM198.629 49.5508H188.352C188.5 50.457 188.895 51.1797 189.536 51.7188C190.184 52.25 191.008 52.5156 192.008 52.5156C193.204 52.5156 194.231 52.0977 195.09 51.2617L197.786 52.5273C197.114 53.4805 196.309 54.1875 195.372 54.6484C194.434 55.1016 193.321 55.3281 192.032 55.3281C190.032 55.3281 188.403 54.6992 187.145 53.4414C185.887 52.1758 185.258 50.5938 185.258 48.6953C185.258 46.75 185.883 45.1367 187.133 43.8555C188.391 42.5664 189.965 41.9219 191.856 41.9219C193.864 41.9219 195.497 42.5664 196.754 43.8555C198.012 45.1367 198.641 46.832 198.641 48.9414L198.629 49.5508ZM195.418 47.0312C195.208 46.3203 194.79 45.7422 194.165 45.2969C193.547 44.8516 192.829 44.6289 192.008 44.6289C191.118 44.6289 190.336 44.8789 189.665 45.3789C189.243 45.6914 188.852 46.2422 188.493 47.0312H195.418ZM110.863 76.5508H100.586C100.735 77.457 101.129 78.1797 101.77 78.7188C102.418 79.25 103.242 79.5156 104.242 79.5156C105.438 79.5156 106.465 79.0977 107.324 78.2617L110.02 79.5273C109.348 80.4805 108.543 81.1875 107.606 81.6484C106.668 82.1016 105.555 82.3281 104.266 82.3281C102.266 82.3281 100.637 81.6992 99.3791 80.4414C98.1213 79.1758 97.4923 77.5938 97.4923 75.6953C97.4923 73.75 98.1173 72.1367 99.3673 70.8555C100.625 69.5664 102.199 68.9219 104.09 68.9219C106.098 68.9219 107.731 69.5664 108.988 70.8555C110.246 72.1367 110.875 73.832 110.875 75.9414L110.863 76.5508ZM107.653 74.0312C107.442 73.3203 107.024 72.7422 106.399 72.2969C105.781 71.8516 105.063 71.6289 104.242 71.6289C103.352 71.6289 102.57 71.8789 101.899 72.3789C101.477 72.6914 101.086 73.2422 100.727 74.0312H107.653ZM114.185 69.25H117.372V70.5508C118.099 69.9414 118.755 69.5195 119.341 69.2852C119.935 69.043 120.54 68.9219 121.158 68.9219C122.423 68.9219 123.497 69.3633 124.38 70.2461C125.122 70.9961 125.494 72.1055 125.494 73.5742V82H122.33V76.4102C122.33 74.8867 122.259 73.875 122.119 73.375C121.986 72.875 121.747 72.4961 121.404 72.2383C121.068 71.9727 120.65 71.8398 120.15 71.8398C119.501 71.8398 118.943 72.0586 118.474 72.4961C118.013 72.9258 117.693 73.5234 117.513 74.2891C117.419 74.6875 117.372 75.5508 117.372 76.8789V82H114.185V69.25ZM129.706 64.5508H132.893V69.25H134.792V72.0039H132.893V82H129.706V72.0039H128.065V69.25H129.706V64.5508ZM136.484 69.25H139.227V70.8555C139.523 70.2227 139.918 69.7422 140.41 69.4141C140.902 69.0859 141.441 68.9219 142.027 68.9219C142.441 68.9219 142.875 69.0312 143.328 69.25L142.332 72.0039C141.957 71.8164 141.648 71.7227 141.406 71.7227C140.914 71.7227 140.496 72.0273 140.152 72.6367C139.816 73.2461 139.648 74.4414 139.648 76.2227L139.66 76.8438V82H136.484V69.25ZM158.415 76.5508H148.138C148.286 77.457 148.681 78.1797 149.322 78.7188C149.97 79.25 150.794 79.5156 151.794 79.5156C152.99 79.5156 154.017 79.0977 154.876 78.2617L157.572 79.5273C156.9 80.4805 156.095 81.1875 155.158 81.6484C154.22 82.1016 153.107 82.3281 151.818 82.3281C149.818 82.3281 148.189 81.6992 146.931 80.4414C145.673 79.1758 145.044 77.5938 145.044 75.6953C145.044 73.75 145.669 72.1367 146.919 70.8555C148.177 69.5664 149.751 68.9219 151.642 68.9219C153.65 68.9219 155.283 69.5664 156.54 70.8555C157.798 72.1367 158.427 73.832 158.427 75.9414L158.415 76.5508ZM155.204 74.0312C154.993 73.3203 154.575 72.7422 153.95 72.2969C153.333 71.8516 152.615 71.6289 151.794 71.6289C150.904 71.6289 150.122 71.8789 149.45 72.3789C149.029 72.6914 148.638 73.2422 148.279 74.0312H155.204ZM171.159 69.25H174.346V80.1719C174.346 82.3281 173.913 83.9141 173.045 84.9297C171.881 86.3047 170.128 86.9922 167.784 86.9922C166.534 86.9922 165.483 86.8359 164.631 86.5234C163.78 86.2109 163.061 85.75 162.475 85.1406C161.889 84.5391 161.456 83.8047 161.174 82.9375H164.702C165.014 83.2969 165.417 83.5664 165.909 83.7461C166.401 83.9336 166.983 84.0273 167.655 84.0273C168.514 84.0273 169.206 83.8945 169.729 83.6289C170.253 83.3633 170.62 83.0195 170.831 82.5977C171.049 82.1758 171.159 81.4492 171.159 80.418C170.596 80.9805 170.006 81.3867 169.389 81.6367C168.772 81.8789 168.073 82 167.292 82C165.581 82 164.135 81.3828 162.956 80.1484C161.776 78.9141 161.186 77.3516 161.186 75.4609C161.186 73.4375 161.811 71.8125 163.061 70.5859C164.194 69.4766 165.545 68.9219 167.116 68.9219C167.85 68.9219 168.542 69.0586 169.19 69.332C169.846 69.5977 170.503 70.0391 171.159 70.6562V69.25ZM167.842 71.9102C166.835 71.9102 166.003 72.25 165.346 72.9297C164.69 73.6016 164.362 74.4492 164.362 75.4727C164.362 76.5352 164.698 77.4062 165.37 78.0859C166.042 78.7656 166.885 79.1055 167.901 79.1055C168.893 79.1055 169.71 78.7734 170.35 78.1094C170.999 77.4453 171.323 76.5742 171.323 75.4961C171.323 74.4336 170.999 73.5703 170.35 72.9062C169.702 72.2422 168.866 71.9102 167.842 71.9102ZM187.723 69.25H190.91V82H187.723V80.6523C187.098 81.2461 186.469 81.6758 185.836 81.9414C185.211 82.1992 184.531 82.3281 183.797 82.3281C182.148 82.3281 180.723 81.6914 179.519 80.418C178.316 79.1367 177.715 77.5469 177.715 75.6484C177.715 73.6797 178.297 72.0664 179.461 70.8086C180.625 69.5508 182.039 68.9219 183.703 68.9219C184.469 68.9219 185.187 69.0664 185.859 69.3555C186.531 69.6445 187.152 70.0781 187.723 70.6562V69.25ZM184.359 71.875C183.367 71.875 182.543 72.2266 181.887 72.9297C181.23 73.625 180.902 74.5195 180.902 75.6133C180.902 76.7148 181.234 77.6211 181.898 78.332C182.57 79.043 183.394 79.3984 184.371 79.3984C185.379 79.3984 186.215 79.0508 186.879 78.3555C187.543 77.6523 187.875 76.7344 187.875 75.6016C187.875 74.4922 187.543 73.5938 186.879 72.9062C186.215 72.2188 185.375 71.875 184.359 71.875Z" fill="#444242"/>
<g filter="url(#filter1_d)">
<rect x="185.909" y="99" width="71" height="83.9091" rx="14.9762" transform="rotate(90 185.909 99)" fill="#3497DB"/>
</g>
<path d="M161.131 131.208C159.821 131.208 158.567 131.453 157.413 131.898C156.508 129.888 155.726 127.761 155.336 125.783C154.709 122.606 151.901 120.3 148.66 120.3C147.838 120.3 147.172 120.966 147.172 121.788C147.172 122.609 147.838 123.275 148.66 123.275C149.014 123.275 149.359 123.324 149.687 123.416C150.685 123.695 151.532 124.37 152.025 125.276C151.985 125.327 151.947 125.38 151.914 125.437L151.451 126.215L149.113 130.151H136.622L135.912 128.364H136.207C137.028 128.364 137.694 127.698 137.694 126.876C137.694 126.055 137.028 125.389 136.207 125.389H131.078C130.257 125.389 129.591 126.055 129.591 126.876C129.591 127.698 130.257 128.364 131.078 128.364H132.711L134.009 131.63C133.079 131.356 132.096 131.208 131.078 131.208C125.366 131.208 120.718 135.855 120.718 141.567C120.718 147.28 125.366 151.927 131.078 151.927C136.285 151.927 140.607 148.065 141.331 143.055H144.062C144.587 143.055 145.073 142.778 145.341 142.327L153.158 129.167C153.617 130.586 154.191 132.008 154.809 133.366C152.355 135.263 150.772 138.233 150.772 141.568C150.772 147.28 155.419 151.927 161.131 151.927C166.844 151.927 171.491 147.28 171.491 141.568C171.491 135.855 166.844 131.208 161.131 131.208ZM131.078 143.055H138.312C137.622 146.416 134.641 148.952 131.078 148.952C127.006 148.952 123.693 145.639 123.693 141.567C123.693 137.495 127.006 134.183 131.078 134.183C134.641 134.183 137.622 136.718 138.312 140.08H131.078C130.256 140.08 129.59 140.746 129.59 141.567C129.59 142.389 130.256 143.055 131.078 143.055ZM143.216 140.08H141.331C140.985 137.69 139.822 135.562 138.133 133.989C138.118 133.929 138.1 133.87 138.076 133.811L137.804 133.126H147.346L143.216 140.08ZM161.131 148.952C157.059 148.952 153.747 145.639 153.747 141.567C153.747 139.41 154.677 137.466 156.156 136.115C157.986 139.611 159.773 142.217 159.907 142.412C160.196 142.831 160.66 143.055 161.133 143.055C161.424 143.055 161.718 142.969 161.976 142.791C162.653 142.325 162.822 141.398 162.356 140.722C162.324 140.676 160.524 138.051 158.721 134.589C159.477 134.327 160.288 134.182 161.131 134.182C165.203 134.182 168.516 137.495 168.516 141.567C168.516 145.639 165.203 148.952 161.131 148.952Z" fill="#F5F8FA"/>
<path d="M161.131 131.208C159.821 131.208 158.567 131.453 157.413 131.898C156.508 129.888 155.726 127.761 155.336 125.783C154.709 122.606 151.901 120.3 148.66 120.3C147.838 120.3 147.172 120.966 147.172 121.788C147.172 122.609 147.838 123.275 148.66 123.275C149.014 123.275 149.359 123.324 149.687 123.416C150.685 123.695 151.532 124.37 152.025 125.276C151.985 125.327 151.947 125.38 151.914 125.437L151.451 126.215L149.113 130.151H136.622L135.912 128.364H136.207C137.028 128.364 137.694 127.698 137.694 126.876C137.694 126.055 137.028 125.389 136.207 125.389H131.078C130.257 125.389 129.591 126.055 129.591 126.876C129.591 127.698 130.257 128.364 131.078 128.364H132.711L134.009 131.63C133.079 131.356 132.096 131.208 131.078 131.208C125.366 131.208 120.718 135.855 120.718 141.567C120.718 147.28 125.366 151.927 131.078 151.927C136.285 151.927 140.607 148.065 141.331 143.055H144.062C144.587 143.055 145.073 142.778 145.341 142.327L153.158 129.167C153.617 130.586 154.191 132.008 154.809 133.366C152.355 135.263 150.772 138.233 150.772 141.568C150.772 147.28 155.419 151.927 161.131 151.927C166.844 151.927 171.491 147.28 171.491 141.568C171.491 135.855 166.844 131.208 161.131 131.208ZM131.078 143.055H138.312C137.622 146.416 134.641 148.952 131.078 148.952C127.006 148.952 123.693 145.639 123.693 141.567C123.693 137.495 127.006 134.183 131.078 134.183C134.641 134.183 137.622 136.718 138.312 140.08H131.078C130.256 140.08 129.59 140.746 129.59 141.567C129.59 142.389 130.256 143.055 131.078 143.055ZM143.216 140.08H141.331C140.985 137.69 139.822 135.562 138.133 133.989C138.118 133.929 138.1 133.87 138.076 133.811L137.804 133.126H147.346L143.216 140.08ZM161.131 148.952C157.059 148.952 153.747 145.639 153.747 141.567C153.747 139.41 154.677 137.466 156.156 136.115C157.986 139.611 159.773 142.217 159.907 142.412C160.196 142.831 160.66 143.055 161.133 143.055C161.424 143.055 161.718 142.969 161.976 142.791C162.653 142.325 162.822 141.398 162.356 140.722C162.324 140.676 160.524 138.051 158.721 134.589C159.477 134.327 160.288 134.182 161.131 134.182C165.203 134.182 168.516 137.495 168.516 141.567C168.516 145.639 165.203 148.952 161.131 148.952Z" fill="url(#paint1_linear)"/>
<path d="M107.055 99C99.3603 99 93 105.251 93 112.945C93 120.64 99.3603 127 107.055 127C114.749 127 121 120.64 121 112.945C121 105.251 114.749 99 107.055 99Z" fill="#FEDB41"/>
<path d="M121 112.945C121 120.64 114.749 127 107.055 127V99C114.749 99 121 105.251 121 112.945Z" fill="#FFCC33"/>
<path d="M107.055 102.281C101.181 102.281 96.2812 107.072 96.2812 112.945C96.2812 118.819 101.181 123.719 107.055 123.719C112.928 123.719 117.719 118.819 117.719 112.945C117.719 107.072 112.928 102.281 107.055 102.281Z" fill="#FEA832"/>
<path d="M117.719 112.945C117.719 118.819 112.928 123.719 107.055 123.719V102.281C112.928 102.281 117.719 107.072 117.719 112.945Z" fill="#FE9923"/>
<path d="M108.695 112.125H107.875V108.844H108.695C109.155 108.844 109.516 109.205 109.516 109.664C109.516 110.747 111.156 110.747 111.156 109.664C111.156 108.302 110.057 107.203 108.695 107.203H107.875V106.383C107.875 105.841 107.465 105.562 107.055 105.562C106.645 105.562 106.234 105.841 106.234 106.383V107.203H105.305C103.943 107.203 102.844 108.302 102.844 109.664V111.305C102.844 112.666 103.943 113.766 105.305 113.766H106.234V117.156H105.305C104.845 117.156 104.484 116.795 104.484 116.336C104.484 115.253 102.844 115.253 102.844 116.336C102.844 117.698 103.943 118.797 105.305 118.797H106.234V119.617C106.234 120.159 106.645 120.438 107.055 120.438C107.465 120.438 107.875 120.159 107.875 119.617V118.797H108.695C110.057 118.797 111.156 117.698 111.156 116.336V114.586C111.156 113.224 110.057 112.125 108.695 112.125ZM106.234 112.125H105.305C104.845 112.125 104.484 111.764 104.484 111.305V109.664C104.484 109.205 104.845 108.844 105.305 108.844H106.234V112.125ZM109.516 116.336C109.516 116.795 109.155 117.156 108.695 117.156H107.875V113.766H108.695C109.155 113.766 109.516 114.127 109.516 114.586V116.336Z" fill="#FEDB41"/>
<path d="M108.695 112.125H107.875V108.844H108.695C109.155 108.844 109.516 109.205 109.516 109.664C109.516 110.747 111.156 110.747 111.156 109.664C111.156 108.302 110.057 107.203 108.695 107.203H107.875V106.383C107.875 105.841 107.465 105.562 107.055 105.562V120.438C107.465 120.438 107.875 120.159 107.875 119.617V118.797H108.695C110.057 118.797 111.156 117.698 111.156 116.336V114.586C111.156 113.224 110.057 112.125 108.695 112.125ZM109.516 116.336C109.516 116.795 109.155 117.156 108.695 117.156H107.875V113.766H108.695C109.155 113.766 109.516 114.127 109.516 114.586V116.336Z" fill="#FFCC33"/>
<defs>
<filter id="filter0_d" x="0" y="0" width="308" height="230" filterUnits="userSpaceOnUse" color-interpolation-filters="sRGB">
<feFlood flood-opacity="0" result="BackgroundImageFix"/>
<feColorMatrix in="SourceAlpha" type="matrix" values="0 0 0 0 0 0 0 0 0 0 0 0 0 0 0 0 0 0 127 0"/>
<feOffset dx="10" dy="10"/>
<feGaussianBlur stdDeviation="7.5"/>
<feColorMatrix type="matrix" values="0 0 0 0 0 0 0 0 0 0 0 0 0 0 0 0 0 0 0.2 0"/>
<feBlend mode="multiply" in2="BackgroundImageFix" result="effect1_dropShadow"/>
<feBlend mode="normal" in="SourceGraphic" in2="effect1_dropShadow" result="shape"/>
</filter>
<filter id="filter1_d" x="92.3182" y="89.3182" width="109.727" height="96.8182" filterUnits="userSpaceOnUse" color-interpolation-filters="sRGB">
<feFlood flood-opacity="0" result="BackgroundImageFix"/>
<feColorMatrix in="SourceAlpha" type="matrix" values="0 0 0 0 0 0 0 0 0 0 0 0 0 0 0 0 0 0 127 0"/>
<feOffset dx="3.22727" dy="3.22727"/>
<feGaussianBlur stdDeviation="6.45454"/>
<feColorMatrix type="matrix" values="0 0 0 0 0 0 0 0 0 0 0 0 0 0 0 0 0 0 0.15 0"/>
<feBlend mode="normal" in2="BackgroundImageFix" result="effect1_dropShadow"/>
<feBlend mode="normal" in="SourceGraphic" in2="effect1_dropShadow" result="shape"/>
</filter>
<linearGradient id="paint0_linear" x1="144" y1="5" x2="144" y2="205" gradientUnits="userSpaceOnUse">
<stop stop-color="white"/>
<stop offset="1" stop-color="white" stop-opacity="0"/>
</linearGradient>
<linearGradient id="paint1_linear" x1="146.105" y1="120.3" x2="146.105" y2="151.927" gradientUnits="userSpaceOnUse">
<stop stop-color="white"/>
<stop offset="1" stop-color="white" stop-opacity="0"/>
</linearGradient>
</defs>
</svg>
