<svg width="308" height="230" viewBox="0 0 308 230" fill="none" xmlns="http://www.w3.org/2000/svg">
<g filter="url(#filter0_d)">
<rect x="5" y="5" width="278" height="200" rx="15" fill="#F5F8FA"/>
<rect x="5" y="5" width="278" height="200" rx="15" fill="url(#paint0_linear)"/>
</g>
<rect x="57" y="52" width="171" height="31" fill="#FAFCFD" fill-opacity="0.5"/>
<path d="M112.146 37.7617H116.037C118.544 37.7617 120.408 38.0742 121.626 38.6992C122.845 39.3164 123.849 40.3242 124.638 41.7227C125.427 43.1211 125.822 44.7539 125.822 46.6211C125.822 47.9492 125.599 49.1719 125.154 50.2891C124.716 51.3984 124.107 52.3203 123.326 53.0547C122.552 53.7891 121.712 54.2969 120.806 54.5781C119.9 54.8594 118.33 55 116.095 55H112.146V37.7617ZM115.415 40.9258V51.7891H116.939C118.439 51.7891 119.525 51.6172 120.197 51.2734C120.876 50.9297 121.431 50.3516 121.861 49.5391C122.29 48.7266 122.505 47.7266 122.505 46.5391C122.505 44.7109 121.994 43.293 120.97 42.2852C120.048 41.3789 118.568 40.9258 116.529 40.9258H115.415ZM138.729 42.25H141.917V55H138.729V53.6523C138.104 54.2461 137.475 54.6758 136.842 54.9414C136.217 55.1992 135.538 55.3281 134.803 55.3281C133.155 55.3281 131.729 54.6914 130.526 53.418C129.323 52.1367 128.721 50.5469 128.721 48.6484C128.721 46.6797 129.303 45.0664 130.467 43.8086C131.632 42.5508 133.046 41.9219 134.71 41.9219C135.475 41.9219 136.194 42.0664 136.866 42.3555C137.538 42.6445 138.159 43.0781 138.729 43.6562V42.25ZM135.366 44.875C134.374 44.875 133.55 45.2266 132.893 45.9297C132.237 46.625 131.909 47.5195 131.909 48.6133C131.909 49.7148 132.241 50.6211 132.905 51.332C133.577 52.043 134.401 52.3984 135.378 52.3984C136.385 52.3984 137.221 52.0508 137.885 51.3555C138.55 50.6523 138.882 49.7344 138.882 48.6016C138.882 47.4922 138.55 46.5938 137.885 45.9062C137.221 45.2188 136.382 44.875 135.366 44.875ZM146.258 37.5508H149.445V42.25H151.344V45.0039H149.445V55H146.258V45.0039H144.617V42.25H146.258V37.5508ZM159.775 41.9219C160.978 41.9219 162.107 42.2227 163.161 42.8242C164.224 43.4258 165.052 44.2422 165.646 45.2734C166.24 46.3047 166.536 47.418 166.536 48.6133C166.536 49.8164 166.236 50.9414 165.634 51.9883C165.04 53.0352 164.228 53.8555 163.197 54.4492C162.165 55.0352 161.029 55.3281 159.786 55.3281C157.958 55.3281 156.396 54.6797 155.099 53.3828C153.81 52.0781 153.165 50.4961 153.165 48.6367C153.165 46.6445 153.896 44.9844 155.357 43.6562C156.638 42.5 158.111 41.9219 159.775 41.9219ZM159.822 44.9336C158.829 44.9336 158.001 45.2812 157.337 45.9766C156.681 46.6641 156.353 47.5469 156.353 48.625C156.353 49.7344 156.677 50.6328 157.325 51.3203C157.982 52.0078 158.81 52.3516 159.81 52.3516C160.81 52.3516 161.642 52.0039 162.306 51.3086C162.97 50.6133 163.302 49.7188 163.302 48.625C163.302 47.5312 162.974 46.6445 162.318 45.9648C161.669 45.2773 160.837 44.9336 159.822 44.9336ZM177.686 44.0312L175.706 46.0117C174.901 45.2148 174.17 44.8164 173.514 44.8164C173.155 44.8164 172.874 44.8945 172.67 45.0508C172.467 45.1992 172.366 45.3867 172.366 45.6133C172.366 45.7852 172.428 45.9453 172.553 46.0938C172.686 46.2344 173.006 46.4297 173.514 46.6797L174.686 47.2656C175.92 47.875 176.768 48.4961 177.229 49.1289C177.69 49.7617 177.92 50.5039 177.92 51.3555C177.92 52.4883 177.503 53.4336 176.667 54.1914C175.838 54.9492 174.725 55.3281 173.327 55.3281C171.467 55.3281 169.983 54.6016 168.874 53.1484L170.842 51.0039C171.217 51.4414 171.655 51.7969 172.155 52.0703C172.663 52.3359 173.112 52.4688 173.503 52.4688C173.924 52.4688 174.264 52.3672 174.522 52.1641C174.78 51.9609 174.909 51.7266 174.909 51.4609C174.909 50.9688 174.444 50.4883 173.514 50.0195L172.436 49.4805C170.374 48.4414 169.342 47.1406 169.342 45.5781C169.342 44.5703 169.729 43.7109 170.503 43C171.284 42.2812 172.28 41.9219 173.491 41.9219C174.319 41.9219 175.096 42.1055 175.823 42.4727C176.557 42.832 177.178 43.3516 177.686 44.0312ZM86.1903 82V64.7617H88.8973C90.4677 64.7617 91.6161 64.8633 92.3427 65.0664C93.3739 65.3398 94.1942 65.8477 94.8036 66.5898C95.413 67.332 95.7177 68.207 95.7177 69.2148C95.7177 69.8711 95.577 70.4688 95.2958 71.0078C95.0223 71.5391 94.5731 72.0391 93.9481 72.5078C94.995 73 95.7606 73.6172 96.245 74.3594C96.7294 75.0938 96.9716 75.9648 96.9716 76.9727C96.9716 77.9414 96.7216 78.8242 96.2216 79.6211C95.7216 80.418 95.077 81.0156 94.288 81.4141C93.4989 81.8047 92.4091 82 91.0184 82H86.1903ZM89.4716 67.8906V71.5234H90.1864C90.9833 71.5234 91.5731 71.3555 91.9559 71.0195C92.3466 70.6836 92.5419 70.2266 92.5419 69.6484C92.5419 69.1094 92.3583 68.6836 91.9911 68.3711C91.6239 68.0508 91.0653 67.8906 90.3153 67.8906H89.4716ZM89.4716 74.4531V78.8711H90.2919C91.6512 78.8711 92.5653 78.6992 93.0341 78.3555C93.5106 78.0117 93.7489 77.5117 93.7489 76.8555C93.7489 76.1133 93.4716 75.5273 92.9169 75.0977C92.3622 74.668 91.4403 74.4531 90.1512 74.4531H89.4716ZM109.902 69.25H113.09V82H109.902V80.6523C109.277 81.2461 108.649 81.6758 108.016 81.9414C107.391 82.1992 106.711 82.3281 105.977 82.3281C104.328 82.3281 102.902 81.6914 101.699 80.418C100.496 79.1367 99.8947 77.5469 99.8947 75.6484C99.8947 73.6797 100.477 72.0664 101.641 70.8086C102.805 69.5508 104.219 68.9219 105.883 68.9219C106.649 68.9219 107.367 69.0664 108.039 69.3555C108.711 69.6445 109.332 70.0781 109.902 70.6562V69.25ZM106.539 71.875C105.547 71.875 104.723 72.2266 104.067 72.9297C103.41 73.625 103.082 74.5195 103.082 75.6133C103.082 76.7148 103.414 77.6211 104.078 78.332C104.75 79.043 105.574 79.3984 106.551 79.3984C107.559 79.3984 108.395 79.0508 109.059 78.3555C109.723 77.6523 110.055 76.7344 110.055 75.6016C110.055 74.4922 109.723 73.5938 109.059 72.9062C108.395 72.2188 107.555 71.875 106.539 71.875ZM117.044 69.25H120.232V70.5508C120.958 69.9414 121.615 69.5195 122.201 69.2852C122.794 69.043 123.4 68.9219 124.017 68.9219C125.283 68.9219 126.357 69.3633 127.24 70.2461C127.982 70.9961 128.353 72.1055 128.353 73.5742V82H125.189V76.4102C125.189 74.8867 125.119 73.875 124.978 73.375C124.845 72.875 124.607 72.4961 124.263 72.2383C123.927 71.9727 123.509 71.8398 123.009 71.8398C122.361 71.8398 121.802 72.0586 121.333 72.4961C120.872 72.9258 120.552 73.5234 120.372 74.2891C120.279 74.6875 120.232 75.5508 120.232 76.8789V82H117.044V69.25ZM144.659 71.8281L141.999 73.293C141.499 72.7695 141.003 72.4062 140.51 72.2031C140.026 72 139.456 71.8984 138.8 71.8984C137.604 71.8984 136.635 72.2578 135.893 72.9766C135.159 73.6875 134.792 74.6016 134.792 75.7188C134.792 76.8047 135.147 77.6914 135.858 78.3789C136.569 79.0664 137.503 79.4102 138.659 79.4102C140.089 79.4102 141.202 78.9219 141.999 77.9453L144.518 79.668C143.151 81.4414 141.221 82.3281 138.729 82.3281C136.487 82.3281 134.729 81.6641 133.456 80.3359C132.19 79.0078 131.557 77.4531 131.557 75.6719C131.557 74.4375 131.866 73.3008 132.483 72.2617C133.1 71.2227 133.96 70.4062 135.061 69.8125C136.171 69.2188 137.409 68.9219 138.776 68.9219C140.042 68.9219 141.178 69.1758 142.186 69.6836C143.194 70.1836 144.018 70.8984 144.659 71.8281ZM157.695 69.25H160.883V82H157.695V80.6523C157.07 81.2461 156.441 81.6758 155.809 81.9414C155.184 82.1992 154.504 82.3281 153.77 82.3281C152.121 82.3281 150.695 81.6914 149.492 80.418C148.289 79.1367 147.688 77.5469 147.688 75.6484C147.688 73.6797 148.27 72.0664 149.434 70.8086C150.598 69.5508 152.012 68.9219 153.676 68.9219C154.441 68.9219 155.16 69.0664 155.832 69.3555C156.504 69.6445 157.125 70.0781 157.695 70.6562V69.25ZM154.332 71.875C153.34 71.875 152.516 72.2266 151.859 72.9297C151.203 73.625 150.875 74.5195 150.875 75.6133C150.875 76.7148 151.207 77.6211 151.871 78.332C152.543 79.043 153.367 79.3984 154.344 79.3984C155.352 79.3984 156.188 79.0508 156.852 78.3555C157.516 77.6523 157.848 76.7344 157.848 75.6016C157.848 74.4922 157.516 73.5938 156.852 72.9062C156.188 72.2188 155.348 71.875 154.332 71.875ZM164.087 69.25H166.829V70.8555C167.126 70.2227 167.521 69.7422 168.013 69.4141C168.505 69.0859 169.044 68.9219 169.63 68.9219C170.044 68.9219 170.478 69.0312 170.931 69.25L169.935 72.0039C169.56 71.8164 169.251 71.7227 169.009 71.7227C168.517 71.7227 168.099 72.0273 167.755 72.6367C167.419 73.2461 167.251 74.4414 167.251 76.2227L167.263 76.8438V82H164.087V69.25ZM174.499 64C175.061 64 175.542 64.2031 175.94 64.6094C176.346 65.0156 176.549 65.5078 176.549 66.0859C176.549 66.6562 176.35 67.1445 175.952 67.5508C175.553 67.9492 175.077 68.1484 174.522 68.1484C173.952 68.1484 173.463 67.9453 173.057 67.5391C172.659 67.125 172.46 66.625 172.46 66.0391C172.46 65.4766 172.659 64.9961 173.057 64.5977C173.456 64.1992 173.936 64 174.499 64ZM172.893 69.25H176.104V82H172.893V69.25ZM185.719 68.9219C186.922 68.9219 188.051 69.2227 189.105 69.8242C190.168 70.4258 190.996 71.2422 191.59 72.2734C192.183 73.3047 192.48 74.418 192.48 75.6133C192.48 76.8164 192.18 77.9414 191.578 78.9883C190.984 80.0352 190.172 80.8555 189.14 81.4492C188.109 82.0352 186.973 82.3281 185.73 82.3281C183.902 82.3281 182.34 81.6797 181.043 80.3828C179.754 79.0781 179.109 77.4961 179.109 75.6367C179.109 73.6445 179.84 71.9844 181.301 70.6562C182.582 69.5 184.055 68.9219 185.719 68.9219ZM185.765 71.9336C184.773 71.9336 183.945 72.2812 183.281 72.9766C182.625 73.6641 182.297 74.5469 182.297 75.625C182.297 76.7344 182.621 77.6328 183.269 78.3203C183.926 79.0078 184.754 79.3516 185.754 79.3516C186.754 79.3516 187.586 79.0039 188.25 78.3086C188.914 77.6133 189.246 76.7188 189.246 75.625C189.246 74.5312 188.918 73.6445 188.262 72.9648C187.613 72.2773 186.781 71.9336 185.765 71.9336ZM203.63 71.0312L201.65 73.0117C200.845 72.2148 200.114 71.8164 199.458 71.8164C199.099 71.8164 198.818 71.8945 198.614 72.0508C198.411 72.1992 198.31 72.3867 198.31 72.6133C198.31 72.7852 198.372 72.9453 198.497 73.0938C198.63 73.2344 198.95 73.4297 199.458 73.6797L200.63 74.2656C201.864 74.875 202.712 75.4961 203.173 76.1289C203.634 76.7617 203.864 77.5039 203.864 78.3555C203.864 79.4883 203.446 80.4336 202.61 81.1914C201.782 81.9492 200.669 82.3281 199.271 82.3281C197.411 82.3281 195.927 81.6016 194.818 80.1484L196.786 78.0039C197.161 78.4414 197.599 78.7969 198.099 79.0703C198.607 79.3359 199.056 79.4688 199.446 79.4688C199.868 79.4688 200.208 79.3672 200.466 79.1641C200.724 78.9609 200.853 78.7266 200.853 78.4609C200.853 77.9688 200.388 77.4883 199.458 77.0195L198.38 76.4805C196.318 75.4414 195.286 74.1406 195.286 72.5781C195.286 71.5703 195.673 70.7109 196.446 70C197.228 69.2812 198.224 68.9219 199.435 68.9219C200.263 68.9219 201.04 69.1055 201.767 69.4727C202.501 69.832 203.122 70.3516 203.63 71.0312Z" fill="#444242"/>
<path fill-rule="evenodd" clip-rule="evenodd" d="M154.588 116.765C154.588 110.267 159.855 105 166.353 105H192.823C199.321 105 204.588 110.267 204.588 116.765V143.235C204.588 149.733 199.321 155 192.823 155H166.353C159.855 155 154.588 149.733 154.588 143.235V116.765Z" fill="white"/>
<path d="M166.353 106.471H192.823C198.509 106.471 203.118 111.079 203.118 116.765V143.235C203.118 148.921 198.509 153.529 192.823 153.529H166.353C160.668 153.529 156.059 148.921 156.059 143.235V116.765C156.059 111.079 160.668 106.471 166.353 106.471Z" stroke="#E4E4E4" stroke-opacity="0.6" stroke-width="2.94118"/>
<path d="M170.243 123.191L166.991 132.889C166.991 132.889 166.165 128.787 166.083 128.271C164.232 124.048 161.5 124.283 161.5 124.283L164.72 136.812V136.81H168.634L174.047 123.191H170.243Z" fill="#1565C0"/>
<path d="M173.343 136.811H176.898L179.048 123.19H175.448L173.343 136.811Z" fill="#1565C0"/>
<path d="M198.504 123.19H194.763L188.931 136.811H192.462L193.191 134.866H197.644L198.023 136.811H201.258L198.504 123.19ZM194.176 132.264L196.112 127.117L197.125 132.264H194.176Z" fill="#1565C0"/>
<path d="M184.091 127.16C184.091 126.409 184.708 125.851 186.476 125.851C187.625 125.851 188.942 126.685 188.942 126.685L189.519 123.826C189.519 123.826 187.837 123.188 186.186 123.188C182.448 123.188 180.52 124.977 180.52 127.24C180.52 131.334 185.447 130.773 185.447 132.876C185.447 133.236 185.161 134.07 183.109 134.07C181.051 134.07 179.693 133.315 179.693 133.315L179.08 136.06C179.08 136.06 180.396 136.81 182.94 136.81C185.489 136.81 189.026 134.903 189.026 132.164C189.026 128.869 184.091 128.631 184.091 127.16Z" fill="#1565C0"/>
<path d="M166.56 130.552L165.364 124.672C165.364 124.672 164.823 123.398 163.416 123.398C162.009 123.398 157.918 123.398 157.918 123.398C157.918 123.398 164.928 125.469 166.56 130.552Z" fill="#FFC107"/>
<path fill-rule="evenodd" clip-rule="evenodd" d="M84 116.765C84 110.267 89.2672 105 95.7647 105H122.235C128.733 105 134 110.267 134 116.765V143.235C134 149.733 128.733 155 122.235 155H95.7647C89.2672 155 84 149.733 84 143.235V116.765Z" fill="white"/>
<path d="M95.7647 106.471H122.235C127.921 106.471 132.529 111.079 132.529 116.765V143.235C132.529 148.921 127.921 153.529 122.235 153.529H95.7647C90.0794 153.529 85.4706 148.921 85.4706 143.235V116.765C85.4706 111.079 90.0794 106.471 95.7647 106.471Z" stroke="#E4E4E4" stroke-opacity="0.6" stroke-width="2.94118"/>
<ellipse cx="116.541" cy="130" rx="11.5912" ry="11.5912" fill="#F79E1B"/>
<ellipse cx="101.458" cy="130" rx="11.5912" ry="11.5912" fill="#EB001B"/>
<defs>
<filter id="filter0_d" x="0" y="0" width="308" height="230" filterUnits="userSpaceOnUse" color-interpolation-filters="sRGB">
<feFlood flood-opacity="0" result="BackgroundImageFix"/>
<feColorMatrix in="SourceAlpha" type="matrix" values="0 0 0 0 0 0 0 0 0 0 0 0 0 0 0 0 0 0 127 0"/>
<feOffset dx="10" dy="10"/>
<feGaussianBlur stdDeviation="7.5"/>
<feColorMatrix type="matrix" values="0 0 0 0 0 0 0 0 0 0 0 0 0 0 0 0 0 0 0.2 0"/>
<feBlend mode="multiply" in2="BackgroundImageFix" result="effect1_dropShadow"/>
<feBlend mode="normal" in="SourceGraphic" in2="effect1_dropShadow" result="shape"/>
</filter>
<linearGradient id="paint0_linear" x1="144" y1="5" x2="144" y2="205" gradientUnits="userSpaceOnUse">
<stop stop-color="white"/>
<stop offset="1" stop-color="white" stop-opacity="0"/>
</linearGradient>
</defs>
</svg>
