<svg width="308" height="230" viewBox="0 0 308 230" fill="none" xmlns="http://www.w3.org/2000/svg">
<g filter="url(#filter0_d)">
<rect x="5" y="5" width="278" height="200" rx="15" fill="#F5F8FA"/>
<rect x="5" y="5" width="278" height="200" rx="15" fill="url(#paint0_linear)"/>
</g>
<rect x="57" y="52" width="171" height="31" fill="#FAFCFD" fill-opacity="0.5"/>
<path d="M111.646 37.7617H115.537C118.044 37.7617 119.908 38.0742 121.126 38.6992C122.345 39.3164 123.349 40.3242 124.138 41.7227C124.927 43.1211 125.322 44.7539 125.322 46.6211C125.322 47.9492 125.099 49.1719 124.654 50.2891C124.216 51.3984 123.607 52.3203 122.826 53.0547C122.052 53.7891 121.212 54.2969 120.306 54.5781C119.4 54.8594 117.83 55 115.595 55H111.646V37.7617ZM114.915 40.9258V51.7891H116.439C117.939 51.7891 119.025 51.6172 119.697 51.2734C120.376 50.9297 120.931 50.3516 121.361 49.5391C121.79 48.7266 122.005 47.7266 122.005 46.5391C122.005 44.7109 121.494 43.293 120.47 42.2852C119.548 41.3789 118.068 40.9258 116.029 40.9258H114.915ZM138.229 42.25H141.417V55H138.229V53.6523C137.604 54.2461 136.975 54.6758 136.343 54.9414C135.718 55.1992 135.038 55.3281 134.303 55.3281C132.655 55.3281 131.229 54.6914 130.026 53.418C128.823 52.1367 128.221 50.5469 128.221 48.6484C128.221 46.6797 128.803 45.0664 129.968 43.8086C131.132 42.5508 132.546 41.9219 134.21 41.9219C134.975 41.9219 135.694 42.0664 136.366 42.3555C137.038 42.6445 137.659 43.0781 138.229 43.6562V42.25ZM134.866 44.875C133.874 44.875 133.05 45.2266 132.393 45.9297C131.737 46.625 131.409 47.5195 131.409 48.6133C131.409 49.7148 131.741 50.6211 132.405 51.332C133.077 52.043 133.901 52.3984 134.878 52.3984C135.885 52.3984 136.721 52.0508 137.385 51.3555C138.05 50.6523 138.382 49.7344 138.382 48.6016C138.382 47.4922 138.05 46.5938 137.385 45.9062C136.721 45.2188 135.882 44.875 134.866 44.875ZM145.758 37.5508H148.945V42.25H150.844V45.0039H148.945V55H145.758V45.0039H144.117V42.25H145.758V37.5508ZM159.275 41.9219C160.478 41.9219 161.607 42.2227 162.661 42.8242C163.724 43.4258 164.552 44.2422 165.146 45.2734C165.74 46.3047 166.036 47.418 166.036 48.6133C166.036 49.8164 165.736 50.9414 165.134 51.9883C164.54 53.0352 163.728 53.8555 162.697 54.4492C161.665 55.0352 160.529 55.3281 159.286 55.3281C157.458 55.3281 155.896 54.6797 154.599 53.3828C153.31 52.0781 152.665 50.4961 152.665 48.6367C152.665 46.6445 153.396 44.9844 154.857 43.6562C156.138 42.5 157.611 41.9219 159.275 41.9219ZM159.322 44.9336C158.329 44.9336 157.501 45.2812 156.837 45.9766C156.181 46.6641 155.853 47.5469 155.853 48.625C155.853 49.7344 156.177 50.6328 156.825 51.3203C157.482 52.0078 158.31 52.3516 159.31 52.3516C160.31 52.3516 161.142 52.0039 161.806 51.3086C162.47 50.6133 162.802 49.7188 162.802 48.625C162.802 47.5312 162.474 46.6445 161.818 45.9648C161.169 45.2773 160.337 44.9336 159.322 44.9336ZM177.186 44.0312L175.206 46.0117C174.401 45.2148 173.67 44.8164 173.014 44.8164C172.655 44.8164 172.374 44.8945 172.17 45.0508C171.967 45.1992 171.866 45.3867 171.866 45.6133C171.866 45.7852 171.928 45.9453 172.053 46.0938C172.186 46.2344 172.506 46.4297 173.014 46.6797L174.186 47.2656C175.42 47.875 176.268 48.4961 176.729 49.1289C177.19 49.7617 177.42 50.5039 177.42 51.3555C177.42 52.4883 177.003 53.4336 176.167 54.1914C175.338 54.9492 174.225 55.3281 172.827 55.3281C170.967 55.3281 169.483 54.6016 168.374 53.1484L170.342 51.0039C170.717 51.4414 171.155 51.7969 171.655 52.0703C172.163 52.3359 172.612 52.4688 173.003 52.4688C173.424 52.4688 173.764 52.3672 174.022 52.1641C174.28 51.9609 174.409 51.7266 174.409 51.4609C174.409 50.9688 173.944 50.4883 173.014 50.0195L171.936 49.4805C169.874 48.4414 168.842 47.1406 168.842 45.5781C168.842 44.5703 169.229 43.7109 170.003 43C170.784 42.2812 171.78 41.9219 172.991 41.9219C173.819 41.9219 174.596 42.1055 175.323 42.4727C176.057 42.832 176.678 43.3516 177.186 44.0312ZM98.0972 64.7617H106.652V67.9609H101.343V71.0898H106.652V74.2422H101.343V82H98.0972V64.7617ZM111.204 64C111.766 64 112.247 64.2031 112.645 64.6094C113.052 65.0156 113.255 65.5078 113.255 66.0859C113.255 66.6562 113.055 67.1445 112.657 67.5508C112.259 67.9492 111.782 68.1484 111.227 68.1484C110.657 68.1484 110.169 67.9453 109.762 67.5391C109.364 67.125 109.165 66.625 109.165 66.0391C109.165 65.4766 109.364 64.9961 109.762 64.5977C110.161 64.1992 110.641 64 111.204 64ZM109.598 69.25H112.809V82H109.598V69.25ZM124.24 71.0312L122.26 73.0117C121.455 72.2148 120.725 71.8164 120.068 71.8164C119.709 71.8164 119.428 71.8945 119.225 72.0508C119.022 72.1992 118.92 72.3867 118.92 72.6133C118.92 72.7852 118.983 72.9453 119.108 73.0938C119.24 73.2344 119.561 73.4297 120.068 73.6797L121.24 74.2656C122.475 74.875 123.322 75.4961 123.783 76.1289C124.244 76.7617 124.475 77.5039 124.475 78.3555C124.475 79.4883 124.057 80.4336 123.221 81.1914C122.393 81.9492 121.279 82.3281 119.881 82.3281C118.022 82.3281 116.537 81.6016 115.428 80.1484L117.397 78.0039C117.772 78.4414 118.209 78.7969 118.709 79.0703C119.217 79.3359 119.666 79.4688 120.057 79.4688C120.479 79.4688 120.818 79.3672 121.076 79.1641C121.334 78.9609 121.463 78.7266 121.463 78.4609C121.463 77.9688 120.998 77.4883 120.068 77.0195L118.99 76.4805C116.928 75.4414 115.897 74.1406 115.897 72.5781C115.897 71.5703 116.283 70.7109 117.057 70C117.838 69.2812 118.834 68.9219 120.045 68.9219C120.873 68.9219 121.65 69.1055 122.377 69.4727C123.111 69.832 123.733 70.3516 124.24 71.0312ZM140.206 71.8281L137.546 73.293C137.046 72.7695 136.55 72.4062 136.058 72.2031C135.574 72 135.003 71.8984 134.347 71.8984C133.152 71.8984 132.183 72.2578 131.441 72.9766C130.706 73.6875 130.339 74.6016 130.339 75.7188C130.339 76.8047 130.695 77.6914 131.406 78.3789C132.117 79.0664 133.05 79.4102 134.206 79.4102C135.636 79.4102 136.749 78.9219 137.546 77.9453L140.066 79.668C138.699 81.4414 136.769 82.3281 134.277 82.3281C132.035 82.3281 130.277 81.6641 129.003 80.3359C127.738 79.0078 127.105 77.4531 127.105 75.6719C127.105 74.4375 127.413 73.3008 128.031 72.2617C128.648 71.2227 129.507 70.4062 130.609 69.8125C131.718 69.2188 132.956 68.9219 134.324 68.9219C135.589 68.9219 136.726 69.1758 137.734 69.6836C138.742 70.1836 139.566 70.8984 140.206 71.8281ZM153.243 69.25H156.43V82H153.243V80.6523C152.618 81.2461 151.989 81.6758 151.356 81.9414C150.731 82.1992 150.051 82.3281 149.317 82.3281C147.669 82.3281 146.243 81.6914 145.04 80.418C143.837 79.1367 143.235 77.5469 143.235 75.6484C143.235 73.6797 143.817 72.0664 144.981 70.8086C146.145 69.5508 147.559 68.9219 149.223 68.9219C149.989 68.9219 150.708 69.0664 151.38 69.3555C152.051 69.6445 152.673 70.0781 153.243 70.6562V69.25ZM149.88 71.875C148.887 71.875 148.063 72.2266 147.407 72.9297C146.751 73.625 146.423 74.5195 146.423 75.6133C146.423 76.7148 146.755 77.6211 147.419 78.332C148.09 79.043 148.915 79.3984 149.891 79.3984C150.899 79.3984 151.735 79.0508 152.399 78.3555C153.063 77.6523 153.395 76.7344 153.395 75.6016C153.395 74.4922 153.063 73.5938 152.399 72.9062C151.735 72.2188 150.895 71.875 149.88 71.875ZM160.045 64.3281H163.244V82H160.045V64.3281ZM179.644 76.5508H169.366C169.515 77.457 169.909 78.1797 170.55 78.7188C171.198 79.25 172.023 79.5156 173.023 79.5156C174.218 79.5156 175.245 79.0977 176.105 78.2617L178.8 79.5273C178.128 80.4805 177.323 81.1875 176.386 81.6484C175.448 82.1016 174.335 82.3281 173.046 82.3281C171.046 82.3281 169.417 81.6992 168.159 80.4414C166.902 79.1758 166.273 77.5938 166.273 75.6953C166.273 73.75 166.898 72.1367 168.148 70.8555C169.405 69.5664 170.98 68.9219 172.87 68.9219C174.878 68.9219 176.511 69.5664 177.769 70.8555C179.027 72.1367 179.655 73.832 179.655 75.9414L179.644 76.5508ZM176.433 74.0312C176.222 73.3203 175.804 72.7422 175.179 72.2969C174.562 71.8516 173.843 71.6289 173.023 71.6289C172.132 71.6289 171.351 71.8789 170.679 72.3789C170.257 72.6914 169.866 73.2422 169.507 74.0312H176.433ZM190.77 71.0312L188.79 73.0117C187.985 72.2148 187.254 71.8164 186.598 71.8164C186.239 71.8164 185.958 71.8945 185.754 72.0508C185.551 72.1992 185.45 72.3867 185.45 72.6133C185.45 72.7852 185.512 72.9453 185.637 73.0938C185.77 73.2344 186.09 73.4297 186.598 73.6797L187.77 74.2656C189.004 74.875 189.852 75.4961 190.313 76.1289C190.774 76.7617 191.004 77.5039 191.004 78.3555C191.004 79.4883 190.586 80.4336 189.75 81.1914C188.922 81.9492 187.809 82.3281 186.411 82.3281C184.551 82.3281 183.067 81.6016 181.958 80.1484L183.926 78.0039C184.301 78.4414 184.739 78.7969 185.239 79.0703C185.747 79.3359 186.196 79.4688 186.586 79.4688C187.008 79.4688 187.348 79.3672 187.606 79.1641C187.864 78.9609 187.993 78.7266 187.993 78.4609C187.993 77.9688 187.528 77.4883 186.598 77.0195L185.52 76.4805C183.458 75.4414 182.426 74.1406 182.426 72.5781C182.426 71.5703 182.813 70.7109 183.586 70C184.368 69.2812 185.364 68.9219 186.575 68.9219C187.403 68.9219 188.18 69.1055 188.907 69.4727C189.641 69.832 190.262 70.3516 190.77 71.0312Z" fill="#444242"/>
<path d="M105.562 98.5625H164.5V175.438H105.562V98.5625Z" fill="#C7E2FB"/>
<path d="M105.562 160.934C107.473 161.2 109.399 161.337 111.328 161.344C137.863 161.344 159.375 136.385 159.375 105.609C159.373 103.255 159.24 100.902 158.978 98.5625H105.562V160.934Z" fill="#EBF7FE"/>
<path d="M113.25 103.688H156.812V129.312H113.25V103.688Z" fill="#F7D881"/>
<path d="M165.781 175.438C174.98 175.438 182.438 167.98 182.438 158.781C182.438 149.582 174.98 142.125 165.781 142.125C156.582 142.125 149.125 149.582 149.125 158.781C149.125 167.98 156.582 175.438 165.781 175.438Z" fill="white"/>
<path d="M113.25 134.438H120.938V142.125H113.25V134.438Z" fill="#F7D881"/>
<path d="M113.25 147.25H120.938V154.938H113.25V147.25Z" fill="#F7D881"/>
<path d="M113.25 160.062H120.938V167.75H113.25V160.062Z" fill="#F7D881"/>
<path d="M172.188 165.188C173.603 165.188 174.75 164.04 174.75 162.625C174.75 161.21 173.603 160.062 172.188 160.062C170.772 160.062 169.625 161.21 169.625 162.625C169.625 164.04 170.772 165.188 172.188 165.188Z" fill="#A0A8B2"/>
<path d="M159.375 157.5C160.79 157.5 161.938 156.353 161.938 154.938C161.938 153.522 160.79 152.375 159.375 152.375C157.96 152.375 156.812 153.522 156.812 154.938C156.812 156.353 157.96 157.5 159.375 157.5Z" fill="#A0A8B2"/>
<path d="M117.094 110.094H120.938V125.469H123.5V110.094H127.344V107.531H117.094V110.094Z" fill="black"/>
<path d="M135.031 107.531C133.672 107.531 132.368 108.071 131.407 109.032C130.446 109.993 129.906 111.297 129.906 112.656V125.469H132.469V120.344H137.594V125.469H140.156V112.656C140.156 111.297 139.616 109.993 138.655 109.032C137.694 108.071 136.39 107.531 135.031 107.531V107.531ZM132.469 117.781V112.656C132.469 111.977 132.739 111.325 133.219 110.844C133.7 110.364 134.352 110.094 135.031 110.094C135.711 110.094 136.363 110.364 136.843 110.844C137.324 111.325 137.594 111.977 137.594 112.656V117.781H132.469Z" fill="black"/>
<path d="M150.406 107.531C150.418 110.126 149.51 112.64 147.844 114.629C146.195 112.787 145.283 110.401 145.281 107.928V107.531H142.719V107.928C142.718 111.109 143.922 114.171 146.089 116.5C143.907 118.977 142.708 122.168 142.719 125.469H145.281C145.27 122.874 146.178 120.36 147.844 118.371C149.493 120.213 150.405 122.599 150.406 125.072V125.469H152.969V125.072C152.969 121.891 151.765 118.829 149.599 116.5C151.781 114.023 152.979 110.832 152.969 107.531H150.406Z" fill="black"/>
<path d="M113.25 130.594H156.812C157.152 130.594 157.478 130.459 157.718 130.218C157.959 129.978 158.094 129.652 158.094 129.312V103.688C158.094 103.348 157.959 103.022 157.718 102.782C157.478 102.541 157.152 102.406 156.812 102.406H113.25C112.91 102.406 112.584 102.541 112.344 102.782C112.104 103.022 111.969 103.348 111.969 103.688V129.312C111.969 129.652 112.104 129.978 112.344 130.218C112.584 130.459 112.91 130.594 113.25 130.594ZM114.531 104.969H155.531V128.031H114.531V104.969Z" fill="black"/>
<path d="M113.25 143.406H120.938C121.277 143.406 121.603 143.271 121.843 143.031C122.084 142.791 122.219 142.465 122.219 142.125V134.438C122.219 134.098 122.084 133.772 121.843 133.532C121.603 133.291 121.277 133.156 120.938 133.156H113.25C112.91 133.156 112.584 133.291 112.344 133.532C112.104 133.772 111.969 134.098 111.969 134.438V142.125C111.969 142.465 112.104 142.791 112.344 143.031C112.584 143.271 112.91 143.406 113.25 143.406ZM114.531 135.719H119.656V140.844H114.531V135.719Z" fill="black"/>
<path d="M120.938 158.781H113.25C112.91 158.781 112.584 158.916 112.344 159.157C112.104 159.397 111.969 159.723 111.969 160.062V167.75C111.969 168.09 112.104 168.416 112.344 168.656C112.584 168.896 112.91 169.031 113.25 169.031H120.938C121.277 169.031 121.603 168.896 121.843 168.656C122.084 168.416 122.219 168.09 122.219 167.75V160.062C122.219 159.723 122.084 159.397 121.843 159.157C121.603 158.916 121.277 158.781 120.938 158.781ZM119.656 166.469H114.531V161.344H119.656V166.469Z" fill="black"/>
<path d="M122.59 143.778L120.412 145.969H113.25C112.91 145.969 112.584 146.104 112.344 146.344C112.104 146.584 111.969 146.91 111.969 147.25V154.938C111.969 155.277 112.104 155.603 112.344 155.844C112.584 156.084 112.91 156.219 113.25 156.219H120.938C121.277 156.219 121.603 156.084 121.843 155.844C122.084 155.603 122.219 155.277 122.219 154.938V147.775L124.41 145.597L122.59 143.778ZM117.85 148.531L114.531 151.85V148.531H117.85ZM119.656 153.656H116.338L119.656 150.338V153.656Z" fill="black"/>
<path d="M124.781 134.438H158.094V137H124.781V134.438Z" fill="black"/>
<path d="M124.781 139.562H158.094V142.125H124.781V139.562Z" fill="black"/>
<path d="M165.781 140.844V98.5625C165.781 98.2227 165.646 97.8968 165.406 97.6565C165.166 97.4162 164.84 97.2812 164.5 97.2812H105.562C105.223 97.2812 104.897 97.4162 104.657 97.6565C104.416 97.8968 104.281 98.2227 104.281 98.5625V175.438C104.281 175.777 104.416 176.103 104.657 176.343C104.897 176.584 105.223 176.719 105.562 176.719H161.938C162.218 176.711 162.488 176.612 162.706 176.437C163.722 176.616 164.75 176.71 165.781 176.719C170.539 176.719 175.101 174.829 178.465 171.465C181.829 168.101 183.719 163.539 183.719 158.781C183.719 154.024 181.829 149.461 178.465 146.098C175.101 142.734 170.539 140.844 165.781 140.844V140.844ZM106.844 174.156V99.8438H163.219V141.049C158.864 141.677 154.893 143.884 152.059 147.25H124.781V149.812H150.265C149.771 150.631 149.343 151.488 148.984 152.375H124.781V154.938H148.267C147.989 156.2 147.847 157.489 147.844 158.781V160.062H124.781V162.625H148.267C148.461 163.498 148.722 164.355 149.048 165.188H124.781V167.75H150.265C151.8 170.386 153.978 172.59 156.595 174.156H106.844ZM165.781 174.156C162.74 174.156 159.768 173.255 157.239 171.565C154.711 169.876 152.74 167.474 151.577 164.665C150.413 161.856 150.108 158.764 150.702 155.782C151.295 152.799 152.759 150.06 154.909 147.909C157.06 145.759 159.799 144.295 162.782 143.702C165.764 143.108 168.856 143.413 171.665 144.577C174.474 145.74 176.876 147.711 178.565 150.239C180.255 152.768 181.156 155.74 181.156 158.781C181.156 162.859 179.536 166.77 176.653 169.653C173.77 172.536 169.859 174.156 165.781 174.156Z" fill="black"/>
<path d="M172.188 158.781C171.427 158.781 170.684 159.007 170.052 159.429C169.42 159.851 168.927 160.452 168.636 161.154C168.345 161.856 168.269 162.629 168.418 163.375C168.566 164.12 168.932 164.805 169.47 165.343C170.007 165.881 170.692 166.247 171.438 166.395C172.183 166.543 172.956 166.467 173.658 166.176C174.361 165.885 174.961 165.393 175.383 164.76C175.806 164.128 176.031 163.385 176.031 162.625C176.031 161.606 175.626 160.628 174.905 159.907C174.185 159.186 173.207 158.781 172.188 158.781ZM172.188 163.906C171.934 163.906 171.686 163.831 171.476 163.69C171.265 163.55 171.101 163.349 171.004 163.115C170.907 162.881 170.881 162.624 170.931 162.375C170.98 162.127 171.102 161.898 171.282 161.719C171.461 161.54 171.689 161.418 171.938 161.368C172.186 161.319 172.444 161.344 172.678 161.441C172.912 161.538 173.112 161.702 173.253 161.913C173.394 162.124 173.469 162.372 173.469 162.625C173.469 162.965 173.334 163.291 173.093 163.531C172.853 163.771 172.527 163.906 172.188 163.906Z" fill="black"/>
<path d="M163.219 154.938C163.219 154.177 162.993 153.434 162.571 152.802C162.149 152.17 161.548 151.677 160.846 151.386C160.144 151.095 159.371 151.019 158.625 151.168C157.88 151.316 157.195 151.682 156.657 152.22C156.12 152.757 155.753 153.442 155.605 154.188C155.457 154.933 155.533 155.706 155.824 156.408C156.115 157.111 156.607 157.711 157.24 158.133C157.872 158.556 158.615 158.781 159.375 158.781C160.394 158.781 161.372 158.376 162.093 157.655C162.814 156.935 163.219 155.957 163.219 154.938ZM159.375 156.219C159.122 156.219 158.874 156.144 158.663 156.003C158.452 155.862 158.288 155.662 158.191 155.428C158.094 155.194 158.069 154.936 158.118 154.688C158.168 154.439 158.29 154.211 158.469 154.032C158.648 153.852 158.877 153.73 159.125 153.681C159.374 153.631 159.631 153.657 159.865 153.754C160.099 153.851 160.3 154.015 160.44 154.226C160.581 154.436 160.656 154.684 160.656 154.938C160.656 155.277 160.521 155.603 160.281 155.843C160.041 156.084 159.715 156.219 159.375 156.219Z" fill="black"/>
<path d="M159.486 169.781L169.734 146.711L172.076 147.751L161.828 170.821L159.486 169.781Z" fill="black"/>
<defs>
<filter id="filter0_d" x="0" y="0" width="308" height="230" filterUnits="userSpaceOnUse" color-interpolation-filters="sRGB">
<feFlood flood-opacity="0" result="BackgroundImageFix"/>
<feColorMatrix in="SourceAlpha" type="matrix" values="0 0 0 0 0 0 0 0 0 0 0 0 0 0 0 0 0 0 127 0"/>
<feOffset dx="10" dy="10"/>
<feGaussianBlur stdDeviation="7.5"/>
<feColorMatrix type="matrix" values="0 0 0 0 0 0 0 0 0 0 0 0 0 0 0 0 0 0 0.2 0"/>
<feBlend mode="multiply" in2="BackgroundImageFix" result="effect1_dropShadow"/>
<feBlend mode="normal" in="SourceGraphic" in2="effect1_dropShadow" result="shape"/>
</filter>
<linearGradient id="paint0_linear" x1="144" y1="5" x2="144" y2="205" gradientUnits="userSpaceOnUse">
<stop stop-color="white"/>
<stop offset="1" stop-color="white" stop-opacity="0"/>
</linearGradient>
</defs>
</svg>
