<svg width="308" height="230" viewBox="0 0 308 230" fill="none" xmlns="http://www.w3.org/2000/svg">
<g filter="url(#filter0_d)">
<rect x="5" y="5" width="278" height="200" rx="15" fill="#F5F8FA"/>
<rect x="5" y="5" width="278" height="200" rx="15" fill="url(#paint0_linear)"/>
</g>
<rect x="57" y="52" width="171" height="31" fill="#FAFCFD" fill-opacity="0.5"/>
<path d="M111.766 37.7617H121.177V40.9727H115.024V44.0898H121.177V47.2422H115.024V51.7773H121.177V55H111.766V37.7617ZM134.037 37.3281H137.225V55H134.037V53.6523C133.412 54.2461 132.783 54.6758 132.15 54.9414C131.525 55.1992 130.846 55.3281 130.111 55.3281C128.463 55.3281 127.037 54.6914 125.834 53.418C124.631 52.1367 124.029 50.5469 124.029 48.6484C124.029 46.6797 124.611 45.0664 125.775 43.8086C126.94 42.5508 128.354 41.9219 130.018 41.9219C130.783 41.9219 131.502 42.0664 132.174 42.3555C132.846 42.6445 133.467 43.0781 134.037 43.6562V37.3281ZM130.674 44.875C129.682 44.875 128.858 45.2266 128.201 45.9297C127.545 46.625 127.217 47.5195 127.217 48.6133C127.217 49.7148 127.549 50.6211 128.213 51.332C128.885 52.043 129.709 52.3984 130.686 52.3984C131.693 52.3984 132.529 52.0508 133.193 51.3555C133.858 50.6523 134.19 49.7344 134.19 48.6016C134.19 47.4922 133.858 46.5938 133.193 45.9062C132.529 45.2188 131.69 44.875 130.674 44.875ZM142.433 37C142.995 37 143.476 37.2031 143.874 37.6094C144.281 38.0156 144.484 38.5078 144.484 39.0859C144.484 39.6562 144.285 40.1445 143.886 40.5508C143.488 40.9492 143.011 41.1484 142.456 41.1484C141.886 41.1484 141.398 40.9453 140.992 40.5391C140.593 40.125 140.394 39.625 140.394 39.0391C140.394 38.4766 140.593 37.9961 140.992 37.5977C141.39 37.1992 141.87 37 142.433 37ZM140.827 42.25H144.038V55H140.827V42.25ZM148.051 37.5508H151.239V42.25H153.137V45.0039H151.239V55H148.051V45.0039H146.411V42.25H148.051V37.5508ZM165.002 42.25H168.189V55H165.002V53.6523C164.377 54.2461 163.748 54.6758 163.115 54.9414C162.49 55.1992 161.81 55.3281 161.076 55.3281C159.428 55.3281 158.002 54.6914 156.799 53.418C155.596 52.1367 154.994 50.5469 154.994 48.6484C154.994 46.6797 155.576 45.0664 156.74 43.8086C157.904 42.5508 159.318 41.9219 160.982 41.9219C161.748 41.9219 162.467 42.0664 163.139 42.3555C163.81 42.6445 164.432 43.0781 165.002 43.6562V42.25ZM161.639 44.875C160.646 44.875 159.822 45.2266 159.166 45.9297C158.51 46.625 158.182 47.5195 158.182 48.6133C158.182 49.7148 158.514 50.6211 159.178 51.332C159.85 52.043 160.674 52.3984 161.65 52.3984C162.658 52.3984 163.494 52.0508 164.158 51.3555C164.822 50.6523 165.154 49.7344 165.154 48.6016C165.154 47.4922 164.822 46.5938 164.158 45.9062C163.494 45.2188 162.654 44.875 161.639 44.875ZM171.394 42.25H174.136V43.8555C174.433 43.2227 174.827 42.7422 175.32 42.4141C175.812 42.0859 176.351 41.9219 176.937 41.9219C177.351 41.9219 177.784 42.0312 178.238 42.25L177.241 45.0039C176.866 44.8164 176.558 44.7227 176.316 44.7227C175.823 44.7227 175.405 45.0273 175.062 45.6367C174.726 46.2461 174.558 47.4414 174.558 49.2227L174.57 49.8438V55H171.394V42.25ZM87.6005 64.7617H97.1278V67.9961H93.9872V82H90.6591V67.9961H87.6005V64.7617ZM99.7345 69.25H102.969V75.3906C102.969 76.5859 103.051 77.418 103.215 77.8867C103.379 78.3477 103.641 78.707 104 78.9648C104.367 79.2227 104.817 79.3516 105.348 79.3516C105.879 79.3516 106.328 79.2266 106.695 78.9766C107.07 78.7188 107.348 78.3438 107.527 77.8516C107.66 77.4844 107.727 76.6992 107.727 75.4961V69.25H110.938V74.6523C110.938 76.8789 110.762 78.4023 110.41 79.2227C109.981 80.2227 109.348 80.9922 108.512 81.5312C107.676 82.0625 106.613 82.3281 105.324 82.3281C103.926 82.3281 102.793 82.0156 101.926 81.3906C101.067 80.7656 100.461 79.8945 100.11 78.7773C99.8595 78.0039 99.7345 76.5977 99.7345 74.5586V69.25ZM122.685 71.0312L120.705 73.0117C119.9 72.2148 119.169 71.8164 118.513 71.8164C118.154 71.8164 117.872 71.8945 117.669 72.0508C117.466 72.1992 117.365 72.3867 117.365 72.6133C117.365 72.7852 117.427 72.9453 117.552 73.0938C117.685 73.2344 118.005 73.4297 118.513 73.6797L119.685 74.2656C120.919 74.875 121.767 75.4961 122.228 76.1289C122.689 76.7617 122.919 77.5039 122.919 78.3555C122.919 79.4883 122.501 80.4336 121.665 81.1914C120.837 81.9492 119.724 82.3281 118.326 82.3281C116.466 82.3281 114.982 81.6016 113.872 80.1484L115.841 78.0039C116.216 78.4414 116.654 78.7969 117.154 79.0703C117.662 79.3359 118.111 79.4688 118.501 79.4688C118.923 79.4688 119.263 79.3672 119.521 79.1641C119.779 78.9609 119.908 78.7266 119.908 78.4609C119.908 77.9688 119.443 77.4883 118.513 77.0195L117.435 76.4805C115.372 75.4414 114.341 74.1406 114.341 72.5781C114.341 71.5703 114.728 70.7109 115.501 70C116.283 69.2812 117.279 68.9219 118.49 68.9219C119.318 68.9219 120.095 69.1055 120.822 69.4727C121.556 69.832 122.177 70.3516 122.685 71.0312ZM133.98 64.7617H137.871C140.379 64.7617 142.242 65.0742 143.461 65.6992C144.68 66.3164 145.684 67.3242 146.473 68.7227C147.262 70.1211 147.656 71.7539 147.656 73.6211C147.656 74.9492 147.434 76.1719 146.988 77.2891C146.551 78.3984 145.941 79.3203 145.16 80.0547C144.387 80.7891 143.547 81.2969 142.641 81.5781C141.734 81.8594 140.164 82 137.93 82H133.98V64.7617ZM137.25 67.9258V78.7891H138.773C140.273 78.7891 141.359 78.6172 142.031 78.2734C142.711 77.9297 143.266 77.3516 143.695 76.5391C144.125 75.7266 144.34 74.7266 144.34 73.5391C144.34 71.7109 143.828 70.293 142.805 69.2852C141.883 68.3789 140.402 67.9258 138.363 67.9258H137.25ZM160.564 69.25H163.751V82H160.564V80.6523C159.939 81.2461 159.31 81.6758 158.677 81.9414C158.052 82.1992 157.372 82.3281 156.638 82.3281C154.99 82.3281 153.564 81.6914 152.361 80.418C151.157 79.1367 150.556 77.5469 150.556 75.6484C150.556 73.6797 151.138 72.0664 152.302 70.8086C153.466 69.5508 154.88 68.9219 156.544 68.9219C157.31 68.9219 158.029 69.0664 158.7 69.3555C159.372 69.6445 159.993 70.0781 160.564 70.6562V69.25ZM157.2 71.875C156.208 71.875 155.384 72.2266 154.728 72.9297C154.072 73.625 153.743 74.5195 153.743 75.6133C153.743 76.7148 154.075 77.6211 154.74 78.332C155.411 79.043 156.236 79.3984 157.212 79.3984C158.22 79.3984 159.056 79.0508 159.72 78.3555C160.384 77.6523 160.716 76.7344 160.716 75.6016C160.716 74.4922 160.384 73.5938 159.72 72.9062C159.056 72.2188 158.216 71.875 157.2 71.875ZM168.092 64.5508H171.28V69.25H173.178V72.0039H171.28V82H168.092V72.0039H166.452V69.25H168.092V64.5508ZM181.609 68.9219C182.812 68.9219 183.941 69.2227 184.996 69.8242C186.058 70.4258 186.887 71.2422 187.48 72.2734C188.074 73.3047 188.371 74.418 188.371 75.6133C188.371 76.8164 188.07 77.9414 187.469 78.9883C186.875 80.0352 186.062 80.8555 185.031 81.4492C184 82.0352 182.863 82.3281 181.621 82.3281C179.793 82.3281 178.23 81.6797 176.933 80.3828C175.644 79.0781 175 77.4961 175 75.6367C175 73.6445 175.73 71.9844 177.191 70.6562C178.473 69.5 179.945 68.9219 181.609 68.9219ZM181.656 71.9336C180.664 71.9336 179.836 72.2812 179.172 72.9766C178.515 73.6641 178.187 74.5469 178.187 75.625C178.187 76.7344 178.512 77.6328 179.16 78.3203C179.816 79.0078 180.644 79.3516 181.644 79.3516C182.644 79.3516 183.476 79.0039 184.14 78.3086C184.805 77.6133 185.137 76.7188 185.137 75.625C185.137 74.5312 184.808 73.6445 184.152 72.9648C183.504 72.2773 182.672 71.9336 181.656 71.9336ZM199.521 71.0312L197.54 73.0117C196.735 72.2148 196.005 71.8164 195.349 71.8164C194.989 71.8164 194.708 71.8945 194.505 72.0508C194.302 72.1992 194.2 72.3867 194.2 72.6133C194.2 72.7852 194.263 72.9453 194.388 73.0938C194.521 73.2344 194.841 73.4297 195.349 73.6797L196.521 74.2656C197.755 74.875 198.603 75.4961 199.064 76.1289C199.525 76.7617 199.755 77.5039 199.755 78.3555C199.755 79.4883 199.337 80.4336 198.501 81.1914C197.673 81.9492 196.56 82.3281 195.161 82.3281C193.302 82.3281 191.818 81.6016 190.708 80.1484L192.677 78.0039C193.052 78.4414 193.489 78.7969 193.989 79.0703C194.497 79.3359 194.946 79.4688 195.337 79.4688C195.759 79.4688 196.099 79.3672 196.357 79.1641C196.614 78.9609 196.743 78.7266 196.743 78.4609C196.743 77.9688 196.278 77.4883 195.349 77.0195L194.271 76.4805C192.208 75.4414 191.177 74.1406 191.177 72.5781C191.177 71.5703 191.564 70.7109 192.337 70C193.118 69.2812 194.114 68.9219 195.325 68.9219C196.153 68.9219 196.931 69.1055 197.657 69.4727C198.392 69.832 199.013 70.3516 199.521 71.0312Z" fill="#444242"/>
<path d="M143.5 108.68C127.609 108.68 114.68 121.609 114.68 137.5C114.68 153.392 127.609 166.321 143.5 166.321C159.392 166.321 172.321 153.392 172.321 137.5C172.321 121.609 159.392 108.68 143.5 108.68V108.68ZM128.562 156.901C129.211 153.575 131.327 150.717 134.382 149.117L136.886 147.806C138.278 147.077 139.215 145.769 139.456 144.217C139.698 142.654 139.197 141.11 138.08 139.981C136.657 138.545 135.873 136.64 135.873 134.619V131.374C135.873 127.169 139.295 123.748 143.5 123.748C147.706 123.748 151.127 127.169 151.127 131.374V134.619C151.127 136.64 150.344 138.545 148.921 139.981C147.804 141.11 147.302 142.653 147.545 144.217C147.785 145.769 148.722 147.077 150.114 147.806L152.618 149.117C155.675 150.717 157.791 153.575 158.439 156.9C154.301 160.094 149.119 161.997 143.5 161.997C137.882 161.997 132.7 160.094 128.562 156.901V156.901ZM161.974 153.57C160.648 150.047 158.067 147.089 154.624 145.286L152.12 143.975C151.907 143.863 151.838 143.685 151.818 143.554C151.8 143.44 151.799 143.22 151.994 143.024C154.223 140.772 155.451 137.787 155.451 134.619V131.374C155.451 124.785 150.09 119.423 143.5 119.423C136.911 119.423 131.549 124.785 131.549 131.374V134.619C131.549 137.787 132.777 140.772 135.007 143.024C135.201 143.22 135.2 143.44 135.183 143.554C135.162 143.685 135.094 143.863 134.88 143.975L132.376 145.286C128.934 147.088 126.353 150.047 125.027 153.571C121.278 149.266 119.004 143.644 119.004 137.5C119.004 123.993 129.993 113.004 143.5 113.004C157.007 113.004 167.996 123.993 167.996 137.5C167.997 143.644 165.723 149.265 161.974 153.57V153.57Z" fill="#3497DB"/>
<path d="M169.592 111.408C162.623 104.438 153.356 100.6 143.5 100.6C133.644 100.6 124.377 104.438 117.408 111.408C110.438 118.377 106.6 127.644 106.6 137.5C106.6 147.357 110.438 156.623 117.408 163.592C124.377 170.562 133.644 174.4 143.5 174.4C153.356 174.4 162.623 170.562 169.592 163.592C176.562 156.623 180.4 147.356 180.4 137.5C180.4 127.644 176.562 118.377 169.592 111.408V111.408ZM166.535 160.535C160.382 166.688 152.201 170.076 143.5 170.076C134.799 170.076 126.618 166.687 120.465 160.535C114.313 154.382 110.924 146.201 110.924 137.5C110.924 128.799 114.313 120.618 120.465 114.466C126.618 108.313 134.799 104.924 143.5 104.924C152.201 104.924 160.382 108.313 166.535 114.465C172.688 120.618 176.076 128.799 176.076 137.5C176.076 146.201 172.687 154.382 166.535 160.535V160.535Z" fill="#3497DB"/>
<path d="M197 114.66V120C197 120.53 196.789 121.039 196.414 121.414C196.039 121.789 195.53 122 195 122H181C180.47 122 179.961 121.789 179.586 121.414C179.211 121.039 179 120.53 179 120V106C179 105.47 179.211 104.961 179.586 104.586C179.961 104.211 180.47 104 181 104H186.34M195 102L199 106L189 116H185V112L195 102Z" stroke="#3497DB" stroke-width="2" stroke-linecap="round" stroke-linejoin="round"/>
<defs>
<filter id="filter0_d" x="0" y="0" width="308" height="230" filterUnits="userSpaceOnUse" color-interpolation-filters="sRGB">
<feFlood flood-opacity="0" result="BackgroundImageFix"/>
<feColorMatrix in="SourceAlpha" type="matrix" values="0 0 0 0 0 0 0 0 0 0 0 0 0 0 0 0 0 0 127 0"/>
<feOffset dx="10" dy="10"/>
<feGaussianBlur stdDeviation="7.5"/>
<feColorMatrix type="matrix" values="0 0 0 0 0 0 0 0 0 0 0 0 0 0 0 0 0 0 0.2 0"/>
<feBlend mode="multiply" in2="BackgroundImageFix" result="effect1_dropShadow"/>
<feBlend mode="normal" in="SourceGraphic" in2="effect1_dropShadow" result="shape"/>
</filter>
<linearGradient id="paint0_linear" x1="144" y1="5" x2="144" y2="205" gradientUnits="userSpaceOnUse">
<stop stop-color="white"/>
<stop offset="1" stop-color="white" stop-opacity="0"/>
</linearGradient>
</defs>
</svg>
