<svg width="131" height="31" viewBox="0 0 131 31" fill="none" xmlns="http://www.w3.org/2000/svg">
<g filter="url(#filter0_d)">
<rect x="126" y="4" width="22" height="123" rx="4.64052" transform="rotate(90 126 4)" fill="#3497DB"/>
</g>
<path d="M34.5776 11.9722H37.3223V12.9087H35.5278V13.8179H37.3223V14.7373H35.5278V16.0601H37.3223V17H34.5776V11.9722ZM37.6709 13.2812H38.0024C38.0047 12.7936 38.0127 12.5054 38.0264 12.4165C38.0514 12.2114 38.1369 12.0496 38.2827 11.9312C38.4308 11.8104 38.6393 11.75 38.9082 11.75C39.1019 11.75 39.3206 11.7944 39.5645 11.8833V12.5942C39.43 12.5555 39.3195 12.5361 39.2329 12.5361C39.1235 12.5361 39.0438 12.5589 38.9937 12.6045C38.9572 12.6387 38.939 12.7093 38.939 12.8164L38.9355 13.2812H39.5269V14.0742H38.9355V17H38.0024V14.0742H37.6709V13.2812ZM43.8027 15.4106H40.8052C40.8485 15.675 40.9635 15.8857 41.1504 16.043C41.3395 16.1979 41.5799 16.2754 41.8716 16.2754C42.2202 16.2754 42.5199 16.1535 42.7705 15.9097L43.5566 16.2788C43.3607 16.5568 43.126 16.763 42.8525 16.8975C42.5791 17.0296 42.2544 17.0957 41.8784 17.0957C41.2951 17.0957 40.82 16.9123 40.4531 16.5454C40.0863 16.1763 39.9028 15.7148 39.9028 15.1611C39.9028 14.5938 40.0851 14.1232 40.4497 13.7495C40.8166 13.3735 41.2757 13.1855 41.8271 13.1855C42.4128 13.1855 42.889 13.3735 43.2559 13.7495C43.6227 14.1232 43.8062 14.6177 43.8062 15.2329L43.8027 15.4106ZM42.8662 14.6758C42.8047 14.4684 42.6828 14.2998 42.5005 14.1699C42.3205 14.04 42.1108 13.9751 41.8716 13.9751C41.6118 13.9751 41.384 14.048 41.188 14.1938C41.0649 14.285 40.951 14.4456 40.8462 14.6758H42.8662ZM48.2017 14.0332L47.4258 14.4604C47.2799 14.3078 47.1353 14.2018 46.9917 14.1426C46.8504 14.0833 46.6841 14.0537 46.4927 14.0537C46.144 14.0537 45.8615 14.1585 45.645 14.3682C45.4308 14.5755 45.3237 14.8421 45.3237 15.168C45.3237 15.4847 45.4274 15.7433 45.6348 15.9438C45.8421 16.1444 46.1144 16.2446 46.4517 16.2446C46.8687 16.2446 47.1934 16.1022 47.4258 15.8174L48.1606 16.3198C47.7619 16.8371 47.1991 17.0957 46.4722 17.0957C45.8182 17.0957 45.3055 16.902 44.9341 16.5146C44.5649 16.1273 44.3804 15.6738 44.3804 15.1543C44.3804 14.7943 44.4704 14.4627 44.6504 14.1597C44.8304 13.8566 45.0811 13.6185 45.4023 13.4453C45.7259 13.2721 46.0871 13.1855 46.4858 13.1855C46.855 13.1855 47.1865 13.2596 47.4805 13.4077C47.7744 13.5535 48.0148 13.762 48.2017 14.0332ZM49.1587 11.9106H50.0884V13.2812H50.6421V14.0845H50.0884V17H49.1587V14.0845H48.6802V13.2812H49.1587V11.9106ZM51.5103 11.75C51.6743 11.75 51.8145 11.8092 51.9307 11.9277C52.0492 12.0462 52.1084 12.1898 52.1084 12.3584C52.1084 12.5247 52.0503 12.6672 51.9341 12.7856C51.8179 12.9019 51.6789 12.96 51.5171 12.96C51.3507 12.96 51.2083 12.9007 51.0898 12.7822C50.9736 12.6615 50.9155 12.5156 50.9155 12.3447C50.9155 12.1807 50.9736 12.0405 51.0898 11.9243C51.2061 11.8081 51.3462 11.75 51.5103 11.75ZM51.042 13.2812H51.9785V17H51.042V13.2812ZM52.4263 13.2812H53.3765L54.3164 15.4756L55.2529 13.2812H56.1997L54.6172 17H54.0122L52.4263 13.2812ZM58.4966 13.1855C58.8475 13.1855 59.1768 13.2733 59.4844 13.4487C59.7943 13.6242 60.0358 13.8623 60.209 14.1631C60.3822 14.4639 60.4688 14.7886 60.4688 15.1372C60.4688 15.4881 60.381 15.8162 60.2056 16.1216C60.0324 16.4269 59.7954 16.6662 59.4946 16.8394C59.1938 17.0103 58.8623 17.0957 58.5 17.0957C57.9668 17.0957 57.5111 16.9066 57.1328 16.5283C56.7568 16.1478 56.5688 15.6864 56.5688 15.144C56.5688 14.563 56.7819 14.0788 57.208 13.6914C57.5817 13.3542 58.0112 13.1855 58.4966 13.1855ZM58.5103 14.064C58.2209 14.064 57.9793 14.1654 57.7856 14.3682C57.5942 14.5687 57.4985 14.8262 57.4985 15.1406C57.4985 15.4642 57.5931 15.7262 57.7822 15.9268C57.9736 16.1273 58.2152 16.2275 58.5068 16.2275C58.7985 16.2275 59.0412 16.1261 59.2349 15.9233C59.4285 15.7205 59.5254 15.4596 59.5254 15.1406C59.5254 14.8216 59.4297 14.563 59.2383 14.3647C59.0492 14.1642 58.8065 14.064 58.5103 14.064ZM66.8364 14.0332L66.0605 14.4604C65.9147 14.3078 65.77 14.2018 65.6265 14.1426C65.4852 14.0833 65.3188 14.0537 65.1274 14.0537C64.7788 14.0537 64.4963 14.1585 64.2798 14.3682C64.0656 14.5755 63.9585 14.8421 63.9585 15.168C63.9585 15.4847 64.0622 15.7433 64.2695 15.9438C64.4769 16.1444 64.7492 16.2446 65.0864 16.2446C65.5034 16.2446 65.8281 16.1022 66.0605 15.8174L66.7954 16.3198C66.3966 16.8371 65.8338 17.0957 65.1069 17.0957C64.453 17.0957 63.9403 16.902 63.5688 16.5146C63.1997 16.1273 63.0151 15.6738 63.0151 15.1543C63.0151 14.7943 63.1051 14.4627 63.2852 14.1597C63.4652 13.8566 63.7158 13.6185 64.0371 13.4453C64.3607 13.2721 64.7218 13.1855 65.1206 13.1855C65.4897 13.1855 65.8213 13.2596 66.1152 13.4077C66.4092 13.5535 66.6496 13.762 66.8364 14.0332ZM69.4272 13.1855C69.7782 13.1855 70.1074 13.2733 70.415 13.4487C70.7249 13.6242 70.9665 13.8623 71.1396 14.1631C71.3128 14.4639 71.3994 14.7886 71.3994 15.1372C71.3994 15.4881 71.3117 15.8162 71.1362 16.1216C70.9631 16.4269 70.7261 16.6662 70.4253 16.8394C70.1245 17.0103 69.793 17.0957 69.4307 17.0957C68.8975 17.0957 68.4417 16.9066 68.0635 16.5283C67.6875 16.1478 67.4995 15.6864 67.4995 15.144C67.4995 14.563 67.7126 14.0788 68.1387 13.6914C68.5124 13.3542 68.9419 13.1855 69.4272 13.1855ZM69.4409 14.064C69.1515 14.064 68.91 14.1654 68.7163 14.3682C68.5249 14.5687 68.4292 14.8262 68.4292 15.1406C68.4292 15.4642 68.5238 15.7262 68.7129 15.9268C68.9043 16.1273 69.1458 16.2275 69.4375 16.2275C69.7292 16.2275 69.9718 16.1261 70.1655 15.9233C70.3592 15.7205 70.4561 15.4596 70.4561 15.1406C70.4561 14.8216 70.3604 14.563 70.1689 14.3647C69.9798 14.1642 69.7371 14.064 69.4409 14.064ZM72.165 13.2812H73.0947V13.6606C73.3066 13.4829 73.498 13.3599 73.6689 13.2915C73.8421 13.2209 74.0187 13.1855 74.1987 13.1855C74.5679 13.1855 74.8812 13.3143 75.1387 13.5718C75.3551 13.7905 75.4634 14.1141 75.4634 14.5425V17H74.5405V15.3696C74.5405 14.9253 74.52 14.6302 74.479 14.4844C74.4403 14.3385 74.3708 14.228 74.2705 14.1528C74.1725 14.0754 74.0506 14.0366 73.9048 14.0366C73.7157 14.0366 73.5527 14.1004 73.416 14.228C73.2816 14.3534 73.1882 14.5277 73.1357 14.751C73.1084 14.8672 73.0947 15.119 73.0947 15.5063V17H72.165V13.2812ZM76.4819 11.9106H77.4116V13.2812H77.9653V14.0845H77.4116V17H76.4819V14.0845H76.0034V13.2812H76.4819V11.9106ZM78.249 13.2812H79.0488V13.7495C79.1354 13.5649 79.2505 13.4248 79.394 13.3291C79.5376 13.2334 79.6948 13.1855 79.8657 13.1855C79.9865 13.1855 80.113 13.2174 80.2451 13.2812L79.9546 14.0845C79.8452 14.0298 79.7552 14.0024 79.6846 14.0024C79.541 14.0024 79.4191 14.0913 79.3188 14.269C79.2209 14.4468 79.1719 14.7954 79.1719 15.3149L79.1753 15.4961V17H78.249V13.2812ZM83.458 13.2812H84.3877V17H83.458V16.6069C83.2757 16.7801 83.0923 16.9054 82.9077 16.9829C82.7254 17.0581 82.5272 17.0957 82.313 17.0957C81.8322 17.0957 81.4163 16.91 81.0654 16.5386C80.7145 16.1649 80.5391 15.7012 80.5391 15.1475C80.5391 14.5732 80.7088 14.1027 81.0483 13.7358C81.3879 13.369 81.8003 13.1855 82.2856 13.1855C82.509 13.1855 82.7186 13.2277 82.9146 13.312C83.1105 13.3963 83.2917 13.5228 83.458 13.6914V13.2812ZM82.4771 14.0469C82.1877 14.0469 81.9473 14.1494 81.7559 14.3545C81.5645 14.5573 81.4688 14.8182 81.4688 15.1372C81.4688 15.4585 81.5656 15.7228 81.7593 15.9302C81.9552 16.1375 82.1956 16.2412 82.4805 16.2412C82.7744 16.2412 83.0182 16.1398 83.2119 15.937C83.4056 15.7319 83.5024 15.4642 83.5024 15.1338C83.5024 14.8102 83.4056 14.5482 83.2119 14.3477C83.0182 14.1471 82.7733 14.0469 82.4771 14.0469ZM91.0186 15.4106H88.021C88.0643 15.675 88.1794 15.8857 88.3662 16.043C88.5553 16.1979 88.7957 16.2754 89.0874 16.2754C89.436 16.2754 89.7357 16.1535 89.9863 15.9097L90.7725 16.2788C90.5765 16.5568 90.3418 16.763 90.0684 16.8975C89.7949 17.0296 89.4702 17.0957 89.0942 17.0957C88.5109 17.0957 88.0358 16.9123 87.6689 16.5454C87.3021 16.1763 87.1187 15.7148 87.1187 15.1611C87.1187 14.5938 87.3009 14.1232 87.6655 13.7495C88.0324 13.3735 88.4915 13.1855 89.043 13.1855C89.6286 13.1855 90.1048 13.3735 90.4717 13.7495C90.8385 14.1232 91.022 14.6177 91.022 15.2329L91.0186 15.4106ZM90.082 14.6758C90.0205 14.4684 89.8986 14.2998 89.7163 14.1699C89.5363 14.04 89.3267 13.9751 89.0874 13.9751C88.8276 13.9751 88.5998 14.048 88.4038 14.1938C88.2808 14.285 88.1668 14.4456 88.062 14.6758H90.082ZM91.7773 13.2812H92.707V13.6606C92.9189 13.4829 93.1104 13.3599 93.2812 13.2915C93.4544 13.2209 93.631 13.1855 93.811 13.1855C94.1802 13.1855 94.4935 13.3143 94.751 13.5718C94.9674 13.7905 95.0757 14.1141 95.0757 14.5425V17H94.1528V15.3696C94.1528 14.9253 94.1323 14.6302 94.0913 14.4844C94.0526 14.3385 93.9831 14.228 93.8828 14.1528C93.7848 14.0754 93.6629 14.0366 93.5171 14.0366C93.328 14.0366 93.165 14.1004 93.0283 14.228C92.8939 14.3534 92.8005 14.5277 92.748 14.751C92.7207 14.8672 92.707 15.119 92.707 15.5063V17H91.7773V13.2812ZM96.0942 11.9106H97.0239V13.2812H97.5776V14.0845H97.0239V17H96.0942V14.0845H95.6157V13.2812H96.0942V11.9106ZM97.8613 13.2812H98.6611V13.7495C98.7477 13.5649 98.8628 13.4248 99.0063 13.3291C99.1499 13.2334 99.3071 13.1855 99.478 13.1855C99.5988 13.1855 99.7253 13.2174 99.8574 13.2812L99.5669 14.0845C99.4575 14.0298 99.3675 14.0024 99.2969 14.0024C99.1533 14.0024 99.0314 14.0913 98.9312 14.269C98.8332 14.4468 98.7842 14.7954 98.7842 15.3149L98.7876 15.4961V17H97.8613V13.2812ZM104.048 15.4106H101.05C101.094 15.675 101.209 15.8857 101.396 16.043C101.585 16.1979 101.825 16.2754 102.117 16.2754C102.465 16.2754 102.765 16.1535 103.016 15.9097L103.802 16.2788C103.606 16.5568 103.371 16.763 103.098 16.8975C102.824 17.0296 102.5 17.0957 102.124 17.0957C101.54 17.0957 101.065 16.9123 100.698 16.5454C100.331 16.1763 100.148 15.7148 100.148 15.1611C100.148 14.5938 100.33 14.1232 100.695 13.7495C101.062 13.3735 101.521 13.1855 102.072 13.1855C102.658 13.1855 103.134 13.3735 103.501 13.7495C103.868 14.1232 104.051 14.6177 104.051 15.2329L104.048 15.4106ZM103.111 14.6758C103.05 14.4684 102.928 14.2998 102.746 14.1699C102.566 14.04 102.356 13.9751 102.117 13.9751C101.857 13.9751 101.629 14.048 101.433 14.1938C101.31 14.285 101.196 14.4456 101.091 14.6758H103.111ZM107.555 13.2812H108.484V16.4668C108.484 17.0957 108.358 17.5583 108.105 17.8545C107.765 18.2555 107.254 18.4561 106.57 18.4561C106.206 18.4561 105.899 18.4105 105.651 18.3193C105.403 18.2282 105.193 18.0938 105.022 17.916C104.851 17.7406 104.725 17.5264 104.643 17.2734H105.671C105.763 17.3783 105.88 17.4569 106.023 17.5093C106.167 17.564 106.337 17.5913 106.533 17.5913C106.783 17.5913 106.985 17.5526 107.138 17.4751C107.29 17.3976 107.397 17.2974 107.459 17.1743C107.523 17.0513 107.555 16.8394 107.555 16.5386C107.391 16.7026 107.219 16.8211 107.039 16.894C106.859 16.9647 106.655 17 106.427 17C105.928 17 105.506 16.82 105.162 16.46C104.818 16.0999 104.646 15.6442 104.646 15.0928C104.646 14.5026 104.828 14.0286 105.193 13.6709C105.523 13.3473 105.917 13.1855 106.375 13.1855C106.59 13.1855 106.791 13.2254 106.98 13.3052C107.172 13.3826 107.363 13.5114 107.555 13.6914V13.2812ZM106.587 14.0571C106.293 14.0571 106.051 14.1562 105.859 14.3545C105.668 14.5505 105.572 14.7977 105.572 15.0962C105.572 15.4061 105.67 15.6602 105.866 15.8584C106.062 16.0566 106.308 16.1558 106.604 16.1558C106.894 16.1558 107.132 16.0589 107.319 15.8652C107.508 15.6715 107.603 15.4175 107.603 15.103C107.603 14.7931 107.508 14.5413 107.319 14.3477C107.13 14.154 106.886 14.0571 106.587 14.0571ZM112.176 13.2812H113.105V17H112.176V16.6069C111.993 16.7801 111.81 16.9054 111.625 16.9829C111.443 17.0581 111.245 17.0957 111.031 17.0957C110.55 17.0957 110.134 16.91 109.783 16.5386C109.432 16.1649 109.257 15.7012 109.257 15.1475C109.257 14.5732 109.427 14.1027 109.766 13.7358C110.106 13.369 110.518 13.1855 111.003 13.1855C111.227 13.1855 111.436 13.2277 111.632 13.312C111.828 13.3963 112.009 13.5228 112.176 13.6914V13.2812ZM111.195 14.0469C110.905 14.0469 110.665 14.1494 110.474 14.3545C110.282 14.5573 110.187 14.8182 110.187 15.1372C110.187 15.4585 110.283 15.7228 110.477 15.9302C110.673 16.1375 110.913 16.2412 111.198 16.2412C111.492 16.2412 111.736 16.1398 111.93 15.937C112.123 15.7319 112.22 15.4642 112.22 15.1338C112.22 14.8102 112.123 14.5482 111.93 14.3477C111.736 14.1471 111.491 14.0469 111.195 14.0469Z" fill="#F5F8FA"/>
<path d="M34.5776 11.9722H37.3223V12.9087H35.5278V13.8179H37.3223V14.7373H35.5278V16.0601H37.3223V17H34.5776V11.9722ZM37.6709 13.2812H38.0024C38.0047 12.7936 38.0127 12.5054 38.0264 12.4165C38.0514 12.2114 38.1369 12.0496 38.2827 11.9312C38.4308 11.8104 38.6393 11.75 38.9082 11.75C39.1019 11.75 39.3206 11.7944 39.5645 11.8833V12.5942C39.43 12.5555 39.3195 12.5361 39.2329 12.5361C39.1235 12.5361 39.0438 12.5589 38.9937 12.6045C38.9572 12.6387 38.939 12.7093 38.939 12.8164L38.9355 13.2812H39.5269V14.0742H38.9355V17H38.0024V14.0742H37.6709V13.2812ZM43.8027 15.4106H40.8052C40.8485 15.675 40.9635 15.8857 41.1504 16.043C41.3395 16.1979 41.5799 16.2754 41.8716 16.2754C42.2202 16.2754 42.5199 16.1535 42.7705 15.9097L43.5566 16.2788C43.3607 16.5568 43.126 16.763 42.8525 16.8975C42.5791 17.0296 42.2544 17.0957 41.8784 17.0957C41.2951 17.0957 40.82 16.9123 40.4531 16.5454C40.0863 16.1763 39.9028 15.7148 39.9028 15.1611C39.9028 14.5938 40.0851 14.1232 40.4497 13.7495C40.8166 13.3735 41.2757 13.1855 41.8271 13.1855C42.4128 13.1855 42.889 13.3735 43.2559 13.7495C43.6227 14.1232 43.8062 14.6177 43.8062 15.2329L43.8027 15.4106ZM42.8662 14.6758C42.8047 14.4684 42.6828 14.2998 42.5005 14.1699C42.3205 14.04 42.1108 13.9751 41.8716 13.9751C41.6118 13.9751 41.384 14.048 41.188 14.1938C41.0649 14.285 40.951 14.4456 40.8462 14.6758H42.8662ZM48.2017 14.0332L47.4258 14.4604C47.2799 14.3078 47.1353 14.2018 46.9917 14.1426C46.8504 14.0833 46.6841 14.0537 46.4927 14.0537C46.144 14.0537 45.8615 14.1585 45.645 14.3682C45.4308 14.5755 45.3237 14.8421 45.3237 15.168C45.3237 15.4847 45.4274 15.7433 45.6348 15.9438C45.8421 16.1444 46.1144 16.2446 46.4517 16.2446C46.8687 16.2446 47.1934 16.1022 47.4258 15.8174L48.1606 16.3198C47.7619 16.8371 47.1991 17.0957 46.4722 17.0957C45.8182 17.0957 45.3055 16.902 44.9341 16.5146C44.5649 16.1273 44.3804 15.6738 44.3804 15.1543C44.3804 14.7943 44.4704 14.4627 44.6504 14.1597C44.8304 13.8566 45.0811 13.6185 45.4023 13.4453C45.7259 13.2721 46.0871 13.1855 46.4858 13.1855C46.855 13.1855 47.1865 13.2596 47.4805 13.4077C47.7744 13.5535 48.0148 13.762 48.2017 14.0332ZM49.1587 11.9106H50.0884V13.2812H50.6421V14.0845H50.0884V17H49.1587V14.0845H48.6802V13.2812H49.1587V11.9106ZM51.5103 11.75C51.6743 11.75 51.8145 11.8092 51.9307 11.9277C52.0492 12.0462 52.1084 12.1898 52.1084 12.3584C52.1084 12.5247 52.0503 12.6672 51.9341 12.7856C51.8179 12.9019 51.6789 12.96 51.5171 12.96C51.3507 12.96 51.2083 12.9007 51.0898 12.7822C50.9736 12.6615 50.9155 12.5156 50.9155 12.3447C50.9155 12.1807 50.9736 12.0405 51.0898 11.9243C51.2061 11.8081 51.3462 11.75 51.5103 11.75ZM51.042 13.2812H51.9785V17H51.042V13.2812ZM52.4263 13.2812H53.3765L54.3164 15.4756L55.2529 13.2812H56.1997L54.6172 17H54.0122L52.4263 13.2812ZM58.4966 13.1855C58.8475 13.1855 59.1768 13.2733 59.4844 13.4487C59.7943 13.6242 60.0358 13.8623 60.209 14.1631C60.3822 14.4639 60.4688 14.7886 60.4688 15.1372C60.4688 15.4881 60.381 15.8162 60.2056 16.1216C60.0324 16.4269 59.7954 16.6662 59.4946 16.8394C59.1938 17.0103 58.8623 17.0957 58.5 17.0957C57.9668 17.0957 57.5111 16.9066 57.1328 16.5283C56.7568 16.1478 56.5688 15.6864 56.5688 15.144C56.5688 14.563 56.7819 14.0788 57.208 13.6914C57.5817 13.3542 58.0112 13.1855 58.4966 13.1855ZM58.5103 14.064C58.2209 14.064 57.9793 14.1654 57.7856 14.3682C57.5942 14.5687 57.4985 14.8262 57.4985 15.1406C57.4985 15.4642 57.5931 15.7262 57.7822 15.9268C57.9736 16.1273 58.2152 16.2275 58.5068 16.2275C58.7985 16.2275 59.0412 16.1261 59.2349 15.9233C59.4285 15.7205 59.5254 15.4596 59.5254 15.1406C59.5254 14.8216 59.4297 14.563 59.2383 14.3647C59.0492 14.1642 58.8065 14.064 58.5103 14.064ZM66.8364 14.0332L66.0605 14.4604C65.9147 14.3078 65.77 14.2018 65.6265 14.1426C65.4852 14.0833 65.3188 14.0537 65.1274 14.0537C64.7788 14.0537 64.4963 14.1585 64.2798 14.3682C64.0656 14.5755 63.9585 14.8421 63.9585 15.168C63.9585 15.4847 64.0622 15.7433 64.2695 15.9438C64.4769 16.1444 64.7492 16.2446 65.0864 16.2446C65.5034 16.2446 65.8281 16.1022 66.0605 15.8174L66.7954 16.3198C66.3966 16.8371 65.8338 17.0957 65.1069 17.0957C64.453 17.0957 63.9403 16.902 63.5688 16.5146C63.1997 16.1273 63.0151 15.6738 63.0151 15.1543C63.0151 14.7943 63.1051 14.4627 63.2852 14.1597C63.4652 13.8566 63.7158 13.6185 64.0371 13.4453C64.3607 13.2721 64.7218 13.1855 65.1206 13.1855C65.4897 13.1855 65.8213 13.2596 66.1152 13.4077C66.4092 13.5535 66.6496 13.762 66.8364 14.0332ZM69.4272 13.1855C69.7782 13.1855 70.1074 13.2733 70.415 13.4487C70.7249 13.6242 70.9665 13.8623 71.1396 14.1631C71.3128 14.4639 71.3994 14.7886 71.3994 15.1372C71.3994 15.4881 71.3117 15.8162 71.1362 16.1216C70.9631 16.4269 70.7261 16.6662 70.4253 16.8394C70.1245 17.0103 69.793 17.0957 69.4307 17.0957C68.8975 17.0957 68.4417 16.9066 68.0635 16.5283C67.6875 16.1478 67.4995 15.6864 67.4995 15.144C67.4995 14.563 67.7126 14.0788 68.1387 13.6914C68.5124 13.3542 68.9419 13.1855 69.4272 13.1855ZM69.4409 14.064C69.1515 14.064 68.91 14.1654 68.7163 14.3682C68.5249 14.5687 68.4292 14.8262 68.4292 15.1406C68.4292 15.4642 68.5238 15.7262 68.7129 15.9268C68.9043 16.1273 69.1458 16.2275 69.4375 16.2275C69.7292 16.2275 69.9718 16.1261 70.1655 15.9233C70.3592 15.7205 70.4561 15.4596 70.4561 15.1406C70.4561 14.8216 70.3604 14.563 70.1689 14.3647C69.9798 14.1642 69.7371 14.064 69.4409 14.064ZM72.165 13.2812H73.0947V13.6606C73.3066 13.4829 73.498 13.3599 73.6689 13.2915C73.8421 13.2209 74.0187 13.1855 74.1987 13.1855C74.5679 13.1855 74.8812 13.3143 75.1387 13.5718C75.3551 13.7905 75.4634 14.1141 75.4634 14.5425V17H74.5405V15.3696C74.5405 14.9253 74.52 14.6302 74.479 14.4844C74.4403 14.3385 74.3708 14.228 74.2705 14.1528C74.1725 14.0754 74.0506 14.0366 73.9048 14.0366C73.7157 14.0366 73.5527 14.1004 73.416 14.228C73.2816 14.3534 73.1882 14.5277 73.1357 14.751C73.1084 14.8672 73.0947 15.119 73.0947 15.5063V17H72.165V13.2812ZM76.4819 11.9106H77.4116V13.2812H77.9653V14.0845H77.4116V17H76.4819V14.0845H76.0034V13.2812H76.4819V11.9106ZM78.249 13.2812H79.0488V13.7495C79.1354 13.5649 79.2505 13.4248 79.394 13.3291C79.5376 13.2334 79.6948 13.1855 79.8657 13.1855C79.9865 13.1855 80.113 13.2174 80.2451 13.2812L79.9546 14.0845C79.8452 14.0298 79.7552 14.0024 79.6846 14.0024C79.541 14.0024 79.4191 14.0913 79.3188 14.269C79.2209 14.4468 79.1719 14.7954 79.1719 15.3149L79.1753 15.4961V17H78.249V13.2812ZM83.458 13.2812H84.3877V17H83.458V16.6069C83.2757 16.7801 83.0923 16.9054 82.9077 16.9829C82.7254 17.0581 82.5272 17.0957 82.313 17.0957C81.8322 17.0957 81.4163 16.91 81.0654 16.5386C80.7145 16.1649 80.5391 15.7012 80.5391 15.1475C80.5391 14.5732 80.7088 14.1027 81.0483 13.7358C81.3879 13.369 81.8003 13.1855 82.2856 13.1855C82.509 13.1855 82.7186 13.2277 82.9146 13.312C83.1105 13.3963 83.2917 13.5228 83.458 13.6914V13.2812ZM82.4771 14.0469C82.1877 14.0469 81.9473 14.1494 81.7559 14.3545C81.5645 14.5573 81.4688 14.8182 81.4688 15.1372C81.4688 15.4585 81.5656 15.7228 81.7593 15.9302C81.9552 16.1375 82.1956 16.2412 82.4805 16.2412C82.7744 16.2412 83.0182 16.1398 83.2119 15.937C83.4056 15.7319 83.5024 15.4642 83.5024 15.1338C83.5024 14.8102 83.4056 14.5482 83.2119 14.3477C83.0182 14.1471 82.7733 14.0469 82.4771 14.0469ZM91.0186 15.4106H88.021C88.0643 15.675 88.1794 15.8857 88.3662 16.043C88.5553 16.1979 88.7957 16.2754 89.0874 16.2754C89.436 16.2754 89.7357 16.1535 89.9863 15.9097L90.7725 16.2788C90.5765 16.5568 90.3418 16.763 90.0684 16.8975C89.7949 17.0296 89.4702 17.0957 89.0942 17.0957C88.5109 17.0957 88.0358 16.9123 87.6689 16.5454C87.3021 16.1763 87.1187 15.7148 87.1187 15.1611C87.1187 14.5938 87.3009 14.1232 87.6655 13.7495C88.0324 13.3735 88.4915 13.1855 89.043 13.1855C89.6286 13.1855 90.1048 13.3735 90.4717 13.7495C90.8385 14.1232 91.022 14.6177 91.022 15.2329L91.0186 15.4106ZM90.082 14.6758C90.0205 14.4684 89.8986 14.2998 89.7163 14.1699C89.5363 14.04 89.3267 13.9751 89.0874 13.9751C88.8276 13.9751 88.5998 14.048 88.4038 14.1938C88.2808 14.285 88.1668 14.4456 88.062 14.6758H90.082ZM91.7773 13.2812H92.707V13.6606C92.9189 13.4829 93.1104 13.3599 93.2812 13.2915C93.4544 13.2209 93.631 13.1855 93.811 13.1855C94.1802 13.1855 94.4935 13.3143 94.751 13.5718C94.9674 13.7905 95.0757 14.1141 95.0757 14.5425V17H94.1528V15.3696C94.1528 14.9253 94.1323 14.6302 94.0913 14.4844C94.0526 14.3385 93.9831 14.228 93.8828 14.1528C93.7848 14.0754 93.6629 14.0366 93.5171 14.0366C93.328 14.0366 93.165 14.1004 93.0283 14.228C92.8939 14.3534 92.8005 14.5277 92.748 14.751C92.7207 14.8672 92.707 15.119 92.707 15.5063V17H91.7773V13.2812ZM96.0942 11.9106H97.0239V13.2812H97.5776V14.0845H97.0239V17H96.0942V14.0845H95.6157V13.2812H96.0942V11.9106ZM97.8613 13.2812H98.6611V13.7495C98.7477 13.5649 98.8628 13.4248 99.0063 13.3291C99.1499 13.2334 99.3071 13.1855 99.478 13.1855C99.5988 13.1855 99.7253 13.2174 99.8574 13.2812L99.5669 14.0845C99.4575 14.0298 99.3675 14.0024 99.2969 14.0024C99.1533 14.0024 99.0314 14.0913 98.9312 14.269C98.8332 14.4468 98.7842 14.7954 98.7842 15.3149L98.7876 15.4961V17H97.8613V13.2812ZM104.048 15.4106H101.05C101.094 15.675 101.209 15.8857 101.396 16.043C101.585 16.1979 101.825 16.2754 102.117 16.2754C102.465 16.2754 102.765 16.1535 103.016 15.9097L103.802 16.2788C103.606 16.5568 103.371 16.763 103.098 16.8975C102.824 17.0296 102.5 17.0957 102.124 17.0957C101.54 17.0957 101.065 16.9123 100.698 16.5454C100.331 16.1763 100.148 15.7148 100.148 15.1611C100.148 14.5938 100.33 14.1232 100.695 13.7495C101.062 13.3735 101.521 13.1855 102.072 13.1855C102.658 13.1855 103.134 13.3735 103.501 13.7495C103.868 14.1232 104.051 14.6177 104.051 15.2329L104.048 15.4106ZM103.111 14.6758C103.05 14.4684 102.928 14.2998 102.746 14.1699C102.566 14.04 102.356 13.9751 102.117 13.9751C101.857 13.9751 101.629 14.048 101.433 14.1938C101.31 14.285 101.196 14.4456 101.091 14.6758H103.111ZM107.555 13.2812H108.484V16.4668C108.484 17.0957 108.358 17.5583 108.105 17.8545C107.765 18.2555 107.254 18.4561 106.57 18.4561C106.206 18.4561 105.899 18.4105 105.651 18.3193C105.403 18.2282 105.193 18.0938 105.022 17.916C104.851 17.7406 104.725 17.5264 104.643 17.2734H105.671C105.763 17.3783 105.88 17.4569 106.023 17.5093C106.167 17.564 106.337 17.5913 106.533 17.5913C106.783 17.5913 106.985 17.5526 107.138 17.4751C107.29 17.3976 107.397 17.2974 107.459 17.1743C107.523 17.0513 107.555 16.8394 107.555 16.5386C107.391 16.7026 107.219 16.8211 107.039 16.894C106.859 16.9647 106.655 17 106.427 17C105.928 17 105.506 16.82 105.162 16.46C104.818 16.0999 104.646 15.6442 104.646 15.0928C104.646 14.5026 104.828 14.0286 105.193 13.6709C105.523 13.3473 105.917 13.1855 106.375 13.1855C106.59 13.1855 106.791 13.2254 106.98 13.3052C107.172 13.3826 107.363 13.5114 107.555 13.6914V13.2812ZM106.587 14.0571C106.293 14.0571 106.051 14.1562 105.859 14.3545C105.668 14.5505 105.572 14.7977 105.572 15.0962C105.572 15.4061 105.67 15.6602 105.866 15.8584C106.062 16.0566 106.308 16.1558 106.604 16.1558C106.894 16.1558 107.132 16.0589 107.319 15.8652C107.508 15.6715 107.603 15.4175 107.603 15.103C107.603 14.7931 107.508 14.5413 107.319 14.3477C107.13 14.154 106.886 14.0571 106.587 14.0571ZM112.176 13.2812H113.105V17H112.176V16.6069C111.993 16.7801 111.81 16.9054 111.625 16.9829C111.443 17.0581 111.245 17.0957 111.031 17.0957C110.55 17.0957 110.134 16.91 109.783 16.5386C109.432 16.1649 109.257 15.7012 109.257 15.1475C109.257 14.5732 109.427 14.1027 109.766 13.7358C110.106 13.369 110.518 13.1855 111.003 13.1855C111.227 13.1855 111.436 13.2277 111.632 13.312C111.828 13.3963 112.009 13.5228 112.176 13.6914V13.2812ZM111.195 14.0469C110.905 14.0469 110.665 14.1494 110.474 14.3545C110.282 14.5573 110.187 14.8182 110.187 15.1372C110.187 15.4585 110.283 15.7228 110.477 15.9302C110.673 16.1375 110.913 16.2412 111.198 16.2412C111.492 16.2412 111.736 16.1398 111.93 15.937C112.123 15.7319 112.22 15.4642 112.22 15.1338C112.22 14.8102 112.123 14.5482 111.93 14.3477C111.736 14.1471 111.491 14.0469 111.195 14.0469Z" fill="url(#paint0_linear)"/>
<path d="M17.0391 5C11.543 5 7 9.46484 7 14.9609C7 20.457 11.543 25 17.0391 25C22.5351 25 27 20.457 27 14.9609C27 9.46484 22.5351 5 17.0391 5Z" fill="#FEDB41"/>
<path d="M27 14.9609C27 20.457 22.5351 25 17.0391 25V5C22.5351 5 27 9.46484 27 14.9609Z" fill="#FFCC33"/>
<path d="M17.0391 7.34375C12.8437 7.34375 9.34375 10.7656 9.34375 14.9609C9.34375 19.1563 12.8437 22.6562 17.0391 22.6562C21.2345 22.6562 24.6562 19.1563 24.6562 14.9609C24.6562 10.7656 21.2345 7.34375 17.0391 7.34375Z" fill="#FEA832"/>
<path d="M24.6562 14.9609C24.6562 19.1563 21.2345 22.6562 17.0391 22.6562V7.34375C21.2345 7.34375 24.6562 10.7656 24.6562 14.9609Z" fill="#FE9923"/>
<path d="M18.2109 14.375H17.625V12.0312H18.2109C18.5391 12.0312 18.7969 12.289 18.7969 12.6172C18.7969 13.3906 19.9688 13.3906 19.9688 12.6172C19.9688 11.6445 19.1837 10.8594 18.2109 10.8594H17.625V10.2734C17.625 9.88668 17.332 9.6875 17.0391 9.6875C16.7461 9.6875 16.4531 9.88668 16.4531 10.2734V10.8594H15.7891C14.8163 10.8594 14.0312 11.6445 14.0312 12.6172V13.7891C14.0312 14.7618 14.8163 15.5469 15.7891 15.5469H16.4531V17.9688H15.7891C15.4609 17.9688 15.2031 17.711 15.2031 17.3828C15.2031 16.6094 14.0312 16.6094 14.0312 17.3828C14.0312 18.3555 14.8163 19.1406 15.7891 19.1406H16.4531V19.7266C16.4531 20.1133 16.7461 20.3125 17.0391 20.3125C17.332 20.3125 17.625 20.1133 17.625 19.7266V19.1406H18.2109C19.1837 19.1406 19.9688 18.3555 19.9688 17.3828V16.1328C19.9688 15.1601 19.1837 14.375 18.2109 14.375ZM16.4531 14.375H15.7891C15.4609 14.375 15.2031 14.1172 15.2031 13.7891V12.6172C15.2031 12.289 15.4609 12.0312 15.7891 12.0312H16.4531V14.375ZM18.7969 17.3828C18.7969 17.711 18.5391 17.9688 18.2109 17.9688H17.625V15.5469H18.2109C18.5391 15.5469 18.7969 15.8046 18.7969 16.1328V17.3828Z" fill="#FEDB41"/>
<path d="M18.2109 14.375H17.625V12.0312H18.2109C18.5391 12.0312 18.7969 12.289 18.7969 12.6172C18.7969 13.3906 19.9688 13.3906 19.9688 12.6172C19.9688 11.6445 19.1837 10.8594 18.2109 10.8594H17.625V10.2734C17.625 9.88668 17.332 9.6875 17.0391 9.6875V20.3125C17.332 20.3125 17.625 20.1133 17.625 19.7266V19.1406H18.2109C19.1837 19.1406 19.9688 18.3555 19.9688 17.3828V16.1328C19.9688 15.1601 19.1837 14.375 18.2109 14.375ZM18.7969 17.3828C18.7969 17.711 18.5391 17.9688 18.2109 17.9688H17.625V15.5469H18.2109C18.5391 15.5469 18.7969 15.8046 18.7969 16.1328V17.3828Z" fill="#FFCC33"/>
<defs>
<filter id="filter0_d" x="0" y="1" width="131" height="30" filterUnits="userSpaceOnUse" color-interpolation-filters="sRGB">
<feFlood flood-opacity="0" result="BackgroundImageFix"/>
<feColorMatrix in="SourceAlpha" type="matrix" values="0 0 0 0 0 0 0 0 0 0 0 0 0 0 0 0 0 0 127 0"/>
<feOffset dx="1" dy="1"/>
<feGaussianBlur stdDeviation="2"/>
<feColorMatrix type="matrix" values="0 0 0 0 0 0 0 0 0 0 0 0 0 0 0 0 0 0 0.15 0"/>
<feBlend mode="normal" in2="BackgroundImageFix" result="effect1_dropShadow"/>
<feBlend mode="normal" in="SourceGraphic" in2="effect1_dropShadow" result="shape"/>
</filter>
<linearGradient id="paint0_linear" x1="74" y1="10" x2="74" y2="19" gradientUnits="userSpaceOnUse">
<stop stop-color="white"/>
<stop offset="1" stop-color="white" stop-opacity="0"/>
</linearGradient>
</defs>
</svg>
