<svg width="34" height="30" viewBox="0 0 34 30" fill="none" xmlns="http://www.w3.org/2000/svg">
<g filter="url(#filter0_d)">
<rect x="29" y="3" width="22" height="26" rx="4.64052" transform="rotate(90 29 3)" fill="#3497DB"/>
</g>
<path d="M21.3225 12.9798C20.9165 12.9798 20.528 13.0557 20.1702 13.1939C19.8898 12.5708 19.6476 11.9119 19.5266 11.299C19.3323 10.3145 18.4624 9.60001 17.4581 9.60001C17.2035 9.60001 16.9972 9.80637 16.9972 10.0609C16.9972 10.3155 17.2035 10.5218 17.4581 10.5218C17.5678 10.5218 17.6745 10.5371 17.7763 10.5656C18.0855 10.652 18.3479 10.8611 18.5009 11.1419C18.4885 11.1577 18.4767 11.174 18.4662 11.1917L18.323 11.4327L17.5986 12.6523H13.728L13.508 12.0986H13.5994C13.8539 12.0986 14.0603 11.8922 14.0603 11.6376C14.0603 11.3831 13.8539 11.1767 13.5994 11.1767H12.0102C11.7556 11.1767 11.5492 11.3831 11.5492 11.6376C11.5492 11.8922 11.7556 12.0986 12.0102 12.0986H12.5161L12.9183 13.1108C12.6302 13.0257 12.3255 12.9798 12.0102 12.9798C10.2401 12.9798 8.80005 14.4199 8.80005 16.1899C8.80005 17.9599 10.2401 19.4 12.0101 19.4C13.6237 19.4 14.9628 18.2033 15.187 16.6508H16.0334C16.196 16.6508 16.3466 16.5651 16.4297 16.4253L18.8519 12.3476C18.9939 12.7873 19.1718 13.2279 19.3635 13.6488C18.6031 14.2363 18.1124 15.1568 18.1124 16.1899C18.1124 17.96 19.5524 19.4 21.3225 19.4C23.0925 19.4 24.5326 17.96 24.5326 16.1899C24.5326 14.4199 23.0925 12.9798 21.3225 12.9798ZM12.0101 16.6508H14.2517C14.0379 17.6924 13.114 18.4781 12.0101 18.4781C10.7484 18.4781 9.72188 17.4516 9.72188 16.1899C9.72188 14.9282 10.7484 13.9016 12.0101 13.9016C13.114 13.9016 14.0379 14.6874 14.2517 15.729H12.0101C11.7556 15.729 11.5492 15.9354 11.5492 16.1899C11.5492 16.4444 11.7556 16.6508 12.0101 16.6508ZM15.7711 15.729H15.187C15.08 14.9885 14.7194 14.329 14.1963 13.8417C14.1915 13.8232 14.1859 13.8047 14.1787 13.7865L14.0943 13.5742H17.0511L15.7711 15.729ZM21.3225 18.4781C20.0607 18.4781 19.0342 17.4516 19.0342 16.1899C19.0342 15.5215 19.3224 14.9191 19.7809 14.5004C20.3478 15.5837 20.9015 16.3913 20.9431 16.4517C21.0326 16.5813 21.1765 16.6508 21.3229 16.6508C21.4132 16.6508 21.5044 16.6243 21.5843 16.5692C21.7938 16.4246 21.8464 16.1375 21.7018 15.928C21.6919 15.9136 21.1341 15.1002 20.5756 14.0274C20.8099 13.9463 21.061 13.9016 21.3225 13.9016C22.5842 13.9016 23.6107 14.9281 23.6107 16.1898C23.6107 17.4516 22.5842 18.4781 21.3225 18.4781Z" fill="#F5F8FA"/>
<path d="M21.3225 12.9798C20.9165 12.9798 20.528 13.0557 20.1702 13.1939C19.8898 12.5708 19.6476 11.9119 19.5266 11.299C19.3323 10.3145 18.4624 9.60001 17.4581 9.60001C17.2035 9.60001 16.9972 9.80637 16.9972 10.0609C16.9972 10.3155 17.2035 10.5218 17.4581 10.5218C17.5678 10.5218 17.6745 10.5371 17.7763 10.5656C18.0855 10.652 18.3479 10.8611 18.5009 11.1419C18.4885 11.1577 18.4767 11.174 18.4662 11.1917L18.323 11.4327L17.5986 12.6523H13.728L13.508 12.0986H13.5994C13.8539 12.0986 14.0603 11.8922 14.0603 11.6376C14.0603 11.3831 13.8539 11.1767 13.5994 11.1767H12.0102C11.7556 11.1767 11.5492 11.3831 11.5492 11.6376C11.5492 11.8922 11.7556 12.0986 12.0102 12.0986H12.5161L12.9183 13.1108C12.6302 13.0257 12.3255 12.9798 12.0102 12.9798C10.2401 12.9798 8.80005 14.4199 8.80005 16.1899C8.80005 17.9599 10.2401 19.4 12.0101 19.4C13.6237 19.4 14.9628 18.2033 15.187 16.6508H16.0334C16.196 16.6508 16.3466 16.5651 16.4297 16.4253L18.8519 12.3476C18.9939 12.7873 19.1718 13.2279 19.3635 13.6488C18.6031 14.2363 18.1124 15.1568 18.1124 16.1899C18.1124 17.96 19.5524 19.4 21.3225 19.4C23.0925 19.4 24.5326 17.96 24.5326 16.1899C24.5326 14.4199 23.0925 12.9798 21.3225 12.9798ZM12.0101 16.6508H14.2517C14.0379 17.6924 13.114 18.4781 12.0101 18.4781C10.7484 18.4781 9.72188 17.4516 9.72188 16.1899C9.72188 14.9282 10.7484 13.9016 12.0101 13.9016C13.114 13.9016 14.0379 14.6874 14.2517 15.729H12.0101C11.7556 15.729 11.5492 15.9354 11.5492 16.1899C11.5492 16.4444 11.7556 16.6508 12.0101 16.6508ZM15.7711 15.729H15.187C15.08 14.9885 14.7194 14.329 14.1963 13.8417C14.1915 13.8232 14.1859 13.8047 14.1787 13.7865L14.0943 13.5742H17.0511L15.7711 15.729ZM21.3225 18.4781C20.0607 18.4781 19.0342 17.4516 19.0342 16.1899C19.0342 15.5215 19.3224 14.9191 19.7809 14.5004C20.3478 15.5837 20.9015 16.3913 20.9431 16.4517C21.0326 16.5813 21.1765 16.6508 21.3229 16.6508C21.4132 16.6508 21.5044 16.6243 21.5843 16.5692C21.7938 16.4246 21.8464 16.1375 21.7018 15.928C21.6919 15.9136 21.1341 15.1002 20.5756 14.0274C20.8099 13.9463 21.061 13.9016 21.3225 13.9016C22.5842 13.9016 23.6107 14.9281 23.6107 16.1898C23.6107 17.4516 22.5842 18.4781 21.3225 18.4781Z" fill="url(#paint0_linear)"/>
<defs>
<filter id="filter0_d" x="0" y="0" width="34" height="30" filterUnits="userSpaceOnUse" color-interpolation-filters="sRGB">
<feFlood flood-opacity="0" result="BackgroundImageFix"/>
<feColorMatrix in="SourceAlpha" type="matrix" values="0 0 0 0 0 0 0 0 0 0 0 0 0 0 0 0 0 0 127 0"/>
<feOffset dx="1" dy="1"/>
<feGaussianBlur stdDeviation="2"/>
<feColorMatrix type="matrix" values="0 0 0 0 0 0 0 0 0 0 0 0 0 0 0 0 0 0 0.15 0"/>
<feBlend mode="normal" in2="BackgroundImageFix" result="effect1_dropShadow"/>
<feBlend mode="normal" in="SourceGraphic" in2="effect1_dropShadow" result="shape"/>
</filter>
<linearGradient id="paint0_linear" x1="16.6663" y1="9.60001" x2="16.6663" y2="19.4" gradientUnits="userSpaceOnUse">
<stop stop-color="white"/>
<stop offset="1" stop-color="white" stop-opacity="0"/>
</linearGradient>
</defs>
</svg>
