<svg width="308" height="230" viewBox="0 0 308 230" fill="none" xmlns="http://www.w3.org/2000/svg">
<g filter="url(#filter0_d)">
<rect x="5" y="5" width="278" height="200" rx="15" fill="#F5F8FA"/>
<rect x="5" y="5" width="278" height="200" rx="15" fill="url(#paint0_linear)"/>
</g>
<rect x="57" y="52" width="171" height="31" fill="#FAFCFD" fill-opacity="0.5"/>
<path d="M83.1083 37.7617H91.663V40.9609H86.3544V44.0898H91.663V47.2422H86.3544V55H83.1083V37.7617ZM107.735 49.5508H97.4572C97.6056 50.457 98.0002 51.1797 98.6408 51.7188C99.2892 52.25 100.113 52.5156 101.113 52.5156C102.309 52.5156 103.336 52.0977 104.195 51.2617L106.891 52.5273C106.219 53.4805 105.414 54.1875 104.477 54.6484C103.539 55.1016 102.426 55.3281 101.137 55.3281C99.1369 55.3281 97.508 54.6992 96.2502 53.4414C94.9923 52.1758 94.3634 50.5938 94.3634 48.6953C94.3634 46.75 94.9884 45.1367 96.2384 43.8555C97.4962 42.5664 99.0705 41.9219 100.961 41.9219C102.969 41.9219 104.602 42.5664 105.86 43.8555C107.117 45.1367 107.746 46.832 107.746 48.9414L107.735 49.5508ZM104.524 47.0312C104.313 46.3203 103.895 45.7422 103.27 45.2969C102.652 44.8516 101.934 44.6289 101.113 44.6289C100.223 44.6289 99.4416 44.8789 98.7697 45.3789C98.3478 45.6914 97.9572 46.2422 97.5978 47.0312H104.524ZM123.537 44.8281L120.876 46.293C120.376 45.7695 119.88 45.4062 119.388 45.2031C118.904 45 118.333 44.8984 117.677 44.8984C116.482 44.8984 115.513 45.2578 114.771 45.9766C114.037 46.6875 113.669 47.6016 113.669 48.7188C113.669 49.8047 114.025 50.6914 114.736 51.3789C115.447 52.0664 116.38 52.4102 117.537 52.4102C118.966 52.4102 120.08 51.9219 120.876 50.9453L123.396 52.668C122.029 54.4414 120.099 55.3281 117.607 55.3281C115.365 55.3281 113.607 54.6641 112.333 53.3359C111.068 52.0078 110.435 50.4531 110.435 48.6719C110.435 47.4375 110.744 46.3008 111.361 45.2617C111.978 44.2227 112.837 43.4062 113.939 42.8125C115.048 42.2188 116.287 41.9219 117.654 41.9219C118.919 41.9219 120.056 42.1758 121.064 42.6836C122.072 43.1836 122.896 43.8984 123.537 44.8281ZM127.163 37.3281H130.339V43.5391C130.964 43 131.592 42.5977 132.225 42.332C132.858 42.0586 133.499 41.9219 134.147 41.9219C135.413 41.9219 136.479 42.3594 137.346 43.2344C138.089 43.9922 138.46 45.1055 138.46 46.5742V55H135.307V49.4102C135.307 47.9336 135.237 46.9336 135.096 46.4102C134.956 45.8867 134.714 45.4961 134.37 45.2383C134.034 44.9805 133.616 44.8516 133.116 44.8516C132.467 44.8516 131.909 45.0664 131.44 45.4961C130.979 45.9258 130.659 46.5117 130.479 47.2539C130.385 47.6367 130.339 48.5117 130.339 49.8789V55H127.163V37.3281ZM151.707 42.25H154.895V55H151.707V53.6523C151.082 54.2461 150.453 54.6758 149.82 54.9414C149.195 55.1992 148.516 55.3281 147.781 55.3281C146.133 55.3281 144.707 54.6914 143.504 53.418C142.301 52.1367 141.699 50.5469 141.699 48.6484C141.699 46.6797 142.281 45.0664 143.445 43.8086C144.609 42.5508 146.023 41.9219 147.688 41.9219C148.453 41.9219 149.172 42.0664 149.844 42.3555C150.516 42.6445 151.137 43.0781 151.707 43.6562V42.25ZM148.344 44.875C147.352 44.875 146.527 45.2266 145.871 45.9297C145.215 46.625 144.887 47.5195 144.887 48.6133C144.887 49.7148 145.219 50.6211 145.883 51.332C146.555 52.043 147.379 52.3984 148.355 52.3984C149.363 52.3984 150.199 52.0508 150.863 51.3555C151.527 50.6523 151.859 49.7344 151.859 48.6016C151.859 47.4922 151.527 46.5938 150.863 45.9062C150.199 45.2188 149.359 44.875 148.344 44.875ZM166.654 44.0312L164.673 46.0117C163.868 45.2148 163.138 44.8164 162.482 44.8164C162.122 44.8164 161.841 44.8945 161.638 45.0508C161.435 45.1992 161.333 45.3867 161.333 45.6133C161.333 45.7852 161.396 45.9453 161.521 46.0938C161.654 46.2344 161.974 46.4297 162.482 46.6797L163.654 47.2656C164.888 47.875 165.736 48.4961 166.197 49.1289C166.658 49.7617 166.888 50.5039 166.888 51.3555C166.888 52.4883 166.47 53.4336 165.634 54.1914C164.806 54.9492 163.693 55.3281 162.294 55.3281C160.435 55.3281 158.95 54.6016 157.841 53.1484L159.81 51.0039C160.185 51.4414 160.622 51.7969 161.122 52.0703C161.63 52.3359 162.079 52.4688 162.47 52.4688C162.892 52.4688 163.232 52.3672 163.49 52.1641C163.747 51.9609 163.876 51.7266 163.876 51.4609C163.876 50.9688 163.411 50.4883 162.482 50.0195L161.404 49.4805C159.341 48.4414 158.31 47.1406 158.31 45.5781C158.31 44.5703 158.697 43.7109 159.47 43C160.251 42.2812 161.247 41.9219 162.458 41.9219C163.286 41.9219 164.064 42.1055 164.79 42.4727C165.525 42.832 166.146 43.3516 166.654 44.0312ZM187.008 37.3281H190.195V55H187.008V53.6523C186.383 54.2461 185.754 54.6758 185.121 54.9414C184.496 55.1992 183.816 55.3281 183.082 55.3281C181.433 55.3281 180.008 54.6914 178.805 53.418C177.601 52.1367 177 50.5469 177 48.6484C177 46.6797 177.582 45.0664 178.746 43.8086C179.91 42.5508 181.324 41.9219 182.988 41.9219C183.754 41.9219 184.473 42.0664 185.144 42.3555C185.816 42.6445 186.437 43.0781 187.008 43.6562V37.3281ZM183.644 44.875C182.652 44.875 181.828 45.2266 181.172 45.9297C180.515 46.625 180.187 47.5195 180.187 48.6133C180.187 49.7148 180.519 50.6211 181.183 51.332C181.855 52.043 182.68 52.3984 183.656 52.3984C184.664 52.3984 185.5 52.0508 186.164 51.3555C186.828 50.6523 187.16 49.7344 187.16 48.6016C187.16 47.4922 186.828 46.5938 186.164 45.9062C185.5 45.2188 184.66 44.875 183.644 44.875ZM206.923 49.5508H196.646C196.794 50.457 197.189 51.1797 197.829 51.7188C198.478 52.25 199.302 52.5156 200.302 52.5156C201.497 52.5156 202.525 52.0977 203.384 51.2617L206.079 52.5273C205.407 53.4805 204.603 54.1875 203.665 54.6484C202.728 55.1016 201.614 55.3281 200.325 55.3281C198.325 55.3281 196.696 54.6992 195.439 53.4414C194.181 52.1758 193.552 50.5938 193.552 48.6953C193.552 46.75 194.177 45.1367 195.427 43.8555C196.685 42.5664 198.259 41.9219 200.15 41.9219C202.157 41.9219 203.79 42.5664 205.048 43.8555C206.306 45.1367 206.935 46.832 206.935 48.9414L206.923 49.5508ZM203.712 47.0312C203.501 46.3203 203.083 45.7422 202.458 45.2969C201.841 44.8516 201.122 44.6289 200.302 44.6289C199.411 44.6289 198.63 44.8789 197.958 45.3789C197.536 45.6914 197.146 46.2422 196.786 47.0312H203.712ZM110.863 76.5508H100.586C100.735 77.457 101.129 78.1797 101.77 78.7188C102.418 79.25 103.242 79.5156 104.242 79.5156C105.438 79.5156 106.465 79.0977 107.324 78.2617L110.02 79.5273C109.348 80.4805 108.543 81.1875 107.606 81.6484C106.668 82.1016 105.555 82.3281 104.266 82.3281C102.266 82.3281 100.637 81.6992 99.3791 80.4414C98.1213 79.1758 97.4923 77.5938 97.4923 75.6953C97.4923 73.75 98.1173 72.1367 99.3673 70.8555C100.625 69.5664 102.199 68.9219 104.09 68.9219C106.098 68.9219 107.731 69.5664 108.988 70.8555C110.246 72.1367 110.875 73.832 110.875 75.9414L110.863 76.5508ZM107.653 74.0312C107.442 73.3203 107.024 72.7422 106.399 72.2969C105.781 71.8516 105.063 71.6289 104.242 71.6289C103.352 71.6289 102.57 71.8789 101.899 72.3789C101.477 72.6914 101.086 73.2422 100.727 74.0312H107.653ZM114.185 69.25H117.372V70.5508C118.099 69.9414 118.755 69.5195 119.341 69.2852C119.935 69.043 120.54 68.9219 121.158 68.9219C122.423 68.9219 123.497 69.3633 124.38 70.2461C125.122 70.9961 125.494 72.1055 125.494 73.5742V82H122.33V76.4102C122.33 74.8867 122.259 73.875 122.119 73.375C121.986 72.875 121.747 72.4961 121.404 72.2383C121.068 71.9727 120.65 71.8398 120.15 71.8398C119.501 71.8398 118.943 72.0586 118.474 72.4961C118.013 72.9258 117.693 73.5234 117.513 74.2891C117.419 74.6875 117.372 75.5508 117.372 76.8789V82H114.185V69.25ZM129.706 64.5508H132.893V69.25H134.792V72.0039H132.893V82H129.706V72.0039H128.065V69.25H129.706V64.5508ZM136.484 69.25H139.227V70.8555C139.523 70.2227 139.918 69.7422 140.41 69.4141C140.902 69.0859 141.441 68.9219 142.027 68.9219C142.441 68.9219 142.875 69.0312 143.328 69.25L142.332 72.0039C141.957 71.8164 141.648 71.7227 141.406 71.7227C140.914 71.7227 140.496 72.0273 140.152 72.6367C139.816 73.2461 139.648 74.4414 139.648 76.2227L139.66 76.8438V82H136.484V69.25ZM158.415 76.5508H148.138C148.286 77.457 148.681 78.1797 149.322 78.7188C149.97 79.25 150.794 79.5156 151.794 79.5156C152.99 79.5156 154.017 79.0977 154.876 78.2617L157.572 79.5273C156.9 80.4805 156.095 81.1875 155.158 81.6484C154.22 82.1016 153.107 82.3281 151.818 82.3281C149.818 82.3281 148.189 81.6992 146.931 80.4414C145.673 79.1758 145.044 77.5938 145.044 75.6953C145.044 73.75 145.669 72.1367 146.919 70.8555C148.177 69.5664 149.751 68.9219 151.642 68.9219C153.65 68.9219 155.283 69.5664 156.54 70.8555C157.798 72.1367 158.427 73.832 158.427 75.9414L158.415 76.5508ZM155.204 74.0312C154.993 73.3203 154.575 72.7422 153.95 72.2969C153.333 71.8516 152.615 71.6289 151.794 71.6289C150.904 71.6289 150.122 71.8789 149.45 72.3789C149.029 72.6914 148.638 73.2422 148.279 74.0312H155.204ZM171.159 69.25H174.346V80.1719C174.346 82.3281 173.913 83.9141 173.045 84.9297C171.881 86.3047 170.128 86.9922 167.784 86.9922C166.534 86.9922 165.483 86.8359 164.631 86.5234C163.78 86.2109 163.061 85.75 162.475 85.1406C161.889 84.5391 161.456 83.8047 161.174 82.9375H164.702C165.014 83.2969 165.417 83.5664 165.909 83.7461C166.401 83.9336 166.983 84.0273 167.655 84.0273C168.514 84.0273 169.206 83.8945 169.729 83.6289C170.253 83.3633 170.62 83.0195 170.831 82.5977C171.049 82.1758 171.159 81.4492 171.159 80.418C170.596 80.9805 170.006 81.3867 169.389 81.6367C168.772 81.8789 168.073 82 167.292 82C165.581 82 164.135 81.3828 162.956 80.1484C161.776 78.9141 161.186 77.3516 161.186 75.4609C161.186 73.4375 161.811 71.8125 163.061 70.5859C164.194 69.4766 165.545 68.9219 167.116 68.9219C167.85 68.9219 168.542 69.0586 169.19 69.332C169.846 69.5977 170.503 70.0391 171.159 70.6562V69.25ZM167.842 71.9102C166.835 71.9102 166.003 72.25 165.346 72.9297C164.69 73.6016 164.362 74.4492 164.362 75.4727C164.362 76.5352 164.698 77.4062 165.37 78.0859C166.042 78.7656 166.885 79.1055 167.901 79.1055C168.893 79.1055 169.71 78.7734 170.35 78.1094C170.999 77.4453 171.323 76.5742 171.323 75.4961C171.323 74.4336 170.999 73.5703 170.35 72.9062C169.702 72.2422 168.866 71.9102 167.842 71.9102ZM187.723 69.25H190.91V82H187.723V80.6523C187.098 81.2461 186.469 81.6758 185.836 81.9414C185.211 82.1992 184.531 82.3281 183.797 82.3281C182.148 82.3281 180.723 81.6914 179.519 80.418C178.316 79.1367 177.715 77.5469 177.715 75.6484C177.715 73.6797 178.297 72.0664 179.461 70.8086C180.625 69.5508 182.039 68.9219 183.703 68.9219C184.469 68.9219 185.187 69.0664 185.859 69.3555C186.531 69.6445 187.152 70.0781 187.723 70.6562V69.25ZM184.359 71.875C183.367 71.875 182.543 72.2266 181.887 72.9297C181.23 73.625 180.902 74.5195 180.902 75.6133C180.902 76.7148 181.234 77.6211 181.898 78.332C182.57 79.043 183.394 79.3984 184.371 79.3984C185.379 79.3984 186.215 79.0508 186.879 78.3555C187.543 77.6523 187.875 76.7344 187.875 75.6016C187.875 74.4922 187.543 73.5938 186.879 72.9062C186.215 72.2188 185.375 71.875 184.359 71.875Z" fill="#444242"/>
<g filter="url(#filter1_d)">
<rect x="186.261" y="101" width="71.2977" height="84.2609" rx="15.039" transform="rotate(90 186.261 101)" fill="#3497DB"/>
</g>
<path d="M152.793 116.457V124.701M136.305 116.457V124.701M126 132.945H163.097M130.122 120.579H158.975C161.252 120.579 163.097 122.424 163.097 124.701V153.555C163.097 155.831 161.252 157.676 158.975 157.676H130.122C127.845 157.676 126 155.831 126 153.555V124.701C126 122.424 127.845 120.579 130.122 120.579Z" stroke="#F5F8FA" stroke-width="3.6067" stroke-linecap="round" stroke-linejoin="round"/>
<path d="M152.793 116.457V124.701M136.305 116.457V124.701M126 132.945H163.097M130.122 120.579H158.975C161.252 120.579 163.097 122.424 163.097 124.701V153.555C163.097 155.831 161.252 157.676 158.975 157.676H130.122C127.845 157.676 126 155.831 126 153.555V124.701C126 122.424 127.845 120.579 130.122 120.579Z" stroke="url(#paint1_linear)" stroke-width="3.6067" stroke-linecap="round" stroke-linejoin="round"/>
<defs>
<filter id="filter0_d" x="0" y="0" width="308" height="230" filterUnits="userSpaceOnUse" color-interpolation-filters="sRGB">
<feFlood flood-opacity="0" result="BackgroundImageFix"/>
<feColorMatrix in="SourceAlpha" type="matrix" values="0 0 0 0 0 0 0 0 0 0 0 0 0 0 0 0 0 0 127 0"/>
<feOffset dx="10" dy="10"/>
<feGaussianBlur stdDeviation="7.5"/>
<feColorMatrix type="matrix" values="0 0 0 0 0 0 0 0 0 0 0 0 0 0 0 0 0 0 0.2 0"/>
<feBlend mode="multiply" in2="BackgroundImageFix" result="effect1_dropShadow"/>
<feBlend mode="normal" in="SourceGraphic" in2="effect1_dropShadow" result="shape"/>
</filter>
<filter id="filter1_d" x="92.2776" y="91.2776" width="110.187" height="97.2241" filterUnits="userSpaceOnUse" color-interpolation-filters="sRGB">
<feFlood flood-opacity="0" result="BackgroundImageFix"/>
<feColorMatrix in="SourceAlpha" type="matrix" values="0 0 0 0 0 0 0 0 0 0 0 0 0 0 0 0 0 0 127 0"/>
<feOffset dx="3.2408" dy="3.2408"/>
<feGaussianBlur stdDeviation="6.48161"/>
<feColorMatrix type="matrix" values="0 0 0 0 0 0 0 0 0 0 0 0 0 0 0 0 0 0 0.15 0"/>
<feBlend mode="normal" in2="BackgroundImageFix" result="effect1_dropShadow"/>
<feBlend mode="normal" in="SourceGraphic" in2="effect1_dropShadow" result="shape"/>
</filter>
<linearGradient id="paint0_linear" x1="144" y1="5" x2="144" y2="205" gradientUnits="userSpaceOnUse">
<stop stop-color="white"/>
<stop offset="1" stop-color="white" stop-opacity="0"/>
</linearGradient>
<linearGradient id="paint1_linear" x1="144.549" y1="116.457" x2="144.549" y2="157.676" gradientUnits="userSpaceOnUse">
<stop stop-color="white"/>
<stop offset="1" stop-color="white" stop-opacity="0"/>
</linearGradient>
</defs>
</svg>
