<svg width="308" height="230" viewBox="0 0 308 230" fill="none" xmlns="http://www.w3.org/2000/svg">
<g filter="url(#filter0_d)">
<rect x="5" y="5" width="278" height="200" rx="15" fill="#F5F8FA"/>
<rect x="5" y="5" width="278" height="200" rx="15" fill="url(#paint0_linear)"/>
</g>
<rect x="57" y="52" width="171" height="31" fill="#FAFCFD" fill-opacity="0.5"/>
<path d="M82.3739 37.7617H90.9286V40.9609H85.62V44.0898H90.9286V47.2422H85.62V55H82.3739V37.7617ZM100.215 41.9219C101.418 41.9219 102.547 42.2227 103.602 42.8242C104.664 43.4258 105.492 44.2422 106.086 45.2734C106.68 46.3047 106.977 47.418 106.977 48.6133C106.977 49.8164 106.676 50.9414 106.074 51.9883C105.481 53.0352 104.668 53.8555 103.637 54.4492C102.606 55.0352 101.469 55.3281 100.227 55.3281C98.3986 55.3281 96.8361 54.6797 95.5392 53.3828C94.2502 52.0781 93.6056 50.4961 93.6056 48.6367C93.6056 46.6445 94.3361 44.9844 95.797 43.6562C97.0783 42.5 98.5509 41.9219 100.215 41.9219ZM100.262 44.9336C99.2697 44.9336 98.4416 45.2812 97.7775 45.9766C97.1212 46.6641 96.7931 47.5469 96.7931 48.625C96.7931 49.7344 97.1173 50.6328 97.7658 51.3203C98.422 52.0078 99.2502 52.3516 100.25 52.3516C101.25 52.3516 102.082 52.0039 102.746 51.3086C103.41 50.6133 103.742 49.7188 103.742 48.625C103.742 47.5312 103.414 46.6445 102.758 45.9648C102.11 45.2773 101.277 44.9336 100.262 44.9336ZM109.572 42.25H112.314V43.8555C112.611 43.2227 113.005 42.7422 113.497 42.4141C113.99 42.0859 114.529 41.9219 115.115 41.9219C115.529 41.9219 115.962 42.0312 116.415 42.25L115.419 45.0039C115.044 44.8164 114.736 44.7227 114.494 44.7227C114.001 44.7227 113.583 45.0273 113.24 45.6367C112.904 46.2461 112.736 47.4414 112.736 49.2227L112.747 49.8438V55H109.572V42.25ZM118.706 42.25H121.917V43.7148C122.464 43.1133 123.069 42.6641 123.733 42.3672C124.405 42.0703 125.135 41.9219 125.925 41.9219C126.721 41.9219 127.44 42.1172 128.081 42.5078C128.721 42.8984 129.237 43.4688 129.628 44.2188C130.135 43.4688 130.757 42.8984 131.491 42.5078C132.233 42.1172 133.042 41.9219 133.917 41.9219C134.823 41.9219 135.62 42.1328 136.307 42.5547C136.995 42.9766 137.487 43.5273 137.784 44.207C138.089 44.8867 138.241 45.9922 138.241 47.5234V55H135.018V48.5312C135.018 47.0859 134.839 46.1094 134.479 45.6016C134.12 45.0859 133.581 44.8281 132.862 44.8281C132.315 44.8281 131.823 44.9844 131.385 45.2969C130.956 45.6094 130.635 46.043 130.425 46.5977C130.214 47.1445 130.108 48.0273 130.108 49.2461V55H126.885V48.8242C126.885 47.6836 126.8 46.8594 126.628 46.3516C126.464 45.8359 126.214 45.4531 125.878 45.2031C125.542 44.9531 125.135 44.8281 124.659 44.8281C124.128 44.8281 123.643 44.9883 123.206 45.3086C122.776 45.6211 122.452 46.0625 122.233 46.6328C122.022 47.2031 121.917 48.1016 121.917 49.3281V55H118.706V42.25ZM151.441 42.25H154.629V55H151.441V53.6523C150.816 54.2461 150.188 54.6758 149.555 54.9414C148.93 55.1992 148.25 55.3281 147.516 55.3281C145.867 55.3281 144.441 54.6914 143.238 53.418C142.035 52.1367 141.434 50.5469 141.434 48.6484C141.434 46.6797 142.016 45.0664 143.18 43.8086C144.344 42.5508 145.758 41.9219 147.422 41.9219C148.188 41.9219 148.906 42.0664 149.578 42.3555C150.25 42.6445 150.871 43.0781 151.441 43.6562V42.25ZM148.078 44.875C147.086 44.875 146.262 45.2266 145.605 45.9297C144.949 46.625 144.621 47.5195 144.621 48.6133C144.621 49.7148 144.953 50.6211 145.617 51.332C146.289 52.043 147.113 52.3984 148.09 52.3984C149.098 52.3984 149.934 52.0508 150.598 51.3555C151.262 50.6523 151.594 49.7344 151.594 48.6016C151.594 47.4922 151.262 46.5938 150.598 45.9062C149.934 45.2188 149.094 44.875 148.078 44.875ZM166.388 44.0312L164.408 46.0117C163.603 45.2148 162.872 44.8164 162.216 44.8164C161.857 44.8164 161.575 44.8945 161.372 45.0508C161.169 45.1992 161.068 45.3867 161.068 45.6133C161.068 45.7852 161.13 45.9453 161.255 46.0938C161.388 46.2344 161.708 46.4297 162.216 46.6797L163.388 47.2656C164.622 47.875 165.47 48.4961 165.931 49.1289C166.392 49.7617 166.622 50.5039 166.622 51.3555C166.622 52.4883 166.204 53.4336 165.368 54.1914C164.54 54.9492 163.427 55.3281 162.029 55.3281C160.169 55.3281 158.685 54.6016 157.575 53.1484L159.544 51.0039C159.919 51.4414 160.357 51.7969 160.857 52.0703C161.365 52.3359 161.814 52.4688 162.204 52.4688C162.626 52.4688 162.966 52.3672 163.224 52.1641C163.482 51.9609 163.611 51.7266 163.611 51.4609C163.611 50.9688 163.146 50.4883 162.216 50.0195L161.138 49.4805C159.075 48.4414 158.044 47.1406 158.044 45.5781C158.044 44.5703 158.431 43.7109 159.204 43C159.986 42.2812 160.982 41.9219 162.193 41.9219C163.021 41.9219 163.798 42.1055 164.525 42.4727C165.259 42.832 165.88 43.3516 166.388 44.0312ZM186.742 37.3281H189.93V55H186.742V53.6523C186.117 54.2461 185.488 54.6758 184.855 54.9414C184.23 55.1992 183.551 55.3281 182.816 55.3281C181.168 55.3281 179.742 54.6914 178.539 53.418C177.336 52.1367 176.734 50.5469 176.734 48.6484C176.734 46.6797 177.316 45.0664 178.48 43.8086C179.644 42.5508 181.058 41.9219 182.723 41.9219C183.488 41.9219 184.207 42.0664 184.879 42.3555C185.551 42.6445 186.172 43.0781 186.742 43.6562V37.3281ZM183.379 44.875C182.387 44.875 181.562 45.2266 180.906 45.9297C180.25 46.625 179.922 47.5195 179.922 48.6133C179.922 49.7148 180.254 50.6211 180.918 51.332C181.59 52.043 182.414 52.3984 183.39 52.3984C184.398 52.3984 185.234 52.0508 185.898 51.3555C186.562 50.6523 186.894 49.7344 186.894 48.6016C186.894 47.4922 186.562 46.5938 185.898 45.9062C185.234 45.2188 184.394 44.875 183.379 44.875ZM206.657 49.5508H196.38C196.528 50.457 196.923 51.1797 197.564 51.7188C198.212 52.25 199.036 52.5156 200.036 52.5156C201.232 52.5156 202.259 52.0977 203.118 51.2617L205.814 52.5273C205.142 53.4805 204.337 54.1875 203.4 54.6484C202.462 55.1016 201.349 55.3281 200.06 55.3281C198.06 55.3281 196.431 54.6992 195.173 53.4414C193.915 52.1758 193.286 50.5938 193.286 48.6953C193.286 46.75 193.911 45.1367 195.161 43.8555C196.419 42.5664 197.993 41.9219 199.884 41.9219C201.892 41.9219 203.525 42.5664 204.782 43.8555C206.04 45.1367 206.669 46.832 206.669 48.9414L206.657 49.5508ZM203.446 47.0312C203.235 46.3203 202.818 45.7422 202.193 45.2969C201.575 44.8516 200.857 44.6289 200.036 44.6289C199.146 44.6289 198.364 44.8789 197.693 45.3789C197.271 45.6914 196.88 46.2422 196.521 47.0312H203.446ZM116.26 69.25V70.6562C116.838 70.0781 117.463 69.6445 118.135 69.3555C118.807 69.0664 119.525 68.9219 120.291 68.9219C121.955 68.9219 123.369 69.5508 124.533 70.8086C125.697 72.0664 126.279 73.6797 126.279 75.6484C126.279 77.5469 125.678 79.1367 124.475 80.418C123.272 81.6914 121.846 82.3281 120.197 82.3281C119.463 82.3281 118.779 82.1992 118.147 81.9414C117.514 81.6758 116.885 81.2461 116.26 80.6523V86.6641H113.084V69.25H116.26ZM119.623 71.875C118.615 71.875 117.779 72.2188 117.115 72.9062C116.451 73.5938 116.119 74.4922 116.119 75.6016C116.119 76.7344 116.451 77.6523 117.115 78.3555C117.779 79.0508 118.615 79.3984 119.623 79.3984C120.6 79.3984 121.42 79.043 122.084 78.332C122.756 77.6211 123.092 76.7148 123.092 75.6133C123.092 74.5195 122.764 73.625 122.107 72.9297C121.451 72.2266 120.623 71.875 119.623 71.875ZM139.07 69.25H142.257V82H139.07V80.6523C138.445 81.2461 137.816 81.6758 137.183 81.9414C136.558 82.1992 135.878 82.3281 135.144 82.3281C133.495 82.3281 132.07 81.6914 130.867 80.418C129.663 79.1367 129.062 77.5469 129.062 75.6484C129.062 73.6797 129.644 72.0664 130.808 70.8086C131.972 69.5508 133.386 68.9219 135.05 68.9219C135.816 68.9219 136.535 69.0664 137.206 69.3555C137.878 69.6445 138.499 70.0781 139.07 70.6562V69.25ZM135.706 71.875C134.714 71.875 133.89 72.2266 133.234 72.9297C132.577 73.625 132.249 74.5195 132.249 75.6133C132.249 76.7148 132.581 77.6211 133.245 78.332C133.917 79.043 134.742 79.3984 135.718 79.3984C136.726 79.3984 137.562 79.0508 138.226 78.3555C138.89 77.6523 139.222 76.7344 139.222 75.6016C139.222 74.4922 138.89 73.5938 138.226 72.9062C137.562 72.2188 136.722 71.875 135.706 71.875ZM155.633 69.25H158.821V80.1719C158.821 82.3281 158.387 83.9141 157.52 84.9297C156.356 86.3047 154.602 86.9922 152.258 86.9922C151.008 86.9922 149.958 86.8359 149.106 86.5234C148.255 86.2109 147.536 85.75 146.95 85.1406C146.364 84.5391 145.93 83.8047 145.649 82.9375H149.176C149.489 83.2969 149.891 83.5664 150.383 83.7461C150.876 83.9336 151.458 84.0273 152.13 84.0273C152.989 84.0273 153.68 83.8945 154.204 83.6289C154.727 83.3633 155.094 83.0195 155.305 82.5977C155.524 82.1758 155.633 81.4492 155.633 80.418C155.071 80.9805 154.481 81.3867 153.864 81.6367C153.247 81.8789 152.548 82 151.766 82C150.055 82 148.61 81.3828 147.43 80.1484C146.251 78.9141 145.661 77.3516 145.661 75.4609C145.661 73.4375 146.286 71.8125 147.536 70.5859C148.669 69.4766 150.02 68.9219 151.59 68.9219C152.325 68.9219 153.016 69.0586 153.665 69.332C154.321 69.5977 154.977 70.0391 155.633 70.6562V69.25ZM152.317 71.9102C151.309 71.9102 150.477 72.25 149.821 72.9297C149.165 73.6016 148.837 74.4492 148.837 75.4727C148.837 76.5352 149.173 77.4062 149.844 78.0859C150.516 78.7656 151.36 79.1055 152.376 79.1055C153.368 79.1055 154.184 78.7734 154.825 78.1094C155.473 77.4453 155.798 76.5742 155.798 75.4961C155.798 74.4336 155.473 73.5703 154.825 72.9062C154.176 72.2422 153.34 71.9102 152.317 71.9102ZM168.764 68.9219C169.967 68.9219 171.096 69.2227 172.15 69.8242C173.213 70.4258 174.041 71.2422 174.635 72.2734C175.228 73.3047 175.525 74.418 175.525 75.6133C175.525 76.8164 175.225 77.9414 174.623 78.9883C174.029 80.0352 173.217 80.8555 172.185 81.4492C171.154 82.0352 170.018 82.3281 168.775 82.3281C166.947 82.3281 165.385 81.6797 164.088 80.3828C162.799 79.0781 162.154 77.4961 162.154 75.6367C162.154 73.6445 162.885 71.9844 164.346 70.6562C165.627 69.5 167.1 68.9219 168.764 68.9219ZM168.81 71.9336C167.818 71.9336 166.99 72.2812 166.326 72.9766C165.67 73.6641 165.342 74.5469 165.342 75.625C165.342 76.7344 165.666 77.6328 166.314 78.3203C166.971 79.0078 167.799 79.3516 168.799 79.3516C169.799 79.3516 170.631 79.0039 171.295 78.3086C171.959 77.6133 172.291 76.7188 172.291 75.625C172.291 74.5312 171.963 73.6445 171.307 72.9648C170.658 72.2773 169.826 71.9336 168.81 71.9336Z" fill="#444242"/>
<path fill-rule="evenodd" clip-rule="evenodd" d="M151 111C151 106.582 154.582 103 159 103H177C181.418 103 185 106.582 185 111V129C185 133.418 181.418 137 177 137H159C154.582 137 151 133.418 151 129V111Z" fill="white"/>
<path d="M159 104H177C180.866 104 184 107.134 184 111V129C184 132.866 180.866 136 177 136H159C155.134 136 152 132.866 152 129V111C152 107.134 155.134 104 159 104Z" stroke="#E4E4E4" stroke-opacity="0.6" stroke-width="2"/>
<path d="M161.645 115.369L159.434 121.964C159.434 121.964 158.872 119.174 158.817 118.824C157.558 115.952 155.7 116.112 155.7 116.112L157.89 124.632V124.63H160.551L164.232 115.369H161.645Z" fill="#1565C0"/>
<path d="M163.753 124.632H166.171L167.633 115.369H165.185L163.753 124.632Z" fill="#1565C0"/>
<path d="M180.863 115.369H178.319L174.353 124.632H176.755L177.25 123.309H180.278L180.535 124.632H182.736L180.863 115.369ZM177.92 121.54L179.236 118.039L179.925 121.54H177.92Z" fill="#1565C0"/>
<path d="M171.062 118.069C171.062 117.558 171.481 117.179 172.684 117.179C173.465 117.179 174.36 117.746 174.36 117.746L174.753 115.802C174.753 115.802 173.609 115.368 172.487 115.368C169.945 115.368 168.634 116.584 168.634 118.123C168.634 120.907 171.984 120.526 171.984 121.956C171.984 122.201 171.79 122.767 170.394 122.767C168.995 122.767 168.071 122.255 168.071 122.255L167.654 124.12C167.654 124.12 168.549 124.631 170.279 124.631C172.013 124.631 174.418 123.334 174.418 121.471C174.418 119.231 171.062 119.069 171.062 118.069Z" fill="#1565C0"/>
<path d="M159.141 120.375L158.328 116.377C158.328 116.377 157.96 115.511 157.003 115.511C156.047 115.511 153.264 115.511 153.264 115.511C153.264 115.511 158.031 116.919 159.141 120.375Z" fill="#FFC107"/>
<path fill-rule="evenodd" clip-rule="evenodd" d="M103 111C103 106.582 106.582 103 111 103H129C133.418 103 137 106.582 137 111V129C137 133.418 133.418 137 129 137H111C106.582 137 103 133.418 103 129V111Z" fill="white"/>
<path d="M111 104H129C132.866 104 136 107.134 136 111V129C136 132.866 132.866 136 129 136H111C107.134 136 104 132.866 104 129V111C104 107.134 107.134 104 111 104Z" stroke="#E4E4E4" stroke-opacity="0.6" stroke-width="2"/>
<ellipse cx="125.128" cy="120" rx="7.88205" ry="7.88205" fill="#F79E1B"/>
<ellipse cx="114.872" cy="120" rx="7.88205" ry="7.88205" fill="#EB001B"/>
<path d="M141.561 144C133.042 144 126 150.921 126 159.439C126 167.958 133.042 175 141.561 175C150.079 175 157 167.958 157 159.439C157 150.921 150.079 144 141.561 144Z" fill="#FEDB41"/>
<path d="M157 159.439C157 167.958 150.079 175 141.561 175V144C150.079 144 157 150.921 157 159.439Z" fill="#FFCC33"/>
<path d="M141.561 147.633C135.058 147.633 129.633 152.937 129.633 159.439C129.633 165.942 135.058 171.367 141.561 171.367C148.063 171.367 153.367 165.942 153.367 159.439C153.367 152.937 148.063 147.633 141.561 147.633Z" fill="#FEA832"/>
<path d="M153.367 159.439C153.367 165.942 148.063 171.367 141.561 171.367V147.633C148.063 147.633 153.367 152.937 153.367 159.439Z" fill="#FE9923"/>
<path d="M143.377 158.531H142.469V154.898H143.377C143.886 154.898 144.285 155.298 144.285 155.807C144.285 157.005 146.102 157.005 146.102 155.807C146.102 154.299 144.885 153.082 143.377 153.082H142.469V152.174C142.469 151.574 142.015 151.266 141.561 151.266C141.106 151.266 140.652 151.574 140.652 152.174V153.082H139.623C138.115 153.082 136.898 154.299 136.898 155.807V157.623C136.898 159.131 138.115 160.348 139.623 160.348H140.652V164.102H139.623C139.114 164.102 138.715 163.702 138.715 163.193C138.715 161.995 136.898 161.995 136.898 163.193C136.898 164.701 138.115 165.918 139.623 165.918H140.652V166.826C140.652 167.426 141.106 167.734 141.561 167.734C142.015 167.734 142.469 167.426 142.469 166.826V165.918H143.377C144.885 165.918 146.102 164.701 146.102 163.193V161.256C146.102 159.748 144.885 158.531 143.377 158.531ZM140.652 158.531H139.623C139.114 158.531 138.715 158.132 138.715 157.623V155.807C138.715 155.298 139.114 154.898 139.623 154.898H140.652V158.531ZM144.285 163.193C144.285 163.702 143.886 164.102 143.377 164.102H142.469V160.348H143.377C143.886 160.348 144.285 160.747 144.285 161.256V163.193Z" fill="#FEDB41"/>
<path d="M143.377 158.531H142.469V154.898H143.377C143.886 154.898 144.285 155.298 144.285 155.807C144.285 157.005 146.102 157.005 146.102 155.807C146.102 154.299 144.885 153.082 143.377 153.082H142.469V152.174C142.469 151.574 142.015 151.266 141.561 151.266V167.734C142.015 167.734 142.469 167.426 142.469 166.826V165.918H143.377C144.885 165.918 146.102 164.701 146.102 163.193V161.256C146.102 159.748 144.885 158.531 143.377 158.531ZM144.285 163.193C144.285 163.702 143.886 164.102 143.377 164.102H142.469V160.348H143.377C143.886 160.348 144.285 160.747 144.285 161.256V163.193Z" fill="#FFCC33"/>
<defs>
<filter id="filter0_d" x="0" y="0" width="308" height="230" filterUnits="userSpaceOnUse" color-interpolation-filters="sRGB">
<feFlood flood-opacity="0" result="BackgroundImageFix"/>
<feColorMatrix in="SourceAlpha" type="matrix" values="0 0 0 0 0 0 0 0 0 0 0 0 0 0 0 0 0 0 127 0"/>
<feOffset dx="10" dy="10"/>
<feGaussianBlur stdDeviation="7.5"/>
<feColorMatrix type="matrix" values="0 0 0 0 0 0 0 0 0 0 0 0 0 0 0 0 0 0 0.2 0"/>
<feBlend mode="multiply" in2="BackgroundImageFix" result="effect1_dropShadow"/>
<feBlend mode="normal" in="SourceGraphic" in2="effect1_dropShadow" result="shape"/>
</filter>
<linearGradient id="paint0_linear" x1="144" y1="5" x2="144" y2="205" gradientUnits="userSpaceOnUse">
<stop stop-color="white"/>
<stop offset="1" stop-color="white" stop-opacity="0"/>
</linearGradient>
</defs>
</svg>
