<svg width="66" height="30" viewBox="0 0 66 30" fill="none" xmlns="http://www.w3.org/2000/svg">
<g filter="url(#filter0_d)">
<rect x="61" y="3" width="22" height="58" rx="4.64052" transform="rotate(90 61 3)" fill="#3497DB"/>
</g>
<path d="M34.5708 11.9722H35.5415V13.8691H37.2231V11.9722H38.1904V17H37.2231V14.7954H35.5415V17H34.5708V11.9722ZM41.7144 11.8457C42.4253 11.8457 43.036 12.1032 43.5464 12.6182C44.0591 13.1331 44.3154 13.7609 44.3154 14.5015C44.3154 15.2352 44.0625 15.8561 43.5566 16.3643C43.0531 16.8724 42.4412 17.1265 41.7212 17.1265C40.967 17.1265 40.3403 16.8656 39.8413 16.3438C39.3423 15.8219 39.0928 15.2021 39.0928 14.4844C39.0928 14.0036 39.209 13.5615 39.4414 13.1582C39.6738 12.7549 39.9928 12.4359 40.3984 12.2012C40.8063 11.9642 41.245 11.8457 41.7144 11.8457ZM41.7041 12.7822C41.2393 12.7822 40.8485 12.944 40.5317 13.2676C40.215 13.5911 40.0566 14.0024 40.0566 14.5015C40.0566 15.0575 40.256 15.4972 40.6548 15.8208C40.9647 16.0737 41.3201 16.2002 41.7212 16.2002C42.1746 16.2002 42.5609 16.0361 42.8799 15.708C43.1989 15.3799 43.3584 14.9754 43.3584 14.4946C43.3584 14.0161 43.1978 13.6117 42.8765 13.2812C42.5552 12.9486 42.1644 12.7822 41.7041 12.7822ZM44.8589 11.9722H45.8877L46.8242 13.7769L47.7539 11.9722H48.769L47.2993 14.8228V17H46.3354V14.8228L44.8589 11.9722Z" fill="#F5F8FA"/>
<path d="M34.5708 11.9722H35.5415V13.8691H37.2231V11.9722H38.1904V17H37.2231V14.7954H35.5415V17H34.5708V11.9722ZM41.7144 11.8457C42.4253 11.8457 43.036 12.1032 43.5464 12.6182C44.0591 13.1331 44.3154 13.7609 44.3154 14.5015C44.3154 15.2352 44.0625 15.8561 43.5566 16.3643C43.0531 16.8724 42.4412 17.1265 41.7212 17.1265C40.967 17.1265 40.3403 16.8656 39.8413 16.3438C39.3423 15.8219 39.0928 15.2021 39.0928 14.4844C39.0928 14.0036 39.209 13.5615 39.4414 13.1582C39.6738 12.7549 39.9928 12.4359 40.3984 12.2012C40.8063 11.9642 41.245 11.8457 41.7144 11.8457ZM41.7041 12.7822C41.2393 12.7822 40.8485 12.944 40.5317 13.2676C40.215 13.5911 40.0566 14.0024 40.0566 14.5015C40.0566 15.0575 40.256 15.4972 40.6548 15.8208C40.9647 16.0737 41.3201 16.2002 41.7212 16.2002C42.1746 16.2002 42.5609 16.0361 42.8799 15.708C43.1989 15.3799 43.3584 14.9754 43.3584 14.4946C43.3584 14.0161 43.1978 13.6117 42.8765 13.2812C42.5552 12.9486 42.1644 12.7822 41.7041 12.7822ZM44.8589 11.9722H45.8877L46.8242 13.7769L47.7539 11.9722H48.769L47.2993 14.8228V17H46.3354V14.8228L44.8589 11.9722Z" fill="url(#paint0_linear)"/>
<path d="M18.6728 7.76958V10.3134M13.5852 7.76958V10.3134M10.4055 12.8571H21.8525M11.6774 9.04147H20.5806C21.2831 9.04147 21.8525 9.61092 21.8525 10.3134V19.2166C21.8525 19.919 21.2831 20.4885 20.5806 20.4885H11.6774C10.975 20.4885 10.4055 19.919 10.4055 19.2166V10.3134C10.4055 9.61092 10.975 9.04147 11.6774 9.04147Z" stroke="#F5F8FA" stroke-width="1.1129" stroke-linecap="round" stroke-linejoin="round"/>
<path d="M18.6728 7.76958V10.3134M13.5852 7.76958V10.3134M10.4055 12.8571H21.8525M11.6774 9.04147H20.5806C21.2831 9.04147 21.8525 9.61092 21.8525 10.3134V19.2166C21.8525 19.919 21.2831 20.4885 20.5806 20.4885H11.6774C10.975 20.4885 10.4055 19.919 10.4055 19.2166V10.3134C10.4055 9.61092 10.975 9.04147 11.6774 9.04147Z" stroke="url(#paint1_linear)" stroke-width="1.1129" stroke-linecap="round" stroke-linejoin="round"/>
<defs>
<filter id="filter0_d" x="0" y="0" width="66" height="30" filterUnits="userSpaceOnUse" color-interpolation-filters="sRGB">
<feFlood flood-opacity="0" result="BackgroundImageFix"/>
<feColorMatrix in="SourceAlpha" type="matrix" values="0 0 0 0 0 0 0 0 0 0 0 0 0 0 0 0 0 0 127 0"/>
<feOffset dx="1" dy="1"/>
<feGaussianBlur stdDeviation="2"/>
<feColorMatrix type="matrix" values="0 0 0 0 0 0 0 0 0 0 0 0 0 0 0 0 0 0 0.15 0"/>
<feBlend mode="normal" in2="BackgroundImageFix" result="effect1_dropShadow"/>
<feBlend mode="normal" in="SourceGraphic" in2="effect1_dropShadow" result="shape"/>
</filter>
<linearGradient id="paint0_linear" x1="41.5" y1="10" x2="41.5" y2="19" gradientUnits="userSpaceOnUse">
<stop stop-color="white"/>
<stop offset="1" stop-color="white" stop-opacity="0"/>
</linearGradient>
<linearGradient id="paint1_linear" x1="16.129" y1="7.76958" x2="16.129" y2="20.4885" gradientUnits="userSpaceOnUse">
<stop stop-color="white"/>
<stop offset="1" stop-color="white" stop-opacity="0"/>
</linearGradient>
</defs>
</svg>
