<svg width="34" height="30" viewBox="0 0 34 30" fill="none" xmlns="http://www.w3.org/2000/svg">
<g filter="url(#filter0_d)">
<rect x="29" y="3" width="22" height="26" rx="4.64052" transform="rotate(90 29 3)" fill="#3497DB"/>
</g>
<path d="M19.9238 10.0762C21.1348 11.2871 21.7402 12.7617 21.7402 14.5C21.7402 16.2188 21.125 17.6934 19.8945 18.9238C18.6836 20.1348 17.2188 20.7402 15.5 20.7402C13.7812 20.7402 12.3066 20.1348 11.0762 18.9238C9.86523 17.6934 9.25977 16.2188 9.25977 14.5C9.25977 12.7812 9.86523 11.3164 11.0762 10.1055C12.3066 8.875 13.7812 8.25977 15.5 8.25977H16.1152V13.416C16.5449 13.6504 16.7598 14.0117 16.7598 14.5C16.7598 14.832 16.6328 15.125 16.3789 15.3789C16.125 15.6328 15.832 15.7598 15.5 15.7598C15.168 15.7598 14.875 15.6328 14.6211 15.3789C14.3672 15.125 14.2402 14.832 14.2402 14.5C14.2402 14.0117 14.4551 13.6504 14.8848 13.416V12.0977C14.3379 12.2539 13.8887 12.5469 13.5371 12.9766C13.1855 13.4062 13.0098 13.9141 13.0098 14.5C13.0098 15.1836 13.2539 15.7695 13.7422 16.2578C14.2305 16.7461 14.8164 16.9902 15.5 16.9902C16.1836 16.9902 16.7695 16.7461 17.2578 16.2578C17.7461 15.7695 17.9902 15.1836 17.9902 14.5C17.9902 13.8555 17.7461 13.2695 17.2578 12.7422L18.1367 11.8633C18.8789 12.6055 19.25 13.4844 19.25 14.5C19.25 15.5352 18.8789 16.4238 18.1367 17.166C17.4141 17.8887 16.5352 18.25 15.5 18.25C14.4648 18.25 13.5762 17.8887 12.834 17.166C12.1113 16.4238 11.75 15.5352 11.75 14.5C11.75 13.582 12.043 12.7812 12.6289 12.0977C13.2344 11.3945 13.9863 10.9648 14.8848 10.8086V9.54883C13.6543 9.70508 12.6094 10.252 11.75 11.1895C10.9102 12.127 10.4902 13.2305 10.4902 14.5C10.4902 15.8672 10.9785 17.0488 11.9551 18.0449C12.9512 19.0215 14.1328 19.5098 15.5 19.5098C16.8672 19.5098 18.0391 19.0215 19.0156 18.0449C20.0117 17.0488 20.5098 15.8672 20.5098 14.5C20.5098 13.1133 20.0215 11.9316 19.0449 10.9551L19.9238 10.0762Z" fill="#F5F8FA"/>
<path d="M19.9238 10.0762C21.1348 11.2871 21.7402 12.7617 21.7402 14.5C21.7402 16.2188 21.125 17.6934 19.8945 18.9238C18.6836 20.1348 17.2188 20.7402 15.5 20.7402C13.7812 20.7402 12.3066 20.1348 11.0762 18.9238C9.86523 17.6934 9.25977 16.2188 9.25977 14.5C9.25977 12.7812 9.86523 11.3164 11.0762 10.1055C12.3066 8.875 13.7812 8.25977 15.5 8.25977H16.1152V13.416C16.5449 13.6504 16.7598 14.0117 16.7598 14.5C16.7598 14.832 16.6328 15.125 16.3789 15.3789C16.125 15.6328 15.832 15.7598 15.5 15.7598C15.168 15.7598 14.875 15.6328 14.6211 15.3789C14.3672 15.125 14.2402 14.832 14.2402 14.5C14.2402 14.0117 14.4551 13.6504 14.8848 13.416V12.0977C14.3379 12.2539 13.8887 12.5469 13.5371 12.9766C13.1855 13.4062 13.0098 13.9141 13.0098 14.5C13.0098 15.1836 13.2539 15.7695 13.7422 16.2578C14.2305 16.7461 14.8164 16.9902 15.5 16.9902C16.1836 16.9902 16.7695 16.7461 17.2578 16.2578C17.7461 15.7695 17.9902 15.1836 17.9902 14.5C17.9902 13.8555 17.7461 13.2695 17.2578 12.7422L18.1367 11.8633C18.8789 12.6055 19.25 13.4844 19.25 14.5C19.25 15.5352 18.8789 16.4238 18.1367 17.166C17.4141 17.8887 16.5352 18.25 15.5 18.25C14.4648 18.25 13.5762 17.8887 12.834 17.166C12.1113 16.4238 11.75 15.5352 11.75 14.5C11.75 13.582 12.043 12.7812 12.6289 12.0977C13.2344 11.3945 13.9863 10.9648 14.8848 10.8086V9.54883C13.6543 9.70508 12.6094 10.252 11.75 11.1895C10.9102 12.127 10.4902 13.2305 10.4902 14.5C10.4902 15.8672 10.9785 17.0488 11.9551 18.0449C12.9512 19.0215 14.1328 19.5098 15.5 19.5098C16.8672 19.5098 18.0391 19.0215 19.0156 18.0449C20.0117 17.0488 20.5098 15.8672 20.5098 14.5C20.5098 13.1133 20.0215 11.9316 19.0449 10.9551L19.9238 10.0762Z" fill="url(#paint0_linear)"/>
<defs>
<filter id="filter0_d" x="0" y="0" width="34" height="30" filterUnits="userSpaceOnUse" color-interpolation-filters="sRGB">
<feFlood flood-opacity="0" result="BackgroundImageFix"/>
<feColorMatrix in="SourceAlpha" type="matrix" values="0 0 0 0 0 0 0 0 0 0 0 0 0 0 0 0 0 0 127 0"/>
<feOffset dx="1" dy="1"/>
<feGaussianBlur stdDeviation="2"/>
<feColorMatrix type="matrix" values="0 0 0 0 0 0 0 0 0 0 0 0 0 0 0 0 0 0 0.15 0"/>
<feBlend mode="normal" in2="BackgroundImageFix" result="effect1_dropShadow"/>
<feBlend mode="normal" in="SourceGraphic" in2="effect1_dropShadow" result="shape"/>
</filter>
<linearGradient id="paint0_linear" x1="15.5" y1="8.25977" x2="15.5" y2="20.7402" gradientUnits="userSpaceOnUse">
<stop stop-color="white"/>
<stop offset="1" stop-color="white" stop-opacity="0"/>
</linearGradient>
</defs>
</svg>
