<svg width="34" height="30" viewBox="0 0 34 30" fill="none" xmlns="http://www.w3.org/2000/svg">
<g filter="url(#filter0_d)">
<rect x="29" y="3" width="22" height="26" rx="4.64052" transform="rotate(90 29 3)" fill="#3497DB"/>
</g>
<g clip-path="url(#clip0)">
<path d="M19.131 7.30954H12.5834C10.7753 7.30954 9.30957 8.77527 9.30957 10.5833V17.131C9.30957 18.939 10.7753 20.4048 12.5834 20.4048H19.131C20.9391 20.4048 22.4048 18.939 22.4048 17.131V10.5833C22.4048 8.77527 20.9391 7.30954 19.131 7.30954Z" stroke="white" stroke-width="1.30952" stroke-linecap="round" stroke-linejoin="round"/>
<path d="M18.4761 13.4446C18.5569 13.9896 18.4639 14.5461 18.2101 15.0351C17.9564 15.524 17.555 15.9206 17.0629 16.1682C16.5708 16.4159 16.0132 16.5021 15.4693 16.4146C14.9254 16.3271 14.423 16.0703 14.0335 15.6808C13.6439 15.2912 13.3871 14.7888 13.2996 14.2449C13.2121 13.701 13.2983 13.1434 13.546 12.6513C13.7937 12.1592 14.1902 11.7578 14.6792 11.5041C15.1681 11.2504 15.7247 11.1573 16.2696 11.2381C16.8254 11.3205 17.34 11.5795 17.7374 11.9769C18.1347 12.3742 18.3937 12.8888 18.4761 13.4446Z" stroke="white" stroke-width="1.30952" stroke-linecap="round" stroke-linejoin="round"/>
<path d="M19.4584 10.256H19.4649" stroke="white" stroke-width="1.30952" stroke-linecap="round" stroke-linejoin="round"/>
</g>
<defs>
<filter id="filter0_d" x="0" y="0" width="34" height="30" filterUnits="userSpaceOnUse" color-interpolation-filters="sRGB">
<feFlood flood-opacity="0" result="BackgroundImageFix"/>
<feColorMatrix in="SourceAlpha" type="matrix" values="0 0 0 0 0 0 0 0 0 0 0 0 0 0 0 0 0 0 127 0"/>
<feOffset dx="1" dy="1"/>
<feGaussianBlur stdDeviation="2"/>
<feColorMatrix type="matrix" values="0 0 0 0 0 0 0 0 0 0 0 0 0 0 0 0 0 0 0.15 0"/>
<feBlend mode="normal" in2="BackgroundImageFix" result="effect1_dropShadow"/>
<feBlend mode="normal" in="SourceGraphic" in2="effect1_dropShadow" result="shape"/>
</filter>
<clipPath id="clip0">
<rect width="15.7143" height="15.7143" fill="white" transform="translate(8 6)"/>
</clipPath>
</defs>
</svg>
