<svg width="308" height="230" viewBox="0 0 308 230" fill="none" xmlns="http://www.w3.org/2000/svg">
<g filter="url(#filter0_d)">
<rect x="5" y="5" width="278" height="200" rx="15" fill="#F5F8FA"/>
<rect x="5" y="5" width="278" height="200" rx="15" fill="url(#paint0_linear)"/>
</g>
<rect x="57" y="52" width="171" height="31" fill="#FAFCFD" fill-opacity="0.5"/>
<path d="M90.995 37.7617H94.2762V51.8711H99.0575V55H90.995V37.7617ZM101.582 42.25H104.793V55H101.582V42.25ZM103.762 35.3242H107.547L103.258 39.918H100.961L103.762 35.3242ZM108.396 42.25H111.607V43.7148C112.154 43.1133 112.759 42.6641 113.423 42.3672C114.095 42.0703 114.826 41.9219 115.615 41.9219C116.412 41.9219 117.13 42.1172 117.771 42.5078C118.412 42.8984 118.927 43.4688 119.318 44.2188C119.826 43.4688 120.447 42.8984 121.181 42.5078C121.923 42.1172 122.732 41.9219 123.607 41.9219C124.513 41.9219 125.31 42.1328 125.997 42.5547C126.685 42.9766 127.177 43.5273 127.474 44.207C127.779 44.8867 127.931 45.9922 127.931 47.5234V55H124.708V48.5312C124.708 47.0859 124.529 46.1094 124.169 45.6016C123.81 45.0859 123.271 44.8281 122.552 44.8281C122.005 44.8281 121.513 44.9844 121.076 45.2969C120.646 45.6094 120.326 46.043 120.115 46.5977C119.904 47.1445 119.798 48.0273 119.798 49.2461V55H116.576V48.8242C116.576 47.6836 116.49 46.8594 116.318 46.3516C116.154 45.8359 115.904 45.4531 115.568 45.2031C115.232 44.9531 114.826 44.8281 114.349 44.8281C113.818 44.8281 113.333 44.9883 112.896 45.3086C112.466 45.6211 112.142 46.0625 111.923 46.6328C111.712 47.2031 111.607 48.1016 111.607 49.3281V55H108.396V42.25ZM132.964 37C133.526 37 134.007 37.2031 134.405 37.6094C134.811 38.0156 135.014 38.5078 135.014 39.0859C135.014 39.6562 134.815 40.1445 134.417 40.5508C134.018 40.9492 133.542 41.1484 132.987 41.1484C132.417 41.1484 131.928 40.9453 131.522 40.5391C131.124 40.125 130.925 39.625 130.925 39.0391C130.925 38.4766 131.124 37.9961 131.522 37.5977C131.921 37.1992 132.401 37 132.964 37ZM131.358 42.25H134.569V55H131.358V42.25ZM138.582 37.5508H141.77V42.25H143.668V45.0039H141.77V55H138.582V45.0039H136.941V42.25H138.582V37.5508ZM158.884 49.5508H148.607C148.755 50.457 149.15 51.1797 149.79 51.7188C150.439 52.25 151.263 52.5156 152.263 52.5156C153.458 52.5156 154.486 52.0977 155.345 51.2617L158.04 52.5273C157.368 53.4805 156.564 54.1875 155.626 54.6484C154.689 55.1016 153.575 55.3281 152.286 55.3281C150.286 55.3281 148.657 54.6992 147.4 53.4414C146.142 52.1758 145.513 50.5938 145.513 48.6953C145.513 46.75 146.138 45.1367 147.388 43.8555C148.646 42.5664 150.22 41.9219 152.111 41.9219C154.118 41.9219 155.751 42.5664 157.009 43.8555C158.267 45.1367 158.896 46.832 158.896 48.9414L158.884 49.5508ZM155.673 47.0312C155.462 46.3203 155.044 45.7422 154.419 45.2969C153.802 44.8516 153.083 44.6289 152.263 44.6289C151.372 44.6289 150.591 44.8789 149.919 45.3789C149.497 45.6914 149.107 46.2422 148.747 47.0312H155.673ZM179.074 37.3281H182.262V55H179.074V53.6523C178.449 54.2461 177.82 54.6758 177.187 54.9414C176.562 55.1992 175.883 55.3281 175.148 55.3281C173.5 55.3281 172.074 54.6914 170.871 53.418C169.668 52.1367 169.066 50.5469 169.066 48.6484C169.066 46.6797 169.648 45.0664 170.812 43.8086C171.976 42.5508 173.39 41.9219 175.055 41.9219C175.82 41.9219 176.539 42.0664 177.211 42.3555C177.883 42.6445 178.504 43.0781 179.074 43.6562V37.3281ZM175.711 44.875C174.719 44.875 173.894 45.2266 173.238 45.9297C172.582 46.625 172.254 47.5195 172.254 48.6133C172.254 49.7148 172.586 50.6211 173.25 51.332C173.922 52.043 174.746 52.3984 175.723 52.3984C176.73 52.3984 177.566 52.0508 178.23 51.3555C178.894 50.6523 179.226 49.7344 179.226 48.6016C179.226 47.4922 178.894 46.5938 178.23 45.9062C177.566 45.2188 176.726 44.875 175.711 44.875ZM198.989 49.5508H188.712C188.86 50.457 189.255 51.1797 189.896 51.7188C190.544 52.25 191.368 52.5156 192.368 52.5156C193.564 52.5156 194.591 52.0977 195.45 51.2617L198.146 52.5273C197.474 53.4805 196.669 54.1875 195.732 54.6484C194.794 55.1016 193.681 55.3281 192.392 55.3281C190.392 55.3281 188.763 54.6992 187.505 53.4414C186.247 52.1758 185.618 50.5938 185.618 48.6953C185.618 46.75 186.243 45.1367 187.493 43.8555C188.751 42.5664 190.325 41.9219 192.216 41.9219C194.224 41.9219 195.857 42.5664 197.114 43.8555C198.372 45.1367 199.001 46.832 199.001 48.9414L198.989 49.5508ZM195.778 47.0312C195.568 46.3203 195.15 45.7422 194.525 45.2969C193.907 44.8516 193.189 44.6289 192.368 44.6289C191.478 44.6289 190.696 44.8789 190.025 45.3789C189.603 45.6914 189.212 46.2422 188.853 47.0312H195.778ZM110.863 76.5508H100.586C100.735 77.457 101.129 78.1797 101.77 78.7188C102.418 79.25 103.242 79.5156 104.242 79.5156C105.438 79.5156 106.465 79.0977 107.324 78.2617L110.02 79.5273C109.348 80.4805 108.543 81.1875 107.606 81.6484C106.668 82.1016 105.555 82.3281 104.266 82.3281C102.266 82.3281 100.637 81.6992 99.3791 80.4414C98.1213 79.1758 97.4923 77.5938 97.4923 75.6953C97.4923 73.75 98.1173 72.1367 99.3673 70.8555C100.625 69.5664 102.199 68.9219 104.09 68.9219C106.098 68.9219 107.731 69.5664 108.988 70.8555C110.246 72.1367 110.875 73.832 110.875 75.9414L110.863 76.5508ZM107.653 74.0312C107.442 73.3203 107.024 72.7422 106.399 72.2969C105.781 71.8516 105.063 71.6289 104.242 71.6289C103.352 71.6289 102.57 71.8789 101.899 72.3789C101.477 72.6914 101.086 73.2422 100.727 74.0312H107.653ZM114.185 69.25H117.372V70.5508C118.099 69.9414 118.755 69.5195 119.341 69.2852C119.935 69.043 120.54 68.9219 121.158 68.9219C122.423 68.9219 123.497 69.3633 124.38 70.2461C125.122 70.9961 125.494 72.1055 125.494 73.5742V82H122.33V76.4102C122.33 74.8867 122.259 73.875 122.119 73.375C121.986 72.875 121.747 72.4961 121.404 72.2383C121.068 71.9727 120.65 71.8398 120.15 71.8398C119.501 71.8398 118.943 72.0586 118.474 72.4961C118.013 72.9258 117.693 73.5234 117.513 74.2891C117.419 74.6875 117.372 75.5508 117.372 76.8789V82H114.185V69.25ZM129.706 64.5508H132.893V69.25H134.792V72.0039H132.893V82H129.706V72.0039H128.065V69.25H129.706V64.5508ZM136.484 69.25H139.227V70.8555C139.523 70.2227 139.918 69.7422 140.41 69.4141C140.902 69.0859 141.441 68.9219 142.027 68.9219C142.441 68.9219 142.875 69.0312 143.328 69.25L142.332 72.0039C141.957 71.8164 141.648 71.7227 141.406 71.7227C140.914 71.7227 140.496 72.0273 140.152 72.6367C139.816 73.2461 139.648 74.4414 139.648 76.2227L139.66 76.8438V82H136.484V69.25ZM158.415 76.5508H148.138C148.286 77.457 148.681 78.1797 149.322 78.7188C149.97 79.25 150.794 79.5156 151.794 79.5156C152.99 79.5156 154.017 79.0977 154.876 78.2617L157.572 79.5273C156.9 80.4805 156.095 81.1875 155.158 81.6484C154.22 82.1016 153.107 82.3281 151.818 82.3281C149.818 82.3281 148.189 81.6992 146.931 80.4414C145.673 79.1758 145.044 77.5938 145.044 75.6953C145.044 73.75 145.669 72.1367 146.919 70.8555C148.177 69.5664 149.751 68.9219 151.642 68.9219C153.65 68.9219 155.283 69.5664 156.54 70.8555C157.798 72.1367 158.427 73.832 158.427 75.9414L158.415 76.5508ZM155.204 74.0312C154.993 73.3203 154.575 72.7422 153.95 72.2969C153.333 71.8516 152.615 71.6289 151.794 71.6289C150.904 71.6289 150.122 71.8789 149.45 72.3789C149.029 72.6914 148.638 73.2422 148.279 74.0312H155.204ZM171.159 69.25H174.346V80.1719C174.346 82.3281 173.913 83.9141 173.045 84.9297C171.881 86.3047 170.128 86.9922 167.784 86.9922C166.534 86.9922 165.483 86.8359 164.631 86.5234C163.78 86.2109 163.061 85.75 162.475 85.1406C161.889 84.5391 161.456 83.8047 161.174 82.9375H164.702C165.014 83.2969 165.417 83.5664 165.909 83.7461C166.401 83.9336 166.983 84.0273 167.655 84.0273C168.514 84.0273 169.206 83.8945 169.729 83.6289C170.253 83.3633 170.62 83.0195 170.831 82.5977C171.049 82.1758 171.159 81.4492 171.159 80.418C170.596 80.9805 170.006 81.3867 169.389 81.6367C168.772 81.8789 168.073 82 167.292 82C165.581 82 164.135 81.3828 162.956 80.1484C161.776 78.9141 161.186 77.3516 161.186 75.4609C161.186 73.4375 161.811 71.8125 163.061 70.5859C164.194 69.4766 165.545 68.9219 167.116 68.9219C167.85 68.9219 168.542 69.0586 169.19 69.332C169.846 69.5977 170.503 70.0391 171.159 70.6562V69.25ZM167.842 71.9102C166.835 71.9102 166.003 72.25 165.346 72.9297C164.69 73.6016 164.362 74.4492 164.362 75.4727C164.362 76.5352 164.698 77.4062 165.37 78.0859C166.042 78.7656 166.885 79.1055 167.901 79.1055C168.893 79.1055 169.71 78.7734 170.35 78.1094C170.999 77.4453 171.323 76.5742 171.323 75.4961C171.323 74.4336 170.999 73.5703 170.35 72.9062C169.702 72.2422 168.866 71.9102 167.842 71.9102ZM187.723 69.25H190.91V82H187.723V80.6523C187.098 81.2461 186.469 81.6758 185.836 81.9414C185.211 82.1992 184.531 82.3281 183.797 82.3281C182.148 82.3281 180.723 81.6914 179.519 80.418C178.316 79.1367 177.715 77.5469 177.715 75.6484C177.715 73.6797 178.297 72.0664 179.461 70.8086C180.625 69.5508 182.039 68.9219 183.703 68.9219C184.469 68.9219 185.187 69.0664 185.859 69.3555C186.531 69.6445 187.152 70.0781 187.723 70.6562V69.25ZM184.359 71.875C183.367 71.875 182.543 72.2266 181.887 72.9297C181.23 73.625 180.902 74.5195 180.902 75.6133C180.902 76.7148 181.234 77.6211 181.898 78.332C182.57 79.043 183.394 79.3984 184.371 79.3984C185.379 79.3984 186.215 79.0508 186.879 78.3555C187.543 77.6523 187.875 76.7344 187.875 75.6016C187.875 74.4922 187.543 73.5938 186.879 72.9062C186.215 72.2188 185.375 71.875 184.359 71.875Z" fill="#444242"/>
<g filter="url(#filter1_d)">
<rect x="170" y="110" width="43.1539" height="51" rx="9.10256" transform="rotate(90 170 110)" fill="#3497DB"/>
</g>
<path d="M141.733 130.126C142.397 130.749 143.186 131.061 144.1 131.061C145.013 131.061 145.781 130.749 146.404 130.126C147.069 129.462 147.401 128.673 147.401 127.759C147.401 126.846 147.069 126.078 146.404 125.455C145.781 124.79 145.013 124.458 144.1 124.458C143.186 124.458 142.397 124.79 141.733 125.455C141.11 126.078 140.798 126.846 140.798 127.759C140.798 128.673 141.11 129.462 141.733 130.126ZM137.497 121.219C139.324 119.392 141.525 118.479 144.1 118.479C146.674 118.479 148.854 119.392 150.64 121.219C152.467 123.005 153.38 125.185 153.38 127.759C153.38 129.047 153.048 130.521 152.384 132.182C151.761 133.843 150.993 135.4 150.079 136.853C149.166 138.307 148.252 139.677 147.338 140.964C146.466 142.21 145.719 143.207 145.096 143.954L144.1 145.013C143.85 144.722 143.518 144.349 143.103 143.892C142.688 143.393 141.94 142.438 140.861 141.027C139.781 139.573 138.826 138.182 137.995 136.853C137.207 135.483 136.48 133.947 135.815 132.244C135.151 130.542 134.819 129.047 134.819 127.759C134.819 125.185 135.712 123.005 137.497 121.219Z" fill="#F5F8FA"/>
<path d="M141.733 130.126C142.397 130.749 143.186 131.061 144.1 131.061C145.013 131.061 145.781 130.749 146.404 130.126C147.069 129.462 147.401 128.673 147.401 127.759C147.401 126.846 147.069 126.078 146.404 125.455C145.781 124.79 145.013 124.458 144.1 124.458C143.186 124.458 142.397 124.79 141.733 125.455C141.11 126.078 140.798 126.846 140.798 127.759C140.798 128.673 141.11 129.462 141.733 130.126ZM137.497 121.219C139.324 119.392 141.525 118.479 144.1 118.479C146.674 118.479 148.854 119.392 150.64 121.219C152.467 123.005 153.38 125.185 153.38 127.759C153.38 129.047 153.048 130.521 152.384 132.182C151.761 133.843 150.993 135.4 150.079 136.853C149.166 138.307 148.252 139.677 147.338 140.964C146.466 142.21 145.719 143.207 145.096 143.954L144.1 145.013C143.85 144.722 143.518 144.349 143.103 143.892C142.688 143.393 141.94 142.438 140.861 141.027C139.781 139.573 138.826 138.182 137.995 136.853C137.207 135.483 136.48 133.947 135.815 132.244C135.151 130.542 134.819 129.047 134.819 127.759C134.819 125.185 135.712 123.005 137.497 121.219Z" fill="url(#paint1_linear)"/>
<line x1="77" y1="162" x2="212" y2="162" stroke="#3497DB" stroke-width="8"/>
<defs>
<filter id="filter0_d" x="0" y="0" width="308" height="230" filterUnits="userSpaceOnUse" color-interpolation-filters="sRGB">
<feFlood flood-opacity="0" result="BackgroundImageFix"/>
<feColorMatrix in="SourceAlpha" type="matrix" values="0 0 0 0 0 0 0 0 0 0 0 0 0 0 0 0 0 0 127 0"/>
<feOffset dx="10" dy="10"/>
<feGaussianBlur stdDeviation="7.5"/>
<feColorMatrix type="matrix" values="0 0 0 0 0 0 0 0 0 0 0 0 0 0 0 0 0 0 0.2 0"/>
<feBlend mode="multiply" in2="BackgroundImageFix" result="effect1_dropShadow"/>
<feBlend mode="normal" in="SourceGraphic" in2="effect1_dropShadow" result="shape"/>
</filter>
<filter id="filter1_d" x="113.115" y="104.115" width="66.6923" height="58.8462" filterUnits="userSpaceOnUse" color-interpolation-filters="sRGB">
<feFlood flood-opacity="0" result="BackgroundImageFix"/>
<feColorMatrix in="SourceAlpha" type="matrix" values="0 0 0 0 0 0 0 0 0 0 0 0 0 0 0 0 0 0 127 0"/>
<feOffset dx="1.96154" dy="1.96154"/>
<feGaussianBlur stdDeviation="3.92308"/>
<feColorMatrix type="matrix" values="0 0 0 0 0 0 0 0 0 0 0 0 0 0 0 0 0 0 0.15 0"/>
<feBlend mode="normal" in2="BackgroundImageFix" result="effect1_dropShadow"/>
<feBlend mode="normal" in="SourceGraphic" in2="effect1_dropShadow" result="shape"/>
</filter>
<linearGradient id="paint0_linear" x1="144" y1="5" x2="144" y2="205" gradientUnits="userSpaceOnUse">
<stop stop-color="white"/>
<stop offset="1" stop-color="white" stop-opacity="0"/>
</linearGradient>
<linearGradient id="paint1_linear" x1="144.1" y1="118.479" x2="144.1" y2="145.013" gradientUnits="userSpaceOnUse">
<stop stop-color="white"/>
<stop offset="1" stop-color="white" stop-opacity="0"/>
</linearGradient>
</defs>
</svg>
