<svg width="308" height="230" viewBox="0 0 308 230" fill="none" xmlns="http://www.w3.org/2000/svg">
<g filter="url(#filter0_d)">
<rect x="5" y="5" width="278" height="200" rx="15" fill="#F5F8FA"/>
<rect x="5" y="5" width="278" height="200" rx="15" fill="url(#paint0_linear)"/>
</g>
<path d="M79.3069 33.7617H82.7873C84.6936 33.7617 86.0491 33.9336 86.8538 34.2773C87.6663 34.6133 88.3186 35.1758 88.8108 35.9648C89.303 36.7539 89.5491 37.6875 89.5491 38.7656C89.5491 39.8984 89.2756 40.8477 88.7288 41.6133C88.1897 42.3711 87.3733 42.9453 86.2795 43.3359L90.3577 51H86.7717L82.8928 43.6992H82.5881V51H79.3069V33.7617ZM82.5881 40.5H83.6194C84.6663 40.5 85.385 40.3633 85.7756 40.0898C86.1741 39.8164 86.3733 39.3633 86.3733 38.7305C86.3733 38.3555 86.2756 38.0312 86.0803 37.7578C85.885 37.4766 85.6233 37.2773 85.2952 37.1602C84.967 37.0352 84.3655 36.9727 83.4905 36.9727H82.5881V40.5ZM106.148 45.5508H95.8706C96.0191 46.457 96.4136 47.1797 97.0542 47.7188C97.7027 48.25 98.5269 48.5156 99.5269 48.5156C100.722 48.5156 101.75 48.0977 102.609 47.2617L105.304 48.5273C104.632 49.4805 103.828 50.1875 102.89 50.6484C101.953 51.1016 100.839 51.3281 99.5503 51.3281C97.5503 51.3281 95.9214 50.6992 94.6636 49.4414C93.4058 48.1758 92.7769 46.5938 92.7769 44.6953C92.7769 42.75 93.4019 41.1367 94.6519 39.8555C95.9097 38.5664 97.4839 37.9219 99.3745 37.9219C101.382 37.9219 103.015 38.5664 104.273 39.8555C105.531 41.1367 106.16 42.832 106.16 44.9414L106.148 45.5508ZM102.937 43.0312C102.726 42.3203 102.308 41.7422 101.683 41.2969C101.066 40.8516 100.347 40.6289 99.5269 40.6289C98.6363 40.6289 97.855 40.8789 97.1831 41.3789C96.7613 41.6914 96.3706 42.2422 96.0113 43.0312H102.937ZM121.95 40.8281L119.29 42.293C118.79 41.7695 118.294 41.4062 117.802 41.2031C117.317 41 116.747 40.8984 116.091 40.8984C114.895 40.8984 113.927 41.2578 113.184 41.9766C112.45 42.6875 112.083 43.6016 112.083 44.7188C112.083 45.8047 112.438 46.6914 113.149 47.3789C113.86 48.0664 114.794 48.4102 115.95 48.4102C117.38 48.4102 118.493 47.9219 119.29 46.9453L121.809 48.668C120.442 50.4414 118.513 51.3281 116.02 51.3281C113.778 51.3281 112.02 50.6641 110.747 49.3359C109.481 48.0078 108.848 46.4531 108.848 44.6719C108.848 43.4375 109.157 42.3008 109.774 41.2617C110.391 40.2227 111.251 39.4062 112.352 38.8125C113.462 38.2188 114.7 37.9219 116.067 37.9219C117.333 37.9219 118.47 38.1758 119.477 38.6836C120.485 39.1836 121.309 39.8984 121.95 40.8281ZM131.553 37.9219C132.756 37.9219 133.885 38.2227 134.94 38.8242C136.002 39.4258 136.83 40.2422 137.424 41.2734C138.018 42.3047 138.315 43.418 138.315 44.6133C138.315 45.8164 138.014 46.9414 137.412 47.9883C136.818 49.0352 136.006 49.8555 134.975 50.4492C133.943 51.0352 132.807 51.3281 131.565 51.3281C129.736 51.3281 128.174 50.6797 126.877 49.3828C125.588 48.0781 124.943 46.4961 124.943 44.6367C124.943 42.6445 125.674 40.9844 127.135 39.6562C128.416 38.5 129.889 37.9219 131.553 37.9219ZM131.6 40.9336C130.608 40.9336 129.779 41.2812 129.115 41.9766C128.459 42.6641 128.131 43.5469 128.131 44.625C128.131 45.7344 128.455 46.6328 129.104 47.3203C129.76 48.0078 130.588 48.3516 131.588 48.3516C132.588 48.3516 133.42 48.0039 134.084 47.3086C134.748 46.6133 135.08 45.7188 135.08 44.625C135.08 43.5312 134.752 42.6445 134.096 41.9648C133.447 41.2773 132.615 40.9336 131.6 40.9336ZM151.081 38.25H154.269V49.1719C154.269 51.3281 153.835 52.9141 152.968 53.9297C151.804 55.3047 150.05 55.9922 147.706 55.9922C146.456 55.9922 145.406 55.8359 144.554 55.5234C143.703 55.2109 142.984 54.75 142.398 54.1406C141.812 53.5391 141.378 52.8047 141.097 51.9375H144.624C144.937 52.2969 145.339 52.5664 145.831 52.7461C146.324 52.9336 146.906 53.0273 147.578 53.0273C148.437 53.0273 149.128 52.8945 149.652 52.6289C150.175 52.3633 150.542 52.0195 150.753 51.5977C150.972 51.1758 151.081 50.4492 151.081 49.418C150.519 49.9805 149.929 50.3867 149.312 50.6367C148.695 50.8789 147.995 51 147.214 51C145.503 51 144.058 50.3828 142.878 49.1484C141.699 47.9141 141.109 46.3516 141.109 44.4609C141.109 42.4375 141.734 40.8125 142.984 39.5859C144.117 38.4766 145.468 37.9219 147.038 37.9219C147.773 37.9219 148.464 38.0586 149.113 38.332C149.769 38.5977 150.425 39.0391 151.081 39.6562V38.25ZM147.765 40.9102C146.757 40.9102 145.925 41.25 145.269 41.9297C144.613 42.6016 144.285 43.4492 144.285 44.4727C144.285 45.5352 144.62 46.4062 145.292 47.0859C145.964 47.7656 146.808 48.1055 147.824 48.1055C148.816 48.1055 149.632 47.7734 150.273 47.1094C150.921 46.4453 151.245 45.5742 151.245 44.4961C151.245 43.4336 150.921 42.5703 150.273 41.9062C149.624 41.2422 148.788 40.9102 147.765 40.9102ZM170.997 45.5508H160.719C160.868 46.457 161.262 47.1797 161.903 47.7188C162.551 48.25 163.376 48.5156 164.376 48.5156C165.571 48.5156 166.598 48.0977 167.458 47.2617L170.153 48.5273C169.481 49.4805 168.676 50.1875 167.739 50.6484C166.801 51.1016 165.688 51.3281 164.399 51.3281C162.399 51.3281 160.77 50.6992 159.512 49.4414C158.255 48.1758 157.626 46.5938 157.626 44.6953C157.626 42.75 158.251 41.1367 159.501 39.8555C160.758 38.5664 162.333 37.9219 164.223 37.9219C166.231 37.9219 167.864 38.5664 169.122 39.8555C170.38 41.1367 171.008 42.832 171.008 44.9414L170.997 45.5508ZM167.786 43.0312C167.575 42.3203 167.157 41.7422 166.532 41.2969C165.915 40.8516 165.196 40.6289 164.376 40.6289C163.485 40.6289 162.704 40.8789 162.032 41.3789C161.61 41.6914 161.219 42.2422 160.86 43.0312H167.786ZM173.568 38.25H176.31V39.8555C176.607 39.2227 177.002 38.7422 177.494 38.4141C177.986 38.0859 178.525 37.9219 179.111 37.9219C179.525 37.9219 179.959 38.0312 180.412 38.25L179.416 41.0039C179.041 40.8164 178.732 40.7227 178.49 40.7227C177.998 40.7227 177.58 41.0273 177.236 41.6367C176.9 42.2461 176.732 43.4414 176.732 45.2227L176.744 45.8438V51H173.568V38.25ZM190.559 33.5508H193.747V38.25H195.645V41.0039H193.747V51H190.559V41.0039H188.918V38.25H190.559V33.5508ZM198.076 38.25H201.31V44.3906C201.31 45.5859 201.392 46.418 201.556 46.8867C201.72 47.3477 201.982 47.707 202.342 47.9648C202.709 48.2227 203.158 48.3516 203.689 48.3516C204.22 48.3516 204.67 48.2266 205.037 47.9766C205.412 47.7188 205.689 47.3438 205.869 46.8516C206.002 46.4844 206.068 45.6992 206.068 44.4961V38.25H209.279V43.6523C209.279 45.8789 209.103 47.4023 208.752 48.2227C208.322 49.2227 207.689 49.9922 206.853 50.5312C206.017 51.0625 204.955 51.3281 203.666 51.3281C202.267 51.3281 201.135 51.0156 200.267 50.3906C199.408 49.7656 198.803 48.8945 198.451 47.7773C198.201 47.0039 198.076 45.5977 198.076 43.5586V38.25ZM108.395 67.8281L105.735 69.293C105.235 68.7695 104.738 68.4062 104.246 68.2031C103.762 68 103.192 67.8984 102.535 67.8984C101.34 67.8984 100.371 68.2578 99.6291 68.9766C98.8947 69.6875 98.5275 70.6016 98.5275 71.7188C98.5275 72.8047 98.883 73.6914 99.5939 74.3789C100.305 75.0664 101.238 75.4102 102.395 75.4102C103.824 75.4102 104.938 74.9219 105.735 73.9453L108.254 75.668C106.887 77.4414 104.957 78.3281 102.465 78.3281C100.223 78.3281 98.465 77.6641 97.1916 76.3359C95.9259 75.0078 95.2931 73.4531 95.2931 71.6719C95.2931 70.4375 95.6017 69.3008 96.2189 68.2617C96.8361 67.2227 97.6955 66.4062 98.797 65.8125C99.9064 65.2188 101.145 64.9219 102.512 64.9219C103.778 64.9219 104.914 65.1758 105.922 65.6836C106.93 66.1836 107.754 66.8984 108.395 67.8281ZM121.431 65.25H124.619V78H121.431V76.6523C120.806 77.2461 120.177 77.6758 119.544 77.9414C118.919 78.1992 118.24 78.3281 117.505 78.3281C115.857 78.3281 114.431 77.6914 113.228 76.418C112.025 75.1367 111.423 73.5469 111.423 71.6484C111.423 69.6797 112.005 68.0664 113.169 66.8086C114.333 65.5508 115.747 64.9219 117.412 64.9219C118.177 64.9219 118.896 65.0664 119.568 65.3555C120.24 65.6445 120.861 66.0781 121.431 66.6562V65.25ZM118.068 67.875C117.076 67.875 116.251 68.2266 115.595 68.9297C114.939 69.625 114.611 70.5195 114.611 71.6133C114.611 72.7148 114.943 73.6211 115.607 74.332C116.279 75.043 117.103 75.3984 118.08 75.3984C119.087 75.3984 119.923 75.0508 120.587 74.3555C121.251 73.6523 121.583 72.7344 121.583 71.6016C121.583 70.4922 121.251 69.5938 120.587 68.9062C119.923 68.2188 119.083 67.875 118.068 67.875ZM128.573 65.25H131.76V66.5508C132.487 65.9414 133.143 65.5195 133.729 65.2852C134.323 65.043 134.928 64.9219 135.546 64.9219C136.811 64.9219 137.885 65.3633 138.768 66.2461C139.51 66.9961 139.882 68.1055 139.882 69.5742V78H136.717V72.4102C136.717 70.8867 136.647 69.875 136.507 69.375C136.374 68.875 136.135 68.4961 135.792 68.2383C135.456 67.9727 135.038 67.8398 134.538 67.8398C133.889 67.8398 133.331 68.0586 132.862 68.4961C132.401 68.9258 132.081 69.5234 131.901 70.2891C131.807 70.6875 131.76 71.5508 131.76 72.8789V78H128.573V65.25ZM153.129 65.25H156.316V78H153.129V76.6523C152.504 77.2461 151.875 77.6758 151.242 77.9414C150.617 78.1992 149.938 78.3281 149.203 78.3281C147.555 78.3281 146.129 77.6914 144.926 76.418C143.723 75.1367 143.121 73.5469 143.121 71.6484C143.121 69.6797 143.703 68.0664 144.867 66.8086C146.031 65.5508 147.445 64.9219 149.109 64.9219C149.875 64.9219 150.594 65.0664 151.266 65.3555C151.938 65.6445 152.559 66.0781 153.129 66.6562V65.25ZM149.766 67.875C148.773 67.875 147.949 68.2266 147.293 68.9297C146.637 69.625 146.309 70.5195 146.309 71.6133C146.309 72.7148 146.641 73.6211 147.305 74.332C147.977 75.043 148.801 75.3984 149.777 75.3984C150.785 75.3984 151.621 75.0508 152.285 74.3555C152.949 73.6523 153.281 72.7344 153.281 71.6016C153.281 70.4922 152.949 69.5938 152.285 68.9062C151.621 68.2188 150.781 67.875 149.766 67.875ZM168.075 67.0312L166.095 69.0117C165.29 68.2148 164.56 67.8164 163.904 67.8164C163.544 67.8164 163.263 67.8945 163.06 68.0508C162.857 68.1992 162.755 68.3867 162.755 68.6133C162.755 68.7852 162.818 68.9453 162.943 69.0938C163.075 69.2344 163.396 69.4297 163.904 69.6797L165.075 70.2656C166.31 70.875 167.158 71.4961 167.618 72.1289C168.079 72.7617 168.31 73.5039 168.31 74.3555C168.31 75.4883 167.892 76.4336 167.056 77.1914C166.228 77.9492 165.115 78.3281 163.716 78.3281C161.857 78.3281 160.372 77.6016 159.263 76.1484L161.232 74.0039C161.607 74.4414 162.044 74.7969 162.544 75.0703C163.052 75.3359 163.501 75.4688 163.892 75.4688C164.314 75.4688 164.654 75.3672 164.911 75.1641C165.169 74.9609 165.298 74.7266 165.298 74.4609C165.298 73.9688 164.833 73.4883 163.904 73.0195L162.825 72.4805C160.763 71.4414 159.732 70.1406 159.732 68.5781C159.732 67.5703 160.118 66.7109 160.892 66C161.673 65.2812 162.669 64.9219 163.88 64.9219C164.708 64.9219 165.486 65.1055 166.212 65.4727C166.947 65.832 167.568 66.3516 168.075 67.0312ZM171.948 60.5508H175.135V65.25H177.034V68.0039H175.135V78H171.948V68.0039H170.307V65.25H171.948V60.5508ZM188.898 65.25H192.086V78H188.898V76.6523C188.273 77.2461 187.644 77.6758 187.012 77.9414C186.387 78.1992 185.707 78.3281 184.973 78.3281C183.324 78.3281 181.898 77.6914 180.695 76.418C179.492 75.1367 178.89 73.5469 178.89 71.6484C178.89 69.6797 179.473 68.0664 180.637 66.8086C181.801 65.5508 183.215 64.9219 184.879 64.9219C185.644 64.9219 186.363 65.0664 187.035 65.3555C187.707 65.6445 188.328 66.0781 188.898 66.6562V65.25ZM185.535 67.875C184.543 67.875 183.719 68.2266 183.062 68.9297C182.406 69.625 182.078 70.5195 182.078 71.6133C182.078 72.7148 182.41 73.6211 183.074 74.332C183.746 75.043 184.57 75.3984 185.547 75.3984C186.555 75.3984 187.39 75.0508 188.055 74.3555C188.719 73.6523 189.051 72.7344 189.051 71.6016C189.051 70.4922 188.719 69.5938 188.055 68.9062C187.39 68.2188 186.551 67.875 185.535 67.875Z" fill="#444242"/>
<path d="M165.863 109.928L168.169 109.126L170.537 116.894L168.231 117.695L165.863 109.928Z" fill="#3497DB"/>
<path d="M161.968 119.202L164.658 118.474L167.421 125.534L164.731 126.263L161.968 119.202Z" fill="#3497DB"/>
<path d="M120.513 122.713C120.252 124.598 120.804 126.504 122.035 127.96L123.823 130.193V150.8H126.301V132.139L128.091 133.326C128.508 133.603 129.05 133.603 129.466 133.326L132.495 131.314L135.524 133.324C135.941 133.6 136.482 133.6 136.899 133.324L139.928 131.314L142.957 133.324C143.373 133.6 143.915 133.6 144.332 133.324L147.361 131.314L150.39 133.324C150.806 133.6 151.348 133.6 151.765 133.324L154.794 131.314L157.272 132.958V170.533H130.017V173H164.705C168.124 172.996 170.894 170.238 170.899 166.833V129.833C170.896 129.562 170.802 129.3 170.633 129.087L177.791 110.113C178.755 107.564 178.402 104.707 176.848 102.466C175.371 100.292 172.904 98.9922 170.268 99C166.909 99.0314 163.916 101.121 162.743 104.256L160.801 109.403L158.51 107.123V102.7C158.51 102.019 157.956 101.467 157.272 101.467H143.644C142.96 101.467 142.406 102.019 142.406 102.7V104.816C141.005 103.553 138.893 103.481 137.409 104.648V102.7C137.409 100.681 135.766 99.0446 133.737 99.0446C131.71 99.0446 130.066 100.681 130.066 102.7V104.649C129.388 104.089 128.534 103.783 127.653 103.785C126.631 103.783 125.651 104.194 124.938 104.924C123.469 106.431 123.46 108.826 124.917 110.345L126.07 111.53C125.651 111.721 125.27 111.987 124.946 112.315L124.938 112.32L124.926 112.332C124.637 112.628 124.398 112.967 124.219 113.339L122.808 110.743L120.628 111.917L123.832 117.804C123.688 117.885 123.544 117.964 123.408 118.056C123.357 118.091 123.313 118.131 123.263 118.165L118.469 113.767L116.789 115.581L121.551 119.952C121.004 120.784 120.65 121.728 120.513 122.713ZM146.673 128.807L143.644 130.82L140.616 128.81C140.199 128.533 139.657 128.533 139.24 128.81L136.24 130.802C136.233 130.678 136.211 130.571 136.211 130.452C136.204 127.742 138.169 125.424 140.854 124.977C143.54 124.53 146.155 126.085 147.034 128.651C146.906 128.684 146.784 128.736 146.673 128.807ZM149.839 129.996L149.815 129.98C149.666 127.388 148.263 125.028 146.052 123.651C143.841 122.274 141.096 122.05 138.689 123.05V115.033H149.839V129.996ZM168.421 166.833C168.421 168.877 166.757 170.533 164.705 170.533H159.749V132.96L162.227 131.314L165.256 133.324C165.672 133.6 166.214 133.6 166.631 133.324L168.421 132.139V166.833ZM165.063 105.122C165.87 102.948 167.94 101.495 170.268 101.467C172.089 101.463 173.792 102.362 174.811 103.864C175.905 105.441 176.152 107.452 175.472 109.245L167.802 129.586L165.943 130.82L162.915 128.81C162.498 128.533 161.956 128.533 161.539 128.81L158.51 130.82L155.997 129.152L165.063 105.122ZM159.845 111.939L153.27 129.362L152.316 129.996V114.311L157.272 109.377L159.845 111.939ZM144.883 103.933H156.033V106.4H144.883V103.933ZM144.157 108.867H154.281L150.564 112.567H140.441L144.157 108.867ZM126.706 106.654C126.955 106.399 127.297 106.254 127.653 106.254C128.011 106.255 128.353 106.399 128.601 106.654L130.42 108.504C130.773 108.863 131.31 108.972 131.776 108.781C132.243 108.59 132.546 108.136 132.543 107.633V102.7C132.523 102.262 132.747 101.849 133.124 101.624C133.502 101.399 133.973 101.399 134.351 101.624C134.729 101.849 134.952 102.262 134.932 102.7V107.633C134.932 108.134 135.236 108.584 135.702 108.773C136.167 108.963 136.701 108.853 137.054 108.497L138.878 106.647C139.401 106.134 140.24 106.134 140.762 106.647C141.3 107.196 141.3 108.071 140.762 108.62L137.112 112.32L137.149 112.357L136.574 112.929C136.475 113.032 136.394 113.151 136.336 113.281C136.318 113.319 136.308 113.357 136.294 113.397C136.257 113.502 136.235 113.612 136.228 113.722C136.228 113.749 136.213 113.772 136.213 113.799V124.678C135.931 124.946 135.669 125.235 135.43 125.541L133.09 120.583C132.226 118.872 130.665 117.614 128.803 117.13C128.37 117.019 127.926 116.951 127.479 116.93L127.162 116.56C126.914 116.278 126.727 116.057 126.697 116.026C126.377 115.693 126.239 115.225 126.326 114.772C126.372 114.514 126.491 114.276 126.669 114.084L126.691 114.063L126.722 114.029C127.171 113.592 127.866 113.527 128.388 113.874C128.914 114.224 129.619 114.123 130.026 113.642C130.432 113.159 130.409 112.45 129.971 111.996L126.697 108.631C126.165 108.077 126.17 107.203 126.706 106.654ZM122.968 123.05C123.13 121.855 123.795 120.784 124.797 120.106C125.791 119.437 127.026 119.225 128.188 119.524C129.349 119.824 130.325 120.606 130.867 121.672L134.025 128.368C133.947 128.657 133.885 128.949 133.84 129.245L133.188 128.811C132.771 128.534 132.229 128.534 131.813 128.811L128.779 130.82L126.031 128.994L125.766 128.663L128.959 126.205L127.443 124.254L124.222 126.734L123.947 126.392C123.159 125.467 122.803 124.252 122.968 123.05Z" fill="#3497DB"/>
<path d="M111.68 169.892C112.633 171.802 114.598 173.007 116.744 173C117.624 172.999 118.49 172.796 119.277 172.407L120.295 171.901L121.314 172.407C122.1 172.796 122.966 172.999 123.845 173C125.992 173.007 127.956 171.802 128.91 169.892L129.348 169.019C130.817 166.091 131.585 162.865 131.589 159.594C131.585 155.986 128.642 153.063 125.009 153.059C123.785 153.063 122.586 153.408 121.55 154.056V153.059C121.55 150.306 119.302 148.074 116.53 148.074V150.566C117.916 150.566 119.04 151.682 119.04 153.059V154.056C118.004 153.408 116.804 153.063 115.58 153.059C111.947 153.063 109.004 155.986 109 159.594C109.004 162.866 109.771 166.093 111.242 169.022L111.68 169.892ZM115.58 155.552C116.66 155.549 117.696 155.975 118.458 156.736L119.407 157.679C119.898 158.165 120.692 158.165 121.182 157.679L122.132 156.736C123.296 155.58 125.046 155.234 126.567 155.86C128.088 156.485 129.08 157.959 129.08 159.594C129.076 162.479 128.4 165.325 127.103 167.908L126.665 168.78C126.133 169.842 125.039 170.512 123.845 170.507C123.356 170.507 122.874 170.394 122.436 170.177L120.856 169.392C120.502 169.217 120.087 169.217 119.734 169.392L118.155 170.177C117.717 170.394 117.234 170.507 116.744 170.507C115.549 170.511 114.456 169.84 113.924 168.776L113.487 167.904C112.19 165.323 111.514 162.478 111.51 159.594C111.513 157.363 113.334 155.555 115.58 155.552V155.552Z" fill="#3497DB"/>
<defs>
<filter id="filter0_d" x="0" y="0" width="308" height="230" filterUnits="userSpaceOnUse" color-interpolation-filters="sRGB">
<feFlood flood-opacity="0" result="BackgroundImageFix"/>
<feColorMatrix in="SourceAlpha" type="matrix" values="0 0 0 0 0 0 0 0 0 0 0 0 0 0 0 0 0 0 127 0"/>
<feOffset dx="10" dy="10"/>
<feGaussianBlur stdDeviation="7.5"/>
<feColorMatrix type="matrix" values="0 0 0 0 0 0 0 0 0 0 0 0 0 0 0 0 0 0 0.2 0"/>
<feBlend mode="multiply" in2="BackgroundImageFix" result="effect1_dropShadow"/>
<feBlend mode="normal" in="SourceGraphic" in2="effect1_dropShadow" result="shape"/>
</filter>
<linearGradient id="paint0_linear" x1="144" y1="5" x2="144" y2="205" gradientUnits="userSpaceOnUse">
<stop stop-color="white"/>
<stop offset="1" stop-color="white" stop-opacity="0"/>
</linearGradient>
</defs>
</svg>
