<svg width="77" height="30" viewBox="0 0 77 30" fill="none" xmlns="http://www.w3.org/2000/svg">
<g filter="url(#filter0_d)">
<rect x="72" y="3" width="22" height="69" rx="4.64052" transform="rotate(90 72 3)" fill="#3497DB"/>
</g>
<path d="M36.0596 11.9722H36.9961L38.1582 15.479L39.3374 11.9722H40.2603L41.1079 17H40.1851L39.645 13.8247L38.5752 17H37.731L36.6748 13.8247L36.1245 17H35.1914L36.0596 11.9722ZM43.4082 11.9722H44.3789L46.3135 17H45.3188L44.9258 15.9644H42.875L42.4648 17H41.4702L43.4082 11.9722ZM43.9004 13.3052L43.2305 15.0312H44.5669L43.9004 13.3052ZM47.062 11.9722H47.978L50.1348 15.2808V11.9722H51.0918V17H50.1724L48.019 13.7017V17H47.062V11.9722ZM48.0293 11.5688L47.6533 11.0049C47.945 10.7793 48.2401 10.6665 48.5386 10.6665C48.6502 10.6665 48.8416 10.7052 49.1128 10.7827C49.2974 10.8328 49.4443 10.8579 49.5537 10.8579C49.7451 10.8579 49.9434 10.7987 50.1484 10.6802L50.5039 11.2134C50.2168 11.4595 49.9388 11.5825 49.6699 11.5825C49.5264 11.5825 49.3543 11.5518 49.1538 11.4902C48.9897 11.4424 48.8861 11.4139 48.8428 11.4048C48.7835 11.3957 48.7129 11.3911 48.6309 11.3911C48.4303 11.3911 48.2298 11.4504 48.0293 11.5688ZM53.7715 11.9722H54.7422L56.6768 17H55.6821L55.2891 15.9644H53.2383L52.8281 17H51.8335L53.7715 11.9722ZM54.2637 13.3052L53.5938 15.0312H54.9302L54.2637 13.3052ZM57.4253 11.9722H58.3413L60.498 15.2808V11.9722H61.4551V17H60.5356L58.3823 13.7017V17H57.4253V11.9722ZM64.1348 11.9722H65.1055L67.04 17H66.0454L65.6523 15.9644H63.6016L63.1914 17H62.1968L64.1348 11.9722ZM64.627 13.3052L63.957 15.0312H65.2935L64.627 13.3052Z" fill="#F5F8FA"/>
<path d="M36.0596 11.9722H36.9961L38.1582 15.479L39.3374 11.9722H40.2603L41.1079 17H40.1851L39.645 13.8247L38.5752 17H37.731L36.6748 13.8247L36.1245 17H35.1914L36.0596 11.9722ZM43.4082 11.9722H44.3789L46.3135 17H45.3188L44.9258 15.9644H42.875L42.4648 17H41.4702L43.4082 11.9722ZM43.9004 13.3052L43.2305 15.0312H44.5669L43.9004 13.3052ZM47.062 11.9722H47.978L50.1348 15.2808V11.9722H51.0918V17H50.1724L48.019 13.7017V17H47.062V11.9722ZM48.0293 11.5688L47.6533 11.0049C47.945 10.7793 48.2401 10.6665 48.5386 10.6665C48.6502 10.6665 48.8416 10.7052 49.1128 10.7827C49.2974 10.8328 49.4443 10.8579 49.5537 10.8579C49.7451 10.8579 49.9434 10.7987 50.1484 10.6802L50.5039 11.2134C50.2168 11.4595 49.9388 11.5825 49.6699 11.5825C49.5264 11.5825 49.3543 11.5518 49.1538 11.4902C48.9897 11.4424 48.8861 11.4139 48.8428 11.4048C48.7835 11.3957 48.7129 11.3911 48.6309 11.3911C48.4303 11.3911 48.2298 11.4504 48.0293 11.5688ZM53.7715 11.9722H54.7422L56.6768 17H55.6821L55.2891 15.9644H53.2383L52.8281 17H51.8335L53.7715 11.9722ZM54.2637 13.3052L53.5938 15.0312H54.9302L54.2637 13.3052ZM57.4253 11.9722H58.3413L60.498 15.2808V11.9722H61.4551V17H60.5356L58.3823 13.7017V17H57.4253V11.9722ZM64.1348 11.9722H65.1055L67.04 17H66.0454L65.6523 15.9644H63.6016L63.1914 17H62.1968L64.1348 11.9722ZM64.627 13.3052L63.957 15.0312H65.2935L64.627 13.3052Z" fill="url(#paint0_linear)"/>
<path d="M19.6728 7.76958V10.3134M14.5852 7.76958V10.3134M11.4055 12.8571H22.8525M12.6774 9.04147H21.5806C22.2831 9.04147 22.8525 9.61092 22.8525 10.3134V19.2166C22.8525 19.919 22.2831 20.4885 21.5806 20.4885H12.6774C11.975 20.4885 11.4055 19.919 11.4055 19.2166V10.3134C11.4055 9.61092 11.975 9.04147 12.6774 9.04147Z" stroke="#F5F8FA" stroke-width="1.1129" stroke-linecap="round" stroke-linejoin="round"/>
<path d="M19.6728 7.76958V10.3134M14.5852 7.76958V10.3134M11.4055 12.8571H22.8525M12.6774 9.04147H21.5806C22.2831 9.04147 22.8525 9.61092 22.8525 10.3134V19.2166C22.8525 19.919 22.2831 20.4885 21.5806 20.4885H12.6774C11.975 20.4885 11.4055 19.919 11.4055 19.2166V10.3134C11.4055 9.61092 11.975 9.04147 12.6774 9.04147Z" stroke="url(#paint1_linear)" stroke-width="1.1129" stroke-linecap="round" stroke-linejoin="round"/>
<defs>
<filter id="filter0_d" x="0" y="0" width="77" height="30" filterUnits="userSpaceOnUse" color-interpolation-filters="sRGB">
<feFlood flood-opacity="0" result="BackgroundImageFix"/>
<feColorMatrix in="SourceAlpha" type="matrix" values="0 0 0 0 0 0 0 0 0 0 0 0 0 0 0 0 0 0 127 0"/>
<feOffset dx="1" dy="1"/>
<feGaussianBlur stdDeviation="2"/>
<feColorMatrix type="matrix" values="0 0 0 0 0 0 0 0 0 0 0 0 0 0 0 0 0 0 0.15 0"/>
<feBlend mode="normal" in2="BackgroundImageFix" result="effect1_dropShadow"/>
<feBlend mode="normal" in="SourceGraphic" in2="effect1_dropShadow" result="shape"/>
</filter>
<linearGradient id="paint0_linear" x1="51.5" y1="10" x2="51.5" y2="19" gradientUnits="userSpaceOnUse">
<stop stop-color="white"/>
<stop offset="1" stop-color="white" stop-opacity="0"/>
</linearGradient>
<linearGradient id="paint1_linear" x1="17.129" y1="7.76958" x2="17.129" y2="20.4885" gradientUnits="userSpaceOnUse">
<stop stop-color="white"/>
<stop offset="1" stop-color="white" stop-opacity="0"/>
</linearGradient>
</defs>
</svg>
