<svg width="308" height="230" viewBox="0 0 308 230" fill="none" xmlns="http://www.w3.org/2000/svg">
<g filter="url(#filter0_d)">
<rect x="5" y="5" width="278" height="200" rx="15" fill="#F5F8FA"/>
<rect x="5" y="5" width="278" height="200" rx="15" fill="url(#paint0_linear)"/>
</g>
<rect x="57" y="52" width="171" height="31" fill="#FAFCFD" fill-opacity="0.5"/>
<path d="M67.693 37.7617H70.9039L74.8883 49.7852L78.9313 37.7617H82.0953L85.0016 55H81.8375L79.9859 44.1133L76.318 55H73.4234L69.8023 44.1133L67.9156 55H64.7164L67.693 37.7617ZM93.995 41.9219C95.1981 41.9219 96.327 42.2227 97.3817 42.8242C98.4442 43.4258 99.2723 44.2422 99.8661 45.2734C100.46 46.3047 100.757 47.418 100.757 48.6133C100.757 49.8164 100.456 50.9414 99.8544 51.9883C99.2606 53.0352 98.4481 53.8555 97.4169 54.4492C96.3856 55.0352 95.2489 55.3281 94.0067 55.3281C92.1786 55.3281 90.6161 54.6797 89.3192 53.3828C88.0302 52.0781 87.3856 50.4961 87.3856 48.6367C87.3856 46.6445 88.1161 44.9844 89.577 43.6562C90.8583 42.5 92.3309 41.9219 93.995 41.9219ZM94.0419 44.9336C93.0497 44.9336 92.2216 45.2812 91.5575 45.9766C90.9013 46.6641 90.5731 47.5469 90.5731 48.625C90.5731 49.7344 90.8973 50.6328 91.5458 51.3203C92.202 52.0078 93.0302 52.3516 94.0302 52.3516C95.0302 52.3516 95.8622 52.0039 96.5263 51.3086C97.1903 50.6133 97.5223 49.7188 97.5223 48.625C97.5223 47.5312 97.1942 46.6445 96.538 45.9648C95.8895 45.2773 95.0575 44.9336 94.0419 44.9336ZM113.524 37.3281H116.711V55H113.524V53.6523C112.899 54.2461 112.27 54.6758 111.637 54.9414C111.012 55.1992 110.332 55.3281 109.598 55.3281C107.949 55.3281 106.524 54.6914 105.32 53.418C104.117 52.1367 103.516 50.5469 103.516 48.6484C103.516 46.6797 104.098 45.0664 105.262 43.8086C106.426 42.5508 107.84 41.9219 109.504 41.9219C110.27 41.9219 110.988 42.0664 111.66 42.3555C112.332 42.6445 112.953 43.0781 113.524 43.6562V37.3281ZM110.16 44.875C109.168 44.875 108.344 45.2266 107.688 45.9297C107.031 46.625 106.703 47.5195 106.703 48.6133C106.703 49.7148 107.035 50.6211 107.699 51.332C108.371 52.043 109.195 52.3984 110.172 52.3984C111.18 52.3984 112.016 52.0508 112.68 51.3555C113.344 50.6523 113.676 49.7344 113.676 48.6016C113.676 47.4922 113.344 46.5938 112.68 45.9062C112.016 45.2188 111.176 44.875 110.16 44.875ZM130.087 42.25H133.275V55H130.087V53.6523C129.462 54.2461 128.833 54.6758 128.201 54.9414C127.576 55.1992 126.896 55.3281 126.162 55.3281C124.513 55.3281 123.087 54.6914 121.884 53.418C120.681 52.1367 120.08 50.5469 120.08 48.6484C120.08 46.6797 120.662 45.0664 121.826 43.8086C122.99 42.5508 124.404 41.9219 126.068 41.9219C126.833 41.9219 127.552 42.0664 128.224 42.3555C128.896 42.6445 129.517 43.0781 130.087 43.6562V42.25ZM126.724 44.875C125.732 44.875 124.908 45.2266 124.251 45.9297C123.595 46.625 123.267 47.5195 123.267 48.6133C123.267 49.7148 123.599 50.6211 124.263 51.332C124.935 52.043 125.759 52.3984 126.736 52.3984C127.744 52.3984 128.58 52.0508 129.244 51.3555C129.908 50.6523 130.24 49.7344 130.24 48.6016C130.24 47.4922 129.908 46.5938 129.244 45.9062C128.58 45.2188 127.74 44.875 126.724 44.875ZM136.889 37.3281H140.089V55H136.889V37.3281ZM144.969 37C145.531 37 146.012 37.2031 146.41 37.6094C146.816 38.0156 147.02 38.5078 147.02 39.0859C147.02 39.6562 146.82 40.1445 146.422 40.5508C146.023 40.9492 145.547 41.1484 144.992 41.1484C144.422 41.1484 143.934 40.9453 143.527 40.5391C143.129 40.125 142.93 39.625 142.93 39.0391C142.93 38.4766 143.129 37.9961 143.527 37.5977C143.926 37.1992 144.406 37 144.969 37ZM143.363 42.25H146.574V55H143.363V42.25ZM159.622 37.3281H162.81V55H159.622V53.6523C158.997 54.2461 158.368 54.6758 157.736 54.9414C157.111 55.1992 156.431 55.3281 155.697 55.3281C154.048 55.3281 152.622 54.6914 151.419 53.418C150.216 52.1367 149.615 50.5469 149.615 48.6484C149.615 46.6797 150.197 45.0664 151.361 43.8086C152.525 42.5508 153.939 41.9219 155.603 41.9219C156.368 41.9219 157.087 42.0664 157.759 42.3555C158.431 42.6445 159.052 43.0781 159.622 43.6562V37.3281ZM156.259 44.875C155.267 44.875 154.443 45.2266 153.786 45.9297C153.13 46.625 152.802 47.5195 152.802 48.6133C152.802 49.7148 153.134 50.6211 153.798 51.332C154.47 52.043 155.294 52.3984 156.271 52.3984C157.279 52.3984 158.115 52.0508 158.779 51.3555C159.443 50.6523 159.775 49.7344 159.775 48.6016C159.775 47.4922 159.443 46.5938 158.779 45.9062C158.115 45.2188 157.275 44.875 156.259 44.875ZM176.186 42.25H179.374V55H176.186V53.6523C175.561 54.2461 174.932 54.6758 174.299 54.9414C173.674 55.1992 172.995 55.3281 172.26 55.3281C170.612 55.3281 169.186 54.6914 167.983 53.418C166.78 52.1367 166.178 50.5469 166.178 48.6484C166.178 46.6797 166.76 45.0664 167.924 43.8086C169.088 42.5508 170.503 41.9219 172.167 41.9219C172.932 41.9219 173.651 42.0664 174.323 42.3555C174.995 42.6445 175.616 43.0781 176.186 43.6562V42.25ZM172.823 44.875C171.831 44.875 171.006 45.2266 170.35 45.9297C169.694 46.625 169.366 47.5195 169.366 48.6133C169.366 49.7148 169.698 50.6211 170.362 51.332C171.034 52.043 171.858 52.3984 172.835 52.3984C173.842 52.3984 174.678 52.0508 175.342 51.3555C176.006 50.6523 176.338 49.7344 176.338 48.6016C176.338 47.4922 176.006 46.5938 175.342 45.9062C174.678 45.2188 173.838 44.875 172.823 44.875ZM192.75 37.3281H195.937V55H192.75V53.6523C192.125 54.2461 191.496 54.6758 190.863 54.9414C190.238 55.1992 189.558 55.3281 188.824 55.3281C187.176 55.3281 185.75 54.6914 184.547 53.418C183.344 52.1367 182.742 50.5469 182.742 48.6484C182.742 46.6797 183.324 45.0664 184.488 43.8086C185.652 42.5508 187.066 41.9219 188.73 41.9219C189.496 41.9219 190.215 42.0664 190.887 42.3555C191.558 42.6445 192.18 43.0781 192.75 43.6562V37.3281ZM189.387 44.875C188.394 44.875 187.57 45.2266 186.914 45.9297C186.258 46.625 185.93 47.5195 185.93 48.6133C185.93 49.7148 186.262 50.6211 186.926 51.332C187.598 52.043 188.422 52.3984 189.398 52.3984C190.406 52.3984 191.242 52.0508 191.906 51.3555C192.57 50.6523 192.902 49.7344 192.902 48.6016C192.902 47.4922 192.57 46.5938 191.906 45.9062C191.242 45.2188 190.402 44.875 189.387 44.875ZM212.665 49.5508H202.388C202.536 50.457 202.931 51.1797 203.571 51.7188C204.22 52.25 205.044 52.5156 206.044 52.5156C207.239 52.5156 208.267 52.0977 209.126 51.2617L211.821 52.5273C211.15 53.4805 210.345 54.1875 209.407 54.6484C208.47 55.1016 207.357 55.3281 206.068 55.3281C204.068 55.3281 202.439 54.6992 201.181 53.4414C199.923 52.1758 199.294 50.5938 199.294 48.6953C199.294 46.75 199.919 45.1367 201.169 43.8555C202.427 42.5664 204.001 41.9219 205.892 41.9219C207.9 41.9219 209.532 42.5664 210.79 43.8555C212.048 45.1367 212.677 46.832 212.677 48.9414L212.665 49.5508ZM209.454 47.0312C209.243 46.3203 208.825 45.7422 208.2 45.2969C207.583 44.8516 206.864 44.6289 206.044 44.6289C205.153 44.6289 204.372 44.8789 203.7 45.3789C203.278 45.6914 202.888 46.2422 202.528 47.0312H209.454ZM223.791 44.0312L221.811 46.0117C221.006 45.2148 220.276 44.8164 219.62 44.8164C219.26 44.8164 218.979 44.8945 218.776 45.0508C218.573 45.1992 218.471 45.3867 218.471 45.6133C218.471 45.7852 218.534 45.9453 218.659 46.0938C218.791 46.2344 219.112 46.4297 219.62 46.6797L220.791 47.2656C222.026 47.875 222.873 48.4961 223.334 49.1289C223.795 49.7617 224.026 50.5039 224.026 51.3555C224.026 52.4883 223.608 53.4336 222.772 54.1914C221.944 54.9492 220.83 55.3281 219.432 55.3281C217.573 55.3281 216.088 54.6016 214.979 53.1484L216.948 51.0039C217.323 51.4414 217.76 51.7969 218.26 52.0703C218.768 52.3359 219.217 52.4688 219.608 52.4688C220.03 52.4688 220.37 52.3672 220.627 52.1641C220.885 51.9609 221.014 51.7266 221.014 51.4609C221.014 50.9688 220.549 50.4883 219.62 50.0195L218.541 49.4805C216.479 48.4414 215.448 47.1406 215.448 45.5781C215.448 44.5703 215.834 43.7109 216.608 43C217.389 42.2812 218.385 41.9219 219.596 41.9219C220.424 41.9219 221.202 42.1055 221.928 42.4727C222.663 42.832 223.284 43.3516 223.791 44.0312ZM97.7216 67.7969L95.4247 69.9883C93.8622 68.3398 92.1044 67.5156 90.1513 67.5156C88.5028 67.5156 87.1122 68.0781 85.9794 69.2031C84.8544 70.3281 84.2919 71.7148 84.2919 73.3633C84.2919 74.5117 84.5419 75.5312 85.0419 76.4219C85.5419 77.3125 86.2489 78.0117 87.163 78.5195C88.077 79.0273 89.0927 79.2812 90.2098 79.2812C91.163 79.2812 92.0341 79.1055 92.8231 78.7539C93.6122 78.3945 94.4794 77.7461 95.4247 76.8086L97.6513 79.1289C96.3778 80.3711 95.1747 81.2344 94.0419 81.7188C92.9091 82.1953 91.6161 82.4336 90.163 82.4336C87.4833 82.4336 85.288 81.5859 83.577 79.8906C81.8739 78.1875 81.0223 76.0078 81.0223 73.3516C81.0223 71.6328 81.4091 70.1055 82.1825 68.7695C82.9638 67.4336 84.077 66.3594 85.5223 65.5469C86.9755 64.7344 88.538 64.3281 90.2098 64.3281C91.6317 64.3281 92.9989 64.6289 94.3114 65.2305C95.6317 65.832 96.7684 66.6875 97.7216 67.7969ZM110.395 69.25H113.582V82H110.395V80.6523C109.77 81.2461 109.141 81.6758 108.508 81.9414C107.883 82.1992 107.203 82.3281 106.469 82.3281C104.82 82.3281 103.395 81.6914 102.192 80.418C100.988 79.1367 100.387 77.5469 100.387 75.6484C100.387 73.6797 100.969 72.0664 102.133 70.8086C103.297 69.5508 104.711 68.9219 106.375 68.9219C107.141 68.9219 107.86 69.0664 108.531 69.3555C109.203 69.6445 109.824 70.0781 110.395 70.6562V69.25ZM107.031 71.875C106.039 71.875 105.215 72.2266 104.559 72.9297C103.903 73.625 103.574 74.5195 103.574 75.6133C103.574 76.7148 103.906 77.6211 104.57 78.332C105.242 79.043 106.067 79.3984 107.043 79.3984C108.051 79.3984 108.887 79.0508 109.551 78.3555C110.215 77.6523 110.547 76.7344 110.547 75.6016C110.547 74.4922 110.215 73.5938 109.551 72.9062C108.887 72.2188 108.047 71.875 107.031 71.875ZM117.537 69.25H120.724V70.5508C121.451 69.9414 122.107 69.5195 122.693 69.2852C123.287 69.043 123.892 68.9219 124.509 68.9219C125.775 68.9219 126.849 69.3633 127.732 70.2461C128.474 70.9961 128.845 72.1055 128.845 73.5742V82H125.681V76.4102C125.681 74.8867 125.611 73.875 125.47 73.375C125.337 72.875 125.099 72.4961 124.755 72.2383C124.419 71.9727 124.001 71.8398 123.501 71.8398C122.853 71.8398 122.294 72.0586 121.826 72.4961C121.365 72.9258 121.044 73.5234 120.865 74.2891C120.771 74.6875 120.724 75.5508 120.724 76.8789V82H117.537V69.25ZM132.682 64.3281H135.858V70.5391C136.483 70 137.112 69.5977 137.745 69.332C138.378 69.0586 139.018 68.9219 139.667 68.9219C140.932 68.9219 141.999 69.3594 142.866 70.2344C143.608 70.9922 143.979 72.1055 143.979 73.5742V82H140.827V76.4102C140.827 74.9336 140.757 73.9336 140.616 73.4102C140.475 72.8867 140.233 72.4961 139.889 72.2383C139.553 71.9805 139.135 71.8516 138.635 71.8516C137.987 71.8516 137.428 72.0664 136.96 72.4961C136.499 72.9258 136.178 73.5117 135.999 74.2539C135.905 74.6367 135.858 75.5117 135.858 76.8789V82H132.682V64.3281ZM157.227 69.25H160.414V82H157.227V80.6523C156.602 81.2461 155.973 81.6758 155.34 81.9414C154.715 82.1992 154.035 82.3281 153.301 82.3281C151.652 82.3281 150.227 81.6914 149.023 80.418C147.82 79.1367 147.219 77.5469 147.219 75.6484C147.219 73.6797 147.801 72.0664 148.965 70.8086C150.129 69.5508 151.543 68.9219 153.207 68.9219C153.973 68.9219 154.691 69.0664 155.363 69.3555C156.035 69.6445 156.656 70.0781 157.227 70.6562V69.25ZM153.863 71.875C152.871 71.875 152.047 72.2266 151.391 72.9297C150.734 73.625 150.406 74.5195 150.406 75.6133C150.406 76.7148 150.738 77.6211 151.402 78.332C152.074 79.043 152.898 79.3984 153.875 79.3984C154.883 79.3984 155.719 79.0508 156.383 78.3555C157.047 77.6523 157.379 76.7344 157.379 75.6016C157.379 74.4922 157.047 73.5938 156.383 72.9062C155.719 72.2188 154.879 71.875 153.863 71.875ZM172.173 71.0312L170.193 73.0117C169.388 72.2148 168.658 71.8164 168.001 71.8164C167.642 71.8164 167.361 71.8945 167.158 72.0508C166.954 72.1992 166.853 72.3867 166.853 72.6133C166.853 72.7852 166.915 72.9453 167.04 73.0938C167.173 73.2344 167.493 73.4297 168.001 73.6797L169.173 74.2656C170.408 74.875 171.255 75.4961 171.716 76.1289C172.177 76.7617 172.408 77.5039 172.408 78.3555C172.408 79.4883 171.99 80.4336 171.154 81.1914C170.325 81.9492 169.212 82.3281 167.814 82.3281C165.954 82.3281 164.47 81.6016 163.361 80.1484L165.329 78.0039C165.704 78.4414 166.142 78.7969 166.642 79.0703C167.15 79.3359 167.599 79.4688 167.99 79.4688C168.411 79.4688 168.751 79.3672 169.009 79.1641C169.267 78.9609 169.396 78.7266 169.396 78.4609C169.396 77.9688 168.931 77.4883 168.001 77.0195L166.923 76.4805C164.861 75.4414 163.829 74.1406 163.829 72.5781C163.829 71.5703 164.216 70.7109 164.99 70C165.771 69.2812 166.767 68.9219 167.978 68.9219C168.806 68.9219 169.583 69.1055 170.31 69.4727C171.044 69.832 171.665 70.3516 172.173 71.0312ZM176.045 64.5508H179.233V69.25H181.131V72.0039H179.233V82H176.045V72.0039H174.405V69.25H176.045V64.5508ZM192.996 69.25H196.183V82H192.996V80.6523C192.371 81.2461 191.742 81.6758 191.109 81.9414C190.484 82.1992 189.805 82.3281 189.07 82.3281C187.422 82.3281 185.996 81.6914 184.793 80.418C183.59 79.1367 182.988 77.5469 182.988 75.6484C182.988 73.6797 183.57 72.0664 184.734 70.8086C185.898 69.5508 187.312 68.9219 188.976 68.9219C189.742 68.9219 190.461 69.0664 191.133 69.3555C191.805 69.6445 192.426 70.0781 192.996 70.6562V69.25ZM189.633 71.875C188.64 71.875 187.816 72.2266 187.16 72.9297C186.504 73.625 186.176 74.5195 186.176 75.6133C186.176 76.7148 186.508 77.6211 187.172 78.332C187.844 79.043 188.668 79.3984 189.644 79.3984C190.652 79.3984 191.488 79.0508 192.152 78.3555C192.816 77.6523 193.148 76.7344 193.148 75.6016C193.148 74.4922 192.816 73.5938 192.152 72.9062C191.488 72.2188 190.648 71.875 189.633 71.875ZM207.943 71.0312L205.962 73.0117C205.157 72.2148 204.427 71.8164 203.771 71.8164C203.411 71.8164 203.13 71.8945 202.927 72.0508C202.724 72.1992 202.622 72.3867 202.622 72.6133C202.622 72.7852 202.685 72.9453 202.81 73.0938C202.943 73.2344 203.263 73.4297 203.771 73.6797L204.943 74.2656C206.177 74.875 207.025 75.4961 207.485 76.1289C207.946 76.7617 208.177 77.5039 208.177 78.3555C208.177 79.4883 207.759 80.4336 206.923 81.1914C206.095 81.9492 204.982 82.3281 203.583 82.3281C201.724 82.3281 200.239 81.6016 199.13 80.1484L201.099 78.0039C201.474 78.4414 201.911 78.7969 202.411 79.0703C202.919 79.3359 203.368 79.4688 203.759 79.4688C204.181 79.4688 204.521 79.3672 204.778 79.1641C205.036 78.9609 205.165 78.7266 205.165 78.4609C205.165 77.9688 204.7 77.4883 203.771 77.0195L202.693 76.4805C200.63 75.4414 199.599 74.1406 199.599 72.5781C199.599 71.5703 199.985 70.7109 200.759 70C201.54 69.2812 202.536 68.9219 203.747 68.9219C204.575 68.9219 205.353 69.1055 206.079 69.4727C206.814 69.832 207.435 70.3516 207.943 71.0312Z" fill="#444242"/>
<path d="M120.399 116.318L122.726 115.509L125.116 123.35L122.789 124.158L120.399 116.318Z" fill="#3497DB"/>
<path d="M116.467 125.68L119.182 124.944L121.971 132.071L119.256 132.807L116.467 125.68Z" fill="#3497DB"/>
<path d="M74.6216 128.937C74.3579 130.839 74.9153 132.763 76.1573 134.233L77.9628 136.487V157.288H80.4638V138.451L82.2705 139.649C82.6912 139.928 83.2383 139.928 83.659 139.649L86.7162 137.618L89.7735 139.647C90.1942 139.926 90.7413 139.926 91.162 139.647L94.2192 137.618L97.2764 139.647C97.6971 139.926 98.2442 139.926 98.6649 139.647L101.722 137.618L104.779 139.647C105.2 139.926 105.747 139.926 106.168 139.647L109.225 137.618L111.726 139.277V177.207H84.2152V179.697H119.229C122.681 179.692 125.477 176.908 125.481 173.472V136.124C125.478 135.85 125.384 135.585 125.213 135.37L132.439 116.217C133.412 113.644 133.056 110.76 131.487 108.498C129.996 106.304 127.506 104.992 124.845 105C121.454 105.032 118.433 107.141 117.249 110.305L115.289 115.501L112.977 113.199V108.735C112.977 108.047 112.417 107.49 111.726 107.49H97.9707C97.2801 107.49 96.7202 108.047 96.7202 108.735V110.871C95.3067 109.596 93.1745 109.523 91.6767 110.701V108.735C91.6767 106.697 90.0177 105.045 87.9704 105.045C85.9237 105.045 84.2641 106.697 84.2641 108.735V110.702C83.5796 110.137 82.7181 109.828 81.8291 109.83C80.7972 109.828 79.808 110.242 79.0881 110.98C77.605 112.501 77.5958 114.918 79.0667 116.451L80.2311 117.648C79.8074 117.841 79.4227 118.11 79.096 118.44L79.0881 118.445L79.0759 118.458C78.7846 118.756 78.5435 119.099 78.3627 119.474L76.9376 116.853L74.7376 118.039L77.9713 123.981C77.8266 124.063 77.6813 124.142 77.5439 124.236C77.4926 124.271 77.4474 124.311 77.3974 124.345L72.5584 119.906L70.8628 121.737L75.6694 126.149C75.1174 126.99 74.7596 127.942 74.6216 128.937ZM101.028 135.088L97.9707 137.119L94.9134 135.09C94.4927 134.811 93.9456 134.811 93.5249 135.09L90.4964 137.101C90.4891 136.977 90.4677 136.868 90.4677 136.749C90.4598 134.012 92.4436 131.673 95.154 131.222C97.865 130.77 100.505 132.34 101.392 134.93C101.263 134.963 101.14 135.016 101.028 135.088ZM104.223 136.288L104.199 136.272C104.049 133.655 102.633 131.273 100.401 129.883C98.1691 128.493 95.3982 128.267 92.9687 129.276V121.184H104.223V136.288ZM122.981 173.472C122.981 175.535 121.301 177.207 119.229 177.207H114.227V139.28L116.728 137.618L119.785 139.647C120.206 139.926 120.753 139.926 121.174 139.647L122.981 138.451V173.472ZM119.591 111.18C120.406 108.985 122.495 107.518 124.845 107.49C126.683 107.486 128.402 108.394 129.431 109.91C130.535 111.502 130.784 113.532 130.098 115.342L122.355 135.874L120.48 137.119L117.422 135.09C117.002 134.811 116.455 134.811 116.034 135.09L112.977 137.119L110.44 135.436L119.591 111.18ZM114.324 118.061L107.687 135.648L106.724 136.288V120.455L111.726 115.475L114.324 118.061ZM99.2212 109.98H110.476V112.47H99.2212V109.98ZM98.4884 114.96H108.707L104.956 118.694H94.737L98.4884 114.96ZM80.8729 112.726C81.1238 112.468 81.4688 112.323 81.8291 112.323C82.1899 112.323 82.5349 112.468 82.7859 112.726L84.6219 114.594C84.9785 114.956 85.5201 115.066 85.9909 114.873C86.4616 114.68 86.7681 114.222 86.7651 113.715V108.735C86.7449 108.293 86.9702 107.876 87.3512 107.649C87.7329 107.422 88.2085 107.422 88.5895 107.649C88.9712 107.876 89.1965 108.293 89.1757 108.735V113.715C89.1763 114.22 89.4834 114.674 89.9536 114.865C90.4231 115.057 90.9623 114.946 91.3183 114.586L93.1598 112.719C93.6874 112.202 94.5336 112.202 95.0606 112.719C95.604 113.273 95.604 114.157 95.0606 114.71L91.3769 118.445L91.4141 118.483L90.8341 119.06C90.7333 119.164 90.6521 119.284 90.5929 119.415C90.5752 119.454 90.5654 119.493 90.5514 119.532C90.5141 119.638 90.4915 119.749 90.4842 119.861C90.4842 119.888 90.4689 119.911 90.4689 119.938V130.92C90.1844 131.191 89.92 131.482 89.6788 131.791L87.3164 126.787C86.4445 125.06 84.8686 123.789 82.9898 123.301C82.5526 123.189 82.1044 123.12 81.6532 123.099L81.3326 122.725C81.0829 122.44 80.8942 122.218 80.8637 122.187C80.5407 121.85 80.4009 121.378 80.4888 120.92C80.5352 120.66 80.6555 120.42 80.835 120.226L80.8576 120.204L80.8887 120.171C81.3418 119.729 82.0434 119.664 82.5709 120.014C83.1015 120.367 83.8135 120.266 84.2238 119.78C84.6341 119.293 84.6103 118.577 84.1688 118.118L80.8637 114.722C80.327 114.163 80.3313 113.281 80.8729 112.726ZM77.1 129.276C77.263 128.07 77.9341 126.989 78.9458 126.305C79.949 125.629 81.1953 125.415 82.3682 125.717C83.5405 126.02 84.526 126.81 85.0731 127.886L88.2604 134.645C88.1817 134.936 88.1194 135.231 88.0742 135.53L87.4154 135.091C86.9953 134.812 86.4476 134.812 86.0275 135.091L82.9648 137.119L80.1914 135.277L79.9234 134.943L83.1473 132.461L81.6166 130.492L78.3658 132.995L78.088 132.65C77.2924 131.717 76.9333 130.49 77.1 129.276Z" fill="#3497DB"/>
<path d="M65.7049 176.846C66.6674 178.774 68.6504 179.991 70.8172 179.984C71.7048 179.983 72.5795 179.778 73.3737 179.385L74.4011 178.875L75.4297 179.385C76.2233 179.778 77.098 179.983 77.9849 179.984C80.1523 179.991 82.1348 178.774 83.0979 176.846L83.5395 175.966C85.0228 173.01 85.7972 169.754 85.8022 166.451C85.7978 162.81 82.8269 159.859 79.1602 159.855C77.9243 159.859 76.7138 160.207 75.6679 160.861V159.855C75.6679 157.076 73.399 154.823 70.6007 154.823V157.339C71.9999 157.339 73.1343 158.466 73.1343 159.855V160.861C72.0883 160.207 70.8778 159.859 69.642 159.855C65.9752 159.859 63.0043 162.81 63 166.451C63.0043 169.754 63.7788 173.012 65.2626 175.968L65.7049 176.846ZM69.642 162.371C70.7319 162.368 71.7778 162.799 72.5467 163.567L73.5054 164.519C74.0003 165.01 74.8019 165.01 75.2967 164.519L76.2555 163.567C77.4307 162.4 79.1973 162.051 80.7325 162.682C82.2678 163.314 83.2686 164.801 83.2686 166.451C83.2655 169.364 82.5826 172.237 81.2732 174.844L80.8315 175.725C80.294 176.796 79.1905 177.472 77.9849 177.468C77.4913 177.467 77.0045 177.353 76.5623 177.134L74.9677 176.342C74.6108 176.165 74.1914 176.165 73.8351 176.342L72.2411 177.134C71.7988 177.353 71.3114 177.467 70.8172 177.468C69.611 177.472 68.5069 176.794 67.9707 175.72L67.529 174.84C66.2202 172.234 65.5373 169.363 65.5336 166.451C65.5367 164.199 67.3744 162.374 69.642 162.371V162.371Z" fill="#3497DB"/>
<path d="M168.601 116.318L166.274 115.509L163.884 123.35L166.211 124.158L168.601 116.318Z" fill="#3497DB"/>
<path d="M172.533 125.68L169.818 124.944L167.029 132.071L169.744 132.807L172.533 125.68Z" fill="#3497DB"/>
<path d="M214.378 128.937C214.642 130.839 214.085 132.763 212.843 134.233L211.037 136.487V157.288H208.536V138.451L206.729 139.649C206.309 139.928 205.762 139.928 205.341 139.649L202.284 137.618L199.227 139.647C198.806 139.926 198.259 139.926 197.838 139.647L194.781 137.618L191.724 139.647C191.303 139.926 190.756 139.926 190.335 139.647L187.278 137.618L184.221 139.647C183.8 139.926 183.253 139.926 182.832 139.647L179.775 137.618L177.274 139.277V177.207H204.785V179.697H169.771C166.319 179.692 163.523 176.908 163.518 173.472V136.124C163.522 135.85 163.616 135.585 163.787 135.37L156.561 116.217C155.588 113.644 155.944 110.76 157.513 108.498C159.004 106.304 161.494 104.992 164.155 105C167.546 105.032 170.567 107.141 171.75 110.305L173.711 115.501L176.023 113.199V108.735C176.023 108.047 176.583 107.49 177.274 107.49H191.029C191.72 107.49 192.28 108.047 192.28 108.735V110.871C193.693 109.596 195.826 109.523 197.323 110.701V108.735C197.323 106.697 198.982 105.045 201.03 105.045C203.076 105.045 204.736 106.697 204.736 108.735V110.702C205.42 110.137 206.282 109.828 207.171 109.83C208.203 109.828 209.192 110.242 209.912 110.98C211.395 112.501 211.404 114.918 209.933 116.451L208.769 117.648C209.193 117.841 209.577 118.11 209.904 118.44L209.912 118.445L209.924 118.458C210.215 118.756 210.457 119.099 210.637 119.474L212.062 116.853L214.262 118.039L211.029 123.981C211.173 124.063 211.319 124.142 211.456 124.236C211.507 124.271 211.553 124.311 211.603 124.345L216.442 119.906L218.137 121.737L213.331 126.149C213.883 126.99 214.24 127.942 214.378 128.937ZM187.972 135.088L191.029 137.119L194.087 135.09C194.507 134.811 195.054 134.811 195.475 135.09L198.504 137.101C198.511 136.977 198.532 136.868 198.532 136.749C198.54 134.012 196.556 131.673 193.846 131.222C191.135 130.77 188.495 132.34 187.608 134.93C187.737 134.963 187.86 135.016 187.972 135.088ZM184.777 136.288L184.801 136.272C184.951 133.655 186.367 131.273 188.599 129.883C190.831 128.493 193.602 128.267 196.031 129.276V121.184H184.777V136.288ZM166.019 173.472C166.019 175.535 167.699 177.207 169.771 177.207H174.773V139.28L172.272 137.618L169.215 139.647C168.794 139.926 168.247 139.926 167.826 139.647L166.019 138.451V173.472ZM169.409 111.18C168.594 108.985 166.505 107.518 164.155 107.49C162.317 107.486 160.598 108.394 159.569 109.91C158.465 111.502 158.216 113.532 158.902 115.342L166.645 135.874L168.52 137.119L171.578 135.09C171.998 134.811 172.545 134.811 172.966 135.09L176.023 137.119L178.56 135.436L169.409 111.18ZM174.676 118.061L181.313 135.648L182.276 136.288V120.455L177.274 115.475L174.676 118.061ZM189.779 109.98H178.524V112.47H189.779V109.98ZM190.512 114.96H180.293L184.044 118.694H194.263L190.512 114.96ZM208.127 112.726C207.876 112.468 207.531 112.323 207.171 112.323C206.81 112.323 206.465 112.468 206.214 112.726L204.378 114.594C204.021 114.956 203.48 115.066 203.009 114.873C202.538 114.68 202.232 114.222 202.235 113.715V108.735C202.255 108.293 202.03 107.876 201.649 107.649C201.267 107.422 200.791 107.422 200.41 107.649C200.029 107.876 199.804 108.293 199.824 108.735V113.715C199.824 114.22 199.517 114.674 199.046 114.865C198.577 115.057 198.038 114.946 197.682 114.586L195.84 112.719C195.313 112.202 194.466 112.202 193.939 112.719C193.396 113.273 193.396 114.157 193.939 114.71L197.623 118.445L197.586 118.483L198.166 119.06C198.267 119.164 198.348 119.284 198.407 119.415C198.425 119.454 198.435 119.493 198.449 119.532C198.486 119.638 198.508 119.749 198.516 119.861C198.516 119.888 198.531 119.911 198.531 119.938V130.92C198.816 131.191 199.08 131.482 199.321 131.791L201.684 126.787C202.555 125.06 204.131 123.789 206.01 123.301C206.447 123.189 206.896 123.12 207.347 123.099L207.667 122.725C207.917 122.44 208.106 122.218 208.136 122.187C208.459 121.85 208.599 121.378 208.511 120.92C208.465 120.66 208.344 120.42 208.165 120.226L208.142 120.204L208.111 120.171C207.658 119.729 206.957 119.664 206.429 120.014C205.898 120.367 205.186 120.266 204.776 119.78C204.366 119.293 204.39 118.577 204.831 118.118L208.136 114.722C208.673 114.163 208.669 113.281 208.127 112.726ZM211.9 129.276C211.737 128.07 211.066 126.989 210.054 126.305C209.051 125.629 207.805 125.415 206.632 125.717C205.459 126.02 204.474 126.81 203.927 127.886L200.74 134.645C200.818 134.936 200.881 135.231 200.926 135.53L201.585 135.091C202.005 134.812 202.552 134.812 202.972 135.091L206.035 137.119L208.809 135.277L209.077 134.943L205.853 132.461L207.383 130.492L210.634 132.995L210.912 132.65C211.708 131.717 212.067 130.49 211.9 129.276Z" fill="#3497DB"/>
<path d="M223.295 176.846C222.333 178.774 220.35 179.991 218.183 179.984C217.295 179.983 216.421 179.778 215.626 179.385L214.599 178.875L213.57 179.385C212.777 179.778 211.902 179.983 211.015 179.984C208.848 179.991 206.865 178.774 205.902 176.846L205.46 175.966C203.977 173.01 203.203 169.754 203.198 166.451C203.202 162.81 206.173 159.859 209.84 159.855C211.076 159.859 212.286 160.207 213.332 160.861V159.855C213.332 157.076 215.601 154.823 218.399 154.823V157.339C217 157.339 215.866 158.466 215.866 159.855V160.861C216.912 160.207 218.122 159.859 219.358 159.855C223.025 159.859 225.996 162.81 226 166.451C225.996 169.754 225.221 173.012 223.737 175.968L223.295 176.846ZM219.358 162.371C218.268 162.368 217.222 162.799 216.453 163.567L215.495 164.519C215 165.01 214.198 165.01 213.703 164.519L212.745 163.567C211.569 162.4 209.803 162.051 208.267 162.682C206.732 163.314 205.731 164.801 205.731 166.451C205.735 169.364 206.417 172.237 207.727 174.844L208.168 175.725C208.706 176.796 209.81 177.472 211.015 177.468C211.509 177.467 211.995 177.353 212.438 177.134L214.032 176.342C214.389 176.165 214.809 176.165 215.165 176.342L216.759 177.134C217.201 177.353 217.689 177.467 218.183 177.468C219.389 177.472 220.493 176.794 221.029 175.72L221.471 174.84C222.78 172.234 223.463 169.363 223.466 166.451C223.463 164.199 221.626 162.374 219.358 162.371V162.371Z" fill="#3497DB"/>
<path d="M132.436 160.919C133.761 163.573 136.49 165.249 139.473 165.238C140.695 165.237 141.899 164.954 142.992 164.414L144.407 163.711L145.823 164.414C146.915 164.954 148.119 165.237 149.34 165.238C152.324 165.249 155.053 163.573 156.379 160.919L156.987 159.707C159.028 155.638 160.094 151.156 160.101 146.61C160.095 141.597 156.006 137.535 150.958 137.529C149.257 137.534 147.59 138.014 146.151 138.914V137.529C146.151 133.704 143.027 130.602 139.175 130.602V134.066C141.101 134.066 142.663 135.617 142.663 137.529V138.914C141.223 138.014 139.557 137.534 137.855 137.529C132.808 137.535 128.718 141.597 128.712 146.61C128.718 151.156 129.784 155.641 131.827 159.711L132.436 160.919ZM137.855 140.993C139.356 140.989 140.795 141.582 141.854 142.639L143.174 143.949C143.855 144.625 144.958 144.625 145.64 143.949L146.959 142.639C148.577 141.032 151.009 140.552 153.122 141.421C155.236 142.29 156.614 144.338 156.614 146.61C156.609 150.619 155.669 154.574 153.867 158.162L153.259 159.375C152.519 160.851 151 161.781 149.34 161.775C148.661 161.774 147.991 161.617 147.382 161.316L145.187 160.225C144.695 159.981 144.118 159.981 143.628 160.225L141.433 161.316C140.824 161.617 140.153 161.774 139.473 161.775C137.813 161.78 136.293 160.847 135.555 159.369L134.947 158.157C133.145 154.57 132.205 150.618 132.2 146.61C132.204 143.51 134.734 140.997 137.855 140.993V140.993Z" fill="#3497DB"/>
<defs>
<filter id="filter0_d" x="0" y="0" width="308" height="230" filterUnits="userSpaceOnUse" color-interpolation-filters="sRGB">
<feFlood flood-opacity="0" result="BackgroundImageFix"/>
<feColorMatrix in="SourceAlpha" type="matrix" values="0 0 0 0 0 0 0 0 0 0 0 0 0 0 0 0 0 0 127 0"/>
<feOffset dx="10" dy="10"/>
<feGaussianBlur stdDeviation="7.5"/>
<feColorMatrix type="matrix" values="0 0 0 0 0 0 0 0 0 0 0 0 0 0 0 0 0 0 0.2 0"/>
<feBlend mode="multiply" in2="BackgroundImageFix" result="effect1_dropShadow"/>
<feBlend mode="normal" in="SourceGraphic" in2="effect1_dropShadow" result="shape"/>
</filter>
<linearGradient id="paint0_linear" x1="144" y1="5" x2="144" y2="205" gradientUnits="userSpaceOnUse">
<stop stop-color="white"/>
<stop offset="1" stop-color="white" stop-opacity="0"/>
</linearGradient>
</defs>
</svg>
