<svg width="308" height="230" viewBox="0 0 308 230" fill="none" xmlns="http://www.w3.org/2000/svg">
<g filter="url(#filter0_d)">
<rect x="5" y="5" width="278" height="200" rx="15" fill="#F5F8FA"/>
<rect x="5" y="5" width="278" height="200" rx="15" fill="url(#paint0_linear)"/>
</g>
<rect x="57" y="52" width="171" height="31" fill="#FAFCFD" fill-opacity="0.5"/>
<path d="M86.3277 37.7617H89.4683L96.8628 49.1055V37.7617H100.144V55H96.9917L89.6089 43.6914V55H86.3277V37.7617ZM110.438 41.9219C111.641 41.9219 112.77 42.2227 113.825 42.8242C114.887 43.4258 115.716 44.2422 116.309 45.2734C116.903 46.3047 117.2 47.418 117.2 48.6133C117.2 49.8164 116.899 50.9414 116.298 51.9883C115.704 53.0352 114.891 53.8555 113.86 54.4492C112.829 55.0352 111.692 55.3281 110.45 55.3281C108.622 55.3281 107.059 54.6797 105.762 53.3828C104.473 52.0781 103.829 50.4961 103.829 48.6367C103.829 46.6445 104.559 44.9844 106.02 43.6562C107.302 42.5 108.774 41.9219 110.438 41.9219ZM110.485 44.9336C109.493 44.9336 108.665 45.2812 108.001 45.9766C107.345 46.6641 107.016 47.5469 107.016 48.625C107.016 49.7344 107.341 50.6328 107.989 51.3203C108.645 52.0078 109.473 52.3516 110.473 52.3516C111.473 52.3516 112.305 52.0039 112.97 51.3086C113.634 50.6133 113.966 49.7188 113.966 48.625C113.966 47.5312 113.637 46.6445 112.981 45.9648C112.333 45.2773 111.501 44.9336 110.485 44.9336ZM120.522 42.25H123.732V43.7148C124.279 43.1133 124.885 42.6641 125.549 42.3672C126.221 42.0703 126.951 41.9219 127.74 41.9219C128.537 41.9219 129.256 42.1172 129.897 42.5078C130.537 42.8984 131.053 43.4688 131.443 44.2188C131.951 43.4688 132.572 42.8984 133.307 42.5078C134.049 42.1172 134.857 41.9219 135.732 41.9219C136.639 41.9219 137.436 42.1328 138.123 42.5547C138.811 42.9766 139.303 43.5273 139.6 44.207C139.904 44.8867 140.057 45.9922 140.057 47.5234V55H136.834V48.5312C136.834 47.0859 136.654 46.1094 136.295 45.6016C135.936 45.0859 135.397 44.8281 134.678 44.8281C134.131 44.8281 133.639 44.9844 133.201 45.2969C132.772 45.6094 132.451 46.043 132.24 46.5977C132.029 47.1445 131.924 48.0273 131.924 49.2461V55H128.701V48.8242C128.701 47.6836 128.615 46.8594 128.443 46.3516C128.279 45.8359 128.029 45.4531 127.693 45.2031C127.357 44.9531 126.951 44.8281 126.475 44.8281C125.943 44.8281 125.459 44.9883 125.022 45.3086C124.592 45.6211 124.268 46.0625 124.049 46.6328C123.838 47.2031 123.732 48.1016 123.732 49.3281V55H120.522V42.25ZM147.011 37.3281V43.6562C147.589 43.0781 148.214 42.6445 148.886 42.3555C149.558 42.0664 150.277 41.9219 151.042 41.9219C152.706 41.9219 154.12 42.5508 155.285 43.8086C156.449 45.0664 157.031 46.6797 157.031 48.6484C157.031 50.5469 156.429 52.1367 155.226 53.418C154.023 54.6914 152.597 55.3281 150.949 55.3281C150.214 55.3281 149.531 55.1992 148.898 54.9414C148.265 54.6758 147.636 54.2461 147.011 53.6523V55H143.835V37.3281H147.011ZM150.374 44.875C149.367 44.875 148.531 45.2188 147.867 45.9062C147.202 46.5938 146.87 47.4922 146.87 48.6016C146.87 49.7344 147.202 50.6523 147.867 51.3555C148.531 52.0508 149.367 52.3984 150.374 52.3984C151.351 52.3984 152.171 52.043 152.835 51.332C153.507 50.6211 153.843 49.7148 153.843 48.6133C153.843 47.5195 153.515 46.625 152.859 45.9297C152.202 45.2266 151.374 44.875 150.374 44.875ZM159.649 42.25H162.391V43.8555C162.688 43.2227 163.083 42.7422 163.575 42.4141C164.067 42.0859 164.606 41.9219 165.192 41.9219C165.606 41.9219 166.04 42.0312 166.493 42.25L165.497 45.0039C165.122 44.8164 164.813 44.7227 164.571 44.7227C164.079 44.7227 163.661 45.0273 163.317 45.6367C162.981 46.2461 162.813 47.4414 162.813 49.2227L162.825 49.8438V55H159.649V42.25ZM181.58 49.5508H171.303C171.451 50.457 171.846 51.1797 172.486 51.7188C173.135 52.25 173.959 52.5156 174.959 52.5156C176.154 52.5156 177.182 52.0977 178.041 51.2617L180.736 52.5273C180.064 53.4805 179.26 54.1875 178.322 54.6484C177.385 55.1016 176.271 55.3281 174.982 55.3281C172.982 55.3281 171.353 54.6992 170.096 53.4414C168.838 52.1758 168.209 50.5938 168.209 48.6953C168.209 46.75 168.834 45.1367 170.084 43.8555C171.342 42.5664 172.916 41.9219 174.807 41.9219C176.814 41.9219 178.447 42.5664 179.705 43.8555C180.963 45.1367 181.592 46.832 181.592 48.9414L181.58 49.5508ZM178.369 47.0312C178.158 46.3203 177.74 45.7422 177.115 45.2969C176.498 44.8516 175.779 44.6289 174.959 44.6289C174.068 44.6289 173.287 44.8789 172.615 45.3789C172.193 45.6914 171.803 46.2422 171.443 47.0312H178.369ZM190.93 42.25H194.2L197.516 50.2539L201.172 42.25H204.454L196.461 59.6641H193.157L195.782 54.0508L190.93 42.25ZM83.9052 64.7617H87.1981V75.918C87.1981 76.8789 87.2802 77.5586 87.4442 77.957C87.6161 78.3555 87.8934 78.6758 88.2762 78.918C88.6669 79.1523 89.1356 79.2695 89.6825 79.2695C90.2606 79.2695 90.7567 79.1367 91.1708 78.8711C91.5927 78.6055 91.8817 78.2695 92.038 77.8633C92.202 77.4492 92.2841 76.6641 92.2841 75.5078V64.7617H95.577V75.0391C95.577 76.7734 95.4794 77.9766 95.2841 78.6484C95.0887 79.3203 94.7137 79.9688 94.1591 80.5938C93.6122 81.2188 92.9794 81.6836 92.2606 81.9883C91.5419 82.2852 90.7059 82.4336 89.7528 82.4336C88.5028 82.4336 87.413 82.1484 86.4833 81.5781C85.5614 81 84.9012 80.2812 84.5028 79.4219C84.1044 78.5547 83.9052 77.0938 83.9052 75.0391V64.7617ZM102.942 64.3281V70.6562C103.52 70.0781 104.145 69.6445 104.817 69.3555C105.488 69.0664 106.207 68.9219 106.973 68.9219C108.637 68.9219 110.051 69.5508 111.215 70.8086C112.379 72.0664 112.961 73.6797 112.961 75.6484C112.961 77.5469 112.36 79.1367 111.156 80.418C109.953 81.6914 108.527 82.3281 106.879 82.3281C106.145 82.3281 105.461 82.1992 104.828 81.9414C104.195 81.6758 103.567 81.2461 102.942 80.6523V82H99.7658V64.3281H102.942ZM106.305 71.875C105.297 71.875 104.461 72.2188 103.797 72.9062C103.133 73.5938 102.801 74.4922 102.801 75.6016C102.801 76.7344 103.133 77.6523 103.797 78.3555C104.461 79.0508 105.297 79.3984 106.305 79.3984C107.281 79.3984 108.102 79.043 108.766 78.332C109.438 77.6211 109.774 76.7148 109.774 75.6133C109.774 74.5195 109.445 73.625 108.789 72.9297C108.133 72.2266 107.305 71.875 106.305 71.875ZM117.583 64C118.146 64 118.626 64.2031 119.025 64.6094C119.431 65.0156 119.634 65.5078 119.634 66.0859C119.634 66.6562 119.435 67.1445 119.037 67.5508C118.638 67.9492 118.162 68.1484 117.607 68.1484C117.037 68.1484 116.548 67.9453 116.142 67.5391C115.744 67.125 115.544 66.625 115.544 66.0391C115.544 65.4766 115.744 64.9961 116.142 64.5977C116.54 64.1992 117.021 64 117.583 64ZM115.978 69.25H119.189V82H115.978V69.25ZM135.296 71.8281L132.635 73.293C132.135 72.7695 131.639 72.4062 131.147 72.2031C130.663 72 130.092 71.8984 129.436 71.8984C128.241 71.8984 127.272 72.2578 126.53 72.9766C125.796 73.6875 125.428 74.6016 125.428 75.7188C125.428 76.8047 125.784 77.6914 126.495 78.3789C127.206 79.0664 128.139 79.4102 129.296 79.4102C130.725 79.4102 131.839 78.9219 132.635 77.9453L135.155 79.668C133.788 81.4414 131.858 82.3281 129.366 82.3281C127.124 82.3281 125.366 81.6641 124.092 80.3359C122.827 79.0078 122.194 77.4531 122.194 75.6719C122.194 74.4375 122.503 73.3008 123.12 72.2617C123.737 71.2227 124.596 70.4062 125.698 69.8125C126.807 69.2188 128.046 68.9219 129.413 68.9219C130.678 68.9219 131.815 69.1758 132.823 69.6836C133.831 70.1836 134.655 70.8984 135.296 71.8281ZM148.332 69.25H151.52V82H148.332V80.6523C147.707 81.2461 147.078 81.6758 146.445 81.9414C145.82 82.1992 145.141 82.3281 144.406 82.3281C142.758 82.3281 141.332 81.6914 140.129 80.418C138.926 79.1367 138.324 77.5469 138.324 75.6484C138.324 73.6797 138.906 72.0664 140.07 70.8086C141.234 69.5508 142.648 68.9219 144.312 68.9219C145.078 68.9219 145.797 69.0664 146.469 69.3555C147.141 69.6445 147.762 70.0781 148.332 70.6562V69.25ZM144.969 71.875C143.977 71.875 143.152 72.2266 142.496 72.9297C141.84 73.625 141.512 74.5195 141.512 75.6133C141.512 76.7148 141.844 77.6211 142.508 78.332C143.18 79.043 144.004 79.3984 144.98 79.3984C145.988 79.3984 146.824 79.0508 147.488 78.3555C148.152 77.6523 148.484 76.7344 148.484 75.6016C148.484 74.4922 148.152 73.5938 147.488 72.9062C146.824 72.2188 145.984 71.875 144.969 71.875ZM167.954 71.8281L165.294 73.293C164.794 72.7695 164.298 72.4062 163.806 72.2031C163.322 72 162.751 71.8984 162.095 71.8984C160.9 71.8984 159.931 72.2578 159.189 72.9766C158.454 73.6875 158.087 74.6016 158.087 75.7188C158.087 76.8047 158.443 77.6914 159.154 78.3789C159.865 79.0664 160.798 79.4102 161.954 79.4102C163.384 79.4102 164.497 78.9219 165.294 77.9453L167.814 79.668C166.447 81.4414 164.517 82.3281 162.025 82.3281C159.783 82.3281 158.025 81.6641 156.751 80.3359C155.486 79.0078 154.853 77.4531 154.853 75.6719C154.853 74.4375 155.161 73.3008 155.779 72.2617C156.396 71.2227 157.255 70.4062 158.357 69.8125C159.466 69.2188 160.704 68.9219 162.072 68.9219C163.337 68.9219 164.474 69.1758 165.482 69.6836C166.49 70.1836 167.314 70.8984 167.954 71.8281ZM172.823 64C173.385 64 173.866 64.2031 174.264 64.6094C174.67 65.0156 174.874 65.5078 174.874 66.0859C174.874 66.6562 174.674 67.1445 174.276 67.5508C173.878 67.9492 173.401 68.1484 172.846 68.1484C172.276 68.1484 171.788 67.9453 171.381 67.5391C170.983 67.125 170.784 66.625 170.784 66.0391C170.784 65.4766 170.983 64.9961 171.381 64.5977C171.78 64.1992 172.26 64 172.823 64ZM171.217 69.25H174.428V82H171.217V69.25ZM184.043 68.9219C185.246 68.9219 186.375 69.2227 187.43 69.8242C188.492 70.4258 189.32 71.2422 189.914 72.2734C190.508 73.3047 190.805 74.418 190.805 75.6133C190.805 76.8164 190.504 77.9414 189.902 78.9883C189.308 80.0352 188.496 80.8555 187.465 81.4492C186.433 82.0352 185.297 82.3281 184.055 82.3281C182.226 82.3281 180.664 81.6797 179.367 80.3828C178.078 79.0781 177.433 77.4961 177.433 75.6367C177.433 73.6445 178.164 71.9844 179.625 70.6562C180.906 69.5 182.379 68.9219 184.043 68.9219ZM184.09 71.9336C183.098 71.9336 182.269 72.2812 181.605 72.9766C180.949 73.6641 180.621 74.5469 180.621 75.625C180.621 76.7344 180.945 77.6328 181.594 78.3203C182.25 79.0078 183.078 79.3516 184.078 79.3516C185.078 79.3516 185.91 79.0039 186.574 78.3086C187.238 77.6133 187.57 76.7188 187.57 75.625C187.57 74.5312 187.242 73.6445 186.586 72.9648C185.937 72.2773 185.105 71.9336 184.09 71.9336ZM184.676 62.3242H188.461L184.172 66.918H181.875L184.676 62.3242ZM194.15 69.25H197.337V70.5508C198.064 69.9414 198.72 69.5195 199.306 69.2852C199.9 69.043 200.505 68.9219 201.122 68.9219C202.388 68.9219 203.462 69.3633 204.345 70.2461C205.087 70.9961 205.458 72.1055 205.458 73.5742V82H202.294V76.4102C202.294 74.8867 202.224 73.875 202.083 73.375C201.95 72.875 201.712 72.4961 201.368 72.2383C201.032 71.9727 200.614 71.8398 200.114 71.8398C199.466 71.8398 198.907 72.0586 198.439 72.4961C197.978 72.9258 197.657 73.5234 197.478 74.2891C197.384 74.6875 197.337 75.5508 197.337 76.8789V82H194.15V69.25Z" fill="#444242"/>
<g filter="url(#filter1_d)">
<rect x="202" y="102" width="49.9231" height="59" rx="10.5304" transform="rotate(90 202 102)" fill="#3497DB"/>
</g>
<path d="M169.299 125.284C170.067 126.004 170.98 126.364 172.037 126.364C173.094 126.364 173.982 126.004 174.703 125.284C175.472 124.515 175.856 123.602 175.856 122.545C175.856 121.489 175.472 120.6 174.703 119.879C173.982 119.111 173.094 118.726 172.037 118.726C170.98 118.726 170.067 119.111 169.299 119.879C168.578 120.6 168.218 121.489 168.218 122.545C168.218 123.602 168.578 124.515 169.299 125.284ZM164.399 114.979C166.512 112.866 169.058 111.809 172.037 111.809C175.015 111.809 177.537 112.866 179.603 114.979C181.717 117.045 182.773 119.567 182.773 122.545C182.773 124.035 182.389 125.74 181.62 127.661C180.9 129.583 180.011 131.384 178.954 133.066C177.897 134.747 176.841 136.332 175.784 137.821C174.775 139.263 173.91 140.416 173.19 141.28L172.037 142.505C171.749 142.169 171.364 141.737 170.884 141.208C170.404 140.632 169.539 139.527 168.29 137.894C167.041 136.212 165.936 134.603 164.975 133.066C164.062 131.48 163.222 129.703 162.453 127.733C161.685 125.764 161.3 124.035 161.3 122.545C161.3 119.567 162.333 117.045 164.399 114.979Z" fill="#F5F8FA"/>
<path d="M169.299 125.284C170.067 126.004 170.98 126.364 172.037 126.364C173.094 126.364 173.982 126.004 174.703 125.284C175.472 124.515 175.856 123.602 175.856 122.545C175.856 121.489 175.472 120.6 174.703 119.879C173.982 119.111 173.094 118.726 172.037 118.726C170.98 118.726 170.067 119.111 169.299 119.879C168.578 120.6 168.218 121.489 168.218 122.545C168.218 123.602 168.578 124.515 169.299 125.284ZM164.399 114.979C166.512 112.866 169.058 111.809 172.037 111.809C175.015 111.809 177.537 112.866 179.603 114.979C181.717 117.045 182.773 119.567 182.773 122.545C182.773 124.035 182.389 125.74 181.62 127.661C180.9 129.583 180.011 131.384 178.954 133.066C177.897 134.747 176.841 136.332 175.784 137.821C174.775 139.263 173.91 140.416 173.19 141.28L172.037 142.505C171.749 142.169 171.364 141.737 170.884 141.208C170.404 140.632 169.539 139.527 168.29 137.894C167.041 136.212 165.936 134.603 164.975 133.066C164.062 131.48 163.222 129.703 162.453 127.733C161.685 125.764 161.3 124.035 161.3 122.545C161.3 119.567 162.333 117.045 164.399 114.979Z" fill="url(#paint1_linear)"/>
<path d="M105 120.975C92.8554 120.975 82.9749 130.855 82.9749 143C82.9749 155.145 92.8554 165.025 105 165.025C117.145 165.025 127.025 155.145 127.025 143C127.025 130.855 117.145 120.975 105 120.975V120.975ZM93.5841 157.826C94.0796 155.285 95.6969 153.1 98.032 151.878L99.9452 150.876C101.009 150.319 101.725 149.319 101.909 148.134C102.095 146.938 101.711 145.759 100.857 144.896C99.7702 143.798 99.1715 142.343 99.1715 140.798V138.318C99.1715 135.105 101.786 132.49 105 132.49C108.214 132.49 110.829 135.105 110.829 138.318V140.798C110.829 142.343 110.23 143.798 109.143 144.896C108.289 145.759 107.906 146.938 108.091 148.133C108.275 149.319 108.991 150.319 110.055 150.876L111.968 151.878C114.304 153.101 115.922 155.285 116.416 157.826C113.254 160.267 109.294 161.721 105 161.721C100.706 161.721 96.746 160.267 93.5841 157.826V157.826ZM119.118 155.281C118.105 152.589 116.133 150.328 113.501 148.95L111.588 147.949C111.425 147.863 111.372 147.726 111.357 147.627C111.343 147.54 111.343 147.371 111.491 147.221C113.195 145.501 114.133 143.22 114.133 140.798V138.318C114.133 133.282 110.036 129.185 105 129.185C99.9641 129.185 95.8669 133.282 95.8669 138.318V140.798C95.8669 143.219 96.8053 145.501 98.5092 147.221C98.6577 147.371 98.6571 147.54 98.6437 147.627C98.6281 147.726 98.5755 147.863 98.4122 147.949L96.499 148.95C93.8681 150.328 91.8961 152.589 90.8825 155.281C88.0171 151.992 86.2794 147.695 86.2794 143C86.2794 132.678 94.6775 124.28 105 124.28C115.323 124.28 123.721 132.678 123.721 143C123.721 147.695 121.983 151.991 119.118 155.281V155.281Z" fill="#3497DB"/>
<path d="M124.94 123.06C119.614 117.733 112.533 114.8 105 114.8C97.4675 114.8 90.3859 117.733 85.0596 123.06C79.7333 128.386 76.8 135.468 76.8 143C76.8 150.533 79.7333 157.614 85.0596 162.941C90.3859 168.267 97.4675 171.2 105 171.2C112.533 171.2 119.614 168.267 124.94 162.941C130.267 157.614 133.2 150.533 133.2 143C133.2 135.468 130.267 128.386 124.94 123.06V123.06ZM122.604 160.604C117.902 165.306 111.65 167.896 105 167.896C98.3502 167.896 92.0984 165.306 87.3963 160.604C82.6942 155.902 80.1046 149.65 80.1046 143C80.1046 136.35 82.6942 130.099 87.3963 125.396C92.0984 120.694 98.3503 118.105 105 118.105C111.65 118.105 117.902 120.694 122.604 125.396C127.306 130.098 129.895 136.35 129.895 143C129.895 149.65 127.306 155.902 122.604 160.604V160.604Z" fill="#3497DB"/>
<defs>
<filter id="filter0_d" x="0" y="0" width="308" height="230" filterUnits="userSpaceOnUse" color-interpolation-filters="sRGB">
<feFlood flood-opacity="0" result="BackgroundImageFix"/>
<feColorMatrix in="SourceAlpha" type="matrix" values="0 0 0 0 0 0 0 0 0 0 0 0 0 0 0 0 0 0 127 0"/>
<feOffset dx="10" dy="10"/>
<feGaussianBlur stdDeviation="7.5"/>
<feColorMatrix type="matrix" values="0 0 0 0 0 0 0 0 0 0 0 0 0 0 0 0 0 0 0.2 0"/>
<feBlend mode="multiply" in2="BackgroundImageFix" result="effect1_dropShadow"/>
<feBlend mode="normal" in="SourceGraphic" in2="effect1_dropShadow" result="shape"/>
</filter>
<filter id="filter1_d" x="136.192" y="95.1923" width="77.1538" height="68.0769" filterUnits="userSpaceOnUse" color-interpolation-filters="sRGB">
<feFlood flood-opacity="0" result="BackgroundImageFix"/>
<feColorMatrix in="SourceAlpha" type="matrix" values="0 0 0 0 0 0 0 0 0 0 0 0 0 0 0 0 0 0 127 0"/>
<feOffset dx="2.26923" dy="2.26923"/>
<feGaussianBlur stdDeviation="4.53846"/>
<feColorMatrix type="matrix" values="0 0 0 0 0 0 0 0 0 0 0 0 0 0 0 0 0 0 0.15 0"/>
<feBlend mode="normal" in2="BackgroundImageFix" result="effect1_dropShadow"/>
<feBlend mode="normal" in="SourceGraphic" in2="effect1_dropShadow" result="shape"/>
</filter>
<linearGradient id="paint0_linear" x1="144" y1="5" x2="144" y2="205" gradientUnits="userSpaceOnUse">
<stop stop-color="white"/>
<stop offset="1" stop-color="white" stop-opacity="0"/>
</linearGradient>
<linearGradient id="paint1_linear" x1="172.037" y1="111.809" x2="172.037" y2="142.505" gradientUnits="userSpaceOnUse">
<stop stop-color="white"/>
<stop offset="1" stop-color="white" stop-opacity="0"/>
</linearGradient>
</defs>
</svg>
