<svg width="201" height="150" viewBox="0 0 201 150" fill="none" xmlns="http://www.w3.org/2000/svg">
<g filter="url(#filter0_d)">
<rect x="4" y="4" width="180.785" height="130.061" rx="9.44245" fill="#F5F8FA"/>
<rect x="4" y="4" width="180.785" height="130.061" rx="9.44245" fill="url(#paint0_linear)"/>
</g>
<path d="M64.8574 22.1056H66.8344L71.4893 29.2464V22.1056H73.5548V32.957H71.5704L66.923 25.8383V32.957H64.8574V22.1056ZM80.035 24.7244C80.7923 24.7244 81.503 24.9137 82.1669 25.2924C82.8357 25.6711 83.357 26.185 83.7308 26.8342C84.1046 27.4834 84.2915 28.1842 84.2915 28.9366C84.2915 29.694 84.1021 30.4022 83.7234 31.0612C83.3497 31.7202 82.8382 32.2366 82.189 32.6103C81.5399 32.9792 80.8243 33.1636 80.0424 33.1636C78.8916 33.1636 77.908 32.7554 77.0916 31.939C76.2801 31.1177 75.8744 30.1218 75.8744 28.9514C75.8744 27.6973 76.3342 26.6522 77.2539 25.8162C78.0604 25.0883 78.9875 24.7244 80.035 24.7244ZM80.0645 26.6203C79.4399 26.6203 78.9186 26.8391 78.5006 27.2768C78.0875 27.7096 77.8809 28.2653 77.8809 28.944C77.8809 29.6423 78.085 30.2079 78.4932 30.6407C78.9063 31.0735 79.4276 31.2898 80.0571 31.2898C80.6866 31.2898 81.2104 31.071 81.6284 30.6333C82.0464 30.1956 82.2554 29.6325 82.2554 28.944C82.2554 28.2555 82.0489 27.6973 81.6358 27.2694C81.2276 26.8367 80.7038 26.6203 80.0645 26.6203ZM86.3824 24.931H88.4036V25.8531C88.7479 25.4744 89.129 25.1916 89.5471 25.0047C89.97 24.8178 90.4298 24.7244 90.9265 24.7244C91.4282 24.7244 91.8806 24.8473 92.2839 25.0932C92.6872 25.3391 93.0118 25.6982 93.2577 26.1703C93.5773 25.6982 93.9683 25.3391 94.4306 25.0932C94.8978 24.8473 95.4068 24.7244 95.9576 24.7244C96.5281 24.7244 97.0297 24.8572 97.4625 25.1228C97.8953 25.3883 98.2051 25.735 98.392 26.1629C98.5838 26.5908 98.6797 27.2866 98.6797 28.2506V32.957H96.651V28.885C96.651 27.9752 96.5379 27.3604 96.3117 27.0407C96.0855 26.7162 95.7461 26.5539 95.2937 26.5539C94.9494 26.5539 94.6396 26.6522 94.3642 26.8489C94.0937 27.0457 93.8921 27.3186 93.7593 27.6678C93.6265 28.012 93.5601 28.5678 93.5601 29.335V32.957H91.5315V29.0694C91.5315 28.3514 91.4774 27.8325 91.3692 27.5129C91.2659 27.1883 91.1085 26.9473 90.897 26.7899C90.6856 26.6326 90.4298 26.5539 90.1298 26.5539C89.7954 26.5539 89.4905 26.6547 89.2151 26.8563C88.9446 27.053 88.7405 27.3309 88.6028 27.6899C88.47 28.0489 88.4036 28.6145 88.4036 29.3866V32.957H86.3824V24.931ZM103.057 21.8326V25.8162C103.421 25.4523 103.815 25.1793 104.238 24.9973C104.661 24.8154 105.113 24.7244 105.595 24.7244C106.643 24.7244 107.533 25.1203 108.266 25.9121C108.998 26.7039 109.365 27.7194 109.365 28.9587C109.365 30.1538 108.986 31.1546 108.229 31.9611C107.471 32.7628 106.574 33.1636 105.536 33.1636C105.074 33.1636 104.643 33.0824 104.245 32.9201C103.847 32.7529 103.451 32.4824 103.057 32.1087V32.957H101.058V21.8326H103.057ZM105.175 26.5834C104.54 26.5834 104.014 26.7998 103.596 27.2325C103.178 27.6653 102.969 28.2309 102.969 28.9292C102.969 29.6423 103.178 30.2202 103.596 30.6628C104.014 31.1005 104.54 31.3194 105.175 31.3194C105.789 31.3194 106.306 31.0956 106.724 30.6481C107.147 30.2005 107.358 29.63 107.358 28.9366C107.358 28.2481 107.152 27.685 106.739 27.2473C106.325 26.8047 105.804 26.5834 105.175 26.5834ZM111.013 24.931H112.739V25.9416C112.926 25.5432 113.174 25.2408 113.484 25.0342C113.794 24.8277 114.133 24.7244 114.502 24.7244C114.763 24.7244 115.036 24.7932 115.321 24.931L114.694 26.6645C114.458 26.5465 114.264 26.4875 114.111 26.4875C113.801 26.4875 113.538 26.6793 113.322 27.0629C113.11 27.4465 113.005 28.1989 113.005 29.3202L113.012 29.7112V32.957H111.013V24.931ZM124.818 29.5268H118.349C118.442 30.0972 118.691 30.5522 119.094 30.8915C119.502 31.2259 120.021 31.3931 120.65 31.3931C121.403 31.3931 122.05 31.13 122.591 30.6038L124.287 31.4005C123.864 32.0005 123.358 32.4456 122.768 32.7357C122.178 33.021 121.477 33.1636 120.665 33.1636C119.406 33.1636 118.381 32.7677 117.589 31.9759C116.797 31.1792 116.401 30.1833 116.401 28.9883C116.401 27.7637 116.795 26.7481 117.582 25.9416C118.373 25.1301 119.364 24.7244 120.555 24.7244C121.818 24.7244 122.846 25.1301 123.638 25.9416C124.43 26.7481 124.826 27.8153 124.826 29.1432L124.818 29.5268ZM122.797 27.9407C122.664 27.4932 122.401 27.1293 122.008 26.8489C121.619 26.5686 121.167 26.4285 120.65 26.4285C120.09 26.4285 119.598 26.5858 119.175 26.9006C118.91 27.0973 118.664 27.444 118.437 27.9407H122.797ZM66.2779 43.5539L64.6034 44.476C64.2886 44.1465 63.9763 43.9178 63.6665 43.7899C63.3616 43.6621 63.0026 43.5981 62.5895 43.5981C61.837 43.5981 61.2272 43.8244 60.76 44.2768C60.2977 44.7243 60.0666 45.2997 60.0666 46.003C60.0666 46.6866 60.2903 47.2448 60.7379 47.6776C61.1854 48.1103 61.7731 48.3267 62.5009 48.3267C63.4009 48.3267 64.1017 48.0194 64.6034 47.4046L66.1894 48.489C65.3288 49.6054 64.114 50.1636 62.5452 50.1636C61.1338 50.1636 60.0272 49.7456 59.2256 48.9095C58.4289 48.0735 58.0305 47.0948 58.0305 45.9735C58.0305 45.1965 58.2248 44.4809 58.6133 43.8268C59.0018 43.1727 59.5428 42.6588 60.2362 42.285C60.9346 41.9113 61.7141 41.7244 62.5747 41.7244C63.3714 41.7244 64.087 41.8842 64.7214 42.2039C65.3558 42.5186 65.8747 42.9686 66.2779 43.5539ZM72.3229 41.7244C73.0802 41.7244 73.7909 41.9137 74.4548 42.2924C75.1236 42.6711 75.6449 43.185 76.0187 43.8342C76.3925 44.4834 76.5793 45.1842 76.5793 45.9366C76.5793 46.694 76.39 47.4022 76.0113 48.0612C75.6376 48.7202 75.1261 49.2366 74.4769 49.6103C73.8278 49.9792 73.1122 50.1636 72.3302 50.1636C71.1794 50.1636 70.1959 49.7554 69.3795 48.939C68.568 48.1177 68.1623 47.1218 68.1623 45.9514C68.1623 44.6973 68.6221 43.6522 69.5418 42.8162C70.3483 42.0883 71.2753 41.7244 72.3229 41.7244ZM72.3524 43.6203C71.7278 43.6203 71.2065 43.8391 70.7885 44.2768C70.3754 44.7096 70.1688 45.2653 70.1688 45.944C70.1688 46.6423 70.3729 47.2079 70.7811 47.6407C71.1942 48.0735 71.7155 48.2898 72.345 48.2898C72.9745 48.2898 73.4982 48.071 73.9163 47.6333C74.3343 47.1956 74.5433 46.6325 74.5433 45.944C74.5433 45.2555 74.3368 44.6973 73.9237 44.2694C73.5155 43.8367 72.9917 43.6203 72.3524 43.6203ZM78.6703 41.931H80.6915V42.8531C81.0358 42.4744 81.4169 42.1916 81.8349 42.0047C82.2579 41.8178 82.7177 41.7244 83.2144 41.7244C83.7161 41.7244 84.1685 41.8473 84.5718 42.0932C84.9751 42.3391 85.2996 42.6982 85.5455 43.1703C85.8652 42.6982 86.2562 42.3391 86.7185 42.0932C87.1857 41.8473 87.6947 41.7244 88.2455 41.7244C88.816 41.7244 89.3176 41.8572 89.7504 42.1228C90.1832 42.3883 90.493 42.735 90.6799 43.1629C90.8717 43.5908 90.9676 44.2866 90.9676 45.2506V49.957H88.9389V45.885C88.9389 44.9752 88.8258 44.3604 88.5996 44.0407C88.3733 43.7162 88.034 43.5539 87.5816 43.5539C87.2373 43.5539 86.9275 43.6522 86.6521 43.8489C86.3816 44.0457 86.1799 44.3186 86.0472 44.6678C85.9144 45.012 85.848 45.5678 85.848 46.335V49.957H83.8193V46.0694C83.8193 45.3514 83.7652 44.8325 83.657 44.5129C83.5538 44.1883 83.3964 43.9473 83.1849 43.7899C82.9734 43.6326 82.7177 43.5539 82.4177 43.5539C82.0833 43.5539 81.7784 43.6547 81.503 43.8563C81.2325 44.053 81.0284 44.3309 80.8907 44.6899C80.7579 45.0489 80.6915 45.6145 80.6915 46.3866V49.957H78.6703V41.931ZM101.387 46.5268H94.9175C95.0109 47.0972 95.2593 47.5522 95.6625 47.8915C96.0707 48.2259 96.5896 48.3931 97.2191 48.3931C97.9715 48.3931 98.6182 48.13 99.1592 47.6038L100.856 48.4005C100.433 49.0005 99.9264 49.4456 99.3362 49.7357C98.7461 50.021 98.0453 50.1636 97.2338 50.1636C95.9748 50.1636 94.9494 49.7677 94.1576 48.9759C93.3658 48.1792 92.97 47.1833 92.97 45.9883C92.97 44.7637 93.3634 43.7481 94.1503 42.9416C94.942 42.1301 95.933 41.7244 97.1232 41.7244C98.3871 41.7244 99.4149 42.1301 100.207 42.9416C100.998 43.7481 101.394 44.8153 101.394 46.1432L101.387 46.5268ZM99.3657 44.9407C99.2329 44.4932 98.9698 44.1293 98.5764 43.8489C98.1879 43.5686 97.7354 43.4285 97.2191 43.4285C96.6584 43.4285 96.1666 43.5858 95.7437 43.9006C95.4781 44.0973 95.2322 44.444 95.006 44.9407H99.3657ZM103.006 41.931H104.732V42.9416C104.919 42.5432 105.167 42.2408 105.477 42.0342C105.787 41.8277 106.126 41.7244 106.495 41.7244C106.756 41.7244 107.029 41.7932 107.314 41.931L106.687 43.6645C106.451 43.5465 106.257 43.4875 106.104 43.4875C105.794 43.4875 105.531 43.6793 105.315 44.0629C105.103 44.4465 104.998 45.1989 104.998 46.3202L105.005 46.7112V49.957H103.006V41.931ZM116.627 43.5539L114.952 44.476C114.638 44.1465 114.325 43.9178 114.015 43.7899C113.71 43.6621 113.351 43.5981 112.938 43.5981C112.186 43.5981 111.576 43.8244 111.109 44.2768C110.647 44.7243 110.415 45.2997 110.415 46.003C110.415 46.6866 110.639 47.2448 111.087 47.6776C111.534 48.1103 112.122 48.3267 112.85 48.3267C113.75 48.3267 114.451 48.0194 114.952 47.4046L116.538 48.489C115.678 49.6054 114.463 50.1636 112.894 50.1636C111.483 50.1636 110.376 49.7456 109.574 48.9095C108.778 48.0735 108.379 47.0948 108.379 45.9735C108.379 45.1965 108.574 44.4809 108.962 43.8268C109.351 43.1727 109.892 42.6588 110.585 42.285C111.283 41.9113 112.063 41.7244 112.924 41.7244C113.72 41.7244 114.436 41.8842 115.07 42.2039C115.705 42.5186 116.224 42.9686 116.627 43.5539ZM119.691 38.6261C120.046 38.6261 120.348 38.754 120.599 39.0097C120.855 39.2654 120.982 39.5753 120.982 39.9392C120.982 40.2982 120.857 40.6056 120.606 40.8613C120.355 41.1121 120.055 41.2375 119.706 41.2375C119.347 41.2375 119.04 41.1097 118.784 40.8539C118.533 40.5933 118.408 40.2785 118.408 39.9097C118.408 39.5556 118.533 39.2531 118.784 39.0023C119.035 38.7515 119.337 38.6261 119.691 38.6261ZM118.681 41.931H120.702V49.957H118.681V41.931ZM126.754 41.7244C127.512 41.7244 128.222 41.9137 128.886 42.2924C129.555 42.6711 130.076 43.185 130.45 43.8342C130.824 44.4834 131.011 45.1842 131.011 45.9366C131.011 46.694 130.822 47.4022 130.443 48.0612C130.069 48.7202 129.558 49.2366 128.908 49.6103C128.259 49.9792 127.544 50.1636 126.762 50.1636C125.611 50.1636 124.627 49.7554 123.811 48.939C123 48.1177 122.594 47.1218 122.594 45.9514C122.594 44.6973 123.054 43.6522 123.973 42.8162C124.78 42.0883 125.707 41.7244 126.754 41.7244ZM126.784 43.6203C126.159 43.6203 125.638 43.8391 125.22 44.2768C124.807 44.7096 124.6 45.2653 124.6 45.944C124.6 46.6423 124.804 47.2079 125.213 47.6407C125.626 48.0735 126.147 48.2898 126.777 48.2898C127.406 48.2898 127.93 48.071 128.348 47.6333C128.766 47.1956 128.975 46.6325 128.975 45.944C128.975 45.2555 128.768 44.6973 128.355 44.2694C127.947 43.8367 127.423 43.6203 126.784 43.6203Z" fill="#444242"/>
<path d="M69.8667 72.2822H78.7852L84.7606 102.137C84.9645 103.163 85.5229 104.085 86.3381 104.742C87.1534 105.398 88.1735 105.747 89.2198 105.726H110.892C111.938 105.747 112.958 105.398 113.773 104.742C114.589 104.085 115.147 103.163 115.351 102.137L118.918 83.4303H81.0148M89.9333 116.875C89.9333 118.106 88.9351 119.104 87.7037 119.104C86.4723 119.104 85.4741 118.106 85.4741 116.875C85.4741 115.643 86.4723 114.645 87.7037 114.645C88.9351 114.645 89.9333 115.643 89.9333 116.875ZM114.459 116.875C114.459 118.106 113.461 119.104 112.23 119.104C110.998 119.104 110 118.106 110 116.875C110 115.643 110.998 114.645 112.23 114.645C113.461 114.645 114.459 115.643 114.459 116.875Z" stroke="#3497DB" stroke-width="1.88849" stroke-linecap="round" stroke-linejoin="round"/>
<path d="M63.178 64.4785V63.849H62.5485V64.4785H63.178ZM125.607 64.4785H126.237V63.849H125.607V64.4785ZM125.607 126.908V127.537H126.237V126.908H125.607ZM63.178 126.908H62.5485V127.537H63.178V126.908ZM63.178 65.108H125.607V63.849H63.178V65.108ZM124.978 64.4785V126.908H126.237V64.4785H124.978ZM125.607 126.278H63.178V127.537H125.607V126.278ZM63.8075 126.908V64.4785H62.5485V126.908H63.8075Z" fill="white"/>
<defs>
<filter id="filter0_d" x="0.852518" y="0.852518" width="199.67" height="148.946" filterUnits="userSpaceOnUse" color-interpolation-filters="sRGB">
<feFlood flood-opacity="0" result="BackgroundImageFix"/>
<feColorMatrix in="SourceAlpha" type="matrix" values="0 0 0 0 0 0 0 0 0 0 0 0 0 0 0 0 0 0 127 0"/>
<feOffset dx="6.29496" dy="6.29496"/>
<feGaussianBlur stdDeviation="4.72122"/>
<feColorMatrix type="matrix" values="0 0 0 0 0 0 0 0 0 0 0 0 0 0 0 0 0 0 0.2 0"/>
<feBlend mode="multiply" in2="BackgroundImageFix" result="effect1_dropShadow"/>
<feBlend mode="normal" in="SourceGraphic" in2="effect1_dropShadow" result="shape"/>
</filter>
<linearGradient id="paint0_linear" x1="94.3926" y1="4" x2="94.3926" y2="134.061" gradientUnits="userSpaceOnUse">
<stop stop-color="white"/>
<stop offset="1" stop-color="white" stop-opacity="0"/>
</linearGradient>
</defs>
</svg>
