<svg width="308" height="230" viewBox="0 0 308 230" fill="none" xmlns="http://www.w3.org/2000/svg">
<g filter="url(#filter0_d)">
<rect x="5" y="5" width="278" height="200" rx="15" fill="#F5F8FA"/>
<rect x="5" y="5" width="278" height="200" rx="15" fill="url(#paint0_linear)"/>
</g>
<path d="M100.945 40.7969L98.648 42.9883C97.0855 41.3398 95.3277 40.5156 93.3745 40.5156C91.7261 40.5156 90.3355 41.0781 89.2027 42.2031C88.0777 43.3281 87.5152 44.7148 87.5152 46.3633C87.5152 47.5117 87.7652 48.5312 88.2652 49.4219C88.7652 50.3125 89.4722 51.0117 90.3862 51.5195C91.3003 52.0273 92.3159 52.2812 93.4331 52.2812C94.3862 52.2812 95.2573 52.1055 96.0464 51.7539C96.8355 51.3945 97.7027 50.7461 98.648 49.8086L100.875 52.1289C99.6011 53.3711 98.398 54.2344 97.2652 54.7188C96.1323 55.1953 94.8394 55.4336 93.3862 55.4336C90.7066 55.4336 88.5112 54.5859 86.8003 52.8906C85.0972 51.1875 84.2456 49.0078 84.2456 46.3516C84.2456 44.6328 84.6323 43.1055 85.4058 41.7695C86.187 40.4336 87.3003 39.3594 88.7456 38.5469C90.1987 37.7344 91.7612 37.3281 93.4331 37.3281C94.855 37.3281 96.2222 37.6289 97.5347 38.2305C98.855 38.832 99.9917 39.6875 100.945 40.7969ZM110.184 41.9219C111.387 41.9219 112.516 42.2227 113.571 42.8242C114.634 43.4258 115.462 44.2422 116.055 45.2734C116.649 46.3047 116.946 47.418 116.946 48.6133C116.946 49.8164 116.645 50.9414 116.044 51.9883C115.45 53.0352 114.637 53.8555 113.606 54.4492C112.575 55.0352 111.438 55.3281 110.196 55.3281C108.368 55.3281 106.805 54.6797 105.509 53.3828C104.22 52.0781 103.575 50.4961 103.575 48.6367C103.575 46.6445 104.305 44.9844 105.766 43.6562C107.048 42.5 108.52 41.9219 110.184 41.9219ZM110.231 44.9336C109.239 44.9336 108.411 45.2812 107.747 45.9766C107.091 46.6641 106.762 47.5469 106.762 48.625C106.762 49.7344 107.087 50.6328 107.735 51.3203C108.391 52.0078 109.22 52.3516 110.22 52.3516C111.22 52.3516 112.052 52.0039 112.716 51.3086C113.38 50.6133 113.712 49.7188 113.712 48.625C113.712 47.5312 113.384 46.6445 112.727 45.9648C112.079 45.2773 111.247 44.9336 110.231 44.9336ZM120.268 42.25H123.479V43.7148C124.025 43.1133 124.631 42.6641 125.295 42.3672C125.967 42.0703 126.697 41.9219 127.486 41.9219C128.283 41.9219 129.002 42.1172 129.643 42.5078C130.283 42.8984 130.799 43.4688 131.19 44.2188C131.697 43.4688 132.318 42.8984 133.053 42.5078C133.795 42.1172 134.604 41.9219 135.479 41.9219C136.385 41.9219 137.182 42.1328 137.869 42.5547C138.557 42.9766 139.049 43.5273 139.346 44.207C139.65 44.8867 139.803 45.9922 139.803 47.5234V55H136.58V48.5312C136.58 47.0859 136.4 46.1094 136.041 45.6016C135.682 45.0859 135.143 44.8281 134.424 44.8281C133.877 44.8281 133.385 44.9844 132.947 45.2969C132.518 45.6094 132.197 46.043 131.986 46.5977C131.775 47.1445 131.67 48.0273 131.67 49.2461V55H128.447V48.8242C128.447 47.6836 128.361 46.8594 128.19 46.3516C128.025 45.8359 127.775 45.4531 127.44 45.2031C127.104 44.9531 126.697 44.8281 126.221 44.8281C125.69 44.8281 125.205 44.9883 124.768 45.3086C124.338 45.6211 124.014 46.0625 123.795 46.6328C123.584 47.2031 123.479 48.1016 123.479 49.3281V55H120.268V42.25ZM146.757 42.25V43.6562C147.335 43.0781 147.96 42.6445 148.632 42.3555C149.304 42.0664 150.023 41.9219 150.788 41.9219C152.452 41.9219 153.867 42.5508 155.031 43.8086C156.195 45.0664 156.777 46.6797 156.777 48.6484C156.777 50.5469 156.175 52.1367 154.972 53.418C153.769 54.6914 152.343 55.3281 150.695 55.3281C149.96 55.3281 149.277 55.1992 148.644 54.9414C148.011 54.6758 147.382 54.2461 146.757 53.6523V59.6641H143.581V42.25H146.757ZM150.12 44.875C149.113 44.875 148.277 45.2188 147.613 45.9062C146.949 46.5938 146.617 47.4922 146.617 48.6016C146.617 49.7344 146.949 50.6523 147.613 51.3555C148.277 52.0508 149.113 52.3984 150.12 52.3984C151.097 52.3984 151.917 52.043 152.581 51.332C153.253 50.6211 153.589 49.7148 153.589 48.6133C153.589 47.5195 153.261 46.625 152.605 45.9297C151.949 45.2266 151.12 44.875 150.12 44.875ZM159.805 37.3281H163.005V55H159.805V37.3281ZM179.404 49.5508H169.127C169.275 50.457 169.67 51.1797 170.31 51.7188C170.959 52.25 171.783 52.5156 172.783 52.5156C173.978 52.5156 175.006 52.0977 175.865 51.2617L178.56 52.5273C177.889 53.4805 177.084 54.1875 176.146 54.6484C175.209 55.1016 174.096 55.3281 172.807 55.3281C170.807 55.3281 169.178 54.6992 167.92 53.4414C166.662 52.1758 166.033 50.5938 166.033 48.6953C166.033 46.75 166.658 45.1367 167.908 43.8555C169.166 42.5664 170.74 41.9219 172.631 41.9219C174.639 41.9219 176.271 42.5664 177.529 43.8555C178.787 45.1367 179.416 46.832 179.416 48.9414L179.404 49.5508ZM176.193 47.0312C175.982 46.3203 175.564 45.7422 174.939 45.2969C174.322 44.8516 173.603 44.6289 172.783 44.6289C171.893 44.6289 171.111 44.8789 170.439 45.3789C170.018 45.6914 169.627 46.2422 169.268 47.0312H176.193ZM183.113 37.5508H186.3V42.25H188.198V45.0039H186.3V55H183.113V45.0039H181.472V42.25H183.113V37.5508ZM200.063 42.25H203.25V55H200.063V53.6523C199.438 54.2461 198.809 54.6758 198.176 54.9414C197.551 55.1992 196.872 55.3281 196.137 55.3281C194.489 55.3281 193.063 54.6914 191.86 53.418C190.657 52.1367 190.055 50.5469 190.055 48.6484C190.055 46.6797 190.637 45.0664 191.801 43.8086C192.965 42.5508 194.379 41.9219 196.043 41.9219C196.809 41.9219 197.528 42.0664 198.2 42.3555C198.872 42.6445 199.493 43.0781 200.063 43.6562V42.25ZM196.7 44.875C195.708 44.875 194.883 45.2266 194.227 45.9297C193.571 46.625 193.243 47.5195 193.243 48.6133C193.243 49.7148 193.575 50.6211 194.239 51.332C194.911 52.043 195.735 52.3984 196.711 52.3984C197.719 52.3984 198.555 52.0508 199.219 51.3555C199.883 50.6523 200.215 49.7344 200.215 48.6016C200.215 47.4922 199.883 46.5938 199.219 45.9062C198.555 45.2188 197.715 44.875 196.7 44.875ZM92.7183 69.25V70.6562C93.2964 70.0781 93.9214 69.6445 94.5933 69.3555C95.2652 69.0664 95.9839 68.9219 96.7495 68.9219C98.4136 68.9219 99.8277 69.5508 100.992 70.8086C102.156 72.0664 102.738 73.6797 102.738 75.6484C102.738 77.5469 102.136 79.1367 100.933 80.418C99.73 81.6914 98.3042 82.3281 96.6558 82.3281C95.9214 82.3281 95.2378 82.1992 94.605 81.9414C93.9722 81.6758 93.3433 81.2461 92.7183 80.6523V86.6641H89.5425V69.25H92.7183ZM96.0816 71.875C95.0737 71.875 94.2378 72.2188 93.5737 72.9062C92.9097 73.5938 92.5777 74.4922 92.5777 75.6016C92.5777 76.7344 92.9097 77.6523 93.5737 78.3555C94.2378 79.0508 95.0737 79.3984 96.0816 79.3984C97.0581 79.3984 97.8784 79.043 98.5425 78.332C99.2144 77.6211 99.5503 76.7148 99.5503 75.6133C99.5503 74.5195 99.2222 73.625 98.5659 72.9297C97.9097 72.2266 97.0816 71.875 96.0816 71.875ZM105.356 69.25H108.098V70.8555C108.395 70.2227 108.79 69.7422 109.282 69.4141C109.774 69.0859 110.313 68.9219 110.899 68.9219C111.313 68.9219 111.747 69.0312 112.2 69.25L111.204 72.0039C110.829 71.8164 110.52 71.7227 110.278 71.7227C109.786 71.7227 109.368 72.0273 109.024 72.6367C108.688 73.2461 108.52 74.4414 108.52 76.2227L108.532 76.8438V82H105.356V69.25ZM120.502 68.9219C121.705 68.9219 122.834 69.2227 123.889 69.8242C124.951 70.4258 125.779 71.2422 126.373 72.2734C126.967 73.3047 127.264 74.418 127.264 75.6133C127.264 76.8164 126.963 77.9414 126.361 78.9883C125.768 80.0352 124.955 80.8555 123.924 81.4492C122.893 82.0352 121.756 82.3281 120.514 82.3281C118.686 82.3281 117.123 81.6797 115.826 80.3828C114.537 79.0781 113.893 77.4961 113.893 75.6367C113.893 73.6445 114.623 71.9844 116.084 70.6562C117.365 69.5 118.838 68.9219 120.502 68.9219ZM120.549 71.9336C119.557 71.9336 118.729 72.2812 118.065 72.9766C117.408 73.6641 117.08 74.5469 117.08 75.625C117.08 76.7344 117.404 77.6328 118.053 78.3203C118.709 79.0078 119.537 79.3516 120.537 79.3516C121.537 79.3516 122.369 79.0039 123.033 78.3086C123.697 77.6133 124.029 76.7188 124.029 75.625C124.029 74.5312 123.701 73.6445 123.045 72.9648C122.397 72.2773 121.565 71.9336 120.549 71.9336ZM140.031 64.3281H143.218V82H140.031V80.6523C139.406 81.2461 138.777 81.6758 138.144 81.9414C137.519 82.1992 136.839 82.3281 136.105 82.3281C134.456 82.3281 133.031 81.6914 131.827 80.418C130.624 79.1367 130.023 77.5469 130.023 75.6484C130.023 73.6797 130.605 72.0664 131.769 70.8086C132.933 69.5508 134.347 68.9219 136.011 68.9219C136.777 68.9219 137.495 69.0664 138.167 69.3555C138.839 69.6445 139.46 70.0781 140.031 70.6562V64.3281ZM136.667 71.875C135.675 71.875 134.851 72.2266 134.195 72.9297C133.538 73.625 133.21 74.5195 133.21 75.6133C133.21 76.7148 133.542 77.6211 134.206 78.332C134.878 79.043 135.702 79.3984 136.679 79.3984C137.687 79.3984 138.523 79.0508 139.187 78.3555C139.851 77.6523 140.183 76.7344 140.183 75.6016C140.183 74.4922 139.851 73.5938 139.187 72.9062C138.523 72.2188 137.683 71.875 136.667 71.875ZM147.161 69.25H150.395V75.3906C150.395 76.5859 150.477 77.418 150.641 77.8867C150.805 78.3477 151.067 78.707 151.426 78.9648C151.794 79.2227 152.243 79.3516 152.774 79.3516C153.305 79.3516 153.755 79.2266 154.122 78.9766C154.497 78.7188 154.774 78.3438 154.954 77.8516C155.087 77.4844 155.153 76.6992 155.153 75.4961V69.25H158.364V74.6523C158.364 76.8789 158.188 78.4023 157.837 79.2227C157.407 80.2227 156.774 80.9922 155.938 81.5312C155.102 82.0625 154.04 82.3281 152.751 82.3281C151.352 82.3281 150.219 82.0156 149.352 81.3906C148.493 80.7656 147.887 79.8945 147.536 78.7773C147.286 78.0039 147.161 76.5977 147.161 74.5586V69.25ZM174.787 71.8281L172.127 73.293C171.627 72.7695 171.131 72.4062 170.639 72.2031C170.154 72 169.584 71.8984 168.928 71.8984C167.732 71.8984 166.764 72.2578 166.021 72.9766C165.287 73.6875 164.92 74.6016 164.92 75.7188C164.92 76.8047 165.275 77.6914 165.986 78.3789C166.697 79.0664 167.631 79.4102 168.787 79.4102C170.217 79.4102 171.33 78.9219 172.127 77.9453L174.646 79.668C173.279 81.4414 171.35 82.3281 168.857 82.3281C166.615 82.3281 164.857 81.6641 163.584 80.3359C162.318 79.0078 161.685 77.4531 161.685 75.6719C161.685 74.4375 161.994 73.3008 162.611 72.2617C163.228 71.2227 164.088 70.4062 165.189 69.8125C166.299 69.2188 167.537 68.9219 168.904 68.9219C170.17 68.9219 171.307 69.1758 172.314 69.6836C173.322 70.1836 174.146 70.8984 174.787 71.8281ZM178.788 64.5508H181.976V69.25H183.874V72.0039H181.976V82H178.788V72.0039H177.148V69.25H178.788V64.5508ZM192.305 68.9219C193.508 68.9219 194.637 69.2227 195.692 69.8242C196.754 70.4258 197.583 71.2422 198.176 72.2734C198.77 73.3047 199.067 74.418 199.067 75.6133C199.067 76.8164 198.766 77.9414 198.165 78.9883C197.571 80.0352 196.758 80.8555 195.727 81.4492C194.696 82.0352 193.559 82.3281 192.317 82.3281C190.489 82.3281 188.926 81.6797 187.629 80.3828C186.34 79.0781 185.696 77.4961 185.696 75.6367C185.696 73.6445 186.426 71.9844 187.887 70.6562C189.168 69.5 190.641 68.9219 192.305 68.9219ZM192.352 71.9336C191.36 71.9336 190.532 72.2812 189.868 72.9766C189.211 73.6641 188.883 74.5469 188.883 75.625C188.883 76.7344 189.208 77.6328 189.856 78.3203C190.512 79.0078 191.34 79.3516 192.34 79.3516C193.34 79.3516 194.172 79.0039 194.836 78.3086C195.5 77.6133 195.833 76.7188 195.833 75.625C195.833 74.5312 195.504 73.6445 194.848 72.9648C194.2 72.2773 193.368 71.9336 192.352 71.9336Z" fill="#444242"/>
<path d="M169.065 111.83L171.704 110.913L174.413 119.801L171.775 120.717L169.065 111.83Z" fill="#3497DB"/>
<path d="M164.609 122.442L167.687 121.608L170.848 129.687L167.77 130.521L164.609 122.442Z" fill="#3497DB"/>
<path d="M117.174 126.46C116.875 128.616 117.507 130.797 118.915 132.463L120.961 135.019V158.598H123.796V137.245L125.844 138.603C126.321 138.92 126.942 138.92 127.418 138.603L130.884 136.3L134.35 138.601C134.827 138.917 135.447 138.917 135.924 138.601L139.389 136.3L142.855 138.601C143.332 138.917 143.952 138.917 144.429 138.601L147.894 136.3L151.36 138.601C151.837 138.917 152.457 138.917 152.934 138.601L156.399 136.3L159.235 138.182V181.177H128.049V184H167.74C171.652 183.995 174.822 180.839 174.827 176.944V134.607C174.824 134.297 174.717 133.996 174.523 133.753L182.714 112.041C183.817 109.125 183.413 105.856 181.635 103.292C179.944 100.804 177.122 99.3169 174.106 99.3258C170.262 99.3617 166.838 101.753 165.496 105.339L163.273 111.23L160.652 108.62V103.56C160.652 102.78 160.017 102.148 159.235 102.148H143.642C142.859 102.148 142.224 102.78 142.224 103.56V105.981C140.622 104.535 138.205 104.453 136.507 105.788V103.56C136.507 101.25 134.627 99.3768 132.306 99.3768C129.986 99.3768 128.104 101.25 128.104 103.56V105.789C127.328 105.149 126.352 104.799 125.344 104.801C124.174 104.799 123.053 105.268 122.237 106.104C120.556 107.829 120.545 110.569 122.213 112.307L123.533 113.663C123.052 113.882 122.616 114.187 122.246 114.561L122.237 114.567L122.223 114.581C121.893 114.919 121.62 115.308 121.415 115.733L119.799 112.762L117.305 114.106L120.971 120.842C120.807 120.935 120.642 121.025 120.487 121.131C120.428 121.17 120.377 121.216 120.32 121.255L114.835 116.223L112.913 118.298L118.362 123.3C117.736 124.253 117.33 125.332 117.174 126.46ZM147.107 133.433L143.642 135.735L140.176 133.435C139.699 133.119 139.079 133.119 138.602 133.435L135.169 135.715C135.161 135.574 135.137 135.451 135.137 135.315C135.128 132.214 137.376 129.561 140.449 129.05C143.522 128.538 146.515 130.317 147.52 133.253C147.374 133.291 147.235 133.351 147.107 133.433ZM150.729 134.793L150.702 134.775C150.532 131.808 148.927 129.109 146.397 127.533C143.867 125.957 140.726 125.7 137.972 126.845V117.672H150.729V134.793ZM171.992 176.944C171.992 179.282 170.088 181.177 167.74 181.177H162.07V138.184L164.905 136.3L168.37 138.601C168.847 138.917 169.467 138.917 169.944 138.601L171.992 137.245V176.944ZM168.149 106.331C169.073 103.843 171.442 102.181 174.106 102.148C176.189 102.144 178.138 103.173 179.304 104.892C180.556 106.696 180.838 108.997 180.061 111.049L171.283 134.324L169.157 135.735L165.692 133.435C165.215 133.119 164.595 133.119 164.118 133.435L160.652 135.735L157.776 133.827L168.149 106.331ZM162.179 114.131L154.656 134.068L153.564 134.793V116.845L159.235 111.2L162.179 114.131ZM145.059 104.971H157.817V107.793H145.059V104.971ZM144.229 110.616H155.813L151.56 114.849H139.976L144.229 110.616ZM124.26 108.084C124.545 107.792 124.936 107.627 125.344 107.627C125.753 107.627 126.144 107.792 126.429 108.084L128.51 110.201C128.914 110.612 129.528 110.736 130.062 110.518C130.595 110.299 130.943 109.779 130.939 109.204V103.56C130.917 103.059 131.172 102.586 131.604 102.329C132.036 102.071 132.576 102.071 133.008 102.329C133.44 102.586 133.696 103.059 133.672 103.56V109.204C133.673 109.777 134.021 110.293 134.554 110.509C135.086 110.726 135.697 110.601 136.101 110.193L138.188 108.076C138.786 107.489 139.746 107.489 140.343 108.076C140.959 108.704 140.959 109.705 140.343 110.333L136.167 114.567L136.209 114.61L135.552 115.264C135.438 115.381 135.346 115.518 135.279 115.667C135.258 115.71 135.247 115.754 135.231 115.799C135.189 115.92 135.164 116.045 135.155 116.172C135.155 116.203 135.138 116.228 135.138 116.259V128.708C134.815 129.015 134.516 129.345 134.242 129.696L131.564 124.022C130.576 122.065 128.79 120.625 126.66 120.071C126.164 119.944 125.656 119.867 125.145 119.843L124.781 119.419C124.498 119.096 124.284 118.843 124.25 118.808C123.884 118.426 123.725 117.892 123.825 117.373C123.877 117.078 124.014 116.805 124.217 116.585L124.243 116.561L124.278 116.523C124.792 116.022 125.587 115.949 126.185 116.345C126.787 116.746 127.594 116.631 128.059 116.079C128.524 115.527 128.497 114.716 127.996 114.196L124.25 110.346C123.641 109.712 123.646 108.712 124.26 108.084ZM119.983 126.845C120.168 125.477 120.929 124.252 122.076 123.476C123.213 122.71 124.626 122.468 125.955 122.81C127.284 123.154 128.401 124.049 129.021 125.268L132.634 132.93C132.545 133.26 132.475 133.595 132.423 133.933L131.677 133.437C131.2 133.12 130.579 133.12 130.103 133.437L126.631 135.735L123.488 133.647L123.184 133.268L126.838 130.455L125.103 128.222L121.418 131.06L121.103 130.669C120.201 129.611 119.794 128.22 119.983 126.845Z" fill="#3497DB"/>
<path d="M107.066 180.443C108.157 182.629 110.405 184.008 112.861 184C113.868 183.999 114.859 183.766 115.759 183.321L116.924 182.742L118.09 183.321C118.99 183.766 119.981 183.999 120.987 184C123.443 184.008 125.691 182.629 126.782 180.443L127.283 179.445C128.964 176.094 129.842 172.403 129.848 168.66C129.843 164.532 126.475 161.187 122.319 161.183C120.918 161.187 119.546 161.582 118.36 162.323V161.183C118.36 158.032 115.788 155.478 112.616 155.478V158.33C114.202 158.33 115.488 159.607 115.488 161.183V162.323C114.302 161.582 112.93 161.187 111.529 161.183C107.373 161.187 104.005 164.532 104 168.66C104.005 172.404 104.883 176.097 106.565 179.448L107.066 180.443ZM111.529 164.035C112.765 164.031 113.95 164.519 114.822 165.39L115.909 166.469C116.47 167.025 117.378 167.025 117.939 166.469L119.026 165.39C120.358 164.067 122.361 163.671 124.101 164.387C125.841 165.103 126.976 166.789 126.976 168.66C126.972 171.962 126.198 175.218 124.714 178.173L124.213 179.172C123.604 180.387 122.353 181.153 120.987 181.148C120.427 181.147 119.875 181.018 119.374 180.77L117.566 179.871C117.162 179.671 116.686 179.671 116.282 179.871L114.475 180.77C113.974 181.018 113.422 181.147 112.861 181.148C111.494 181.152 110.243 180.384 109.635 179.167L109.134 178.169C107.65 175.215 106.876 171.96 106.872 168.66C106.875 166.107 108.959 164.038 111.529 164.035V164.035Z" fill="#3497DB"/>
<defs>
<filter id="filter0_d" x="0" y="0" width="308" height="230" filterUnits="userSpaceOnUse" color-interpolation-filters="sRGB">
<feFlood flood-opacity="0" result="BackgroundImageFix"/>
<feColorMatrix in="SourceAlpha" type="matrix" values="0 0 0 0 0 0 0 0 0 0 0 0 0 0 0 0 0 0 127 0"/>
<feOffset dx="10" dy="10"/>
<feGaussianBlur stdDeviation="7.5"/>
<feColorMatrix type="matrix" values="0 0 0 0 0 0 0 0 0 0 0 0 0 0 0 0 0 0 0.2 0"/>
<feBlend mode="multiply" in2="BackgroundImageFix" result="effect1_dropShadow"/>
<feBlend mode="normal" in="SourceGraphic" in2="effect1_dropShadow" result="shape"/>
</filter>
<linearGradient id="paint0_linear" x1="144" y1="5" x2="144" y2="205" gradientUnits="userSpaceOnUse">
<stop stop-color="white"/>
<stop offset="1" stop-color="white" stop-opacity="0"/>
</linearGradient>
</defs>
</svg>
