<?xml version="1.0" encoding="utf-8"?>
<!-- Generator: Adobe Illustrator 23.0.0, SVG Export Plug-In . SVG Version: 6.00 Build 0)  -->
<svg version="1.1" id="Capa_1" xmlns="http://www.w3.org/2000/svg" xmlns:xlink="http://www.w3.org/1999/xlink" x="0px" y="0px"
	 viewBox="0 0 841.9 595.3" style="enable-background:new 0 0 841.9 595.3;" xml:space="preserve">
<style type="text/css">
	.st0{opacity:0.5;fill:#348BC8;}
	.st1{font-family:'CenturyGothic-Bold';}
	.st2{font-size:12px;}
	.st3{fill:url(#SVGID_1_);}
	.st4{fill:url(#SVGID_2_);}
	.st5{fill:#E9E5F6;}
	.st6{fill:#7662BD;}
	.st7{fill:#AB2C37;}
	.st8{fill:#A996EB;}
	.st9{fill:url(#SVGID_3_);}
	.st10{fill:#594A8E;}
	.st11{fill:url(#SVGID_4_);}
	.st12{fill:url(#SVGID_5_);}
	.st13{fill:#DEA861;}
	.st14{fill:#CC8241;}
	.st15{fill:url(#SVGID_6_);}
	.st16{fill:#5D3645;}
	.st17{fill:url(#SVGID_7_);}
	.st18{fill:url(#SVGID_8_);}
	.st19{fill:url(#SVGID_9_);}
	.st20{fill:url(#SVGID_10_);}
	.st21{fill:url(#SVGID_11_);}
	.st22{fill:url(#SVGID_12_);}
	.st23{fill:url(#SVGID_13_);}
	.st24{fill:url(#SVGID_14_);}
	.st25{fill:url(#SVGID_15_);}
	.st26{fill:url(#SVGID_16_);}
	.st27{fill:url(#SVGID_17_);}
	.st28{fill:#D7D1EB;}
	.st29{fill:url(#SVGID_18_);}
	.st30{fill:#FF7A85;}
	.st31{fill:url(#SVGID_19_);}
	.st32{fill:url(#SVGID_20_);}
	.st33{fill:#93B7C0;}
	.st34{fill:#ACD5DF;}
	.st35{fill:#C4F3FF;}
	.st36{fill:#FFFFFF;}
	.st37{fill:#3B88F5;}
	.st38{fill:#28ABFA;}
</style>
<g>
	<path class="st0" d="M558.6,255.3H282.7c-3.1,0-5.7-2.5-5.7-5.7v-32.9c0-3.1,2.5-5.7,5.7-5.7h275.9c3.1,0,5.7,2.5,5.7,5.7v32.9
		C564.3,252.8,561.7,255.3,558.6,255.3z"/>
	<g>
		<text transform="matrix(1 0 0 1 345.92 229.2996)"><tspan x="0" y="0" class="st1 st2">Compra</tspan><tspan x="0" y="14.4" class="st1 st2">protegida</tspan></text>
	</g>
	<text transform="matrix(1 0 0 1 496.52 229.2996)"><tspan x="0" y="0" class="st1 st2">Programa</tspan><tspan x="0" y="14.4" class="st1 st2">tu entrega</tspan></text>
	<g>
		<g>
			
				<linearGradient id="SVGID_1_" gradientUnits="userSpaceOnUse" x1="-82.8594" y1="357.9598" x2="-80.8254" y2="361.4829" gradientTransform="matrix(-1 0 0 -1 377.017 595.2756)">
				<stop  offset="0" style="stop-color:#43386B"/>
				<stop  offset="1" style="stop-color:#7662BD"/>
			</linearGradient>
			<path class="st3" d="M453.9,232.8l2.9-1.7l0,0c0.9-0.5,2-0.4,3.2,0.3c2.7,1.6,4.9,5.8,4.9,9.4c0,2-0.7,3.4-1.7,4l0,0l-2.7,1.6
				L453.9,232.8z"/>
			
				<linearGradient id="SVGID_2_" gradientUnits="userSpaceOnUse" x1="457.2078" y1="346.4228" x2="457.2078" y2="364.2523" gradientTransform="matrix(1 0 0 -1 0 595.2756)">
				<stop  offset="0" style="stop-color:#43386B"/>
				<stop  offset="1" style="stop-color:#7662BD"/>
			</linearGradient>
			<path class="st4" d="M452.3,236.8c0-3.6,2.2-5.3,4.9-3.7c2.7,1.6,4.9,5.8,4.9,9.4c0,3.6-2.2,5.3-4.9,3.7
				C454.5,244.7,452.3,240.4,452.3,236.8z"/>
			<ellipse transform="matrix(0.92 -0.392 0.392 0.92 -57.3413 198.4024)" class="st5" cx="457.2" cy="239.6" rx="2.7" ry="4.7"/>
			<path class="st6" d="M455.6,238.7c0-1.2,0.7-1.7,1.6-1.2c0.9,0.5,1.6,1.8,1.6,3c0,1.2-0.7,1.7-1.6,1.2
				C456.3,241.2,455.6,239.9,455.6,238.7z"/>
		</g>
		<path class="st7" d="M470.7,250.6l-8.5-4.9c-1.1-0.6-1.1-2.3,0-2.9l9.8-5.7c1.3-0.7,2.9-0.7,4.1,0l8.9,5.2L470.7,250.6z"/>
		<path class="st8" d="M473.1,237v-2.8c1.5-0.9,2.4-2.5,2.4-4.2c0-0.5-0.3-0.9-0.7-1.2l-11.7-6.8c-0.8-0.5-1.7-0.5-2.6-0.1
			c-0.4,0.2-0.7,0.4-1,0.6l-4.9,2.8l12.5,15.1l7.1,8l6-3.4v-3.9L473.1,237z"/>
		<path class="st6" d="M473.1,234.1l-6,3.4v2.8l6-3.4V234.1z"/>
		
			<linearGradient id="SVGID_3_" gradientUnits="userSpaceOnUse" x1="450.1539" y1="358.5453" x2="474.2576" y2="358.5453" gradientTransform="matrix(1 0 0 -1 0 595.2756)">
			<stop  offset="0" style="stop-color:#C5BAEB"/>
			<stop  offset="1" style="stop-color:#D7D1EB"/>
		</linearGradient>
		<path class="st9" d="M474.3,248.4l-24.1-14v-2c0-3,1.7-5.8,4.5-7.1c0.8-0.4,1.8-0.4,2.6,0.1l11.7,6.8c0.4,0.2,0.7,0.7,0.7,1.2
			c0,1.7-0.9,3.4-2.4,4.2v2.8l7.1,4.1V248.4z"/>
		<g>
			<g>
				<path class="st10" d="M458.3,227.3c-0.4,0-0.8-0.1-1.1-0.3l-6.7-3.9c-0.4-0.3-0.7-0.7-0.7-1.2c0-0.5,0.3-1,0.7-1.2l8-4.6
					c0.7-0.4,1.5-0.4,2.2,0l6.7,3.9c0.4,0.3,0.7,0.7,0.7,1.2c0,0.5-0.3,1-0.7,1.2l-8,4.6C459.1,227.2,458.7,227.3,458.3,227.3
					L458.3,227.3z M459.6,217.2c-0.2,0-0.3,0-0.4,0.1l-8,4.6c0,0,0,0,0,0c0,0,0,0,0,0l6.7,3.9c0.3,0.2,0.6,0.2,0.9,0l8-4.6
					c0,0,0,0,0,0c0,0,0,0,0,0l-6.7-3.9C459.9,217.2,459.7,217.2,459.6,217.2L459.6,217.2z"/>
			</g>
			
				<linearGradient id="SVGID_4_" gradientUnits="userSpaceOnUse" x1="456.9778" y1="377.2852" x2="459.3036" y2="377.2852" gradientTransform="matrix(1 0 0 -1 0 595.2756)">
				<stop  offset="0" style="stop-color:#CC8241"/>
				<stop  offset="1" style="stop-color:#DEA861"/>
			</linearGradient>
			<path class="st11" d="M467.4,220.6V210l-16.9,0.7v10.5c0,0.2,0.1,0.5,0.4,0.6l6.7,3.9c0.5,0.3,1.1,0.3,1.5,0l8-4.6
				C467.3,221,467.4,220.8,467.4,220.6L467.4,220.6z"/>
			
				<linearGradient id="SVGID_5_" gradientUnits="userSpaceOnUse" x1="454.2459" y1="387.6322" x2="462.9567" y2="382.603" gradientTransform="matrix(1 0 0 -1 0 595.2756)">
				<stop  offset="0" style="stop-color:#DEA861"/>
				<stop  offset="1" style="stop-color:#EBCBA0"/>
			</linearGradient>
			<path class="st12" d="M450.9,210.1l8-4.6c0.5-0.3,1.1-0.3,1.5,0l6.7,3.9c0.5,0.3,0.5,1,0,1.2l-8,4.6c-0.5,0.3-1.1,0.3-1.5,0
				l-6.7-3.9C450.4,211.1,450.4,210.4,450.9,210.1z"/>
			<path class="st13" d="M453.4,208.6l8.6,4.9l2.3-1.3l-8.6-4.9L453.4,208.6z"/>
			<g>
				<path class="st14" d="M454.8,207.8l8.6,4.9l-0.4,0.3l-8.6-4.9L454.8,207.8z"/>
				<path class="st14" d="M462,213.6v1.9l2.3-1.3v-1.9L462,213.6z"/>
			</g>
		</g>
		<g>
			
				<linearGradient id="SVGID_6_" gradientUnits="userSpaceOnUse" x1="469.7577" y1="365.0739" x2="468.4211" y2="367.3889" gradientTransform="matrix(1 0 0 -1 0 595.2756)">
				<stop  offset="0" style="stop-color:#5D3645"/>
				<stop  offset="1" style="stop-color:#966D7D"/>
			</linearGradient>
			<path class="st15" d="M475,228.8c0-1.3-0.7-2.5-1.8-3.1l-6.2-3.6c-0.4-0.2-0.8-0.1-1,0.1l0,0l-4.3,2.6c-0.1,0-0.2,0.1-0.3,0.2
				l0,0l0,0c-0.2,0.2-0.3,0.4-0.3,0.7c0,1.3,0.7,2.5,1.8,3.1l6.2,3.6c0.1,0.1,0.8,0,0.9,0c1.6-0.8,4.5-2.7,4.5-2.7
				c0,0,0.1,0,0.1-0.1l0,0l0,0C474.9,229.4,475,229.2,475,228.8L475,228.8z"/>
			<path class="st16" d="M469.1,232.3l-6.2-3.6c-1.1-0.6-1.8-1.8-1.8-3.1c0-0.7,0.7-1.1,1.3-0.8l6.2,3.6c1.1,0.6,1.8,1.8,1.8,3.1
				C470.4,232.3,469.7,232.7,469.1,232.3L469.1,232.3z"/>
		</g>
		
			<linearGradient id="SVGID_7_" gradientUnits="userSpaceOnUse" x1="481.4387" y1="351.9059" x2="478.9432" y2="356.2282" gradientTransform="matrix(1 0 0 -1 0 595.2756)">
			<stop  offset="0" style="stop-color:#AB2C37"/>
			<stop  offset="1" style="stop-color:#FF4757"/>
		</linearGradient>
		<path class="st17" d="M481.3,224.2l-4.3,2.5c-3.1,1.8-5,5.1-5,8.6v12.8c0,1.1-0.5,1.9-1.3,2.5l14.4-8.4c0.8-0.5,1.3-1.4,1.3-2.5
			v-12.7C486.5,224.5,483.6,222.9,481.3,224.2L481.3,224.2z"/>
		<g>
			
				<linearGradient id="SVGID_8_" gradientUnits="userSpaceOnUse" x1="-107.3147" y1="343.716" x2="-105.2807" y2="347.2391" gradientTransform="matrix(-1 0 0 -1 377.017 595.2756)">
				<stop  offset="0" style="stop-color:#43386B"/>
				<stop  offset="1" style="stop-color:#7662BD"/>
			</linearGradient>
			<path class="st18" d="M478.4,247.1l2.9-1.7l0,0c0.9-0.5,2-0.4,3.2,0.3c2.7,1.6,4.9,5.8,4.9,9.4c0,2-0.7,3.4-1.7,4l0,0l-2.7,1.6
				L478.4,247.1z"/>
			
				<linearGradient id="SVGID_9_" gradientUnits="userSpaceOnUse" x1="481.6631" y1="332.179" x2="481.6631" y2="350.0085" gradientTransform="matrix(1 0 0 -1 0 595.2756)">
				<stop  offset="0" style="stop-color:#43386B"/>
				<stop  offset="1" style="stop-color:#7662BD"/>
			</linearGradient>
			<path class="st19" d="M476.7,251c0-3.6,2.2-5.3,4.9-3.7c2.7,1.6,4.9,5.8,4.9,9.4c0,3.6-2.2,5.3-4.9,3.7
				C478.9,258.9,476.7,254.7,476.7,251z"/>
			<ellipse transform="matrix(0.92 -0.392 0.392 0.92 -60.9621 209.1284)" class="st5" cx="481.7" cy="253.9" rx="2.7" ry="4.7"/>
			<path class="st6" d="M480.1,253c0-1.2,0.7-1.7,1.6-1.2c0.9,0.5,1.6,1.8,1.6,3s-0.7,1.7-1.6,1.2
				C480.8,255.5,480.1,254.1,480.1,253z"/>
		</g>
		
			<linearGradient id="SVGID_10_" gradientUnits="userSpaceOnUse" x1="485.5324" y1="342.0761" x2="483.0318" y2="346.4071" gradientTransform="matrix(1 0 0 -1 0 595.2756)">
			<stop  offset="0" style="stop-color:#C5BAEB"/>
			<stop  offset="1" style="stop-color:#D7D1EB"/>
		</linearGradient>
		<path class="st20" d="M484.7,244.2c-1.4-0.8-2.8-0.9-3.8-0.4l0,0l-3.5,2l0.7,1.4c-0.1,0.6-0.2,1.2-0.2,2c0,0.3,0,0.6,0,0.9
			l9.3,5.7l3.3-1.9C490,250,487.6,245.9,484.7,244.2z"/>
		<path class="st8" d="M480.4,251.9l6.8,3.9c-0.5-3.9-2.9-8-5.8-9.7c-3.3-1.9-5.9,0.1-5.9,4.5c0,0.4,0,0.9,0.1,1.3H480.4z"/>
		
			<linearGradient id="SVGID_11_" gradientUnits="userSpaceOnUse" x1="458.5533" y1="356.6407" x2="457.3888" y2="360.7613" gradientTransform="matrix(1 0 0 -1 0 595.2756)">
			<stop  offset="0" style="stop-color:#AB2C37"/>
			<stop  offset="1" style="stop-color:#FF4757"/>
		</linearGradient>
		<path class="st21" d="M462.7,232.4l-2.5-1.4c-1.5-0.9-3.2-1.1-4.9-0.7c-0.7,0.2-1.4,0.5-2.1,0.9l-2.7,1.5l0.5,0.6l-1,1.2l4.1,2.4
			l5.2,5.9l2.6-1.4l2-2.6c0.6-0.7,0.9-1.7,0.9-2.6v0C464.9,234.6,464.1,233.1,462.7,232.4L462.7,232.4z"/>
		
			<linearGradient id="SVGID_12_" gradientUnits="userSpaceOnUse" x1="448.217" y1="358.1441" x2="462.3315" y2="358.1441" gradientTransform="matrix(1 0 0 -1 0 595.2756)">
			<stop  offset="0" style="stop-color:#AB2C37"/>
			<stop  offset="1" style="stop-color:#FF4757"/>
		</linearGradient>
		<path class="st22" d="M459.5,242.8l2-2.6c0.6-0.7,0.9-1.7,0.9-2.6c0-1.5-0.8-3-2.1-3.7l-2.5-1.4c-1.5-0.9-3.2-1.1-4.9-0.7
			c-1.5,0.3-2.8,1.2-3.7,2.3l-0.6,0.8c-0.5,0.6-0.3,1.4,0.3,1.8L459.5,242.8z"/>
		<path class="st8" d="M479.1,243.7v-18.2l1.3,0.8v18.2L479.1,243.7z"/>
		
			<linearGradient id="SVGID_13_" gradientUnits="userSpaceOnUse" x1="481.0233" y1="351.0165" x2="481.0233" y2="376.3195" gradientTransform="matrix(1 0 0 -1 0 595.2756)">
			<stop  offset="0" style="stop-color:#C5BAEB"/>
			<stop  offset="1" style="stop-color:#D7D1EB"/>
		</linearGradient>
		<path class="st23" d="M480.4,226.3l1.3-0.8v18.2l-1.3,0.8V226.3z"/>
		<g>
			<g>
				
					<linearGradient id="SVGID_14_" gradientUnits="userSpaceOnUse" x1="-134.2425" y1="375.1596" x2="-133.8818" y2="375.7843" gradientTransform="matrix(-1 0 0 -1 351.877 595.2756)">
					<stop  offset="0" style="stop-color:#43386B"/>
					<stop  offset="1" style="stop-color:#7662BD"/>
				</linearGradient>
				<path class="st24" d="M483.8,220.1l3.1-1.8v0c0.2-0.1,0.3-0.1,0.6,0.1c0.5,0.3,0.9,1,0.9,1.7c0,0.4-0.1,0.6-0.3,0.7l0,0
					l-3.1,1.8L483.8,220.1z"/>
				
					<linearGradient id="SVGID_15_" gradientUnits="userSpaceOnUse" x1="484.3477" y1="372.3642" x2="484.3477" y2="375.5184" gradientTransform="matrix(1 0 0 -1 0 595.2756)">
					<stop  offset="0" style="stop-color:#43386B"/>
					<stop  offset="1" style="stop-color:#7662BD"/>
				</linearGradient>
				<path class="st25" d="M483.5,220.8c0-0.6,0.4-0.9,0.9-0.7c0.5,0.3,0.9,1,0.9,1.7c0,0.6-0.4,0.9-0.9,0.7
					C483.9,222.2,483.5,221.4,483.5,220.8z"/>
			</g>
			<g>
				
					<linearGradient id="SVGID_16_" gradientUnits="userSpaceOnUse" x1="-132.7814" y1="374.2746" x2="-132.2575" y2="375.182" gradientTransform="matrix(-1 0 0 -1 351.877 595.2756)">
					<stop  offset="0" style="stop-color:#AB2C37"/>
					<stop  offset="1" style="stop-color:#FF4757"/>
				</linearGradient>
				<path class="st26" d="M482.8,220l1.3-0.8v0c0.2-0.1,0.5-0.1,0.8,0.1c0.7,0.4,1.3,1.5,1.3,2.4c0,0.5-0.2,0.9-0.4,1l0,0l-1.3,0.8
					L482.8,220z"/>
			</g>
			<g>
				
					<linearGradient id="SVGID_17_" gradientUnits="userSpaceOnUse" x1="479.8122" y1="372.6859" x2="480.9637" y2="374.6803" gradientTransform="matrix(1 0 0 -1 0 595.2756)">
					<stop  offset="0" style="stop-color:#AB2C37"/>
					<stop  offset="1" style="stop-color:#FF4757"/>
				</linearGradient>
				<path class="st27" d="M484.3,220.7l-2.9-1.7l0,0c-0.5-0.3-1.1-0.2-1.8,0.2c-1.5,0.9-4,2.2-4,4.3c0,1.1,0.4,1.9,1,2.3l1.2,1.1
					l2.8,1.7L484.3,220.7z"/>
				<ellipse transform="matrix(0.392 -0.92 0.92 0.392 86.7467 580.4066)" class="st28" cx="482.5" cy="224.6" rx="4.3" ry="2.4"/>
				<ellipse transform="matrix(0.392 -0.92 0.92 0.392 86.7467 580.4068)" class="st5" cx="482.5" cy="224.6" rx="3.2" ry="1.8"/>
			</g>
			<g>
				
					<linearGradient id="SVGID_18_" gradientUnits="userSpaceOnUse" x1="-125.5226" y1="370.142" x2="-124.9987" y2="371.0495" gradientTransform="matrix(-1 0 0 -1 351.877 595.2756)">
					<stop  offset="0" style="stop-color:#AB2C37"/>
					<stop  offset="1" style="stop-color:#FF4757"/>
				</linearGradient>
				<path class="st29" d="M475.6,224.1l1.3-0.8v0c0.2-0.1,0.5-0.1,0.8,0.1c0.7,0.4,1.3,1.5,1.3,2.4c0,0.5-0.2,0.9-0.4,1l0,0
					l-1.3,0.8L475.6,224.1z"/>
				<ellipse transform="matrix(0.92 -0.392 0.392 0.92 -50.4175 204.8267)" class="st30" cx="476.4" cy="225.9" rx="1.1" ry="2"/>
			</g>
			<g>
				
					<linearGradient id="SVGID_19_" gradientUnits="userSpaceOnUse" x1="-123.1699" y1="368.686" x2="-122.8093" y2="369.3107" gradientTransform="matrix(-1 0 0 -1 351.877 595.2756)">
					<stop  offset="0" style="stop-color:#43386B"/>
					<stop  offset="1" style="stop-color:#7662BD"/>
				</linearGradient>
				<path class="st31" d="M472.7,226.6l3.1-1.8v0c0.2-0.1,0.3-0.1,0.6,0.1c0.5,0.3,0.9,1,0.9,1.7c0,0.4-0.1,0.6-0.3,0.7l0,0
					l-3.1,1.8L472.7,226.6z"/>
				
					<linearGradient id="SVGID_20_" gradientUnits="userSpaceOnUse" x1="473.275" y1="365.8906" x2="473.275" y2="369.0447" gradientTransform="matrix(1 0 0 -1 0 595.2756)">
					<stop  offset="0" style="stop-color:#43386B"/>
					<stop  offset="1" style="stop-color:#7662BD"/>
				</linearGradient>
				<path class="st32" d="M472.4,227.3c0-0.6,0.4-0.9,0.9-0.7c0.5,0.3,0.9,1,0.9,1.7s-0.4,0.9-0.9,0.7
					C472.8,228.6,472.4,227.9,472.4,227.3z"/>
			</g>
		</g>
	</g>
	<g>
		<path class="st33" d="M314.5,205.3l-15.3,27.9l15.3,27.9l0.5-0.2c7-2.5,13-7,17.3-13c4.4-6.2,6.8-13.5,6.8-21.1v-14.5L314.5,205.3
			z"/>
		<path class="st34" d="M289.9,212.3v14.5c0,7.6,2.3,14.9,6.8,21.1c4.3,6,10.3,10.5,17.3,13l0.5,0.2v-55.8L289.9,212.3z"/>
		<path class="st35" d="M332.5,229.1c0.1-0.8,0.1-1.5,0.1-2.3v-9.6l-18.1-5.1l-12,17H332.5z"/>
		<path class="st36" d="M314.5,212.1l-18.1,5.1v9.6c0,0.8,0,1.5,0.1,2.3h18V212.1z"/>
		<path class="st37" d="M314.5,224L303.6,239l10.9,15.1l0.7-0.3c4.7-2.1,8.8-5.5,11.9-9.7c3.2-4.4,5.1-9.6,5.5-15L314.5,224z"/>
		<path class="st38" d="M296.5,229.1c0.4,5.4,2.3,10.5,5.5,15c3,4.2,7.2,7.6,11.9,9.7l0.7,0.3V224L296.5,229.1z"/>
	</g>
</g>
</svg>
