<svg width="308" height="230" viewBox="0 0 308 230" fill="none" xmlns="http://www.w3.org/2000/svg">
<g filter="url(#filter0_d)">
<rect x="5" y="5" width="278" height="200" rx="15" fill="#F5F8FA"/>
<rect x="5" y="5" width="278" height="200" rx="15" fill="url(#paint0_linear)"/>
</g>
<path d="M95.0731 33.7617H98.3544V47.8711H103.136V51H95.0731V33.7617ZM105.672 33.3281H108.871V51H105.672V33.3281ZM125.271 45.5508H114.994C115.142 46.457 115.537 47.1797 116.177 47.7188C116.826 48.25 117.65 48.5156 118.65 48.5156C119.845 48.5156 120.872 48.0977 121.732 47.2617L124.427 48.5273C123.755 49.4805 122.951 50.1875 122.013 50.6484C121.076 51.1016 119.962 51.3281 118.673 51.3281C116.673 51.3281 115.044 50.6992 113.787 49.4414C112.529 48.1758 111.9 46.5938 111.9 44.6953C111.9 42.75 112.525 41.1367 113.775 39.8555C115.033 38.5664 116.607 37.9219 118.497 37.9219C120.505 37.9219 122.138 38.5664 123.396 39.8555C124.654 41.1367 125.283 42.832 125.283 44.9414L125.271 45.5508ZM122.06 43.0312C121.849 42.3203 121.431 41.7422 120.806 41.2969C120.189 40.8516 119.47 40.6289 118.65 40.6289C117.759 40.6289 116.978 40.8789 116.306 41.3789C115.884 41.6914 115.494 42.2422 115.134 43.0312H122.06ZM127.221 38.25H130.479L133.702 45.7734L136.913 38.25H140.159L134.733 51H132.659L127.221 38.25ZM152.188 38.25H155.375V51H152.188V49.6523C151.562 50.2461 150.934 50.6758 150.301 50.9414C149.676 51.1992 148.996 51.3281 148.262 51.3281C146.613 51.3281 145.188 50.6914 143.984 49.418C142.781 48.1367 142.18 46.5469 142.18 44.6484C142.18 42.6797 142.762 41.0664 143.926 39.8086C145.09 38.5508 146.504 37.9219 148.168 37.9219C148.934 37.9219 149.652 38.0664 150.324 38.3555C150.996 38.6445 151.617 39.0781 152.188 39.6562V38.25ZM148.824 40.875C147.832 40.875 147.008 41.2266 146.352 41.9297C145.695 42.625 145.367 43.5195 145.367 44.6133C145.367 45.7148 145.699 46.6211 146.363 47.332C147.035 48.043 147.859 48.3984 148.836 48.3984C149.844 48.3984 150.68 48.0508 151.344 47.3555C152.008 46.6523 152.34 45.7344 152.34 44.6016C152.34 43.4922 152.008 42.5938 151.344 41.9062C150.68 41.2188 149.84 40.875 148.824 40.875ZM158.579 38.25H161.322V39.8555C161.618 39.2227 162.013 38.7422 162.505 38.4141C162.997 38.0859 163.536 37.9219 164.122 37.9219C164.536 37.9219 164.97 38.0312 165.423 38.25L164.427 41.0039C164.052 40.8164 163.743 40.7227 163.501 40.7227C163.009 40.7227 162.591 41.0273 162.247 41.6367C161.911 42.2461 161.743 43.4414 161.743 45.2227L161.755 45.8438V51H158.579V38.25ZM175.57 33.5508H178.758V38.25H180.656V41.0039H178.758V51H175.57V41.0039H173.93V38.25H175.57V33.5508ZM183.087 38.25H186.321V44.3906C186.321 45.5859 186.403 46.418 186.568 46.8867C186.732 47.3477 186.993 47.707 187.353 47.9648C187.72 48.2227 188.169 48.3516 188.7 48.3516C189.232 48.3516 189.681 48.2266 190.048 47.9766C190.423 47.7188 190.7 47.3438 190.88 46.8516C191.013 46.4844 191.079 45.6992 191.079 44.4961V38.25H194.29V43.6523C194.29 45.8789 194.114 47.4023 193.763 48.2227C193.333 49.2227 192.7 49.9922 191.864 50.5312C191.028 51.0625 189.966 51.3281 188.677 51.3281C187.278 51.3281 186.146 51.0156 185.278 50.3906C184.419 49.7656 183.814 48.8945 183.462 47.7773C183.212 47.0039 183.087 45.5977 183.087 43.5586V38.25ZM108.895 67.8281L106.235 69.293C105.735 68.7695 105.238 68.4062 104.746 68.2031C104.262 68 103.692 67.8984 103.035 67.8984C101.84 67.8984 100.871 68.2578 100.129 68.9766C99.3947 69.6875 99.0275 70.6016 99.0275 71.7188C99.0275 72.8047 99.383 73.6914 100.094 74.3789C100.805 75.0664 101.738 75.4102 102.895 75.4102C104.324 75.4102 105.438 74.9219 106.235 73.9453L108.754 75.668C107.387 77.4414 105.457 78.3281 102.965 78.3281C100.723 78.3281 98.965 77.6641 97.6916 76.3359C96.4259 75.0078 95.7931 73.4531 95.7931 71.6719C95.7931 70.4375 96.1017 69.3008 96.7189 68.2617C97.3361 67.2227 98.1955 66.4062 99.297 65.8125C100.406 65.2188 101.645 64.9219 103.012 64.9219C104.278 64.9219 105.414 65.1758 106.422 65.6836C107.43 66.1836 108.254 66.8984 108.895 67.8281ZM121.931 65.25H125.119V78H121.931V76.6523C121.306 77.2461 120.677 77.6758 120.044 77.9414C119.419 78.1992 118.74 78.3281 118.005 78.3281C116.357 78.3281 114.931 77.6914 113.728 76.418C112.525 75.1367 111.923 73.5469 111.923 71.6484C111.923 69.6797 112.505 68.0664 113.669 66.8086C114.833 65.5508 116.247 64.9219 117.912 64.9219C118.677 64.9219 119.396 65.0664 120.068 65.3555C120.74 65.6445 121.361 66.0781 121.931 66.6562V65.25ZM118.568 67.875C117.576 67.875 116.751 68.2266 116.095 68.9297C115.439 69.625 115.111 70.5195 115.111 71.6133C115.111 72.7148 115.443 73.6211 116.107 74.332C116.779 75.043 117.603 75.3984 118.58 75.3984C119.587 75.3984 120.423 75.0508 121.087 74.3555C121.751 73.6523 122.083 72.7344 122.083 71.6016C122.083 70.4922 121.751 69.5938 121.087 68.9062C120.423 68.2188 119.583 67.875 118.568 67.875ZM129.073 65.25H132.26V66.5508C132.987 65.9414 133.643 65.5195 134.229 65.2852C134.823 65.043 135.428 64.9219 136.046 64.9219C137.311 64.9219 138.385 65.3633 139.268 66.2461C140.01 66.9961 140.382 68.1055 140.382 69.5742V78H137.217V72.4102C137.217 70.8867 137.147 69.875 137.007 69.375C136.874 68.875 136.635 68.4961 136.292 68.2383C135.956 67.9727 135.538 67.8398 135.038 67.8398C134.389 67.8398 133.831 68.0586 133.362 68.4961C132.901 68.9258 132.581 69.5234 132.401 70.2891C132.307 70.6875 132.26 71.5508 132.26 72.8789V78H129.073V65.25ZM153.629 65.25H156.816V78H153.629V76.6523C153.004 77.2461 152.375 77.6758 151.742 77.9414C151.117 78.1992 150.438 78.3281 149.703 78.3281C148.055 78.3281 146.629 77.6914 145.426 76.418C144.223 75.1367 143.621 73.5469 143.621 71.6484C143.621 69.6797 144.203 68.0664 145.367 66.8086C146.531 65.5508 147.945 64.9219 149.609 64.9219C150.375 64.9219 151.094 65.0664 151.766 65.3555C152.438 65.6445 153.059 66.0781 153.629 66.6562V65.25ZM150.266 67.875C149.273 67.875 148.449 68.2266 147.793 68.9297C147.137 69.625 146.809 70.5195 146.809 71.6133C146.809 72.7148 147.141 73.6211 147.805 74.332C148.477 75.043 149.301 75.3984 150.277 75.3984C151.285 75.3984 152.121 75.0508 152.785 74.3555C153.449 73.6523 153.781 72.7344 153.781 71.6016C153.781 70.4922 153.449 69.5938 152.785 68.9062C152.121 68.2188 151.281 67.875 150.266 67.875ZM168.575 67.0312L166.595 69.0117C165.79 68.2148 165.06 67.8164 164.404 67.8164C164.044 67.8164 163.763 67.8945 163.56 68.0508C163.357 68.1992 163.255 68.3867 163.255 68.6133C163.255 68.7852 163.318 68.9453 163.443 69.0938C163.575 69.2344 163.896 69.4297 164.404 69.6797L165.575 70.2656C166.81 70.875 167.658 71.4961 168.118 72.1289C168.579 72.7617 168.81 73.5039 168.81 74.3555C168.81 75.4883 168.392 76.4336 167.556 77.1914C166.728 77.9492 165.615 78.3281 164.216 78.3281C162.357 78.3281 160.872 77.6016 159.763 76.1484L161.732 74.0039C162.107 74.4414 162.544 74.7969 163.044 75.0703C163.552 75.3359 164.001 75.4688 164.392 75.4688C164.814 75.4688 165.154 75.3672 165.411 75.1641C165.669 74.9609 165.798 74.7266 165.798 74.4609C165.798 73.9688 165.333 73.4883 164.404 73.0195L163.325 72.4805C161.263 71.4414 160.232 70.1406 160.232 68.5781C160.232 67.5703 160.618 66.7109 161.392 66C162.173 65.2812 163.169 64.9219 164.38 64.9219C165.208 64.9219 165.986 65.1055 166.712 65.4727C167.447 65.832 168.068 66.3516 168.575 67.0312ZM172.448 60.5508H175.635V65.25H177.534V68.0039H175.635V78H172.448V68.0039H170.807V65.25H172.448V60.5508ZM189.398 65.25H192.586V78H189.398V76.6523C188.773 77.2461 188.144 77.6758 187.512 77.9414C186.887 78.1992 186.207 78.3281 185.473 78.3281C183.824 78.3281 182.398 77.6914 181.195 76.418C179.992 75.1367 179.39 73.5469 179.39 71.6484C179.39 69.6797 179.973 68.0664 181.137 66.8086C182.301 65.5508 183.715 64.9219 185.379 64.9219C186.144 64.9219 186.863 65.0664 187.535 65.3555C188.207 65.6445 188.828 66.0781 189.398 66.6562V65.25ZM186.035 67.875C185.043 67.875 184.219 68.2266 183.562 68.9297C182.906 69.625 182.578 70.5195 182.578 71.6133C182.578 72.7148 182.91 73.6211 183.574 74.332C184.246 75.043 185.07 75.3984 186.047 75.3984C187.055 75.3984 187.89 75.0508 188.555 74.3555C189.219 73.6523 189.551 72.7344 189.551 71.6016C189.551 70.4922 189.219 69.5938 188.555 68.9062C187.89 68.2188 187.051 67.875 186.035 67.875Z" fill="#444242"/>
<path d="M142.967 163.842H157.06" stroke="#3497DB" stroke-width="3" stroke-miterlimit="10"/>
<path d="M114.34 163.842H126.231" stroke="#3497DB" stroke-width="3" stroke-miterlimit="10" stroke-linecap="round" stroke-linejoin="round"/>
<path d="M173.65 163.842H175.852C180.696 163.842 184.66 159.879 184.66 155.034V138.738H151.775V109.964H123.148" stroke="#3497DB" stroke-width="3" stroke-miterlimit="10" stroke-linecap="round" stroke-linejoin="round"/>
<path d="M150.307 114.075H167.19L184.66 138.885" stroke="#3497DB" stroke-width="3" stroke-miterlimit="10" stroke-linejoin="round"/>
<path d="M142.967 162.668C142.967 167.219 139.297 171.036 134.599 171.036C129.901 171.036 126.231 167.366 126.231 162.668C126.231 158.117 129.901 154.3 134.599 154.3C139.297 154.3 142.967 158.117 142.967 162.668Z" stroke="#3497DB" stroke-width="3" stroke-miterlimit="10" stroke-linejoin="round"/>
<path d="M173.65 162.668C173.65 167.219 169.979 171.036 165.282 171.036C160.731 171.036 156.914 167.366 156.914 162.668C156.914 158.117 160.584 154.3 165.282 154.3C169.979 154.3 173.65 158.117 173.65 162.668Z" stroke="#3497DB" stroke-width="3" stroke-miterlimit="10" stroke-linejoin="round"/>
<path d="M122.12 121.268H140.471" stroke="#3497DB" stroke-width="3" stroke-miterlimit="10" stroke-linecap="round" stroke-linejoin="round"/>
<path d="M117.569 132.866H135.92" stroke="#3497DB" stroke-width="3" stroke-miterlimit="10" stroke-linecap="round" stroke-linejoin="round"/>
<path d="M114.927 144.464H133.278" stroke="#3497DB" stroke-width="3" stroke-miterlimit="10" stroke-linecap="round" stroke-linejoin="round"/>
<defs>
<filter id="filter0_d" x="0" y="0" width="308" height="230" filterUnits="userSpaceOnUse" color-interpolation-filters="sRGB">
<feFlood flood-opacity="0" result="BackgroundImageFix"/>
<feColorMatrix in="SourceAlpha" type="matrix" values="0 0 0 0 0 0 0 0 0 0 0 0 0 0 0 0 0 0 127 0"/>
<feOffset dx="10" dy="10"/>
<feGaussianBlur stdDeviation="7.5"/>
<feColorMatrix type="matrix" values="0 0 0 0 0 0 0 0 0 0 0 0 0 0 0 0 0 0 0.2 0"/>
<feBlend mode="multiply" in2="BackgroundImageFix" result="effect1_dropShadow"/>
<feBlend mode="normal" in="SourceGraphic" in2="effect1_dropShadow" result="shape"/>
</filter>
<linearGradient id="paint0_linear" x1="144" y1="5" x2="144" y2="205" gradientUnits="userSpaceOnUse">
<stop stop-color="white"/>
<stop offset="1" stop-color="white" stop-opacity="0"/>
</linearGradient>
</defs>
</svg>
