<svg width="315" height="55" viewBox="0 0 315 55" fill="none" xmlns="http://www.w3.org/2000/svg">
<g filter="url(#filter0_d)">
<rect x="8" y="4" width="298.727" height="39.4545" rx="13.1515" fill="#3497DB"/>
</g>
<path d="M50.4917 18.2261H52.667C53.8584 18.2261 54.7056 18.3335 55.2085 18.5483C55.7163 18.7583 56.124 19.1099 56.4316 19.603C56.7393 20.0962 56.8931 20.6797 56.8931 21.3535C56.8931 22.0615 56.7222 22.6548 56.3804 23.1333C56.0435 23.6069 55.5332 23.9658 54.8496 24.21L57.3984 29H55.1572L52.7329 24.437H52.5425V29H50.4917V18.2261ZM52.5425 22.4375H53.187C53.8413 22.4375 54.2905 22.3521 54.5347 22.1812C54.7837 22.0103 54.9082 21.7271 54.9082 21.3315C54.9082 21.0972 54.8472 20.8945 54.7251 20.7236C54.603 20.5479 54.4395 20.4233 54.2344 20.3501C54.0293 20.272 53.6533 20.2329 53.1064 20.2329H52.5425V22.4375ZM59.061 18.2261H64.9424V20.2329H61.0972V22.1812H64.9424V24.1514H61.0972V26.9858H64.9424V29H59.061V18.2261ZM66.854 18.2261H69.0293C70.2061 18.2261 71.0532 18.3359 71.5708 18.5557C72.0933 18.7705 72.5034 19.1221 72.8013 19.6104C73.104 20.0938 73.2554 20.6748 73.2554 21.3535C73.2554 22.1055 73.0576 22.7305 72.6621 23.2285C72.2715 23.7266 71.7393 24.0732 71.0654 24.2686C70.6699 24.3809 69.9497 24.437 68.9048 24.437V29H66.854V18.2261ZM68.9048 22.4375H69.5566C70.0693 22.4375 70.4258 22.4009 70.626 22.3276C70.8262 22.2544 70.9824 22.1348 71.0947 21.9688C71.2119 21.7979 71.2705 21.5928 71.2705 21.3535C71.2705 20.9385 71.1094 20.6357 70.7871 20.4453C70.5527 20.3037 70.1182 20.2329 69.4834 20.2329H68.9048V22.4375ZM78.5508 18.2261H80.6309L84.7764 29H82.645L81.8027 26.7808H77.4082L76.5293 29H74.3979L78.5508 18.2261ZM79.6055 21.0825L78.1699 24.7812H81.0337L79.6055 21.0825ZM86.5122 18.2261H88.6875C89.8789 18.2261 90.7261 18.3335 91.229 18.5483C91.7368 18.7583 92.1445 19.1099 92.4521 19.603C92.7598 20.0962 92.9136 20.6797 92.9136 21.3535C92.9136 22.0615 92.7427 22.6548 92.4009 23.1333C92.064 23.6069 91.5537 23.9658 90.8701 24.21L93.4189 29H91.1777L88.7534 24.437H88.563V29H86.5122V18.2261ZM88.563 22.4375H89.2075C89.8618 22.4375 90.311 22.3521 90.5552 22.1812C90.8042 22.0103 90.9287 21.7271 90.9287 21.3315C90.9287 21.0972 90.8677 20.8945 90.7456 20.7236C90.6235 20.5479 90.46 20.4233 90.2549 20.3501C90.0498 20.272 89.6738 20.2329 89.127 20.2329H88.563V22.4375ZM94.0122 18.2261H99.9668V20.2476H98.0039V29H95.9238V20.2476H94.0122V18.2261ZM101.227 18.2261H103.263V29H101.227V18.2261ZM105.584 18.2261H108.016C109.583 18.2261 110.748 18.4214 111.51 18.812C112.271 19.1978 112.899 19.8276 113.392 20.7017C113.885 21.5757 114.132 22.5962 114.132 23.7632C114.132 24.5933 113.993 25.3574 113.714 26.0557C113.441 26.749 113.06 27.3252 112.572 27.7842C112.088 28.2432 111.563 28.5605 110.997 28.7363C110.431 28.9121 109.449 29 108.053 29H105.584V18.2261ZM107.628 20.2036V26.9932H108.58C109.518 26.9932 110.196 26.8857 110.616 26.6709C111.041 26.4561 111.388 26.0947 111.656 25.5869C111.925 25.0791 112.059 24.4541 112.059 23.7119C112.059 22.5693 111.739 21.6831 111.1 21.0532C110.523 20.4868 109.598 20.2036 108.324 20.2036H107.628ZM121.17 17.9551C122.694 17.9551 124.002 18.5068 125.096 19.6104C126.195 20.7139 126.744 22.0591 126.744 23.646C126.744 25.2183 126.202 26.5488 125.118 27.6377C124.039 28.7266 122.728 29.271 121.185 29.271C119.569 29.271 118.226 28.7119 117.157 27.5938C116.087 26.4756 115.553 25.1475 115.553 23.6094C115.553 22.5791 115.802 21.6318 116.3 20.7676C116.798 19.9033 117.481 19.2197 118.351 18.7168C119.225 18.209 120.165 17.9551 121.17 17.9551ZM121.148 19.9619C120.152 19.9619 119.315 20.3086 118.636 21.002C117.958 21.6953 117.618 22.5767 117.618 23.646C117.618 24.8374 118.045 25.7798 118.9 26.4731C119.564 27.0151 120.326 27.2861 121.185 27.2861C122.157 27.2861 122.984 26.9346 123.668 26.2314C124.352 25.5283 124.693 24.6616 124.693 23.6313C124.693 22.606 124.349 21.7393 123.661 21.0312C122.972 20.3184 122.135 19.9619 121.148 19.9619ZM128.817 18.2261H130.992C132.184 18.2261 133.031 18.3335 133.534 18.5483C134.042 18.7583 134.449 19.1099 134.757 19.603C135.064 20.0962 135.218 20.6797 135.218 21.3535C135.218 22.0615 135.047 22.6548 134.706 23.1333C134.369 23.6069 133.858 23.9658 133.175 24.21L135.724 29H133.482L131.058 24.437H130.868V29H128.817V18.2261ZM130.868 22.4375H131.512C132.167 22.4375 132.616 22.3521 132.86 22.1812C133.109 22.0103 133.233 21.7271 133.233 21.3315C133.233 21.0972 133.172 20.8945 133.05 20.7236C132.928 20.5479 132.765 20.4233 132.56 20.3501C132.354 20.272 131.979 20.2329 131.432 20.2329H130.868V22.4375ZM141.59 18.2261H147.472V20.2329H143.626V22.1812H147.472V24.1514H143.626V26.9858H147.472V29H141.59V18.2261ZM149.398 18.2261H151.361L155.982 25.3159V18.2261H158.033V29H156.063L151.449 21.9321V29H149.398V18.2261ZM159.674 18.2261H161.783L164.493 25.8799L167.24 18.2261H169.349L165.467 29H163.49L159.674 18.2261ZM170.851 18.2261H172.887V29H170.851V18.2261ZM178.482 18.2261H180.562L184.708 29H182.577L181.734 26.7808H177.34L176.461 29H174.33L178.482 18.2261ZM179.537 21.0825L178.102 24.7812H180.965L179.537 21.0825ZM186.312 18.2261H188.744C190.311 18.2261 191.476 18.4214 192.237 18.812C192.999 19.1978 193.626 19.8276 194.12 20.7017C194.613 21.5757 194.859 22.5962 194.859 23.7632C194.859 24.5933 194.72 25.3574 194.442 26.0557C194.168 26.749 193.788 27.3252 193.299 27.7842C192.816 28.2432 192.291 28.5605 191.725 28.7363C191.158 28.9121 190.177 29 188.78 29H186.312V18.2261ZM188.355 20.2036V26.9932H189.308C190.245 26.9932 190.924 26.8857 191.344 26.6709C191.769 26.4561 192.115 26.0947 192.384 25.5869C192.652 25.0791 192.787 24.4541 192.787 23.7119C192.787 22.5693 192.467 21.6831 191.827 21.0532C191.251 20.4868 190.326 20.2036 189.051 20.2036H188.355ZM201.898 17.9551C203.421 17.9551 204.73 18.5068 205.824 19.6104C206.922 20.7139 207.472 22.0591 207.472 23.646C207.472 25.2183 206.93 26.5488 205.846 27.6377C204.767 28.7266 203.456 29.271 201.913 29.271C200.296 29.271 198.954 28.7119 197.884 27.5938C196.815 26.4756 196.28 25.1475 196.28 23.6094C196.28 22.5791 196.529 21.6318 197.027 20.7676C197.525 19.9033 198.209 19.2197 199.078 18.7168C199.952 18.209 200.892 17.9551 201.898 17.9551ZM201.876 19.9619C200.88 19.9619 200.042 20.3086 199.364 21.002C198.685 21.6953 198.346 22.5767 198.346 23.646C198.346 24.8374 198.773 25.7798 199.627 26.4731C200.292 27.0151 201.053 27.2861 201.913 27.2861C202.884 27.2861 203.712 26.9346 204.396 26.2314C205.079 25.5283 205.421 24.6616 205.421 23.6313C205.421 22.606 205.077 21.7393 204.388 21.0312C203.7 20.3184 202.862 19.9619 201.876 19.9619ZM213.602 18.2261H215.777C216.954 18.2261 217.801 18.3359 218.319 18.5557C218.841 18.7705 219.251 19.1221 219.549 19.6104C219.852 20.0938 220.003 20.6748 220.003 21.3535C220.003 22.1055 219.806 22.7305 219.41 23.2285C219.02 23.7266 218.487 24.0732 217.813 24.2686C217.418 24.3809 216.698 24.437 215.653 24.437V29H213.602V18.2261ZM215.653 22.4375H216.305C216.817 22.4375 217.174 22.4009 217.374 22.3276C217.574 22.2544 217.73 22.1348 217.843 21.9688C217.96 21.7979 218.019 21.5928 218.019 21.3535C218.019 20.9385 217.857 20.6357 217.535 20.4453C217.301 20.3037 216.866 20.2329 216.231 20.2329H215.653V22.4375ZM227.108 17.9551C228.631 17.9551 229.94 18.5068 231.034 19.6104C232.132 20.7139 232.682 22.0591 232.682 23.646C232.682 25.2183 232.14 26.5488 231.056 27.6377C229.977 28.7266 228.666 29.271 227.123 29.271C225.506 29.271 224.164 28.7119 223.094 27.5938C222.025 26.4756 221.49 25.1475 221.49 23.6094C221.49 22.5791 221.739 21.6318 222.237 20.7676C222.735 19.9033 223.419 19.2197 224.288 18.7168C225.162 18.209 226.102 17.9551 227.108 17.9551ZM227.086 19.9619C226.09 19.9619 225.252 20.3086 224.574 21.002C223.895 21.6953 223.556 22.5767 223.556 23.646C223.556 24.8374 223.983 25.7798 224.837 26.4731C225.501 27.0151 226.263 27.2861 227.123 27.2861C228.094 27.2861 228.922 26.9346 229.605 26.2314C230.289 25.5283 230.631 24.6616 230.631 23.6313C230.631 22.606 230.287 21.7393 229.598 21.0312C228.91 20.3184 228.072 19.9619 227.086 19.9619ZM234.754 18.2261H236.93C238.121 18.2261 238.968 18.3335 239.471 18.5483C239.979 18.7583 240.387 19.1099 240.694 19.603C241.002 20.0962 241.156 20.6797 241.156 21.3535C241.156 22.0615 240.985 22.6548 240.643 23.1333C240.306 23.6069 239.796 23.9658 239.112 24.21L241.661 29H239.42L236.996 24.437H236.805V29H234.754V18.2261ZM236.805 22.4375H237.45C238.104 22.4375 238.553 22.3521 238.797 22.1812C239.046 22.0103 239.171 21.7271 239.171 21.3315C239.171 21.0972 239.11 20.8945 238.988 20.7236C238.866 20.5479 238.702 20.4233 238.497 20.3501C238.292 20.272 237.916 20.2329 237.369 20.2329H236.805V22.4375ZM248.561 18.2261H250.567L253.058 25.7407L255.584 18.2261H257.562L259.378 29H257.401L256.244 22.1958L253.951 29H252.142L249.879 22.1958L248.7 29H246.7L248.561 18.2261ZM260.88 18.2261H262.916V29H260.88V18.2261ZM262.25 14.52H264.615L261.935 17.3911H260.499L262.25 14.52Z" fill="#F5F8FA"/>
<path d="M50.4917 18.2261H52.667C53.8584 18.2261 54.7056 18.3335 55.2085 18.5483C55.7163 18.7583 56.124 19.1099 56.4316 19.603C56.7393 20.0962 56.8931 20.6797 56.8931 21.3535C56.8931 22.0615 56.7222 22.6548 56.3804 23.1333C56.0435 23.6069 55.5332 23.9658 54.8496 24.21L57.3984 29H55.1572L52.7329 24.437H52.5425V29H50.4917V18.2261ZM52.5425 22.4375H53.187C53.8413 22.4375 54.2905 22.3521 54.5347 22.1812C54.7837 22.0103 54.9082 21.7271 54.9082 21.3315C54.9082 21.0972 54.8472 20.8945 54.7251 20.7236C54.603 20.5479 54.4395 20.4233 54.2344 20.3501C54.0293 20.272 53.6533 20.2329 53.1064 20.2329H52.5425V22.4375ZM59.061 18.2261H64.9424V20.2329H61.0972V22.1812H64.9424V24.1514H61.0972V26.9858H64.9424V29H59.061V18.2261ZM66.854 18.2261H69.0293C70.2061 18.2261 71.0532 18.3359 71.5708 18.5557C72.0933 18.7705 72.5034 19.1221 72.8013 19.6104C73.104 20.0938 73.2554 20.6748 73.2554 21.3535C73.2554 22.1055 73.0576 22.7305 72.6621 23.2285C72.2715 23.7266 71.7393 24.0732 71.0654 24.2686C70.6699 24.3809 69.9497 24.437 68.9048 24.437V29H66.854V18.2261ZM68.9048 22.4375H69.5566C70.0693 22.4375 70.4258 22.4009 70.626 22.3276C70.8262 22.2544 70.9824 22.1348 71.0947 21.9688C71.2119 21.7979 71.2705 21.5928 71.2705 21.3535C71.2705 20.9385 71.1094 20.6357 70.7871 20.4453C70.5527 20.3037 70.1182 20.2329 69.4834 20.2329H68.9048V22.4375ZM78.5508 18.2261H80.6309L84.7764 29H82.645L81.8027 26.7808H77.4082L76.5293 29H74.3979L78.5508 18.2261ZM79.6055 21.0825L78.1699 24.7812H81.0337L79.6055 21.0825ZM86.5122 18.2261H88.6875C89.8789 18.2261 90.7261 18.3335 91.229 18.5483C91.7368 18.7583 92.1445 19.1099 92.4521 19.603C92.7598 20.0962 92.9136 20.6797 92.9136 21.3535C92.9136 22.0615 92.7427 22.6548 92.4009 23.1333C92.064 23.6069 91.5537 23.9658 90.8701 24.21L93.4189 29H91.1777L88.7534 24.437H88.563V29H86.5122V18.2261ZM88.563 22.4375H89.2075C89.8618 22.4375 90.311 22.3521 90.5552 22.1812C90.8042 22.0103 90.9287 21.7271 90.9287 21.3315C90.9287 21.0972 90.8677 20.8945 90.7456 20.7236C90.6235 20.5479 90.46 20.4233 90.2549 20.3501C90.0498 20.272 89.6738 20.2329 89.127 20.2329H88.563V22.4375ZM94.0122 18.2261H99.9668V20.2476H98.0039V29H95.9238V20.2476H94.0122V18.2261ZM101.227 18.2261H103.263V29H101.227V18.2261ZM105.584 18.2261H108.016C109.583 18.2261 110.748 18.4214 111.51 18.812C112.271 19.1978 112.899 19.8276 113.392 20.7017C113.885 21.5757 114.132 22.5962 114.132 23.7632C114.132 24.5933 113.993 25.3574 113.714 26.0557C113.441 26.749 113.06 27.3252 112.572 27.7842C112.088 28.2432 111.563 28.5605 110.997 28.7363C110.431 28.9121 109.449 29 108.053 29H105.584V18.2261ZM107.628 20.2036V26.9932H108.58C109.518 26.9932 110.196 26.8857 110.616 26.6709C111.041 26.4561 111.388 26.0947 111.656 25.5869C111.925 25.0791 112.059 24.4541 112.059 23.7119C112.059 22.5693 111.739 21.6831 111.1 21.0532C110.523 20.4868 109.598 20.2036 108.324 20.2036H107.628ZM121.17 17.9551C122.694 17.9551 124.002 18.5068 125.096 19.6104C126.195 20.7139 126.744 22.0591 126.744 23.646C126.744 25.2183 126.202 26.5488 125.118 27.6377C124.039 28.7266 122.728 29.271 121.185 29.271C119.569 29.271 118.226 28.7119 117.157 27.5938C116.087 26.4756 115.553 25.1475 115.553 23.6094C115.553 22.5791 115.802 21.6318 116.3 20.7676C116.798 19.9033 117.481 19.2197 118.351 18.7168C119.225 18.209 120.165 17.9551 121.17 17.9551ZM121.148 19.9619C120.152 19.9619 119.315 20.3086 118.636 21.002C117.958 21.6953 117.618 22.5767 117.618 23.646C117.618 24.8374 118.045 25.7798 118.9 26.4731C119.564 27.0151 120.326 27.2861 121.185 27.2861C122.157 27.2861 122.984 26.9346 123.668 26.2314C124.352 25.5283 124.693 24.6616 124.693 23.6313C124.693 22.606 124.349 21.7393 123.661 21.0312C122.972 20.3184 122.135 19.9619 121.148 19.9619ZM128.817 18.2261H130.992C132.184 18.2261 133.031 18.3335 133.534 18.5483C134.042 18.7583 134.449 19.1099 134.757 19.603C135.064 20.0962 135.218 20.6797 135.218 21.3535C135.218 22.0615 135.047 22.6548 134.706 23.1333C134.369 23.6069 133.858 23.9658 133.175 24.21L135.724 29H133.482L131.058 24.437H130.868V29H128.817V18.2261ZM130.868 22.4375H131.512C132.167 22.4375 132.616 22.3521 132.86 22.1812C133.109 22.0103 133.233 21.7271 133.233 21.3315C133.233 21.0972 133.172 20.8945 133.05 20.7236C132.928 20.5479 132.765 20.4233 132.56 20.3501C132.354 20.272 131.979 20.2329 131.432 20.2329H130.868V22.4375ZM141.59 18.2261H147.472V20.2329H143.626V22.1812H147.472V24.1514H143.626V26.9858H147.472V29H141.59V18.2261ZM149.398 18.2261H151.361L155.982 25.3159V18.2261H158.033V29H156.063L151.449 21.9321V29H149.398V18.2261ZM159.674 18.2261H161.783L164.493 25.8799L167.24 18.2261H169.349L165.467 29H163.49L159.674 18.2261ZM170.851 18.2261H172.887V29H170.851V18.2261ZM178.482 18.2261H180.562L184.708 29H182.577L181.734 26.7808H177.34L176.461 29H174.33L178.482 18.2261ZM179.537 21.0825L178.102 24.7812H180.965L179.537 21.0825ZM186.312 18.2261H188.744C190.311 18.2261 191.476 18.4214 192.237 18.812C192.999 19.1978 193.626 19.8276 194.12 20.7017C194.613 21.5757 194.859 22.5962 194.859 23.7632C194.859 24.5933 194.72 25.3574 194.442 26.0557C194.168 26.749 193.788 27.3252 193.299 27.7842C192.816 28.2432 192.291 28.5605 191.725 28.7363C191.158 28.9121 190.177 29 188.78 29H186.312V18.2261ZM188.355 20.2036V26.9932H189.308C190.245 26.9932 190.924 26.8857 191.344 26.6709C191.769 26.4561 192.115 26.0947 192.384 25.5869C192.652 25.0791 192.787 24.4541 192.787 23.7119C192.787 22.5693 192.467 21.6831 191.827 21.0532C191.251 20.4868 190.326 20.2036 189.051 20.2036H188.355ZM201.898 17.9551C203.421 17.9551 204.73 18.5068 205.824 19.6104C206.922 20.7139 207.472 22.0591 207.472 23.646C207.472 25.2183 206.93 26.5488 205.846 27.6377C204.767 28.7266 203.456 29.271 201.913 29.271C200.296 29.271 198.954 28.7119 197.884 27.5938C196.815 26.4756 196.28 25.1475 196.28 23.6094C196.28 22.5791 196.529 21.6318 197.027 20.7676C197.525 19.9033 198.209 19.2197 199.078 18.7168C199.952 18.209 200.892 17.9551 201.898 17.9551ZM201.876 19.9619C200.88 19.9619 200.042 20.3086 199.364 21.002C198.685 21.6953 198.346 22.5767 198.346 23.646C198.346 24.8374 198.773 25.7798 199.627 26.4731C200.292 27.0151 201.053 27.2861 201.913 27.2861C202.884 27.2861 203.712 26.9346 204.396 26.2314C205.079 25.5283 205.421 24.6616 205.421 23.6313C205.421 22.606 205.077 21.7393 204.388 21.0312C203.7 20.3184 202.862 19.9619 201.876 19.9619ZM213.602 18.2261H215.777C216.954 18.2261 217.801 18.3359 218.319 18.5557C218.841 18.7705 219.251 19.1221 219.549 19.6104C219.852 20.0938 220.003 20.6748 220.003 21.3535C220.003 22.1055 219.806 22.7305 219.41 23.2285C219.02 23.7266 218.487 24.0732 217.813 24.2686C217.418 24.3809 216.698 24.437 215.653 24.437V29H213.602V18.2261ZM215.653 22.4375H216.305C216.817 22.4375 217.174 22.4009 217.374 22.3276C217.574 22.2544 217.73 22.1348 217.843 21.9688C217.96 21.7979 218.019 21.5928 218.019 21.3535C218.019 20.9385 217.857 20.6357 217.535 20.4453C217.301 20.3037 216.866 20.2329 216.231 20.2329H215.653V22.4375ZM227.108 17.9551C228.631 17.9551 229.94 18.5068 231.034 19.6104C232.132 20.7139 232.682 22.0591 232.682 23.646C232.682 25.2183 232.14 26.5488 231.056 27.6377C229.977 28.7266 228.666 29.271 227.123 29.271C225.506 29.271 224.164 28.7119 223.094 27.5938C222.025 26.4756 221.49 25.1475 221.49 23.6094C221.49 22.5791 221.739 21.6318 222.237 20.7676C222.735 19.9033 223.419 19.2197 224.288 18.7168C225.162 18.209 226.102 17.9551 227.108 17.9551ZM227.086 19.9619C226.09 19.9619 225.252 20.3086 224.574 21.002C223.895 21.6953 223.556 22.5767 223.556 23.646C223.556 24.8374 223.983 25.7798 224.837 26.4731C225.501 27.0151 226.263 27.2861 227.123 27.2861C228.094 27.2861 228.922 26.9346 229.605 26.2314C230.289 25.5283 230.631 24.6616 230.631 23.6313C230.631 22.606 230.287 21.7393 229.598 21.0312C228.91 20.3184 228.072 19.9619 227.086 19.9619ZM234.754 18.2261H236.93C238.121 18.2261 238.968 18.3335 239.471 18.5483C239.979 18.7583 240.387 19.1099 240.694 19.603C241.002 20.0962 241.156 20.6797 241.156 21.3535C241.156 22.0615 240.985 22.6548 240.643 23.1333C240.306 23.6069 239.796 23.9658 239.112 24.21L241.661 29H239.42L236.996 24.437H236.805V29H234.754V18.2261ZM236.805 22.4375H237.45C238.104 22.4375 238.553 22.3521 238.797 22.1812C239.046 22.0103 239.171 21.7271 239.171 21.3315C239.171 21.0972 239.11 20.8945 238.988 20.7236C238.866 20.5479 238.702 20.4233 238.497 20.3501C238.292 20.272 237.916 20.2329 237.369 20.2329H236.805V22.4375ZM248.561 18.2261H250.567L253.058 25.7407L255.584 18.2261H257.562L259.378 29H257.401L256.244 22.1958L253.951 29H252.142L249.879 22.1958L248.7 29H246.7L248.561 18.2261ZM260.88 18.2261H262.916V29H260.88V18.2261ZM262.25 14.52H264.615L261.935 17.3911H260.499L262.25 14.52Z" fill="url(#paint0_linear)"/>
<defs>
<filter id="filter0_d" x="0.484848" y="0.242424" width="313.758" height="54.4848" filterUnits="userSpaceOnUse" color-interpolation-filters="sRGB">
<feFlood flood-opacity="0" result="BackgroundImageFix"/>
<feColorMatrix in="SourceAlpha" type="matrix" values="0 0 0 0 0 0 0 0 0 0 0 0 0 0 0 0 0 0 127 0"/>
<feOffset dy="3.75758"/>
<feGaussianBlur stdDeviation="3.75758"/>
<feColorMatrix type="matrix" values="0 0 0 0 0 0 0 0 0 0 0 0 0 0 0 0 0 0 0.15 0"/>
<feBlend mode="normal" in2="BackgroundImageFix" result="effect1_dropShadow"/>
<feBlend mode="normal" in="SourceGraphic" in2="effect1_dropShadow" result="shape"/>
</filter>
<linearGradient id="paint0_linear" x1="156.5" y1="14" x2="156.5" y2="32" gradientUnits="userSpaceOnUse">
<stop stop-color="white"/>
<stop offset="1" stop-color="white" stop-opacity="0"/>
</linearGradient>
</defs>
</svg>
