<svg width="308" height="230" viewBox="0 0 308 230" fill="none" xmlns="http://www.w3.org/2000/svg">
<g filter="url(#filter0_d)">
<rect x="5" y="5" width="278" height="200" rx="15" fill="#F5F8FA"/>
<rect x="5" y="5" width="278" height="200" rx="15" fill="url(#paint0_linear)"/>
</g>
<rect x="57" y="52" width="171" height="31" fill="#FAFCFD" fill-opacity="0.5"/>
<path d="M88.5692 37.7617H98.0966V40.9961H94.9559V55H91.6278V40.9961H88.5692V37.7617ZM100.703 42.25H103.938V48.3906C103.938 49.5859 104.02 50.418 104.184 50.8867C104.348 51.3477 104.61 51.707 104.969 51.9648C105.336 52.2227 105.785 52.3516 106.317 52.3516C106.848 52.3516 107.297 52.2266 107.664 51.9766C108.039 51.7188 108.317 51.3438 108.496 50.8516C108.629 50.4844 108.695 49.6992 108.695 48.4961V42.25H111.906V47.6523C111.906 49.8789 111.731 51.4023 111.379 52.2227C110.949 53.2227 110.317 53.9922 109.481 54.5312C108.645 55.0625 107.582 55.3281 106.293 55.3281C104.895 55.3281 103.762 55.0156 102.895 54.3906C102.035 53.7656 101.43 52.8945 101.078 51.7773C100.828 51.0039 100.703 49.5977 100.703 47.5586V42.25ZM123.654 44.0312L121.673 46.0117C120.869 45.2148 120.138 44.8164 119.482 44.8164C119.122 44.8164 118.841 44.8945 118.638 45.0508C118.435 45.1992 118.333 45.3867 118.333 45.6133C118.333 45.7852 118.396 45.9453 118.521 46.0938C118.654 46.2344 118.974 46.4297 119.482 46.6797L120.654 47.2656C121.888 47.875 122.736 48.4961 123.197 49.1289C123.658 49.7617 123.888 50.5039 123.888 51.3555C123.888 52.4883 123.47 53.4336 122.634 54.1914C121.806 54.9492 120.693 55.3281 119.294 55.3281C117.435 55.3281 115.951 54.6016 114.841 53.1484L116.81 51.0039C117.185 51.4414 117.622 51.7969 118.122 52.0703C118.63 52.3359 119.08 52.4688 119.47 52.4688C119.892 52.4688 120.232 52.3672 120.49 52.1641C120.747 51.9609 120.876 51.7266 120.876 51.4609C120.876 50.9688 120.412 50.4883 119.482 50.0195L118.404 49.4805C116.341 48.4414 115.31 47.1406 115.31 45.5781C115.31 44.5703 115.697 43.7109 116.47 43C117.251 42.2812 118.247 41.9219 119.458 41.9219C120.287 41.9219 121.064 42.1055 121.79 42.4727C122.525 42.832 123.146 43.3516 123.654 44.0312ZM133.836 42.25H136.578V43.8555C136.875 43.2227 137.27 42.7422 137.762 42.4141C138.254 42.0859 138.793 41.9219 139.379 41.9219C139.793 41.9219 140.227 42.0312 140.68 42.25L139.684 45.0039C139.309 44.8164 139 44.7227 138.758 44.7227C138.266 44.7227 137.848 45.0273 137.504 45.6367C137.168 46.2461 137 47.4414 137 49.2227L137.012 49.8438V55H133.836V42.25ZM155.767 49.5508H145.49C145.638 50.457 146.032 51.1797 146.673 51.7188C147.322 52.25 148.146 52.5156 149.146 52.5156C150.341 52.5156 151.368 52.0977 152.228 51.2617L154.923 52.5273C154.251 53.4805 153.447 54.1875 152.509 54.6484C151.572 55.1016 150.458 55.3281 149.169 55.3281C147.169 55.3281 145.54 54.6992 144.282 53.4414C143.025 52.1758 142.396 50.5938 142.396 48.6953C142.396 46.75 143.021 45.1367 144.271 43.8555C145.529 42.5664 147.103 41.9219 148.993 41.9219C151.001 41.9219 152.634 42.5664 153.892 43.8555C155.15 45.1367 155.779 46.832 155.779 48.9414L155.767 49.5508ZM152.556 47.0312C152.345 46.3203 151.927 45.7422 151.302 45.2969C150.685 44.8516 149.966 44.6289 149.146 44.6289C148.255 44.6289 147.474 44.8789 146.802 45.3789C146.38 45.6914 145.99 46.2422 145.63 47.0312H152.556ZM168.51 37.3281H171.698V55H168.51V53.6523C167.885 54.2461 167.256 54.6758 166.624 54.9414C165.999 55.1992 165.319 55.3281 164.585 55.3281C162.936 55.3281 161.51 54.6914 160.307 53.418C159.104 52.1367 158.503 50.5469 158.503 48.6484C158.503 46.6797 159.085 45.0664 160.249 43.8086C161.413 42.5508 162.827 41.9219 164.491 41.9219C165.256 41.9219 165.975 42.0664 166.647 42.3555C167.319 42.6445 167.94 43.0781 168.51 43.6562V37.3281ZM165.147 44.875C164.155 44.875 163.331 45.2266 162.674 45.9297C162.018 46.625 161.69 47.5195 161.69 48.6133C161.69 49.7148 162.022 50.6211 162.686 51.332C163.358 52.043 164.182 52.3984 165.159 52.3984C166.167 52.3984 167.003 52.0508 167.667 51.3555C168.331 50.6523 168.663 49.7344 168.663 48.6016C168.663 47.4922 168.331 46.5938 167.667 45.9062C167.003 45.2188 166.163 44.875 165.147 44.875ZM188.426 49.5508H178.148C178.297 50.457 178.691 51.1797 179.332 51.7188C179.98 52.25 180.805 52.5156 181.805 52.5156C183 52.5156 184.027 52.0977 184.887 51.2617L187.582 52.5273C186.91 53.4805 186.105 54.1875 185.168 54.6484C184.23 55.1016 183.117 55.3281 181.828 55.3281C179.828 55.3281 178.199 54.6992 176.941 53.4414C175.683 52.1758 175.055 50.5938 175.055 48.6953C175.055 46.75 175.68 45.1367 176.93 43.8555C178.187 42.5664 179.762 41.9219 181.652 41.9219C183.66 41.9219 185.293 42.5664 186.551 43.8555C187.808 45.1367 188.437 46.832 188.437 48.9414L188.426 49.5508ZM185.215 47.0312C185.004 46.3203 184.586 45.7422 183.961 45.2969C183.344 44.8516 182.625 44.6289 181.805 44.6289C180.914 44.6289 180.133 44.8789 179.461 45.3789C179.039 45.6914 178.648 46.2422 178.289 47.0312H185.215ZM199.552 44.0312L197.571 46.0117C196.767 45.2148 196.036 44.8164 195.38 44.8164C195.021 44.8164 194.739 44.8945 194.536 45.0508C194.333 45.1992 194.232 45.3867 194.232 45.6133C194.232 45.7852 194.294 45.9453 194.419 46.0938C194.552 46.2344 194.872 46.4297 195.38 46.6797L196.552 47.2656C197.786 47.875 198.634 48.4961 199.095 49.1289C199.556 49.7617 199.786 50.5039 199.786 51.3555C199.786 52.4883 199.368 53.4336 198.532 54.1914C197.704 54.9492 196.591 55.3281 195.193 55.3281C193.333 55.3281 191.849 54.6016 190.739 53.1484L192.708 51.0039C193.083 51.4414 193.521 51.7969 194.021 52.0703C194.528 52.3359 194.978 52.4688 195.368 52.4688C195.79 52.4688 196.13 52.3672 196.388 52.1641C196.646 51.9609 196.775 51.7266 196.775 51.4609C196.775 50.9688 196.31 50.4883 195.38 50.0195L194.302 49.4805C192.239 48.4414 191.208 47.1406 191.208 45.5781C191.208 44.5703 191.595 43.7109 192.368 43C193.15 42.2812 194.146 41.9219 195.357 41.9219C196.185 41.9219 196.962 42.1055 197.689 42.4727C198.423 42.832 199.044 43.3516 199.552 44.0312ZM104.082 71.0312L102.101 73.0117C101.296 72.2148 100.566 71.8164 99.9097 71.8164C99.5503 71.8164 99.2691 71.8945 99.0659 72.0508C98.8628 72.1992 98.7612 72.3867 98.7612 72.6133C98.7612 72.7852 98.8237 72.9453 98.9487 73.0938C99.0816 73.2344 99.4019 73.4297 99.9097 73.6797L101.082 74.2656C102.316 74.875 103.164 75.4961 103.625 76.1289C104.085 76.7617 104.316 77.5039 104.316 78.3555C104.316 79.4883 103.898 80.4336 103.062 81.1914C102.234 81.9492 101.121 82.3281 99.7222 82.3281C97.8628 82.3281 96.3784 81.6016 95.2691 80.1484L97.2378 78.0039C97.6128 78.4414 98.0503 78.7969 98.5503 79.0703C99.0581 79.3359 99.5073 79.4688 99.898 79.4688C100.32 79.4688 100.66 79.3672 100.917 79.1641C101.175 78.9609 101.304 78.7266 101.304 78.4609C101.304 77.9688 100.839 77.4883 99.9097 77.0195L98.8316 76.4805C96.7691 75.4414 95.7378 74.1406 95.7378 72.5781C95.7378 71.5703 96.1245 70.7109 96.898 70C97.6792 69.2812 98.6753 68.9219 99.8862 68.9219C100.714 68.9219 101.492 69.1055 102.218 69.4727C102.953 69.832 103.574 70.3516 104.082 71.0312ZM113.555 68.9219C114.759 68.9219 115.888 69.2227 116.942 69.8242C118.005 70.4258 118.833 71.2422 119.427 72.2734C120.02 73.3047 120.317 74.418 120.317 75.6133C120.317 76.8164 120.016 77.9414 119.415 78.9883C118.821 80.0352 118.009 80.8555 116.977 81.4492C115.946 82.0352 114.809 82.3281 113.567 82.3281C111.739 82.3281 110.177 81.6797 108.88 80.3828C107.591 79.0781 106.946 77.4961 106.946 75.6367C106.946 73.6445 107.677 71.9844 109.138 70.6562C110.419 69.5 111.891 68.9219 113.555 68.9219ZM113.602 71.9336C112.61 71.9336 111.782 72.2812 111.118 72.9766C110.462 73.6641 110.134 74.5469 110.134 75.625C110.134 76.7344 110.458 77.6328 111.106 78.3203C111.763 79.0078 112.591 79.3516 113.591 79.3516C114.591 79.3516 115.423 79.0039 116.087 78.3086C116.751 77.6133 117.083 76.7188 117.083 75.625C117.083 74.5312 116.755 73.6445 116.098 72.9648C115.45 72.2773 114.618 71.9336 113.602 71.9336ZM136.143 71.8281L133.482 73.293C132.982 72.7695 132.486 72.4062 131.994 72.2031C131.51 72 130.94 71.8984 130.283 71.8984C129.088 71.8984 128.119 72.2578 127.377 72.9766C126.643 73.6875 126.275 74.6016 126.275 75.7188C126.275 76.8047 126.631 77.6914 127.342 78.3789C128.053 79.0664 128.986 79.4102 130.143 79.4102C131.572 79.4102 132.686 78.9219 133.482 77.9453L136.002 79.668C134.635 81.4414 132.705 82.3281 130.213 82.3281C127.971 82.3281 126.213 81.6641 124.94 80.3359C123.674 79.0078 123.041 77.4531 123.041 75.6719C123.041 74.4375 123.35 73.3008 123.967 72.2617C124.584 71.2227 125.443 70.4062 126.545 69.8125C127.654 69.2188 128.893 68.9219 130.26 68.9219C131.525 68.9219 132.662 69.1758 133.67 69.6836C134.678 70.1836 135.502 70.8984 136.143 71.8281ZM141.011 64C141.574 64 142.054 64.2031 142.452 64.6094C142.859 65.0156 143.062 65.5078 143.062 66.0859C143.062 66.6562 142.863 67.1445 142.464 67.5508C142.066 67.9492 141.589 68.1484 141.035 68.1484C140.464 68.1484 139.976 67.9453 139.57 67.5391C139.171 67.125 138.972 66.625 138.972 66.0391C138.972 65.4766 139.171 64.9961 139.57 64.5977C139.968 64.1992 140.449 64 141.011 64ZM139.406 69.25H142.617V82H139.406V69.25ZM155.665 69.25H158.852V82H155.665V80.6523C155.04 81.2461 154.411 81.6758 153.778 81.9414C153.153 82.1992 152.473 82.3281 151.739 82.3281C150.09 82.3281 148.665 81.6914 147.462 80.418C146.258 79.1367 145.657 77.5469 145.657 75.6484C145.657 73.6797 146.239 72.0664 147.403 70.8086C148.567 69.5508 149.981 68.9219 151.645 68.9219C152.411 68.9219 153.13 69.0664 153.801 69.3555C154.473 69.6445 155.094 70.0781 155.665 70.6562V69.25ZM152.301 71.875C151.309 71.875 150.485 72.2266 149.829 72.9297C149.173 73.625 148.844 74.5195 148.844 75.6133C148.844 76.7148 149.176 77.6211 149.84 78.332C150.512 79.043 151.337 79.3984 152.313 79.3984C153.321 79.3984 154.157 79.0508 154.821 78.3555C155.485 77.6523 155.817 76.7344 155.817 75.6016C155.817 74.4922 155.485 73.5938 154.821 72.9062C154.157 72.2188 153.317 71.875 152.301 71.875ZM162.467 64.3281H165.666V82H162.467V64.3281ZM182.066 76.5508H171.788C171.937 77.457 172.331 78.1797 172.972 78.7188C173.62 79.25 174.445 79.5156 175.445 79.5156C176.64 79.5156 177.667 79.0977 178.527 78.2617L181.222 79.5273C180.55 80.4805 179.745 81.1875 178.808 81.6484C177.87 82.1016 176.757 82.3281 175.468 82.3281C173.468 82.3281 171.839 81.6992 170.581 80.4414C169.323 79.1758 168.695 77.5938 168.695 75.6953C168.695 73.75 169.32 72.1367 170.57 70.8555C171.827 69.5664 173.402 68.9219 175.292 68.9219C177.3 68.9219 178.933 69.5664 180.191 70.8555C181.448 72.1367 182.077 73.832 182.077 75.9414L182.066 76.5508ZM178.855 74.0312C178.644 73.3203 178.226 72.7422 177.601 72.2969C176.984 71.8516 176.265 71.6289 175.445 71.6289C174.554 71.6289 173.773 71.8789 173.101 72.3789C172.679 72.6914 172.288 73.2422 171.929 74.0312H178.855ZM193.192 71.0312L191.211 73.0117C190.407 72.2148 189.676 71.8164 189.02 71.8164C188.661 71.8164 188.379 71.8945 188.176 72.0508C187.973 72.1992 187.872 72.3867 187.872 72.6133C187.872 72.7852 187.934 72.9453 188.059 73.0938C188.192 73.2344 188.512 73.4297 189.02 73.6797L190.192 74.2656C191.426 74.875 192.274 75.4961 192.735 76.1289C193.196 76.7617 193.426 77.5039 193.426 78.3555C193.426 79.4883 193.008 80.4336 192.172 81.1914C191.344 81.9492 190.231 82.3281 188.833 82.3281C186.973 82.3281 185.489 81.6016 184.379 80.1484L186.348 78.0039C186.723 78.4414 187.161 78.7969 187.661 79.0703C188.168 79.3359 188.618 79.4688 189.008 79.4688C189.43 79.4688 189.77 79.3672 190.028 79.1641C190.286 78.9609 190.415 78.7266 190.415 78.4609C190.415 77.9688 189.95 77.4883 189.02 77.0195L187.942 76.4805C185.879 75.4414 184.848 74.1406 184.848 72.5781C184.848 71.5703 185.235 70.7109 186.008 70C186.79 69.2812 187.786 68.9219 188.997 68.9219C189.825 68.9219 190.602 69.1055 191.329 69.4727C192.063 69.832 192.684 70.3516 193.192 71.0312Z" fill="#444242"/>
<g filter="url(#filter1_d)">
<rect x="131.273" y="101" width="40" height="47.2727" rx="8.43731" transform="rotate(90 131.273 101)" fill="#3497DB"/>
</g>
<path d="M113.329 108.836H101.424C98.1369 108.836 95.4719 111.501 95.4719 114.788V126.693C95.4719 129.98 98.1369 132.645 101.424 132.645H113.329C116.616 132.645 119.281 129.98 119.281 126.693V114.788C119.281 111.501 116.616 108.836 113.329 108.836Z" stroke="white" stroke-width="2.38095" stroke-linecap="round" stroke-linejoin="round"/>
<path d="M112.138 119.99C112.285 120.981 112.116 121.993 111.655 122.882C111.194 123.771 110.464 124.492 109.569 124.942C108.674 125.392 107.66 125.549 106.672 125.39C105.683 125.231 104.769 124.764 104.061 124.056C103.353 123.348 102.886 122.434 102.727 121.445C102.567 120.456 102.724 119.442 103.175 118.548C103.625 117.653 104.346 116.923 105.235 116.462C106.124 116.001 107.136 115.831 108.127 115.978C109.137 116.128 110.073 116.599 110.795 117.321C111.518 118.044 111.989 118.98 112.138 119.99Z" stroke="white" stroke-width="2.38095" stroke-linecap="round" stroke-linejoin="round"/>
<path d="M113.924 114.192H113.936" stroke="white" stroke-width="2.38095" stroke-linecap="round" stroke-linejoin="round"/>
<g filter="url(#filter2_d)">
<rect x="204.273" y="100" width="40" height="47.2727" rx="8.43731" transform="rotate(90 204.273 100)" fill="#3497DB"/>
</g>
<path d="M187.519 107.836H183.948C182.369 107.836 180.855 108.463 179.739 109.579C178.623 110.695 177.996 112.209 177.996 113.788V117.36H174.424V122.121H177.996V131.645H182.758V122.121H186.329L187.519 117.36H182.758V113.788C182.758 113.472 182.883 113.17 183.106 112.946C183.329 112.723 183.632 112.598 183.948 112.598H187.519V107.836Z" fill="white"/>
<g filter="url(#filter3_d)">
<rect x="169.273" y="146" width="40" height="47.2727" rx="8.43731" transform="rotate(90 169.273 146)" fill="#3497DB"/>
</g>
<path d="M158.472 155.026C157.332 155.83 156.07 156.445 154.734 156.848C154.017 156.023 153.064 155.439 152.004 155.174C150.944 154.908 149.829 154.975 148.808 155.365C147.787 155.754 146.911 156.448 146.297 157.352C145.683 158.256 145.362 159.327 145.377 160.419V161.609C143.285 161.664 141.212 161.2 139.342 160.259C137.473 159.318 135.865 157.929 134.662 156.217C134.662 156.217 129.901 166.931 140.615 171.693C138.163 173.357 135.242 174.192 132.281 174.074C142.996 180.026 156.091 174.074 156.091 160.383C156.09 160.052 156.058 159.721 155.996 159.395C157.211 158.197 158.068 156.684 158.472 155.026V155.026Z" fill="white"/>
<defs>
<filter id="filter0_d" x="0" y="0" width="308" height="230" filterUnits="userSpaceOnUse" color-interpolation-filters="sRGB">
<feFlood flood-opacity="0" result="BackgroundImageFix"/>
<feColorMatrix in="SourceAlpha" type="matrix" values="0 0 0 0 0 0 0 0 0 0 0 0 0 0 0 0 0 0 127 0"/>
<feOffset dx="10" dy="10"/>
<feGaussianBlur stdDeviation="7.5"/>
<feColorMatrix type="matrix" values="0 0 0 0 0 0 0 0 0 0 0 0 0 0 0 0 0 0 0.2 0"/>
<feBlend mode="multiply" in2="BackgroundImageFix" result="effect1_dropShadow"/>
<feBlend mode="normal" in="SourceGraphic" in2="effect1_dropShadow" result="shape"/>
</filter>
<filter id="filter1_d" x="78.5455" y="95.5455" width="61.8182" height="54.5455" filterUnits="userSpaceOnUse" color-interpolation-filters="sRGB">
<feFlood flood-opacity="0" result="BackgroundImageFix"/>
<feColorMatrix in="SourceAlpha" type="matrix" values="0 0 0 0 0 0 0 0 0 0 0 0 0 0 0 0 0 0 127 0"/>
<feOffset dx="1.81818" dy="1.81818"/>
<feGaussianBlur stdDeviation="3.63636"/>
<feColorMatrix type="matrix" values="0 0 0 0 0 0 0 0 0 0 0 0 0 0 0 0 0 0 0.15 0"/>
<feBlend mode="normal" in2="BackgroundImageFix" result="effect1_dropShadow"/>
<feBlend mode="normal" in="SourceGraphic" in2="effect1_dropShadow" result="shape"/>
</filter>
<filter id="filter2_d" x="151.545" y="94.5455" width="61.8182" height="54.5455" filterUnits="userSpaceOnUse" color-interpolation-filters="sRGB">
<feFlood flood-opacity="0" result="BackgroundImageFix"/>
<feColorMatrix in="SourceAlpha" type="matrix" values="0 0 0 0 0 0 0 0 0 0 0 0 0 0 0 0 0 0 127 0"/>
<feOffset dx="1.81818" dy="1.81818"/>
<feGaussianBlur stdDeviation="3.63636"/>
<feColorMatrix type="matrix" values="0 0 0 0 0 0 0 0 0 0 0 0 0 0 0 0 0 0 0.15 0"/>
<feBlend mode="normal" in2="BackgroundImageFix" result="effect1_dropShadow"/>
<feBlend mode="normal" in="SourceGraphic" in2="effect1_dropShadow" result="shape"/>
</filter>
<filter id="filter3_d" x="116.545" y="140.545" width="61.8182" height="54.5455" filterUnits="userSpaceOnUse" color-interpolation-filters="sRGB">
<feFlood flood-opacity="0" result="BackgroundImageFix"/>
<feColorMatrix in="SourceAlpha" type="matrix" values="0 0 0 0 0 0 0 0 0 0 0 0 0 0 0 0 0 0 127 0"/>
<feOffset dx="1.81818" dy="1.81818"/>
<feGaussianBlur stdDeviation="3.63636"/>
<feColorMatrix type="matrix" values="0 0 0 0 0 0 0 0 0 0 0 0 0 0 0 0 0 0 0.15 0"/>
<feBlend mode="normal" in2="BackgroundImageFix" result="effect1_dropShadow"/>
<feBlend mode="normal" in="SourceGraphic" in2="effect1_dropShadow" result="shape"/>
</filter>
<linearGradient id="paint0_linear" x1="144" y1="5" x2="144" y2="205" gradientUnits="userSpaceOnUse">
<stop stop-color="white"/>
<stop offset="1" stop-color="white" stop-opacity="0"/>
</linearGradient>
</defs>
</svg>
