<svg width="308" height="230" viewBox="0 0 308 230" fill="none" xmlns="http://www.w3.org/2000/svg">
<g filter="url(#filter0_d)">
<rect x="5" y="5" width="278" height="200" rx="15" fill="#F5F8FA"/>
<rect x="5" y="5" width="278" height="200" rx="15" fill="url(#paint0_linear)"/>
</g>
<rect x="57" y="52" width="171" height="31" fill="#FAFCFD" fill-opacity="0.5"/>
<path d="M87.2867 40.1055L84.8609 42.25C84.0094 41.0625 83.1422 40.4688 82.2594 40.4688C81.8297 40.4688 81.4781 40.5859 81.2047 40.8203C80.9313 41.0469 80.7945 41.3047 80.7945 41.5938C80.7945 41.8828 80.8922 42.1562 81.0875 42.4141C81.3531 42.7578 82.1539 43.4961 83.4898 44.6289C84.7398 45.6758 85.4977 46.3359 85.7633 46.6094C86.4273 47.2812 86.8961 47.9258 87.1695 48.543C87.4508 49.1523 87.5914 49.8203 87.5914 50.5469C87.5914 51.9609 87.1031 53.1289 86.1266 54.0508C85.15 54.9727 83.8766 55.4336 82.3063 55.4336C81.0797 55.4336 80.0094 55.1328 79.0953 54.5312C78.1891 53.9297 77.4117 52.9844 76.7633 51.6953L79.5172 50.0312C80.3453 51.5547 81.2984 52.3164 82.3766 52.3164C82.9391 52.3164 83.4117 52.1523 83.7945 51.8242C84.1773 51.4961 84.3688 51.1172 84.3688 50.6875C84.3688 50.2969 84.2242 49.9062 83.9352 49.5156C83.6461 49.125 83.0094 48.5273 82.025 47.7227C80.15 46.1914 78.9391 45.0117 78.3922 44.1836C77.8453 43.3477 77.5719 42.5156 77.5719 41.6875C77.5719 40.4922 78.025 39.4688 78.9313 38.6172C79.8453 37.7578 80.9703 37.3281 82.3063 37.3281C83.1656 37.3281 83.982 37.5273 84.7555 37.9258C85.5367 38.3242 86.3805 39.0508 87.2867 40.1055ZM103.886 49.5508H93.6083C93.7567 50.457 94.1513 51.1797 94.7919 51.7188C95.4403 52.25 96.2645 52.5156 97.2645 52.5156C98.4598 52.5156 99.4872 52.0977 100.347 51.2617L103.042 52.5273C102.37 53.4805 101.565 54.1875 100.628 54.6484C99.6903 55.1016 98.577 55.3281 97.288 55.3281C95.288 55.3281 93.6591 54.6992 92.4013 53.4414C91.1434 52.1758 90.5145 50.5938 90.5145 48.6953C90.5145 46.75 91.1395 45.1367 92.3895 43.8555C93.6473 42.5664 95.2216 41.9219 97.1122 41.9219C99.12 41.9219 100.753 42.5664 102.011 43.8555C103.268 45.1367 103.897 46.832 103.897 48.9414L103.886 49.5508ZM100.675 47.0312C100.464 46.3203 100.046 45.7422 99.4208 45.2969C98.8036 44.8516 98.0848 44.6289 97.2645 44.6289C96.3739 44.6289 95.5927 44.8789 94.9208 45.3789C94.4989 45.6914 94.1083 46.2422 93.7489 47.0312H100.675ZM106.457 42.25H109.199V43.8555C109.496 43.2227 109.891 42.7422 110.383 42.4141C110.875 42.0859 111.414 41.9219 112 41.9219C112.414 41.9219 112.848 42.0312 113.301 42.25L112.305 45.0039C111.93 44.8164 111.621 44.7227 111.379 44.7227C110.887 44.7227 110.469 45.0273 110.125 45.6367C109.789 46.2461 109.621 47.4414 109.621 49.2227L109.633 49.8438V55H106.457V42.25ZM114.244 42.25H117.501L120.724 49.7734L123.935 42.25H127.181L121.755 55H119.681L114.244 42.25ZM131.042 37C131.604 37 132.085 37.2031 132.483 37.6094C132.889 38.0156 133.093 38.5078 133.093 39.0859C133.093 39.6562 132.893 40.1445 132.495 40.5508C132.096 40.9492 131.62 41.1484 131.065 41.1484C130.495 41.1484 130.007 40.9453 129.6 40.5391C129.202 40.125 129.003 39.625 129.003 39.0391C129.003 38.4766 129.202 37.9961 129.6 37.5977C129.999 37.1992 130.479 37 131.042 37ZM129.436 42.25H132.647V55H129.436V42.25ZM148.754 44.8281L146.094 46.293C145.594 45.7695 145.098 45.4062 144.605 45.2031C144.121 45 143.551 44.8984 142.895 44.8984C141.699 44.8984 140.73 45.2578 139.988 45.9766C139.254 46.6875 138.887 47.6016 138.887 48.7188C138.887 49.8047 139.242 50.6914 139.953 51.3789C140.664 52.0664 141.598 52.4102 142.754 52.4102C144.184 52.4102 145.297 51.9219 146.094 50.9453L148.613 52.668C147.246 54.4414 145.316 55.3281 142.824 55.3281C140.582 55.3281 138.824 54.6641 137.551 53.3359C136.285 52.0078 135.652 50.4531 135.652 48.6719C135.652 47.4375 135.961 46.3008 136.578 45.2617C137.195 44.2227 138.055 43.4062 139.156 42.8125C140.266 42.2188 141.504 41.9219 142.871 41.9219C144.137 41.9219 145.273 42.1758 146.281 42.6836C147.289 43.1836 148.113 43.8984 148.754 44.8281ZM153.622 37C154.185 37 154.665 37.2031 155.064 37.6094C155.47 38.0156 155.673 38.5078 155.673 39.0859C155.673 39.6562 155.474 40.1445 155.075 40.5508C154.677 40.9492 154.2 41.1484 153.646 41.1484C153.075 41.1484 152.587 40.9453 152.181 40.5391C151.783 40.125 151.583 39.625 151.583 39.0391C151.583 38.4766 151.783 37.9961 152.181 37.5977C152.579 37.1992 153.06 37 153.622 37ZM152.017 42.25H155.228V55H152.017V42.25ZM164.842 41.9219C166.045 41.9219 167.174 42.2227 168.229 42.8242C169.292 43.4258 170.12 44.2422 170.713 45.2734C171.307 46.3047 171.604 47.418 171.604 48.6133C171.604 49.8164 171.303 50.9414 170.702 51.9883C170.108 53.0352 169.295 53.8555 168.264 54.4492C167.233 55.0352 166.096 55.3281 164.854 55.3281C163.026 55.3281 161.463 54.6797 160.167 53.3828C158.878 52.0781 158.233 50.4961 158.233 48.6367C158.233 46.6445 158.963 44.9844 160.424 43.6562C161.706 42.5 163.178 41.9219 164.842 41.9219ZM164.889 44.9336C163.897 44.9336 163.069 45.2812 162.405 45.9766C161.749 46.6641 161.42 47.5469 161.42 48.625C161.42 49.7344 161.745 50.6328 162.393 51.3203C163.049 52.0078 163.878 52.3516 164.878 52.3516C165.878 52.3516 166.71 52.0039 167.374 51.3086C168.038 50.6133 168.37 49.7188 168.37 48.625C168.37 47.5312 168.042 46.6445 167.385 45.9648C166.737 45.2773 165.905 44.9336 164.889 44.9336ZM191.818 37.3281H195.005V55H191.818V53.6523C191.193 54.2461 190.564 54.6758 189.931 54.9414C189.306 55.1992 188.626 55.3281 187.892 55.3281C186.243 55.3281 184.818 54.6914 183.614 53.418C182.411 52.1367 181.81 50.5469 181.81 48.6484C181.81 46.6797 182.392 45.0664 183.556 43.8086C184.72 42.5508 186.134 41.9219 187.798 41.9219C188.564 41.9219 189.282 42.0664 189.954 42.3555C190.626 42.6445 191.247 43.0781 191.818 43.6562V37.3281ZM188.454 44.875C187.462 44.875 186.638 45.2266 185.982 45.9297C185.325 46.625 184.997 47.5195 184.997 48.6133C184.997 49.7148 185.329 50.6211 185.993 51.332C186.665 52.043 187.489 52.3984 188.466 52.3984C189.474 52.3984 190.31 52.0508 190.974 51.3555C191.638 50.6523 191.97 49.7344 191.97 48.6016C191.97 47.4922 191.638 46.5938 190.974 45.9062C190.31 45.2188 189.47 44.875 188.454 44.875ZM211.733 49.5508H201.455C201.604 50.457 201.998 51.1797 202.639 51.7188C203.287 52.25 204.112 52.5156 205.112 52.5156C206.307 52.5156 207.334 52.0977 208.194 51.2617L210.889 52.5273C210.217 53.4805 209.412 54.1875 208.475 54.6484C207.537 55.1016 206.424 55.3281 205.135 55.3281C203.135 55.3281 201.506 54.6992 200.248 53.4414C198.991 52.1758 198.362 50.5938 198.362 48.6953C198.362 46.75 198.987 45.1367 200.237 43.8555C201.495 42.5664 203.069 41.9219 204.959 41.9219C206.967 41.9219 208.6 42.5664 209.858 43.8555C211.116 45.1367 211.745 46.832 211.745 48.9414L211.733 49.5508ZM208.522 47.0312C208.311 46.3203 207.893 45.7422 207.268 45.2969C206.651 44.8516 205.932 44.6289 205.112 44.6289C204.221 44.6289 203.44 44.8789 202.768 45.3789C202.346 45.6914 201.955 46.2422 201.596 47.0312H208.522ZM125.259 76.5508H114.982C115.13 77.457 115.525 78.1797 116.165 78.7188C116.814 79.25 117.638 79.5156 118.638 79.5156C119.833 79.5156 120.861 79.0977 121.72 78.2617L124.415 79.5273C123.744 80.4805 122.939 81.1875 122.001 81.6484C121.064 82.1016 119.951 82.3281 118.662 82.3281C116.662 82.3281 115.033 81.6992 113.775 80.4414C112.517 79.1758 111.888 77.5938 111.888 75.6953C111.888 73.75 112.513 72.1367 113.763 70.8555C115.021 69.5664 116.595 68.9219 118.486 68.9219C120.494 68.9219 122.126 69.5664 123.384 70.8555C124.642 72.1367 125.271 73.832 125.271 75.9414L125.259 76.5508ZM122.048 74.0312C121.837 73.3203 121.419 72.7422 120.794 72.2969C120.177 71.8516 119.458 71.6289 118.638 71.6289C117.748 71.6289 116.966 71.8789 116.294 72.3789C115.873 72.6914 115.482 73.2422 115.123 74.0312H122.048ZM128.581 69.25H131.768V70.5508C132.495 69.9414 133.151 69.5195 133.737 69.2852C134.331 69.043 134.936 68.9219 135.553 68.9219C136.819 68.9219 137.893 69.3633 138.776 70.2461C139.518 70.9961 139.889 72.1055 139.889 73.5742V82H136.725V76.4102C136.725 74.8867 136.655 73.875 136.514 73.375C136.382 72.875 136.143 72.4961 135.8 72.2383C135.464 71.9727 135.046 71.8398 134.546 71.8398C133.897 71.8398 133.339 72.0586 132.87 72.4961C132.409 72.9258 132.089 73.5234 131.909 74.2891C131.815 74.6875 131.768 75.5508 131.768 76.8789V82H128.581V69.25ZM142.344 69.25H145.602L148.824 76.7734L152.035 69.25H155.281L149.855 82H147.781L142.344 69.25ZM157.536 69.25H160.747V82H157.536V69.25ZM159.716 62.3242H163.501L159.212 66.918H156.915L159.716 62.3242ZM170.362 68.9219C171.565 68.9219 172.694 69.2227 173.749 69.8242C174.811 70.4258 175.639 71.2422 176.233 72.2734C176.827 73.3047 177.124 74.418 177.124 75.6133C177.124 76.8164 176.823 77.9414 176.221 78.9883C175.628 80.0352 174.815 80.8555 173.784 81.4492C172.753 82.0352 171.616 82.3281 170.374 82.3281C168.545 82.3281 166.983 81.6797 165.686 80.3828C164.397 79.0781 163.753 77.4961 163.753 75.6367C163.753 73.6445 164.483 71.9844 165.944 70.6562C167.225 69.5 168.698 68.9219 170.362 68.9219ZM170.409 71.9336C169.417 71.9336 168.588 72.2812 167.924 72.9766C167.268 73.6641 166.94 74.5469 166.94 75.625C166.94 76.7344 167.264 77.6328 167.913 78.3203C168.569 79.0078 169.397 79.3516 170.397 79.3516C171.397 79.3516 172.229 79.0039 172.893 78.3086C173.557 77.6133 173.889 76.7188 173.889 75.625C173.889 74.5312 173.561 73.6445 172.905 72.9648C172.256 72.2773 171.424 71.9336 170.409 71.9336Z" fill="#444242"/>
<g filter="url(#filter1_d)">
<rect x="185.909" y="103" width="71" height="83.9091" rx="14.9762" transform="rotate(90 185.909 103)" fill="#3497DB"/>
</g>
<path d="M161.131 135.208C159.821 135.208 158.567 135.453 157.413 135.898C156.508 133.888 155.726 131.761 155.336 129.783C154.709 126.606 151.901 124.3 148.66 124.3C147.838 124.3 147.172 124.966 147.172 125.788C147.172 126.609 147.838 127.275 148.66 127.275C149.014 127.275 149.359 127.324 149.687 127.416C150.685 127.695 151.532 128.37 152.025 129.276C151.985 129.327 151.947 129.38 151.914 129.437L151.451 130.215L149.113 134.151H136.622L135.912 132.364H136.207C137.028 132.364 137.694 131.698 137.694 130.876C137.694 130.055 137.028 129.389 136.207 129.389H131.078C130.257 129.389 129.591 130.055 129.591 130.876C129.591 131.698 130.257 132.364 131.078 132.364H132.711L134.009 135.63C133.079 135.356 132.096 135.208 131.078 135.208C125.366 135.208 120.718 139.855 120.718 145.567C120.718 151.28 125.366 155.927 131.078 155.927C136.285 155.927 140.607 152.065 141.331 147.055H144.062C144.587 147.055 145.073 146.778 145.341 146.327L153.158 133.167C153.617 134.586 154.191 136.008 154.809 137.366C152.355 139.263 150.772 142.233 150.772 145.568C150.772 151.28 155.419 155.927 161.131 155.927C166.844 155.927 171.491 151.28 171.491 145.568C171.491 139.855 166.844 135.208 161.131 135.208ZM131.078 147.055H138.312C137.622 150.416 134.641 152.952 131.078 152.952C127.006 152.952 123.693 149.639 123.693 145.567C123.693 141.495 127.006 138.183 131.078 138.183C134.641 138.183 137.622 140.718 138.312 144.08H131.078C130.256 144.08 129.59 144.746 129.59 145.567C129.59 146.389 130.256 147.055 131.078 147.055ZM143.216 144.08H141.331C140.985 141.69 139.822 139.562 138.133 137.989C138.118 137.929 138.1 137.87 138.076 137.811L137.804 137.126H147.346L143.216 144.08ZM161.131 152.952C157.059 152.952 153.747 149.639 153.747 145.567C153.747 143.41 154.677 141.466 156.156 140.115C157.986 143.611 159.773 146.217 159.907 146.412C160.196 146.831 160.66 147.055 161.133 147.055C161.424 147.055 161.718 146.969 161.976 146.791C162.653 146.325 162.822 145.398 162.356 144.722C162.324 144.676 160.524 142.051 158.721 138.589C159.477 138.327 160.288 138.182 161.131 138.182C165.203 138.182 168.516 141.495 168.516 145.567C168.516 149.639 165.203 152.952 161.131 152.952Z" fill="#F5F8FA"/>
<path d="M161.131 135.208C159.821 135.208 158.567 135.453 157.413 135.898C156.508 133.888 155.726 131.761 155.336 129.783C154.709 126.606 151.901 124.3 148.66 124.3C147.838 124.3 147.172 124.966 147.172 125.788C147.172 126.609 147.838 127.275 148.66 127.275C149.014 127.275 149.359 127.324 149.687 127.416C150.685 127.695 151.532 128.37 152.025 129.276C151.985 129.327 151.947 129.38 151.914 129.437L151.451 130.215L149.113 134.151H136.622L135.912 132.364H136.207C137.028 132.364 137.694 131.698 137.694 130.876C137.694 130.055 137.028 129.389 136.207 129.389H131.078C130.257 129.389 129.591 130.055 129.591 130.876C129.591 131.698 130.257 132.364 131.078 132.364H132.711L134.009 135.63C133.079 135.356 132.096 135.208 131.078 135.208C125.366 135.208 120.718 139.855 120.718 145.567C120.718 151.28 125.366 155.927 131.078 155.927C136.285 155.927 140.607 152.065 141.331 147.055H144.062C144.587 147.055 145.073 146.778 145.341 146.327L153.158 133.167C153.617 134.586 154.191 136.008 154.809 137.366C152.355 139.263 150.772 142.233 150.772 145.568C150.772 151.28 155.419 155.927 161.131 155.927C166.844 155.927 171.491 151.28 171.491 145.568C171.491 139.855 166.844 135.208 161.131 135.208ZM131.078 147.055H138.312C137.622 150.416 134.641 152.952 131.078 152.952C127.006 152.952 123.693 149.639 123.693 145.567C123.693 141.495 127.006 138.183 131.078 138.183C134.641 138.183 137.622 140.718 138.312 144.08H131.078C130.256 144.08 129.59 144.746 129.59 145.567C129.59 146.389 130.256 147.055 131.078 147.055ZM143.216 144.08H141.331C140.985 141.69 139.822 139.562 138.133 137.989C138.118 137.929 138.1 137.87 138.076 137.811L137.804 137.126H147.346L143.216 144.08ZM161.131 152.952C157.059 152.952 153.747 149.639 153.747 145.567C153.747 143.41 154.677 141.466 156.156 140.115C157.986 143.611 159.773 146.217 159.907 146.412C160.196 146.831 160.66 147.055 161.133 147.055C161.424 147.055 161.718 146.969 161.976 146.791C162.653 146.325 162.822 145.398 162.356 144.722C162.324 144.676 160.524 142.051 158.721 138.589C159.477 138.327 160.288 138.182 161.131 138.182C165.203 138.182 168.516 141.495 168.516 145.567C168.516 149.639 165.203 152.952 161.131 152.952Z" fill="url(#paint1_linear)"/>
<defs>
<filter id="filter0_d" x="0" y="0" width="308" height="230" filterUnits="userSpaceOnUse" color-interpolation-filters="sRGB">
<feFlood flood-opacity="0" result="BackgroundImageFix"/>
<feColorMatrix in="SourceAlpha" type="matrix" values="0 0 0 0 0 0 0 0 0 0 0 0 0 0 0 0 0 0 127 0"/>
<feOffset dx="10" dy="10"/>
<feGaussianBlur stdDeviation="7.5"/>
<feColorMatrix type="matrix" values="0 0 0 0 0 0 0 0 0 0 0 0 0 0 0 0 0 0 0.2 0"/>
<feBlend mode="multiply" in2="BackgroundImageFix" result="effect1_dropShadow"/>
<feBlend mode="normal" in="SourceGraphic" in2="effect1_dropShadow" result="shape"/>
</filter>
<filter id="filter1_d" x="92.3182" y="93.3182" width="109.727" height="96.8182" filterUnits="userSpaceOnUse" color-interpolation-filters="sRGB">
<feFlood flood-opacity="0" result="BackgroundImageFix"/>
<feColorMatrix in="SourceAlpha" type="matrix" values="0 0 0 0 0 0 0 0 0 0 0 0 0 0 0 0 0 0 127 0"/>
<feOffset dx="3.22727" dy="3.22727"/>
<feGaussianBlur stdDeviation="6.45454"/>
<feColorMatrix type="matrix" values="0 0 0 0 0 0 0 0 0 0 0 0 0 0 0 0 0 0 0.15 0"/>
<feBlend mode="normal" in2="BackgroundImageFix" result="effect1_dropShadow"/>
<feBlend mode="normal" in="SourceGraphic" in2="effect1_dropShadow" result="shape"/>
</filter>
<linearGradient id="paint0_linear" x1="144" y1="5" x2="144" y2="205" gradientUnits="userSpaceOnUse">
<stop stop-color="white"/>
<stop offset="1" stop-color="white" stop-opacity="0"/>
</linearGradient>
<linearGradient id="paint1_linear" x1="146.105" y1="124.3" x2="146.105" y2="155.927" gradientUnits="userSpaceOnUse">
<stop stop-color="white"/>
<stop offset="1" stop-color="white" stop-opacity="0"/>
</linearGradient>
</defs>
</svg>
