<svg width="131" height="30" viewBox="0 0 131 30" fill="none" xmlns="http://www.w3.org/2000/svg">
<g filter="url(#filter0_d)">
<rect x="126" y="3" width="22" height="123" rx="4.64052" transform="rotate(90 126 3)" fill="#3497DB"/>
</g>
<path fill-rule="evenodd" clip-rule="evenodd" d="M29 9C29 6.79086 30.7909 5 33 5H42C44.2091 5 46 6.79086 46 9V18C46 20.2091 44.2091 22 42 22H33C30.7909 22 29 20.2091 29 18V9Z" fill="white"/>
<path d="M33 5.5H42C43.933 5.5 45.5 7.067 45.5 9V18C45.5 19.933 43.933 21.5 42 21.5H33C31.067 21.5 29.5 19.933 29.5 18V9C29.5 7.067 31.067 5.5 33 5.5Z" stroke="#E4E4E4" stroke-opacity="0.6"/>
<path d="M34.3226 11.1849L33.2169 14.4824C33.2169 14.4824 32.9361 13.0875 32.9083 12.9123C32.2789 11.4762 31.3501 11.5562 31.3501 11.5562L32.4448 15.8162V15.8153H33.7756L35.616 11.1849H34.3226Z" fill="#1565C0"/>
<path d="M35.3767 15.8158H36.5855L37.3164 11.1845H36.0925L35.3767 15.8158Z" fill="#1565C0"/>
<path d="M43.9315 11.1845H42.6596L40.6765 15.8158H41.8773L42.1249 15.1544H43.6389L43.7677 15.8158H44.8679L43.9315 11.1845ZM42.46 14.2698L43.1181 12.5196L43.4625 14.2698H42.46Z" fill="#1565C0"/>
<path d="M39.031 12.5344C39.031 12.2792 39.2407 12.0893 39.8419 12.0893C40.2327 12.0893 40.6802 12.3731 40.6802 12.3731L40.8764 11.401C40.8764 11.401 40.3047 11.1841 39.7434 11.1841C38.4723 11.1841 37.8168 11.7921 37.8168 12.5617C37.8168 13.9537 39.4921 13.7629 39.4921 14.4778C39.4921 14.6004 39.3948 14.8837 38.6972 14.8837C37.9974 14.8837 37.5356 14.6273 37.5356 14.6273L37.3271 15.5603C37.3271 15.5603 37.7747 15.8154 38.6395 15.8154C39.5064 15.8154 40.7088 15.1671 40.7088 14.2357C40.7088 13.1154 39.031 13.0345 39.031 12.5344Z" fill="#1565C0"/>
<path d="M33.0706 13.6876L32.6638 11.6885C32.6638 11.6885 32.4799 11.2553 32.0016 11.2553C31.5233 11.2553 30.1322 11.2553 30.1322 11.2553C30.1322 11.2553 32.5156 11.9593 33.0706 13.6876Z" fill="#FFC107"/>
<path fill-rule="evenodd" clip-rule="evenodd" d="M8 9C8 6.79086 9.79086 5 12 5H21C23.2091 5 25 6.79086 25 9V18C25 20.2091 23.2091 22 21 22H12C9.79086 22 8 20.2091 8 18V9Z" fill="white"/>
<path d="M12 5.5H21C22.933 5.5 24.5 7.067 24.5 9V18C24.5 19.933 22.933 21.5 21 21.5H12C10.067 21.5 8.5 19.933 8.5 18V9C8.5 7.067 10.067 5.5 12 5.5Z" stroke="#E4E4E4" stroke-opacity="0.6"/>
<ellipse cx="19.0639" cy="13.5" rx="3.94102" ry="3.94102" fill="#F79E1B"/>
<ellipse cx="13.9359" cy="13.5" rx="3.94102" ry="3.94102" fill="#EB001B"/>
<path d="M54.5708 10.9722H55.5859C56.1351 10.9722 56.5304 11.0234 56.772 11.126C57.0158 11.2262 57.2072 11.3903 57.3462 11.6182C57.4875 11.8438 57.5581 12.1149 57.5581 12.4316C57.5581 12.7826 57.4658 13.0742 57.2812 13.3066C57.099 13.5391 56.8506 13.7008 56.5361 13.792C56.3516 13.8444 56.0155 13.8706 55.5278 13.8706V16H54.5708V10.9722ZM55.5278 12.9375H55.832C56.0713 12.9375 56.2376 12.9204 56.3311 12.8862C56.4245 12.8521 56.4974 12.7962 56.5498 12.7188C56.6045 12.639 56.6318 12.5433 56.6318 12.4316C56.6318 12.238 56.5566 12.0967 56.4062 12.0078C56.2969 11.9417 56.0941 11.9087 55.7979 11.9087H55.5278V12.9375ZM61.1436 12.2812H62.0732V16H61.1436V15.6069C60.9613 15.7801 60.7778 15.9054 60.5933 15.9829C60.411 16.0581 60.2127 16.0957 59.9985 16.0957C59.5177 16.0957 59.1019 15.91 58.751 15.5386C58.4001 15.1649 58.2246 14.7012 58.2246 14.1475C58.2246 13.5732 58.3944 13.1027 58.7339 12.7358C59.0734 12.369 59.4858 12.1855 59.9712 12.1855C60.1945 12.1855 60.4041 12.2277 60.6001 12.312C60.7961 12.3963 60.9772 12.5228 61.1436 12.6914V12.2812ZM60.1626 13.0469C59.8732 13.0469 59.6328 13.1494 59.4414 13.3545C59.25 13.5573 59.1543 13.8182 59.1543 14.1372C59.1543 14.4585 59.2511 14.7228 59.4448 14.9302C59.6408 15.1375 59.8812 15.2412 60.166 15.2412C60.46 15.2412 60.7038 15.1398 60.8975 14.937C61.0911 14.7319 61.188 14.4642 61.188 14.1338C61.188 13.8102 61.0911 13.5482 60.8975 13.3477C60.7038 13.1471 60.4588 13.0469 60.1626 13.0469ZM65.7646 12.2812H66.6943V15.4668C66.6943 16.0957 66.5679 16.5583 66.3149 16.8545C65.9754 17.2555 65.4639 17.4561 64.7803 17.4561C64.4157 17.4561 64.1092 17.4105 63.8608 17.3193C63.6125 17.2282 63.4028 17.0938 63.2319 16.916C63.061 16.7406 62.9346 16.5264 62.8525 16.2734H63.8813C63.9725 16.3783 64.0898 16.4569 64.2334 16.5093C64.377 16.564 64.5467 16.5913 64.7427 16.5913C64.9933 16.5913 65.195 16.5526 65.3477 16.4751C65.5003 16.3976 65.6074 16.2974 65.6689 16.1743C65.7327 16.0513 65.7646 15.8394 65.7646 15.5386C65.6006 15.7026 65.4285 15.8211 65.2485 15.894C65.0685 15.9647 64.8646 16 64.6367 16C64.1377 16 63.7161 15.82 63.3721 15.46C63.028 15.0999 62.856 14.6442 62.856 14.0928C62.856 13.5026 63.0382 13.0286 63.4028 12.6709C63.7332 12.3473 64.1274 12.1855 64.5854 12.1855C64.7996 12.1855 65.0013 12.2254 65.1904 12.3052C65.3818 12.3826 65.5732 12.5114 65.7646 12.6914V12.2812ZM64.7974 13.0571C64.5034 13.0571 64.2607 13.1562 64.0693 13.3545C63.8779 13.5505 63.7822 13.7977 63.7822 14.0962C63.7822 14.4061 63.8802 14.6602 64.0762 14.8584C64.2721 15.0566 64.5182 15.1558 64.8145 15.1558C65.1038 15.1558 65.342 15.0589 65.5288 14.8652C65.7179 14.6715 65.8125 14.4175 65.8125 14.103C65.8125 13.7931 65.7179 13.5413 65.5288 13.3477C65.3397 13.154 65.0959 13.0571 64.7974 13.0571ZM69.3843 12.1855C69.7352 12.1855 70.0645 12.2733 70.3721 12.4487C70.682 12.6242 70.9235 12.8623 71.0967 13.1631C71.2699 13.4639 71.3564 13.7886 71.3564 14.1372C71.3564 14.4881 71.2687 14.8162 71.0933 15.1216C70.9201 15.4269 70.6831 15.6662 70.3823 15.8394C70.0815 16.0103 69.75 16.0957 69.3877 16.0957C68.8545 16.0957 68.3988 15.9066 68.0205 15.5283C67.6445 15.1478 67.4565 14.6864 67.4565 14.144C67.4565 13.563 67.6696 13.0788 68.0957 12.6914C68.4694 12.3542 68.8989 12.1855 69.3843 12.1855ZM69.3979 13.064C69.1086 13.064 68.867 13.1654 68.6733 13.3682C68.4819 13.5687 68.3862 13.8262 68.3862 14.1406C68.3862 14.4642 68.4808 14.7262 68.6699 14.9268C68.8613 15.1273 69.1029 15.2275 69.3945 15.2275C69.6862 15.2275 69.9289 15.1261 70.1226 14.9233C70.3162 14.7205 70.4131 14.4596 70.4131 14.1406C70.4131 13.8216 70.3174 13.563 70.126 13.3647C69.9368 13.1642 69.6942 13.064 69.3979 13.064ZM77.7241 13.0332L76.9482 13.4604C76.8024 13.3078 76.6577 13.2018 76.5142 13.1426C76.3729 13.0833 76.2065 13.0537 76.0151 13.0537C75.6665 13.0537 75.384 13.1585 75.1675 13.3682C74.9533 13.5755 74.8462 13.8421 74.8462 14.168C74.8462 14.4847 74.9499 14.7433 75.1572 14.9438C75.3646 15.1444 75.6369 15.2446 75.9741 15.2446C76.3911 15.2446 76.7158 15.1022 76.9482 14.8174L77.6831 15.3198C77.2843 15.8371 76.7215 16.0957 75.9946 16.0957C75.3407 16.0957 74.828 15.902 74.4565 15.5146C74.0874 15.1273 73.9028 14.6738 73.9028 14.1543C73.9028 13.7943 73.9928 13.4627 74.1729 13.1597C74.3529 12.8566 74.6035 12.6185 74.9248 12.4453C75.2484 12.2721 75.6095 12.1855 76.0083 12.1855C76.3774 12.1855 76.709 12.2596 77.0029 12.4077C77.2969 12.5535 77.5373 12.762 77.7241 13.0332ZM80.3149 12.1855C80.6659 12.1855 80.9951 12.2733 81.3027 12.4487C81.6126 12.6242 81.8542 12.8623 82.0273 13.1631C82.2005 13.4639 82.2871 13.7886 82.2871 14.1372C82.2871 14.4881 82.1994 14.8162 82.0239 15.1216C81.8507 15.4269 81.6138 15.6662 81.313 15.8394C81.0122 16.0103 80.6807 16.0957 80.3184 16.0957C79.7852 16.0957 79.3294 15.9066 78.9512 15.5283C78.5752 15.1478 78.3872 14.6864 78.3872 14.144C78.3872 13.563 78.6003 13.0788 79.0264 12.6914C79.4001 12.3542 79.8296 12.1855 80.3149 12.1855ZM80.3286 13.064C80.0392 13.064 79.7977 13.1654 79.604 13.3682C79.4126 13.5687 79.3169 13.8262 79.3169 14.1406C79.3169 14.4642 79.4115 14.7262 79.6006 14.9268C79.792 15.1273 80.0335 15.2275 80.3252 15.2275C80.6169 15.2275 80.8595 15.1261 81.0532 14.9233C81.2469 14.7205 81.3438 14.4596 81.3438 14.1406C81.3438 13.8216 81.248 13.563 81.0566 13.3647C80.8675 13.1642 80.6248 13.064 80.3286 13.064ZM83.0527 12.2812H83.9824V12.6606C84.1943 12.4829 84.3857 12.3599 84.5566 12.2915C84.7298 12.2209 84.9064 12.1855 85.0864 12.1855C85.4556 12.1855 85.7689 12.3143 86.0264 12.5718C86.2428 12.7905 86.3511 13.1141 86.3511 13.5425V16H85.4282V14.3696C85.4282 13.9253 85.4077 13.6302 85.3667 13.4844C85.328 13.3385 85.2585 13.228 85.1582 13.1528C85.0602 13.0754 84.9383 13.0366 84.7925 13.0366C84.6034 13.0366 84.4404 13.1004 84.3037 13.228C84.1693 13.3534 84.0758 13.5277 84.0234 13.751C83.9961 13.8672 83.9824 14.119 83.9824 14.5063V16H83.0527V12.2812ZM88.8257 10.9722H91.6045V11.9155H90.6885V16H89.7178V11.9155H88.8257V10.9722ZM94.9062 12.2812H95.8359V16H94.9062V15.6069C94.724 15.7801 94.5405 15.9054 94.356 15.9829C94.1737 16.0581 93.9754 16.0957 93.7612 16.0957C93.2804 16.0957 92.8646 15.91 92.5137 15.5386C92.1628 15.1649 91.9873 14.7012 91.9873 14.1475C91.9873 13.5732 92.1571 13.1027 92.4966 12.7358C92.8361 12.369 93.2485 12.1855 93.7339 12.1855C93.9572 12.1855 94.1668 12.2277 94.3628 12.312C94.5588 12.3963 94.7399 12.5228 94.9062 12.6914V12.2812ZM93.9253 13.0469C93.6359 13.0469 93.3955 13.1494 93.2041 13.3545C93.0127 13.5573 92.917 13.8182 92.917 14.1372C92.917 14.4585 93.0138 14.7228 93.2075 14.9302C93.4035 15.1375 93.6439 15.2412 93.9287 15.2412C94.2227 15.2412 94.4665 15.1398 94.6602 14.937C94.8538 14.7319 94.9507 14.4642 94.9507 14.1338C94.9507 13.8102 94.8538 13.5482 94.6602 13.3477C94.4665 13.1471 94.2215 13.0469 93.9253 13.0469ZM96.5605 12.2812H97.3604V12.7495C97.4469 12.5649 97.562 12.4248 97.7056 12.3291C97.8491 12.2334 98.0063 12.1855 98.1772 12.1855C98.298 12.1855 98.4245 12.2174 98.5566 12.2812L98.2661 13.0845C98.1567 13.0298 98.0667 13.0024 97.9961 13.0024C97.8525 13.0024 97.7306 13.0913 97.6304 13.269C97.5324 13.4468 97.4834 13.7954 97.4834 14.3149L97.4868 14.4961V16H96.5605V12.2812ZM99.459 10.75C99.6253 10.75 99.7666 10.8092 99.8828 10.9277C100.001 11.0462 100.061 11.1898 100.061 11.3584C100.061 11.5247 100.002 11.6672 99.8862 11.7856C99.77 11.9041 99.631 11.9634 99.4692 11.9634C99.3029 11.9634 99.1605 11.903 99.042 11.7822C98.9258 11.6615 98.8677 11.5156 98.8677 11.3447C98.8677 11.1807 98.9246 11.0405 99.0386 10.9243C99.1548 10.8081 99.2949 10.75 99.459 10.75ZM98.9941 12.2812H99.9272V16.123C99.9272 16.4762 99.8919 16.7394 99.8213 16.9126C99.7529 17.0881 99.6436 17.2225 99.4932 17.3159C99.3428 17.4093 99.1616 17.4561 98.9497 17.4561C98.7629 17.4561 98.5304 17.4093 98.2524 17.3159V16.5811C98.3983 16.6517 98.527 16.687 98.6387 16.687C98.7572 16.687 98.846 16.6517 98.9053 16.5811C98.9645 16.5104 98.9941 16.3805 98.9941 16.1914V12.2812ZM104.565 14.4106H101.568C101.611 14.675 101.726 14.8857 101.913 15.043C102.102 15.1979 102.343 15.2754 102.634 15.2754C102.983 15.2754 103.283 15.1535 103.533 14.9097L104.319 15.2788C104.123 15.5568 103.889 15.763 103.615 15.8975C103.342 16.0296 103.017 16.0957 102.641 16.0957C102.058 16.0957 101.583 15.9123 101.216 15.5454C100.849 15.1763 100.666 14.7148 100.666 14.1611C100.666 13.5938 100.848 13.1232 101.212 12.7495C101.579 12.3735 102.038 12.1855 102.59 12.1855C103.175 12.1855 103.652 12.3735 104.019 12.7495C104.385 13.1232 104.569 13.6177 104.569 14.2329L104.565 14.4106ZM103.629 13.6758C103.567 13.4684 103.445 13.2998 103.263 13.1699C103.083 13.04 102.874 12.9751 102.634 12.9751C102.375 12.9751 102.147 13.048 101.951 13.1938C101.828 13.285 101.714 13.4456 101.609 13.6758H103.629ZM105.437 10.9106H106.367V12.2812H106.92V13.0845H106.367V16H105.437V13.0845H104.958V12.2812H105.437V10.9106ZM110.171 12.2812H111.101V16H110.171V15.6069C109.989 15.7801 109.805 15.9054 109.621 15.9829C109.438 16.0581 109.24 16.0957 109.026 16.0957C108.545 16.0957 108.129 15.91 107.778 15.5386C107.427 15.1649 107.252 14.7012 107.252 14.1475C107.252 13.5732 107.422 13.1027 107.761 12.7358C108.101 12.369 108.513 12.1855 108.999 12.1855C109.222 12.1855 109.431 12.2277 109.627 12.312C109.823 12.3963 110.005 12.5228 110.171 12.6914V12.2812ZM109.19 13.0469C108.901 13.0469 108.66 13.1494 108.469 13.3545C108.277 13.5573 108.182 13.8182 108.182 14.1372C108.182 14.4585 108.278 14.7228 108.472 14.9302C108.668 15.1375 108.909 15.2412 109.193 15.2412C109.487 15.2412 109.731 15.1398 109.925 14.937C110.118 14.7319 110.215 14.4642 110.215 14.1338C110.215 13.8102 110.118 13.5482 109.925 13.3477C109.731 13.1471 109.486 13.0469 109.19 13.0469Z" fill="#F5F8FA"/>
<path d="M54.5708 10.9722H55.5859C56.1351 10.9722 56.5304 11.0234 56.772 11.126C57.0158 11.2262 57.2072 11.3903 57.3462 11.6182C57.4875 11.8438 57.5581 12.1149 57.5581 12.4316C57.5581 12.7826 57.4658 13.0742 57.2812 13.3066C57.099 13.5391 56.8506 13.7008 56.5361 13.792C56.3516 13.8444 56.0155 13.8706 55.5278 13.8706V16H54.5708V10.9722ZM55.5278 12.9375H55.832C56.0713 12.9375 56.2376 12.9204 56.3311 12.8862C56.4245 12.8521 56.4974 12.7962 56.5498 12.7188C56.6045 12.639 56.6318 12.5433 56.6318 12.4316C56.6318 12.238 56.5566 12.0967 56.4062 12.0078C56.2969 11.9417 56.0941 11.9087 55.7979 11.9087H55.5278V12.9375ZM61.1436 12.2812H62.0732V16H61.1436V15.6069C60.9613 15.7801 60.7778 15.9054 60.5933 15.9829C60.411 16.0581 60.2127 16.0957 59.9985 16.0957C59.5177 16.0957 59.1019 15.91 58.751 15.5386C58.4001 15.1649 58.2246 14.7012 58.2246 14.1475C58.2246 13.5732 58.3944 13.1027 58.7339 12.7358C59.0734 12.369 59.4858 12.1855 59.9712 12.1855C60.1945 12.1855 60.4041 12.2277 60.6001 12.312C60.7961 12.3963 60.9772 12.5228 61.1436 12.6914V12.2812ZM60.1626 13.0469C59.8732 13.0469 59.6328 13.1494 59.4414 13.3545C59.25 13.5573 59.1543 13.8182 59.1543 14.1372C59.1543 14.4585 59.2511 14.7228 59.4448 14.9302C59.6408 15.1375 59.8812 15.2412 60.166 15.2412C60.46 15.2412 60.7038 15.1398 60.8975 14.937C61.0911 14.7319 61.188 14.4642 61.188 14.1338C61.188 13.8102 61.0911 13.5482 60.8975 13.3477C60.7038 13.1471 60.4588 13.0469 60.1626 13.0469ZM65.7646 12.2812H66.6943V15.4668C66.6943 16.0957 66.5679 16.5583 66.3149 16.8545C65.9754 17.2555 65.4639 17.4561 64.7803 17.4561C64.4157 17.4561 64.1092 17.4105 63.8608 17.3193C63.6125 17.2282 63.4028 17.0938 63.2319 16.916C63.061 16.7406 62.9346 16.5264 62.8525 16.2734H63.8813C63.9725 16.3783 64.0898 16.4569 64.2334 16.5093C64.377 16.564 64.5467 16.5913 64.7427 16.5913C64.9933 16.5913 65.195 16.5526 65.3477 16.4751C65.5003 16.3976 65.6074 16.2974 65.6689 16.1743C65.7327 16.0513 65.7646 15.8394 65.7646 15.5386C65.6006 15.7026 65.4285 15.8211 65.2485 15.894C65.0685 15.9647 64.8646 16 64.6367 16C64.1377 16 63.7161 15.82 63.3721 15.46C63.028 15.0999 62.856 14.6442 62.856 14.0928C62.856 13.5026 63.0382 13.0286 63.4028 12.6709C63.7332 12.3473 64.1274 12.1855 64.5854 12.1855C64.7996 12.1855 65.0013 12.2254 65.1904 12.3052C65.3818 12.3826 65.5732 12.5114 65.7646 12.6914V12.2812ZM64.7974 13.0571C64.5034 13.0571 64.2607 13.1562 64.0693 13.3545C63.8779 13.5505 63.7822 13.7977 63.7822 14.0962C63.7822 14.4061 63.8802 14.6602 64.0762 14.8584C64.2721 15.0566 64.5182 15.1558 64.8145 15.1558C65.1038 15.1558 65.342 15.0589 65.5288 14.8652C65.7179 14.6715 65.8125 14.4175 65.8125 14.103C65.8125 13.7931 65.7179 13.5413 65.5288 13.3477C65.3397 13.154 65.0959 13.0571 64.7974 13.0571ZM69.3843 12.1855C69.7352 12.1855 70.0645 12.2733 70.3721 12.4487C70.682 12.6242 70.9235 12.8623 71.0967 13.1631C71.2699 13.4639 71.3564 13.7886 71.3564 14.1372C71.3564 14.4881 71.2687 14.8162 71.0933 15.1216C70.9201 15.4269 70.6831 15.6662 70.3823 15.8394C70.0815 16.0103 69.75 16.0957 69.3877 16.0957C68.8545 16.0957 68.3988 15.9066 68.0205 15.5283C67.6445 15.1478 67.4565 14.6864 67.4565 14.144C67.4565 13.563 67.6696 13.0788 68.0957 12.6914C68.4694 12.3542 68.8989 12.1855 69.3843 12.1855ZM69.3979 13.064C69.1086 13.064 68.867 13.1654 68.6733 13.3682C68.4819 13.5687 68.3862 13.8262 68.3862 14.1406C68.3862 14.4642 68.4808 14.7262 68.6699 14.9268C68.8613 15.1273 69.1029 15.2275 69.3945 15.2275C69.6862 15.2275 69.9289 15.1261 70.1226 14.9233C70.3162 14.7205 70.4131 14.4596 70.4131 14.1406C70.4131 13.8216 70.3174 13.563 70.126 13.3647C69.9368 13.1642 69.6942 13.064 69.3979 13.064ZM77.7241 13.0332L76.9482 13.4604C76.8024 13.3078 76.6577 13.2018 76.5142 13.1426C76.3729 13.0833 76.2065 13.0537 76.0151 13.0537C75.6665 13.0537 75.384 13.1585 75.1675 13.3682C74.9533 13.5755 74.8462 13.8421 74.8462 14.168C74.8462 14.4847 74.9499 14.7433 75.1572 14.9438C75.3646 15.1444 75.6369 15.2446 75.9741 15.2446C76.3911 15.2446 76.7158 15.1022 76.9482 14.8174L77.6831 15.3198C77.2843 15.8371 76.7215 16.0957 75.9946 16.0957C75.3407 16.0957 74.828 15.902 74.4565 15.5146C74.0874 15.1273 73.9028 14.6738 73.9028 14.1543C73.9028 13.7943 73.9928 13.4627 74.1729 13.1597C74.3529 12.8566 74.6035 12.6185 74.9248 12.4453C75.2484 12.2721 75.6095 12.1855 76.0083 12.1855C76.3774 12.1855 76.709 12.2596 77.0029 12.4077C77.2969 12.5535 77.5373 12.762 77.7241 13.0332ZM80.3149 12.1855C80.6659 12.1855 80.9951 12.2733 81.3027 12.4487C81.6126 12.6242 81.8542 12.8623 82.0273 13.1631C82.2005 13.4639 82.2871 13.7886 82.2871 14.1372C82.2871 14.4881 82.1994 14.8162 82.0239 15.1216C81.8507 15.4269 81.6138 15.6662 81.313 15.8394C81.0122 16.0103 80.6807 16.0957 80.3184 16.0957C79.7852 16.0957 79.3294 15.9066 78.9512 15.5283C78.5752 15.1478 78.3872 14.6864 78.3872 14.144C78.3872 13.563 78.6003 13.0788 79.0264 12.6914C79.4001 12.3542 79.8296 12.1855 80.3149 12.1855ZM80.3286 13.064C80.0392 13.064 79.7977 13.1654 79.604 13.3682C79.4126 13.5687 79.3169 13.8262 79.3169 14.1406C79.3169 14.4642 79.4115 14.7262 79.6006 14.9268C79.792 15.1273 80.0335 15.2275 80.3252 15.2275C80.6169 15.2275 80.8595 15.1261 81.0532 14.9233C81.2469 14.7205 81.3438 14.4596 81.3438 14.1406C81.3438 13.8216 81.248 13.563 81.0566 13.3647C80.8675 13.1642 80.6248 13.064 80.3286 13.064ZM83.0527 12.2812H83.9824V12.6606C84.1943 12.4829 84.3857 12.3599 84.5566 12.2915C84.7298 12.2209 84.9064 12.1855 85.0864 12.1855C85.4556 12.1855 85.7689 12.3143 86.0264 12.5718C86.2428 12.7905 86.3511 13.1141 86.3511 13.5425V16H85.4282V14.3696C85.4282 13.9253 85.4077 13.6302 85.3667 13.4844C85.328 13.3385 85.2585 13.228 85.1582 13.1528C85.0602 13.0754 84.9383 13.0366 84.7925 13.0366C84.6034 13.0366 84.4404 13.1004 84.3037 13.228C84.1693 13.3534 84.0758 13.5277 84.0234 13.751C83.9961 13.8672 83.9824 14.119 83.9824 14.5063V16H83.0527V12.2812ZM88.8257 10.9722H91.6045V11.9155H90.6885V16H89.7178V11.9155H88.8257V10.9722ZM94.9062 12.2812H95.8359V16H94.9062V15.6069C94.724 15.7801 94.5405 15.9054 94.356 15.9829C94.1737 16.0581 93.9754 16.0957 93.7612 16.0957C93.2804 16.0957 92.8646 15.91 92.5137 15.5386C92.1628 15.1649 91.9873 14.7012 91.9873 14.1475C91.9873 13.5732 92.1571 13.1027 92.4966 12.7358C92.8361 12.369 93.2485 12.1855 93.7339 12.1855C93.9572 12.1855 94.1668 12.2277 94.3628 12.312C94.5588 12.3963 94.7399 12.5228 94.9062 12.6914V12.2812ZM93.9253 13.0469C93.6359 13.0469 93.3955 13.1494 93.2041 13.3545C93.0127 13.5573 92.917 13.8182 92.917 14.1372C92.917 14.4585 93.0138 14.7228 93.2075 14.9302C93.4035 15.1375 93.6439 15.2412 93.9287 15.2412C94.2227 15.2412 94.4665 15.1398 94.6602 14.937C94.8538 14.7319 94.9507 14.4642 94.9507 14.1338C94.9507 13.8102 94.8538 13.5482 94.6602 13.3477C94.4665 13.1471 94.2215 13.0469 93.9253 13.0469ZM96.5605 12.2812H97.3604V12.7495C97.4469 12.5649 97.562 12.4248 97.7056 12.3291C97.8491 12.2334 98.0063 12.1855 98.1772 12.1855C98.298 12.1855 98.4245 12.2174 98.5566 12.2812L98.2661 13.0845C98.1567 13.0298 98.0667 13.0024 97.9961 13.0024C97.8525 13.0024 97.7306 13.0913 97.6304 13.269C97.5324 13.4468 97.4834 13.7954 97.4834 14.3149L97.4868 14.4961V16H96.5605V12.2812ZM99.459 10.75C99.6253 10.75 99.7666 10.8092 99.8828 10.9277C100.001 11.0462 100.061 11.1898 100.061 11.3584C100.061 11.5247 100.002 11.6672 99.8862 11.7856C99.77 11.9041 99.631 11.9634 99.4692 11.9634C99.3029 11.9634 99.1605 11.903 99.042 11.7822C98.9258 11.6615 98.8677 11.5156 98.8677 11.3447C98.8677 11.1807 98.9246 11.0405 99.0386 10.9243C99.1548 10.8081 99.2949 10.75 99.459 10.75ZM98.9941 12.2812H99.9272V16.123C99.9272 16.4762 99.8919 16.7394 99.8213 16.9126C99.7529 17.0881 99.6436 17.2225 99.4932 17.3159C99.3428 17.4093 99.1616 17.4561 98.9497 17.4561C98.7629 17.4561 98.5304 17.4093 98.2524 17.3159V16.5811C98.3983 16.6517 98.527 16.687 98.6387 16.687C98.7572 16.687 98.846 16.6517 98.9053 16.5811C98.9645 16.5104 98.9941 16.3805 98.9941 16.1914V12.2812ZM104.565 14.4106H101.568C101.611 14.675 101.726 14.8857 101.913 15.043C102.102 15.1979 102.343 15.2754 102.634 15.2754C102.983 15.2754 103.283 15.1535 103.533 14.9097L104.319 15.2788C104.123 15.5568 103.889 15.763 103.615 15.8975C103.342 16.0296 103.017 16.0957 102.641 16.0957C102.058 16.0957 101.583 15.9123 101.216 15.5454C100.849 15.1763 100.666 14.7148 100.666 14.1611C100.666 13.5938 100.848 13.1232 101.212 12.7495C101.579 12.3735 102.038 12.1855 102.59 12.1855C103.175 12.1855 103.652 12.3735 104.019 12.7495C104.385 13.1232 104.569 13.6177 104.569 14.2329L104.565 14.4106ZM103.629 13.6758C103.567 13.4684 103.445 13.2998 103.263 13.1699C103.083 13.04 102.874 12.9751 102.634 12.9751C102.375 12.9751 102.147 13.048 101.951 13.1938C101.828 13.285 101.714 13.4456 101.609 13.6758H103.629ZM105.437 10.9106H106.367V12.2812H106.92V13.0845H106.367V16H105.437V13.0845H104.958V12.2812H105.437V10.9106ZM110.171 12.2812H111.101V16H110.171V15.6069C109.989 15.7801 109.805 15.9054 109.621 15.9829C109.438 16.0581 109.24 16.0957 109.026 16.0957C108.545 16.0957 108.129 15.91 107.778 15.5386C107.427 15.1649 107.252 14.7012 107.252 14.1475C107.252 13.5732 107.422 13.1027 107.761 12.7358C108.101 12.369 108.513 12.1855 108.999 12.1855C109.222 12.1855 109.431 12.2277 109.627 12.312C109.823 12.3963 110.005 12.5228 110.171 12.6914V12.2812ZM109.19 13.0469C108.901 13.0469 108.66 13.1494 108.469 13.3545C108.277 13.5573 108.182 13.8182 108.182 14.1372C108.182 14.4585 108.278 14.7228 108.472 14.9302C108.668 15.1375 108.909 15.2412 109.193 15.2412C109.487 15.2412 109.731 15.1398 109.925 14.937C110.118 14.7319 110.215 14.4642 110.215 14.1338C110.215 13.8102 110.118 13.5482 109.925 13.3477C109.731 13.1471 109.486 13.0469 109.19 13.0469Z" fill="url(#paint0_linear)"/>
<defs>
<filter id="filter0_d" x="0" y="0" width="131" height="30" filterUnits="userSpaceOnUse" color-interpolation-filters="sRGB">
<feFlood flood-opacity="0" result="BackgroundImageFix"/>
<feColorMatrix in="SourceAlpha" type="matrix" values="0 0 0 0 0 0 0 0 0 0 0 0 0 0 0 0 0 0 127 0"/>
<feOffset dx="1" dy="1"/>
<feGaussianBlur stdDeviation="2"/>
<feColorMatrix type="matrix" values="0 0 0 0 0 0 0 0 0 0 0 0 0 0 0 0 0 0 0.15 0"/>
<feBlend mode="normal" in2="BackgroundImageFix" result="effect1_dropShadow"/>
<feBlend mode="normal" in="SourceGraphic" in2="effect1_dropShadow" result="shape"/>
</filter>
<linearGradient id="paint0_linear" x1="83" y1="9" x2="83" y2="18" gradientUnits="userSpaceOnUse">
<stop stop-color="white"/>
<stop offset="1" stop-color="white" stop-opacity="0"/>
</linearGradient>
</defs>
</svg>
