<svg width="130" height="31" viewBox="0 0 130 31" fill="none" xmlns="http://www.w3.org/2000/svg">
<g filter="url(#filter0_d)">
<rect x="125" y="4" width="22" height="122" rx="4.64052" transform="rotate(90 125 4)" fill="#3497DB"/>
</g>
<path d="M26.8284 5.17165C26.6627 5.00587 26.414 4.95489 26.1965 5.04192L7.36834 12.5731C7.15291 12.6593 7.00865 12.8644 7.00037 13.0963C6.99213 13.3282 7.1215 13.5431 7.33026 13.6444L14.7548 17.2452L18.3557 24.6697C18.4539 24.8722 18.6589 25 18.8827 25C18.8897 25 18.8967 24.9999 18.9037 24.9996C19.1355 24.9914 19.3407 24.8471 19.4269 24.6317L26.9581 5.8036C27.0452 5.58595 26.9942 5.33739 26.8284 5.17165ZM9.03491 13.1687L23.9813 7.19017L15.0739 16.0975L9.03491 13.1687ZM18.8314 22.9651L15.9025 16.9261L24.8099 8.01876L18.8314 22.9651Z" fill="#F5F8FA"/>
<path d="M26.8284 5.17165C26.6627 5.00587 26.414 4.95489 26.1965 5.04192L7.36834 12.5731C7.15291 12.6593 7.00865 12.8644 7.00037 13.0963C6.99213 13.3282 7.1215 13.5431 7.33026 13.6444L14.7548 17.2452L18.3557 24.6697C18.4539 24.8722 18.6589 25 18.8827 25C18.8897 25 18.8967 24.9999 18.9037 24.9996C19.1355 24.9914 19.3407 24.8471 19.4269 24.6317L26.9581 5.8036C27.0452 5.58595 26.9942 5.33739 26.8284 5.17165ZM9.03491 13.1687L23.9813 7.19017L15.0739 16.0975L9.03491 13.1687ZM18.8314 22.9651L15.9025 16.9261L24.8099 8.01876L18.8314 22.9651Z" fill="url(#paint0_linear)"/>
<path d="M34.0786 11.9722H36.8574V12.9155H35.9414V17H34.9707V12.9155H34.0786V11.9722ZM37.1924 13.2812H37.9922V13.7495C38.0788 13.5649 38.1938 13.4248 38.3374 13.3291C38.481 13.2334 38.6382 13.1855 38.8091 13.1855C38.9299 13.1855 39.0563 13.2174 39.1885 13.2812L38.8979 14.0845C38.7886 14.0298 38.6986 14.0024 38.6279 14.0024C38.4844 14.0024 38.3625 14.0913 38.2622 14.269C38.1642 14.4468 38.1152 14.7954 38.1152 15.3149L38.1187 15.4961V17H37.1924V13.2812ZM42.4014 13.2812H43.3311V17H42.4014V16.6069C42.2191 16.7801 42.0356 16.9054 41.8511 16.9829C41.6688 17.0581 41.4705 17.0957 41.2563 17.0957C40.7756 17.0957 40.3597 16.91 40.0088 16.5386C39.6579 16.1649 39.4824 15.7012 39.4824 15.1475C39.4824 14.5732 39.6522 14.1027 39.9917 13.7358C40.3312 13.369 40.7437 13.1855 41.229 13.1855C41.4523 13.1855 41.6619 13.2277 41.8579 13.312C42.0539 13.3963 42.235 13.5228 42.4014 13.6914V13.2812ZM41.4204 14.0469C41.131 14.0469 40.8906 14.1494 40.6992 14.3545C40.5078 14.5573 40.4121 14.8182 40.4121 15.1372C40.4121 15.4585 40.509 15.7228 40.7026 15.9302C40.8986 16.1375 41.139 16.2412 41.4238 16.2412C41.7178 16.2412 41.9616 16.1398 42.1553 15.937C42.349 15.7319 42.4458 15.4642 42.4458 15.1338C42.4458 14.8102 42.349 14.5482 42.1553 14.3477C41.9616 14.1471 41.7166 14.0469 41.4204 14.0469ZM44.2744 13.2812H45.2041V13.6606C45.416 13.4829 45.6074 13.3599 45.7783 13.2915C45.9515 13.2209 46.1281 13.1855 46.3081 13.1855C46.6772 13.1855 46.9906 13.3143 47.248 13.5718C47.4645 13.7905 47.5728 14.1141 47.5728 14.5425V17H46.6499V15.3696C46.6499 14.9253 46.6294 14.6302 46.5884 14.4844C46.5496 14.3385 46.4801 14.228 46.3799 14.1528C46.2819 14.0754 46.16 14.0366 46.0142 14.0366C45.825 14.0366 45.6621 14.1004 45.5254 14.228C45.391 14.3534 45.2975 14.5277 45.2451 14.751C45.2178 14.8672 45.2041 15.119 45.2041 15.5063V17H44.2744V13.2812ZM50.7549 13.8008L50.1772 14.3784C49.9425 14.146 49.7295 14.0298 49.5381 14.0298C49.4333 14.0298 49.3512 14.0526 49.292 14.0981C49.2327 14.1414 49.2031 14.1961 49.2031 14.2622C49.2031 14.3123 49.2214 14.359 49.2578 14.4023C49.2965 14.4434 49.39 14.5003 49.5381 14.5732L49.8799 14.7441C50.2399 14.9219 50.4871 15.103 50.6216 15.2876C50.756 15.4722 50.8232 15.6886 50.8232 15.937C50.8232 16.2674 50.7013 16.5431 50.4575 16.7642C50.216 16.9852 49.8913 17.0957 49.4834 17.0957C48.9411 17.0957 48.5081 16.8838 48.1846 16.46L48.7588 15.8345C48.8682 15.9621 48.9958 16.0658 49.1416 16.1455C49.2897 16.223 49.4207 16.2617 49.5347 16.2617C49.6577 16.2617 49.7568 16.2321 49.832 16.1729C49.9072 16.1136 49.9448 16.0452 49.9448 15.9678C49.9448 15.8242 49.8092 15.6841 49.5381 15.5474L49.2236 15.3901C48.6221 15.0871 48.3213 14.7077 48.3213 14.252C48.3213 13.958 48.4341 13.7074 48.6597 13.5C48.8875 13.2904 49.1781 13.1855 49.5312 13.1855C49.7728 13.1855 49.9995 13.2391 50.2114 13.3462C50.4256 13.451 50.6068 13.6025 50.7549 13.8008ZM51.1172 13.2812H51.4487C51.451 12.7936 51.459 12.5054 51.4727 12.4165C51.4977 12.2114 51.5832 12.0496 51.729 11.9312C51.8771 11.8104 52.0856 11.75 52.3545 11.75C52.5482 11.75 52.7669 11.7944 53.0107 11.8833V12.5942C52.8763 12.5555 52.7658 12.5361 52.6792 12.5361C52.5698 12.5361 52.4901 12.5589 52.4399 12.6045C52.4035 12.6387 52.3853 12.7093 52.3853 12.8164L52.3818 13.2812H52.9731V14.0742H52.3818V17H51.4487V14.0742H51.1172V13.2812ZM57.249 15.4106H54.2515C54.2948 15.675 54.4098 15.8857 54.5967 16.043C54.7858 16.1979 55.0262 16.2754 55.3179 16.2754C55.6665 16.2754 55.9661 16.1535 56.2168 15.9097L57.0029 16.2788C56.807 16.5568 56.5723 16.763 56.2988 16.8975C56.0254 17.0296 55.7007 17.0957 55.3247 17.0957C54.7414 17.0957 54.2663 16.9123 53.8994 16.5454C53.5326 16.1763 53.3491 15.7148 53.3491 15.1611C53.3491 14.5938 53.5314 14.1232 53.896 13.7495C54.2629 13.3735 54.722 13.1855 55.2734 13.1855C55.859 13.1855 56.3353 13.3735 56.7021 13.7495C57.069 14.1232 57.2524 14.6177 57.2524 15.2329L57.249 15.4106ZM56.3125 14.6758C56.251 14.4684 56.1291 14.2998 55.9468 14.1699C55.7668 14.04 55.5571 13.9751 55.3179 13.9751C55.0581 13.9751 54.8302 14.048 54.6343 14.1938C54.5112 14.285 54.3973 14.4456 54.2925 14.6758H56.3125ZM57.7891 13.2812H58.5889V13.7495C58.6755 13.5649 58.7905 13.4248 58.9341 13.3291C59.0776 13.2334 59.2349 13.1855 59.4058 13.1855C59.5265 13.1855 59.653 13.2174 59.7852 13.2812L59.4946 14.0845C59.3853 14.0298 59.2952 14.0024 59.2246 14.0024C59.0811 14.0024 58.9591 14.0913 58.8589 14.269C58.7609 14.4468 58.7119 14.7954 58.7119 15.3149L58.7153 15.4961V17H57.7891V13.2812ZM63.9756 15.4106H60.978C61.0213 15.675 61.1364 15.8857 61.3232 16.043C61.5124 16.1979 61.7528 16.2754 62.0444 16.2754C62.3931 16.2754 62.6927 16.1535 62.9434 15.9097L63.7295 16.2788C63.5335 16.5568 63.2988 16.763 63.0254 16.8975C62.752 17.0296 62.4272 17.0957 62.0513 17.0957C61.4679 17.0957 60.9928 16.9123 60.626 16.5454C60.2591 16.1763 60.0757 15.7148 60.0757 15.1611C60.0757 14.5938 60.258 14.1232 60.6226 13.7495C60.9894 13.3735 61.4486 13.1855 62 13.1855C62.5856 13.1855 63.0618 13.3735 63.4287 13.7495C63.7956 14.1232 63.979 14.6177 63.979 15.2329L63.9756 15.4106ZM63.0391 14.6758C62.9775 14.4684 62.8556 14.2998 62.6733 14.1699C62.4933 14.04 62.2837 13.9751 62.0444 13.9751C61.7847 13.9751 61.5568 14.048 61.3608 14.1938C61.2378 14.285 61.1239 14.4456 61.019 14.6758H63.0391ZM64.7344 13.2812H65.6641V13.6606C65.876 13.4829 66.0674 13.3599 66.2383 13.2915C66.4115 13.2209 66.5881 13.1855 66.7681 13.1855C67.1372 13.1855 67.4505 13.3143 67.708 13.5718C67.9245 13.7905 68.0327 14.1141 68.0327 14.5425V17H67.1099V15.3696C67.1099 14.9253 67.0894 14.6302 67.0483 14.4844C67.0096 14.3385 66.9401 14.228 66.8398 14.1528C66.7419 14.0754 66.62 14.0366 66.4741 14.0366C66.285 14.0366 66.1221 14.1004 65.9854 14.228C65.8509 14.3534 65.7575 14.5277 65.7051 14.751C65.6777 14.8672 65.6641 15.119 65.6641 15.5063V17H64.7344V13.2812ZM72.5786 14.0332L71.8027 14.4604C71.6569 14.3078 71.5122 14.2018 71.3687 14.1426C71.2274 14.0833 71.061 14.0537 70.8696 14.0537C70.521 14.0537 70.2384 14.1585 70.022 14.3682C69.8078 14.5755 69.7007 14.8421 69.7007 15.168C69.7007 15.4847 69.8044 15.7433 70.0117 15.9438C70.2191 16.1444 70.4914 16.2446 70.8286 16.2446C71.2456 16.2446 71.5703 16.1022 71.8027 15.8174L72.5376 16.3198C72.1388 16.8371 71.576 17.0957 70.8491 17.0957C70.1951 17.0957 69.6825 16.902 69.311 16.5146C68.9419 16.1273 68.7573 15.6738 68.7573 15.1543C68.7573 14.7943 68.8473 14.4627 69.0273 14.1597C69.2074 13.8566 69.458 13.6185 69.7793 13.4453C70.1029 13.2721 70.464 13.1855 70.8628 13.1855C71.2319 13.1855 71.5635 13.2596 71.8574 13.4077C72.1514 13.5535 72.3918 13.762 72.5786 14.0332ZM73.7886 11.75C73.9526 11.75 74.0928 11.8092 74.209 11.9277C74.3275 12.0462 74.3867 12.1898 74.3867 12.3584C74.3867 12.5247 74.3286 12.6672 74.2124 12.7856C74.0962 12.9019 73.9572 12.96 73.7954 12.96C73.6291 12.96 73.4867 12.9007 73.3682 12.7822C73.252 12.6615 73.1938 12.5156 73.1938 12.3447C73.1938 12.1807 73.252 12.0405 73.3682 11.9243C73.4844 11.8081 73.6245 11.75 73.7886 11.75ZM73.3203 13.2812H74.2568V17H73.3203V13.2812ZM77.8525 13.2812H78.7822V17H77.8525V16.6069C77.6702 16.7801 77.4868 16.9054 77.3022 16.9829C77.12 17.0581 76.9217 17.0957 76.7075 17.0957C76.2267 17.0957 75.8109 16.91 75.46 16.5386C75.109 16.1649 74.9336 15.7012 74.9336 15.1475C74.9336 14.5732 75.1034 14.1027 75.4429 13.7358C75.7824 13.369 76.1948 13.1855 76.6802 13.1855C76.9035 13.1855 77.1131 13.2277 77.3091 13.312C77.505 13.3963 77.6862 13.5228 77.8525 13.6914V13.2812ZM76.8716 14.0469C76.5822 14.0469 76.3418 14.1494 76.1504 14.3545C75.959 14.5573 75.8633 14.8182 75.8633 15.1372C75.8633 15.4585 75.9601 15.7228 76.1538 15.9302C76.3498 16.1375 76.5902 16.2412 76.875 16.2412C77.1689 16.2412 77.4128 16.1398 77.6064 15.937C77.8001 15.7319 77.897 15.4642 77.897 15.1338C77.897 14.8102 77.8001 14.5482 77.6064 14.3477C77.4128 14.1471 77.1678 14.0469 76.8716 14.0469ZM81.79 17V11.9722H82.5796C83.0376 11.9722 83.3726 12.0018 83.5845 12.061C83.8853 12.1408 84.1245 12.2889 84.3022 12.5054C84.48 12.7218 84.5688 12.9771 84.5688 13.271C84.5688 13.4624 84.5278 13.6367 84.4458 13.7939C84.366 13.9489 84.235 14.0947 84.0527 14.2314C84.3581 14.375 84.5814 14.555 84.7227 14.7715C84.8639 14.9857 84.9346 15.2397 84.9346 15.5337C84.9346 15.8162 84.8617 16.0737 84.7158 16.3062C84.57 16.5386 84.382 16.7129 84.1519 16.8291C83.9217 16.943 83.6038 17 83.1982 17H81.79ZM82.7471 12.8848V13.9443H82.9556C83.188 13.9443 83.36 13.8953 83.4717 13.7974C83.5856 13.6994 83.6426 13.5661 83.6426 13.3975C83.6426 13.2402 83.589 13.116 83.4819 13.0249C83.3748 12.9315 83.2119 12.8848 82.9932 12.8848H82.7471ZM82.7471 14.7988V16.0874H82.9863C83.3828 16.0874 83.6494 16.0373 83.7861 15.937C83.9251 15.8368 83.9946 15.6909 83.9946 15.4995C83.9946 15.283 83.9137 15.1121 83.752 14.9868C83.5902 14.8615 83.3213 14.7988 82.9453 14.7988H82.7471ZM88.4961 13.2812H89.4258V17H88.4961V16.6069C88.3138 16.7801 88.1304 16.9054 87.9458 16.9829C87.7635 17.0581 87.5653 17.0957 87.3511 17.0957C86.8703 17.0957 86.4544 16.91 86.1035 16.5386C85.7526 16.1649 85.5771 15.7012 85.5771 15.1475C85.5771 14.5732 85.7469 14.1027 86.0864 13.7358C86.4259 13.369 86.8384 13.1855 87.3237 13.1855C87.547 13.1855 87.7567 13.2277 87.9526 13.312C88.1486 13.3963 88.3298 13.5228 88.4961 13.6914V13.2812ZM87.5151 14.0469C87.2257 14.0469 86.9854 14.1494 86.7939 14.3545C86.6025 14.5573 86.5068 14.8182 86.5068 15.1372C86.5068 15.4585 86.6037 15.7228 86.7974 15.9302C86.9933 16.1375 87.2337 16.2412 87.5186 16.2412C87.8125 16.2412 88.0563 16.1398 88.25 15.937C88.4437 15.7319 88.5405 15.4642 88.5405 15.1338C88.5405 14.8102 88.4437 14.5482 88.25 14.3477C88.0563 14.1471 87.8114 14.0469 87.5151 14.0469ZM90.3691 13.2812H91.2988V13.6606C91.5107 13.4829 91.7021 13.3599 91.873 13.2915C92.0462 13.2209 92.2228 13.1855 92.4028 13.1855C92.772 13.1855 93.0853 13.3143 93.3428 13.5718C93.5592 13.7905 93.6675 14.1141 93.6675 14.5425V17H92.7446V15.3696C92.7446 14.9253 92.7241 14.6302 92.6831 14.4844C92.6444 14.3385 92.5749 14.228 92.4746 14.1528C92.3766 14.0754 92.2547 14.0366 92.1089 14.0366C91.9198 14.0366 91.7568 14.1004 91.6201 14.228C91.4857 14.3534 91.3923 14.5277 91.3398 14.751C91.3125 14.8672 91.2988 15.119 91.2988 15.5063V17H90.3691V13.2812ZM98.2134 14.0332L97.4375 14.4604C97.2917 14.3078 97.147 14.2018 97.0034 14.1426C96.8621 14.0833 96.6958 14.0537 96.5044 14.0537C96.1558 14.0537 95.8732 14.1585 95.6567 14.3682C95.4425 14.5755 95.3354 14.8421 95.3354 15.168C95.3354 15.4847 95.4391 15.7433 95.6465 15.9438C95.8538 16.1444 96.1261 16.2446 96.4634 16.2446C96.8804 16.2446 97.2051 16.1022 97.4375 15.8174L98.1724 16.3198C97.7736 16.8371 97.2108 17.0957 96.4839 17.0957C95.8299 17.0957 95.3172 16.902 94.9458 16.5146C94.5767 16.1273 94.3921 15.6738 94.3921 15.1543C94.3921 14.7943 94.4821 14.4627 94.6621 14.1597C94.8421 13.8566 95.0928 13.6185 95.4141 13.4453C95.7376 13.2721 96.0988 13.1855 96.4976 13.1855C96.8667 13.1855 97.1982 13.2596 97.4922 13.4077C97.7861 13.5535 98.0265 13.762 98.2134 14.0332ZM101.806 13.2812H102.735V17H101.806V16.6069C101.623 16.7801 101.44 16.9054 101.255 16.9829C101.073 17.0581 100.875 17.0957 100.661 17.0957C100.18 17.0957 99.764 16.91 99.4131 16.5386C99.0622 16.1649 98.8867 15.7012 98.8867 15.1475C98.8867 14.5732 99.0565 14.1027 99.396 13.7358C99.7355 13.369 100.148 13.1855 100.633 13.1855C100.857 13.1855 101.066 13.2277 101.262 13.312C101.458 13.3963 101.639 13.5228 101.806 13.6914V13.2812ZM100.825 14.0469C100.535 14.0469 100.295 14.1494 100.104 14.3545C99.9121 14.5573 99.8164 14.8182 99.8164 15.1372C99.8164 15.4585 99.9132 15.7228 100.107 15.9302C100.303 16.1375 100.543 16.2412 100.828 16.2412C101.122 16.2412 101.366 16.1398 101.56 15.937C101.753 15.7319 101.85 15.4642 101.85 15.1338C101.85 14.8102 101.753 14.5482 101.56 14.3477C101.366 14.1471 101.121 14.0469 100.825 14.0469ZM103.46 13.2812H104.26V13.7495C104.346 13.5649 104.461 13.4248 104.605 13.3291C104.749 13.2334 104.906 13.1855 105.077 13.1855C105.197 13.1855 105.324 13.2174 105.456 13.2812L105.166 14.0845C105.056 14.0298 104.966 14.0024 104.896 14.0024C104.752 14.0024 104.63 14.0913 104.53 14.269C104.432 14.4468 104.383 14.7954 104.383 15.3149L104.386 15.4961V17H103.46V13.2812ZM106.287 11.75C106.451 11.75 106.591 11.8092 106.707 11.9277C106.826 12.0462 106.885 12.1898 106.885 12.3584C106.885 12.5247 106.827 12.6672 106.71 12.7856C106.594 12.9019 106.455 12.96 106.293 12.96C106.127 12.96 105.985 12.9007 105.866 12.7822C105.75 12.6615 105.692 12.5156 105.692 12.3447C105.692 12.1807 105.75 12.0405 105.866 11.9243C105.982 11.8081 106.123 11.75 106.287 11.75ZM105.818 13.2812H106.755V17H105.818V13.2812ZM110.351 13.2812H111.28V17H110.351V16.6069C110.168 16.7801 109.985 16.9054 109.8 16.9829C109.618 17.0581 109.42 17.0957 109.206 17.0957C108.725 17.0957 108.309 16.91 107.958 16.5386C107.607 16.1649 107.432 15.7012 107.432 15.1475C107.432 14.5732 107.601 14.1027 107.941 13.7358C108.28 13.369 108.693 13.1855 109.178 13.1855C109.402 13.1855 109.611 13.2277 109.807 13.312C110.003 13.3963 110.184 13.5228 110.351 13.6914V13.2812ZM109.37 14.0469C109.08 14.0469 108.84 14.1494 108.648 14.3545C108.457 14.5573 108.361 14.8182 108.361 15.1372C108.361 15.4585 108.458 15.7228 108.652 15.9302C108.848 16.1375 109.088 16.2412 109.373 16.2412C109.667 16.2412 109.911 16.1398 110.104 15.937C110.298 15.7319 110.395 15.4642 110.395 15.1338C110.395 14.8102 110.298 14.5482 110.104 14.3477C109.911 14.1471 109.666 14.0469 109.37 14.0469Z" fill="#F5F8FA"/>
<path d="M34.0786 11.9722H36.8574V12.9155H35.9414V17H34.9707V12.9155H34.0786V11.9722ZM37.1924 13.2812H37.9922V13.7495C38.0788 13.5649 38.1938 13.4248 38.3374 13.3291C38.481 13.2334 38.6382 13.1855 38.8091 13.1855C38.9299 13.1855 39.0563 13.2174 39.1885 13.2812L38.8979 14.0845C38.7886 14.0298 38.6986 14.0024 38.6279 14.0024C38.4844 14.0024 38.3625 14.0913 38.2622 14.269C38.1642 14.4468 38.1152 14.7954 38.1152 15.3149L38.1187 15.4961V17H37.1924V13.2812ZM42.4014 13.2812H43.3311V17H42.4014V16.6069C42.2191 16.7801 42.0356 16.9054 41.8511 16.9829C41.6688 17.0581 41.4705 17.0957 41.2563 17.0957C40.7756 17.0957 40.3597 16.91 40.0088 16.5386C39.6579 16.1649 39.4824 15.7012 39.4824 15.1475C39.4824 14.5732 39.6522 14.1027 39.9917 13.7358C40.3312 13.369 40.7437 13.1855 41.229 13.1855C41.4523 13.1855 41.6619 13.2277 41.8579 13.312C42.0539 13.3963 42.235 13.5228 42.4014 13.6914V13.2812ZM41.4204 14.0469C41.131 14.0469 40.8906 14.1494 40.6992 14.3545C40.5078 14.5573 40.4121 14.8182 40.4121 15.1372C40.4121 15.4585 40.509 15.7228 40.7026 15.9302C40.8986 16.1375 41.139 16.2412 41.4238 16.2412C41.7178 16.2412 41.9616 16.1398 42.1553 15.937C42.349 15.7319 42.4458 15.4642 42.4458 15.1338C42.4458 14.8102 42.349 14.5482 42.1553 14.3477C41.9616 14.1471 41.7166 14.0469 41.4204 14.0469ZM44.2744 13.2812H45.2041V13.6606C45.416 13.4829 45.6074 13.3599 45.7783 13.2915C45.9515 13.2209 46.1281 13.1855 46.3081 13.1855C46.6772 13.1855 46.9906 13.3143 47.248 13.5718C47.4645 13.7905 47.5728 14.1141 47.5728 14.5425V17H46.6499V15.3696C46.6499 14.9253 46.6294 14.6302 46.5884 14.4844C46.5496 14.3385 46.4801 14.228 46.3799 14.1528C46.2819 14.0754 46.16 14.0366 46.0142 14.0366C45.825 14.0366 45.6621 14.1004 45.5254 14.228C45.391 14.3534 45.2975 14.5277 45.2451 14.751C45.2178 14.8672 45.2041 15.119 45.2041 15.5063V17H44.2744V13.2812ZM50.7549 13.8008L50.1772 14.3784C49.9425 14.146 49.7295 14.0298 49.5381 14.0298C49.4333 14.0298 49.3512 14.0526 49.292 14.0981C49.2327 14.1414 49.2031 14.1961 49.2031 14.2622C49.2031 14.3123 49.2214 14.359 49.2578 14.4023C49.2965 14.4434 49.39 14.5003 49.5381 14.5732L49.8799 14.7441C50.2399 14.9219 50.4871 15.103 50.6216 15.2876C50.756 15.4722 50.8232 15.6886 50.8232 15.937C50.8232 16.2674 50.7013 16.5431 50.4575 16.7642C50.216 16.9852 49.8913 17.0957 49.4834 17.0957C48.9411 17.0957 48.5081 16.8838 48.1846 16.46L48.7588 15.8345C48.8682 15.9621 48.9958 16.0658 49.1416 16.1455C49.2897 16.223 49.4207 16.2617 49.5347 16.2617C49.6577 16.2617 49.7568 16.2321 49.832 16.1729C49.9072 16.1136 49.9448 16.0452 49.9448 15.9678C49.9448 15.8242 49.8092 15.6841 49.5381 15.5474L49.2236 15.3901C48.6221 15.0871 48.3213 14.7077 48.3213 14.252C48.3213 13.958 48.4341 13.7074 48.6597 13.5C48.8875 13.2904 49.1781 13.1855 49.5312 13.1855C49.7728 13.1855 49.9995 13.2391 50.2114 13.3462C50.4256 13.451 50.6068 13.6025 50.7549 13.8008ZM51.1172 13.2812H51.4487C51.451 12.7936 51.459 12.5054 51.4727 12.4165C51.4977 12.2114 51.5832 12.0496 51.729 11.9312C51.8771 11.8104 52.0856 11.75 52.3545 11.75C52.5482 11.75 52.7669 11.7944 53.0107 11.8833V12.5942C52.8763 12.5555 52.7658 12.5361 52.6792 12.5361C52.5698 12.5361 52.4901 12.5589 52.4399 12.6045C52.4035 12.6387 52.3853 12.7093 52.3853 12.8164L52.3818 13.2812H52.9731V14.0742H52.3818V17H51.4487V14.0742H51.1172V13.2812ZM57.249 15.4106H54.2515C54.2948 15.675 54.4098 15.8857 54.5967 16.043C54.7858 16.1979 55.0262 16.2754 55.3179 16.2754C55.6665 16.2754 55.9661 16.1535 56.2168 15.9097L57.0029 16.2788C56.807 16.5568 56.5723 16.763 56.2988 16.8975C56.0254 17.0296 55.7007 17.0957 55.3247 17.0957C54.7414 17.0957 54.2663 16.9123 53.8994 16.5454C53.5326 16.1763 53.3491 15.7148 53.3491 15.1611C53.3491 14.5938 53.5314 14.1232 53.896 13.7495C54.2629 13.3735 54.722 13.1855 55.2734 13.1855C55.859 13.1855 56.3353 13.3735 56.7021 13.7495C57.069 14.1232 57.2524 14.6177 57.2524 15.2329L57.249 15.4106ZM56.3125 14.6758C56.251 14.4684 56.1291 14.2998 55.9468 14.1699C55.7668 14.04 55.5571 13.9751 55.3179 13.9751C55.0581 13.9751 54.8302 14.048 54.6343 14.1938C54.5112 14.285 54.3973 14.4456 54.2925 14.6758H56.3125ZM57.7891 13.2812H58.5889V13.7495C58.6755 13.5649 58.7905 13.4248 58.9341 13.3291C59.0776 13.2334 59.2349 13.1855 59.4058 13.1855C59.5265 13.1855 59.653 13.2174 59.7852 13.2812L59.4946 14.0845C59.3853 14.0298 59.2952 14.0024 59.2246 14.0024C59.0811 14.0024 58.9591 14.0913 58.8589 14.269C58.7609 14.4468 58.7119 14.7954 58.7119 15.3149L58.7153 15.4961V17H57.7891V13.2812ZM63.9756 15.4106H60.978C61.0213 15.675 61.1364 15.8857 61.3232 16.043C61.5124 16.1979 61.7528 16.2754 62.0444 16.2754C62.3931 16.2754 62.6927 16.1535 62.9434 15.9097L63.7295 16.2788C63.5335 16.5568 63.2988 16.763 63.0254 16.8975C62.752 17.0296 62.4272 17.0957 62.0513 17.0957C61.4679 17.0957 60.9928 16.9123 60.626 16.5454C60.2591 16.1763 60.0757 15.7148 60.0757 15.1611C60.0757 14.5938 60.258 14.1232 60.6226 13.7495C60.9894 13.3735 61.4486 13.1855 62 13.1855C62.5856 13.1855 63.0618 13.3735 63.4287 13.7495C63.7956 14.1232 63.979 14.6177 63.979 15.2329L63.9756 15.4106ZM63.0391 14.6758C62.9775 14.4684 62.8556 14.2998 62.6733 14.1699C62.4933 14.04 62.2837 13.9751 62.0444 13.9751C61.7847 13.9751 61.5568 14.048 61.3608 14.1938C61.2378 14.285 61.1239 14.4456 61.019 14.6758H63.0391ZM64.7344 13.2812H65.6641V13.6606C65.876 13.4829 66.0674 13.3599 66.2383 13.2915C66.4115 13.2209 66.5881 13.1855 66.7681 13.1855C67.1372 13.1855 67.4505 13.3143 67.708 13.5718C67.9245 13.7905 68.0327 14.1141 68.0327 14.5425V17H67.1099V15.3696C67.1099 14.9253 67.0894 14.6302 67.0483 14.4844C67.0096 14.3385 66.9401 14.228 66.8398 14.1528C66.7419 14.0754 66.62 14.0366 66.4741 14.0366C66.285 14.0366 66.1221 14.1004 65.9854 14.228C65.8509 14.3534 65.7575 14.5277 65.7051 14.751C65.6777 14.8672 65.6641 15.119 65.6641 15.5063V17H64.7344V13.2812ZM72.5786 14.0332L71.8027 14.4604C71.6569 14.3078 71.5122 14.2018 71.3687 14.1426C71.2274 14.0833 71.061 14.0537 70.8696 14.0537C70.521 14.0537 70.2384 14.1585 70.022 14.3682C69.8078 14.5755 69.7007 14.8421 69.7007 15.168C69.7007 15.4847 69.8044 15.7433 70.0117 15.9438C70.2191 16.1444 70.4914 16.2446 70.8286 16.2446C71.2456 16.2446 71.5703 16.1022 71.8027 15.8174L72.5376 16.3198C72.1388 16.8371 71.576 17.0957 70.8491 17.0957C70.1951 17.0957 69.6825 16.902 69.311 16.5146C68.9419 16.1273 68.7573 15.6738 68.7573 15.1543C68.7573 14.7943 68.8473 14.4627 69.0273 14.1597C69.2074 13.8566 69.458 13.6185 69.7793 13.4453C70.1029 13.2721 70.464 13.1855 70.8628 13.1855C71.2319 13.1855 71.5635 13.2596 71.8574 13.4077C72.1514 13.5535 72.3918 13.762 72.5786 14.0332ZM73.7886 11.75C73.9526 11.75 74.0928 11.8092 74.209 11.9277C74.3275 12.0462 74.3867 12.1898 74.3867 12.3584C74.3867 12.5247 74.3286 12.6672 74.2124 12.7856C74.0962 12.9019 73.9572 12.96 73.7954 12.96C73.6291 12.96 73.4867 12.9007 73.3682 12.7822C73.252 12.6615 73.1938 12.5156 73.1938 12.3447C73.1938 12.1807 73.252 12.0405 73.3682 11.9243C73.4844 11.8081 73.6245 11.75 73.7886 11.75ZM73.3203 13.2812H74.2568V17H73.3203V13.2812ZM77.8525 13.2812H78.7822V17H77.8525V16.6069C77.6702 16.7801 77.4868 16.9054 77.3022 16.9829C77.12 17.0581 76.9217 17.0957 76.7075 17.0957C76.2267 17.0957 75.8109 16.91 75.46 16.5386C75.109 16.1649 74.9336 15.7012 74.9336 15.1475C74.9336 14.5732 75.1034 14.1027 75.4429 13.7358C75.7824 13.369 76.1948 13.1855 76.6802 13.1855C76.9035 13.1855 77.1131 13.2277 77.3091 13.312C77.505 13.3963 77.6862 13.5228 77.8525 13.6914V13.2812ZM76.8716 14.0469C76.5822 14.0469 76.3418 14.1494 76.1504 14.3545C75.959 14.5573 75.8633 14.8182 75.8633 15.1372C75.8633 15.4585 75.9601 15.7228 76.1538 15.9302C76.3498 16.1375 76.5902 16.2412 76.875 16.2412C77.1689 16.2412 77.4128 16.1398 77.6064 15.937C77.8001 15.7319 77.897 15.4642 77.897 15.1338C77.897 14.8102 77.8001 14.5482 77.6064 14.3477C77.4128 14.1471 77.1678 14.0469 76.8716 14.0469ZM81.79 17V11.9722H82.5796C83.0376 11.9722 83.3726 12.0018 83.5845 12.061C83.8853 12.1408 84.1245 12.2889 84.3022 12.5054C84.48 12.7218 84.5688 12.9771 84.5688 13.271C84.5688 13.4624 84.5278 13.6367 84.4458 13.7939C84.366 13.9489 84.235 14.0947 84.0527 14.2314C84.3581 14.375 84.5814 14.555 84.7227 14.7715C84.8639 14.9857 84.9346 15.2397 84.9346 15.5337C84.9346 15.8162 84.8617 16.0737 84.7158 16.3062C84.57 16.5386 84.382 16.7129 84.1519 16.8291C83.9217 16.943 83.6038 17 83.1982 17H81.79ZM82.7471 12.8848V13.9443H82.9556C83.188 13.9443 83.36 13.8953 83.4717 13.7974C83.5856 13.6994 83.6426 13.5661 83.6426 13.3975C83.6426 13.2402 83.589 13.116 83.4819 13.0249C83.3748 12.9315 83.2119 12.8848 82.9932 12.8848H82.7471ZM82.7471 14.7988V16.0874H82.9863C83.3828 16.0874 83.6494 16.0373 83.7861 15.937C83.9251 15.8368 83.9946 15.6909 83.9946 15.4995C83.9946 15.283 83.9137 15.1121 83.752 14.9868C83.5902 14.8615 83.3213 14.7988 82.9453 14.7988H82.7471ZM88.4961 13.2812H89.4258V17H88.4961V16.6069C88.3138 16.7801 88.1304 16.9054 87.9458 16.9829C87.7635 17.0581 87.5653 17.0957 87.3511 17.0957C86.8703 17.0957 86.4544 16.91 86.1035 16.5386C85.7526 16.1649 85.5771 15.7012 85.5771 15.1475C85.5771 14.5732 85.7469 14.1027 86.0864 13.7358C86.4259 13.369 86.8384 13.1855 87.3237 13.1855C87.547 13.1855 87.7567 13.2277 87.9526 13.312C88.1486 13.3963 88.3298 13.5228 88.4961 13.6914V13.2812ZM87.5151 14.0469C87.2257 14.0469 86.9854 14.1494 86.7939 14.3545C86.6025 14.5573 86.5068 14.8182 86.5068 15.1372C86.5068 15.4585 86.6037 15.7228 86.7974 15.9302C86.9933 16.1375 87.2337 16.2412 87.5186 16.2412C87.8125 16.2412 88.0563 16.1398 88.25 15.937C88.4437 15.7319 88.5405 15.4642 88.5405 15.1338C88.5405 14.8102 88.4437 14.5482 88.25 14.3477C88.0563 14.1471 87.8114 14.0469 87.5151 14.0469ZM90.3691 13.2812H91.2988V13.6606C91.5107 13.4829 91.7021 13.3599 91.873 13.2915C92.0462 13.2209 92.2228 13.1855 92.4028 13.1855C92.772 13.1855 93.0853 13.3143 93.3428 13.5718C93.5592 13.7905 93.6675 14.1141 93.6675 14.5425V17H92.7446V15.3696C92.7446 14.9253 92.7241 14.6302 92.6831 14.4844C92.6444 14.3385 92.5749 14.228 92.4746 14.1528C92.3766 14.0754 92.2547 14.0366 92.1089 14.0366C91.9198 14.0366 91.7568 14.1004 91.6201 14.228C91.4857 14.3534 91.3923 14.5277 91.3398 14.751C91.3125 14.8672 91.2988 15.119 91.2988 15.5063V17H90.3691V13.2812ZM98.2134 14.0332L97.4375 14.4604C97.2917 14.3078 97.147 14.2018 97.0034 14.1426C96.8621 14.0833 96.6958 14.0537 96.5044 14.0537C96.1558 14.0537 95.8732 14.1585 95.6567 14.3682C95.4425 14.5755 95.3354 14.8421 95.3354 15.168C95.3354 15.4847 95.4391 15.7433 95.6465 15.9438C95.8538 16.1444 96.1261 16.2446 96.4634 16.2446C96.8804 16.2446 97.2051 16.1022 97.4375 15.8174L98.1724 16.3198C97.7736 16.8371 97.2108 17.0957 96.4839 17.0957C95.8299 17.0957 95.3172 16.902 94.9458 16.5146C94.5767 16.1273 94.3921 15.6738 94.3921 15.1543C94.3921 14.7943 94.4821 14.4627 94.6621 14.1597C94.8421 13.8566 95.0928 13.6185 95.4141 13.4453C95.7376 13.2721 96.0988 13.1855 96.4976 13.1855C96.8667 13.1855 97.1982 13.2596 97.4922 13.4077C97.7861 13.5535 98.0265 13.762 98.2134 14.0332ZM101.806 13.2812H102.735V17H101.806V16.6069C101.623 16.7801 101.44 16.9054 101.255 16.9829C101.073 17.0581 100.875 17.0957 100.661 17.0957C100.18 17.0957 99.764 16.91 99.4131 16.5386C99.0622 16.1649 98.8867 15.7012 98.8867 15.1475C98.8867 14.5732 99.0565 14.1027 99.396 13.7358C99.7355 13.369 100.148 13.1855 100.633 13.1855C100.857 13.1855 101.066 13.2277 101.262 13.312C101.458 13.3963 101.639 13.5228 101.806 13.6914V13.2812ZM100.825 14.0469C100.535 14.0469 100.295 14.1494 100.104 14.3545C99.9121 14.5573 99.8164 14.8182 99.8164 15.1372C99.8164 15.4585 99.9132 15.7228 100.107 15.9302C100.303 16.1375 100.543 16.2412 100.828 16.2412C101.122 16.2412 101.366 16.1398 101.56 15.937C101.753 15.7319 101.85 15.4642 101.85 15.1338C101.85 14.8102 101.753 14.5482 101.56 14.3477C101.366 14.1471 101.121 14.0469 100.825 14.0469ZM103.46 13.2812H104.26V13.7495C104.346 13.5649 104.461 13.4248 104.605 13.3291C104.749 13.2334 104.906 13.1855 105.077 13.1855C105.197 13.1855 105.324 13.2174 105.456 13.2812L105.166 14.0845C105.056 14.0298 104.966 14.0024 104.896 14.0024C104.752 14.0024 104.63 14.0913 104.53 14.269C104.432 14.4468 104.383 14.7954 104.383 15.3149L104.386 15.4961V17H103.46V13.2812ZM106.287 11.75C106.451 11.75 106.591 11.8092 106.707 11.9277C106.826 12.0462 106.885 12.1898 106.885 12.3584C106.885 12.5247 106.827 12.6672 106.71 12.7856C106.594 12.9019 106.455 12.96 106.293 12.96C106.127 12.96 105.985 12.9007 105.866 12.7822C105.75 12.6615 105.692 12.5156 105.692 12.3447C105.692 12.1807 105.75 12.0405 105.866 11.9243C105.982 11.8081 106.123 11.75 106.287 11.75ZM105.818 13.2812H106.755V17H105.818V13.2812ZM110.351 13.2812H111.28V17H110.351V16.6069C110.168 16.7801 109.985 16.9054 109.8 16.9829C109.618 17.0581 109.42 17.0957 109.206 17.0957C108.725 17.0957 108.309 16.91 107.958 16.5386C107.607 16.1649 107.432 15.7012 107.432 15.1475C107.432 14.5732 107.601 14.1027 107.941 13.7358C108.28 13.369 108.693 13.1855 109.178 13.1855C109.402 13.1855 109.611 13.2277 109.807 13.312C110.003 13.3963 110.184 13.5228 110.351 13.6914V13.2812ZM109.37 14.0469C109.08 14.0469 108.84 14.1494 108.648 14.3545C108.457 14.5573 108.361 14.8182 108.361 15.1372C108.361 15.4585 108.458 15.7228 108.652 15.9302C108.848 16.1375 109.088 16.2412 109.373 16.2412C109.667 16.2412 109.911 16.1398 110.104 15.937C110.298 15.7319 110.395 15.4642 110.395 15.1338C110.395 14.8102 110.298 14.5482 110.104 14.3477C109.911 14.1471 109.666 14.0469 109.37 14.0469Z" fill="url(#paint1_linear)"/>
<defs>
<filter id="filter0_d" x="0" y="1" width="130" height="30" filterUnits="userSpaceOnUse" color-interpolation-filters="sRGB">
<feFlood flood-opacity="0" result="BackgroundImageFix"/>
<feColorMatrix in="SourceAlpha" type="matrix" values="0 0 0 0 0 0 0 0 0 0 0 0 0 0 0 0 0 0 127 0"/>
<feOffset dx="1" dy="1"/>
<feGaussianBlur stdDeviation="2"/>
<feColorMatrix type="matrix" values="0 0 0 0 0 0 0 0 0 0 0 0 0 0 0 0 0 0 0.15 0"/>
<feBlend mode="normal" in2="BackgroundImageFix" result="effect1_dropShadow"/>
<feBlend mode="normal" in="SourceGraphic" in2="effect1_dropShadow" result="shape"/>
</filter>
<linearGradient id="paint0_linear" x1="17" y1="5" x2="17" y2="25" gradientUnits="userSpaceOnUse">
<stop stop-color="white"/>
<stop offset="1" stop-color="white" stop-opacity="0"/>
</linearGradient>
<linearGradient id="paint1_linear" x1="73" y1="10" x2="73" y2="19" gradientUnits="userSpaceOnUse">
<stop stop-color="white"/>
<stop offset="1" stop-color="white" stop-opacity="0"/>
</linearGradient>
</defs>
</svg>
