<svg width="308" height="230" viewBox="0 0 308 230" fill="none" xmlns="http://www.w3.org/2000/svg">
<g filter="url(#filter0_d)">
<rect x="5" y="5" width="278" height="200" rx="15" fill="#F5F8FA"/>
<rect x="5" y="5" width="278" height="200" rx="15" fill="url(#paint0_linear)"/>
</g>
<path d="M57.3441 33.7617H66.8714V36.9961H63.7308V51H60.4027V36.9961H57.3441V33.7617ZM69.4781 38.25H72.7125V44.3906C72.7125 45.5859 72.7945 46.418 72.9586 46.8867C73.1227 47.3477 73.3844 47.707 73.7438 47.9648C74.1109 48.2227 74.5602 48.3516 75.0914 48.3516C75.6227 48.3516 76.0719 48.2266 76.4391 47.9766C76.8141 47.7188 77.0914 47.3438 77.2711 46.8516C77.4039 46.4844 77.4703 45.6992 77.4703 44.4961V38.25H80.6813V43.6523C80.6813 45.8789 80.5055 47.4023 80.1539 48.2227C79.7242 49.2227 79.0914 49.9922 78.2555 50.5312C77.4195 51.0625 76.357 51.3281 75.068 51.3281C73.6695 51.3281 72.5367 51.0156 71.6695 50.3906C70.8102 49.7656 70.2047 48.8945 69.8531 47.7773C69.6031 47.0039 69.4781 45.5977 69.4781 43.5586V38.25ZM92.4286 40.0312L90.4481 42.0117C89.6434 41.2148 88.913 40.8164 88.2567 40.8164C87.8973 40.8164 87.6161 40.8945 87.413 41.0508C87.2098 41.1992 87.1083 41.3867 87.1083 41.6133C87.1083 41.7852 87.1708 41.9453 87.2958 42.0938C87.4286 42.2344 87.7489 42.4297 88.2567 42.6797L89.4286 43.2656C90.663 43.875 91.5106 44.4961 91.9716 45.1289C92.4325 45.7617 92.663 46.5039 92.663 47.3555C92.663 48.4883 92.245 49.4336 91.4091 50.1914C90.5809 50.9492 89.4677 51.3281 88.0692 51.3281C86.2098 51.3281 84.7255 50.6016 83.6161 49.1484L85.5848 47.0039C85.9598 47.4414 86.3973 47.7969 86.8973 48.0703C87.4052 48.3359 87.8544 48.4688 88.245 48.4688C88.6669 48.4688 89.0067 48.3672 89.2645 48.1641C89.5223 47.9609 89.6513 47.7266 89.6513 47.4609C89.6513 46.9688 89.1864 46.4883 88.2567 46.0195L87.1786 45.4805C85.1161 44.4414 84.0848 43.1406 84.0848 41.5781C84.0848 40.5703 84.4716 39.7109 85.245 39C86.0263 38.2812 87.0223 37.9219 88.2333 37.9219C89.0614 37.9219 89.8388 38.1055 90.5653 38.4727C91.2997 38.832 91.9208 39.3516 92.4286 40.0312ZM119.556 36.7969L117.259 38.9883C115.697 37.3398 113.939 36.5156 111.986 36.5156C110.337 36.5156 108.947 37.0781 107.814 38.2031C106.689 39.3281 106.126 40.7148 106.126 42.3633C106.126 43.5117 106.376 44.5312 106.876 45.4219C107.376 46.3125 108.083 47.0117 108.998 47.5195C109.912 48.0273 110.927 48.2812 112.044 48.2812C112.998 48.2812 113.869 48.1055 114.658 47.7539C115.447 47.3945 116.314 46.7461 117.259 45.8086L119.486 48.1289C118.212 49.3711 117.009 50.2344 115.876 50.7188C114.744 51.1953 113.451 51.4336 111.998 51.4336C109.318 51.4336 107.123 50.5859 105.412 48.8906C103.708 47.1875 102.857 45.0078 102.857 42.3516C102.857 40.6328 103.244 39.1055 104.017 37.7695C104.798 36.4336 105.912 35.3594 107.357 34.5469C108.81 33.7344 110.373 33.3281 112.044 33.3281C113.466 33.3281 114.833 33.6289 116.146 34.2305C117.466 34.832 118.603 35.6875 119.556 36.7969ZM132.229 38.25H135.417V51H132.229V49.6523C131.604 50.2461 130.975 50.6758 130.342 50.9414C129.717 51.1992 129.038 51.3281 128.303 51.3281C126.655 51.3281 125.229 50.6914 124.026 49.418C122.823 48.1367 122.221 46.5469 122.221 44.6484C122.221 42.6797 122.803 41.0664 123.967 39.8086C125.132 38.5508 126.546 37.9219 128.21 37.9219C128.975 37.9219 129.694 38.0664 130.366 38.3555C131.038 38.6445 131.659 39.0781 132.229 39.6562V38.25ZM128.866 40.875C127.874 40.875 127.05 41.2266 126.393 41.9297C125.737 42.625 125.409 43.5195 125.409 44.6133C125.409 45.7148 125.741 46.6211 126.405 47.332C127.077 48.043 127.901 48.3984 128.878 48.3984C129.885 48.3984 130.721 48.0508 131.385 47.3555C132.05 46.6523 132.382 45.7344 132.382 44.6016C132.382 43.4922 132.05 42.5938 131.385 41.9062C130.721 41.2188 129.882 40.875 128.866 40.875ZM139.371 38.25H142.559V39.5508C143.285 38.9414 143.941 38.5195 144.527 38.2852C145.121 38.043 145.727 37.9219 146.344 37.9219C147.609 37.9219 148.684 38.3633 149.566 39.2461C150.309 39.9961 150.68 41.1055 150.68 42.5742V51H147.516V45.4102C147.516 43.8867 147.445 42.875 147.305 42.375C147.172 41.875 146.934 41.4961 146.59 41.2383C146.254 40.9727 145.836 40.8398 145.336 40.8398C144.688 40.8398 144.129 41.0586 143.66 41.4961C143.199 41.9258 142.879 42.5234 142.699 43.2891C142.605 43.6875 142.559 44.5508 142.559 45.8789V51H139.371V38.25ZM154.517 33.3281H157.693V39.5391C158.318 39 158.947 38.5977 159.579 38.332C160.212 38.0586 160.853 37.9219 161.501 37.9219C162.767 37.9219 163.833 38.3594 164.7 39.2344C165.443 39.9922 165.814 41.1055 165.814 42.5742V51H162.661V45.4102C162.661 43.9336 162.591 42.9336 162.45 42.4102C162.31 41.8867 162.068 41.4961 161.724 41.2383C161.388 40.9805 160.97 40.8516 160.47 40.8516C159.822 40.8516 159.263 41.0664 158.794 41.4961C158.333 41.9258 158.013 42.5117 157.833 43.2539C157.74 43.6367 157.693 44.5117 157.693 45.8789V51H154.517V33.3281ZM179.061 38.25H182.249V51H179.061V49.6523C178.436 50.2461 177.807 50.6758 177.174 50.9414C176.549 51.1992 175.87 51.3281 175.135 51.3281C173.487 51.3281 172.061 50.6914 170.858 49.418C169.655 48.1367 169.053 46.5469 169.053 44.6484C169.053 42.6797 169.635 41.0664 170.799 39.8086C171.963 38.5508 173.378 37.9219 175.042 37.9219C175.807 37.9219 176.526 38.0664 177.198 38.3555C177.87 38.6445 178.491 39.0781 179.061 39.6562V38.25ZM175.698 40.875C174.706 40.875 173.881 41.2266 173.225 41.9297C172.569 42.625 172.241 43.5195 172.241 44.6133C172.241 45.7148 172.573 46.6211 173.237 47.332C173.909 48.043 174.733 48.3984 175.71 48.3984C176.717 48.3984 177.553 48.0508 178.217 47.3555C178.881 46.6523 179.213 45.7344 179.213 44.6016C179.213 43.4922 178.881 42.5938 178.217 41.9062C177.553 41.2188 176.713 40.875 175.698 40.875ZM194.008 40.0312L192.027 42.0117C191.223 41.2148 190.492 40.8164 189.836 40.8164C189.476 40.8164 189.195 40.8945 188.992 41.0508C188.789 41.1992 188.687 41.3867 188.687 41.6133C188.687 41.7852 188.75 41.9453 188.875 42.0938C189.008 42.2344 189.328 42.4297 189.836 42.6797L191.008 43.2656C192.242 43.875 193.09 44.4961 193.551 45.1289C194.012 45.7617 194.242 46.5039 194.242 47.3555C194.242 48.4883 193.824 49.4336 192.988 50.1914C192.16 50.9492 191.047 51.3281 189.648 51.3281C187.789 51.3281 186.305 50.6016 185.195 49.1484L187.164 47.0039C187.539 47.4414 187.976 47.7969 188.476 48.0703C188.984 48.3359 189.433 48.4688 189.824 48.4688C190.246 48.4688 190.586 48.3672 190.844 48.1641C191.101 47.9609 191.23 47.7266 191.23 47.4609C191.23 46.9688 190.765 46.4883 189.836 46.0195L188.758 45.4805C186.695 44.4414 185.664 43.1406 185.664 41.5781C185.664 40.5703 186.051 39.7109 186.824 39C187.605 38.2812 188.601 37.9219 189.812 37.9219C190.64 37.9219 191.418 38.1055 192.144 38.4727C192.879 38.832 193.5 39.3516 194.008 40.0312ZM197.88 33.5508H201.068V38.25H202.966V41.0039H201.068V51H197.88V41.0039H196.239V38.25H197.88V33.5508ZM214.83 38.25H218.018V51H214.83V49.6523C214.205 50.2461 213.577 50.6758 212.944 50.9414C212.319 51.1992 211.639 51.3281 210.905 51.3281C209.256 51.3281 207.83 50.6914 206.627 49.418C205.424 48.1367 204.823 46.5469 204.823 44.6484C204.823 42.6797 205.405 41.0664 206.569 39.8086C207.733 38.5508 209.147 37.9219 210.811 37.9219C211.577 37.9219 212.295 38.0664 212.967 38.3555C213.639 38.6445 214.26 39.0781 214.83 39.6562V38.25ZM211.467 40.875C210.475 40.875 209.651 41.2266 208.995 41.9297C208.338 42.625 208.01 43.5195 208.01 44.6133C208.01 45.7148 208.342 46.6211 209.006 47.332C209.678 48.043 210.502 48.3984 211.479 48.3984C212.487 48.3984 213.323 48.0508 213.987 47.3555C214.651 46.6523 214.983 45.7344 214.983 44.6016C214.983 43.4922 214.651 42.5938 213.987 41.9062C213.323 41.2188 212.483 40.875 211.467 40.875ZM229.777 40.0312L227.797 42.0117C226.992 41.2148 226.261 40.8164 225.605 40.8164C225.246 40.8164 224.965 40.8945 224.761 41.0508C224.558 41.1992 224.457 41.3867 224.457 41.6133C224.457 41.7852 224.519 41.9453 224.644 42.0938C224.777 42.2344 225.097 42.4297 225.605 42.6797L226.777 43.2656C228.011 43.875 228.859 44.4961 229.32 45.1289C229.781 45.7617 230.011 46.5039 230.011 47.3555C230.011 48.4883 229.593 49.4336 228.758 50.1914C227.929 50.9492 226.816 51.3281 225.418 51.3281C223.558 51.3281 222.074 50.6016 220.965 49.1484L222.933 47.0039C223.308 47.4414 223.746 47.7969 224.246 48.0703C224.754 48.3359 225.203 48.4688 225.593 48.4688C226.015 48.4688 226.355 48.3672 226.613 48.1641C226.871 47.9609 227 47.7266 227 47.4609C227 46.9688 226.535 46.4883 225.605 46.0195L224.527 45.4805C222.465 44.4414 221.433 43.1406 221.433 41.5781C221.433 40.5703 221.82 39.7109 222.593 39C223.375 38.2812 224.371 37.9219 225.582 37.9219C226.41 37.9219 227.187 38.1055 227.914 38.4727C228.648 38.832 229.269 39.3516 229.777 40.0312ZM72.6305 65.25H75.9L79.2164 73.2539L82.8727 65.25H86.1539L78.1617 82.6641H74.857L77.482 77.0508L72.6305 65.25ZM96.4767 60.7617H99.9572C101.84 60.7617 103.195 60.9375 104.024 61.2891C104.86 61.6328 105.516 62.1953 105.992 62.9766C106.477 63.75 106.719 64.6797 106.719 65.7656C106.719 66.9688 106.403 67.9688 105.77 68.7656C105.145 69.5625 104.293 70.1172 103.215 70.4297C102.582 70.6094 101.43 70.6992 99.758 70.6992V78H96.4767V60.7617ZM99.758 67.5H100.801C101.621 67.5 102.192 67.4414 102.512 67.3242C102.832 67.207 103.082 67.0156 103.262 66.75C103.449 66.4766 103.543 66.1484 103.543 65.7656C103.543 65.1016 103.285 64.6172 102.77 64.3125C102.395 64.0859 101.699 63.9727 100.684 63.9727H99.758V67.5ZM109.56 65.25H112.302V66.8555C112.599 66.2227 112.994 65.7422 113.486 65.4141C113.978 65.0859 114.517 64.9219 115.103 64.9219C115.517 64.9219 115.951 65.0312 116.404 65.25L115.408 68.0039C115.033 67.8164 114.724 67.7227 114.482 67.7227C113.99 67.7227 113.572 68.0273 113.228 68.6367C112.892 69.2461 112.724 70.4414 112.724 72.2227L112.736 72.8438V78H109.56V65.25ZM124.706 64.9219C125.909 64.9219 127.038 65.2227 128.093 65.8242C129.155 66.4258 129.983 67.2422 130.577 68.2734C131.171 69.3047 131.468 70.418 131.468 71.6133C131.468 72.8164 131.167 73.9414 130.565 74.9883C129.971 76.0352 129.159 76.8555 128.128 77.4492C127.096 78.0352 125.96 78.3281 124.718 78.3281C122.889 78.3281 121.327 77.6797 120.03 76.3828C118.741 75.0781 118.096 73.4961 118.096 71.6367C118.096 69.6445 118.827 67.9844 120.288 66.6562C121.569 65.5 123.042 64.9219 124.706 64.9219ZM124.753 67.9336C123.76 67.9336 122.932 68.2812 122.268 68.9766C121.612 69.6641 121.284 70.5469 121.284 71.625C121.284 72.7344 121.608 73.6328 122.257 74.3203C122.913 75.0078 123.741 75.3516 124.741 75.3516C125.741 75.3516 126.573 75.0039 127.237 74.3086C127.901 73.6133 128.233 72.7188 128.233 71.625C128.233 70.5312 127.905 69.6445 127.249 68.9648C126.6 68.2773 125.768 67.9336 124.753 67.9336ZM144.234 60.3281H147.422V78H144.234V76.6523C143.609 77.2461 142.98 77.6758 142.348 77.9414C141.723 78.1992 141.043 78.3281 140.309 78.3281C138.66 78.3281 137.234 77.6914 136.031 76.418C134.828 75.1367 134.227 73.5469 134.227 71.6484C134.227 69.6797 134.809 68.0664 135.973 66.8086C137.137 65.5508 138.551 64.9219 140.215 64.9219C140.98 64.9219 141.699 65.0664 142.371 65.3555C143.043 65.6445 143.664 66.0781 144.234 66.6562V60.3281ZM140.871 67.875C139.879 67.875 139.055 68.2266 138.398 68.9297C137.742 69.625 137.414 70.5195 137.414 71.6133C137.414 72.7148 137.746 73.6211 138.41 74.332C139.082 75.043 139.906 75.3984 140.883 75.3984C141.891 75.3984 142.727 75.0508 143.391 74.3555C144.055 73.6523 144.387 72.7344 144.387 71.6016C144.387 70.4922 144.055 69.5938 143.391 68.9062C142.727 68.2188 141.887 67.875 140.871 67.875ZM151.365 65.25H154.599V71.3906C154.599 72.5859 154.681 73.418 154.845 73.8867C155.009 74.3477 155.271 74.707 155.63 74.9648C155.997 75.2227 156.447 75.3516 156.978 75.3516C157.509 75.3516 157.958 75.2266 158.325 74.9766C158.7 74.7188 158.978 74.3438 159.158 73.8516C159.29 73.4844 159.357 72.6992 159.357 71.4961V65.25H162.568V70.6523C162.568 72.8789 162.392 74.4023 162.04 75.2227C161.611 76.2227 160.978 76.9922 160.142 77.5312C159.306 78.0625 158.243 78.3281 156.954 78.3281C155.556 78.3281 154.423 78.0156 153.556 77.3906C152.697 76.7656 152.091 75.8945 151.74 74.7773C151.49 74.0039 151.365 72.5977 151.365 70.5586V65.25ZM178.991 67.8281L176.331 69.293C175.831 68.7695 175.335 68.4062 174.842 68.2031C174.358 68 173.788 67.8984 173.131 67.8984C171.936 67.8984 170.967 68.2578 170.225 68.9766C169.491 69.6875 169.124 70.6016 169.124 71.7188C169.124 72.8047 169.479 73.6914 170.19 74.3789C170.901 75.0664 171.835 75.4102 172.991 75.4102C174.42 75.4102 175.534 74.9219 176.331 73.9453L178.85 75.668C177.483 77.4414 175.553 78.3281 173.061 78.3281C170.819 78.3281 169.061 77.6641 167.788 76.3359C166.522 75.0078 165.889 73.4531 165.889 71.6719C165.889 70.4375 166.198 69.3008 166.815 68.2617C167.432 67.2227 168.292 66.4062 169.393 65.8125C170.503 65.2188 171.741 64.9219 173.108 64.9219C174.374 64.9219 175.51 65.1758 176.518 65.6836C177.526 66.1836 178.35 66.8984 178.991 67.8281ZM182.992 60.5508H186.18V65.25H188.078V68.0039H186.18V78H182.992V68.0039H181.351V65.25H182.992V60.5508ZM196.509 64.9219C197.712 64.9219 198.841 65.2227 199.896 65.8242C200.958 66.4258 201.786 67.2422 202.38 68.2734C202.974 69.3047 203.271 70.418 203.271 71.6133C203.271 72.8164 202.97 73.9414 202.368 74.9883C201.775 76.0352 200.962 76.8555 199.931 77.4492C198.9 78.0352 197.763 78.3281 196.521 78.3281C194.693 78.3281 193.13 77.6797 191.833 76.3828C190.544 75.0781 189.9 73.4961 189.9 71.6367C189.9 69.6445 190.63 67.9844 192.091 66.6562C193.372 65.5 194.845 64.9219 196.509 64.9219ZM196.556 67.9336C195.564 67.9336 194.735 68.2812 194.071 68.9766C193.415 69.6641 193.087 70.5469 193.087 71.625C193.087 72.7344 193.411 73.6328 194.06 74.3203C194.716 75.0078 195.544 75.3516 196.544 75.3516C197.544 75.3516 198.376 75.0039 199.04 74.3086C199.704 73.6133 200.036 72.7188 200.036 71.625C200.036 70.5312 199.708 69.6445 199.052 68.9648C198.403 68.2773 197.571 67.9336 196.556 67.9336ZM214.42 67.0312L212.44 69.0117C211.635 68.2148 210.905 67.8164 210.248 67.8164C209.889 67.8164 209.608 67.8945 209.405 68.0508C209.202 68.1992 209.1 68.3867 209.1 68.6133C209.1 68.7852 209.163 68.9453 209.288 69.0938C209.42 69.2344 209.741 69.4297 210.248 69.6797L211.42 70.2656C212.655 70.875 213.502 71.4961 213.963 72.1289C214.424 72.7617 214.655 73.5039 214.655 74.3555C214.655 75.4883 214.237 76.4336 213.401 77.1914C212.573 77.9492 211.459 78.3281 210.061 78.3281C208.202 78.3281 206.717 77.6016 205.608 76.1484L207.577 74.0039C207.952 74.4414 208.389 74.7969 208.889 75.0703C209.397 75.3359 209.846 75.4688 210.237 75.4688C210.659 75.4688 210.998 75.3672 211.256 75.1641C211.514 74.9609 211.643 74.7266 211.643 74.4609C211.643 73.9688 211.178 73.4883 210.248 73.0195L209.17 72.4805C207.108 71.4414 206.077 70.1406 206.077 68.5781C206.077 67.5703 206.463 66.7109 207.237 66C208.018 65.2812 209.014 64.9219 210.225 64.9219C211.053 64.9219 211.83 65.1055 212.557 65.4727C213.291 65.832 213.913 66.3516 214.42 67.0312Z" fill="#444242"/>
<path d="M106.286 110H120L129.189 155.909C129.502 157.487 130.361 158.905 131.614 159.914C132.868 160.923 134.437 161.459 136.046 161.429H169.371C170.98 161.459 172.549 160.923 173.803 159.914C175.056 158.905 175.915 157.487 176.229 155.909L181.714 127.143H123.429M137.143 178.571C137.143 180.465 135.608 182 133.714 182C131.821 182 130.286 180.465 130.286 178.571C130.286 176.678 131.821 175.143 133.714 175.143C135.608 175.143 137.143 176.678 137.143 178.571ZM174.857 178.571C174.857 180.465 173.322 182 171.429 182C169.535 182 168 180.465 168 178.571C168 176.678 169.535 175.143 171.429 175.143C173.322 175.143 174.857 176.678 174.857 178.571Z" stroke="#3497DB" stroke-width="4" stroke-linecap="round" stroke-linejoin="round"/>
<defs>
<filter id="filter0_d" x="0" y="0" width="308" height="230" filterUnits="userSpaceOnUse" color-interpolation-filters="sRGB">
<feFlood flood-opacity="0" result="BackgroundImageFix"/>
<feColorMatrix in="SourceAlpha" type="matrix" values="0 0 0 0 0 0 0 0 0 0 0 0 0 0 0 0 0 0 127 0"/>
<feOffset dx="10" dy="10"/>
<feGaussianBlur stdDeviation="7.5"/>
<feColorMatrix type="matrix" values="0 0 0 0 0 0 0 0 0 0 0 0 0 0 0 0 0 0 0.2 0"/>
<feBlend mode="multiply" in2="BackgroundImageFix" result="effect1_dropShadow"/>
<feBlend mode="normal" in="SourceGraphic" in2="effect1_dropShadow" result="shape"/>
</filter>
<linearGradient id="paint0_linear" x1="144" y1="5" x2="144" y2="205" gradientUnits="userSpaceOnUse">
<stop stop-color="white"/>
<stop offset="1" stop-color="white" stop-opacity="0"/>
</linearGradient>
</defs>
</svg>
