<svg width="308" height="230" viewBox="0 0 308 230" fill="none" xmlns="http://www.w3.org/2000/svg">
<g filter="url(#filter0_d)">
<rect x="5" y="5" width="278" height="200" rx="15" fill="#F5F8FA"/>
<rect x="5" y="5" width="278" height="200" rx="15" fill="url(#paint0_linear)"/>
</g>
<path d="M88.5809 47.7617H98.1083V50.9961H94.9677V65H91.6395V50.9961H88.5809V47.7617ZM100.715 52.25H103.949V58.3906C103.949 59.5859 104.031 60.418 104.195 60.8867C104.36 61.3477 104.621 61.707 104.981 61.9648C105.348 62.2227 105.797 62.3516 106.328 62.3516C106.86 62.3516 107.309 62.2266 107.676 61.9766C108.051 61.7188 108.328 61.3438 108.508 60.8516C108.641 60.4844 108.707 59.6992 108.707 58.4961V52.25H111.918V57.6523C111.918 59.8789 111.742 61.4023 111.391 62.2227C110.961 63.2227 110.328 63.9922 109.492 64.5312C108.656 65.0625 107.594 65.3281 106.305 65.3281C104.906 65.3281 103.774 65.0156 102.906 64.3906C102.047 63.7656 101.442 62.8945 101.09 61.7773C100.84 61.0039 100.715 59.5977 100.715 57.5586V52.25ZM123.665 54.0312L121.685 56.0117C120.88 55.2148 120.15 54.8164 119.494 54.8164C119.134 54.8164 118.853 54.8945 118.65 55.0508C118.447 55.1992 118.345 55.3867 118.345 55.6133C118.345 55.7852 118.408 55.9453 118.533 56.0938C118.665 56.2344 118.986 56.4297 119.494 56.6797L120.665 57.2656C121.9 57.875 122.747 58.4961 123.208 59.1289C123.669 59.7617 123.9 60.5039 123.9 61.3555C123.9 62.4883 123.482 63.4336 122.646 64.1914C121.818 64.9492 120.705 65.3281 119.306 65.3281C117.447 65.3281 115.962 64.6016 114.853 63.1484L116.822 61.0039C117.197 61.4414 117.634 61.7969 118.134 62.0703C118.642 62.3359 119.091 62.4688 119.482 62.4688C119.904 62.4688 120.244 62.3672 120.501 62.1641C120.759 61.9609 120.888 61.7266 120.888 61.4609C120.888 60.9688 120.423 60.4883 119.494 60.0195L118.415 59.4805C116.353 58.4414 115.322 57.1406 115.322 55.5781C115.322 54.5703 115.708 53.7109 116.482 53C117.263 52.2812 118.259 51.9219 119.47 51.9219C120.298 51.9219 121.076 52.1055 121.802 52.4727C122.537 52.832 123.158 53.3516 123.665 54.0312ZM144.02 47.3281H147.207V65H144.02V63.6523C143.395 64.2461 142.766 64.6758 142.133 64.9414C141.508 65.1992 140.828 65.3281 140.094 65.3281C138.445 65.3281 137.02 64.6914 135.816 63.418C134.613 62.1367 134.012 60.5469 134.012 58.6484C134.012 56.6797 134.594 55.0664 135.758 53.8086C136.922 52.5508 138.336 51.9219 140 51.9219C140.766 51.9219 141.484 52.0664 142.156 52.3555C142.828 52.6445 143.449 53.0781 144.02 53.6562V47.3281ZM140.656 54.875C139.664 54.875 138.84 55.2266 138.184 55.9297C137.527 56.625 137.199 57.5195 137.199 58.6133C137.199 59.7148 137.531 60.6211 138.195 61.332C138.867 62.043 139.691 62.3984 140.668 62.3984C141.676 62.3984 142.512 62.0508 143.176 61.3555C143.84 60.6523 144.172 59.7344 144.172 58.6016C144.172 57.4922 143.84 56.5938 143.176 55.9062C142.512 55.2188 141.672 54.875 140.656 54.875ZM160.583 52.25H163.771V65H160.583V63.6523C159.958 64.2461 159.329 64.6758 158.697 64.9414C158.072 65.1992 157.392 65.3281 156.657 65.3281C155.009 65.3281 153.583 64.6914 152.38 63.418C151.177 62.1367 150.575 60.5469 150.575 58.6484C150.575 56.6797 151.157 55.0664 152.322 53.8086C153.486 52.5508 154.9 51.9219 156.564 51.9219C157.329 51.9219 158.048 52.0664 158.72 52.3555C159.392 52.6445 160.013 53.0781 160.583 53.6562V52.25ZM157.22 54.875C156.228 54.875 155.404 55.2266 154.747 55.9297C154.091 56.625 153.763 57.5195 153.763 58.6133C153.763 59.7148 154.095 60.6211 154.759 61.332C155.431 62.043 156.255 62.3984 157.232 62.3984C158.24 62.3984 159.075 62.0508 159.74 61.3555C160.404 60.6523 160.736 59.7344 160.736 58.6016C160.736 57.4922 160.404 56.5938 159.74 55.9062C159.075 55.2188 158.236 54.875 157.22 54.875ZM168.112 47.5508H171.299V52.25H173.198V55.0039H171.299V65H168.112V55.0039H166.471V52.25H168.112V47.5508ZM181.629 51.9219C182.832 51.9219 183.961 52.2227 185.015 52.8242C186.078 53.4258 186.906 54.2422 187.5 55.2734C188.094 56.3047 188.39 57.418 188.39 58.6133C188.39 59.8164 188.09 60.9414 187.488 61.9883C186.894 63.0352 186.082 63.8555 185.051 64.4492C184.019 65.0352 182.883 65.3281 181.64 65.3281C179.812 65.3281 178.25 64.6797 176.953 63.3828C175.664 62.0781 175.019 60.4961 175.019 58.6367C175.019 56.6445 175.75 54.9844 177.211 53.6562C178.492 52.5 179.965 51.9219 181.629 51.9219ZM181.676 54.9336C180.683 54.9336 179.855 55.2812 179.191 55.9766C178.535 56.6641 178.207 57.5469 178.207 58.625C178.207 59.7344 178.531 60.6328 179.18 61.3203C179.836 62.0078 180.664 62.3516 181.664 62.3516C182.664 62.3516 183.496 62.0039 184.16 61.3086C184.824 60.6133 185.156 59.7188 185.156 58.625C185.156 57.5312 184.828 56.6445 184.172 55.9648C183.523 55.2773 182.691 54.9336 181.676 54.9336ZM199.54 54.0312L197.56 56.0117C196.755 55.2148 196.025 54.8164 195.368 54.8164C195.009 54.8164 194.728 54.8945 194.525 55.0508C194.321 55.1992 194.22 55.3867 194.22 55.6133C194.22 55.7852 194.282 55.9453 194.407 56.0938C194.54 56.2344 194.86 56.4297 195.368 56.6797L196.54 57.2656C197.775 57.875 198.622 58.4961 199.083 59.1289C199.544 59.7617 199.775 60.5039 199.775 61.3555C199.775 62.4883 199.357 63.4336 198.521 64.1914C197.693 64.9492 196.579 65.3281 195.181 65.3281C193.321 65.3281 191.837 64.6016 190.728 63.1484L192.696 61.0039C193.071 61.4414 193.509 61.7969 194.009 62.0703C194.517 62.3359 194.966 62.4688 195.357 62.4688C195.778 62.4688 196.118 62.3672 196.376 62.1641C196.634 61.9609 196.763 61.7266 196.763 61.4609C196.763 60.9688 196.298 60.4883 195.368 60.0195L194.29 59.4805C192.228 58.4414 191.196 57.1406 191.196 55.5781C191.196 54.5703 191.583 53.7109 192.357 53C193.138 52.2812 194.134 51.9219 195.345 51.9219C196.173 51.9219 196.95 52.1055 197.677 52.4727C198.411 52.832 199.032 53.3516 199.54 54.0312Z" fill="#444242"/>
<path d="M144.5 110.68C128.609 110.68 115.68 123.609 115.68 139.5C115.68 155.392 128.609 168.321 144.5 168.321C160.392 168.321 173.321 155.392 173.321 139.5C173.321 123.609 160.392 110.68 144.5 110.68V110.68ZM129.562 158.901C130.211 155.575 132.327 152.717 135.382 151.117L137.886 149.806C139.278 149.077 140.215 147.769 140.456 146.217C140.698 144.654 140.197 143.11 139.079 141.981C137.657 140.545 136.873 138.64 136.873 136.619V133.374C136.873 129.169 140.295 125.748 144.5 125.748C148.706 125.748 152.127 129.169 152.127 133.374V136.619C152.127 138.64 151.343 140.545 149.921 141.981C148.804 143.11 148.302 144.653 148.545 146.217C148.785 147.769 149.722 149.077 151.114 149.806L153.618 151.117C156.675 152.717 158.791 155.575 159.439 158.9C155.301 162.094 150.119 163.997 144.5 163.997C138.882 163.997 133.7 162.094 129.562 158.901V158.901ZM162.974 155.57C161.648 152.047 159.067 149.089 155.624 147.286L153.12 145.975C152.907 145.863 152.838 145.685 152.818 145.554C152.8 145.44 152.799 145.22 152.994 145.024C155.223 142.772 156.451 139.787 156.451 136.619V133.374C156.451 126.785 151.09 121.423 144.5 121.423C137.91 121.423 132.549 126.785 132.549 133.374V136.619C132.549 139.787 133.777 142.772 136.007 145.024C136.201 145.22 136.2 145.44 136.183 145.554C136.162 145.685 136.093 145.863 135.88 145.975L133.376 147.286C129.934 149.088 127.353 152.047 126.027 155.571C122.278 151.266 120.004 145.644 120.004 139.5C120.004 125.993 130.993 115.004 144.5 115.004C158.007 115.004 168.996 125.993 168.996 139.5C168.997 145.644 166.723 151.265 162.974 155.57V155.57Z" fill="#3497DB"/>
<path d="M170.592 113.408C163.623 106.438 154.356 102.6 144.5 102.6C134.644 102.6 125.377 106.438 118.408 113.408C111.438 120.377 107.6 129.644 107.6 139.5C107.6 149.357 111.438 158.623 118.408 165.592C125.377 172.562 134.644 176.4 144.5 176.4C154.356 176.4 163.623 172.562 170.592 165.592C177.562 158.623 181.4 149.356 181.4 139.5C181.4 129.644 177.562 120.377 170.592 113.408V113.408ZM167.535 162.535C161.382 168.688 153.201 172.076 144.5 172.076C135.799 172.076 127.618 168.687 121.465 162.535C115.313 156.382 111.924 148.201 111.924 139.5C111.924 130.799 115.313 122.618 121.465 116.466C127.618 110.313 135.799 106.924 144.5 106.924C153.201 106.924 161.382 110.313 167.535 116.465C173.688 122.618 177.076 130.799 177.076 139.5C177.076 148.201 173.687 156.382 167.535 162.535V162.535Z" fill="#3497DB"/>
<defs>
<filter id="filter0_d" x="0" y="0" width="308" height="230" filterUnits="userSpaceOnUse" color-interpolation-filters="sRGB">
<feFlood flood-opacity="0" result="BackgroundImageFix"/>
<feColorMatrix in="SourceAlpha" type="matrix" values="0 0 0 0 0 0 0 0 0 0 0 0 0 0 0 0 0 0 127 0"/>
<feOffset dx="10" dy="10"/>
<feGaussianBlur stdDeviation="7.5"/>
<feColorMatrix type="matrix" values="0 0 0 0 0 0 0 0 0 0 0 0 0 0 0 0 0 0 0.2 0"/>
<feBlend mode="multiply" in2="BackgroundImageFix" result="effect1_dropShadow"/>
<feBlend mode="normal" in="SourceGraphic" in2="effect1_dropShadow" result="shape"/>
</filter>
<linearGradient id="paint0_linear" x1="144" y1="5" x2="144" y2="205" gradientUnits="userSpaceOnUse">
<stop stop-color="white"/>
<stop offset="1" stop-color="white" stop-opacity="0"/>
</linearGradient>
</defs>
</svg>
