<svg width="34" height="30" viewBox="0 0 34 30" fill="none" xmlns="http://www.w3.org/2000/svg">
<g filter="url(#filter0_d)">
<rect x="29" y="3" width="22" height="26" rx="4.64052" transform="rotate(90 29 3)" fill="#3497DB"/>
</g>
<g clip-path="url(#clip0)">
<path d="M23.0595 7.9643C22.4325 8.40658 21.7383 8.74485 21.0036 8.96609C20.6093 8.51267 20.0852 8.1913 19.5022 8.04544C18.9193 7.89959 18.3056 7.93628 17.7442 8.15055C17.1828 8.36483 16.7008 8.74635 16.3633 9.24352C16.0258 9.74069 15.8491 10.3295 15.8572 10.9304V11.5851C14.7065 11.615 13.5663 11.3598 12.5382 10.8423C11.51 10.3248 10.6258 9.56103 9.96431 8.61906C9.96431 8.61906 7.34526 14.5119 13.2381 17.131C11.8897 18.0463 10.2833 18.5053 8.65479 18.4405C14.5476 21.7143 21.75 18.4405 21.75 10.9107C21.7494 10.7283 21.7319 10.5464 21.6976 10.3673C22.3659 9.70826 22.8375 8.8762 23.0595 7.9643V7.9643Z" fill="white"/>
</g>
<defs>
<filter id="filter0_d" x="0" y="0" width="34" height="30" filterUnits="userSpaceOnUse" color-interpolation-filters="sRGB">
<feFlood flood-opacity="0" result="BackgroundImageFix"/>
<feColorMatrix in="SourceAlpha" type="matrix" values="0 0 0 0 0 0 0 0 0 0 0 0 0 0 0 0 0 0 127 0"/>
<feOffset dx="1" dy="1"/>
<feGaussianBlur stdDeviation="2"/>
<feColorMatrix type="matrix" values="0 0 0 0 0 0 0 0 0 0 0 0 0 0 0 0 0 0 0.15 0"/>
<feBlend mode="normal" in2="BackgroundImageFix" result="effect1_dropShadow"/>
<feBlend mode="normal" in="SourceGraphic" in2="effect1_dropShadow" result="shape"/>
</filter>
<clipPath id="clip0">
<rect width="15.7143" height="15.7143" fill="white" transform="translate(8 6)"/>
</clipPath>
</defs>
</svg>
