<svg width="34" height="30" viewBox="0 0 34 30" fill="none" xmlns="http://www.w3.org/2000/svg">
<g filter="url(#filter0_d)">
<rect x="29" y="3" width="22" height="26" rx="4.64052" transform="rotate(90 29 3)" fill="#3497DB"/>
</g>
<path d="M14.5893 13.2606C14.928 13.5781 15.3302 13.7369 15.7959 13.7369C16.2617 13.7369 16.6533 13.5781 16.9708 13.2606C17.3095 12.9219 17.4789 12.5197 17.4789 12.0539C17.4789 11.5882 17.3095 11.1966 16.9708 10.879C16.6533 10.5403 16.2617 10.371 15.7959 10.371C15.3302 10.371 14.928 10.5403 14.5893 10.879C14.2717 11.1966 14.113 11.5882 14.113 12.0539C14.113 12.5197 14.2717 12.9219 14.5893 13.2606ZM12.43 8.71976C13.3615 7.78831 14.4834 7.32259 15.7959 7.32259C17.1084 7.32259 18.2198 7.78831 19.1301 8.71976C20.0616 9.63005 20.5273 10.7414 20.5273 12.0539C20.5273 12.7102 20.3579 13.4617 20.0192 14.3085C19.7017 15.1552 19.31 15.9491 18.8443 16.69C18.3786 17.431 17.9129 18.1295 17.4471 18.7858C17.0026 19.4209 16.6215 19.9289 16.304 20.31L15.7959 20.8498C15.6689 20.7016 15.4996 20.5111 15.2879 20.2782C15.0762 20.0242 14.6951 19.5373 14.1447 18.8175C13.5943 18.0766 13.1074 17.3674 12.684 16.69C12.2818 15.9914 11.9113 15.2082 11.5726 14.3402C11.2339 13.4723 11.0646 12.7102 11.0646 12.0539C11.0646 10.7414 11.5197 9.63005 12.43 8.71976Z" fill="#F5F8FA"/>
<path d="M14.5893 13.2606C14.928 13.5781 15.3302 13.7369 15.7959 13.7369C16.2617 13.7369 16.6533 13.5781 16.9708 13.2606C17.3095 12.9219 17.4789 12.5197 17.4789 12.0539C17.4789 11.5882 17.3095 11.1966 16.9708 10.879C16.6533 10.5403 16.2617 10.371 15.7959 10.371C15.3302 10.371 14.928 10.5403 14.5893 10.879C14.2717 11.1966 14.113 11.5882 14.113 12.0539C14.113 12.5197 14.2717 12.9219 14.5893 13.2606ZM12.43 8.71976C13.3615 7.78831 14.4834 7.32259 15.7959 7.32259C17.1084 7.32259 18.2198 7.78831 19.1301 8.71976C20.0616 9.63005 20.5273 10.7414 20.5273 12.0539C20.5273 12.7102 20.3579 13.4617 20.0192 14.3085C19.7017 15.1552 19.31 15.9491 18.8443 16.69C18.3786 17.431 17.9129 18.1295 17.4471 18.7858C17.0026 19.4209 16.6215 19.9289 16.304 20.31L15.7959 20.8498C15.6689 20.7016 15.4996 20.5111 15.2879 20.2782C15.0762 20.0242 14.6951 19.5373 14.1447 18.8175C13.5943 18.0766 13.1074 17.3674 12.684 16.69C12.2818 15.9914 11.9113 15.2082 11.5726 14.3402C11.2339 13.4723 11.0646 12.7102 11.0646 12.0539C11.0646 10.7414 11.5197 9.63005 12.43 8.71976Z" fill="url(#paint0_linear)"/>
<defs>
<filter id="filter0_d" x="0" y="0" width="34" height="30" filterUnits="userSpaceOnUse" color-interpolation-filters="sRGB">
<feFlood flood-opacity="0" result="BackgroundImageFix"/>
<feColorMatrix in="SourceAlpha" type="matrix" values="0 0 0 0 0 0 0 0 0 0 0 0 0 0 0 0 0 0 127 0"/>
<feOffset dx="1" dy="1"/>
<feGaussianBlur stdDeviation="2"/>
<feColorMatrix type="matrix" values="0 0 0 0 0 0 0 0 0 0 0 0 0 0 0 0 0 0 0.15 0"/>
<feBlend mode="normal" in2="BackgroundImageFix" result="effect1_dropShadow"/>
<feBlend mode="normal" in="SourceGraphic" in2="effect1_dropShadow" result="shape"/>
</filter>
<linearGradient id="paint0_linear" x1="15.7959" y1="7.32259" x2="15.7959" y2="20.8498" gradientUnits="userSpaceOnUse">
<stop stop-color="white"/>
<stop offset="1" stop-color="white" stop-opacity="0"/>
</linearGradient>
</defs>
</svg>
