<svg width="315" height="55" viewBox="0 0 315 55" fill="none" xmlns="http://www.w3.org/2000/svg">
<g filter="url(#filter0_d)">
<rect x="8" y="4" width="298.727" height="39.4545" rx="13.1515" fill="#3497DB"/>
</g>
<path d="M55.687 18.2261H57.8916L59.8984 22.0933L61.8906 18.2261H64.0659L60.9165 24.3345V29H58.8511V24.3345L55.687 18.2261ZM70.8481 17.9551C72.3716 17.9551 73.6802 18.5068 74.7739 19.6104C75.8726 20.7139 76.4219 22.0591 76.4219 23.646C76.4219 25.2183 75.8799 26.5488 74.7959 27.6377C73.7168 28.7266 72.4058 29.271 70.8628 29.271C69.2466 29.271 67.9038 28.7119 66.8345 27.5938C65.7651 26.4756 65.2305 25.1475 65.2305 23.6094C65.2305 22.5791 65.4795 21.6318 65.9775 20.7676C66.4756 19.9033 67.1592 19.2197 68.0283 18.7168C68.9023 18.209 69.8423 17.9551 70.8481 17.9551ZM70.8262 19.9619C69.8301 19.9619 68.9927 20.3086 68.314 21.002C67.6353 21.6953 67.2959 22.5767 67.2959 23.646C67.2959 24.8374 67.7231 25.7798 68.5776 26.4731C69.2417 27.0151 70.0034 27.2861 70.8628 27.2861C71.8345 27.2861 72.6621 26.9346 73.3457 26.2314C74.0293 25.5283 74.3711 24.6616 74.3711 23.6313C74.3711 22.606 74.0269 21.7393 73.3384 21.0312C72.6499 20.3184 71.8125 19.9619 70.8262 19.9619ZM87.6499 17.9551C89.1733 17.9551 90.4819 18.5068 91.5757 19.6104C92.6743 20.7139 93.2236 22.0591 93.2236 23.646C93.2236 25.2183 92.6816 26.5488 91.5977 27.6377C90.5186 28.7266 89.2075 29.271 87.6646 29.271C86.0483 29.271 84.7056 28.7119 83.6362 27.5938C82.5669 26.4756 82.0322 25.1475 82.0322 23.6094C82.0322 22.5791 82.2812 21.6318 82.7793 20.7676C83.2773 19.9033 83.9609 19.2197 84.8301 18.7168C85.7041 18.209 86.644 17.9551 87.6499 17.9551ZM87.6279 19.9619C86.6318 19.9619 85.7944 20.3086 85.1157 21.002C84.437 21.6953 84.0977 22.5767 84.0977 23.646C84.0977 24.8374 84.5249 25.7798 85.3794 26.4731C86.0435 27.0151 86.8052 27.2861 87.6646 27.2861C88.6362 27.2861 89.4639 26.9346 90.1475 26.2314C90.8311 25.5283 91.1729 24.6616 91.1729 23.6313C91.1729 22.606 90.8286 21.7393 90.1401 21.0312C89.4517 20.3184 88.6143 19.9619 87.6279 19.9619ZM99.2881 18.2261H101.346V25.1987C101.346 25.7993 101.397 26.2241 101.5 26.4731C101.607 26.7222 101.781 26.9224 102.02 27.0737C102.264 27.2202 102.557 27.2935 102.899 27.2935C103.26 27.2935 103.57 27.2104 103.829 27.0444C104.093 26.8784 104.273 26.6685 104.371 26.4146C104.474 26.1558 104.525 25.665 104.525 24.9424V18.2261H106.583V24.6494C106.583 25.7334 106.522 26.4854 106.4 26.9053C106.278 27.3252 106.043 27.7305 105.697 28.1211C105.355 28.5117 104.959 28.8022 104.51 28.9927C104.061 29.1782 103.539 29.271 102.943 29.271C102.162 29.271 101.48 29.0928 100.899 28.7363C100.323 28.375 99.9106 27.9258 99.6616 27.3887C99.4126 26.8467 99.2881 25.9336 99.2881 24.6494V18.2261ZM108.978 18.2261H110.941L115.562 25.3159V18.2261H117.613V29H115.643L111.029 21.9321V29H108.978V18.2261ZM127.56 18.2261H129.64L133.785 29H131.654L130.812 26.7808H126.417L125.538 29H123.407L127.56 18.2261ZM128.614 21.0825L127.179 24.7812H130.042L128.614 21.0825ZM136.422 18.2261H138.429L140.919 25.7407L143.446 18.2261H145.423L147.24 29H145.262L144.105 22.1958L141.812 29H140.003L137.74 22.1958L136.561 29H134.562L136.422 18.2261ZM148.741 18.2261H150.777V29H148.741V18.2261ZM163.038 19.9839L161.595 21.4121C160.682 20.4453 159.618 19.9619 158.402 19.9619C157.342 19.9619 156.454 20.3135 155.736 21.0166C155.023 21.7197 154.667 22.5742 154.667 23.5801C154.667 24.6201 155.038 25.5015 155.78 26.2241C156.522 26.9468 157.438 27.3081 158.526 27.3081C159.234 27.3081 159.83 27.1592 160.313 26.8613C160.802 26.5635 161.195 26.0972 161.493 25.4624H158.373V23.5361H163.792L163.807 23.9902C163.807 24.9326 163.563 25.8262 163.075 26.6709C162.586 27.5156 161.954 28.1602 161.178 28.6045C160.401 29.0488 159.491 29.271 158.446 29.271C157.328 29.271 156.329 29.0293 155.45 28.5459C154.576 28.0576 153.883 27.3643 153.37 26.4658C152.862 25.5674 152.608 24.5981 152.608 23.5581C152.608 22.1323 153.08 20.8921 154.022 19.8374C155.14 18.5825 156.595 17.9551 158.387 17.9551C159.325 17.9551 160.201 18.1284 161.017 18.4751C161.705 18.7681 162.379 19.271 163.038 19.9839ZM173.453 26.7954H174.852C174.32 27.4546 173.846 27.9355 173.431 28.2383C173.021 28.5361 172.542 28.7705 171.996 28.9414C171.449 29.1123 170.88 29.1978 170.289 29.1978C169.244 29.1978 168.275 28.9438 167.381 28.436C166.488 27.9233 165.787 27.2275 165.279 26.3486C164.771 25.4697 164.518 24.5127 164.518 23.4775C164.518 22.4326 164.771 21.4609 165.279 20.5625C165.792 19.6641 166.488 18.9658 167.367 18.4678C168.25 17.9697 169.22 17.7207 170.274 17.7207C171.739 17.7207 172.975 18.1919 173.98 19.1343C174.991 20.0767 175.497 21.1729 175.497 22.4229C175.497 23.3408 175.284 24.1318 174.859 24.7959C174.439 25.4551 173.866 25.9702 173.138 26.3413C172.582 26.6245 172.115 26.7661 171.739 26.7661C171.456 26.7661 171.229 26.6904 171.058 26.5391C170.926 26.4316 170.855 26.2461 170.846 25.9824C170.416 26.4561 169.894 26.6929 169.278 26.6929C168.585 26.6929 168.006 26.4463 167.542 25.9531C167.083 25.46 166.854 24.8032 166.854 23.9829C166.854 23.0796 167.137 22.2739 167.704 21.5659C168.27 20.853 169.022 20.4966 169.959 20.4966C170.345 20.4966 170.689 20.5771 170.992 20.7383C171.295 20.8945 171.554 21.1338 171.769 21.4561L171.922 20.687H173.358L172.633 24.957C172.584 25.2598 172.56 25.4307 172.56 25.4697C172.56 25.5234 172.584 25.5747 172.633 25.6235C172.687 25.6675 172.748 25.6895 172.816 25.6895C172.987 25.6895 173.216 25.5723 173.504 25.3379C173.797 25.0986 174.034 24.7568 174.215 24.3125C174.4 23.8633 174.493 23.3726 174.493 22.8403C174.493 22.0493 174.32 21.3511 173.973 20.7456C173.626 20.1401 173.128 19.6641 172.479 19.3174C171.83 18.9707 171.085 18.7974 170.245 18.7974C169.361 18.7974 168.568 18.9951 167.865 19.3906C167.162 19.7812 166.607 20.3379 166.202 21.0605C165.797 21.7783 165.594 22.5693 165.594 23.4336C165.594 24.3174 165.799 25.1182 166.209 25.8359C166.62 26.5537 167.193 27.1128 167.931 27.5132C168.668 27.9136 169.493 28.1138 170.406 28.1138C170.943 28.1138 171.451 28.0137 171.93 27.8135C172.408 27.6133 172.916 27.2739 173.453 26.7954ZM169.872 25.1475C170.296 25.1475 170.648 24.9741 170.926 24.6274C171.205 24.2759 171.344 23.8804 171.344 23.4409C171.344 23.0601 171.229 22.75 171 22.5107C170.775 22.2666 170.492 22.1445 170.15 22.1445C169.75 22.1445 169.4 22.3105 169.103 22.6426C168.805 22.9697 168.656 23.3677 168.656 23.8364C168.656 24.2319 168.768 24.5493 168.993 24.7886C169.217 25.0278 169.51 25.1475 169.872 25.1475ZM180.997 18.2261H183.048V27.0444H186.036V29H180.997V18.2261ZM192.694 17.9551C194.217 17.9551 195.526 18.5068 196.62 19.6104C197.718 20.7139 198.268 22.0591 198.268 23.646C198.268 25.2183 197.726 26.5488 196.642 27.6377C195.562 28.7266 194.251 29.271 192.708 29.271C191.092 29.271 189.75 28.7119 188.68 27.5938C187.611 26.4756 187.076 25.1475 187.076 23.6094C187.076 22.5791 187.325 21.6318 187.823 20.7676C188.321 19.9033 189.005 19.2197 189.874 18.7168C190.748 18.209 191.688 17.9551 192.694 17.9551ZM192.672 19.9619C191.676 19.9619 190.838 20.3086 190.16 21.002C189.481 21.6953 189.142 22.5767 189.142 23.646C189.142 24.8374 189.569 25.7798 190.423 26.4731C191.087 27.0151 191.849 27.2861 192.708 27.2861C193.68 27.2861 194.508 26.9346 195.191 26.2314C195.875 25.5283 196.217 24.6616 196.217 23.6313C196.217 22.606 195.873 21.7393 195.184 21.0312C194.496 20.3184 193.658 19.9619 192.672 19.9619ZM204.544 18.2261H206.72C207.911 18.2261 208.758 18.3335 209.261 18.5483C209.769 18.7583 210.177 19.1099 210.484 19.603C210.792 20.0962 210.946 20.6797 210.946 21.3535C210.946 22.0615 210.775 22.6548 210.433 23.1333C210.096 23.6069 209.586 23.9658 208.902 24.21L211.451 29H209.21L206.786 24.437H206.595V29H204.544V18.2261ZM206.595 22.4375H207.24C207.894 22.4375 208.343 22.3521 208.587 22.1812C208.836 22.0103 208.961 21.7271 208.961 21.3315C208.961 21.0972 208.9 20.8945 208.778 20.7236C208.656 20.5479 208.492 20.4233 208.287 20.3501C208.082 20.272 207.706 20.2329 207.159 20.2329H206.595V22.4375ZM213.114 18.2261H218.995V20.2329H215.15V22.1812H218.995V24.1514H215.15V26.9858H218.995V29H213.114V18.2261ZM230.816 20.123L229.381 21.4927C228.404 20.4624 227.306 19.9473 226.085 19.9473C225.055 19.9473 224.186 20.2988 223.478 21.002C222.774 21.7051 222.423 22.5718 222.423 23.6021C222.423 24.3198 222.579 24.957 222.892 25.5137C223.204 26.0703 223.646 26.5073 224.217 26.8247C224.789 27.1421 225.423 27.3008 226.122 27.3008C226.717 27.3008 227.262 27.1909 227.755 26.9712C228.248 26.7466 228.79 26.3413 229.381 25.7554L230.772 27.2056C229.977 27.9819 229.225 28.5215 228.517 28.8242C227.809 29.1221 227 29.271 226.092 29.271C224.417 29.271 223.045 28.7412 221.976 27.6816C220.912 26.6172 220.379 25.2549 220.379 23.5947C220.379 22.5205 220.621 21.5659 221.104 20.731C221.593 19.896 222.289 19.2246 223.192 18.7168C224.1 18.209 225.077 17.9551 226.122 17.9551C227.01 17.9551 227.865 18.1431 228.685 18.519C229.51 18.895 230.221 19.4297 230.816 20.123ZM237.708 17.9551C239.232 17.9551 240.541 18.5068 241.634 19.6104C242.733 20.7139 243.282 22.0591 243.282 23.646C243.282 25.2183 242.74 26.5488 241.656 27.6377C240.577 28.7266 239.266 29.271 237.723 29.271C236.107 29.271 234.764 28.7119 233.695 27.5938C232.625 26.4756 232.091 25.1475 232.091 23.6094C232.091 22.5791 232.34 21.6318 232.838 20.7676C233.336 19.9033 234.02 19.2197 234.889 18.7168C235.763 18.209 236.703 17.9551 237.708 17.9551ZM237.687 19.9619C236.69 19.9619 235.853 20.3086 235.174 21.002C234.496 21.6953 234.156 22.5767 234.156 23.646C234.156 24.8374 234.583 25.7798 235.438 26.4731C236.102 27.0151 236.864 27.2861 237.723 27.2861C238.695 27.2861 239.522 26.9346 240.206 26.2314C240.89 25.5283 241.231 24.6616 241.231 23.6313C241.231 22.606 240.887 21.7393 240.199 21.0312C239.51 20.3184 238.673 19.9619 237.687 19.9619ZM247.896 18.2261H249.955V25.3745C249.955 26.5122 249.864 27.3105 249.684 27.7695C249.503 28.2285 249.205 28.5947 248.79 28.8682C248.375 29.1367 247.877 29.271 247.296 29.271C246.109 29.271 245.099 28.751 244.264 27.7109L245.743 26.3267C246.07 26.6978 246.349 26.9468 246.578 27.0737C246.808 27.2007 247.03 27.2642 247.245 27.2642C247.464 27.2642 247.628 27.1714 247.735 26.9858C247.843 26.8003 247.896 26.3926 247.896 25.7627V18.2261ZM252.43 18.2261H258.312V20.2329H254.466V22.1812H258.312V24.1514H254.466V26.9858H258.312V29H252.43V18.2261Z" fill="#F5F8FA"/>
<path d="M55.687 18.2261H57.8916L59.8984 22.0933L61.8906 18.2261H64.0659L60.9165 24.3345V29H58.8511V24.3345L55.687 18.2261ZM70.8481 17.9551C72.3716 17.9551 73.6802 18.5068 74.7739 19.6104C75.8726 20.7139 76.4219 22.0591 76.4219 23.646C76.4219 25.2183 75.8799 26.5488 74.7959 27.6377C73.7168 28.7266 72.4058 29.271 70.8628 29.271C69.2466 29.271 67.9038 28.7119 66.8345 27.5938C65.7651 26.4756 65.2305 25.1475 65.2305 23.6094C65.2305 22.5791 65.4795 21.6318 65.9775 20.7676C66.4756 19.9033 67.1592 19.2197 68.0283 18.7168C68.9023 18.209 69.8423 17.9551 70.8481 17.9551ZM70.8262 19.9619C69.8301 19.9619 68.9927 20.3086 68.314 21.002C67.6353 21.6953 67.2959 22.5767 67.2959 23.646C67.2959 24.8374 67.7231 25.7798 68.5776 26.4731C69.2417 27.0151 70.0034 27.2861 70.8628 27.2861C71.8345 27.2861 72.6621 26.9346 73.3457 26.2314C74.0293 25.5283 74.3711 24.6616 74.3711 23.6313C74.3711 22.606 74.0269 21.7393 73.3384 21.0312C72.6499 20.3184 71.8125 19.9619 70.8262 19.9619ZM87.6499 17.9551C89.1733 17.9551 90.4819 18.5068 91.5757 19.6104C92.6743 20.7139 93.2236 22.0591 93.2236 23.646C93.2236 25.2183 92.6816 26.5488 91.5977 27.6377C90.5186 28.7266 89.2075 29.271 87.6646 29.271C86.0483 29.271 84.7056 28.7119 83.6362 27.5938C82.5669 26.4756 82.0322 25.1475 82.0322 23.6094C82.0322 22.5791 82.2812 21.6318 82.7793 20.7676C83.2773 19.9033 83.9609 19.2197 84.8301 18.7168C85.7041 18.209 86.644 17.9551 87.6499 17.9551ZM87.6279 19.9619C86.6318 19.9619 85.7944 20.3086 85.1157 21.002C84.437 21.6953 84.0977 22.5767 84.0977 23.646C84.0977 24.8374 84.5249 25.7798 85.3794 26.4731C86.0435 27.0151 86.8052 27.2861 87.6646 27.2861C88.6362 27.2861 89.4639 26.9346 90.1475 26.2314C90.8311 25.5283 91.1729 24.6616 91.1729 23.6313C91.1729 22.606 90.8286 21.7393 90.1401 21.0312C89.4517 20.3184 88.6143 19.9619 87.6279 19.9619ZM99.2881 18.2261H101.346V25.1987C101.346 25.7993 101.397 26.2241 101.5 26.4731C101.607 26.7222 101.781 26.9224 102.02 27.0737C102.264 27.2202 102.557 27.2935 102.899 27.2935C103.26 27.2935 103.57 27.2104 103.829 27.0444C104.093 26.8784 104.273 26.6685 104.371 26.4146C104.474 26.1558 104.525 25.665 104.525 24.9424V18.2261H106.583V24.6494C106.583 25.7334 106.522 26.4854 106.4 26.9053C106.278 27.3252 106.043 27.7305 105.697 28.1211C105.355 28.5117 104.959 28.8022 104.51 28.9927C104.061 29.1782 103.539 29.271 102.943 29.271C102.162 29.271 101.48 29.0928 100.899 28.7363C100.323 28.375 99.9106 27.9258 99.6616 27.3887C99.4126 26.8467 99.2881 25.9336 99.2881 24.6494V18.2261ZM108.978 18.2261H110.941L115.562 25.3159V18.2261H117.613V29H115.643L111.029 21.9321V29H108.978V18.2261ZM127.56 18.2261H129.64L133.785 29H131.654L130.812 26.7808H126.417L125.538 29H123.407L127.56 18.2261ZM128.614 21.0825L127.179 24.7812H130.042L128.614 21.0825ZM136.422 18.2261H138.429L140.919 25.7407L143.446 18.2261H145.423L147.24 29H145.262L144.105 22.1958L141.812 29H140.003L137.74 22.1958L136.561 29H134.562L136.422 18.2261ZM148.741 18.2261H150.777V29H148.741V18.2261ZM163.038 19.9839L161.595 21.4121C160.682 20.4453 159.618 19.9619 158.402 19.9619C157.342 19.9619 156.454 20.3135 155.736 21.0166C155.023 21.7197 154.667 22.5742 154.667 23.5801C154.667 24.6201 155.038 25.5015 155.78 26.2241C156.522 26.9468 157.438 27.3081 158.526 27.3081C159.234 27.3081 159.83 27.1592 160.313 26.8613C160.802 26.5635 161.195 26.0972 161.493 25.4624H158.373V23.5361H163.792L163.807 23.9902C163.807 24.9326 163.563 25.8262 163.075 26.6709C162.586 27.5156 161.954 28.1602 161.178 28.6045C160.401 29.0488 159.491 29.271 158.446 29.271C157.328 29.271 156.329 29.0293 155.45 28.5459C154.576 28.0576 153.883 27.3643 153.37 26.4658C152.862 25.5674 152.608 24.5981 152.608 23.5581C152.608 22.1323 153.08 20.8921 154.022 19.8374C155.14 18.5825 156.595 17.9551 158.387 17.9551C159.325 17.9551 160.201 18.1284 161.017 18.4751C161.705 18.7681 162.379 19.271 163.038 19.9839ZM173.453 26.7954H174.852C174.32 27.4546 173.846 27.9355 173.431 28.2383C173.021 28.5361 172.542 28.7705 171.996 28.9414C171.449 29.1123 170.88 29.1978 170.289 29.1978C169.244 29.1978 168.275 28.9438 167.381 28.436C166.488 27.9233 165.787 27.2275 165.279 26.3486C164.771 25.4697 164.518 24.5127 164.518 23.4775C164.518 22.4326 164.771 21.4609 165.279 20.5625C165.792 19.6641 166.488 18.9658 167.367 18.4678C168.25 17.9697 169.22 17.7207 170.274 17.7207C171.739 17.7207 172.975 18.1919 173.98 19.1343C174.991 20.0767 175.497 21.1729 175.497 22.4229C175.497 23.3408 175.284 24.1318 174.859 24.7959C174.439 25.4551 173.866 25.9702 173.138 26.3413C172.582 26.6245 172.115 26.7661 171.739 26.7661C171.456 26.7661 171.229 26.6904 171.058 26.5391C170.926 26.4316 170.855 26.2461 170.846 25.9824C170.416 26.4561 169.894 26.6929 169.278 26.6929C168.585 26.6929 168.006 26.4463 167.542 25.9531C167.083 25.46 166.854 24.8032 166.854 23.9829C166.854 23.0796 167.137 22.2739 167.704 21.5659C168.27 20.853 169.022 20.4966 169.959 20.4966C170.345 20.4966 170.689 20.5771 170.992 20.7383C171.295 20.8945 171.554 21.1338 171.769 21.4561L171.922 20.687H173.358L172.633 24.957C172.584 25.2598 172.56 25.4307 172.56 25.4697C172.56 25.5234 172.584 25.5747 172.633 25.6235C172.687 25.6675 172.748 25.6895 172.816 25.6895C172.987 25.6895 173.216 25.5723 173.504 25.3379C173.797 25.0986 174.034 24.7568 174.215 24.3125C174.4 23.8633 174.493 23.3726 174.493 22.8403C174.493 22.0493 174.32 21.3511 173.973 20.7456C173.626 20.1401 173.128 19.6641 172.479 19.3174C171.83 18.9707 171.085 18.7974 170.245 18.7974C169.361 18.7974 168.568 18.9951 167.865 19.3906C167.162 19.7812 166.607 20.3379 166.202 21.0605C165.797 21.7783 165.594 22.5693 165.594 23.4336C165.594 24.3174 165.799 25.1182 166.209 25.8359C166.62 26.5537 167.193 27.1128 167.931 27.5132C168.668 27.9136 169.493 28.1138 170.406 28.1138C170.943 28.1138 171.451 28.0137 171.93 27.8135C172.408 27.6133 172.916 27.2739 173.453 26.7954ZM169.872 25.1475C170.296 25.1475 170.648 24.9741 170.926 24.6274C171.205 24.2759 171.344 23.8804 171.344 23.4409C171.344 23.0601 171.229 22.75 171 22.5107C170.775 22.2666 170.492 22.1445 170.15 22.1445C169.75 22.1445 169.4 22.3105 169.103 22.6426C168.805 22.9697 168.656 23.3677 168.656 23.8364C168.656 24.2319 168.768 24.5493 168.993 24.7886C169.217 25.0278 169.51 25.1475 169.872 25.1475ZM180.997 18.2261H183.048V27.0444H186.036V29H180.997V18.2261ZM192.694 17.9551C194.217 17.9551 195.526 18.5068 196.62 19.6104C197.718 20.7139 198.268 22.0591 198.268 23.646C198.268 25.2183 197.726 26.5488 196.642 27.6377C195.562 28.7266 194.251 29.271 192.708 29.271C191.092 29.271 189.75 28.7119 188.68 27.5938C187.611 26.4756 187.076 25.1475 187.076 23.6094C187.076 22.5791 187.325 21.6318 187.823 20.7676C188.321 19.9033 189.005 19.2197 189.874 18.7168C190.748 18.209 191.688 17.9551 192.694 17.9551ZM192.672 19.9619C191.676 19.9619 190.838 20.3086 190.16 21.002C189.481 21.6953 189.142 22.5767 189.142 23.646C189.142 24.8374 189.569 25.7798 190.423 26.4731C191.087 27.0151 191.849 27.2861 192.708 27.2861C193.68 27.2861 194.508 26.9346 195.191 26.2314C195.875 25.5283 196.217 24.6616 196.217 23.6313C196.217 22.606 195.873 21.7393 195.184 21.0312C194.496 20.3184 193.658 19.9619 192.672 19.9619ZM204.544 18.2261H206.72C207.911 18.2261 208.758 18.3335 209.261 18.5483C209.769 18.7583 210.177 19.1099 210.484 19.603C210.792 20.0962 210.946 20.6797 210.946 21.3535C210.946 22.0615 210.775 22.6548 210.433 23.1333C210.096 23.6069 209.586 23.9658 208.902 24.21L211.451 29H209.21L206.786 24.437H206.595V29H204.544V18.2261ZM206.595 22.4375H207.24C207.894 22.4375 208.343 22.3521 208.587 22.1812C208.836 22.0103 208.961 21.7271 208.961 21.3315C208.961 21.0972 208.9 20.8945 208.778 20.7236C208.656 20.5479 208.492 20.4233 208.287 20.3501C208.082 20.272 207.706 20.2329 207.159 20.2329H206.595V22.4375ZM213.114 18.2261H218.995V20.2329H215.15V22.1812H218.995V24.1514H215.15V26.9858H218.995V29H213.114V18.2261ZM230.816 20.123L229.381 21.4927C228.404 20.4624 227.306 19.9473 226.085 19.9473C225.055 19.9473 224.186 20.2988 223.478 21.002C222.774 21.7051 222.423 22.5718 222.423 23.6021C222.423 24.3198 222.579 24.957 222.892 25.5137C223.204 26.0703 223.646 26.5073 224.217 26.8247C224.789 27.1421 225.423 27.3008 226.122 27.3008C226.717 27.3008 227.262 27.1909 227.755 26.9712C228.248 26.7466 228.79 26.3413 229.381 25.7554L230.772 27.2056C229.977 27.9819 229.225 28.5215 228.517 28.8242C227.809 29.1221 227 29.271 226.092 29.271C224.417 29.271 223.045 28.7412 221.976 27.6816C220.912 26.6172 220.379 25.2549 220.379 23.5947C220.379 22.5205 220.621 21.5659 221.104 20.731C221.593 19.896 222.289 19.2246 223.192 18.7168C224.1 18.209 225.077 17.9551 226.122 17.9551C227.01 17.9551 227.865 18.1431 228.685 18.519C229.51 18.895 230.221 19.4297 230.816 20.123ZM237.708 17.9551C239.232 17.9551 240.541 18.5068 241.634 19.6104C242.733 20.7139 243.282 22.0591 243.282 23.646C243.282 25.2183 242.74 26.5488 241.656 27.6377C240.577 28.7266 239.266 29.271 237.723 29.271C236.107 29.271 234.764 28.7119 233.695 27.5938C232.625 26.4756 232.091 25.1475 232.091 23.6094C232.091 22.5791 232.34 21.6318 232.838 20.7676C233.336 19.9033 234.02 19.2197 234.889 18.7168C235.763 18.209 236.703 17.9551 237.708 17.9551ZM237.687 19.9619C236.69 19.9619 235.853 20.3086 235.174 21.002C234.496 21.6953 234.156 22.5767 234.156 23.646C234.156 24.8374 234.583 25.7798 235.438 26.4731C236.102 27.0151 236.864 27.2861 237.723 27.2861C238.695 27.2861 239.522 26.9346 240.206 26.2314C240.89 25.5283 241.231 24.6616 241.231 23.6313C241.231 22.606 240.887 21.7393 240.199 21.0312C239.51 20.3184 238.673 19.9619 237.687 19.9619ZM247.896 18.2261H249.955V25.3745C249.955 26.5122 249.864 27.3105 249.684 27.7695C249.503 28.2285 249.205 28.5947 248.79 28.8682C248.375 29.1367 247.877 29.271 247.296 29.271C246.109 29.271 245.099 28.751 244.264 27.7109L245.743 26.3267C246.07 26.6978 246.349 26.9468 246.578 27.0737C246.808 27.2007 247.03 27.2642 247.245 27.2642C247.464 27.2642 247.628 27.1714 247.735 26.9858C247.843 26.8003 247.896 26.3926 247.896 25.7627V18.2261ZM252.43 18.2261H258.312V20.2329H254.466V22.1812H258.312V24.1514H254.466V26.9858H258.312V29H252.43V18.2261Z" fill="url(#paint0_linear)"/>
<defs>
<filter id="filter0_d" x="0.484848" y="0.242424" width="313.758" height="54.4848" filterUnits="userSpaceOnUse" color-interpolation-filters="sRGB">
<feFlood flood-opacity="0" result="BackgroundImageFix"/>
<feColorMatrix in="SourceAlpha" type="matrix" values="0 0 0 0 0 0 0 0 0 0 0 0 0 0 0 0 0 0 127 0"/>
<feOffset dy="3.75758"/>
<feGaussianBlur stdDeviation="3.75758"/>
<feColorMatrix type="matrix" values="0 0 0 0 0 0 0 0 0 0 0 0 0 0 0 0 0 0 0.15 0"/>
<feBlend mode="normal" in2="BackgroundImageFix" result="effect1_dropShadow"/>
<feBlend mode="normal" in="SourceGraphic" in2="effect1_dropShadow" result="shape"/>
</filter>
<linearGradient id="paint0_linear" x1="157" y1="14" x2="157" y2="32" gradientUnits="userSpaceOnUse">
<stop stop-color="white"/>
<stop offset="1" stop-color="white" stop-opacity="0"/>
</linearGradient>
</defs>
</svg>
